M48
; DRILL file {KiCad 7.0.2-0} date 2023 October 10, Tuesday 16:02:51
; FORMAT={-:-/ absolute / inch / decimal}
; #@! TF.CreationDate,2023-10-10T16:02:51-04:00
; #@! TF.GenerationSoftware,Kicad,Pcbnew,7.0.2-0
; #@! TF.FileFunction,Plated,1,2,PTH
FMAT,2
INCH
; #@! TA.AperFunction,Plated,PTH,ViaDrill
T1C0.0157
; #@! TA.AperFunction,Plated,PTH,ComponentDrill
T2C0.0197
; #@! TA.AperFunction,Plated,PTH,ComponentDrill
T3C0.0394
; #@! TA.AperFunction,Plated,PTH,ComponentDrill
T4C0.0866
%
G90
G05
T1
X6.9685Y-1.8898
X6.9685Y-1.9685
X6.9685Y-2.0472
X7.12Y-1.92
X7.12Y-1.98
X7.12Y-2.04
X7.18Y-1.92
X7.18Y-1.98
X7.18Y-2.04
X7.24Y-1.92
X7.24Y-1.98
X7.24Y-2.04
X7.74Y-1.94
X7.74Y-2.0
X7.74Y-2.06
X7.8Y-1.94
X7.8Y-2.0
X7.8Y-2.06
X7.82Y-2.52
X7.86Y-1.94
X7.86Y-2.0
X7.86Y-2.06
X7.88Y-2.52
X7.9528Y-2.5197
X8.0128Y-2.5197
T2
X8.0709Y-1.7717
X8.0709Y-1.811
X8.0709Y-1.8504
X8.0709Y-2.0866
X8.0709Y-2.126
X8.0709Y-2.1654
T3
X6.98Y-1.54
X6.98Y-1.64
X7.08Y-1.54
X7.08Y-1.64
X7.18Y-1.54
X7.18Y-1.64
X7.28Y-1.54
X7.28Y-1.64
X7.38Y-1.54
X7.38Y-1.64
T4
X6.2992Y-1.5748
X6.2992Y-2.3622
X8.0709Y-1.5748
X8.0709Y-2.3622
T3
G00X6.28Y-1.9229
M15
G01X6.28Y-2.0017
M16
G05
G00X6.3587Y-2.1473
M15
G01X6.4375Y-2.1473
M16
G05
G00X6.5162Y-1.9229
M15
G01X6.5162Y-2.0017
M16
G05
T0
M30
