%TF.GenerationSoftware,KiCad,Pcbnew,7.0.2-0*%
%TF.CreationDate,2023-10-10T16:02:43-04:00*%
%TF.ProjectId,WiringHarness,57697269-6e67-4486-9172-6e6573732e6b,rev?*%
%TF.SameCoordinates,Original*%
%TF.FileFunction,Copper,L1,Top*%
%TF.FilePolarity,Positive*%
%FSLAX46Y46*%
G04 Gerber Fmt 4.6, Leading zero omitted, Abs format (unit mm)*
G04 Created by KiCad (PCBNEW 7.0.2-0) date 2023-10-10 16:02:43*
%MOMM*%
%LPD*%
G01*
G04 APERTURE LIST*
G04 Aperture macros list*
%AMRoundRect*
0 Rectangle with rounded corners*
0 $1 Rounding radius*
0 $2 $3 $4 $5 $6 $7 $8 $9 X,Y pos of 4 corners*
0 Add a 4 corners polygon primitive as box body*
4,1,4,$2,$3,$4,$5,$6,$7,$8,$9,$2,$3,0*
0 Add four circle primitives for the rounded corners*
1,1,$1+$1,$2,$3*
1,1,$1+$1,$4,$5*
1,1,$1+$1,$6,$7*
1,1,$1+$1,$8,$9*
0 Add four rect primitives between the rounded corners*
20,1,$1+$1,$2,$3,$4,$5,0*
20,1,$1+$1,$4,$5,$6,$7,0*
20,1,$1+$1,$6,$7,$8,$9,0*
20,1,$1+$1,$8,$9,$2,$3,0*%
G04 Aperture macros list end*
%TA.AperFunction,ComponentPad*%
%ADD10R,0.850000X0.850000*%
%TD*%
%TA.AperFunction,ComponentPad*%
%ADD11O,0.850000X0.850000*%
%TD*%
%TA.AperFunction,SMDPad,CuDef*%
%ADD12RoundRect,0.225000X0.250000X-0.225000X0.250000X0.225000X-0.250000X0.225000X-0.250000X-0.225000X0*%
%TD*%
%TA.AperFunction,ComponentPad*%
%ADD13C,4.400000*%
%TD*%
%TA.AperFunction,SMDPad,CuDef*%
%ADD14RoundRect,0.250000X0.350000X-0.850000X0.350000X0.850000X-0.350000X0.850000X-0.350000X-0.850000X0*%
%TD*%
%TA.AperFunction,SMDPad,CuDef*%
%ADD15RoundRect,0.250000X1.125000X-1.275000X1.125000X1.275000X-1.125000X1.275000X-1.125000X-1.275000X0*%
%TD*%
%TA.AperFunction,SMDPad,CuDef*%
%ADD16RoundRect,0.249997X2.650003X-2.950003X2.650003X2.950003X-2.650003X2.950003X-2.650003X-2.950003X0*%
%TD*%
%TA.AperFunction,SMDPad,CuDef*%
%ADD17RoundRect,0.225000X-0.225000X-0.250000X0.225000X-0.250000X0.225000X0.250000X-0.225000X0.250000X0*%
%TD*%
%TA.AperFunction,SMDPad,CuDef*%
%ADD18RoundRect,0.225000X0.225000X0.250000X-0.225000X0.250000X-0.225000X-0.250000X0.225000X-0.250000X0*%
%TD*%
%TA.AperFunction,ComponentPad*%
%ADD19R,3.500000X3.500000*%
%TD*%
%TA.AperFunction,ComponentPad*%
%ADD20RoundRect,0.750000X-0.750000X-1.000000X0.750000X-1.000000X0.750000X1.000000X-0.750000X1.000000X0*%
%TD*%
%TA.AperFunction,ComponentPad*%
%ADD21RoundRect,0.875000X-0.875000X-0.875000X0.875000X-0.875000X0.875000X0.875000X-0.875000X0.875000X0*%
%TD*%
%TA.AperFunction,ComponentPad*%
%ADD22R,1.700000X1.700000*%
%TD*%
%TA.AperFunction,ComponentPad*%
%ADD23O,1.700000X1.700000*%
%TD*%
%TA.AperFunction,SMDPad,CuDef*%
%ADD24RoundRect,0.225000X-0.250000X0.225000X-0.250000X-0.225000X0.250000X-0.225000X0.250000X0.225000X0*%
%TD*%
%TA.AperFunction,SMDPad,CuDef*%
%ADD25RoundRect,0.218750X-0.218750X-0.256250X0.218750X-0.256250X0.218750X0.256250X-0.218750X0.256250X0*%
%TD*%
%TA.AperFunction,ViaPad*%
%ADD26C,0.800000*%
%TD*%
%TA.AperFunction,Conductor*%
%ADD27C,0.635000*%
%TD*%
%TA.AperFunction,Conductor*%
%ADD28C,0.254000*%
%TD*%
%TA.AperFunction,Conductor*%
%ADD29C,1.270000*%
%TD*%
%TA.AperFunction,Conductor*%
%ADD30C,0.250000*%
%TD*%
G04 APERTURE END LIST*
D10*
%TO.P,J3,1,Pin_1*%
%TO.N,/ServoX*%
X205000000Y-53000000D03*
D11*
%TO.P,J3,2,Pin_2*%
%TO.N,/VoutServo*%
X205000000Y-54000000D03*
%TO.P,J3,3,Pin_3*%
%TO.N,GND*%
X205000000Y-55000000D03*
%TD*%
D12*
%TO.P,C2,1*%
%TO.N,/Visol*%
X176276000Y-55906000D03*
%TO.P,C2,2*%
%TO.N,GND*%
X176276000Y-54356000D03*
%TD*%
D13*
%TO.P,H5,1,1*%
%TO.N,GND*%
X160000000Y-40000000D03*
%TD*%
D14*
%TO.P,U2,1,IN*%
%TO.N,/Visol*%
X180092000Y-56524000D03*
D15*
%TO.P,U2,2,GND*%
%TO.N,GND*%
X180847000Y-51899000D03*
X183897000Y-51899000D03*
D16*
X182372000Y-50224000D03*
D15*
X180847000Y-48549000D03*
X183897000Y-48549000D03*
D14*
%TO.P,U2,3,OUT*%
%TO.N,/Vsys*%
X184652000Y-56524000D03*
%TD*%
D13*
%TO.P,H3,1,1*%
%TO.N,GND*%
X160000000Y-60000000D03*
%TD*%
D10*
%TO.P,J2,1,Pin_1*%
%TO.N,/ServoY*%
X205000000Y-45000000D03*
D11*
%TO.P,J2,2,Pin_2*%
%TO.N,/VoutServo*%
X205000000Y-46000000D03*
%TO.P,J2,3,Pin_3*%
%TO.N,GND*%
X205000000Y-47000000D03*
%TD*%
D17*
%TO.P,C1,1*%
%TO.N,+12V*%
X196088000Y-60802000D03*
%TO.P,C1,2*%
%TO.N,GND*%
X197638000Y-60802000D03*
%TD*%
D18*
%TO.P,C3,1*%
%TO.N,/Vsys*%
X188735000Y-50800000D03*
%TO.P,C3,2*%
%TO.N,GND*%
X187185000Y-50800000D03*
%TD*%
D19*
%TO.P,J1,1*%
%TO.N,+12V*%
X165512000Y-49842500D03*
D20*
%TO.P,J1,2*%
%TO.N,GND*%
X159512000Y-49842500D03*
D21*
%TO.P,J1,3*%
%TO.N,N/C*%
X162512000Y-54542500D03*
%TD*%
D14*
%TO.P,U1,1,IN*%
%TO.N,+12V*%
X195840000Y-57032000D03*
D15*
%TO.P,U1,2,GND*%
%TO.N,GND*%
X196595000Y-52407000D03*
X199645000Y-52407000D03*
D16*
X198120000Y-50732000D03*
D15*
X196595000Y-49057000D03*
X199645000Y-49057000D03*
D14*
%TO.P,U1,3,OUT*%
%TO.N,/VoutServo*%
X200400000Y-57032000D03*
%TD*%
D13*
%TO.P,H2,1,1*%
%TO.N,GND*%
X205000000Y-60000000D03*
%TD*%
D22*
%TO.P,J4,1,Pin_1*%
%TO.N,unconnected-(J4-Pin_1-Pad1)*%
X187452000Y-39116000D03*
D23*
%TO.P,J4,2,Pin_2*%
%TO.N,GND*%
X187452000Y-41656000D03*
%TO.P,J4,3,Pin_3*%
%TO.N,unconnected-(J4-Pin_3-Pad3)*%
X184912000Y-39116000D03*
%TO.P,J4,4,Pin_4*%
%TO.N,/Vsys*%
X184912000Y-41656000D03*
%TO.P,J4,5,Pin_5*%
%TO.N,unconnected-(J4-Pin_5-Pad5)*%
X182372000Y-39116000D03*
%TO.P,J4,6,Pin_6*%
%TO.N,/ServoX*%
X182372000Y-41656000D03*
%TO.P,J4,7,Pin_7*%
%TO.N,unconnected-(J4-Pin_7-Pad7)*%
X179832000Y-39116000D03*
%TO.P,J4,8,Pin_8*%
%TO.N,/ServoY*%
X179832000Y-41656000D03*
%TO.P,J4,9,Pin_9*%
%TO.N,unconnected-(J4-Pin_9-Pad9)*%
X177292000Y-39116000D03*
%TO.P,J4,10,Pin_10*%
%TO.N,unconnected-(J4-Pin_10-Pad10)*%
X177292000Y-41656000D03*
%TD*%
D13*
%TO.P,H1,1,1*%
%TO.N,GND*%
X205000000Y-40000000D03*
%TD*%
D24*
%TO.P,C4,1*%
%TO.N,/VoutServo*%
X200661000Y-60027000D03*
%TO.P,C4,2*%
%TO.N,GND*%
X200661000Y-61577000D03*
%TD*%
D25*
%TO.P,FB1,1*%
%TO.N,+12V*%
X169392500Y-55880000D03*
%TO.P,FB1,2*%
%TO.N,/Visol*%
X170967500Y-55880000D03*
%TD*%
D26*
%TO.N,GND*%
X177000000Y-48000000D03*
X199644000Y-50800000D03*
X196596000Y-52324000D03*
X199644000Y-49276000D03*
X182372000Y-48768000D03*
X198628000Y-64008000D03*
X180848000Y-48768000D03*
X183896000Y-50292000D03*
X198120000Y-52324000D03*
X196596000Y-49276000D03*
X177000000Y-52000000D03*
X198120000Y-49276000D03*
X183896000Y-48768000D03*
X202000000Y-64000000D03*
X182372000Y-51816000D03*
X196596000Y-50800000D03*
X203524000Y-64000000D03*
X177000000Y-50000000D03*
X180848000Y-50292000D03*
X183896000Y-51816000D03*
X182372000Y-50292000D03*
X199644000Y-52324000D03*
X198120000Y-50800000D03*
X200152000Y-64008000D03*
X180848000Y-51816000D03*
%TD*%
D27*
%TO.N,+12V*%
X196088000Y-60802000D02*
X196088000Y-61976000D01*
X196088000Y-61976000D02*
X195580000Y-62484000D01*
X195840000Y-57032000D02*
X195840000Y-60554000D01*
X195840000Y-60554000D02*
X196088000Y-60802000D01*
X169392500Y-55880000D02*
X167132000Y-55880000D01*
%TO.N,GND*%
X197612000Y-62992000D02*
X197638000Y-62966000D01*
X197638000Y-60802000D02*
X197638000Y-62966000D01*
D28*
%TO.N,/Visol*%
X179448000Y-55880000D02*
X180092000Y-56524000D01*
D27*
X170967500Y-55880000D02*
X173736000Y-55880000D01*
X173736000Y-55880000D02*
X179448000Y-55880000D01*
D29*
%TO.N,/Vsys*%
X184912000Y-41656000D02*
X184912000Y-43688000D01*
D27*
%TO.N,/VoutServo*%
X205000000Y-46000000D02*
X203000000Y-46000000D01*
X205000000Y-54000000D02*
X203000000Y-54000000D01*
X205000000Y-54000000D02*
X206000000Y-54000000D01*
X203000000Y-46000000D02*
X206000000Y-46000000D01*
D28*
%TO.N,/ServoX*%
X205000000Y-53000000D02*
X203368000Y-53000000D01*
D30*
X195072000Y-46736000D02*
X194564000Y-46228000D01*
D28*
X182372000Y-41656000D02*
X183476000Y-40552000D01*
X183476000Y-40552000D02*
X193968000Y-40552000D01*
X203368000Y-53000000D02*
X202184000Y-51816000D01*
X202184000Y-51816000D02*
X202184000Y-47244000D01*
X193968000Y-40552000D02*
X194564000Y-41148000D01*
D30*
X194564000Y-46228000D02*
X194564000Y-41148000D01*
X200660000Y-46736000D02*
X195072000Y-46736000D01*
X201676000Y-46736000D02*
X202184000Y-47244000D01*
X201676000Y-46736000D02*
X200660000Y-46736000D01*
D28*
%TO.N,/ServoY*%
X183808000Y-38658708D02*
X184454708Y-38012000D01*
X193460000Y-38012000D02*
X195072000Y-39624000D01*
X179832000Y-41656000D02*
X180936000Y-40552000D01*
X180936000Y-40552000D02*
X182497292Y-40552000D01*
X195072000Y-44000000D02*
X195072000Y-39624000D01*
X183808000Y-39241292D02*
X183808000Y-38658708D01*
X196072000Y-45000000D02*
X195072000Y-44000000D01*
X205000000Y-45000000D02*
X196072000Y-45000000D01*
X184454708Y-38012000D02*
X193460000Y-38012000D01*
X182497292Y-40552000D02*
X183808000Y-39241292D01*
%TD*%
%TA.AperFunction,Conductor*%
%TO.N,GND*%
G36*
X187903039Y-46247685D02*
G01*
X187948794Y-46300489D01*
X187960000Y-46352000D01*
X187960000Y-49815246D01*
X187940315Y-49882285D01*
X187887511Y-49928040D01*
X187818353Y-49937984D01*
X187770904Y-49920785D01*
X187718485Y-49888453D01*
X187557606Y-49835143D01*
X187461445Y-49825319D01*
X187455168Y-49825000D01*
X187435000Y-49825000D01*
X187435000Y-51774999D01*
X187455165Y-51774999D01*
X187461447Y-51774678D01*
X187557605Y-51764856D01*
X187718483Y-51711546D01*
X187770902Y-51679214D01*
X187838294Y-51660773D01*
X187904958Y-51681694D01*
X187949728Y-51735336D01*
X187960000Y-51784752D01*
X187960000Y-55248000D01*
X187940315Y-55315039D01*
X187887511Y-55360794D01*
X187836000Y-55372000D01*
X185766713Y-55372000D01*
X185699674Y-55352315D01*
X185661174Y-55313096D01*
X185594711Y-55205342D01*
X185470657Y-55081288D01*
X185321334Y-54989186D01*
X185154797Y-54934000D01*
X185055141Y-54923819D01*
X185055122Y-54923818D01*
X185052009Y-54923500D01*
X185048860Y-54923500D01*
X184255141Y-54923500D01*
X184255121Y-54923500D01*
X184251992Y-54923501D01*
X184248860Y-54923820D01*
X184248858Y-54923821D01*
X184149203Y-54934000D01*
X183982665Y-54989186D01*
X183833342Y-55081288D01*
X183709288Y-55205342D01*
X183642826Y-55313096D01*
X183590878Y-55359821D01*
X183537287Y-55372000D01*
X181206713Y-55372000D01*
X181139674Y-55352315D01*
X181101174Y-55313096D01*
X181034711Y-55205342D01*
X180910657Y-55081288D01*
X180761334Y-54989186D01*
X180594797Y-54934000D01*
X180495141Y-54923819D01*
X180495122Y-54923818D01*
X180492009Y-54923500D01*
X180488860Y-54923500D01*
X179695141Y-54923500D01*
X179695121Y-54923500D01*
X179691992Y-54923501D01*
X179688860Y-54923820D01*
X179688858Y-54923821D01*
X179589203Y-54934000D01*
X179422665Y-54989186D01*
X179334545Y-55043539D01*
X179269449Y-55062000D01*
X177302101Y-55062000D01*
X177235062Y-55042315D01*
X177189307Y-54989511D01*
X177179363Y-54920353D01*
X177184395Y-54898996D01*
X177240856Y-54728606D01*
X177250680Y-54632445D01*
X177251000Y-54626167D01*
X177251000Y-54606000D01*
X176150000Y-54606000D01*
X176082961Y-54586315D01*
X176037206Y-54533511D01*
X176026000Y-54482000D01*
X176026000Y-53406000D01*
X176526000Y-53406000D01*
X176526000Y-54106000D01*
X177250999Y-54106000D01*
X177250999Y-54085834D01*
X177250678Y-54079552D01*
X177240856Y-53983394D01*
X177187546Y-53822513D01*
X177098573Y-53678267D01*
X176978732Y-53558426D01*
X176834486Y-53469453D01*
X176673606Y-53416143D01*
X176577445Y-53406319D01*
X176571168Y-53406000D01*
X176526000Y-53406000D01*
X176026000Y-53406000D01*
X175980835Y-53406000D01*
X175974551Y-53406321D01*
X175878394Y-53416143D01*
X175717513Y-53469453D01*
X175573267Y-53558426D01*
X175471681Y-53660013D01*
X175410358Y-53693498D01*
X175340666Y-53688514D01*
X175284733Y-53646642D01*
X175260316Y-53581178D01*
X175260000Y-53572332D01*
X175260000Y-52149000D01*
X178972000Y-52149000D01*
X178972000Y-53227663D01*
X178972904Y-53232826D01*
X178982493Y-53326697D01*
X179037641Y-53493123D01*
X179129682Y-53642346D01*
X179253653Y-53766317D01*
X179402876Y-53858358D01*
X179569301Y-53913506D01*
X179628134Y-53919516D01*
X179639124Y-53924000D01*
X179665701Y-53924000D01*
X179678304Y-53924642D01*
X179685461Y-53925373D01*
X179693419Y-53924000D01*
X179723375Y-53924000D01*
X179723384Y-53923999D01*
X180597000Y-53923999D01*
X180597000Y-52149000D01*
X181097000Y-52149000D01*
X181097000Y-53923999D01*
X182122000Y-53923999D01*
X182122000Y-52149000D01*
X182622000Y-52149000D01*
X182622000Y-53923999D01*
X183646999Y-53923999D01*
X183647000Y-53923998D01*
X183647000Y-52149000D01*
X184147000Y-52149000D01*
X184147000Y-53923999D01*
X185068831Y-53923999D01*
X185075113Y-53923678D01*
X185174697Y-53913506D01*
X185341123Y-53858358D01*
X185490346Y-53766317D01*
X185614317Y-53642346D01*
X185706358Y-53493123D01*
X185761506Y-53326698D01*
X185771680Y-53227111D01*
X185772000Y-53220833D01*
X185772000Y-52149000D01*
X184147000Y-52149000D01*
X183647000Y-52149000D01*
X182622000Y-52149000D01*
X182122000Y-52149000D01*
X181097000Y-52149000D01*
X180597000Y-52149000D01*
X178972000Y-52149000D01*
X175260000Y-52149000D01*
X175260000Y-50474000D01*
X178972000Y-50474000D01*
X178972000Y-51649000D01*
X180597000Y-51649000D01*
X180597000Y-50474000D01*
X181097000Y-50474000D01*
X181097000Y-51649000D01*
X182122000Y-51649000D01*
X182122000Y-50474000D01*
X182622000Y-50474000D01*
X182622000Y-51649000D01*
X183647000Y-51649000D01*
X183647000Y-50474000D01*
X184147000Y-50474000D01*
X184147000Y-51649000D01*
X185771999Y-51649000D01*
X185771999Y-51050000D01*
X186235001Y-51050000D01*
X186235001Y-51095165D01*
X186235321Y-51101447D01*
X186245143Y-51197605D01*
X186298453Y-51358486D01*
X186387426Y-51502732D01*
X186507267Y-51622573D01*
X186651513Y-51711546D01*
X186812393Y-51764856D01*
X186908536Y-51774678D01*
X186914851Y-51774999D01*
X186935000Y-51774999D01*
X186935000Y-51050000D01*
X186235001Y-51050000D01*
X185771999Y-51050000D01*
X185771999Y-50550000D01*
X186235000Y-50550000D01*
X186935000Y-50550000D01*
X186935000Y-49825000D01*
X186914836Y-49825000D01*
X186908550Y-49825321D01*
X186812394Y-49835143D01*
X186651513Y-49888453D01*
X186507267Y-49977426D01*
X186387426Y-50097267D01*
X186298453Y-50241513D01*
X186245143Y-50402393D01*
X186235319Y-50498554D01*
X186235000Y-50504832D01*
X186235000Y-50550000D01*
X185771999Y-50550000D01*
X185771999Y-50474000D01*
X184147000Y-50474000D01*
X183647000Y-50474000D01*
X182622000Y-50474000D01*
X182122000Y-50474000D01*
X181097000Y-50474000D01*
X180597000Y-50474000D01*
X178972000Y-50474000D01*
X175260000Y-50474000D01*
X175260000Y-48799000D01*
X178972000Y-48799000D01*
X178972000Y-49974000D01*
X180597000Y-49974000D01*
X180597000Y-48799000D01*
X181097000Y-48799000D01*
X181097000Y-49974000D01*
X182122000Y-49974000D01*
X182122000Y-48799000D01*
X182622000Y-48799000D01*
X182622000Y-49974000D01*
X183647000Y-49974000D01*
X183647000Y-48799000D01*
X184147000Y-48799000D01*
X184147000Y-49974000D01*
X185771999Y-49974000D01*
X185771999Y-49886262D01*
X185772000Y-49886251D01*
X185772000Y-48799000D01*
X184147000Y-48799000D01*
X183647000Y-48799000D01*
X182622000Y-48799000D01*
X182122000Y-48799000D01*
X181097000Y-48799000D01*
X180597000Y-48799000D01*
X178972000Y-48799000D01*
X175260000Y-48799000D01*
X175260000Y-48299000D01*
X178972000Y-48299000D01*
X180597000Y-48299000D01*
X180597000Y-46524000D01*
X181097000Y-46524000D01*
X181097000Y-48299000D01*
X182122000Y-48299000D01*
X182122000Y-46524000D01*
X182622000Y-46524000D01*
X182622000Y-48299000D01*
X183647000Y-48299000D01*
X183647000Y-46524000D01*
X184147000Y-46524000D01*
X184147000Y-48299000D01*
X185771999Y-48299000D01*
X185771999Y-47227170D01*
X185771678Y-47220888D01*
X185762148Y-47127588D01*
X185761886Y-47122449D01*
X185706358Y-46954876D01*
X185614317Y-46805653D01*
X185490346Y-46681682D01*
X185341123Y-46589641D01*
X185174698Y-46534493D01*
X185075111Y-46524319D01*
X185068834Y-46524000D01*
X184147000Y-46524000D01*
X183647000Y-46524000D01*
X182622000Y-46524000D01*
X182122000Y-46524000D01*
X181097000Y-46524000D01*
X180597000Y-46524000D01*
X179664875Y-46524000D01*
X179658399Y-46525392D01*
X179569302Y-46534493D01*
X179402876Y-46589641D01*
X179253653Y-46681682D01*
X179129682Y-46805653D01*
X179037641Y-46954876D01*
X178982493Y-47121301D01*
X178972319Y-47220888D01*
X178972000Y-47227166D01*
X178972000Y-48299000D01*
X175260000Y-48299000D01*
X175260000Y-46352000D01*
X175279685Y-46284961D01*
X175332489Y-46239206D01*
X175384000Y-46228000D01*
X187836000Y-46228000D01*
X187903039Y-46247685D01*
G37*
%TD.AperFunction*%
%TD*%
%TA.AperFunction,Conductor*%
%TO.N,GND*%
G36*
X197888000Y-61776999D02*
G01*
X197908165Y-61776999D01*
X197914447Y-61776678D01*
X198010605Y-61766856D01*
X198171486Y-61713546D01*
X198315732Y-61624573D01*
X198435573Y-61504732D01*
X198524546Y-61360486D01*
X198577856Y-61199606D01*
X198587680Y-61103445D01*
X198588000Y-61097167D01*
X198588000Y-61084000D01*
X198607685Y-61016961D01*
X198660489Y-60971206D01*
X198712000Y-60960000D01*
X199605407Y-60960000D01*
X199672446Y-60979685D01*
X199718201Y-61032489D01*
X199728145Y-61101647D01*
X199723113Y-61123003D01*
X199696144Y-61204391D01*
X199686319Y-61300554D01*
X199686000Y-61306832D01*
X199686000Y-61327000D01*
X201635999Y-61327000D01*
X201635999Y-61306834D01*
X201635678Y-61300552D01*
X201625856Y-61204394D01*
X201598886Y-61123004D01*
X201596484Y-61053176D01*
X201632216Y-60993134D01*
X201694736Y-60961941D01*
X201716592Y-60960000D01*
X202391038Y-60960000D01*
X202458077Y-60979685D01*
X202503832Y-61032489D01*
X202504114Y-61033109D01*
X202603362Y-61253631D01*
X202606836Y-61260251D01*
X202771945Y-61533373D01*
X202776191Y-61539525D01*
X202921477Y-61724968D01*
X203686445Y-60960000D01*
X204393552Y-60960000D01*
X203275030Y-62078521D01*
X203275030Y-62078522D01*
X203460474Y-62223808D01*
X203466626Y-62228054D01*
X203739748Y-62393163D01*
X203746368Y-62396637D01*
X204037410Y-62527625D01*
X204044386Y-62530270D01*
X204349092Y-62625221D01*
X204356348Y-62627009D01*
X204670267Y-62684537D01*
X204677697Y-62685439D01*
X204996264Y-62704709D01*
X205003736Y-62704709D01*
X205322302Y-62685439D01*
X205329732Y-62684537D01*
X205643651Y-62627009D01*
X205650907Y-62625221D01*
X205955613Y-62530270D01*
X205962589Y-62527625D01*
X206253631Y-62396637D01*
X206260251Y-62393163D01*
X206533369Y-62228057D01*
X206539524Y-62223808D01*
X206724968Y-62078522D01*
X206724968Y-62078521D01*
X205606448Y-60960000D01*
X206313553Y-60960000D01*
X207078521Y-61724968D01*
X207078522Y-61724968D01*
X207223808Y-61539524D01*
X207228057Y-61533369D01*
X207393163Y-61260251D01*
X207396637Y-61253631D01*
X207495886Y-61033109D01*
X207541350Y-60980055D01*
X207608281Y-60960002D01*
X207608962Y-60960000D01*
X209875500Y-60960000D01*
X209942539Y-60979685D01*
X209988294Y-61032489D01*
X209999500Y-61084000D01*
X209999500Y-61996753D01*
X209999330Y-62003243D01*
X209992509Y-62133382D01*
X209982372Y-62313887D01*
X209981040Y-62326331D01*
X209957394Y-62475629D01*
X209930263Y-62635308D01*
X209927791Y-62646624D01*
X209887579Y-62796701D01*
X209843653Y-62949170D01*
X209840268Y-62959263D01*
X209784462Y-63104645D01*
X209783259Y-63107661D01*
X209723575Y-63251751D01*
X209719498Y-63260594D01*
X209648433Y-63400064D01*
X209646477Y-63403748D01*
X209571430Y-63539538D01*
X209566897Y-63547094D01*
X209481412Y-63678728D01*
X209478546Y-63682947D01*
X209389002Y-63809147D01*
X209384239Y-63815428D01*
X209285333Y-63937567D01*
X209281427Y-63942158D01*
X209178419Y-64057424D01*
X209173640Y-64062478D01*
X209062478Y-64173640D01*
X209057424Y-64178419D01*
X208942158Y-64281427D01*
X208937567Y-64285333D01*
X208815428Y-64384239D01*
X208809147Y-64389002D01*
X208682947Y-64478546D01*
X208678728Y-64481412D01*
X208547094Y-64566897D01*
X208539538Y-64571430D01*
X208403748Y-64646477D01*
X208400064Y-64648433D01*
X208260594Y-64719498D01*
X208251751Y-64723575D01*
X208107661Y-64783259D01*
X208104645Y-64784462D01*
X207959271Y-64840265D01*
X207949162Y-64843655D01*
X207796702Y-64887579D01*
X207646619Y-64927793D01*
X207635313Y-64930262D01*
X207475630Y-64957394D01*
X207326328Y-64981040D01*
X207313890Y-64982371D01*
X207133382Y-64992509D01*
X207003244Y-64999330D01*
X206996754Y-64999500D01*
X197228000Y-64999500D01*
X197160961Y-64979815D01*
X197115206Y-64927011D01*
X197104000Y-64875500D01*
X197104000Y-61885095D01*
X197121059Y-61827000D01*
X199686001Y-61827000D01*
X199686001Y-61847165D01*
X199686321Y-61853447D01*
X199696143Y-61949605D01*
X199749453Y-62110486D01*
X199838426Y-62254732D01*
X199958267Y-62374573D01*
X200102513Y-62463546D01*
X200263393Y-62516856D01*
X200359535Y-62526678D01*
X200365852Y-62526999D01*
X200410999Y-62526999D01*
X200411000Y-62526998D01*
X200411000Y-61827000D01*
X200911000Y-61827000D01*
X200911000Y-62526999D01*
X200956165Y-62526999D01*
X200962447Y-62526678D01*
X201058605Y-62516856D01*
X201219486Y-62463546D01*
X201363732Y-62374573D01*
X201483573Y-62254732D01*
X201572546Y-62110486D01*
X201625856Y-61949606D01*
X201635680Y-61853445D01*
X201636000Y-61847167D01*
X201636000Y-61827000D01*
X200911000Y-61827000D01*
X200411000Y-61827000D01*
X199686001Y-61827000D01*
X197121059Y-61827000D01*
X197123685Y-61818056D01*
X197176489Y-61772301D01*
X197245647Y-61762357D01*
X197264236Y-61766737D01*
X197361536Y-61776678D01*
X197367851Y-61776999D01*
X197388000Y-61776999D01*
X197388000Y-60960000D01*
X197888000Y-60960000D01*
X197888000Y-61776999D01*
G37*
%TD.AperFunction*%
%TD*%
%TA.AperFunction,Conductor*%
%TO.N,+12V*%
G36*
X167585539Y-35071685D02*
G01*
X167631294Y-35124489D01*
X167642500Y-35176000D01*
X167642500Y-47522177D01*
X167622815Y-47589216D01*
X167570011Y-47634971D01*
X167500853Y-47644915D01*
X167475167Y-47638359D01*
X167369373Y-47598900D01*
X167313132Y-47592854D01*
X167306518Y-47592500D01*
X166147000Y-47592500D01*
X166147000Y-52092500D01*
X167306518Y-52092500D01*
X167313132Y-52092145D01*
X167369371Y-52086099D01*
X167475166Y-52046640D01*
X167544858Y-52041656D01*
X167606181Y-52075141D01*
X167639666Y-52136464D01*
X167642500Y-52162821D01*
X167642500Y-54938000D01*
X167642854Y-54941294D01*
X167642855Y-54941309D01*
X167653697Y-55042145D01*
X167654053Y-55045456D01*
X167654757Y-55048693D01*
X167654759Y-55048704D01*
X167664553Y-55093722D01*
X167665259Y-55096967D01*
X167666305Y-55100110D01*
X167666309Y-55100124D01*
X167699385Y-55199503D01*
X167777173Y-55320541D01*
X167777175Y-55320543D01*
X167822930Y-55373347D01*
X167931664Y-55467567D01*
X168062541Y-55527338D01*
X168129580Y-55547023D01*
X168129584Y-55547024D01*
X168272000Y-55567500D01*
X168674975Y-55567500D01*
X168679259Y-55567500D01*
X168817183Y-55548320D01*
X168882280Y-55529858D01*
X169009734Y-55473776D01*
X169030506Y-55460962D01*
X169095605Y-55442500D01*
X169687919Y-55442500D01*
X169754958Y-55462185D01*
X169765723Y-55469947D01*
X169783804Y-55484517D01*
X169823654Y-55541909D01*
X169830000Y-55581070D01*
X169830000Y-56181630D01*
X169810315Y-56248669D01*
X169780314Y-56280895D01*
X169767985Y-56290125D01*
X169758769Y-56296398D01*
X169754489Y-56299038D01*
X169689391Y-56317500D01*
X169095607Y-56317500D01*
X169030510Y-56299039D01*
X169026228Y-56296398D01*
X169009732Y-56286223D01*
X169005812Y-56284498D01*
X169005810Y-56284497D01*
X168886201Y-56231867D01*
X168886197Y-56231865D01*
X168882280Y-56230142D01*
X168878167Y-56228975D01*
X168878160Y-56228973D01*
X168821302Y-56212848D01*
X168821299Y-56212847D01*
X168817183Y-56211680D01*
X168759777Y-56203697D01*
X168683503Y-56193090D01*
X168683500Y-56193089D01*
X168679259Y-56192500D01*
X168272000Y-56192500D01*
X168268706Y-56192854D01*
X168268690Y-56192855D01*
X168167854Y-56203697D01*
X168167851Y-56203697D01*
X168164544Y-56204053D01*
X168161309Y-56204756D01*
X168161295Y-56204759D01*
X168116277Y-56214553D01*
X168116272Y-56214554D01*
X168113033Y-56215259D01*
X168109893Y-56216303D01*
X168109875Y-56216309D01*
X168010496Y-56249385D01*
X167889458Y-56327173D01*
X167836652Y-56372931D01*
X167742432Y-56481664D01*
X167682662Y-56612539D01*
X167663474Y-56677886D01*
X167662977Y-56679580D01*
X167662976Y-56679584D01*
X167662527Y-56682706D01*
X167662524Y-56682722D01*
X167642499Y-56821999D01*
X167642500Y-56822000D01*
X167642500Y-60328000D01*
X167642854Y-60331294D01*
X167642855Y-60331309D01*
X167645080Y-60351999D01*
X167654053Y-60435456D01*
X167654757Y-60438693D01*
X167654759Y-60438704D01*
X167662202Y-60472916D01*
X167665259Y-60486967D01*
X167666305Y-60490110D01*
X167666309Y-60490124D01*
X167699385Y-60589503D01*
X167777173Y-60710541D01*
X167777175Y-60710543D01*
X167822930Y-60763347D01*
X167931664Y-60857567D01*
X168062541Y-60917338D01*
X168129580Y-60937023D01*
X168129584Y-60937024D01*
X168272000Y-60957500D01*
X190880676Y-60957500D01*
X190884000Y-60957500D01*
X190991456Y-60945947D01*
X191042967Y-60934741D01*
X191072165Y-60925022D01*
X191145503Y-60900614D01*
X191266541Y-60822826D01*
X191266543Y-60822825D01*
X191319347Y-60777070D01*
X191413567Y-60668336D01*
X191473338Y-60537459D01*
X191493023Y-60470420D01*
X191493024Y-60470416D01*
X191510050Y-60351999D01*
X195165504Y-60351999D01*
X195165505Y-60352000D01*
X195638000Y-60352000D01*
X195637999Y-59862789D01*
X195554513Y-59890453D01*
X195410267Y-59979426D01*
X195290426Y-60099267D01*
X195201453Y-60243513D01*
X195165504Y-60351999D01*
X191510050Y-60351999D01*
X191513500Y-60328000D01*
X191513500Y-57632000D01*
X194740001Y-57632000D01*
X194740001Y-57928829D01*
X194740321Y-57935111D01*
X194750493Y-58034695D01*
X194805642Y-58201122D01*
X194897683Y-58350345D01*
X195021653Y-58474315D01*
X195170880Y-58566359D01*
X195240000Y-58589262D01*
X195240000Y-57632000D01*
X196440000Y-57632000D01*
X196440000Y-58589262D01*
X196509119Y-58566359D01*
X196658346Y-58474315D01*
X196782316Y-58350345D01*
X196874357Y-58201122D01*
X196929506Y-58034696D01*
X196939680Y-57935109D01*
X196940000Y-57928831D01*
X196940000Y-57632000D01*
X196440000Y-57632000D01*
X195240000Y-57632000D01*
X194740001Y-57632000D01*
X191513500Y-57632000D01*
X191513500Y-56432000D01*
X194740000Y-56432000D01*
X195240000Y-56432000D01*
X195240000Y-55474737D01*
X196440000Y-55474737D01*
X196440000Y-56432000D01*
X196939999Y-56432000D01*
X196939999Y-56135170D01*
X196939678Y-56128888D01*
X196929506Y-56029304D01*
X196874357Y-55862877D01*
X196782316Y-55713654D01*
X196658346Y-55589684D01*
X196509121Y-55497641D01*
X196440000Y-55474737D01*
X195240000Y-55474737D01*
X195170878Y-55497641D01*
X195021653Y-55589684D01*
X194897683Y-55713654D01*
X194805642Y-55862877D01*
X194750493Y-56029303D01*
X194740319Y-56128890D01*
X194740000Y-56135168D01*
X194740000Y-56432000D01*
X191513500Y-56432000D01*
X191513500Y-41303500D01*
X191513500Y-41303499D01*
X191533185Y-41236461D01*
X191585989Y-41190706D01*
X191637500Y-41179500D01*
X193656719Y-41179500D01*
X193723758Y-41199185D01*
X193744395Y-41215814D01*
X193902182Y-41373600D01*
X193935666Y-41434922D01*
X193938500Y-41461280D01*
X193938500Y-46145256D01*
X193936235Y-46165766D01*
X193938439Y-46235872D01*
X193938500Y-46239767D01*
X193938500Y-46267350D01*
X193938988Y-46271219D01*
X193938989Y-46271225D01*
X193939004Y-46271343D01*
X193939918Y-46282967D01*
X193941290Y-46326626D01*
X193946879Y-46345860D01*
X193950825Y-46364916D01*
X193953335Y-46384792D01*
X193969414Y-46425404D01*
X193973197Y-46436451D01*
X193985382Y-46478391D01*
X193995580Y-46495635D01*
X194004136Y-46513100D01*
X194011514Y-46531732D01*
X194011515Y-46531733D01*
X194037180Y-46567059D01*
X194043593Y-46576822D01*
X194065826Y-46614416D01*
X194065829Y-46614419D01*
X194065830Y-46614420D01*
X194079995Y-46628585D01*
X194092627Y-46643375D01*
X194104406Y-46659587D01*
X194138058Y-46687426D01*
X194146699Y-46695289D01*
X194571194Y-47119784D01*
X194584094Y-47135886D01*
X194635223Y-47183900D01*
X194638020Y-47186611D01*
X194657529Y-47206120D01*
X194660709Y-47208587D01*
X194669571Y-47216155D01*
X194701418Y-47246061D01*
X194701418Y-47246062D01*
X194718970Y-47255711D01*
X194735238Y-47266397D01*
X194762891Y-47287848D01*
X194803796Y-47344492D01*
X194807584Y-47414259D01*
X194792429Y-47450917D01*
X194785186Y-47462659D01*
X194730000Y-47629200D01*
X194719819Y-47728855D01*
X194719817Y-47728875D01*
X194719500Y-47731988D01*
X194719500Y-47735116D01*
X194719499Y-47735136D01*
X194719499Y-53728863D01*
X194719500Y-53728882D01*
X194719500Y-53732012D01*
X194719818Y-53735125D01*
X194719819Y-53735144D01*
X194730000Y-53834799D01*
X194785185Y-54001338D01*
X194877287Y-54150657D01*
X195001342Y-54274712D01*
X195150661Y-54366814D01*
X195317200Y-54421999D01*
X195416855Y-54432180D01*
X195416856Y-54432180D01*
X195419988Y-54432500D01*
X195419991Y-54432500D01*
X197490500Y-54432500D01*
X197557539Y-54452185D01*
X197603294Y-54504989D01*
X197614500Y-54556500D01*
X197614500Y-59702500D01*
X197594815Y-59769539D01*
X197542011Y-59815294D01*
X197490501Y-59826500D01*
X197367805Y-59826500D01*
X197367785Y-59826500D01*
X197364656Y-59826501D01*
X197361524Y-59826820D01*
X197361522Y-59826821D01*
X197265292Y-59836650D01*
X197104300Y-59889997D01*
X196959954Y-59979031D01*
X196950325Y-59988661D01*
X196889001Y-60022145D01*
X196819310Y-60017159D01*
X196774965Y-59988659D01*
X196765732Y-59979426D01*
X196621486Y-59890453D01*
X196538000Y-59862789D01*
X196538000Y-61741210D01*
X196550730Y-61750403D01*
X196593556Y-61805609D01*
X196600874Y-61868576D01*
X196598500Y-61885090D01*
X196598500Y-64875500D01*
X196578815Y-64942539D01*
X196526011Y-64988294D01*
X196474500Y-64999500D01*
X158003247Y-64999500D01*
X157996757Y-64999330D01*
X157866617Y-64992509D01*
X157686111Y-64982372D01*
X157673666Y-64981040D01*
X157524369Y-64957394D01*
X157364690Y-64930263D01*
X157353374Y-64927791D01*
X157203298Y-64887579D01*
X157050828Y-64843653D01*
X157040735Y-64840268D01*
X156895353Y-64784462D01*
X156892337Y-64783259D01*
X156748247Y-64723575D01*
X156739404Y-64719498D01*
X156599934Y-64648433D01*
X156596250Y-64646477D01*
X156460460Y-64571430D01*
X156452921Y-64566907D01*
X156321266Y-64481409D01*
X156317051Y-64478546D01*
X156190851Y-64389002D01*
X156184570Y-64384239D01*
X156062431Y-64285333D01*
X156057840Y-64281427D01*
X155942574Y-64178419D01*
X155937520Y-64173640D01*
X155826358Y-64062478D01*
X155821579Y-64057424D01*
X155718571Y-63942158D01*
X155714665Y-63937567D01*
X155615759Y-63815428D01*
X155610996Y-63809147D01*
X155521452Y-63682947D01*
X155518604Y-63678754D01*
X155433081Y-63547061D01*
X155428568Y-63539538D01*
X155353521Y-63403748D01*
X155351565Y-63400064D01*
X155280500Y-63260594D01*
X155276430Y-63251768D01*
X155216714Y-63107599D01*
X155215562Y-63104710D01*
X155159729Y-62959260D01*
X155156347Y-62949174D01*
X155112414Y-62796679D01*
X155098082Y-62743191D01*
X155072202Y-62646605D01*
X155069738Y-62635323D01*
X155042601Y-62475606D01*
X155018956Y-62326316D01*
X155017627Y-62313890D01*
X155012830Y-62228467D01*
X155007503Y-62133627D01*
X155000669Y-62003243D01*
X155000500Y-61996755D01*
X155000500Y-60000000D01*
X157294564Y-60000000D01*
X157294790Y-60003736D01*
X157314063Y-60322362D01*
X157314064Y-60322372D01*
X157314290Y-60326104D01*
X157314963Y-60329778D01*
X157314965Y-60329792D01*
X157372502Y-60643762D01*
X157372504Y-60643771D01*
X157373179Y-60647453D01*
X157374295Y-60651036D01*
X157374296Y-60651038D01*
X157463553Y-60937475D01*
X157470373Y-60959361D01*
X157604455Y-61257279D01*
X157606388Y-61260477D01*
X157606392Y-61260484D01*
X157771532Y-61533658D01*
X157771536Y-61533663D01*
X157773470Y-61536863D01*
X157974952Y-61794036D01*
X158205964Y-62025048D01*
X158463137Y-62226530D01*
X158466339Y-62228466D01*
X158466341Y-62228467D01*
X158628224Y-62326329D01*
X158742721Y-62395545D01*
X159040639Y-62529627D01*
X159352547Y-62626821D01*
X159673896Y-62685710D01*
X160000000Y-62705436D01*
X160326104Y-62685710D01*
X160647453Y-62626821D01*
X160959361Y-62529627D01*
X161257279Y-62395545D01*
X161536863Y-62226530D01*
X161794036Y-62025048D01*
X162025048Y-61794036D01*
X162226530Y-61536863D01*
X162395545Y-61257279D01*
X162397921Y-61252000D01*
X195165505Y-61252000D01*
X195201453Y-61360486D01*
X195290426Y-61504732D01*
X195410265Y-61624571D01*
X195554518Y-61713547D01*
X195637999Y-61741210D01*
X195638000Y-61741210D01*
X195638000Y-61252000D01*
X195165505Y-61252000D01*
X162397921Y-61252000D01*
X162529627Y-60959361D01*
X162626821Y-60647453D01*
X162685710Y-60326104D01*
X162705436Y-60000000D01*
X162704191Y-59979426D01*
X162702361Y-59949165D01*
X162685710Y-59673896D01*
X162626821Y-59352547D01*
X162529627Y-59040639D01*
X162395545Y-58742721D01*
X162393607Y-58739515D01*
X162228467Y-58466341D01*
X162228466Y-58466339D01*
X162226530Y-58463137D01*
X162025048Y-58205964D01*
X161794036Y-57974952D01*
X161536863Y-57773470D01*
X161533663Y-57771536D01*
X161533658Y-57771532D01*
X161260484Y-57606392D01*
X161260477Y-57606388D01*
X161257279Y-57604455D01*
X160959361Y-57470373D01*
X160647453Y-57373179D01*
X160643771Y-57372504D01*
X160643762Y-57372502D01*
X160329792Y-57314965D01*
X160329778Y-57314963D01*
X160326104Y-57314290D01*
X160322372Y-57314064D01*
X160322362Y-57314063D01*
X160003736Y-57294790D01*
X160000000Y-57294564D01*
X159996264Y-57294790D01*
X159677637Y-57314063D01*
X159677625Y-57314064D01*
X159673896Y-57314290D01*
X159670223Y-57314962D01*
X159670207Y-57314965D01*
X159356237Y-57372502D01*
X159356224Y-57372505D01*
X159352547Y-57373179D01*
X159348967Y-57374294D01*
X159348961Y-57374296D01*
X159044216Y-57469258D01*
X159044210Y-57469260D01*
X159040639Y-57470373D01*
X159037230Y-57471907D01*
X159037228Y-57471908D01*
X158746135Y-57602918D01*
X158746128Y-57602921D01*
X158742721Y-57604455D01*
X158739528Y-57606384D01*
X158739515Y-57606392D01*
X158466341Y-57771532D01*
X158466328Y-57771540D01*
X158463137Y-57773470D01*
X158460195Y-57775774D01*
X158460189Y-57775779D01*
X158264833Y-57928831D01*
X158205964Y-57974952D01*
X158203318Y-57977597D01*
X158203310Y-57977605D01*
X157977605Y-58203310D01*
X157977597Y-58203318D01*
X157974952Y-58205964D01*
X157972640Y-58208914D01*
X157972640Y-58208915D01*
X157775779Y-58460189D01*
X157775774Y-58460195D01*
X157773470Y-58463137D01*
X157771540Y-58466328D01*
X157771532Y-58466341D01*
X157606392Y-58739515D01*
X157606384Y-58739528D01*
X157604455Y-58742721D01*
X157470373Y-59040639D01*
X157373179Y-59352547D01*
X157372505Y-59356224D01*
X157372502Y-59356237D01*
X157314965Y-59670207D01*
X157314962Y-59670223D01*
X157314290Y-59673896D01*
X157314064Y-59677625D01*
X157314063Y-59677637D01*
X157295250Y-59988659D01*
X157294564Y-60000000D01*
X155000500Y-60000000D01*
X155000500Y-55511122D01*
X160261500Y-55511122D01*
X160261586Y-55512747D01*
X160261587Y-55512772D01*
X160264067Y-55559459D01*
X160264067Y-55559466D01*
X160264295Y-55563741D01*
X160308755Y-55793626D01*
X160391426Y-56012690D01*
X160509930Y-56214632D01*
X160660858Y-56393642D01*
X160839868Y-56544570D01*
X161041810Y-56663074D01*
X161260874Y-56745745D01*
X161490759Y-56790205D01*
X161543378Y-56793000D01*
X161545022Y-56793000D01*
X163478978Y-56793000D01*
X163480622Y-56793000D01*
X163533241Y-56790205D01*
X163763126Y-56745745D01*
X163982190Y-56663074D01*
X164184132Y-56544570D01*
X164363142Y-56393642D01*
X164514070Y-56214632D01*
X164632574Y-56012690D01*
X164715245Y-55793626D01*
X164759705Y-55563741D01*
X164762500Y-55511122D01*
X164762500Y-53573878D01*
X164759705Y-53521259D01*
X164715245Y-53291374D01*
X164632574Y-53072310D01*
X164514070Y-52870368D01*
X164363142Y-52691358D01*
X164184132Y-52540430D01*
X163982190Y-52421926D01*
X163763126Y-52339255D01*
X163763125Y-52339254D01*
X163763123Y-52339254D01*
X163758908Y-52338439D01*
X163757897Y-52338243D01*
X163695816Y-52306188D01*
X163660920Y-52245656D01*
X163664290Y-52175868D01*
X163704855Y-52118980D01*
X163769737Y-52093054D01*
X163781444Y-52092500D01*
X164877000Y-52092500D01*
X164877000Y-50878263D01*
X165012000Y-50878263D01*
X165027320Y-50984815D01*
X165087048Y-51115600D01*
X165181202Y-51224261D01*
X165302156Y-51301993D01*
X165440111Y-51342500D01*
X165583889Y-51342500D01*
X165721844Y-51301993D01*
X165842798Y-51224261D01*
X165936952Y-51115600D01*
X165996680Y-50984815D01*
X166012000Y-50878263D01*
X166012000Y-48806737D01*
X165996680Y-48700185D01*
X165936952Y-48569400D01*
X165842798Y-48460739D01*
X165721844Y-48383007D01*
X165583889Y-48342500D01*
X165440111Y-48342500D01*
X165302156Y-48383007D01*
X165181202Y-48460739D01*
X165087048Y-48569400D01*
X165027320Y-48700185D01*
X165012000Y-48806737D01*
X165012000Y-50878263D01*
X164877000Y-50878263D01*
X164877000Y-50477500D01*
X163262000Y-50477500D01*
X163262000Y-51637018D01*
X163262354Y-51643632D01*
X163268400Y-51699871D01*
X163318647Y-51834589D01*
X163404811Y-51949688D01*
X163519911Y-52035852D01*
X163568607Y-52054015D01*
X163624541Y-52095886D01*
X163648958Y-52161350D01*
X163634106Y-52229623D01*
X163584701Y-52279029D01*
X163518699Y-52294022D01*
X163480622Y-52292000D01*
X161543378Y-52292000D01*
X161541753Y-52292086D01*
X161541727Y-52292087D01*
X161495040Y-52294567D01*
X161495031Y-52294568D01*
X161490759Y-52294795D01*
X161486561Y-52295606D01*
X161486552Y-52295608D01*
X161260877Y-52339254D01*
X161041807Y-52421927D01*
X160839868Y-52540430D01*
X160660858Y-52691358D01*
X160509930Y-52870368D01*
X160391427Y-53072307D01*
X160308754Y-53291377D01*
X160265108Y-53517052D01*
X160265106Y-53517061D01*
X160264295Y-53521259D01*
X160264068Y-53525531D01*
X160264067Y-53525540D01*
X160261587Y-53572227D01*
X160261586Y-53572253D01*
X160261500Y-53573878D01*
X160261500Y-55511122D01*
X155000500Y-55511122D01*
X155000500Y-50904295D01*
X157511500Y-50904295D01*
X157511501Y-50906716D01*
X157511691Y-50909135D01*
X157511692Y-50909151D01*
X157521904Y-51038916D01*
X157576902Y-51257181D01*
X157669992Y-51462125D01*
X157798180Y-51647154D01*
X157957345Y-51806319D01*
X158142374Y-51934507D01*
X158347318Y-52027597D01*
X158565583Y-52082595D01*
X158565584Y-52082595D01*
X158565588Y-52082596D01*
X158697783Y-52093000D01*
X160326216Y-52092999D01*
X160458412Y-52082596D01*
X160487998Y-52075141D01*
X160676681Y-52027597D01*
X160711063Y-52011979D01*
X160881626Y-51934507D01*
X161066654Y-51806319D01*
X161225819Y-51647154D01*
X161354007Y-51462126D01*
X161447096Y-51257183D01*
X161502096Y-51038912D01*
X161512500Y-50906717D01*
X161512499Y-49207500D01*
X163262000Y-49207500D01*
X164877000Y-49207500D01*
X164877000Y-47592500D01*
X163717482Y-47592500D01*
X163710867Y-47592854D01*
X163654628Y-47598900D01*
X163519910Y-47649147D01*
X163404811Y-47735311D01*
X163318647Y-47850410D01*
X163268400Y-47985128D01*
X163262354Y-48041367D01*
X163262000Y-48047981D01*
X163262000Y-49207500D01*
X161512499Y-49207500D01*
X161512499Y-48778284D01*
X161502096Y-48646088D01*
X161502095Y-48646083D01*
X161447097Y-48427818D01*
X161354007Y-48222874D01*
X161225819Y-48037845D01*
X161066654Y-47878680D01*
X160881625Y-47750492D01*
X160676681Y-47657402D01*
X160458416Y-47602404D01*
X160328651Y-47592191D01*
X160328636Y-47592190D01*
X160326217Y-47592000D01*
X160323771Y-47592000D01*
X158700229Y-47592000D01*
X158700203Y-47592000D01*
X158697784Y-47592001D01*
X158695365Y-47592191D01*
X158695348Y-47592192D01*
X158565583Y-47602404D01*
X158347318Y-47657402D01*
X158142374Y-47750492D01*
X157957345Y-47878680D01*
X157798180Y-48037845D01*
X157669992Y-48222874D01*
X157576902Y-48427818D01*
X157521904Y-48646083D01*
X157511691Y-48775848D01*
X157511690Y-48775864D01*
X157511500Y-48778283D01*
X157511500Y-48780727D01*
X157511500Y-48780728D01*
X157511500Y-50904270D01*
X157511500Y-50904295D01*
X155000500Y-50904295D01*
X155000500Y-40000000D01*
X157294564Y-40000000D01*
X157294790Y-40003736D01*
X157314063Y-40322362D01*
X157314064Y-40322372D01*
X157314290Y-40326104D01*
X157314963Y-40329778D01*
X157314965Y-40329792D01*
X157372502Y-40643762D01*
X157372504Y-40643771D01*
X157373179Y-40647453D01*
X157470373Y-40959361D01*
X157604455Y-41257279D01*
X157606388Y-41260477D01*
X157606392Y-41260484D01*
X157771532Y-41533658D01*
X157771536Y-41533663D01*
X157773470Y-41536863D01*
X157974952Y-41794036D01*
X158205964Y-42025048D01*
X158463137Y-42226530D01*
X158742721Y-42395545D01*
X159040639Y-42529627D01*
X159352547Y-42626821D01*
X159673896Y-42685710D01*
X160000000Y-42705436D01*
X160326104Y-42685710D01*
X160647453Y-42626821D01*
X160959361Y-42529627D01*
X161257279Y-42395545D01*
X161536863Y-42226530D01*
X161794036Y-42025048D01*
X162025048Y-41794036D01*
X162226530Y-41536863D01*
X162395545Y-41257279D01*
X162529627Y-40959361D01*
X162626821Y-40647453D01*
X162685710Y-40326104D01*
X162705436Y-40000000D01*
X162685710Y-39673896D01*
X162626821Y-39352547D01*
X162529627Y-39040639D01*
X162395545Y-38742721D01*
X162226530Y-38463137D01*
X162025048Y-38205964D01*
X161794036Y-37974952D01*
X161536863Y-37773470D01*
X161533663Y-37771536D01*
X161533658Y-37771532D01*
X161260484Y-37606392D01*
X161260477Y-37606388D01*
X161257279Y-37604455D01*
X160959361Y-37470373D01*
X160955783Y-37469258D01*
X160651038Y-37374296D01*
X160651036Y-37374295D01*
X160647453Y-37373179D01*
X160643771Y-37372504D01*
X160643762Y-37372502D01*
X160329792Y-37314965D01*
X160329778Y-37314963D01*
X160326104Y-37314290D01*
X160322372Y-37314064D01*
X160322362Y-37314063D01*
X160003736Y-37294790D01*
X160000000Y-37294564D01*
X159996264Y-37294790D01*
X159677637Y-37314063D01*
X159677625Y-37314064D01*
X159673896Y-37314290D01*
X159670223Y-37314962D01*
X159670207Y-37314965D01*
X159356237Y-37372502D01*
X159356224Y-37372505D01*
X159352547Y-37373179D01*
X159348967Y-37374294D01*
X159348961Y-37374296D01*
X159044216Y-37469258D01*
X159044210Y-37469260D01*
X159040639Y-37470373D01*
X159037230Y-37471907D01*
X159037228Y-37471908D01*
X158746135Y-37602918D01*
X158746128Y-37602921D01*
X158742721Y-37604455D01*
X158739528Y-37606384D01*
X158739515Y-37606392D01*
X158466341Y-37771532D01*
X158466328Y-37771540D01*
X158463137Y-37773470D01*
X158460195Y-37775774D01*
X158460189Y-37775779D01*
X158344233Y-37866625D01*
X158205964Y-37974952D01*
X158203318Y-37977597D01*
X158203310Y-37977605D01*
X157977605Y-38203310D01*
X157977597Y-38203318D01*
X157974952Y-38205964D01*
X157972640Y-38208914D01*
X157972640Y-38208915D01*
X157775779Y-38460189D01*
X157775774Y-38460195D01*
X157773470Y-38463137D01*
X157771540Y-38466328D01*
X157771532Y-38466341D01*
X157606392Y-38739515D01*
X157606384Y-38739528D01*
X157604455Y-38742721D01*
X157470373Y-39040639D01*
X157469260Y-39044210D01*
X157469258Y-39044216D01*
X157394590Y-39283837D01*
X157373179Y-39352547D01*
X157372505Y-39356224D01*
X157372502Y-39356237D01*
X157314965Y-39670207D01*
X157314962Y-39670223D01*
X157314290Y-39673896D01*
X157314064Y-39677625D01*
X157314063Y-39677637D01*
X157297049Y-39958922D01*
X157294564Y-40000000D01*
X155000500Y-40000000D01*
X155000500Y-38003245D01*
X155000670Y-37996755D01*
X155007490Y-37866625D01*
X155017628Y-37686089D01*
X155018955Y-37673692D01*
X155042611Y-37524331D01*
X155069739Y-37364669D01*
X155072203Y-37353388D01*
X155112425Y-37203279D01*
X155156353Y-37050803D01*
X155159721Y-37040759D01*
X155215583Y-36895233D01*
X155216692Y-36892452D01*
X155276439Y-36748212D01*
X155280488Y-36739429D01*
X155351569Y-36599925D01*
X155353521Y-36596250D01*
X155428588Y-36460426D01*
X155433065Y-36452962D01*
X155518633Y-36321199D01*
X155521434Y-36317077D01*
X155611010Y-36190832D01*
X155615733Y-36184603D01*
X155714702Y-36062386D01*
X155718532Y-36057885D01*
X155821613Y-35942537D01*
X155826323Y-35937556D01*
X155937556Y-35826323D01*
X155942537Y-35821613D01*
X156057885Y-35718532D01*
X156062386Y-35714702D01*
X156184603Y-35615733D01*
X156190832Y-35611010D01*
X156317077Y-35521434D01*
X156321199Y-35518633D01*
X156452962Y-35433065D01*
X156460426Y-35428588D01*
X156596255Y-35353517D01*
X156599934Y-35351565D01*
X156619395Y-35341649D01*
X156739429Y-35280488D01*
X156748212Y-35276439D01*
X156892452Y-35216692D01*
X156895233Y-35215583D01*
X157040753Y-35159724D01*
X157050818Y-35156349D01*
X157203242Y-35112435D01*
X157353427Y-35072193D01*
X157364655Y-35069741D01*
X157453186Y-35054699D01*
X157458766Y-35053752D01*
X157479535Y-35052000D01*
X167518500Y-35052000D01*
X167585539Y-35071685D01*
G37*
%TD.AperFunction*%
%TD*%
%TA.AperFunction,Conductor*%
%TO.N,/Vsys*%
G36*
X190951039Y-35071685D02*
G01*
X190996794Y-35124489D01*
X191008000Y-35176000D01*
X191008000Y-37260500D01*
X190988315Y-37327539D01*
X190935511Y-37373294D01*
X190884000Y-37384500D01*
X184537674Y-37384500D01*
X184517107Y-37382229D01*
X184446803Y-37384439D01*
X184442908Y-37384500D01*
X184415232Y-37384500D01*
X184411360Y-37384988D01*
X184411343Y-37384990D01*
X184411201Y-37385008D01*
X184399582Y-37385922D01*
X184355765Y-37387299D01*
X184336432Y-37392916D01*
X184317386Y-37396860D01*
X184297413Y-37399383D01*
X184256661Y-37415518D01*
X184245613Y-37419301D01*
X184203515Y-37431532D01*
X184186188Y-37441779D01*
X184168720Y-37450336D01*
X184150003Y-37457746D01*
X184114533Y-37483516D01*
X184104775Y-37489927D01*
X184067052Y-37512237D01*
X184067050Y-37512238D01*
X184067051Y-37512238D01*
X184052815Y-37526473D01*
X184038027Y-37539103D01*
X184021741Y-37550936D01*
X183993799Y-37584711D01*
X183985938Y-37593349D01*
X183460273Y-38119015D01*
X183398950Y-38152500D01*
X183329259Y-38147516D01*
X183284911Y-38119015D01*
X183243404Y-38077508D01*
X183243403Y-38077507D01*
X183243401Y-38077505D01*
X183049830Y-37941965D01*
X182835663Y-37842097D01*
X182774502Y-37825709D01*
X182607407Y-37780936D01*
X182372000Y-37760340D01*
X182136592Y-37780936D01*
X181908336Y-37842097D01*
X181694170Y-37941965D01*
X181500598Y-38077505D01*
X181333505Y-38244598D01*
X181203575Y-38430159D01*
X181148998Y-38473784D01*
X181079500Y-38480978D01*
X181017145Y-38449455D01*
X181000425Y-38430159D01*
X180985449Y-38408771D01*
X180870495Y-38244599D01*
X180703401Y-38077505D01*
X180509830Y-37941965D01*
X180295663Y-37842097D01*
X180234502Y-37825709D01*
X180067407Y-37780936D01*
X179832000Y-37760340D01*
X179596592Y-37780936D01*
X179368336Y-37842097D01*
X179154170Y-37941965D01*
X178960598Y-38077505D01*
X178793505Y-38244598D01*
X178663575Y-38430159D01*
X178608998Y-38473784D01*
X178539500Y-38480978D01*
X178477145Y-38449455D01*
X178460425Y-38430159D01*
X178445449Y-38408771D01*
X178330495Y-38244599D01*
X178163401Y-38077505D01*
X177969830Y-37941965D01*
X177755663Y-37842097D01*
X177694501Y-37825709D01*
X177527407Y-37780936D01*
X177291999Y-37760340D01*
X177056592Y-37780936D01*
X176828336Y-37842097D01*
X176614170Y-37941965D01*
X176420598Y-38077505D01*
X176253505Y-38244598D01*
X176117965Y-38438170D01*
X176018097Y-38652336D01*
X175956936Y-38880592D01*
X175936340Y-39116000D01*
X175956936Y-39351407D01*
X176001709Y-39518501D01*
X176018097Y-39579663D01*
X176117965Y-39793830D01*
X176253505Y-39987401D01*
X176420599Y-40154495D01*
X176606160Y-40284426D01*
X176649783Y-40339002D01*
X176656976Y-40408501D01*
X176625454Y-40470855D01*
X176606159Y-40487575D01*
X176420595Y-40617508D01*
X176253505Y-40784598D01*
X176117965Y-40978170D01*
X176018097Y-41192336D01*
X175956936Y-41420592D01*
X175936340Y-41655999D01*
X175956936Y-41891407D01*
X175982496Y-41986798D01*
X176018097Y-42119663D01*
X176117965Y-42333830D01*
X176253505Y-42527401D01*
X176420599Y-42694495D01*
X176614170Y-42830035D01*
X176828337Y-42929903D01*
X177040059Y-42986633D01*
X177056592Y-42991063D01*
X177291999Y-43011659D01*
X177291999Y-43011658D01*
X177292000Y-43011659D01*
X177527408Y-42991063D01*
X177755663Y-42929903D01*
X177969830Y-42830035D01*
X178163401Y-42694495D01*
X178330495Y-42527401D01*
X178460426Y-42341839D01*
X178515002Y-42298216D01*
X178584500Y-42291022D01*
X178646855Y-42322545D01*
X178663571Y-42341837D01*
X178793505Y-42527401D01*
X178960599Y-42694495D01*
X179154170Y-42830035D01*
X179368337Y-42929903D01*
X179596592Y-42991063D01*
X179832000Y-43011659D01*
X180067408Y-42991063D01*
X180295663Y-42929903D01*
X180509830Y-42830035D01*
X180703401Y-42694495D01*
X180870495Y-42527401D01*
X181000426Y-42341839D01*
X181055002Y-42298216D01*
X181124500Y-42291022D01*
X181186855Y-42322545D01*
X181203571Y-42341837D01*
X181333505Y-42527401D01*
X181500599Y-42694495D01*
X181694170Y-42830035D01*
X181908337Y-42929903D01*
X182136592Y-42991063D01*
X182372000Y-43011659D01*
X182607408Y-42991063D01*
X182835663Y-42929903D01*
X183049830Y-42830035D01*
X183243401Y-42694495D01*
X183410495Y-42527401D01*
X183540732Y-42341403D01*
X183595307Y-42297780D01*
X183664805Y-42290586D01*
X183727160Y-42322109D01*
X183743880Y-42341404D01*
X183873893Y-42527081D01*
X184040918Y-42694106D01*
X184234423Y-42829600D01*
X184448509Y-42929430D01*
X184662000Y-42986634D01*
X184662000Y-42091501D01*
X184769685Y-42140680D01*
X184876237Y-42156000D01*
X184947763Y-42156000D01*
X185054315Y-42140680D01*
X185162000Y-42091501D01*
X185162000Y-42986633D01*
X185375490Y-42929430D01*
X185589576Y-42829600D01*
X185783081Y-42694106D01*
X185950109Y-42527078D01*
X186080119Y-42341405D01*
X186134696Y-42297780D01*
X186204194Y-42290586D01*
X186266549Y-42322109D01*
X186283265Y-42341400D01*
X186413505Y-42527401D01*
X186580599Y-42694495D01*
X186774170Y-42830035D01*
X186988337Y-42929903D01*
X187200059Y-42986633D01*
X187216592Y-42991063D01*
X187451999Y-43011659D01*
X187451999Y-43011658D01*
X187452000Y-43011659D01*
X187687408Y-42991063D01*
X187915663Y-42929903D01*
X188129830Y-42830035D01*
X188323401Y-42694495D01*
X188490495Y-42527401D01*
X188626035Y-42333830D01*
X188725903Y-42119663D01*
X188787063Y-41891408D01*
X188807659Y-41656000D01*
X188787063Y-41420592D01*
X188764288Y-41335593D01*
X188765951Y-41265744D01*
X188805113Y-41207881D01*
X188869342Y-41180377D01*
X188884063Y-41179500D01*
X190884000Y-41179500D01*
X190951039Y-41199185D01*
X190996794Y-41251989D01*
X191008000Y-41303500D01*
X191008000Y-60328000D01*
X190988315Y-60395039D01*
X190935511Y-60440794D01*
X190884000Y-60452000D01*
X168272000Y-60452000D01*
X168204961Y-60432315D01*
X168159206Y-60379511D01*
X168148000Y-60328000D01*
X168148000Y-56822000D01*
X168167685Y-56754961D01*
X168220489Y-56709206D01*
X168272000Y-56698000D01*
X168679259Y-56698000D01*
X168744356Y-56716462D01*
X168867710Y-56792548D01*
X169027314Y-56845436D01*
X169122693Y-56855180D01*
X169122694Y-56855180D01*
X169125826Y-56855500D01*
X169128975Y-56855500D01*
X169656025Y-56855500D01*
X169659174Y-56855500D01*
X169757685Y-56845436D01*
X169917287Y-56792549D01*
X170060391Y-56704281D01*
X170092318Y-56672353D01*
X170153640Y-56638868D01*
X170223332Y-56643852D01*
X170267682Y-56672354D01*
X170299606Y-56704279D01*
X170299608Y-56704280D01*
X170299609Y-56704281D01*
X170442713Y-56792549D01*
X170522514Y-56818992D01*
X170602314Y-56845436D01*
X170697693Y-56855180D01*
X170697694Y-56855180D01*
X170700826Y-56855500D01*
X170703975Y-56855500D01*
X171231025Y-56855500D01*
X171234174Y-56855500D01*
X171332685Y-56845436D01*
X171492287Y-56792549D01*
X171492289Y-56792548D01*
X171615644Y-56716462D01*
X171680741Y-56698000D01*
X173690062Y-56698000D01*
X175528113Y-56698000D01*
X175593210Y-56716462D01*
X175717300Y-56793002D01*
X175878292Y-56846349D01*
X175974522Y-56856180D01*
X175974523Y-56856180D01*
X175977655Y-56856500D01*
X176574344Y-56856499D01*
X176673708Y-56846349D01*
X176834697Y-56793003D01*
X176835435Y-56792548D01*
X176958790Y-56716462D01*
X177023887Y-56698000D01*
X178867501Y-56698000D01*
X178934540Y-56717685D01*
X178980295Y-56770489D01*
X178991501Y-56821999D01*
X178991501Y-57424008D01*
X178991820Y-57427140D01*
X178991821Y-57427141D01*
X179002000Y-57526796D01*
X179057186Y-57693334D01*
X179149288Y-57842657D01*
X179273342Y-57966711D01*
X179273344Y-57966712D01*
X179422666Y-58058814D01*
X179534016Y-58095712D01*
X179589202Y-58113999D01*
X179688858Y-58124180D01*
X179688859Y-58124180D01*
X179691991Y-58124500D01*
X180492008Y-58124499D01*
X180594797Y-58113999D01*
X180761334Y-58058814D01*
X180910656Y-57966712D01*
X181034712Y-57842656D01*
X181126814Y-57693334D01*
X181181999Y-57526797D01*
X181192500Y-57424009D01*
X181192500Y-56774000D01*
X183552001Y-56774000D01*
X183552001Y-57420829D01*
X183552321Y-57427111D01*
X183562493Y-57526695D01*
X183617642Y-57693122D01*
X183709683Y-57842345D01*
X183833654Y-57966316D01*
X183982877Y-58058357D01*
X184149303Y-58113506D01*
X184248890Y-58123680D01*
X184255168Y-58123999D01*
X184401999Y-58123999D01*
X184402000Y-58123998D01*
X184402000Y-56774000D01*
X184902000Y-56774000D01*
X184902000Y-58123999D01*
X185048829Y-58123999D01*
X185055111Y-58123678D01*
X185154695Y-58113506D01*
X185321122Y-58058357D01*
X185470345Y-57966316D01*
X185594316Y-57842345D01*
X185686357Y-57693122D01*
X185741506Y-57526696D01*
X185751680Y-57427109D01*
X185752000Y-57420831D01*
X185752000Y-56774000D01*
X184902000Y-56774000D01*
X184402000Y-56774000D01*
X183552001Y-56774000D01*
X181192500Y-56774000D01*
X181192499Y-56001499D01*
X181212184Y-55934461D01*
X181264987Y-55888706D01*
X181316499Y-55877500D01*
X183428000Y-55877500D01*
X183495039Y-55897185D01*
X183540794Y-55949989D01*
X183552000Y-56001500D01*
X183552000Y-56274000D01*
X185751999Y-56274000D01*
X185751999Y-56001500D01*
X185771684Y-55934461D01*
X185824488Y-55888706D01*
X185875999Y-55877500D01*
X187832676Y-55877500D01*
X187836000Y-55877500D01*
X187943456Y-55865947D01*
X187994967Y-55854741D01*
X188024165Y-55845022D01*
X188097503Y-55820614D01*
X188218541Y-55742826D01*
X188218543Y-55742825D01*
X188271347Y-55697070D01*
X188365567Y-55588336D01*
X188425338Y-55457459D01*
X188445023Y-55390420D01*
X188445024Y-55390416D01*
X188465500Y-55248000D01*
X188465500Y-51845860D01*
X188485000Y-51779452D01*
X188485000Y-51774998D01*
X188984999Y-51774998D01*
X188985000Y-51774999D01*
X189005165Y-51774999D01*
X189011447Y-51774678D01*
X189107605Y-51764856D01*
X189268486Y-51711546D01*
X189412732Y-51622573D01*
X189532573Y-51502732D01*
X189621546Y-51358486D01*
X189674856Y-51197606D01*
X189684680Y-51101445D01*
X189685000Y-51095167D01*
X189685000Y-51050000D01*
X188985000Y-51050000D01*
X188984999Y-51774998D01*
X188485000Y-51774998D01*
X188485000Y-49825000D01*
X188985000Y-49825000D01*
X188985000Y-50550000D01*
X189684999Y-50550000D01*
X189684999Y-50504834D01*
X189684678Y-50498552D01*
X189674856Y-50402394D01*
X189621546Y-50241513D01*
X189532573Y-50097267D01*
X189412732Y-49977426D01*
X189268486Y-49888453D01*
X189107606Y-49835143D01*
X189011445Y-49825319D01*
X189005168Y-49825000D01*
X188985000Y-49825000D01*
X188485000Y-49825000D01*
X188485000Y-49811016D01*
X188468333Y-49780492D01*
X188465500Y-49754137D01*
X188465500Y-46355323D01*
X188465500Y-46352000D01*
X188453947Y-46244544D01*
X188442741Y-46193033D01*
X188441690Y-46189875D01*
X188408614Y-46090496D01*
X188330826Y-45969458D01*
X188326004Y-45963894D01*
X188285070Y-45916653D01*
X188176336Y-45822433D01*
X188176335Y-45822432D01*
X188045460Y-45762662D01*
X187980113Y-45743474D01*
X187980111Y-45743473D01*
X187978420Y-45742977D01*
X187978416Y-45742976D01*
X187975290Y-45742526D01*
X187975277Y-45742524D01*
X187836000Y-45722500D01*
X175384000Y-45722500D01*
X175380706Y-45722854D01*
X175380690Y-45722855D01*
X175279854Y-45733697D01*
X175279851Y-45733697D01*
X175276544Y-45734053D01*
X175273309Y-45734756D01*
X175273295Y-45734759D01*
X175228277Y-45744553D01*
X175228272Y-45744554D01*
X175225033Y-45745259D01*
X175221893Y-45746303D01*
X175221875Y-45746309D01*
X175122496Y-45779385D01*
X175001458Y-45857173D01*
X174948652Y-45902931D01*
X174854432Y-46011664D01*
X174794662Y-46142539D01*
X174778883Y-46196277D01*
X174774977Y-46209580D01*
X174774976Y-46209584D01*
X174774527Y-46212706D01*
X174774524Y-46212722D01*
X174754500Y-46352000D01*
X174754500Y-53572332D01*
X174754824Y-53590497D01*
X174755146Y-53599449D01*
X174756101Y-53617231D01*
X174786688Y-53757834D01*
X174811103Y-53823294D01*
X174880056Y-53949573D01*
X174981791Y-54051310D01*
X174981793Y-54051312D01*
X175037726Y-54093184D01*
X175037734Y-54093190D01*
X175164015Y-54162143D01*
X175202857Y-54170592D01*
X175264179Y-54204075D01*
X175297666Y-54265397D01*
X175300500Y-54291758D01*
X175300500Y-54626194D01*
X175300500Y-54626213D01*
X175300501Y-54629344D01*
X175300820Y-54632476D01*
X175300821Y-54632477D01*
X175310650Y-54728709D01*
X175367078Y-54898997D01*
X175369480Y-54968825D01*
X175333748Y-55028867D01*
X175271227Y-55060059D01*
X175249372Y-55062000D01*
X171680741Y-55062000D01*
X171615644Y-55043538D01*
X171492289Y-54967451D01*
X171332685Y-54914563D01*
X171237306Y-54904819D01*
X171237287Y-54904818D01*
X171234174Y-54904500D01*
X170700826Y-54904500D01*
X170697713Y-54904817D01*
X170697693Y-54904819D01*
X170602314Y-54914563D01*
X170442714Y-54967450D01*
X170299606Y-55055720D01*
X170267681Y-55087646D01*
X170206358Y-55121131D01*
X170136666Y-55116147D01*
X170092319Y-55087646D01*
X170060393Y-55055720D01*
X169988839Y-55011584D01*
X169917287Y-54967451D01*
X169917286Y-54967450D01*
X169917285Y-54967450D01*
X169757685Y-54914563D01*
X169662306Y-54904819D01*
X169662287Y-54904818D01*
X169659174Y-54904500D01*
X169125826Y-54904500D01*
X169122713Y-54904817D01*
X169122693Y-54904819D01*
X169027314Y-54914563D01*
X168867710Y-54967451D01*
X168744356Y-55043538D01*
X168679259Y-55062000D01*
X168272000Y-55062000D01*
X168204961Y-55042315D01*
X168159206Y-54989511D01*
X168148000Y-54938000D01*
X168148000Y-35176000D01*
X168167685Y-35108961D01*
X168220489Y-35063206D01*
X168272000Y-35052000D01*
X190884000Y-35052000D01*
X190951039Y-35071685D01*
G37*
%TD.AperFunction*%
%TD*%
%TA.AperFunction,Conductor*%
%TO.N,/VoutServo*%
G36*
X207541234Y-35053751D02*
G01*
X207635319Y-35069737D01*
X207646611Y-35072203D01*
X207796693Y-35112418D01*
X207949188Y-35156351D01*
X207959253Y-35159726D01*
X208104710Y-35215562D01*
X208107599Y-35216714D01*
X208251768Y-35276430D01*
X208260594Y-35280500D01*
X208400064Y-35351565D01*
X208403748Y-35353521D01*
X208493848Y-35403316D01*
X208539548Y-35428574D01*
X208547061Y-35433081D01*
X208678754Y-35518604D01*
X208682947Y-35521452D01*
X208809147Y-35610996D01*
X208815428Y-35615759D01*
X208937567Y-35714665D01*
X208942158Y-35718571D01*
X209057424Y-35821579D01*
X209062478Y-35826358D01*
X209173640Y-35937520D01*
X209178419Y-35942574D01*
X209281427Y-36057840D01*
X209285333Y-36062431D01*
X209384239Y-36184570D01*
X209389002Y-36190851D01*
X209478546Y-36317051D01*
X209481409Y-36321266D01*
X209566907Y-36452921D01*
X209571430Y-36460460D01*
X209646477Y-36596250D01*
X209648433Y-36599934D01*
X209719498Y-36739404D01*
X209723575Y-36748247D01*
X209783259Y-36892337D01*
X209784462Y-36895353D01*
X209840265Y-37040727D01*
X209843655Y-37050836D01*
X209887579Y-37203297D01*
X209927793Y-37353379D01*
X209930262Y-37364685D01*
X209957394Y-37524369D01*
X209981040Y-37673670D01*
X209982371Y-37686108D01*
X209992509Y-37866617D01*
X209999330Y-37996756D01*
X209999500Y-38003246D01*
X209999500Y-60330500D01*
X209979815Y-60397539D01*
X209927011Y-60443294D01*
X209875500Y-60454500D01*
X207809670Y-60454500D01*
X207742631Y-60434815D01*
X207696876Y-60382011D01*
X207685896Y-60323016D01*
X207705436Y-60000000D01*
X207685710Y-59673896D01*
X207626821Y-59352547D01*
X207529627Y-59040639D01*
X207395545Y-58742721D01*
X207226530Y-58463137D01*
X207025048Y-58205964D01*
X206794036Y-57974952D01*
X206536863Y-57773470D01*
X206533663Y-57771536D01*
X206533658Y-57771532D01*
X206260484Y-57606392D01*
X206260477Y-57606388D01*
X206257279Y-57604455D01*
X205959361Y-57470373D01*
X205647453Y-57373179D01*
X205643771Y-57372504D01*
X205643762Y-57372502D01*
X205329792Y-57314965D01*
X205329778Y-57314963D01*
X205326104Y-57314290D01*
X205322372Y-57314064D01*
X205322362Y-57314063D01*
X205003736Y-57294790D01*
X205000000Y-57294564D01*
X204996264Y-57294790D01*
X204677637Y-57314063D01*
X204677625Y-57314064D01*
X204673896Y-57314290D01*
X204670223Y-57314962D01*
X204670207Y-57314965D01*
X204356237Y-57372502D01*
X204356224Y-57372505D01*
X204352547Y-57373179D01*
X204348967Y-57374294D01*
X204348961Y-57374296D01*
X204044216Y-57469258D01*
X204044210Y-57469260D01*
X204040639Y-57470373D01*
X204037230Y-57471907D01*
X204037228Y-57471908D01*
X203746135Y-57602918D01*
X203746128Y-57602921D01*
X203742721Y-57604455D01*
X203739528Y-57606384D01*
X203739515Y-57606392D01*
X203466341Y-57771532D01*
X203466328Y-57771540D01*
X203463137Y-57773470D01*
X203460195Y-57775774D01*
X203460189Y-57775779D01*
X203264833Y-57928831D01*
X203205964Y-57974952D01*
X203203318Y-57977597D01*
X203203310Y-57977605D01*
X202977605Y-58203310D01*
X202977597Y-58203318D01*
X202974952Y-58205964D01*
X202972640Y-58208914D01*
X202972640Y-58208915D01*
X202775779Y-58460189D01*
X202775774Y-58460195D01*
X202773470Y-58463137D01*
X202771540Y-58466328D01*
X202771532Y-58466341D01*
X202606392Y-58739515D01*
X202606384Y-58739528D01*
X202604455Y-58742721D01*
X202470373Y-59040639D01*
X202469260Y-59044210D01*
X202469258Y-59044216D01*
X202411545Y-59229426D01*
X202373179Y-59352547D01*
X202372505Y-59356224D01*
X202372502Y-59356237D01*
X202314965Y-59670207D01*
X202314962Y-59670223D01*
X202314290Y-59673896D01*
X202314064Y-59677625D01*
X202314063Y-59677637D01*
X202301218Y-59889997D01*
X202294564Y-60000000D01*
X202294790Y-60003735D01*
X202294790Y-60003736D01*
X202314103Y-60323013D01*
X202298502Y-60391119D01*
X202248557Y-60439978D01*
X202190329Y-60454500D01*
X201757562Y-60454500D01*
X201690523Y-60434815D01*
X201644768Y-60382011D01*
X201634204Y-60317899D01*
X201635679Y-60303449D01*
X201636000Y-60297167D01*
X201636000Y-60277000D01*
X199686001Y-60277000D01*
X199686001Y-60297165D01*
X199686321Y-60303452D01*
X199687797Y-60317901D01*
X199675026Y-60386594D01*
X199627144Y-60437477D01*
X199564439Y-60454500D01*
X198712000Y-60454500D01*
X198708700Y-60454854D01*
X198708696Y-60454855D01*
X198698494Y-60455952D01*
X198629735Y-60443544D01*
X198578600Y-60395932D01*
X198567538Y-60371666D01*
X198525002Y-60243300D01*
X198435968Y-60098955D01*
X198316044Y-59979031D01*
X198178903Y-59894441D01*
X198132178Y-59842493D01*
X198120000Y-59788903D01*
X198120000Y-59777000D01*
X199686000Y-59777000D01*
X200411000Y-59777000D01*
X200411000Y-59077000D01*
X200911000Y-59077000D01*
X200911000Y-59777000D01*
X201635999Y-59777000D01*
X201635999Y-59756834D01*
X201635678Y-59750552D01*
X201625856Y-59654394D01*
X201572546Y-59493513D01*
X201483573Y-59349267D01*
X201363732Y-59229426D01*
X201219486Y-59140453D01*
X201058606Y-59087143D01*
X200962445Y-59077319D01*
X200956168Y-59077000D01*
X200911000Y-59077000D01*
X200411000Y-59077000D01*
X200365835Y-59077000D01*
X200359551Y-59077321D01*
X200263394Y-59087143D01*
X200102513Y-59140453D01*
X199958267Y-59229426D01*
X199838426Y-59349267D01*
X199749453Y-59493513D01*
X199696143Y-59654393D01*
X199686319Y-59750554D01*
X199686000Y-59756832D01*
X199686000Y-59777000D01*
X198120000Y-59777000D01*
X198120000Y-57282000D01*
X199300001Y-57282000D01*
X199300001Y-57928829D01*
X199300321Y-57935111D01*
X199310493Y-58034695D01*
X199365642Y-58201122D01*
X199457683Y-58350345D01*
X199581654Y-58474316D01*
X199730877Y-58566357D01*
X199897303Y-58621506D01*
X199996890Y-58631680D01*
X200003168Y-58631999D01*
X200149999Y-58631999D01*
X200150000Y-58631998D01*
X200150000Y-57282000D01*
X200650000Y-57282000D01*
X200650000Y-58631999D01*
X200796829Y-58631999D01*
X200803111Y-58631678D01*
X200902695Y-58621506D01*
X201069122Y-58566357D01*
X201218345Y-58474316D01*
X201342316Y-58350345D01*
X201434357Y-58201122D01*
X201489506Y-58034696D01*
X201499680Y-57935109D01*
X201500000Y-57928831D01*
X201500000Y-57282000D01*
X200650000Y-57282000D01*
X200150000Y-57282000D01*
X199300001Y-57282000D01*
X198120000Y-57282000D01*
X198120000Y-56782000D01*
X199300000Y-56782000D01*
X200150000Y-56782000D01*
X200150000Y-55432000D01*
X200650000Y-55432000D01*
X200650000Y-56782000D01*
X201499999Y-56782000D01*
X201499999Y-56781999D01*
X201499998Y-56135170D01*
X201499678Y-56128888D01*
X201489506Y-56029304D01*
X201434357Y-55862877D01*
X201342316Y-55713654D01*
X201218345Y-55589683D01*
X201069122Y-55497642D01*
X200902696Y-55442493D01*
X200803109Y-55432319D01*
X200796832Y-55432000D01*
X200650000Y-55432000D01*
X200150000Y-55432000D01*
X200003171Y-55432000D01*
X199996888Y-55432321D01*
X199897304Y-55442493D01*
X199730877Y-55497642D01*
X199581654Y-55589683D01*
X199457683Y-55713654D01*
X199365642Y-55862877D01*
X199310493Y-56029303D01*
X199300319Y-56128890D01*
X199300000Y-56135168D01*
X199300000Y-56782000D01*
X198120000Y-56782000D01*
X198120000Y-54556500D01*
X198139685Y-54489461D01*
X198192489Y-54443706D01*
X198244000Y-54432500D01*
X200816863Y-54432500D01*
X200820012Y-54432500D01*
X200922800Y-54421999D01*
X201089336Y-54366815D01*
X201183991Y-54308431D01*
X201238657Y-54274712D01*
X201362712Y-54150657D01*
X201454814Y-54001338D01*
X201455258Y-54000000D01*
X201509999Y-53834800D01*
X201520500Y-53732012D01*
X201520500Y-52345009D01*
X201540185Y-52277970D01*
X201592989Y-52232215D01*
X201662147Y-52222271D01*
X201723539Y-52249465D01*
X201756133Y-52276429D01*
X201756706Y-52276903D01*
X201765346Y-52284765D01*
X202865624Y-53385043D01*
X202878562Y-53401192D01*
X202929846Y-53449351D01*
X202932643Y-53452062D01*
X202952204Y-53471623D01*
X202955395Y-53474098D01*
X202964280Y-53481686D01*
X202996230Y-53511691D01*
X202996232Y-53511692D01*
X202996233Y-53511693D01*
X203013878Y-53521393D01*
X203030135Y-53532072D01*
X203046038Y-53544408D01*
X203086262Y-53561814D01*
X203096743Y-53566948D01*
X203135166Y-53588072D01*
X203154217Y-53592963D01*
X203154660Y-53593077D01*
X203173069Y-53599380D01*
X203185214Y-53604635D01*
X203191542Y-53607374D01*
X203234851Y-53614233D01*
X203246258Y-53616595D01*
X203288728Y-53627500D01*
X203308859Y-53627500D01*
X203328256Y-53629026D01*
X203348133Y-53632175D01*
X203388208Y-53628386D01*
X203391770Y-53628050D01*
X203403439Y-53627500D01*
X203977759Y-53627500D01*
X204044798Y-53647185D01*
X204090553Y-53699989D01*
X204095058Y-53731323D01*
X204108628Y-53750000D01*
X204132706Y-53750000D01*
X204199745Y-53769685D01*
X204207017Y-53774733D01*
X204217454Y-53782546D01*
X204332669Y-53868796D01*
X204467517Y-53919091D01*
X204527127Y-53925500D01*
X204554561Y-53925499D01*
X204621599Y-53945181D01*
X204667355Y-53997983D01*
X204677302Y-54067142D01*
X204648279Y-54130698D01*
X204604999Y-54162778D01*
X204534701Y-54194077D01*
X204490326Y-54226318D01*
X204424520Y-54249798D01*
X204417441Y-54250000D01*
X204108628Y-54250000D01*
X204150315Y-54378304D01*
X204184492Y-54437499D01*
X204200965Y-54505399D01*
X204184492Y-54561498D01*
X204149855Y-54621490D01*
X204089739Y-54806514D01*
X204089738Y-54806518D01*
X204069402Y-55000000D01*
X204089738Y-55193482D01*
X204089739Y-55193485D01*
X204149855Y-55378507D01*
X204247129Y-55546992D01*
X204377308Y-55691570D01*
X204534699Y-55805921D01*
X204712431Y-55885052D01*
X204902724Y-55925500D01*
X204902726Y-55925500D01*
X205097276Y-55925500D01*
X205287568Y-55885052D01*
X205287569Y-55885051D01*
X205287571Y-55885051D01*
X205465299Y-55805922D01*
X205622692Y-55691569D01*
X205752870Y-55546992D01*
X205850144Y-55378508D01*
X205910262Y-55193482D01*
X205930598Y-55000000D01*
X205910262Y-54806518D01*
X205850144Y-54621492D01*
X205815506Y-54561497D01*
X205799034Y-54493599D01*
X205815508Y-54437498D01*
X205849683Y-54378305D01*
X205891372Y-54250000D01*
X205582559Y-54250000D01*
X205515520Y-54230315D01*
X205509674Y-54226318D01*
X205465300Y-54194078D01*
X205425324Y-54176280D01*
X205394998Y-54162778D01*
X205341762Y-54117529D01*
X205321440Y-54050680D01*
X205340485Y-53983456D01*
X205392851Y-53937200D01*
X205445433Y-53925499D01*
X205472872Y-53925499D01*
X205532483Y-53919091D01*
X205667331Y-53868796D01*
X205782546Y-53782546D01*
X205782546Y-53782545D01*
X205792983Y-53774733D01*
X205858448Y-53750316D01*
X205867294Y-53750000D01*
X205891372Y-53750000D01*
X205891371Y-53749999D01*
X205879870Y-53714601D01*
X205877875Y-53644760D01*
X205881615Y-53632960D01*
X205919091Y-53532483D01*
X205925500Y-53472873D01*
X205925499Y-52527128D01*
X205919091Y-52467517D01*
X205868796Y-52332669D01*
X205782546Y-52217454D01*
X205667331Y-52131204D01*
X205532483Y-52080909D01*
X205472873Y-52074500D01*
X205469550Y-52074500D01*
X204530439Y-52074500D01*
X204530420Y-52074500D01*
X204527128Y-52074501D01*
X204523848Y-52074853D01*
X204523840Y-52074854D01*
X204467515Y-52080909D01*
X204332669Y-52131204D01*
X204217453Y-52217454D01*
X204138584Y-52322811D01*
X204082650Y-52364682D01*
X204039317Y-52372500D01*
X203679281Y-52372500D01*
X203612242Y-52352815D01*
X203591600Y-52336181D01*
X202847819Y-51592399D01*
X202814334Y-51531076D01*
X202811500Y-51504718D01*
X202811500Y-47317797D01*
X202811989Y-47313370D01*
X202811561Y-47299818D01*
X202811499Y-47295903D01*
X202811500Y-47204524D01*
X202808328Y-47179421D01*
X202807412Y-47167777D01*
X202806709Y-47145372D01*
X202804686Y-47138411D01*
X202800740Y-47119355D01*
X202796616Y-47086707D01*
X202772652Y-47026177D01*
X202768869Y-47015129D01*
X202762617Y-46993610D01*
X202758927Y-46987371D01*
X202750371Y-46969906D01*
X202738253Y-46939297D01*
X202699992Y-46886635D01*
X202693585Y-46876881D01*
X202682169Y-46857578D01*
X202677042Y-46852451D01*
X202664406Y-46837656D01*
X202645063Y-46811033D01*
X202645064Y-46811033D01*
X202645062Y-46811031D01*
X202594920Y-46769551D01*
X202586279Y-46761688D01*
X202176802Y-46352211D01*
X202163906Y-46336113D01*
X202112775Y-46288098D01*
X202109978Y-46285387D01*
X202093227Y-46268636D01*
X202090471Y-46265880D01*
X202087290Y-46263412D01*
X202078422Y-46255837D01*
X202046582Y-46225938D01*
X202029024Y-46216285D01*
X202012764Y-46205604D01*
X201996936Y-46193327D01*
X201956851Y-46175980D01*
X201946361Y-46170841D01*
X201908091Y-46149802D01*
X201888691Y-46144821D01*
X201870284Y-46138519D01*
X201851897Y-46130562D01*
X201808758Y-46123729D01*
X201797324Y-46121361D01*
X201755019Y-46110500D01*
X201734984Y-46110500D01*
X201715586Y-46108973D01*
X201708162Y-46107797D01*
X201695805Y-46105840D01*
X201695804Y-46105840D01*
X201662751Y-46108964D01*
X201652325Y-46109950D01*
X201640656Y-46110500D01*
X198244000Y-46110500D01*
X198176961Y-46090815D01*
X198131206Y-46038011D01*
X198120000Y-45986500D01*
X198120000Y-45751500D01*
X198139685Y-45684461D01*
X198192489Y-45638706D01*
X198244000Y-45627500D01*
X203977759Y-45627500D01*
X204044798Y-45647185D01*
X204090553Y-45699989D01*
X204095058Y-45731323D01*
X204108628Y-45750000D01*
X204132706Y-45750000D01*
X204199745Y-45769685D01*
X204207017Y-45774733D01*
X204217454Y-45782546D01*
X204332669Y-45868796D01*
X204467517Y-45919091D01*
X204527127Y-45925500D01*
X204554561Y-45925499D01*
X204621599Y-45945181D01*
X204667355Y-45997983D01*
X204677302Y-46067142D01*
X204648279Y-46130698D01*
X204604999Y-46162778D01*
X204534701Y-46194077D01*
X204490326Y-46226318D01*
X204424520Y-46249798D01*
X204417441Y-46250000D01*
X204108628Y-46250000D01*
X204150315Y-46378304D01*
X204184492Y-46437499D01*
X204200965Y-46505399D01*
X204184492Y-46561498D01*
X204149855Y-46621490D01*
X204101749Y-46769551D01*
X204089738Y-46806518D01*
X204069402Y-47000000D01*
X204089738Y-47193482D01*
X204089739Y-47193485D01*
X204149855Y-47378507D01*
X204247129Y-47546992D01*
X204377308Y-47691570D01*
X204534699Y-47805921D01*
X204712431Y-47885052D01*
X204902724Y-47925500D01*
X204902726Y-47925500D01*
X205097276Y-47925500D01*
X205287568Y-47885052D01*
X205287569Y-47885051D01*
X205287571Y-47885051D01*
X205465299Y-47805922D01*
X205622692Y-47691569D01*
X205752870Y-47546992D01*
X205850144Y-47378508D01*
X205910262Y-47193482D01*
X205930598Y-47000000D01*
X205910262Y-46806518D01*
X205850144Y-46621492D01*
X205815506Y-46561497D01*
X205799034Y-46493599D01*
X205815508Y-46437498D01*
X205849683Y-46378305D01*
X205891372Y-46250000D01*
X205582559Y-46250000D01*
X205515520Y-46230315D01*
X205509674Y-46226318D01*
X205465300Y-46194078D01*
X205424650Y-46175980D01*
X205394998Y-46162778D01*
X205341762Y-46117529D01*
X205321440Y-46050680D01*
X205340485Y-45983456D01*
X205392851Y-45937200D01*
X205445433Y-45925499D01*
X205472872Y-45925499D01*
X205532483Y-45919091D01*
X205667331Y-45868796D01*
X205782546Y-45782546D01*
X205782546Y-45782545D01*
X205792983Y-45774733D01*
X205858448Y-45750316D01*
X205867294Y-45750000D01*
X205891372Y-45750000D01*
X205891371Y-45749999D01*
X205879870Y-45714601D01*
X205877875Y-45644760D01*
X205881615Y-45632960D01*
X205919091Y-45532483D01*
X205925500Y-45472873D01*
X205925499Y-44527128D01*
X205919091Y-44467517D01*
X205868796Y-44332669D01*
X205782546Y-44217454D01*
X205667331Y-44131204D01*
X205532483Y-44080909D01*
X205472873Y-44074500D01*
X205469550Y-44074500D01*
X204530439Y-44074500D01*
X204530420Y-44074500D01*
X204527128Y-44074501D01*
X204523848Y-44074853D01*
X204523840Y-44074854D01*
X204467515Y-44080909D01*
X204332669Y-44131204D01*
X204217453Y-44217454D01*
X204138584Y-44322811D01*
X204082650Y-44364682D01*
X204039317Y-44372500D01*
X198244000Y-44372500D01*
X198176961Y-44352815D01*
X198131206Y-44300011D01*
X198120000Y-44248500D01*
X198120000Y-40000000D01*
X202294564Y-40000000D01*
X202294790Y-40003736D01*
X202314063Y-40322362D01*
X202314064Y-40322372D01*
X202314290Y-40326104D01*
X202314963Y-40329778D01*
X202314965Y-40329792D01*
X202372502Y-40643762D01*
X202372504Y-40643771D01*
X202373179Y-40647453D01*
X202470373Y-40959361D01*
X202604455Y-41257279D01*
X202606388Y-41260477D01*
X202606392Y-41260484D01*
X202771532Y-41533658D01*
X202771536Y-41533663D01*
X202773470Y-41536863D01*
X202974952Y-41794036D01*
X203205964Y-42025048D01*
X203463137Y-42226530D01*
X203742721Y-42395545D01*
X204040639Y-42529627D01*
X204352547Y-42626821D01*
X204673896Y-42685710D01*
X205000000Y-42705436D01*
X205326104Y-42685710D01*
X205647453Y-42626821D01*
X205959361Y-42529627D01*
X206257279Y-42395545D01*
X206536863Y-42226530D01*
X206794036Y-42025048D01*
X207025048Y-41794036D01*
X207226530Y-41536863D01*
X207395545Y-41257279D01*
X207529627Y-40959361D01*
X207626821Y-40647453D01*
X207685710Y-40326104D01*
X207705436Y-40000000D01*
X207685710Y-39673896D01*
X207626821Y-39352547D01*
X207529627Y-39040639D01*
X207395545Y-38742721D01*
X207226530Y-38463137D01*
X207025048Y-38205964D01*
X206794036Y-37974952D01*
X206536863Y-37773470D01*
X206533663Y-37771536D01*
X206533658Y-37771532D01*
X206260484Y-37606392D01*
X206260477Y-37606388D01*
X206257279Y-37604455D01*
X205959361Y-37470373D01*
X205955783Y-37469258D01*
X205651038Y-37374296D01*
X205651036Y-37374295D01*
X205647453Y-37373179D01*
X205643771Y-37372504D01*
X205643762Y-37372502D01*
X205329792Y-37314965D01*
X205329778Y-37314963D01*
X205326104Y-37314290D01*
X205322372Y-37314064D01*
X205322362Y-37314063D01*
X205003736Y-37294790D01*
X205000000Y-37294564D01*
X204996264Y-37294790D01*
X204677637Y-37314063D01*
X204677625Y-37314064D01*
X204673896Y-37314290D01*
X204670223Y-37314962D01*
X204670207Y-37314965D01*
X204356237Y-37372502D01*
X204356224Y-37372505D01*
X204352547Y-37373179D01*
X204348967Y-37374294D01*
X204348961Y-37374296D01*
X204044216Y-37469258D01*
X204044210Y-37469260D01*
X204040639Y-37470373D01*
X204037230Y-37471907D01*
X204037228Y-37471908D01*
X203746135Y-37602918D01*
X203746128Y-37602921D01*
X203742721Y-37604455D01*
X203739528Y-37606384D01*
X203739515Y-37606392D01*
X203466341Y-37771532D01*
X203466328Y-37771540D01*
X203463137Y-37773470D01*
X203460195Y-37775774D01*
X203460189Y-37775779D01*
X203208915Y-37972640D01*
X203205964Y-37974952D01*
X203203318Y-37977597D01*
X203203310Y-37977605D01*
X202977605Y-38203310D01*
X202977597Y-38203318D01*
X202974952Y-38205964D01*
X202972640Y-38208914D01*
X202972640Y-38208915D01*
X202775779Y-38460189D01*
X202775774Y-38460195D01*
X202773470Y-38463137D01*
X202771540Y-38466328D01*
X202771532Y-38466341D01*
X202606392Y-38739515D01*
X202606384Y-38739528D01*
X202604455Y-38742721D01*
X202470373Y-39040639D01*
X202373179Y-39352547D01*
X202372505Y-39356224D01*
X202372502Y-39356237D01*
X202314965Y-39670207D01*
X202314962Y-39670223D01*
X202314290Y-39673896D01*
X202314064Y-39677625D01*
X202314063Y-39677637D01*
X202294790Y-39996263D01*
X202294564Y-40000000D01*
X198120000Y-40000000D01*
X198120000Y-35176000D01*
X198139685Y-35108961D01*
X198192489Y-35063206D01*
X198244000Y-35052000D01*
X207520465Y-35052000D01*
X207541234Y-35053751D01*
G37*
%TD.AperFunction*%
%TD*%
M02*
