%TF.GenerationSoftware,KiCad,Pcbnew,7.0.2-0*%
%TF.CreationDate,2023-10-10T16:02:43-04:00*%
%TF.ProjectId,WiringHarness,57697269-6e67-4486-9172-6e6573732e6b,rev?*%
%TF.SameCoordinates,Original*%
%TF.FileFunction,Legend,Top*%
%TF.FilePolarity,Positive*%
%FSLAX46Y46*%
G04 Gerber Fmt 4.6, Leading zero omitted, Abs format (unit mm)*
G04 Created by KiCad (PCBNEW 7.0.2-0) date 2023-10-10 16:02:43*
%MOMM*%
%LPD*%
G01*
G04 APERTURE LIST*
%ADD10C,0.150000*%
%ADD11C,0.127000*%
%ADD12C,0.090000*%
%ADD13C,0.120000*%
G04 APERTURE END LIST*
D10*
X187705904Y-43629238D02*
X187610666Y-43581619D01*
X187610666Y-43581619D02*
X187467809Y-43581619D01*
X187467809Y-43581619D02*
X187324952Y-43629238D01*
X187324952Y-43629238D02*
X187229714Y-43724476D01*
X187229714Y-43724476D02*
X187182095Y-43819714D01*
X187182095Y-43819714D02*
X187134476Y-44010190D01*
X187134476Y-44010190D02*
X187134476Y-44153047D01*
X187134476Y-44153047D02*
X187182095Y-44343523D01*
X187182095Y-44343523D02*
X187229714Y-44438761D01*
X187229714Y-44438761D02*
X187324952Y-44534000D01*
X187324952Y-44534000D02*
X187467809Y-44581619D01*
X187467809Y-44581619D02*
X187563047Y-44581619D01*
X187563047Y-44581619D02*
X187705904Y-44534000D01*
X187705904Y-44534000D02*
X187753523Y-44486380D01*
X187753523Y-44486380D02*
X187753523Y-44153047D01*
X187753523Y-44153047D02*
X187563047Y-44153047D01*
X183991238Y-43581619D02*
X184324571Y-44581619D01*
X184324571Y-44581619D02*
X184657904Y-43581619D01*
X184991238Y-44200666D02*
X185753143Y-44200666D01*
X185372190Y-44581619D02*
X185372190Y-43819714D01*
X179752571Y-44105428D02*
X179752571Y-44581619D01*
X179419238Y-43581619D02*
X179752571Y-44105428D01*
X179752571Y-44105428D02*
X180085904Y-43581619D01*
X182006857Y-43581619D02*
X182673523Y-44581619D01*
X182673523Y-43581619D02*
X182006857Y-44581619D01*
X202326857Y-47645619D02*
X202993523Y-48645619D01*
X202993523Y-47645619D02*
X202326857Y-48645619D01*
X202612571Y-54773428D02*
X202612571Y-55249619D01*
X202279238Y-54249619D02*
X202612571Y-54773428D01*
X202612571Y-54773428D02*
X202945904Y-54249619D01*
D11*
X187096761Y-55859660D02*
X187435428Y-56875660D01*
X187435428Y-56875660D02*
X187774095Y-55859660D01*
X188064380Y-56827280D02*
X188161142Y-56875660D01*
X188161142Y-56875660D02*
X188354666Y-56875660D01*
X188354666Y-56875660D02*
X188451428Y-56827280D01*
X188451428Y-56827280D02*
X188499809Y-56730518D01*
X188499809Y-56730518D02*
X188499809Y-56682137D01*
X188499809Y-56682137D02*
X188451428Y-56585375D01*
X188451428Y-56585375D02*
X188354666Y-56536994D01*
X188354666Y-56536994D02*
X188209523Y-56536994D01*
X188209523Y-56536994D02*
X188112761Y-56488613D01*
X188112761Y-56488613D02*
X188064380Y-56391851D01*
X188064380Y-56391851D02*
X188064380Y-56343470D01*
X188064380Y-56343470D02*
X188112761Y-56246708D01*
X188112761Y-56246708D02*
X188209523Y-56198327D01*
X188209523Y-56198327D02*
X188354666Y-56198327D01*
X188354666Y-56198327D02*
X188451428Y-56246708D01*
X188838475Y-56198327D02*
X189080380Y-56875660D01*
X189322285Y-56198327D02*
X189080380Y-56875660D01*
X189080380Y-56875660D02*
X188983618Y-57117565D01*
X188983618Y-57117565D02*
X188935237Y-57165946D01*
X188935237Y-57165946D02*
X188838475Y-57214327D01*
X189660951Y-56827280D02*
X189757713Y-56875660D01*
X189757713Y-56875660D02*
X189951237Y-56875660D01*
X189951237Y-56875660D02*
X190047999Y-56827280D01*
X190047999Y-56827280D02*
X190096380Y-56730518D01*
X190096380Y-56730518D02*
X190096380Y-56682137D01*
X190096380Y-56682137D02*
X190047999Y-56585375D01*
X190047999Y-56585375D02*
X189951237Y-56536994D01*
X189951237Y-56536994D02*
X189806094Y-56536994D01*
X189806094Y-56536994D02*
X189709332Y-56488613D01*
X189709332Y-56488613D02*
X189660951Y-56391851D01*
X189660951Y-56391851D02*
X189660951Y-56343470D01*
X189660951Y-56343470D02*
X189709332Y-56246708D01*
X189709332Y-56246708D02*
X189806094Y-56198327D01*
X189806094Y-56198327D02*
X189951237Y-56198327D01*
X189951237Y-56198327D02*
X190047999Y-56246708D01*
D12*
X159214285Y-43889857D02*
X159214285Y-42989857D01*
X159642856Y-43289857D02*
X159642856Y-43889857D01*
X159642856Y-43375571D02*
X159685713Y-43332714D01*
X159685713Y-43332714D02*
X159771428Y-43289857D01*
X159771428Y-43289857D02*
X159899999Y-43289857D01*
X159899999Y-43289857D02*
X159985713Y-43332714D01*
X159985713Y-43332714D02*
X160028571Y-43418428D01*
X160028571Y-43418428D02*
X160028571Y-43889857D01*
X160457142Y-43289857D02*
X160457142Y-44189857D01*
X160457142Y-43332714D02*
X160542857Y-43289857D01*
X160542857Y-43289857D02*
X160714285Y-43289857D01*
X160714285Y-43289857D02*
X160799999Y-43332714D01*
X160799999Y-43332714D02*
X160842857Y-43375571D01*
X160842857Y-43375571D02*
X160885714Y-43461285D01*
X160885714Y-43461285D02*
X160885714Y-43718428D01*
X160885714Y-43718428D02*
X160842857Y-43804142D01*
X160842857Y-43804142D02*
X160799999Y-43847000D01*
X160799999Y-43847000D02*
X160714285Y-43889857D01*
X160714285Y-43889857D02*
X160542857Y-43889857D01*
X160542857Y-43889857D02*
X160457142Y-43847000D01*
X161657143Y-43289857D02*
X161657143Y-43889857D01*
X161271428Y-43289857D02*
X161271428Y-43761285D01*
X161271428Y-43761285D02*
X161314285Y-43847000D01*
X161314285Y-43847000D02*
X161400000Y-43889857D01*
X161400000Y-43889857D02*
X161528571Y-43889857D01*
X161528571Y-43889857D02*
X161614285Y-43847000D01*
X161614285Y-43847000D02*
X161657143Y-43804142D01*
X161957143Y-43289857D02*
X162300000Y-43289857D01*
X162085714Y-42989857D02*
X162085714Y-43761285D01*
X162085714Y-43761285D02*
X162128571Y-43847000D01*
X162128571Y-43847000D02*
X162214286Y-43889857D01*
X162214286Y-43889857D02*
X162300000Y-43889857D01*
X163671429Y-42989857D02*
X163500000Y-42989857D01*
X163500000Y-42989857D02*
X163414286Y-43032714D01*
X163414286Y-43032714D02*
X163371429Y-43075571D01*
X163371429Y-43075571D02*
X163285714Y-43204142D01*
X163285714Y-43204142D02*
X163242857Y-43375571D01*
X163242857Y-43375571D02*
X163242857Y-43718428D01*
X163242857Y-43718428D02*
X163285714Y-43804142D01*
X163285714Y-43804142D02*
X163328571Y-43847000D01*
X163328571Y-43847000D02*
X163414286Y-43889857D01*
X163414286Y-43889857D02*
X163585714Y-43889857D01*
X163585714Y-43889857D02*
X163671429Y-43847000D01*
X163671429Y-43847000D02*
X163714286Y-43804142D01*
X163714286Y-43804142D02*
X163757143Y-43718428D01*
X163757143Y-43718428D02*
X163757143Y-43504142D01*
X163757143Y-43504142D02*
X163714286Y-43418428D01*
X163714286Y-43418428D02*
X163671429Y-43375571D01*
X163671429Y-43375571D02*
X163585714Y-43332714D01*
X163585714Y-43332714D02*
X163414286Y-43332714D01*
X163414286Y-43332714D02*
X163328571Y-43375571D01*
X163328571Y-43375571D02*
X163285714Y-43418428D01*
X163285714Y-43418428D02*
X163242857Y-43504142D01*
X164828571Y-43547000D02*
X165514286Y-43547000D01*
X167100000Y-43889857D02*
X166585714Y-43889857D01*
X166842857Y-43889857D02*
X166842857Y-42989857D01*
X166842857Y-42989857D02*
X166757143Y-43118428D01*
X166757143Y-43118428D02*
X166671428Y-43204142D01*
X166671428Y-43204142D02*
X166585714Y-43247000D01*
X167442857Y-43075571D02*
X167485714Y-43032714D01*
X167485714Y-43032714D02*
X167571429Y-42989857D01*
X167571429Y-42989857D02*
X167785714Y-42989857D01*
X167785714Y-42989857D02*
X167871429Y-43032714D01*
X167871429Y-43032714D02*
X167914286Y-43075571D01*
X167914286Y-43075571D02*
X167957143Y-43161285D01*
X167957143Y-43161285D02*
X167957143Y-43247000D01*
X167957143Y-43247000D02*
X167914286Y-43375571D01*
X167914286Y-43375571D02*
X167400000Y-43889857D01*
X167400000Y-43889857D02*
X167957143Y-43889857D01*
X168214286Y-42989857D02*
X168514286Y-43889857D01*
X168514286Y-43889857D02*
X168814286Y-42989857D01*
D10*
X164238095Y-59113809D02*
X164571428Y-59113809D01*
X164714285Y-59637619D02*
X164238095Y-59637619D01*
X164238095Y-59637619D02*
X164238095Y-58637619D01*
X164238095Y-58637619D02*
X164714285Y-58637619D01*
X165142857Y-59637619D02*
X165142857Y-58637619D01*
X165142857Y-58637619D02*
X165714285Y-59637619D01*
X165714285Y-59637619D02*
X165714285Y-58637619D01*
X166714285Y-58685238D02*
X166619047Y-58637619D01*
X166619047Y-58637619D02*
X166476190Y-58637619D01*
X166476190Y-58637619D02*
X166333333Y-58685238D01*
X166333333Y-58685238D02*
X166238095Y-58780476D01*
X166238095Y-58780476D02*
X166190476Y-58875714D01*
X166190476Y-58875714D02*
X166142857Y-59066190D01*
X166142857Y-59066190D02*
X166142857Y-59209047D01*
X166142857Y-59209047D02*
X166190476Y-59399523D01*
X166190476Y-59399523D02*
X166238095Y-59494761D01*
X166238095Y-59494761D02*
X166333333Y-59590000D01*
X166333333Y-59590000D02*
X166476190Y-59637619D01*
X166476190Y-59637619D02*
X166571428Y-59637619D01*
X166571428Y-59637619D02*
X166714285Y-59590000D01*
X166714285Y-59590000D02*
X166761904Y-59542380D01*
X166761904Y-59542380D02*
X166761904Y-59209047D01*
X166761904Y-59209047D02*
X166571428Y-59209047D01*
X167142857Y-59590000D02*
X167285714Y-59637619D01*
X167285714Y-59637619D02*
X167523809Y-59637619D01*
X167523809Y-59637619D02*
X167619047Y-59590000D01*
X167619047Y-59590000D02*
X167666666Y-59542380D01*
X167666666Y-59542380D02*
X167714285Y-59447142D01*
X167714285Y-59447142D02*
X167714285Y-59351904D01*
X167714285Y-59351904D02*
X167666666Y-59256666D01*
X167666666Y-59256666D02*
X167619047Y-59209047D01*
X167619047Y-59209047D02*
X167523809Y-59161428D01*
X167523809Y-59161428D02*
X167333333Y-59113809D01*
X167333333Y-59113809D02*
X167238095Y-59066190D01*
X167238095Y-59066190D02*
X167190476Y-59018571D01*
X167190476Y-59018571D02*
X167142857Y-58923333D01*
X167142857Y-58923333D02*
X167142857Y-58828095D01*
X167142857Y-58828095D02*
X167190476Y-58732857D01*
X167190476Y-58732857D02*
X167238095Y-58685238D01*
X167238095Y-58685238D02*
X167333333Y-58637619D01*
X167333333Y-58637619D02*
X167571428Y-58637619D01*
X167571428Y-58637619D02*
X167714285Y-58685238D01*
X168095238Y-58732857D02*
X168142857Y-58685238D01*
X168142857Y-58685238D02*
X168238095Y-58637619D01*
X168238095Y-58637619D02*
X168476190Y-58637619D01*
X168476190Y-58637619D02*
X168571428Y-58685238D01*
X168571428Y-58685238D02*
X168619047Y-58732857D01*
X168619047Y-58732857D02*
X168666666Y-58828095D01*
X168666666Y-58828095D02*
X168666666Y-58923333D01*
X168666666Y-58923333D02*
X168619047Y-59066190D01*
X168619047Y-59066190D02*
X168047619Y-59637619D01*
X168047619Y-59637619D02*
X168666666Y-59637619D01*
X169238095Y-59066190D02*
X169142857Y-59018571D01*
X169142857Y-59018571D02*
X169095238Y-58970952D01*
X169095238Y-58970952D02*
X169047619Y-58875714D01*
X169047619Y-58875714D02*
X169047619Y-58828095D01*
X169047619Y-58828095D02*
X169095238Y-58732857D01*
X169095238Y-58732857D02*
X169142857Y-58685238D01*
X169142857Y-58685238D02*
X169238095Y-58637619D01*
X169238095Y-58637619D02*
X169428571Y-58637619D01*
X169428571Y-58637619D02*
X169523809Y-58685238D01*
X169523809Y-58685238D02*
X169571428Y-58732857D01*
X169571428Y-58732857D02*
X169619047Y-58828095D01*
X169619047Y-58828095D02*
X169619047Y-58875714D01*
X169619047Y-58875714D02*
X169571428Y-58970952D01*
X169571428Y-58970952D02*
X169523809Y-59018571D01*
X169523809Y-59018571D02*
X169428571Y-59066190D01*
X169428571Y-59066190D02*
X169238095Y-59066190D01*
X169238095Y-59066190D02*
X169142857Y-59113809D01*
X169142857Y-59113809D02*
X169095238Y-59161428D01*
X169095238Y-59161428D02*
X169047619Y-59256666D01*
X169047619Y-59256666D02*
X169047619Y-59447142D01*
X169047619Y-59447142D02*
X169095238Y-59542380D01*
X169095238Y-59542380D02*
X169142857Y-59590000D01*
X169142857Y-59590000D02*
X169238095Y-59637619D01*
X169238095Y-59637619D02*
X169428571Y-59637619D01*
X169428571Y-59637619D02*
X169523809Y-59590000D01*
X169523809Y-59590000D02*
X169571428Y-59542380D01*
X169571428Y-59542380D02*
X169619047Y-59447142D01*
X169619047Y-59447142D02*
X169619047Y-59256666D01*
X169619047Y-59256666D02*
X169571428Y-59161428D01*
X169571428Y-59161428D02*
X169523809Y-59113809D01*
X169523809Y-59113809D02*
X169428571Y-59066190D01*
X170809524Y-59637619D02*
X170809524Y-58637619D01*
X170809524Y-58637619D02*
X171142857Y-59351904D01*
X171142857Y-59351904D02*
X171476190Y-58637619D01*
X171476190Y-58637619D02*
X171476190Y-59637619D01*
X172380952Y-59637619D02*
X172380952Y-59113809D01*
X172380952Y-59113809D02*
X172333333Y-59018571D01*
X172333333Y-59018571D02*
X172238095Y-58970952D01*
X172238095Y-58970952D02*
X172047619Y-58970952D01*
X172047619Y-58970952D02*
X171952381Y-59018571D01*
X172380952Y-59590000D02*
X172285714Y-59637619D01*
X172285714Y-59637619D02*
X172047619Y-59637619D01*
X172047619Y-59637619D02*
X171952381Y-59590000D01*
X171952381Y-59590000D02*
X171904762Y-59494761D01*
X171904762Y-59494761D02*
X171904762Y-59399523D01*
X171904762Y-59399523D02*
X171952381Y-59304285D01*
X171952381Y-59304285D02*
X172047619Y-59256666D01*
X172047619Y-59256666D02*
X172285714Y-59256666D01*
X172285714Y-59256666D02*
X172380952Y-59209047D01*
X172761905Y-58970952D02*
X173285714Y-58970952D01*
X173285714Y-58970952D02*
X172761905Y-59637619D01*
X172761905Y-59637619D02*
X173285714Y-59637619D01*
X174047619Y-59590000D02*
X173952381Y-59637619D01*
X173952381Y-59637619D02*
X173761905Y-59637619D01*
X173761905Y-59637619D02*
X173666667Y-59590000D01*
X173666667Y-59590000D02*
X173619048Y-59494761D01*
X173619048Y-59494761D02*
X173619048Y-59113809D01*
X173619048Y-59113809D02*
X173666667Y-59018571D01*
X173666667Y-59018571D02*
X173761905Y-58970952D01*
X173761905Y-58970952D02*
X173952381Y-58970952D01*
X173952381Y-58970952D02*
X174047619Y-59018571D01*
X174047619Y-59018571D02*
X174095238Y-59113809D01*
X174095238Y-59113809D02*
X174095238Y-59209047D01*
X174095238Y-59209047D02*
X173619048Y-59304285D01*
X175857143Y-59542380D02*
X175809524Y-59590000D01*
X175809524Y-59590000D02*
X175666667Y-59637619D01*
X175666667Y-59637619D02*
X175571429Y-59637619D01*
X175571429Y-59637619D02*
X175428572Y-59590000D01*
X175428572Y-59590000D02*
X175333334Y-59494761D01*
X175333334Y-59494761D02*
X175285715Y-59399523D01*
X175285715Y-59399523D02*
X175238096Y-59209047D01*
X175238096Y-59209047D02*
X175238096Y-59066190D01*
X175238096Y-59066190D02*
X175285715Y-58875714D01*
X175285715Y-58875714D02*
X175333334Y-58780476D01*
X175333334Y-58780476D02*
X175428572Y-58685238D01*
X175428572Y-58685238D02*
X175571429Y-58637619D01*
X175571429Y-58637619D02*
X175666667Y-58637619D01*
X175666667Y-58637619D02*
X175809524Y-58685238D01*
X175809524Y-58685238D02*
X175857143Y-58732857D01*
X176428572Y-59637619D02*
X176333334Y-59590000D01*
X176333334Y-59590000D02*
X176285715Y-59542380D01*
X176285715Y-59542380D02*
X176238096Y-59447142D01*
X176238096Y-59447142D02*
X176238096Y-59161428D01*
X176238096Y-59161428D02*
X176285715Y-59066190D01*
X176285715Y-59066190D02*
X176333334Y-59018571D01*
X176333334Y-59018571D02*
X176428572Y-58970952D01*
X176428572Y-58970952D02*
X176571429Y-58970952D01*
X176571429Y-58970952D02*
X176666667Y-59018571D01*
X176666667Y-59018571D02*
X176714286Y-59066190D01*
X176714286Y-59066190D02*
X176761905Y-59161428D01*
X176761905Y-59161428D02*
X176761905Y-59447142D01*
X176761905Y-59447142D02*
X176714286Y-59542380D01*
X176714286Y-59542380D02*
X176666667Y-59590000D01*
X176666667Y-59590000D02*
X176571429Y-59637619D01*
X176571429Y-59637619D02*
X176428572Y-59637619D01*
X177190477Y-58970952D02*
X177190477Y-59637619D01*
X177190477Y-59066190D02*
X177238096Y-59018571D01*
X177238096Y-59018571D02*
X177333334Y-58970952D01*
X177333334Y-58970952D02*
X177476191Y-58970952D01*
X177476191Y-58970952D02*
X177571429Y-59018571D01*
X177571429Y-59018571D02*
X177619048Y-59113809D01*
X177619048Y-59113809D02*
X177619048Y-59637619D01*
X177952382Y-58970952D02*
X178333334Y-58970952D01*
X178095239Y-58637619D02*
X178095239Y-59494761D01*
X178095239Y-59494761D02*
X178142858Y-59590000D01*
X178142858Y-59590000D02*
X178238096Y-59637619D01*
X178238096Y-59637619D02*
X178333334Y-59637619D01*
X178666668Y-59637619D02*
X178666668Y-58970952D01*
X178666668Y-59161428D02*
X178714287Y-59066190D01*
X178714287Y-59066190D02*
X178761906Y-59018571D01*
X178761906Y-59018571D02*
X178857144Y-58970952D01*
X178857144Y-58970952D02*
X178952382Y-58970952D01*
X179428573Y-59637619D02*
X179333335Y-59590000D01*
X179333335Y-59590000D02*
X179285716Y-59542380D01*
X179285716Y-59542380D02*
X179238097Y-59447142D01*
X179238097Y-59447142D02*
X179238097Y-59161428D01*
X179238097Y-59161428D02*
X179285716Y-59066190D01*
X179285716Y-59066190D02*
X179333335Y-59018571D01*
X179333335Y-59018571D02*
X179428573Y-58970952D01*
X179428573Y-58970952D02*
X179571430Y-58970952D01*
X179571430Y-58970952D02*
X179666668Y-59018571D01*
X179666668Y-59018571D02*
X179714287Y-59066190D01*
X179714287Y-59066190D02*
X179761906Y-59161428D01*
X179761906Y-59161428D02*
X179761906Y-59447142D01*
X179761906Y-59447142D02*
X179714287Y-59542380D01*
X179714287Y-59542380D02*
X179666668Y-59590000D01*
X179666668Y-59590000D02*
X179571430Y-59637619D01*
X179571430Y-59637619D02*
X179428573Y-59637619D01*
X180333335Y-59637619D02*
X180238097Y-59590000D01*
X180238097Y-59590000D02*
X180190478Y-59494761D01*
X180190478Y-59494761D02*
X180190478Y-58637619D01*
X180857145Y-59637619D02*
X180761907Y-59590000D01*
X180761907Y-59590000D02*
X180714288Y-59494761D01*
X180714288Y-59494761D02*
X180714288Y-58637619D01*
X181619050Y-59590000D02*
X181523812Y-59637619D01*
X181523812Y-59637619D02*
X181333336Y-59637619D01*
X181333336Y-59637619D02*
X181238098Y-59590000D01*
X181238098Y-59590000D02*
X181190479Y-59494761D01*
X181190479Y-59494761D02*
X181190479Y-59113809D01*
X181190479Y-59113809D02*
X181238098Y-59018571D01*
X181238098Y-59018571D02*
X181333336Y-58970952D01*
X181333336Y-58970952D02*
X181523812Y-58970952D01*
X181523812Y-58970952D02*
X181619050Y-59018571D01*
X181619050Y-59018571D02*
X181666669Y-59113809D01*
X181666669Y-59113809D02*
X181666669Y-59209047D01*
X181666669Y-59209047D02*
X181190479Y-59304285D01*
X182095241Y-59637619D02*
X182095241Y-58970952D01*
X182095241Y-59161428D02*
X182142860Y-59066190D01*
X182142860Y-59066190D02*
X182190479Y-59018571D01*
X182190479Y-59018571D02*
X182285717Y-58970952D01*
X182285717Y-58970952D02*
X182380955Y-58970952D01*
X183380956Y-58970952D02*
X183571432Y-59637619D01*
X183571432Y-59637619D02*
X183761908Y-59161428D01*
X183761908Y-59161428D02*
X183952384Y-59637619D01*
X183952384Y-59637619D02*
X184142860Y-58970952D01*
X184523813Y-59637619D02*
X184523813Y-58970952D01*
X184523813Y-58637619D02*
X184476194Y-58685238D01*
X184476194Y-58685238D02*
X184523813Y-58732857D01*
X184523813Y-58732857D02*
X184571432Y-58685238D01*
X184571432Y-58685238D02*
X184523813Y-58637619D01*
X184523813Y-58637619D02*
X184523813Y-58732857D01*
X185000003Y-59637619D02*
X185000003Y-58970952D01*
X185000003Y-59161428D02*
X185047622Y-59066190D01*
X185047622Y-59066190D02*
X185095241Y-59018571D01*
X185095241Y-59018571D02*
X185190479Y-58970952D01*
X185190479Y-58970952D02*
X185285717Y-58970952D01*
X185619051Y-59637619D02*
X185619051Y-58970952D01*
X185619051Y-58637619D02*
X185571432Y-58685238D01*
X185571432Y-58685238D02*
X185619051Y-58732857D01*
X185619051Y-58732857D02*
X185666670Y-58685238D01*
X185666670Y-58685238D02*
X185619051Y-58637619D01*
X185619051Y-58637619D02*
X185619051Y-58732857D01*
X186095241Y-58970952D02*
X186095241Y-59637619D01*
X186095241Y-59066190D02*
X186142860Y-59018571D01*
X186142860Y-59018571D02*
X186238098Y-58970952D01*
X186238098Y-58970952D02*
X186380955Y-58970952D01*
X186380955Y-58970952D02*
X186476193Y-59018571D01*
X186476193Y-59018571D02*
X186523812Y-59113809D01*
X186523812Y-59113809D02*
X186523812Y-59637619D01*
X187428574Y-58970952D02*
X187428574Y-59780476D01*
X187428574Y-59780476D02*
X187380955Y-59875714D01*
X187380955Y-59875714D02*
X187333336Y-59923333D01*
X187333336Y-59923333D02*
X187238098Y-59970952D01*
X187238098Y-59970952D02*
X187095241Y-59970952D01*
X187095241Y-59970952D02*
X187000003Y-59923333D01*
X187428574Y-59590000D02*
X187333336Y-59637619D01*
X187333336Y-59637619D02*
X187142860Y-59637619D01*
X187142860Y-59637619D02*
X187047622Y-59590000D01*
X187047622Y-59590000D02*
X187000003Y-59542380D01*
X187000003Y-59542380D02*
X186952384Y-59447142D01*
X186952384Y-59447142D02*
X186952384Y-59161428D01*
X186952384Y-59161428D02*
X187000003Y-59066190D01*
X187000003Y-59066190D02*
X187047622Y-59018571D01*
X187047622Y-59018571D02*
X187142860Y-58970952D01*
X187142860Y-58970952D02*
X187333336Y-58970952D01*
X187333336Y-58970952D02*
X187428574Y-59018571D01*
X188666670Y-59637619D02*
X188666670Y-58637619D01*
X189095241Y-59637619D02*
X189095241Y-59113809D01*
X189095241Y-59113809D02*
X189047622Y-59018571D01*
X189047622Y-59018571D02*
X188952384Y-58970952D01*
X188952384Y-58970952D02*
X188809527Y-58970952D01*
X188809527Y-58970952D02*
X188714289Y-59018571D01*
X188714289Y-59018571D02*
X188666670Y-59066190D01*
X190000003Y-59637619D02*
X190000003Y-59113809D01*
X190000003Y-59113809D02*
X189952384Y-59018571D01*
X189952384Y-59018571D02*
X189857146Y-58970952D01*
X189857146Y-58970952D02*
X189666670Y-58970952D01*
X189666670Y-58970952D02*
X189571432Y-59018571D01*
X190000003Y-59590000D02*
X189904765Y-59637619D01*
X189904765Y-59637619D02*
X189666670Y-59637619D01*
X189666670Y-59637619D02*
X189571432Y-59590000D01*
X189571432Y-59590000D02*
X189523813Y-59494761D01*
X189523813Y-59494761D02*
X189523813Y-59399523D01*
X189523813Y-59399523D02*
X189571432Y-59304285D01*
X189571432Y-59304285D02*
X189666670Y-59256666D01*
X189666670Y-59256666D02*
X189904765Y-59256666D01*
X189904765Y-59256666D02*
X190000003Y-59209047D01*
X190476194Y-59637619D02*
X190476194Y-58970952D01*
X190476194Y-59161428D02*
X190523813Y-59066190D01*
X190523813Y-59066190D02*
X190571432Y-59018571D01*
X190571432Y-59018571D02*
X190666670Y-58970952D01*
X190666670Y-58970952D02*
X190761908Y-58970952D01*
X191095242Y-58970952D02*
X191095242Y-59637619D01*
X191095242Y-59066190D02*
X191142861Y-59018571D01*
X191142861Y-59018571D02*
X191238099Y-58970952D01*
X191238099Y-58970952D02*
X191380956Y-58970952D01*
X191380956Y-58970952D02*
X191476194Y-59018571D01*
X191476194Y-59018571D02*
X191523813Y-59113809D01*
X191523813Y-59113809D02*
X191523813Y-59637619D01*
X192380956Y-59590000D02*
X192285718Y-59637619D01*
X192285718Y-59637619D02*
X192095242Y-59637619D01*
X192095242Y-59637619D02*
X192000004Y-59590000D01*
X192000004Y-59590000D02*
X191952385Y-59494761D01*
X191952385Y-59494761D02*
X191952385Y-59113809D01*
X191952385Y-59113809D02*
X192000004Y-59018571D01*
X192000004Y-59018571D02*
X192095242Y-58970952D01*
X192095242Y-58970952D02*
X192285718Y-58970952D01*
X192285718Y-58970952D02*
X192380956Y-59018571D01*
X192380956Y-59018571D02*
X192428575Y-59113809D01*
X192428575Y-59113809D02*
X192428575Y-59209047D01*
X192428575Y-59209047D02*
X191952385Y-59304285D01*
X192809528Y-59590000D02*
X192904766Y-59637619D01*
X192904766Y-59637619D02*
X193095242Y-59637619D01*
X193095242Y-59637619D02*
X193190480Y-59590000D01*
X193190480Y-59590000D02*
X193238099Y-59494761D01*
X193238099Y-59494761D02*
X193238099Y-59447142D01*
X193238099Y-59447142D02*
X193190480Y-59351904D01*
X193190480Y-59351904D02*
X193095242Y-59304285D01*
X193095242Y-59304285D02*
X192952385Y-59304285D01*
X192952385Y-59304285D02*
X192857147Y-59256666D01*
X192857147Y-59256666D02*
X192809528Y-59161428D01*
X192809528Y-59161428D02*
X192809528Y-59113809D01*
X192809528Y-59113809D02*
X192857147Y-59018571D01*
X192857147Y-59018571D02*
X192952385Y-58970952D01*
X192952385Y-58970952D02*
X193095242Y-58970952D01*
X193095242Y-58970952D02*
X193190480Y-59018571D01*
X193619052Y-59590000D02*
X193714290Y-59637619D01*
X193714290Y-59637619D02*
X193904766Y-59637619D01*
X193904766Y-59637619D02*
X194000004Y-59590000D01*
X194000004Y-59590000D02*
X194047623Y-59494761D01*
X194047623Y-59494761D02*
X194047623Y-59447142D01*
X194047623Y-59447142D02*
X194000004Y-59351904D01*
X194000004Y-59351904D02*
X193904766Y-59304285D01*
X193904766Y-59304285D02*
X193761909Y-59304285D01*
X193761909Y-59304285D02*
X193666671Y-59256666D01*
X193666671Y-59256666D02*
X193619052Y-59161428D01*
X193619052Y-59161428D02*
X193619052Y-59113809D01*
X193619052Y-59113809D02*
X193666671Y-59018571D01*
X193666671Y-59018571D02*
X193761909Y-58970952D01*
X193761909Y-58970952D02*
X193904766Y-58970952D01*
X193904766Y-58970952D02*
X194000004Y-59018571D01*
X164095238Y-60257619D02*
X164428571Y-61257619D01*
X164428571Y-61257619D02*
X164761904Y-60257619D01*
X165285714Y-60257619D02*
X165380952Y-60257619D01*
X165380952Y-60257619D02*
X165476190Y-60305238D01*
X165476190Y-60305238D02*
X165523809Y-60352857D01*
X165523809Y-60352857D02*
X165571428Y-60448095D01*
X165571428Y-60448095D02*
X165619047Y-60638571D01*
X165619047Y-60638571D02*
X165619047Y-60876666D01*
X165619047Y-60876666D02*
X165571428Y-61067142D01*
X165571428Y-61067142D02*
X165523809Y-61162380D01*
X165523809Y-61162380D02*
X165476190Y-61210000D01*
X165476190Y-61210000D02*
X165380952Y-61257619D01*
X165380952Y-61257619D02*
X165285714Y-61257619D01*
X165285714Y-61257619D02*
X165190476Y-61210000D01*
X165190476Y-61210000D02*
X165142857Y-61162380D01*
X165142857Y-61162380D02*
X165095238Y-61067142D01*
X165095238Y-61067142D02*
X165047619Y-60876666D01*
X165047619Y-60876666D02*
X165047619Y-60638571D01*
X165047619Y-60638571D02*
X165095238Y-60448095D01*
X165095238Y-60448095D02*
X165142857Y-60352857D01*
X165142857Y-60352857D02*
X165190476Y-60305238D01*
X165190476Y-60305238D02*
X165285714Y-60257619D01*
X166047619Y-61162380D02*
X166095238Y-61210000D01*
X166095238Y-61210000D02*
X166047619Y-61257619D01*
X166047619Y-61257619D02*
X166000000Y-61210000D01*
X166000000Y-61210000D02*
X166047619Y-61162380D01*
X166047619Y-61162380D02*
X166047619Y-61257619D01*
X167047618Y-61257619D02*
X166476190Y-61257619D01*
X166761904Y-61257619D02*
X166761904Y-60257619D01*
X166761904Y-60257619D02*
X166666666Y-60400476D01*
X166666666Y-60400476D02*
X166571428Y-60495714D01*
X166571428Y-60495714D02*
X166476190Y-60543333D01*
X167380952Y-60590952D02*
X167571428Y-61257619D01*
X167571428Y-61257619D02*
X167761904Y-60781428D01*
X167761904Y-60781428D02*
X167952380Y-61257619D01*
X167952380Y-61257619D02*
X168142856Y-60590952D01*
X168523809Y-61257619D02*
X168523809Y-60257619D01*
X168952380Y-61257619D02*
X168952380Y-60733809D01*
X168952380Y-60733809D02*
X168904761Y-60638571D01*
X168904761Y-60638571D02*
X168809523Y-60590952D01*
X168809523Y-60590952D02*
X168666666Y-60590952D01*
X168666666Y-60590952D02*
X168571428Y-60638571D01*
X168571428Y-60638571D02*
X168523809Y-60686190D01*
X170190476Y-60876666D02*
X170952381Y-60876666D01*
X172047619Y-60257619D02*
X172619047Y-60257619D01*
X172333333Y-61257619D02*
X172333333Y-60257619D01*
X173380952Y-61257619D02*
X173380952Y-60733809D01*
X173380952Y-60733809D02*
X173333333Y-60638571D01*
X173333333Y-60638571D02*
X173238095Y-60590952D01*
X173238095Y-60590952D02*
X173047619Y-60590952D01*
X173047619Y-60590952D02*
X172952381Y-60638571D01*
X173380952Y-61210000D02*
X173285714Y-61257619D01*
X173285714Y-61257619D02*
X173047619Y-61257619D01*
X173047619Y-61257619D02*
X172952381Y-61210000D01*
X172952381Y-61210000D02*
X172904762Y-61114761D01*
X172904762Y-61114761D02*
X172904762Y-61019523D01*
X172904762Y-61019523D02*
X172952381Y-60924285D01*
X172952381Y-60924285D02*
X173047619Y-60876666D01*
X173047619Y-60876666D02*
X173285714Y-60876666D01*
X173285714Y-60876666D02*
X173380952Y-60829047D01*
X174285714Y-61257619D02*
X174285714Y-60257619D01*
X174285714Y-61210000D02*
X174190476Y-61257619D01*
X174190476Y-61257619D02*
X174000000Y-61257619D01*
X174000000Y-61257619D02*
X173904762Y-61210000D01*
X173904762Y-61210000D02*
X173857143Y-61162380D01*
X173857143Y-61162380D02*
X173809524Y-61067142D01*
X173809524Y-61067142D02*
X173809524Y-60781428D01*
X173809524Y-60781428D02*
X173857143Y-60686190D01*
X173857143Y-60686190D02*
X173904762Y-60638571D01*
X173904762Y-60638571D02*
X174000000Y-60590952D01*
X174000000Y-60590952D02*
X174190476Y-60590952D01*
X174190476Y-60590952D02*
X174285714Y-60638571D01*
X175380953Y-60257619D02*
X175952381Y-60257619D01*
X175666667Y-61257619D02*
X175666667Y-60257619D01*
X176285715Y-61257619D02*
X176285715Y-60590952D01*
X176285715Y-60781428D02*
X176333334Y-60686190D01*
X176333334Y-60686190D02*
X176380953Y-60638571D01*
X176380953Y-60638571D02*
X176476191Y-60590952D01*
X176476191Y-60590952D02*
X176571429Y-60590952D01*
X177333334Y-60590952D02*
X177333334Y-61257619D01*
X176904763Y-60590952D02*
X176904763Y-61114761D01*
X176904763Y-61114761D02*
X176952382Y-61210000D01*
X176952382Y-61210000D02*
X177047620Y-61257619D01*
X177047620Y-61257619D02*
X177190477Y-61257619D01*
X177190477Y-61257619D02*
X177285715Y-61210000D01*
X177285715Y-61210000D02*
X177333334Y-61162380D01*
X178190477Y-61210000D02*
X178095239Y-61257619D01*
X178095239Y-61257619D02*
X177904763Y-61257619D01*
X177904763Y-61257619D02*
X177809525Y-61210000D01*
X177809525Y-61210000D02*
X177761906Y-61114761D01*
X177761906Y-61114761D02*
X177761906Y-60733809D01*
X177761906Y-60733809D02*
X177809525Y-60638571D01*
X177809525Y-60638571D02*
X177904763Y-60590952D01*
X177904763Y-60590952D02*
X178095239Y-60590952D01*
X178095239Y-60590952D02*
X178190477Y-60638571D01*
X178190477Y-60638571D02*
X178238096Y-60733809D01*
X178238096Y-60733809D02*
X178238096Y-60829047D01*
X178238096Y-60829047D02*
X177761906Y-60924285D01*
X178571430Y-61257619D02*
X179095239Y-60590952D01*
X178571430Y-60590952D02*
X179095239Y-61257619D01*
X164809523Y-62782380D02*
X164761904Y-62830000D01*
X164761904Y-62830000D02*
X164619047Y-62877619D01*
X164619047Y-62877619D02*
X164523809Y-62877619D01*
X164523809Y-62877619D02*
X164380952Y-62830000D01*
X164380952Y-62830000D02*
X164285714Y-62734761D01*
X164285714Y-62734761D02*
X164238095Y-62639523D01*
X164238095Y-62639523D02*
X164190476Y-62449047D01*
X164190476Y-62449047D02*
X164190476Y-62306190D01*
X164190476Y-62306190D02*
X164238095Y-62115714D01*
X164238095Y-62115714D02*
X164285714Y-62020476D01*
X164285714Y-62020476D02*
X164380952Y-61925238D01*
X164380952Y-61925238D02*
X164523809Y-61877619D01*
X164523809Y-61877619D02*
X164619047Y-61877619D01*
X164619047Y-61877619D02*
X164761904Y-61925238D01*
X164761904Y-61925238D02*
X164809523Y-61972857D01*
X165380952Y-62877619D02*
X165285714Y-62830000D01*
X165285714Y-62830000D02*
X165238095Y-62782380D01*
X165238095Y-62782380D02*
X165190476Y-62687142D01*
X165190476Y-62687142D02*
X165190476Y-62401428D01*
X165190476Y-62401428D02*
X165238095Y-62306190D01*
X165238095Y-62306190D02*
X165285714Y-62258571D01*
X165285714Y-62258571D02*
X165380952Y-62210952D01*
X165380952Y-62210952D02*
X165523809Y-62210952D01*
X165523809Y-62210952D02*
X165619047Y-62258571D01*
X165619047Y-62258571D02*
X165666666Y-62306190D01*
X165666666Y-62306190D02*
X165714285Y-62401428D01*
X165714285Y-62401428D02*
X165714285Y-62687142D01*
X165714285Y-62687142D02*
X165666666Y-62782380D01*
X165666666Y-62782380D02*
X165619047Y-62830000D01*
X165619047Y-62830000D02*
X165523809Y-62877619D01*
X165523809Y-62877619D02*
X165380952Y-62877619D01*
X166142857Y-62210952D02*
X166142857Y-63210952D01*
X166142857Y-62258571D02*
X166238095Y-62210952D01*
X166238095Y-62210952D02*
X166428571Y-62210952D01*
X166428571Y-62210952D02*
X166523809Y-62258571D01*
X166523809Y-62258571D02*
X166571428Y-62306190D01*
X166571428Y-62306190D02*
X166619047Y-62401428D01*
X166619047Y-62401428D02*
X166619047Y-62687142D01*
X166619047Y-62687142D02*
X166571428Y-62782380D01*
X166571428Y-62782380D02*
X166523809Y-62830000D01*
X166523809Y-62830000D02*
X166428571Y-62877619D01*
X166428571Y-62877619D02*
X166238095Y-62877619D01*
X166238095Y-62877619D02*
X166142857Y-62830000D01*
X166952381Y-62210952D02*
X167190476Y-62877619D01*
X167428571Y-62210952D02*
X167190476Y-62877619D01*
X167190476Y-62877619D02*
X167095238Y-63115714D01*
X167095238Y-63115714D02*
X167047619Y-63163333D01*
X167047619Y-63163333D02*
X166952381Y-63210952D01*
X167809524Y-62877619D02*
X167809524Y-62210952D01*
X167809524Y-62401428D02*
X167857143Y-62306190D01*
X167857143Y-62306190D02*
X167904762Y-62258571D01*
X167904762Y-62258571D02*
X168000000Y-62210952D01*
X168000000Y-62210952D02*
X168095238Y-62210952D01*
X168428572Y-62877619D02*
X168428572Y-62210952D01*
X168428572Y-61877619D02*
X168380953Y-61925238D01*
X168380953Y-61925238D02*
X168428572Y-61972857D01*
X168428572Y-61972857D02*
X168476191Y-61925238D01*
X168476191Y-61925238D02*
X168428572Y-61877619D01*
X168428572Y-61877619D02*
X168428572Y-61972857D01*
X169333333Y-62210952D02*
X169333333Y-63020476D01*
X169333333Y-63020476D02*
X169285714Y-63115714D01*
X169285714Y-63115714D02*
X169238095Y-63163333D01*
X169238095Y-63163333D02*
X169142857Y-63210952D01*
X169142857Y-63210952D02*
X169000000Y-63210952D01*
X169000000Y-63210952D02*
X168904762Y-63163333D01*
X169333333Y-62830000D02*
X169238095Y-62877619D01*
X169238095Y-62877619D02*
X169047619Y-62877619D01*
X169047619Y-62877619D02*
X168952381Y-62830000D01*
X168952381Y-62830000D02*
X168904762Y-62782380D01*
X168904762Y-62782380D02*
X168857143Y-62687142D01*
X168857143Y-62687142D02*
X168857143Y-62401428D01*
X168857143Y-62401428D02*
X168904762Y-62306190D01*
X168904762Y-62306190D02*
X168952381Y-62258571D01*
X168952381Y-62258571D02*
X169047619Y-62210952D01*
X169047619Y-62210952D02*
X169238095Y-62210952D01*
X169238095Y-62210952D02*
X169333333Y-62258571D01*
X169809524Y-62877619D02*
X169809524Y-61877619D01*
X170238095Y-62877619D02*
X170238095Y-62353809D01*
X170238095Y-62353809D02*
X170190476Y-62258571D01*
X170190476Y-62258571D02*
X170095238Y-62210952D01*
X170095238Y-62210952D02*
X169952381Y-62210952D01*
X169952381Y-62210952D02*
X169857143Y-62258571D01*
X169857143Y-62258571D02*
X169809524Y-62306190D01*
X170571429Y-62210952D02*
X170952381Y-62210952D01*
X170714286Y-61877619D02*
X170714286Y-62734761D01*
X170714286Y-62734761D02*
X170761905Y-62830000D01*
X170761905Y-62830000D02*
X170857143Y-62877619D01*
X170857143Y-62877619D02*
X170952381Y-62877619D01*
X172000001Y-61972857D02*
X172047620Y-61925238D01*
X172047620Y-61925238D02*
X172142858Y-61877619D01*
X172142858Y-61877619D02*
X172380953Y-61877619D01*
X172380953Y-61877619D02*
X172476191Y-61925238D01*
X172476191Y-61925238D02*
X172523810Y-61972857D01*
X172523810Y-61972857D02*
X172571429Y-62068095D01*
X172571429Y-62068095D02*
X172571429Y-62163333D01*
X172571429Y-62163333D02*
X172523810Y-62306190D01*
X172523810Y-62306190D02*
X171952382Y-62877619D01*
X171952382Y-62877619D02*
X172571429Y-62877619D01*
X173190477Y-61877619D02*
X173285715Y-61877619D01*
X173285715Y-61877619D02*
X173380953Y-61925238D01*
X173380953Y-61925238D02*
X173428572Y-61972857D01*
X173428572Y-61972857D02*
X173476191Y-62068095D01*
X173476191Y-62068095D02*
X173523810Y-62258571D01*
X173523810Y-62258571D02*
X173523810Y-62496666D01*
X173523810Y-62496666D02*
X173476191Y-62687142D01*
X173476191Y-62687142D02*
X173428572Y-62782380D01*
X173428572Y-62782380D02*
X173380953Y-62830000D01*
X173380953Y-62830000D02*
X173285715Y-62877619D01*
X173285715Y-62877619D02*
X173190477Y-62877619D01*
X173190477Y-62877619D02*
X173095239Y-62830000D01*
X173095239Y-62830000D02*
X173047620Y-62782380D01*
X173047620Y-62782380D02*
X173000001Y-62687142D01*
X173000001Y-62687142D02*
X172952382Y-62496666D01*
X172952382Y-62496666D02*
X172952382Y-62258571D01*
X172952382Y-62258571D02*
X173000001Y-62068095D01*
X173000001Y-62068095D02*
X173047620Y-61972857D01*
X173047620Y-61972857D02*
X173095239Y-61925238D01*
X173095239Y-61925238D02*
X173190477Y-61877619D01*
X173904763Y-61972857D02*
X173952382Y-61925238D01*
X173952382Y-61925238D02*
X174047620Y-61877619D01*
X174047620Y-61877619D02*
X174285715Y-61877619D01*
X174285715Y-61877619D02*
X174380953Y-61925238D01*
X174380953Y-61925238D02*
X174428572Y-61972857D01*
X174428572Y-61972857D02*
X174476191Y-62068095D01*
X174476191Y-62068095D02*
X174476191Y-62163333D01*
X174476191Y-62163333D02*
X174428572Y-62306190D01*
X174428572Y-62306190D02*
X173857144Y-62877619D01*
X173857144Y-62877619D02*
X174476191Y-62877619D01*
X174809525Y-61877619D02*
X175428572Y-61877619D01*
X175428572Y-61877619D02*
X175095239Y-62258571D01*
X175095239Y-62258571D02*
X175238096Y-62258571D01*
X175238096Y-62258571D02*
X175333334Y-62306190D01*
X175333334Y-62306190D02*
X175380953Y-62353809D01*
X175380953Y-62353809D02*
X175428572Y-62449047D01*
X175428572Y-62449047D02*
X175428572Y-62687142D01*
X175428572Y-62687142D02*
X175380953Y-62782380D01*
X175380953Y-62782380D02*
X175333334Y-62830000D01*
X175333334Y-62830000D02*
X175238096Y-62877619D01*
X175238096Y-62877619D02*
X174952382Y-62877619D01*
X174952382Y-62877619D02*
X174857144Y-62830000D01*
X174857144Y-62830000D02*
X174809525Y-62782380D01*
X175904763Y-62830000D02*
X175904763Y-62877619D01*
X175904763Y-62877619D02*
X175857144Y-62972857D01*
X175857144Y-62972857D02*
X175809525Y-63020476D01*
X177095239Y-62877619D02*
X177095239Y-61877619D01*
X177095239Y-61877619D02*
X177333334Y-61877619D01*
X177333334Y-61877619D02*
X177476191Y-61925238D01*
X177476191Y-61925238D02*
X177571429Y-62020476D01*
X177571429Y-62020476D02*
X177619048Y-62115714D01*
X177619048Y-62115714D02*
X177666667Y-62306190D01*
X177666667Y-62306190D02*
X177666667Y-62449047D01*
X177666667Y-62449047D02*
X177619048Y-62639523D01*
X177619048Y-62639523D02*
X177571429Y-62734761D01*
X177571429Y-62734761D02*
X177476191Y-62830000D01*
X177476191Y-62830000D02*
X177333334Y-62877619D01*
X177333334Y-62877619D02*
X177095239Y-62877619D01*
X178523810Y-62877619D02*
X178523810Y-62353809D01*
X178523810Y-62353809D02*
X178476191Y-62258571D01*
X178476191Y-62258571D02*
X178380953Y-62210952D01*
X178380953Y-62210952D02*
X178190477Y-62210952D01*
X178190477Y-62210952D02*
X178095239Y-62258571D01*
X178523810Y-62830000D02*
X178428572Y-62877619D01*
X178428572Y-62877619D02*
X178190477Y-62877619D01*
X178190477Y-62877619D02*
X178095239Y-62830000D01*
X178095239Y-62830000D02*
X178047620Y-62734761D01*
X178047620Y-62734761D02*
X178047620Y-62639523D01*
X178047620Y-62639523D02*
X178095239Y-62544285D01*
X178095239Y-62544285D02*
X178190477Y-62496666D01*
X178190477Y-62496666D02*
X178428572Y-62496666D01*
X178428572Y-62496666D02*
X178523810Y-62449047D01*
X179000001Y-62877619D02*
X179000001Y-62210952D01*
X179000001Y-62401428D02*
X179047620Y-62306190D01*
X179047620Y-62306190D02*
X179095239Y-62258571D01*
X179095239Y-62258571D02*
X179190477Y-62210952D01*
X179190477Y-62210952D02*
X179285715Y-62210952D01*
X179476192Y-62210952D02*
X179857144Y-62210952D01*
X179619049Y-61877619D02*
X179619049Y-62734761D01*
X179619049Y-62734761D02*
X179666668Y-62830000D01*
X179666668Y-62830000D02*
X179761906Y-62877619D01*
X179761906Y-62877619D02*
X179857144Y-62877619D01*
X180190478Y-62877619D02*
X180190478Y-62210952D01*
X180190478Y-62306190D02*
X180238097Y-62258571D01*
X180238097Y-62258571D02*
X180333335Y-62210952D01*
X180333335Y-62210952D02*
X180476192Y-62210952D01*
X180476192Y-62210952D02*
X180571430Y-62258571D01*
X180571430Y-62258571D02*
X180619049Y-62353809D01*
X180619049Y-62353809D02*
X180619049Y-62877619D01*
X180619049Y-62353809D02*
X180666668Y-62258571D01*
X180666668Y-62258571D02*
X180761906Y-62210952D01*
X180761906Y-62210952D02*
X180904763Y-62210952D01*
X180904763Y-62210952D02*
X181000002Y-62258571D01*
X181000002Y-62258571D02*
X181047621Y-62353809D01*
X181047621Y-62353809D02*
X181047621Y-62877619D01*
X181666668Y-62877619D02*
X181571430Y-62830000D01*
X181571430Y-62830000D02*
X181523811Y-62782380D01*
X181523811Y-62782380D02*
X181476192Y-62687142D01*
X181476192Y-62687142D02*
X181476192Y-62401428D01*
X181476192Y-62401428D02*
X181523811Y-62306190D01*
X181523811Y-62306190D02*
X181571430Y-62258571D01*
X181571430Y-62258571D02*
X181666668Y-62210952D01*
X181666668Y-62210952D02*
X181809525Y-62210952D01*
X181809525Y-62210952D02*
X181904763Y-62258571D01*
X181904763Y-62258571D02*
X181952382Y-62306190D01*
X181952382Y-62306190D02*
X182000001Y-62401428D01*
X182000001Y-62401428D02*
X182000001Y-62687142D01*
X182000001Y-62687142D02*
X181952382Y-62782380D01*
X181952382Y-62782380D02*
X181904763Y-62830000D01*
X181904763Y-62830000D02*
X181809525Y-62877619D01*
X181809525Y-62877619D02*
X181666668Y-62877619D01*
X182857144Y-62210952D02*
X182857144Y-62877619D01*
X182428573Y-62210952D02*
X182428573Y-62734761D01*
X182428573Y-62734761D02*
X182476192Y-62830000D01*
X182476192Y-62830000D02*
X182571430Y-62877619D01*
X182571430Y-62877619D02*
X182714287Y-62877619D01*
X182714287Y-62877619D02*
X182809525Y-62830000D01*
X182809525Y-62830000D02*
X182857144Y-62782380D01*
X183190478Y-62210952D02*
X183571430Y-62210952D01*
X183333335Y-61877619D02*
X183333335Y-62734761D01*
X183333335Y-62734761D02*
X183380954Y-62830000D01*
X183380954Y-62830000D02*
X183476192Y-62877619D01*
X183476192Y-62877619D02*
X183571430Y-62877619D01*
X183904764Y-62877619D02*
X183904764Y-61877619D01*
X184333335Y-62877619D02*
X184333335Y-62353809D01*
X184333335Y-62353809D02*
X184285716Y-62258571D01*
X184285716Y-62258571D02*
X184190478Y-62210952D01*
X184190478Y-62210952D02*
X184047621Y-62210952D01*
X184047621Y-62210952D02*
X183952383Y-62258571D01*
X183952383Y-62258571D02*
X183904764Y-62306190D01*
X186142859Y-62782380D02*
X186095240Y-62830000D01*
X186095240Y-62830000D02*
X185952383Y-62877619D01*
X185952383Y-62877619D02*
X185857145Y-62877619D01*
X185857145Y-62877619D02*
X185714288Y-62830000D01*
X185714288Y-62830000D02*
X185619050Y-62734761D01*
X185619050Y-62734761D02*
X185571431Y-62639523D01*
X185571431Y-62639523D02*
X185523812Y-62449047D01*
X185523812Y-62449047D02*
X185523812Y-62306190D01*
X185523812Y-62306190D02*
X185571431Y-62115714D01*
X185571431Y-62115714D02*
X185619050Y-62020476D01*
X185619050Y-62020476D02*
X185714288Y-61925238D01*
X185714288Y-61925238D02*
X185857145Y-61877619D01*
X185857145Y-61877619D02*
X185952383Y-61877619D01*
X185952383Y-61877619D02*
X186095240Y-61925238D01*
X186095240Y-61925238D02*
X186142859Y-61972857D01*
X186714288Y-62877619D02*
X186619050Y-62830000D01*
X186619050Y-62830000D02*
X186571431Y-62782380D01*
X186571431Y-62782380D02*
X186523812Y-62687142D01*
X186523812Y-62687142D02*
X186523812Y-62401428D01*
X186523812Y-62401428D02*
X186571431Y-62306190D01*
X186571431Y-62306190D02*
X186619050Y-62258571D01*
X186619050Y-62258571D02*
X186714288Y-62210952D01*
X186714288Y-62210952D02*
X186857145Y-62210952D01*
X186857145Y-62210952D02*
X186952383Y-62258571D01*
X186952383Y-62258571D02*
X187000002Y-62306190D01*
X187000002Y-62306190D02*
X187047621Y-62401428D01*
X187047621Y-62401428D02*
X187047621Y-62687142D01*
X187047621Y-62687142D02*
X187000002Y-62782380D01*
X187000002Y-62782380D02*
X186952383Y-62830000D01*
X186952383Y-62830000D02*
X186857145Y-62877619D01*
X186857145Y-62877619D02*
X186714288Y-62877619D01*
X187619050Y-62877619D02*
X187523812Y-62830000D01*
X187523812Y-62830000D02*
X187476193Y-62734761D01*
X187476193Y-62734761D02*
X187476193Y-61877619D01*
X188142860Y-62877619D02*
X188047622Y-62830000D01*
X188047622Y-62830000D02*
X188000003Y-62734761D01*
X188000003Y-62734761D02*
X188000003Y-61877619D01*
X188904765Y-62830000D02*
X188809527Y-62877619D01*
X188809527Y-62877619D02*
X188619051Y-62877619D01*
X188619051Y-62877619D02*
X188523813Y-62830000D01*
X188523813Y-62830000D02*
X188476194Y-62734761D01*
X188476194Y-62734761D02*
X188476194Y-62353809D01*
X188476194Y-62353809D02*
X188523813Y-62258571D01*
X188523813Y-62258571D02*
X188619051Y-62210952D01*
X188619051Y-62210952D02*
X188809527Y-62210952D01*
X188809527Y-62210952D02*
X188904765Y-62258571D01*
X188904765Y-62258571D02*
X188952384Y-62353809D01*
X188952384Y-62353809D02*
X188952384Y-62449047D01*
X188952384Y-62449047D02*
X188476194Y-62544285D01*
X189809527Y-62210952D02*
X189809527Y-63020476D01*
X189809527Y-63020476D02*
X189761908Y-63115714D01*
X189761908Y-63115714D02*
X189714289Y-63163333D01*
X189714289Y-63163333D02*
X189619051Y-63210952D01*
X189619051Y-63210952D02*
X189476194Y-63210952D01*
X189476194Y-63210952D02*
X189380956Y-63163333D01*
X189809527Y-62830000D02*
X189714289Y-62877619D01*
X189714289Y-62877619D02*
X189523813Y-62877619D01*
X189523813Y-62877619D02*
X189428575Y-62830000D01*
X189428575Y-62830000D02*
X189380956Y-62782380D01*
X189380956Y-62782380D02*
X189333337Y-62687142D01*
X189333337Y-62687142D02*
X189333337Y-62401428D01*
X189333337Y-62401428D02*
X189380956Y-62306190D01*
X189380956Y-62306190D02*
X189428575Y-62258571D01*
X189428575Y-62258571D02*
X189523813Y-62210952D01*
X189523813Y-62210952D02*
X189714289Y-62210952D01*
X189714289Y-62210952D02*
X189809527Y-62258571D01*
X190666670Y-62830000D02*
X190571432Y-62877619D01*
X190571432Y-62877619D02*
X190380956Y-62877619D01*
X190380956Y-62877619D02*
X190285718Y-62830000D01*
X190285718Y-62830000D02*
X190238099Y-62734761D01*
X190238099Y-62734761D02*
X190238099Y-62353809D01*
X190238099Y-62353809D02*
X190285718Y-62258571D01*
X190285718Y-62258571D02*
X190380956Y-62210952D01*
X190380956Y-62210952D02*
X190571432Y-62210952D01*
X190571432Y-62210952D02*
X190666670Y-62258571D01*
X190666670Y-62258571D02*
X190714289Y-62353809D01*
X190714289Y-62353809D02*
X190714289Y-62449047D01*
X190714289Y-62449047D02*
X190238099Y-62544285D01*
%TO.C,J3*%
X205682666Y-56510619D02*
X205682666Y-57224904D01*
X205682666Y-57224904D02*
X205635047Y-57367761D01*
X205635047Y-57367761D02*
X205539809Y-57463000D01*
X205539809Y-57463000D02*
X205396952Y-57510619D01*
X205396952Y-57510619D02*
X205301714Y-57510619D01*
X206063619Y-56510619D02*
X206682666Y-56510619D01*
X206682666Y-56510619D02*
X206349333Y-56891571D01*
X206349333Y-56891571D02*
X206492190Y-56891571D01*
X206492190Y-56891571D02*
X206587428Y-56939190D01*
X206587428Y-56939190D02*
X206635047Y-56986809D01*
X206635047Y-56986809D02*
X206682666Y-57082047D01*
X206682666Y-57082047D02*
X206682666Y-57320142D01*
X206682666Y-57320142D02*
X206635047Y-57415380D01*
X206635047Y-57415380D02*
X206587428Y-57463000D01*
X206587428Y-57463000D02*
X206492190Y-57510619D01*
X206492190Y-57510619D02*
X206206476Y-57510619D01*
X206206476Y-57510619D02*
X206111238Y-57463000D01*
X206111238Y-57463000D02*
X206063619Y-57415380D01*
%TO.C,C2*%
X175213380Y-55297666D02*
X175261000Y-55345285D01*
X175261000Y-55345285D02*
X175308619Y-55488142D01*
X175308619Y-55488142D02*
X175308619Y-55583380D01*
X175308619Y-55583380D02*
X175261000Y-55726237D01*
X175261000Y-55726237D02*
X175165761Y-55821475D01*
X175165761Y-55821475D02*
X175070523Y-55869094D01*
X175070523Y-55869094D02*
X174880047Y-55916713D01*
X174880047Y-55916713D02*
X174737190Y-55916713D01*
X174737190Y-55916713D02*
X174546714Y-55869094D01*
X174546714Y-55869094D02*
X174451476Y-55821475D01*
X174451476Y-55821475D02*
X174356238Y-55726237D01*
X174356238Y-55726237D02*
X174308619Y-55583380D01*
X174308619Y-55583380D02*
X174308619Y-55488142D01*
X174308619Y-55488142D02*
X174356238Y-55345285D01*
X174356238Y-55345285D02*
X174403857Y-55297666D01*
X174403857Y-54916713D02*
X174356238Y-54869094D01*
X174356238Y-54869094D02*
X174308619Y-54773856D01*
X174308619Y-54773856D02*
X174308619Y-54535761D01*
X174308619Y-54535761D02*
X174356238Y-54440523D01*
X174356238Y-54440523D02*
X174403857Y-54392904D01*
X174403857Y-54392904D02*
X174499095Y-54345285D01*
X174499095Y-54345285D02*
X174594333Y-54345285D01*
X174594333Y-54345285D02*
X174737190Y-54392904D01*
X174737190Y-54392904D02*
X175308619Y-54964332D01*
X175308619Y-54964332D02*
X175308619Y-54345285D01*
%TO.C,U2*%
X177334619Y-52245904D02*
X178144142Y-52245904D01*
X178144142Y-52245904D02*
X178239380Y-52198285D01*
X178239380Y-52198285D02*
X178287000Y-52150666D01*
X178287000Y-52150666D02*
X178334619Y-52055428D01*
X178334619Y-52055428D02*
X178334619Y-51864952D01*
X178334619Y-51864952D02*
X178287000Y-51769714D01*
X178287000Y-51769714D02*
X178239380Y-51722095D01*
X178239380Y-51722095D02*
X178144142Y-51674476D01*
X178144142Y-51674476D02*
X177334619Y-51674476D01*
X177429857Y-51245904D02*
X177382238Y-51198285D01*
X177382238Y-51198285D02*
X177334619Y-51103047D01*
X177334619Y-51103047D02*
X177334619Y-50864952D01*
X177334619Y-50864952D02*
X177382238Y-50769714D01*
X177382238Y-50769714D02*
X177429857Y-50722095D01*
X177429857Y-50722095D02*
X177525095Y-50674476D01*
X177525095Y-50674476D02*
X177620333Y-50674476D01*
X177620333Y-50674476D02*
X177763190Y-50722095D01*
X177763190Y-50722095D02*
X178334619Y-51293523D01*
X178334619Y-51293523D02*
X178334619Y-50674476D01*
%TO.C,J2*%
X205682666Y-48494619D02*
X205682666Y-49208904D01*
X205682666Y-49208904D02*
X205635047Y-49351761D01*
X205635047Y-49351761D02*
X205539809Y-49447000D01*
X205539809Y-49447000D02*
X205396952Y-49494619D01*
X205396952Y-49494619D02*
X205301714Y-49494619D01*
X206111238Y-48589857D02*
X206158857Y-48542238D01*
X206158857Y-48542238D02*
X206254095Y-48494619D01*
X206254095Y-48494619D02*
X206492190Y-48494619D01*
X206492190Y-48494619D02*
X206587428Y-48542238D01*
X206587428Y-48542238D02*
X206635047Y-48589857D01*
X206635047Y-48589857D02*
X206682666Y-48685095D01*
X206682666Y-48685095D02*
X206682666Y-48780333D01*
X206682666Y-48780333D02*
X206635047Y-48923190D01*
X206635047Y-48923190D02*
X206063619Y-49494619D01*
X206063619Y-49494619D02*
X206682666Y-49494619D01*
%TO.C,C1*%
X196696333Y-59739380D02*
X196648714Y-59787000D01*
X196648714Y-59787000D02*
X196505857Y-59834619D01*
X196505857Y-59834619D02*
X196410619Y-59834619D01*
X196410619Y-59834619D02*
X196267762Y-59787000D01*
X196267762Y-59787000D02*
X196172524Y-59691761D01*
X196172524Y-59691761D02*
X196124905Y-59596523D01*
X196124905Y-59596523D02*
X196077286Y-59406047D01*
X196077286Y-59406047D02*
X196077286Y-59263190D01*
X196077286Y-59263190D02*
X196124905Y-59072714D01*
X196124905Y-59072714D02*
X196172524Y-58977476D01*
X196172524Y-58977476D02*
X196267762Y-58882238D01*
X196267762Y-58882238D02*
X196410619Y-58834619D01*
X196410619Y-58834619D02*
X196505857Y-58834619D01*
X196505857Y-58834619D02*
X196648714Y-58882238D01*
X196648714Y-58882238D02*
X196696333Y-58929857D01*
X197648714Y-59834619D02*
X197077286Y-59834619D01*
X197363000Y-59834619D02*
X197363000Y-58834619D01*
X197363000Y-58834619D02*
X197267762Y-58977476D01*
X197267762Y-58977476D02*
X197172524Y-59072714D01*
X197172524Y-59072714D02*
X197077286Y-59120333D01*
%TO.C,C3*%
X187793333Y-52597380D02*
X187745714Y-52645000D01*
X187745714Y-52645000D02*
X187602857Y-52692619D01*
X187602857Y-52692619D02*
X187507619Y-52692619D01*
X187507619Y-52692619D02*
X187364762Y-52645000D01*
X187364762Y-52645000D02*
X187269524Y-52549761D01*
X187269524Y-52549761D02*
X187221905Y-52454523D01*
X187221905Y-52454523D02*
X187174286Y-52264047D01*
X187174286Y-52264047D02*
X187174286Y-52121190D01*
X187174286Y-52121190D02*
X187221905Y-51930714D01*
X187221905Y-51930714D02*
X187269524Y-51835476D01*
X187269524Y-51835476D02*
X187364762Y-51740238D01*
X187364762Y-51740238D02*
X187507619Y-51692619D01*
X187507619Y-51692619D02*
X187602857Y-51692619D01*
X187602857Y-51692619D02*
X187745714Y-51740238D01*
X187745714Y-51740238D02*
X187793333Y-51787857D01*
X188126667Y-51692619D02*
X188745714Y-51692619D01*
X188745714Y-51692619D02*
X188412381Y-52073571D01*
X188412381Y-52073571D02*
X188555238Y-52073571D01*
X188555238Y-52073571D02*
X188650476Y-52121190D01*
X188650476Y-52121190D02*
X188698095Y-52168809D01*
X188698095Y-52168809D02*
X188745714Y-52264047D01*
X188745714Y-52264047D02*
X188745714Y-52502142D01*
X188745714Y-52502142D02*
X188698095Y-52597380D01*
X188698095Y-52597380D02*
X188650476Y-52645000D01*
X188650476Y-52645000D02*
X188555238Y-52692619D01*
X188555238Y-52692619D02*
X188269524Y-52692619D01*
X188269524Y-52692619D02*
X188174286Y-52645000D01*
X188174286Y-52645000D02*
X188126667Y-52597380D01*
%TO.C,J1*%
X156666666Y-43462619D02*
X156666666Y-44176904D01*
X156666666Y-44176904D02*
X156619047Y-44319761D01*
X156619047Y-44319761D02*
X156523809Y-44415000D01*
X156523809Y-44415000D02*
X156380952Y-44462619D01*
X156380952Y-44462619D02*
X156285714Y-44462619D01*
X157666666Y-44462619D02*
X157095238Y-44462619D01*
X157380952Y-44462619D02*
X157380952Y-43462619D01*
X157380952Y-43462619D02*
X157285714Y-43605476D01*
X157285714Y-43605476D02*
X157190476Y-43700714D01*
X157190476Y-43700714D02*
X157095238Y-43748333D01*
%TO.C,U1*%
X193082619Y-52753904D02*
X193892142Y-52753904D01*
X193892142Y-52753904D02*
X193987380Y-52706285D01*
X193987380Y-52706285D02*
X194035000Y-52658666D01*
X194035000Y-52658666D02*
X194082619Y-52563428D01*
X194082619Y-52563428D02*
X194082619Y-52372952D01*
X194082619Y-52372952D02*
X194035000Y-52277714D01*
X194035000Y-52277714D02*
X193987380Y-52230095D01*
X193987380Y-52230095D02*
X193892142Y-52182476D01*
X193892142Y-52182476D02*
X193082619Y-52182476D01*
X194082619Y-51182476D02*
X194082619Y-51753904D01*
X194082619Y-51468190D02*
X193082619Y-51468190D01*
X193082619Y-51468190D02*
X193225476Y-51563428D01*
X193225476Y-51563428D02*
X193320714Y-51658666D01*
X193320714Y-51658666D02*
X193368333Y-51753904D01*
%TO.C,J4*%
X173666666Y-39848619D02*
X173666666Y-40562904D01*
X173666666Y-40562904D02*
X173619047Y-40705761D01*
X173619047Y-40705761D02*
X173523809Y-40801000D01*
X173523809Y-40801000D02*
X173380952Y-40848619D01*
X173380952Y-40848619D02*
X173285714Y-40848619D01*
X174571428Y-40181952D02*
X174571428Y-40848619D01*
X174333333Y-39801000D02*
X174095238Y-40515285D01*
X174095238Y-40515285D02*
X174714285Y-40515285D01*
%TO.C,C4*%
X202458380Y-60968666D02*
X202506000Y-61016285D01*
X202506000Y-61016285D02*
X202553619Y-61159142D01*
X202553619Y-61159142D02*
X202553619Y-61254380D01*
X202553619Y-61254380D02*
X202506000Y-61397237D01*
X202506000Y-61397237D02*
X202410761Y-61492475D01*
X202410761Y-61492475D02*
X202315523Y-61540094D01*
X202315523Y-61540094D02*
X202125047Y-61587713D01*
X202125047Y-61587713D02*
X201982190Y-61587713D01*
X201982190Y-61587713D02*
X201791714Y-61540094D01*
X201791714Y-61540094D02*
X201696476Y-61492475D01*
X201696476Y-61492475D02*
X201601238Y-61397237D01*
X201601238Y-61397237D02*
X201553619Y-61254380D01*
X201553619Y-61254380D02*
X201553619Y-61159142D01*
X201553619Y-61159142D02*
X201601238Y-61016285D01*
X201601238Y-61016285D02*
X201648857Y-60968666D01*
X201886952Y-60111523D02*
X202553619Y-60111523D01*
X201506000Y-60349618D02*
X202220285Y-60587713D01*
X202220285Y-60587713D02*
X202220285Y-59968666D01*
%TO.C,FB1*%
X169346666Y-54388809D02*
X169013333Y-54388809D01*
X169013333Y-54912619D02*
X169013333Y-53912619D01*
X169013333Y-53912619D02*
X169489523Y-53912619D01*
X170203809Y-54388809D02*
X170346666Y-54436428D01*
X170346666Y-54436428D02*
X170394285Y-54484047D01*
X170394285Y-54484047D02*
X170441904Y-54579285D01*
X170441904Y-54579285D02*
X170441904Y-54722142D01*
X170441904Y-54722142D02*
X170394285Y-54817380D01*
X170394285Y-54817380D02*
X170346666Y-54865000D01*
X170346666Y-54865000D02*
X170251428Y-54912619D01*
X170251428Y-54912619D02*
X169870476Y-54912619D01*
X169870476Y-54912619D02*
X169870476Y-53912619D01*
X169870476Y-53912619D02*
X170203809Y-53912619D01*
X170203809Y-53912619D02*
X170299047Y-53960238D01*
X170299047Y-53960238D02*
X170346666Y-54007857D01*
X170346666Y-54007857D02*
X170394285Y-54103095D01*
X170394285Y-54103095D02*
X170394285Y-54198333D01*
X170394285Y-54198333D02*
X170346666Y-54293571D01*
X170346666Y-54293571D02*
X170299047Y-54341190D01*
X170299047Y-54341190D02*
X170203809Y-54388809D01*
X170203809Y-54388809D02*
X169870476Y-54388809D01*
X171394285Y-54912619D02*
X170822857Y-54912619D01*
X171108571Y-54912619D02*
X171108571Y-53912619D01*
X171108571Y-53912619D02*
X171013333Y-54055476D01*
X171013333Y-54055476D02*
X170918095Y-54150714D01*
X170918095Y-54150714D02*
X170822857Y-54198333D01*
%TO.C,G\u002A\u002A\u002A*%
G36*
X169365685Y-46072983D02*
G01*
X169365685Y-46365685D01*
X169072983Y-46365685D01*
X168780281Y-46365685D01*
X168780281Y-46072983D01*
X168780281Y-45780281D01*
X169072983Y-45780281D01*
X169365685Y-45780281D01*
X169365685Y-46072983D01*
G37*
G36*
X169365685Y-51927016D02*
G01*
X169365685Y-52219718D01*
X169072983Y-52219718D01*
X168780281Y-52219718D01*
X168780281Y-51927016D01*
X168780281Y-51634315D01*
X169072983Y-51634315D01*
X169365685Y-51634315D01*
X169365685Y-51927016D01*
G37*
G36*
X169951088Y-48219462D02*
G01*
X169951088Y-48317029D01*
X169755953Y-48317029D01*
X169560819Y-48317029D01*
X169560819Y-48219462D01*
X169560819Y-48121895D01*
X169755953Y-48121895D01*
X169951088Y-48121895D01*
X169951088Y-48219462D01*
G37*
G36*
X171707298Y-48609731D02*
G01*
X171707298Y-48707298D01*
X171512163Y-48707298D01*
X171317029Y-48707298D01*
X171317029Y-48609731D01*
X171317029Y-48512163D01*
X171512163Y-48512163D01*
X171707298Y-48512163D01*
X171707298Y-48609731D01*
G37*
G36*
X173658642Y-46755953D02*
G01*
X173658642Y-46951088D01*
X173561075Y-46951088D01*
X173463508Y-46951088D01*
X173463508Y-46755953D01*
X173463508Y-46560819D01*
X173561075Y-46560819D01*
X173658642Y-46560819D01*
X173658642Y-46755953D01*
G37*
G36*
X175219718Y-46072983D02*
G01*
X175219718Y-46365685D01*
X174927016Y-46365685D01*
X174634315Y-46365685D01*
X174634315Y-46072983D01*
X174634315Y-45780281D01*
X174927016Y-45780281D01*
X175219718Y-45780281D01*
X175219718Y-46072983D01*
G37*
G36*
X175581526Y-51837508D02*
G01*
X175606998Y-51875521D01*
X175609987Y-51927016D01*
X175601928Y-51996123D01*
X175563915Y-52021594D01*
X175512420Y-52024583D01*
X175443313Y-52016525D01*
X175417841Y-51978512D01*
X175414852Y-51927016D01*
X175414852Y-51829449D01*
X175512420Y-51829449D01*
X175581526Y-51837508D01*
G37*
G36*
X169727493Y-48910491D02*
G01*
X169752964Y-48948504D01*
X169755953Y-49000000D01*
X169747895Y-49069106D01*
X169709882Y-49094578D01*
X169658386Y-49097567D01*
X169589279Y-49089508D01*
X169563808Y-49051495D01*
X169560819Y-49000000D01*
X169568878Y-48930893D01*
X169606891Y-48905421D01*
X169658386Y-48902432D01*
X169727493Y-48910491D01*
G37*
G36*
X169727493Y-50861835D02*
G01*
X169752964Y-50899848D01*
X169755953Y-50951344D01*
X169747895Y-51020451D01*
X169709882Y-51045922D01*
X169658386Y-51048911D01*
X169589279Y-51040853D01*
X169563808Y-51002840D01*
X169560819Y-50951344D01*
X169568878Y-50882237D01*
X169606891Y-50856766D01*
X169658386Y-50853777D01*
X169727493Y-50861835D01*
G37*
G36*
X170117762Y-45398071D02*
G01*
X170143233Y-45436084D01*
X170146222Y-45487580D01*
X170138164Y-45556686D01*
X170100151Y-45582158D01*
X170048655Y-45585147D01*
X169979548Y-45577088D01*
X169954077Y-45539075D01*
X169951088Y-45487580D01*
X169959147Y-45418473D01*
X169997160Y-45393001D01*
X170048655Y-45390012D01*
X170117762Y-45398071D01*
G37*
G36*
X170117762Y-52422911D02*
G01*
X170143233Y-52460924D01*
X170146222Y-52512420D01*
X170138164Y-52581526D01*
X170100151Y-52606998D01*
X170048655Y-52609987D01*
X169979548Y-52601928D01*
X169954077Y-52563915D01*
X169951088Y-52512420D01*
X169959147Y-52443313D01*
X169997160Y-52417841D01*
X170048655Y-52414852D01*
X170117762Y-52422911D01*
G37*
G36*
X170898300Y-50666701D02*
G01*
X170923771Y-50704714D01*
X170926760Y-50756210D01*
X170918702Y-50825316D01*
X170880688Y-50850788D01*
X170829193Y-50853777D01*
X170760086Y-50845718D01*
X170734615Y-50807705D01*
X170731626Y-50756210D01*
X170739684Y-50687103D01*
X170777697Y-50661631D01*
X170829193Y-50658642D01*
X170898300Y-50666701D01*
G37*
G36*
X171678838Y-51642373D02*
G01*
X171704309Y-51680386D01*
X171707298Y-51731882D01*
X171699239Y-51800989D01*
X171661226Y-51826460D01*
X171609731Y-51829449D01*
X171540624Y-51821390D01*
X171515152Y-51783377D01*
X171512163Y-51731882D01*
X171520222Y-51662775D01*
X171558235Y-51637304D01*
X171609731Y-51634315D01*
X171678838Y-51642373D01*
G37*
G36*
X172459375Y-46568878D02*
G01*
X172484847Y-46606891D01*
X172487836Y-46658386D01*
X172479777Y-46727493D01*
X172441764Y-46752964D01*
X172390268Y-46755953D01*
X172321162Y-46747895D01*
X172295690Y-46709882D01*
X172292701Y-46658386D01*
X172300760Y-46589279D01*
X172338773Y-46563808D01*
X172390268Y-46560819D01*
X172459375Y-46568878D01*
G37*
G36*
X173630182Y-48520222D02*
G01*
X173655653Y-48558235D01*
X173658642Y-48609731D01*
X173650584Y-48678838D01*
X173612571Y-48704309D01*
X173561075Y-48707298D01*
X173491968Y-48699239D01*
X173466497Y-48661226D01*
X173463508Y-48609731D01*
X173471567Y-48540624D01*
X173509580Y-48515152D01*
X173561075Y-48512163D01*
X173630182Y-48520222D01*
G37*
G36*
X174020451Y-46568878D02*
G01*
X174045922Y-46606891D01*
X174048911Y-46658386D01*
X174040853Y-46727493D01*
X174002840Y-46752964D01*
X173951344Y-46755953D01*
X173882237Y-46747895D01*
X173856766Y-46709882D01*
X173853777Y-46658386D01*
X173861835Y-46589279D01*
X173899848Y-46563808D01*
X173951344Y-46560819D01*
X174020451Y-46568878D01*
G37*
G36*
X174410720Y-51252104D02*
G01*
X174436191Y-51290117D01*
X174439180Y-51341613D01*
X174431121Y-51410720D01*
X174393108Y-51436191D01*
X174341613Y-51439180D01*
X174272506Y-51431121D01*
X174247035Y-51393108D01*
X174244046Y-51341613D01*
X174252104Y-51272506D01*
X174290117Y-51247035D01*
X174341613Y-51244046D01*
X174410720Y-51252104D01*
G37*
G36*
X175581526Y-50861835D02*
G01*
X175606998Y-50899848D01*
X175609987Y-50951344D01*
X175601928Y-51020451D01*
X175563915Y-51045922D01*
X175512420Y-51048911D01*
X175443313Y-51040853D01*
X175417841Y-51002840D01*
X175414852Y-50951344D01*
X175422911Y-50882237D01*
X175460924Y-50856766D01*
X175512420Y-50853777D01*
X175581526Y-50861835D01*
G37*
G36*
X171902432Y-50365941D02*
G01*
X171894374Y-50435048D01*
X171856361Y-50460519D01*
X171804865Y-50463508D01*
X171735758Y-50471567D01*
X171710287Y-50509580D01*
X171707298Y-50561075D01*
X171699239Y-50630182D01*
X171661226Y-50655653D01*
X171609731Y-50658642D01*
X171512163Y-50658642D01*
X171512163Y-50463508D01*
X171512163Y-50268373D01*
X171707298Y-50268373D01*
X171902432Y-50268373D01*
X171902432Y-50365941D01*
G37*
G36*
X171678838Y-47154281D02*
G01*
X171704309Y-47192294D01*
X171707298Y-47243790D01*
X171707298Y-47341357D01*
X171902432Y-47341357D01*
X172097567Y-47341357D01*
X172097567Y-47536491D01*
X172097567Y-47731626D01*
X171902432Y-47731626D01*
X171707298Y-47731626D01*
X171707298Y-47634058D01*
X171699239Y-47564952D01*
X171661226Y-47539480D01*
X171609731Y-47536491D01*
X171512163Y-47536491D01*
X171512163Y-47341357D01*
X171512163Y-47146222D01*
X171609731Y-47146222D01*
X171678838Y-47154281D01*
G37*
G36*
X171483703Y-47739684D02*
G01*
X171509174Y-47777697D01*
X171512163Y-47829193D01*
X171512163Y-47926760D01*
X171804865Y-47926760D01*
X172097567Y-47926760D01*
X172097567Y-48121895D01*
X172097567Y-48317029D01*
X172000000Y-48317029D01*
X171930893Y-48308970D01*
X171905421Y-48270957D01*
X171902432Y-48219462D01*
X171902432Y-48121895D01*
X171707298Y-48121895D01*
X171512163Y-48121895D01*
X171512163Y-48219462D01*
X171504105Y-48288569D01*
X171466092Y-48314040D01*
X171414596Y-48317029D01*
X171317029Y-48317029D01*
X171317029Y-48024327D01*
X171317029Y-47731626D01*
X171414596Y-47731626D01*
X171483703Y-47739684D01*
G37*
G36*
X169337224Y-46959147D02*
G01*
X169362696Y-46997160D01*
X169365685Y-47048655D01*
X169357626Y-47117762D01*
X169319613Y-47143233D01*
X169268117Y-47146222D01*
X169199011Y-47154281D01*
X169173539Y-47192294D01*
X169170550Y-47243790D01*
X169162492Y-47312896D01*
X169124479Y-47338368D01*
X169072983Y-47341357D01*
X169003876Y-47333298D01*
X168978405Y-47295285D01*
X168975416Y-47243790D01*
X168983474Y-47174683D01*
X169021487Y-47149211D01*
X169072983Y-47146222D01*
X169142090Y-47138164D01*
X169167561Y-47100151D01*
X169170550Y-47048655D01*
X169178609Y-46979548D01*
X169216622Y-46954077D01*
X169268117Y-46951088D01*
X169337224Y-46959147D01*
G37*
G36*
X174800989Y-52227777D02*
G01*
X174826460Y-52265790D01*
X174829449Y-52317285D01*
X174821390Y-52386392D01*
X174783377Y-52411863D01*
X174731882Y-52414852D01*
X174662775Y-52422911D01*
X174637304Y-52460924D01*
X174634315Y-52512420D01*
X174626256Y-52581526D01*
X174588243Y-52606998D01*
X174536747Y-52609987D01*
X174467641Y-52601928D01*
X174442169Y-52563915D01*
X174439180Y-52512420D01*
X174447239Y-52443313D01*
X174485252Y-52417841D01*
X174536747Y-52414852D01*
X174605854Y-52406794D01*
X174631326Y-52368781D01*
X174634315Y-52317285D01*
X174642373Y-52248178D01*
X174680386Y-52222707D01*
X174731882Y-52219718D01*
X174800989Y-52227777D01*
G37*
G36*
X175581526Y-46959147D02*
G01*
X175606998Y-46997160D01*
X175609987Y-47048655D01*
X175601928Y-47117762D01*
X175563915Y-47143233D01*
X175512420Y-47146222D01*
X175443313Y-47154281D01*
X175417841Y-47192294D01*
X175414852Y-47243790D01*
X175406794Y-47312896D01*
X175368781Y-47338368D01*
X175317285Y-47341357D01*
X175248178Y-47333298D01*
X175222707Y-47295285D01*
X175219718Y-47243790D01*
X175227777Y-47174683D01*
X175265790Y-47149211D01*
X175317285Y-47146222D01*
X175386392Y-47138164D01*
X175411863Y-47100151D01*
X175414852Y-47048655D01*
X175422911Y-46979548D01*
X175460924Y-46954077D01*
X175512420Y-46951088D01*
X175581526Y-46959147D01*
G37*
G36*
X169755953Y-46072983D02*
G01*
X169755953Y-46755953D01*
X169072983Y-46755953D01*
X168390012Y-46755953D01*
X168390012Y-46203697D01*
X168590097Y-46203697D01*
X168590523Y-46346889D01*
X168593358Y-46454918D01*
X168598393Y-46514306D01*
X168599742Y-46519422D01*
X168620831Y-46536972D01*
X168673847Y-46548498D01*
X168767318Y-46554607D01*
X168909772Y-46555904D01*
X169080437Y-46553586D01*
X169544558Y-46544558D01*
X169544558Y-46072983D01*
X169544558Y-45601408D01*
X169072983Y-45601408D01*
X168601408Y-45601408D01*
X168592288Y-46038820D01*
X168590097Y-46203697D01*
X168390012Y-46203697D01*
X168390012Y-46072983D01*
X168390012Y-45390012D01*
X169072983Y-45390012D01*
X169755953Y-45390012D01*
X169755953Y-46072983D01*
G37*
G36*
X169755953Y-51927016D02*
G01*
X169755953Y-52609987D01*
X169072983Y-52609987D01*
X168390012Y-52609987D01*
X168390012Y-52057730D01*
X168590097Y-52057730D01*
X168590523Y-52200922D01*
X168593358Y-52308951D01*
X168598393Y-52368339D01*
X168599742Y-52373456D01*
X168620831Y-52391006D01*
X168673847Y-52402532D01*
X168767318Y-52408640D01*
X168909772Y-52409937D01*
X169080437Y-52407619D01*
X169544558Y-52398591D01*
X169544558Y-51927016D01*
X169544558Y-51455441D01*
X169072983Y-51455441D01*
X168601408Y-51455441D01*
X168592288Y-51892853D01*
X168590097Y-52057730D01*
X168390012Y-52057730D01*
X168390012Y-51927016D01*
X168390012Y-51244046D01*
X169072983Y-51244046D01*
X169755953Y-51244046D01*
X169755953Y-51927016D01*
G37*
G36*
X175609987Y-46072983D02*
G01*
X175609987Y-46755953D01*
X174927016Y-46755953D01*
X174244046Y-46755953D01*
X174244046Y-46203697D01*
X174444130Y-46203697D01*
X174444556Y-46346889D01*
X174447391Y-46454918D01*
X174452426Y-46514306D01*
X174453776Y-46519422D01*
X174474864Y-46536972D01*
X174527880Y-46548498D01*
X174621351Y-46554607D01*
X174763806Y-46555904D01*
X174934470Y-46553586D01*
X175398591Y-46544558D01*
X175398591Y-46072983D01*
X175398591Y-45601408D01*
X174927016Y-45601408D01*
X174455441Y-45601408D01*
X174446322Y-46038820D01*
X174444130Y-46203697D01*
X174244046Y-46203697D01*
X174244046Y-46072983D01*
X174244046Y-45390012D01*
X174927016Y-45390012D01*
X175609987Y-45390012D01*
X175609987Y-46072983D01*
G37*
G36*
X169142090Y-50471567D02*
G01*
X169167561Y-50509580D01*
X169170550Y-50561075D01*
X169178609Y-50630182D01*
X169216622Y-50655653D01*
X169268117Y-50658642D01*
X169337224Y-50666701D01*
X169362696Y-50704714D01*
X169365685Y-50756210D01*
X169357626Y-50825316D01*
X169319613Y-50850788D01*
X169268117Y-50853777D01*
X169199011Y-50861835D01*
X169173539Y-50899848D01*
X169170550Y-50951344D01*
X169170550Y-51048911D01*
X168780281Y-51048911D01*
X168390012Y-51048911D01*
X168390012Y-50951344D01*
X168390012Y-50853777D01*
X168585147Y-50853777D01*
X168780281Y-50853777D01*
X168780281Y-50756210D01*
X168788340Y-50687103D01*
X168826353Y-50661631D01*
X168877848Y-50658642D01*
X168946955Y-50650584D01*
X168972427Y-50612571D01*
X168975416Y-50561075D01*
X168983474Y-50491968D01*
X169021487Y-50466497D01*
X169072983Y-50463508D01*
X169142090Y-50471567D01*
G37*
G36*
X174605854Y-47349415D02*
G01*
X174631326Y-47387428D01*
X174634315Y-47438924D01*
X174626256Y-47508031D01*
X174588243Y-47533502D01*
X174536747Y-47536491D01*
X174467641Y-47544550D01*
X174442169Y-47582563D01*
X174439180Y-47634058D01*
X174447239Y-47703165D01*
X174485252Y-47728637D01*
X174536747Y-47731626D01*
X174605854Y-47739684D01*
X174631326Y-47777697D01*
X174634315Y-47829193D01*
X174634315Y-47926760D01*
X174341613Y-47926760D01*
X174048911Y-47926760D01*
X174048911Y-47829193D01*
X174056970Y-47760086D01*
X174094983Y-47734615D01*
X174146478Y-47731626D01*
X174215585Y-47723567D01*
X174241057Y-47685554D01*
X174244046Y-47634058D01*
X174252104Y-47564952D01*
X174290117Y-47539480D01*
X174341613Y-47536491D01*
X174410720Y-47528433D01*
X174436191Y-47490420D01*
X174439180Y-47438924D01*
X174447239Y-47369817D01*
X174485252Y-47344346D01*
X174536747Y-47341357D01*
X174605854Y-47349415D01*
G37*
G36*
X168556686Y-46959147D02*
G01*
X168582158Y-46997160D01*
X168585147Y-47048655D01*
X168593205Y-47117762D01*
X168631218Y-47143233D01*
X168682714Y-47146222D01*
X168780281Y-47146222D01*
X168780281Y-47341357D01*
X168780281Y-47536491D01*
X168877848Y-47536491D01*
X168975416Y-47536491D01*
X168975416Y-47731626D01*
X168975416Y-47926760D01*
X168877848Y-47926760D01*
X168780281Y-47926760D01*
X168780281Y-48121895D01*
X168780281Y-48317029D01*
X168682714Y-48317029D01*
X168613607Y-48325088D01*
X168588136Y-48363101D01*
X168585147Y-48414596D01*
X168577088Y-48483703D01*
X168539075Y-48509174D01*
X168487580Y-48512163D01*
X168390012Y-48512163D01*
X168390012Y-48317029D01*
X168390012Y-48121895D01*
X168487580Y-48121895D01*
X168556686Y-48113836D01*
X168582158Y-48075823D01*
X168585147Y-48024327D01*
X168593205Y-47955221D01*
X168631218Y-47929749D01*
X168682714Y-47926760D01*
X168751821Y-47918702D01*
X168777292Y-47880688D01*
X168780281Y-47829193D01*
X168772223Y-47760086D01*
X168734210Y-47734615D01*
X168682714Y-47731626D01*
X168613607Y-47723567D01*
X168588136Y-47685554D01*
X168585147Y-47634058D01*
X168577088Y-47564952D01*
X168539075Y-47539480D01*
X168487580Y-47536491D01*
X168418473Y-47528433D01*
X168393001Y-47490420D01*
X168390012Y-47438924D01*
X168398071Y-47369817D01*
X168436084Y-47344346D01*
X168487580Y-47341357D01*
X168556686Y-47333298D01*
X168582158Y-47295285D01*
X168585147Y-47243790D01*
X168577088Y-47174683D01*
X168539075Y-47149211D01*
X168487580Y-47146222D01*
X168418473Y-47138164D01*
X168393001Y-47100151D01*
X168390012Y-47048655D01*
X168398071Y-46979548D01*
X168436084Y-46954077D01*
X168487580Y-46951088D01*
X168556686Y-46959147D01*
G37*
G36*
X171317029Y-46463252D02*
G01*
X171317029Y-46755953D01*
X171219462Y-46755953D01*
X171150355Y-46764012D01*
X171124884Y-46802025D01*
X171121895Y-46853521D01*
X171129953Y-46922628D01*
X171167966Y-46948099D01*
X171219462Y-46951088D01*
X171288569Y-46959147D01*
X171314040Y-46997160D01*
X171317029Y-47048655D01*
X171308970Y-47117762D01*
X171270957Y-47143233D01*
X171219462Y-47146222D01*
X171150355Y-47138164D01*
X171124884Y-47100151D01*
X171121895Y-47048655D01*
X171113836Y-46979548D01*
X171075823Y-46954077D01*
X171024327Y-46951088D01*
X170926760Y-46951088D01*
X170926760Y-47146222D01*
X170926760Y-47341357D01*
X171024327Y-47341357D01*
X171121895Y-47341357D01*
X171121895Y-47536491D01*
X171121895Y-47731626D01*
X171024327Y-47731626D01*
X170955221Y-47739684D01*
X170929749Y-47777697D01*
X170926760Y-47829193D01*
X170934819Y-47898300D01*
X170972832Y-47923771D01*
X171024327Y-47926760D01*
X171093434Y-47934819D01*
X171118906Y-47972832D01*
X171121895Y-48024327D01*
X171113836Y-48093434D01*
X171075823Y-48118906D01*
X171024327Y-48121895D01*
X170955221Y-48129953D01*
X170929749Y-48167966D01*
X170926760Y-48219462D01*
X170918702Y-48288569D01*
X170880688Y-48314040D01*
X170829193Y-48317029D01*
X170760086Y-48325088D01*
X170734615Y-48363101D01*
X170731626Y-48414596D01*
X170739684Y-48483703D01*
X170777697Y-48509174D01*
X170829193Y-48512163D01*
X170898300Y-48520222D01*
X170923771Y-48558235D01*
X170926760Y-48609731D01*
X170934819Y-48678838D01*
X170972832Y-48704309D01*
X171024327Y-48707298D01*
X171093434Y-48715357D01*
X171118906Y-48753370D01*
X171121895Y-48804865D01*
X171121895Y-48902432D01*
X170926760Y-48902432D01*
X170731626Y-48902432D01*
X170731626Y-49000000D01*
X170739684Y-49069106D01*
X170777697Y-49094578D01*
X170829193Y-49097567D01*
X170898300Y-49105625D01*
X170923771Y-49143638D01*
X170926760Y-49195134D01*
X170934819Y-49264241D01*
X170972832Y-49289712D01*
X171024327Y-49292701D01*
X171093434Y-49284643D01*
X171118906Y-49246630D01*
X171121895Y-49195134D01*
X172682970Y-49195134D01*
X172691029Y-49264241D01*
X172729042Y-49289712D01*
X172780537Y-49292701D01*
X172849644Y-49284643D01*
X172875116Y-49246630D01*
X172878105Y-49195134D01*
X172870046Y-49126027D01*
X172832033Y-49100556D01*
X172780537Y-49097567D01*
X172711431Y-49105625D01*
X172685959Y-49143638D01*
X172682970Y-49195134D01*
X171121895Y-49195134D01*
X171129953Y-49126027D01*
X171167966Y-49100556D01*
X171219462Y-49097567D01*
X171288569Y-49089508D01*
X171314040Y-49051495D01*
X171317029Y-49000000D01*
X171325088Y-48930893D01*
X171363101Y-48905421D01*
X171414596Y-48902432D01*
X171483703Y-48910491D01*
X171509174Y-48948504D01*
X171512163Y-49000000D01*
X171512163Y-49097567D01*
X171804865Y-49097567D01*
X172097567Y-49097567D01*
X172097567Y-49000000D01*
X172089508Y-48930893D01*
X172051495Y-48905421D01*
X172000000Y-48902432D01*
X171930893Y-48894374D01*
X171905421Y-48856361D01*
X171902432Y-48804865D01*
X171902432Y-48707298D01*
X172097567Y-48707298D01*
X172292701Y-48707298D01*
X172292701Y-48902432D01*
X172292701Y-49097567D01*
X172390268Y-49097567D01*
X172459375Y-49089508D01*
X172484847Y-49051495D01*
X172487836Y-49000000D01*
X172495894Y-48930893D01*
X172533907Y-48905421D01*
X172585403Y-48902432D01*
X172654510Y-48894374D01*
X172679981Y-48856361D01*
X172682970Y-48804865D01*
X172691029Y-48735758D01*
X172729042Y-48710287D01*
X172780537Y-48707298D01*
X172849644Y-48715357D01*
X172875116Y-48753370D01*
X172878105Y-48804865D01*
X172886163Y-48873972D01*
X172924176Y-48899443D01*
X172975672Y-48902432D01*
X173073239Y-48902432D01*
X173073239Y-48707298D01*
X173073239Y-48512163D01*
X173170806Y-48512163D01*
X173268373Y-48512163D01*
X173268373Y-48707298D01*
X173268373Y-48902432D01*
X173170806Y-48902432D01*
X173073239Y-48902432D01*
X173073239Y-49097567D01*
X173073239Y-49292701D01*
X173170806Y-49292701D01*
X173239913Y-49300760D01*
X173265384Y-49338773D01*
X173268373Y-49390268D01*
X173268373Y-49487836D01*
X173073239Y-49487836D01*
X172878105Y-49487836D01*
X172878105Y-49585403D01*
X172886163Y-49654510D01*
X172924176Y-49679981D01*
X172975672Y-49682970D01*
X173044779Y-49691029D01*
X173070250Y-49729042D01*
X173073239Y-49780537D01*
X173081298Y-49849644D01*
X173119311Y-49875116D01*
X173170806Y-49878105D01*
X173268373Y-49878105D01*
X173268373Y-50073239D01*
X173268373Y-50268373D01*
X173170806Y-50268373D01*
X173101699Y-50260315D01*
X173076228Y-50222302D01*
X173073239Y-50170806D01*
X173065180Y-50101699D01*
X173027167Y-50076228D01*
X172975672Y-50073239D01*
X172906565Y-50081298D01*
X172881094Y-50119311D01*
X172878105Y-50170806D01*
X172870046Y-50239913D01*
X172832033Y-50265384D01*
X172780537Y-50268373D01*
X172682970Y-50268373D01*
X172682970Y-50073239D01*
X172682970Y-49878105D01*
X172780537Y-49878105D01*
X172849644Y-49870046D01*
X172875116Y-49832033D01*
X172878105Y-49780537D01*
X172878105Y-49682970D01*
X172682970Y-49682970D01*
X172487836Y-49682970D01*
X172487836Y-49585403D01*
X172479777Y-49516296D01*
X172441764Y-49490825D01*
X172390268Y-49487836D01*
X172321162Y-49495894D01*
X172295690Y-49533907D01*
X172292701Y-49585403D01*
X172292701Y-49682970D01*
X172097567Y-49682970D01*
X171902432Y-49682970D01*
X171902432Y-49585403D01*
X171894374Y-49516296D01*
X171856361Y-49490825D01*
X171804865Y-49487836D01*
X171735758Y-49479777D01*
X171710287Y-49441764D01*
X171707298Y-49390268D01*
X171707298Y-49292701D01*
X171902432Y-49292701D01*
X171902432Y-49390268D01*
X171902432Y-49487836D01*
X172097567Y-49487836D01*
X172292701Y-49487836D01*
X172292701Y-49390268D01*
X172292701Y-49292701D01*
X172097567Y-49292701D01*
X171902432Y-49292701D01*
X171707298Y-49292701D01*
X171512163Y-49292701D01*
X171317029Y-49292701D01*
X171317029Y-49390268D01*
X171317029Y-49487836D01*
X171121895Y-49487836D01*
X170926760Y-49487836D01*
X170926760Y-49390268D01*
X170918702Y-49321162D01*
X170880688Y-49295690D01*
X170829193Y-49292701D01*
X170760086Y-49284643D01*
X170734615Y-49246630D01*
X170731626Y-49195134D01*
X170723567Y-49126027D01*
X170685554Y-49100556D01*
X170634058Y-49097567D01*
X170564952Y-49089508D01*
X170539480Y-49051495D01*
X170536491Y-49000000D01*
X170528433Y-48930893D01*
X170490420Y-48905421D01*
X170438924Y-48902432D01*
X170369817Y-48894374D01*
X170344346Y-48856361D01*
X170341357Y-48804865D01*
X170536491Y-48804865D01*
X170544550Y-48873972D01*
X170582563Y-48899443D01*
X170634058Y-48902432D01*
X170703165Y-48894374D01*
X170728637Y-48856361D01*
X170731626Y-48804865D01*
X170723567Y-48735758D01*
X170685554Y-48710287D01*
X170634058Y-48707298D01*
X170564952Y-48715357D01*
X170539480Y-48753370D01*
X170536491Y-48804865D01*
X170341357Y-48804865D01*
X170333298Y-48735758D01*
X170295285Y-48710287D01*
X170243790Y-48707298D01*
X170174683Y-48699239D01*
X170149211Y-48661226D01*
X170146222Y-48609731D01*
X170146222Y-48512163D01*
X170341357Y-48512163D01*
X170536491Y-48512163D01*
X170536491Y-48414596D01*
X170544550Y-48345489D01*
X170582563Y-48320018D01*
X170634058Y-48317029D01*
X170703165Y-48308970D01*
X170728637Y-48270957D01*
X170731626Y-48219462D01*
X170739684Y-48150355D01*
X170777697Y-48124884D01*
X170829193Y-48121895D01*
X170898300Y-48113836D01*
X170923771Y-48075823D01*
X170926760Y-48024327D01*
X170918702Y-47955221D01*
X170880688Y-47929749D01*
X170829193Y-47926760D01*
X170760086Y-47918702D01*
X170734615Y-47880688D01*
X170731626Y-47829193D01*
X170739684Y-47760086D01*
X170777697Y-47734615D01*
X170829193Y-47731626D01*
X170898300Y-47723567D01*
X170923771Y-47685554D01*
X170926760Y-47634058D01*
X170926760Y-47536491D01*
X170536491Y-47536491D01*
X170146222Y-47536491D01*
X170146222Y-47438924D01*
X170146222Y-47341357D01*
X170438924Y-47341357D01*
X170731626Y-47341357D01*
X170731626Y-47243790D01*
X170723567Y-47174683D01*
X170685554Y-47149211D01*
X170634058Y-47146222D01*
X170564952Y-47138164D01*
X170539480Y-47100151D01*
X170536491Y-47048655D01*
X170536491Y-46951088D01*
X170731626Y-46951088D01*
X170926760Y-46951088D01*
X170926760Y-46853521D01*
X170934819Y-46784414D01*
X170972832Y-46758942D01*
X171024327Y-46755953D01*
X171121895Y-46755953D01*
X171121895Y-46463252D01*
X171121895Y-46170550D01*
X171219462Y-46170550D01*
X171317029Y-46170550D01*
X171317029Y-46463252D01*
G37*
G36*
X170731626Y-45487580D02*
G01*
X170739684Y-45556686D01*
X170777697Y-45582158D01*
X170829193Y-45585147D01*
X170898300Y-45593205D01*
X170923771Y-45631218D01*
X170926760Y-45682714D01*
X170926760Y-45780281D01*
X171121895Y-45780281D01*
X171317029Y-45780281D01*
X171317029Y-45682714D01*
X171325088Y-45613607D01*
X171363101Y-45588136D01*
X171414596Y-45585147D01*
X171483703Y-45577088D01*
X171509174Y-45539075D01*
X171512163Y-45487580D01*
X171512163Y-45390012D01*
X171902432Y-45390012D01*
X172292701Y-45390012D01*
X172292701Y-45487580D01*
X172300760Y-45556686D01*
X172338773Y-45582158D01*
X172390268Y-45585147D01*
X172459375Y-45593205D01*
X172484847Y-45631218D01*
X172487836Y-45682714D01*
X172495894Y-45751821D01*
X172533907Y-45777292D01*
X172585403Y-45780281D01*
X172682970Y-45780281D01*
X172682970Y-45585147D01*
X172682970Y-45390012D01*
X172780537Y-45390012D01*
X172878105Y-45390012D01*
X172878105Y-45585147D01*
X172878105Y-45780281D01*
X172975672Y-45780281D01*
X173044779Y-45788340D01*
X173070250Y-45826353D01*
X173073239Y-45877848D01*
X173073239Y-45975416D01*
X173268373Y-45975416D01*
X173463508Y-45975416D01*
X173463508Y-45780281D01*
X173463508Y-45585147D01*
X173268373Y-45585147D01*
X173073239Y-45585147D01*
X173073239Y-45487580D01*
X173073239Y-45390012D01*
X173463508Y-45390012D01*
X173853777Y-45390012D01*
X173853777Y-45487580D01*
X173861835Y-45556686D01*
X173899848Y-45582158D01*
X173951344Y-45585147D01*
X174020451Y-45593205D01*
X174045922Y-45631218D01*
X174048911Y-45682714D01*
X174040853Y-45751821D01*
X174002840Y-45777292D01*
X173951344Y-45780281D01*
X173882237Y-45772223D01*
X173856766Y-45734210D01*
X173853777Y-45682714D01*
X173845718Y-45613607D01*
X173807705Y-45588136D01*
X173756210Y-45585147D01*
X173658642Y-45585147D01*
X173658642Y-45780281D01*
X173658642Y-45975416D01*
X173853777Y-45975416D01*
X174048911Y-45975416D01*
X174048911Y-46170550D01*
X174048911Y-46365685D01*
X173756210Y-46365685D01*
X173463508Y-46365685D01*
X173463508Y-46268117D01*
X173463508Y-46170550D01*
X173170806Y-46170550D01*
X172878105Y-46170550D01*
X172878105Y-46072983D01*
X172878105Y-45975416D01*
X172682970Y-45975416D01*
X172487836Y-45975416D01*
X172487836Y-46072983D01*
X172495894Y-46142090D01*
X172533907Y-46167561D01*
X172585403Y-46170550D01*
X172654510Y-46178609D01*
X172679981Y-46216622D01*
X172682970Y-46268117D01*
X172691029Y-46337224D01*
X172729042Y-46362696D01*
X172780537Y-46365685D01*
X172878105Y-46365685D01*
X172878105Y-46560819D01*
X172878105Y-46755953D01*
X172975672Y-46755953D01*
X173073239Y-46755953D01*
X173073239Y-46560819D01*
X173073239Y-46365685D01*
X173170806Y-46365685D01*
X173268373Y-46365685D01*
X173268373Y-46755953D01*
X173268373Y-47146222D01*
X173170806Y-47146222D01*
X173101699Y-47138164D01*
X173076228Y-47100151D01*
X173073239Y-47048655D01*
X173065180Y-46979548D01*
X173027167Y-46954077D01*
X172975672Y-46951088D01*
X172906565Y-46959147D01*
X172881094Y-46997160D01*
X172878105Y-47048655D01*
X172870046Y-47117762D01*
X172832033Y-47143233D01*
X172780537Y-47146222D01*
X172711431Y-47154281D01*
X172685959Y-47192294D01*
X172682970Y-47243790D01*
X172691029Y-47312896D01*
X172729042Y-47338368D01*
X172780537Y-47341357D01*
X172878105Y-47341357D01*
X172878105Y-47536491D01*
X172878105Y-47731626D01*
X172975672Y-47731626D01*
X173044779Y-47723567D01*
X173070250Y-47685554D01*
X173073239Y-47634058D01*
X173081298Y-47564952D01*
X173119311Y-47539480D01*
X173170806Y-47536491D01*
X173239913Y-47528433D01*
X173265384Y-47490420D01*
X173268373Y-47438924D01*
X173268373Y-47341357D01*
X173463508Y-47341357D01*
X173658642Y-47341357D01*
X173658642Y-47146222D01*
X173658642Y-46951088D01*
X173756210Y-46951088D01*
X173825316Y-46959147D01*
X173850788Y-46997160D01*
X173853777Y-47048655D01*
X173861835Y-47117762D01*
X173899848Y-47143233D01*
X173951344Y-47146222D01*
X174020451Y-47138164D01*
X174045922Y-47100151D01*
X174048911Y-47048655D01*
X174048911Y-46951088D01*
X174536747Y-46951088D01*
X175024583Y-46951088D01*
X175024583Y-47048655D01*
X175016525Y-47117762D01*
X174978512Y-47143233D01*
X174927016Y-47146222D01*
X174857909Y-47154281D01*
X174832438Y-47192294D01*
X174829449Y-47243790D01*
X174837508Y-47312896D01*
X174875521Y-47338368D01*
X174927016Y-47341357D01*
X174996123Y-47349415D01*
X175021594Y-47387428D01*
X175024583Y-47438924D01*
X175024583Y-47536491D01*
X175219718Y-47536491D01*
X175414852Y-47536491D01*
X175414852Y-47634058D01*
X175422911Y-47703165D01*
X175460924Y-47728637D01*
X175512420Y-47731626D01*
X175581526Y-47739684D01*
X175606998Y-47777697D01*
X175609987Y-47829193D01*
X175601928Y-47898300D01*
X175563915Y-47923771D01*
X175512420Y-47926760D01*
X175443313Y-47934819D01*
X175417841Y-47972832D01*
X175414852Y-48024327D01*
X175406794Y-48093434D01*
X175368781Y-48118906D01*
X175317285Y-48121895D01*
X175219718Y-48121895D01*
X175219718Y-48317029D01*
X175219718Y-48512163D01*
X175414852Y-48512163D01*
X175609987Y-48512163D01*
X175609987Y-48609731D01*
X175601928Y-48678838D01*
X175563915Y-48704309D01*
X175512420Y-48707298D01*
X175443313Y-48715357D01*
X175417841Y-48753370D01*
X175414852Y-48804865D01*
X175414852Y-48902432D01*
X175024583Y-48902432D01*
X174634315Y-48902432D01*
X174634315Y-49195134D01*
X174634315Y-49487836D01*
X174731882Y-49487836D01*
X174800989Y-49479777D01*
X174826460Y-49441764D01*
X174829449Y-49390268D01*
X174837508Y-49321162D01*
X174875521Y-49295690D01*
X174927016Y-49292701D01*
X174996123Y-49284643D01*
X175021594Y-49246630D01*
X175024583Y-49195134D01*
X175024583Y-49097567D01*
X175219718Y-49097567D01*
X175414852Y-49097567D01*
X175414852Y-49195134D01*
X175406794Y-49264241D01*
X175368781Y-49289712D01*
X175317285Y-49292701D01*
X175248178Y-49300760D01*
X175222707Y-49338773D01*
X175219718Y-49390268D01*
X175219718Y-49487836D01*
X175024583Y-49487836D01*
X174829449Y-49487836D01*
X174829449Y-49585403D01*
X174829449Y-49682970D01*
X175024583Y-49682970D01*
X175219718Y-49682970D01*
X175219718Y-49780537D01*
X175227777Y-49849644D01*
X175265790Y-49875116D01*
X175317285Y-49878105D01*
X175414852Y-49878105D01*
X175414852Y-50073239D01*
X175414852Y-50268373D01*
X175122151Y-50268373D01*
X174829449Y-50268373D01*
X174829449Y-50365941D01*
X174837508Y-50435048D01*
X174875521Y-50460519D01*
X174927016Y-50463508D01*
X174996123Y-50471567D01*
X175021594Y-50509580D01*
X175024583Y-50561075D01*
X175032642Y-50630182D01*
X175070655Y-50655653D01*
X175122151Y-50658642D01*
X175219718Y-50658642D01*
X175219718Y-50853777D01*
X175219718Y-51048911D01*
X175122151Y-51048911D01*
X175024583Y-51048911D01*
X175024583Y-50853777D01*
X175024583Y-50658642D01*
X174927016Y-50658642D01*
X174829449Y-50658642D01*
X174829449Y-51048911D01*
X174829449Y-51439180D01*
X175122151Y-51439180D01*
X175414852Y-51439180D01*
X175414852Y-51634315D01*
X175414852Y-51829449D01*
X175219718Y-51829449D01*
X175024583Y-51829449D01*
X175024583Y-51927016D01*
X175032642Y-51996123D01*
X175070655Y-52021594D01*
X175122151Y-52024583D01*
X175191257Y-52032642D01*
X175216729Y-52070655D01*
X175219718Y-52122151D01*
X175227777Y-52191257D01*
X175265790Y-52216729D01*
X175317285Y-52219718D01*
X175386392Y-52227777D01*
X175411863Y-52265790D01*
X175414852Y-52317285D01*
X175422911Y-52386392D01*
X175460924Y-52411863D01*
X175512420Y-52414852D01*
X175581526Y-52422911D01*
X175606998Y-52460924D01*
X175609987Y-52512420D01*
X175609987Y-52609987D01*
X175317285Y-52609987D01*
X175024583Y-52609987D01*
X175024583Y-52317285D01*
X175024583Y-52024583D01*
X174927016Y-52024583D01*
X174857909Y-52016525D01*
X174832438Y-51978512D01*
X174829449Y-51927016D01*
X174821390Y-51857909D01*
X174783377Y-51832438D01*
X174731882Y-51829449D01*
X174662775Y-51837508D01*
X174637304Y-51875521D01*
X174634315Y-51927016D01*
X174626256Y-51996123D01*
X174588243Y-52021594D01*
X174536747Y-52024583D01*
X174467641Y-52032642D01*
X174442169Y-52070655D01*
X174439180Y-52122151D01*
X174431121Y-52191257D01*
X174393108Y-52216729D01*
X174341613Y-52219718D01*
X174244046Y-52219718D01*
X174244046Y-52414852D01*
X174244046Y-52609987D01*
X174146478Y-52609987D01*
X174048911Y-52609987D01*
X174048911Y-52219718D01*
X174048911Y-51829449D01*
X173951344Y-51829449D01*
X173853777Y-51829449D01*
X173853777Y-51536747D01*
X173853777Y-51244046D01*
X173756210Y-51244046D01*
X173687103Y-51252104D01*
X173661631Y-51290117D01*
X173658642Y-51341613D01*
X173658642Y-51439180D01*
X173365941Y-51439180D01*
X173073239Y-51439180D01*
X173073239Y-51536747D01*
X173065180Y-51605854D01*
X173027167Y-51631326D01*
X172975672Y-51634315D01*
X172906565Y-51626256D01*
X172881094Y-51588243D01*
X172878105Y-51536747D01*
X172870046Y-51467641D01*
X172832033Y-51442169D01*
X172780537Y-51439180D01*
X172711431Y-51447239D01*
X172685959Y-51485252D01*
X172682970Y-51536747D01*
X172674911Y-51605854D01*
X172636898Y-51631326D01*
X172585403Y-51634315D01*
X172516296Y-51642373D01*
X172490825Y-51680386D01*
X172487836Y-51731882D01*
X172479777Y-51800989D01*
X172441764Y-51826460D01*
X172390268Y-51829449D01*
X172292701Y-51829449D01*
X172292701Y-52024583D01*
X172292701Y-52219718D01*
X172390268Y-52219718D01*
X172459375Y-52211659D01*
X172484847Y-52173646D01*
X172487836Y-52122151D01*
X172495894Y-52053044D01*
X172533907Y-52027572D01*
X172585403Y-52024583D01*
X172682970Y-52024583D01*
X172682970Y-52219718D01*
X172682970Y-52414852D01*
X172780537Y-52414852D01*
X172878105Y-52414852D01*
X172878105Y-52219718D01*
X172878105Y-52024583D01*
X172780537Y-52024583D01*
X172682970Y-52024583D01*
X172585403Y-52024583D01*
X172654510Y-52016525D01*
X172679981Y-51978512D01*
X172682970Y-51927016D01*
X172682970Y-51829449D01*
X172878105Y-51829449D01*
X173073239Y-51829449D01*
X173073239Y-51927016D01*
X173081298Y-51996123D01*
X173119311Y-52021594D01*
X173170806Y-52024583D01*
X173239913Y-52016525D01*
X173265384Y-51978512D01*
X173268373Y-51927016D01*
X173276432Y-51857909D01*
X173314445Y-51832438D01*
X173365941Y-51829449D01*
X173435048Y-51821390D01*
X173460519Y-51783377D01*
X173463508Y-51731882D01*
X173471567Y-51662775D01*
X173509580Y-51637304D01*
X173561075Y-51634315D01*
X173630182Y-51642373D01*
X173655653Y-51680386D01*
X173658642Y-51731882D01*
X173650584Y-51800989D01*
X173612571Y-51826460D01*
X173561075Y-51829449D01*
X173491968Y-51837508D01*
X173466497Y-51875521D01*
X173463508Y-51927016D01*
X173463508Y-52024583D01*
X173658642Y-52024583D01*
X173853777Y-52024583D01*
X173853777Y-52219718D01*
X173853777Y-52414852D01*
X173756210Y-52414852D01*
X173687103Y-52406794D01*
X173661631Y-52368781D01*
X173658642Y-52317285D01*
X173650584Y-52248178D01*
X173612571Y-52222707D01*
X173561075Y-52219718D01*
X173491968Y-52211659D01*
X173466497Y-52173646D01*
X173463508Y-52122151D01*
X173455449Y-52053044D01*
X173417436Y-52027572D01*
X173365941Y-52024583D01*
X173296834Y-52032642D01*
X173271362Y-52070655D01*
X173268373Y-52122151D01*
X173260315Y-52191257D01*
X173222302Y-52216729D01*
X173170806Y-52219718D01*
X173101699Y-52227777D01*
X173076228Y-52265790D01*
X173073239Y-52317285D01*
X173081298Y-52386392D01*
X173119311Y-52411863D01*
X173170806Y-52414852D01*
X173239913Y-52422911D01*
X173265384Y-52460924D01*
X173268373Y-52512420D01*
X173260315Y-52581526D01*
X173222302Y-52606998D01*
X173170806Y-52609987D01*
X173101699Y-52601928D01*
X173076228Y-52563915D01*
X173073239Y-52512420D01*
X173065180Y-52443313D01*
X173027167Y-52417841D01*
X172975672Y-52414852D01*
X172906565Y-52422911D01*
X172881094Y-52460924D01*
X172878105Y-52512420D01*
X172878105Y-52609987D01*
X172682970Y-52609987D01*
X172487836Y-52609987D01*
X172487836Y-52512420D01*
X172487836Y-52414852D01*
X172292701Y-52414852D01*
X172097567Y-52414852D01*
X172097567Y-52317285D01*
X172089508Y-52248178D01*
X172051495Y-52222707D01*
X172000000Y-52219718D01*
X171902432Y-52219718D01*
X171902432Y-52414852D01*
X171902432Y-52609987D01*
X171707298Y-52609987D01*
X171512163Y-52609987D01*
X171512163Y-52512420D01*
X171504105Y-52443313D01*
X171466092Y-52417841D01*
X171414596Y-52414852D01*
X171345489Y-52422911D01*
X171320018Y-52460924D01*
X171317029Y-52512420D01*
X171308970Y-52581526D01*
X171270957Y-52606998D01*
X171219462Y-52609987D01*
X171150355Y-52601928D01*
X171124884Y-52563915D01*
X171121895Y-52512420D01*
X171113836Y-52443313D01*
X171075823Y-52417841D01*
X171024327Y-52414852D01*
X170955221Y-52422911D01*
X170929749Y-52460924D01*
X170926760Y-52512420D01*
X170926760Y-52609987D01*
X170731626Y-52609987D01*
X170536491Y-52609987D01*
X170536491Y-52414852D01*
X170536491Y-52219718D01*
X170341357Y-52219718D01*
X170146222Y-52219718D01*
X170146222Y-52122151D01*
X170154281Y-52053044D01*
X170192294Y-52027572D01*
X170243790Y-52024583D01*
X170312896Y-52016525D01*
X170338368Y-51978512D01*
X170341357Y-51927016D01*
X170341357Y-51829449D01*
X170146222Y-51829449D01*
X169951088Y-51829449D01*
X169951088Y-51731882D01*
X170341357Y-51731882D01*
X170349415Y-51800989D01*
X170387428Y-51826460D01*
X170438924Y-51829449D01*
X170508031Y-51821390D01*
X170533502Y-51783377D01*
X170536491Y-51731882D01*
X170528433Y-51662775D01*
X170490420Y-51637304D01*
X170438924Y-51634315D01*
X170369817Y-51642373D01*
X170344346Y-51680386D01*
X170341357Y-51731882D01*
X169951088Y-51731882D01*
X169959147Y-51662775D01*
X169997160Y-51637304D01*
X170048655Y-51634315D01*
X170117762Y-51626256D01*
X170143233Y-51588243D01*
X170146222Y-51536747D01*
X170138164Y-51467641D01*
X170100151Y-51442169D01*
X170048655Y-51439180D01*
X169951088Y-51439180D01*
X169951088Y-51244046D01*
X169951088Y-51048911D01*
X170048655Y-51048911D01*
X170117762Y-51056970D01*
X170143233Y-51094983D01*
X170146222Y-51146478D01*
X170154281Y-51215585D01*
X170192294Y-51241057D01*
X170243790Y-51244046D01*
X170312896Y-51252104D01*
X170338368Y-51290117D01*
X170341357Y-51341613D01*
X170349415Y-51410720D01*
X170387428Y-51436191D01*
X170438924Y-51439180D01*
X170508031Y-51431121D01*
X170533502Y-51393108D01*
X170536491Y-51341613D01*
X170544550Y-51272506D01*
X170582563Y-51247035D01*
X170634058Y-51244046D01*
X170731626Y-51244046D01*
X170731626Y-51536747D01*
X170731626Y-51829449D01*
X170926760Y-51829449D01*
X171121895Y-51829449D01*
X171121895Y-51731882D01*
X171113836Y-51662775D01*
X171075823Y-51637304D01*
X171024327Y-51634315D01*
X170955221Y-51626256D01*
X170929749Y-51588243D01*
X170926760Y-51536747D01*
X170934819Y-51467641D01*
X170972832Y-51442169D01*
X171024327Y-51439180D01*
X171093434Y-51431121D01*
X171118906Y-51393108D01*
X171121895Y-51341613D01*
X171113836Y-51272506D01*
X171075823Y-51247035D01*
X171024327Y-51244046D01*
X170955221Y-51235987D01*
X170929749Y-51197974D01*
X170926760Y-51146478D01*
X170926760Y-51048911D01*
X171121895Y-51048911D01*
X171317029Y-51048911D01*
X171317029Y-50951344D01*
X171308970Y-50882237D01*
X171270957Y-50856766D01*
X171219462Y-50853777D01*
X171121895Y-50853777D01*
X171121895Y-50365941D01*
X171121895Y-49878105D01*
X171024327Y-49878105D01*
X170926760Y-49878105D01*
X170926760Y-50170806D01*
X170926760Y-50463508D01*
X170634058Y-50463508D01*
X170341357Y-50463508D01*
X170341357Y-50561075D01*
X170349415Y-50630182D01*
X170387428Y-50655653D01*
X170438924Y-50658642D01*
X170508031Y-50666701D01*
X170533502Y-50704714D01*
X170536491Y-50756210D01*
X170528433Y-50825316D01*
X170490420Y-50850788D01*
X170438924Y-50853777D01*
X170369817Y-50845718D01*
X170344346Y-50807705D01*
X170341357Y-50756210D01*
X170333298Y-50687103D01*
X170295285Y-50661631D01*
X170243790Y-50658642D01*
X170146222Y-50658642D01*
X170146222Y-50365941D01*
X170146222Y-50073239D01*
X170048655Y-50073239D01*
X169951088Y-50073239D01*
X169951088Y-49878105D01*
X169951088Y-49682970D01*
X169853521Y-49682970D01*
X169784414Y-49691029D01*
X169758942Y-49729042D01*
X169755953Y-49780537D01*
X169747895Y-49849644D01*
X169709882Y-49875116D01*
X169658386Y-49878105D01*
X169589279Y-49886163D01*
X169563808Y-49924176D01*
X169560819Y-49975672D01*
X169568878Y-50044779D01*
X169606891Y-50070250D01*
X169658386Y-50073239D01*
X169727493Y-50081298D01*
X169752964Y-50119311D01*
X169755953Y-50170806D01*
X169764012Y-50239913D01*
X169802025Y-50265384D01*
X169853521Y-50268373D01*
X169951088Y-50268373D01*
X169951088Y-50463508D01*
X169951088Y-50658642D01*
X169755953Y-50658642D01*
X169560819Y-50658642D01*
X169560819Y-50561075D01*
X169552760Y-50491968D01*
X169514747Y-50466497D01*
X169463252Y-50463508D01*
X169394145Y-50455449D01*
X169368674Y-50417436D01*
X169365685Y-50365941D01*
X169365685Y-50268373D01*
X169072983Y-50268373D01*
X168780281Y-50268373D01*
X168780281Y-50170806D01*
X168788340Y-50101699D01*
X168826353Y-50076228D01*
X168877848Y-50073239D01*
X168946955Y-50065180D01*
X168972427Y-50027167D01*
X168975416Y-49975672D01*
X169170550Y-49975672D01*
X169178609Y-50044779D01*
X169216622Y-50070250D01*
X169268117Y-50073239D01*
X169337224Y-50081298D01*
X169362696Y-50119311D01*
X169365685Y-50170806D01*
X169373743Y-50239913D01*
X169411756Y-50265384D01*
X169463252Y-50268373D01*
X169532359Y-50276432D01*
X169557830Y-50314445D01*
X169560819Y-50365941D01*
X169568878Y-50435048D01*
X169606891Y-50460519D01*
X169658386Y-50463508D01*
X169727493Y-50455449D01*
X169752964Y-50417436D01*
X169755953Y-50365941D01*
X169747895Y-50296834D01*
X169709882Y-50271362D01*
X169658386Y-50268373D01*
X169589279Y-50260315D01*
X169563808Y-50222302D01*
X169560819Y-50170806D01*
X169552760Y-50101699D01*
X169514747Y-50076228D01*
X169463252Y-50073239D01*
X169394145Y-50065180D01*
X169368674Y-50027167D01*
X169365685Y-49975672D01*
X169373743Y-49906565D01*
X169411756Y-49881094D01*
X169463252Y-49878105D01*
X169532359Y-49870046D01*
X169557830Y-49832033D01*
X169560819Y-49780537D01*
X169568878Y-49711431D01*
X169606891Y-49685959D01*
X169658386Y-49682970D01*
X169727493Y-49674911D01*
X169752964Y-49636898D01*
X169755953Y-49585403D01*
X169951088Y-49585403D01*
X169959147Y-49654510D01*
X169997160Y-49679981D01*
X170048655Y-49682970D01*
X170117762Y-49674911D01*
X170143233Y-49636898D01*
X170146222Y-49585403D01*
X170138164Y-49516296D01*
X170100151Y-49490825D01*
X170048655Y-49487836D01*
X169979548Y-49495894D01*
X169954077Y-49533907D01*
X169951088Y-49585403D01*
X169755953Y-49585403D01*
X169747895Y-49516296D01*
X169709882Y-49490825D01*
X169658386Y-49487836D01*
X169589279Y-49495894D01*
X169563808Y-49533907D01*
X169560819Y-49585403D01*
X169552760Y-49654510D01*
X169514747Y-49679981D01*
X169463252Y-49682970D01*
X169394145Y-49691029D01*
X169368674Y-49729042D01*
X169365685Y-49780537D01*
X169357626Y-49849644D01*
X169319613Y-49875116D01*
X169268117Y-49878105D01*
X169199011Y-49886163D01*
X169173539Y-49924176D01*
X169170550Y-49975672D01*
X168975416Y-49975672D01*
X168983474Y-49906565D01*
X169021487Y-49881094D01*
X169072983Y-49878105D01*
X169170550Y-49878105D01*
X169170550Y-49682970D01*
X169170550Y-49487836D01*
X168877848Y-49487836D01*
X168585147Y-49487836D01*
X168585147Y-49585403D01*
X168593205Y-49654510D01*
X168631218Y-49679981D01*
X168682714Y-49682970D01*
X168751821Y-49691029D01*
X168777292Y-49729042D01*
X168780281Y-49780537D01*
X168772223Y-49849644D01*
X168734210Y-49875116D01*
X168682714Y-49878105D01*
X168585147Y-49878105D01*
X168585147Y-50170806D01*
X168585147Y-50463508D01*
X168487580Y-50463508D01*
X168390012Y-50463508D01*
X168390012Y-50170806D01*
X168390012Y-49878105D01*
X168487580Y-49878105D01*
X168556686Y-49870046D01*
X168582158Y-49832033D01*
X168585147Y-49780537D01*
X168577088Y-49711431D01*
X168539075Y-49685959D01*
X168487580Y-49682970D01*
X168418473Y-49674911D01*
X168393001Y-49636898D01*
X168390012Y-49585403D01*
X168398071Y-49516296D01*
X168436084Y-49490825D01*
X168487580Y-49487836D01*
X168556686Y-49479777D01*
X168582158Y-49441764D01*
X168585147Y-49390268D01*
X168585147Y-49292701D01*
X168877848Y-49292701D01*
X169170550Y-49292701D01*
X169170550Y-49195134D01*
X169162492Y-49126027D01*
X169124479Y-49100556D01*
X169072983Y-49097567D01*
X169170550Y-49097567D01*
X169365685Y-49097567D01*
X169560819Y-49097567D01*
X169560819Y-49195134D01*
X169568878Y-49264241D01*
X169606891Y-49289712D01*
X169658386Y-49292701D01*
X169727493Y-49284643D01*
X169752964Y-49246630D01*
X169755953Y-49195134D01*
X169764012Y-49126027D01*
X169802025Y-49100556D01*
X169853521Y-49097567D01*
X169922628Y-49105625D01*
X169948099Y-49143638D01*
X169951088Y-49195134D01*
X169959147Y-49264241D01*
X169997160Y-49289712D01*
X170048655Y-49292701D01*
X170117762Y-49284643D01*
X170143233Y-49246630D01*
X170146222Y-49195134D01*
X170154281Y-49126027D01*
X170192294Y-49100556D01*
X170243790Y-49097567D01*
X170312896Y-49105625D01*
X170338368Y-49143638D01*
X170341357Y-49195134D01*
X170349415Y-49264241D01*
X170387428Y-49289712D01*
X170438924Y-49292701D01*
X170508031Y-49300760D01*
X170533502Y-49338773D01*
X170536491Y-49390268D01*
X170528433Y-49459375D01*
X170490420Y-49484847D01*
X170438924Y-49487836D01*
X170369817Y-49495894D01*
X170344346Y-49533907D01*
X170341357Y-49585403D01*
X170349415Y-49654510D01*
X170387428Y-49679981D01*
X170438924Y-49682970D01*
X170508031Y-49691029D01*
X170533502Y-49729042D01*
X170536491Y-49780537D01*
X170536491Y-49878105D01*
X170341357Y-49878105D01*
X170146222Y-49878105D01*
X170146222Y-49975672D01*
X170146222Y-50073239D01*
X170341357Y-50073239D01*
X170536491Y-50073239D01*
X170536491Y-49975672D01*
X170536491Y-49878105D01*
X170731626Y-49878105D01*
X170926760Y-49878105D01*
X170926760Y-49780537D01*
X170926760Y-49682970D01*
X171121895Y-49682970D01*
X171317029Y-49682970D01*
X171317029Y-49585403D01*
X171317029Y-49487836D01*
X171512163Y-49487836D01*
X171707298Y-49487836D01*
X171707298Y-49585403D01*
X171715357Y-49654510D01*
X171753370Y-49679981D01*
X171804865Y-49682970D01*
X171873972Y-49691029D01*
X171899443Y-49729042D01*
X171902432Y-49780537D01*
X171902432Y-49878105D01*
X172097567Y-49878105D01*
X172292701Y-49878105D01*
X172292701Y-49780537D01*
X172300760Y-49711431D01*
X172338773Y-49685959D01*
X172390268Y-49682970D01*
X172487836Y-49682970D01*
X172487836Y-49878105D01*
X172487836Y-50073239D01*
X172292701Y-50073239D01*
X172097567Y-50073239D01*
X172097567Y-50170806D01*
X172089508Y-50239913D01*
X172051495Y-50265384D01*
X172000000Y-50268373D01*
X171930893Y-50260315D01*
X171905421Y-50222302D01*
X171902432Y-50170806D01*
X171902432Y-50073239D01*
X171707298Y-50073239D01*
X171512163Y-50073239D01*
X171512163Y-49975672D01*
X171504105Y-49906565D01*
X171466092Y-49881094D01*
X171414596Y-49878105D01*
X171317029Y-49878105D01*
X171317029Y-50365941D01*
X171317029Y-50853777D01*
X171512163Y-50853777D01*
X171707298Y-50853777D01*
X171707298Y-50756210D01*
X171715357Y-50687103D01*
X171753370Y-50661631D01*
X171804865Y-50658642D01*
X171873972Y-50650584D01*
X171899443Y-50612571D01*
X171902432Y-50561075D01*
X171910491Y-50491968D01*
X171948504Y-50466497D01*
X172000000Y-50463508D01*
X172097567Y-50463508D01*
X172097567Y-50658642D01*
X172097567Y-50853777D01*
X172000000Y-50853777D01*
X171930893Y-50861835D01*
X171905421Y-50899848D01*
X171902432Y-50951344D01*
X171910491Y-51020451D01*
X171948504Y-51045922D01*
X172000000Y-51048911D01*
X172097567Y-51048911D01*
X172097567Y-51244046D01*
X172097567Y-51439180D01*
X172000000Y-51439180D01*
X171930893Y-51431121D01*
X171905421Y-51393108D01*
X171902432Y-51341613D01*
X171894374Y-51272506D01*
X171856361Y-51247035D01*
X171804865Y-51244046D01*
X171735758Y-51252104D01*
X171710287Y-51290117D01*
X171707298Y-51341613D01*
X171699239Y-51410720D01*
X171661226Y-51436191D01*
X171609731Y-51439180D01*
X171540624Y-51447239D01*
X171515152Y-51485252D01*
X171512163Y-51536747D01*
X171504105Y-51605854D01*
X171466092Y-51631326D01*
X171414596Y-51634315D01*
X171345489Y-51626256D01*
X171320018Y-51588243D01*
X171317029Y-51536747D01*
X171308970Y-51467641D01*
X171270957Y-51442169D01*
X171219462Y-51439180D01*
X171150355Y-51447239D01*
X171124884Y-51485252D01*
X171121895Y-51536747D01*
X171129953Y-51605854D01*
X171167966Y-51631326D01*
X171219462Y-51634315D01*
X171317029Y-51634315D01*
X171317029Y-51829449D01*
X171317029Y-52024583D01*
X171024327Y-52024583D01*
X170731626Y-52024583D01*
X170731626Y-52122151D01*
X170731626Y-52219718D01*
X171024327Y-52219718D01*
X171317029Y-52219718D01*
X171317029Y-52122151D01*
X171325088Y-52053044D01*
X171363101Y-52027572D01*
X171414596Y-52024583D01*
X171483703Y-52032642D01*
X171509174Y-52070655D01*
X171512163Y-52122151D01*
X171512163Y-52219718D01*
X171707298Y-52219718D01*
X171902432Y-52219718D01*
X171902432Y-52122151D01*
X171894374Y-52053044D01*
X171856361Y-52027572D01*
X171804865Y-52024583D01*
X171735758Y-52016525D01*
X171710287Y-51978512D01*
X171707298Y-51927016D01*
X171707298Y-51829449D01*
X171902432Y-51829449D01*
X172097567Y-51829449D01*
X172097567Y-51634315D01*
X172097567Y-51439180D01*
X172195134Y-51439180D01*
X172264241Y-51447239D01*
X172289712Y-51485252D01*
X172292701Y-51536747D01*
X172300760Y-51605854D01*
X172338773Y-51631326D01*
X172390268Y-51634315D01*
X172487836Y-51634315D01*
X172487836Y-51439180D01*
X172487836Y-51244046D01*
X172682970Y-51244046D01*
X172878105Y-51244046D01*
X172878105Y-51146478D01*
X172886163Y-51077372D01*
X172924176Y-51051900D01*
X172975672Y-51048911D01*
X173044779Y-51056970D01*
X173070250Y-51094983D01*
X173073239Y-51146478D01*
X173073239Y-51244046D01*
X173365941Y-51244046D01*
X173658642Y-51244046D01*
X173658642Y-51048911D01*
X174048911Y-51048911D01*
X174048911Y-51341613D01*
X174048911Y-51634315D01*
X174341613Y-51634315D01*
X174634315Y-51634315D01*
X174634315Y-51341613D01*
X174634315Y-51048911D01*
X174341613Y-51048911D01*
X174048911Y-51048911D01*
X173658642Y-51048911D01*
X173658642Y-50853777D01*
X173853777Y-50853777D01*
X174048911Y-50853777D01*
X174048911Y-50756210D01*
X174056970Y-50687103D01*
X174094983Y-50661631D01*
X174146478Y-50658642D01*
X174215585Y-50666701D01*
X174241057Y-50704714D01*
X174244046Y-50756210D01*
X174252104Y-50825316D01*
X174290117Y-50850788D01*
X174341613Y-50853777D01*
X174410720Y-50845718D01*
X174436191Y-50807705D01*
X174439180Y-50756210D01*
X174439180Y-50658642D01*
X174634315Y-50658642D01*
X174829449Y-50658642D01*
X174829449Y-50561075D01*
X174821390Y-50491968D01*
X174783377Y-50466497D01*
X174731882Y-50463508D01*
X174662775Y-50455449D01*
X174637304Y-50417436D01*
X174634315Y-50365941D01*
X174642373Y-50296834D01*
X174680386Y-50271362D01*
X174731882Y-50268373D01*
X174800989Y-50260315D01*
X174826460Y-50222302D01*
X174829449Y-50170806D01*
X174837508Y-50101699D01*
X174875521Y-50076228D01*
X174927016Y-50073239D01*
X174996123Y-50065180D01*
X175021594Y-50027167D01*
X175024583Y-49975672D01*
X175016525Y-49906565D01*
X174978512Y-49881094D01*
X174927016Y-49878105D01*
X174857909Y-49886163D01*
X174832438Y-49924176D01*
X174829449Y-49975672D01*
X174821390Y-50044779D01*
X174783377Y-50070250D01*
X174731882Y-50073239D01*
X174662775Y-50081298D01*
X174637304Y-50119311D01*
X174634315Y-50170806D01*
X174634315Y-50268373D01*
X174439180Y-50268373D01*
X174244046Y-50268373D01*
X174244046Y-50365941D01*
X174244046Y-50463508D01*
X174048911Y-50463508D01*
X173853777Y-50463508D01*
X173853777Y-50561075D01*
X173845718Y-50630182D01*
X173807705Y-50655653D01*
X173756210Y-50658642D01*
X173687103Y-50666701D01*
X173661631Y-50704714D01*
X173658642Y-50756210D01*
X173650584Y-50825316D01*
X173612571Y-50850788D01*
X173561075Y-50853777D01*
X173491968Y-50845718D01*
X173466497Y-50807705D01*
X173463508Y-50756210D01*
X173455449Y-50687103D01*
X173417436Y-50661631D01*
X173365941Y-50658642D01*
X173296834Y-50666701D01*
X173271362Y-50704714D01*
X173268373Y-50756210D01*
X173276432Y-50825316D01*
X173314445Y-50850788D01*
X173365941Y-50853777D01*
X173435048Y-50861835D01*
X173460519Y-50899848D01*
X173463508Y-50951344D01*
X173463508Y-51048911D01*
X173268373Y-51048911D01*
X173073239Y-51048911D01*
X173073239Y-50853777D01*
X173073239Y-50658642D01*
X172878105Y-50658642D01*
X172682970Y-50658642D01*
X172682970Y-50756210D01*
X172691029Y-50825316D01*
X172729042Y-50850788D01*
X172780537Y-50853777D01*
X172849644Y-50861835D01*
X172875116Y-50899848D01*
X172878105Y-50951344D01*
X172878105Y-51048911D01*
X172682970Y-51048911D01*
X172487836Y-51048911D01*
X172487836Y-51146478D01*
X172479777Y-51215585D01*
X172441764Y-51241057D01*
X172390268Y-51244046D01*
X172321162Y-51235987D01*
X172295690Y-51197974D01*
X172292701Y-51146478D01*
X172284643Y-51077372D01*
X172246630Y-51051900D01*
X172195134Y-51048911D01*
X172126027Y-51040853D01*
X172100556Y-51002840D01*
X172097567Y-50951344D01*
X172097567Y-50853777D01*
X172292701Y-50853777D01*
X172487836Y-50853777D01*
X172487836Y-50756210D01*
X172479777Y-50687103D01*
X172441764Y-50661631D01*
X172390268Y-50658642D01*
X172321162Y-50650584D01*
X172295690Y-50612571D01*
X172292701Y-50561075D01*
X172284643Y-50491968D01*
X172246630Y-50466497D01*
X172195134Y-50463508D01*
X172126027Y-50455449D01*
X172100556Y-50417436D01*
X172097567Y-50365941D01*
X172097567Y-50268373D01*
X172390268Y-50268373D01*
X172682970Y-50268373D01*
X172682970Y-50365941D01*
X172691029Y-50435048D01*
X172729042Y-50460519D01*
X172780537Y-50463508D01*
X172849644Y-50455449D01*
X172875116Y-50417436D01*
X172878105Y-50365941D01*
X172886163Y-50296834D01*
X172924176Y-50271362D01*
X172975672Y-50268373D01*
X173044779Y-50276432D01*
X173070250Y-50314445D01*
X173073239Y-50365941D01*
X173073239Y-50463508D01*
X173268373Y-50463508D01*
X173463508Y-50463508D01*
X173463508Y-50268373D01*
X173463508Y-50073239D01*
X173561075Y-50073239D01*
X173630182Y-50081298D01*
X173655653Y-50119311D01*
X173658642Y-50170806D01*
X173666701Y-50239913D01*
X173704714Y-50265384D01*
X173756210Y-50268373D01*
X173825316Y-50260315D01*
X173850788Y-50222302D01*
X173853777Y-50170806D01*
X173853777Y-50073239D01*
X174146478Y-50073239D01*
X174439180Y-50073239D01*
X174439180Y-49780537D01*
X174439180Y-49487836D01*
X174341613Y-49487836D01*
X174272506Y-49495894D01*
X174247035Y-49533907D01*
X174244046Y-49585403D01*
X174244046Y-49682970D01*
X174048911Y-49682970D01*
X173853777Y-49682970D01*
X173853777Y-49878105D01*
X173853777Y-50073239D01*
X173756210Y-50073239D01*
X173658642Y-50073239D01*
X173658642Y-49878105D01*
X173658642Y-49682970D01*
X173463508Y-49682970D01*
X173268373Y-49682970D01*
X173268373Y-49585403D01*
X173276432Y-49516296D01*
X173314445Y-49490825D01*
X173365941Y-49487836D01*
X173463508Y-49487836D01*
X173658642Y-49487836D01*
X173853777Y-49487836D01*
X174048911Y-49487836D01*
X174048911Y-49390268D01*
X174048911Y-49292701D01*
X174244046Y-49292701D01*
X174439180Y-49292701D01*
X174439180Y-49195134D01*
X174439180Y-49097567D01*
X174146478Y-49097567D01*
X173853777Y-49097567D01*
X173853777Y-49195134D01*
X173845718Y-49264241D01*
X173807705Y-49289712D01*
X173756210Y-49292701D01*
X173687103Y-49300760D01*
X173661631Y-49338773D01*
X173658642Y-49390268D01*
X173658642Y-49487836D01*
X173463508Y-49487836D01*
X173463508Y-49195134D01*
X173463508Y-48902432D01*
X173561075Y-48902432D01*
X173630182Y-48894374D01*
X173655653Y-48856361D01*
X173658642Y-48804865D01*
X173658642Y-48707298D01*
X173853777Y-48707298D01*
X174048911Y-48707298D01*
X174048911Y-48804865D01*
X174048911Y-48902432D01*
X174341613Y-48902432D01*
X174634315Y-48902432D01*
X174634315Y-48804865D01*
X174642373Y-48735758D01*
X174680386Y-48710287D01*
X174731882Y-48707298D01*
X174800989Y-48699239D01*
X174826460Y-48661226D01*
X174829449Y-48609731D01*
X174837508Y-48540624D01*
X174875521Y-48515152D01*
X174927016Y-48512163D01*
X174996123Y-48504105D01*
X175021594Y-48466092D01*
X175024583Y-48414596D01*
X175016525Y-48345489D01*
X174978512Y-48320018D01*
X174927016Y-48317029D01*
X174857909Y-48325088D01*
X174832438Y-48363101D01*
X174829449Y-48414596D01*
X174821390Y-48483703D01*
X174783377Y-48509174D01*
X174731882Y-48512163D01*
X174662775Y-48520222D01*
X174637304Y-48558235D01*
X174634315Y-48609731D01*
X174634315Y-48707298D01*
X174341613Y-48707298D01*
X174048911Y-48707298D01*
X174048911Y-48609731D01*
X174056970Y-48540624D01*
X174094983Y-48515152D01*
X174146478Y-48512163D01*
X174215585Y-48504105D01*
X174241057Y-48466092D01*
X174244046Y-48414596D01*
X174252104Y-48345489D01*
X174290117Y-48320018D01*
X174341613Y-48317029D01*
X174410720Y-48308970D01*
X174436191Y-48270957D01*
X174439180Y-48219462D01*
X174447239Y-48150355D01*
X174485252Y-48124884D01*
X174536747Y-48121895D01*
X174605854Y-48113836D01*
X174631326Y-48075823D01*
X174634315Y-48024327D01*
X174634315Y-47926760D01*
X174829449Y-47926760D01*
X175024583Y-47926760D01*
X175024583Y-48024327D01*
X175032642Y-48093434D01*
X175070655Y-48118906D01*
X175122151Y-48121895D01*
X175191257Y-48113836D01*
X175216729Y-48075823D01*
X175219718Y-48024327D01*
X175211659Y-47955221D01*
X175173646Y-47929749D01*
X175122151Y-47926760D01*
X175053044Y-47918702D01*
X175027572Y-47880688D01*
X175024583Y-47829193D01*
X175016525Y-47760086D01*
X174978512Y-47734615D01*
X174927016Y-47731626D01*
X174829449Y-47731626D01*
X174829449Y-47536491D01*
X174829449Y-47341357D01*
X174731882Y-47341357D01*
X174662775Y-47333298D01*
X174637304Y-47295285D01*
X174634315Y-47243790D01*
X174634315Y-47146222D01*
X174439180Y-47146222D01*
X174244046Y-47146222D01*
X174244046Y-47243790D01*
X174244046Y-47341357D01*
X174048911Y-47341357D01*
X173853777Y-47341357D01*
X173853777Y-47438924D01*
X173861835Y-47508031D01*
X173899848Y-47533502D01*
X173951344Y-47536491D01*
X174020451Y-47544550D01*
X174045922Y-47582563D01*
X174048911Y-47634058D01*
X174048911Y-47731626D01*
X173756210Y-47731626D01*
X173463508Y-47731626D01*
X173463508Y-47634058D01*
X173455449Y-47564952D01*
X173417436Y-47539480D01*
X173365941Y-47536491D01*
X173296834Y-47544550D01*
X173271362Y-47582563D01*
X173268373Y-47634058D01*
X173260315Y-47703165D01*
X173222302Y-47728637D01*
X173170806Y-47731626D01*
X173073239Y-47731626D01*
X173073239Y-47926760D01*
X173073239Y-48121895D01*
X173170806Y-48121895D01*
X173239913Y-48113836D01*
X173265384Y-48075823D01*
X173268373Y-48024327D01*
X173268373Y-47926760D01*
X173561075Y-47926760D01*
X173853777Y-47926760D01*
X173853777Y-48024327D01*
X173853777Y-48121895D01*
X174048911Y-48121895D01*
X174244046Y-48121895D01*
X174244046Y-48219462D01*
X174235987Y-48288569D01*
X174197974Y-48314040D01*
X174146478Y-48317029D01*
X174077372Y-48325088D01*
X174051900Y-48363101D01*
X174048911Y-48414596D01*
X174040853Y-48483703D01*
X174002840Y-48509174D01*
X173951344Y-48512163D01*
X173882237Y-48504105D01*
X173856766Y-48466092D01*
X173853777Y-48414596D01*
X173853777Y-48317029D01*
X173463508Y-48317029D01*
X173073239Y-48317029D01*
X173073239Y-48414596D01*
X173065180Y-48483703D01*
X173027167Y-48509174D01*
X172975672Y-48512163D01*
X172906565Y-48504105D01*
X172881094Y-48466092D01*
X172878105Y-48414596D01*
X172870046Y-48345489D01*
X172832033Y-48320018D01*
X172780537Y-48317029D01*
X172711431Y-48325088D01*
X172685959Y-48363101D01*
X172682970Y-48414596D01*
X172674911Y-48483703D01*
X172636898Y-48509174D01*
X172585403Y-48512163D01*
X172516296Y-48520222D01*
X172490825Y-48558235D01*
X172487836Y-48609731D01*
X172479777Y-48678838D01*
X172441764Y-48704309D01*
X172390268Y-48707298D01*
X172292701Y-48707298D01*
X172292701Y-48414596D01*
X172292701Y-48121895D01*
X172585403Y-48121895D01*
X172878105Y-48121895D01*
X172878105Y-48024327D01*
X172878105Y-47926760D01*
X172487836Y-47926760D01*
X172097567Y-47926760D01*
X172097567Y-47829193D01*
X172097567Y-47731626D01*
X172292701Y-47731626D01*
X172487836Y-47731626D01*
X172487836Y-47634058D01*
X172479777Y-47564952D01*
X172441764Y-47539480D01*
X172390268Y-47536491D01*
X172321162Y-47528433D01*
X172295690Y-47490420D01*
X172292701Y-47438924D01*
X172284643Y-47369817D01*
X172246630Y-47344346D01*
X172195134Y-47341357D01*
X172126027Y-47333298D01*
X172100556Y-47295285D01*
X172097567Y-47243790D01*
X172089508Y-47174683D01*
X172051495Y-47149211D01*
X172000000Y-47146222D01*
X171930893Y-47138164D01*
X171905421Y-47100151D01*
X171902432Y-47048655D01*
X171902432Y-46951088D01*
X171707298Y-46951088D01*
X171512163Y-46951088D01*
X171512163Y-46658386D01*
X171512163Y-46365685D01*
X171609731Y-46365685D01*
X171707298Y-46365685D01*
X171707298Y-46560819D01*
X171707298Y-46755953D01*
X171804865Y-46755953D01*
X171902432Y-46755953D01*
X171902432Y-46365685D01*
X171902432Y-46170550D01*
X172097567Y-46170550D01*
X172097567Y-46268117D01*
X172105625Y-46337224D01*
X172143638Y-46362696D01*
X172195134Y-46365685D01*
X172264241Y-46373743D01*
X172289712Y-46411756D01*
X172292701Y-46463252D01*
X172284643Y-46532359D01*
X172246630Y-46557830D01*
X172195134Y-46560819D01*
X172097567Y-46560819D01*
X172097567Y-46755953D01*
X172097567Y-46951088D01*
X172195134Y-46951088D01*
X172264241Y-46959147D01*
X172289712Y-46997160D01*
X172292701Y-47048655D01*
X172292701Y-47146222D01*
X172487836Y-47146222D01*
X172682970Y-47146222D01*
X172682970Y-46853521D01*
X172682970Y-46560819D01*
X172585403Y-46560819D01*
X172487836Y-46560819D01*
X172487836Y-46365685D01*
X172487836Y-46170550D01*
X172292701Y-46170550D01*
X172097567Y-46170550D01*
X171902432Y-46170550D01*
X171902432Y-45975416D01*
X172000000Y-45975416D01*
X172069106Y-45967357D01*
X172094578Y-45929344D01*
X172097567Y-45877848D01*
X172105625Y-45808742D01*
X172143638Y-45783270D01*
X172195134Y-45780281D01*
X172264241Y-45772223D01*
X172289712Y-45734210D01*
X172292701Y-45682714D01*
X172284643Y-45613607D01*
X172246630Y-45588136D01*
X172195134Y-45585147D01*
X172126027Y-45593205D01*
X172100556Y-45631218D01*
X172097567Y-45682714D01*
X172089508Y-45751821D01*
X172051495Y-45777292D01*
X172000000Y-45780281D01*
X171930893Y-45788340D01*
X171905421Y-45826353D01*
X171902432Y-45877848D01*
X171894374Y-45946955D01*
X171856361Y-45972427D01*
X171804865Y-45975416D01*
X171735758Y-45967357D01*
X171710287Y-45929344D01*
X171707298Y-45877848D01*
X171707298Y-45780281D01*
X171512163Y-45780281D01*
X171317029Y-45780281D01*
X171317029Y-45877848D01*
X171317029Y-45975416D01*
X171121895Y-45975416D01*
X170926760Y-45975416D01*
X170926760Y-45877848D01*
X170926760Y-45780281D01*
X170731626Y-45780281D01*
X170536491Y-45780281D01*
X170536491Y-45975416D01*
X170536491Y-46170550D01*
X170634058Y-46170550D01*
X170703165Y-46178609D01*
X170728637Y-46216622D01*
X170731626Y-46268117D01*
X170739684Y-46337224D01*
X170777697Y-46362696D01*
X170829193Y-46365685D01*
X170926760Y-46365685D01*
X170926760Y-46560819D01*
X170926760Y-46755953D01*
X170829193Y-46755953D01*
X170760086Y-46747895D01*
X170734615Y-46709882D01*
X170731626Y-46658386D01*
X170723567Y-46589279D01*
X170685554Y-46563808D01*
X170634058Y-46560819D01*
X170564952Y-46568878D01*
X170539480Y-46606891D01*
X170536491Y-46658386D01*
X170528433Y-46727493D01*
X170490420Y-46752964D01*
X170438924Y-46755953D01*
X170369817Y-46747895D01*
X170344346Y-46709882D01*
X170341357Y-46658386D01*
X170333298Y-46589279D01*
X170295285Y-46563808D01*
X170243790Y-46560819D01*
X170174683Y-46568878D01*
X170149211Y-46606891D01*
X170146222Y-46658386D01*
X170154281Y-46727493D01*
X170192294Y-46752964D01*
X170243790Y-46755953D01*
X170312896Y-46764012D01*
X170338368Y-46802025D01*
X170341357Y-46853521D01*
X170333298Y-46922628D01*
X170295285Y-46948099D01*
X170243790Y-46951088D01*
X170146222Y-46951088D01*
X170146222Y-47146222D01*
X170146222Y-47341357D01*
X169951088Y-47341357D01*
X169755953Y-47341357D01*
X169755953Y-47438924D01*
X169764012Y-47508031D01*
X169802025Y-47533502D01*
X169853521Y-47536491D01*
X169922628Y-47544550D01*
X169948099Y-47582563D01*
X169951088Y-47634058D01*
X169959147Y-47703165D01*
X169997160Y-47728637D01*
X170048655Y-47731626D01*
X170117762Y-47739684D01*
X170143233Y-47777697D01*
X170146222Y-47829193D01*
X170154281Y-47898300D01*
X170192294Y-47923771D01*
X170243790Y-47926760D01*
X170341357Y-47926760D01*
X170341357Y-48121895D01*
X170341357Y-48317029D01*
X170243790Y-48317029D01*
X170174683Y-48308970D01*
X170149211Y-48270957D01*
X170146222Y-48219462D01*
X170138164Y-48150355D01*
X170100151Y-48124884D01*
X170048655Y-48121895D01*
X169979548Y-48113836D01*
X169954077Y-48075823D01*
X169951088Y-48024327D01*
X169951088Y-47926760D01*
X169658386Y-47926760D01*
X169365685Y-47926760D01*
X169365685Y-48121895D01*
X169365685Y-48317029D01*
X169463252Y-48317029D01*
X169532359Y-48325088D01*
X169557830Y-48363101D01*
X169560819Y-48414596D01*
X169560819Y-48512163D01*
X169755953Y-48512163D01*
X169951088Y-48512163D01*
X169951088Y-48609731D01*
X169959147Y-48678838D01*
X169997160Y-48704309D01*
X170048655Y-48707298D01*
X170117762Y-48715357D01*
X170143233Y-48753370D01*
X170146222Y-48804865D01*
X170146222Y-48902432D01*
X169951088Y-48902432D01*
X169755953Y-48902432D01*
X169755953Y-48804865D01*
X169755953Y-48707298D01*
X169560819Y-48707298D01*
X169365685Y-48707298D01*
X169365685Y-48804865D01*
X169357626Y-48873972D01*
X169319613Y-48899443D01*
X169268117Y-48902432D01*
X169199011Y-48910491D01*
X169173539Y-48948504D01*
X169170550Y-49000000D01*
X169170550Y-49097567D01*
X169072983Y-49097567D01*
X169003876Y-49089508D01*
X168978405Y-49051495D01*
X168975416Y-49000000D01*
X168967357Y-48930893D01*
X168929344Y-48905421D01*
X168877848Y-48902432D01*
X168780281Y-48902432D01*
X168780281Y-48609731D01*
X168780281Y-48317029D01*
X168877848Y-48317029D01*
X168975416Y-48317029D01*
X168975416Y-48512163D01*
X168975416Y-48707298D01*
X169072983Y-48707298D01*
X169142090Y-48699239D01*
X169167561Y-48661226D01*
X169170550Y-48609731D01*
X169178609Y-48540624D01*
X169216622Y-48515152D01*
X169268117Y-48512163D01*
X169337224Y-48504105D01*
X169362696Y-48466092D01*
X169365685Y-48414596D01*
X169357626Y-48345489D01*
X169319613Y-48320018D01*
X169268117Y-48317029D01*
X169170550Y-48317029D01*
X169170550Y-47926760D01*
X169170550Y-47536491D01*
X169268117Y-47536491D01*
X169337224Y-47544550D01*
X169362696Y-47582563D01*
X169365685Y-47634058D01*
X169365685Y-47731626D01*
X169560819Y-47731626D01*
X169755953Y-47731626D01*
X169755953Y-47634058D01*
X169747895Y-47564952D01*
X169709882Y-47539480D01*
X169658386Y-47536491D01*
X169589279Y-47528433D01*
X169563808Y-47490420D01*
X169560819Y-47438924D01*
X169568878Y-47369817D01*
X169606891Y-47344346D01*
X169658386Y-47341357D01*
X169727493Y-47333298D01*
X169752964Y-47295285D01*
X169755953Y-47243790D01*
X169747895Y-47174683D01*
X169709882Y-47149211D01*
X169658386Y-47146222D01*
X169589279Y-47138164D01*
X169563808Y-47100151D01*
X169560819Y-47048655D01*
X169560819Y-46951088D01*
X169755953Y-46951088D01*
X169951088Y-46951088D01*
X169951088Y-46463252D01*
X169951088Y-46072983D01*
X170146222Y-46072983D01*
X170154281Y-46142090D01*
X170192294Y-46167561D01*
X170243790Y-46170550D01*
X170312896Y-46162492D01*
X170338368Y-46124479D01*
X170341357Y-46072983D01*
X170333298Y-46003876D01*
X170295285Y-45978405D01*
X170243790Y-45975416D01*
X170174683Y-45983474D01*
X170149211Y-46021487D01*
X170146222Y-46072983D01*
X169951088Y-46072983D01*
X169951088Y-45975416D01*
X170048655Y-45975416D01*
X170117762Y-45967357D01*
X170143233Y-45929344D01*
X170146222Y-45877848D01*
X170154281Y-45808742D01*
X170192294Y-45783270D01*
X170243790Y-45780281D01*
X170341357Y-45780281D01*
X170341357Y-45585147D01*
X170341357Y-45390012D01*
X170536491Y-45390012D01*
X170731626Y-45390012D01*
X170731626Y-45487580D01*
G37*
D13*
%TO.C,J3*%
X204315000Y-52315000D02*
X205000000Y-52315000D01*
X204315000Y-53000000D02*
X204315000Y-52315000D01*
X205468215Y-54500000D02*
X206310000Y-54500000D01*
X205685000Y-52440000D02*
X206310000Y-52440000D01*
X205685000Y-53500000D02*
X206310000Y-53500000D01*
X206310000Y-52440000D02*
X206310000Y-55560000D01*
X206310000Y-52790000D02*
X208310000Y-52790000D01*
X206310000Y-52850000D02*
X208310000Y-52850000D01*
X206310000Y-52970000D02*
X208310000Y-52970000D01*
X206310000Y-53090000D02*
X208310000Y-53090000D01*
X206310000Y-53790000D02*
X208310000Y-53790000D01*
X206310000Y-54790000D02*
X208310000Y-54790000D01*
X206310000Y-55560000D02*
X205394493Y-55560000D01*
X208310000Y-52790000D02*
X208310000Y-53210000D01*
X208310000Y-53210000D02*
X206310000Y-53210000D01*
X208310000Y-53790000D02*
X208310000Y-54210000D01*
X208310000Y-54210000D02*
X206310000Y-54210000D01*
X208310000Y-54790000D02*
X208310000Y-55210000D01*
X208310000Y-55210000D02*
X206310000Y-55210000D01*
%TO.C,C2*%
X175766000Y-55271580D02*
X175766000Y-54990420D01*
X176786000Y-55271580D02*
X176786000Y-54990420D01*
%TO.C,U2*%
X178922000Y-54794000D02*
X179192000Y-54794000D01*
X179192000Y-54794000D02*
X179192000Y-57624000D01*
X185552000Y-54794000D02*
X185552000Y-55894000D01*
X185822000Y-54794000D02*
X185552000Y-54794000D01*
X178922000Y-48374000D02*
X178922000Y-54794000D01*
X185822000Y-48374000D02*
X185822000Y-54794000D01*
%TO.C,J2*%
X204315000Y-44315000D02*
X205000000Y-44315000D01*
X204315000Y-45000000D02*
X204315000Y-44315000D01*
X205468215Y-46500000D02*
X206310000Y-46500000D01*
X205685000Y-44440000D02*
X206310000Y-44440000D01*
X205685000Y-45500000D02*
X206310000Y-45500000D01*
X206310000Y-44440000D02*
X206310000Y-47560000D01*
X206310000Y-44790000D02*
X208310000Y-44790000D01*
X206310000Y-44850000D02*
X208310000Y-44850000D01*
X206310000Y-44970000D02*
X208310000Y-44970000D01*
X206310000Y-45090000D02*
X208310000Y-45090000D01*
X206310000Y-45790000D02*
X208310000Y-45790000D01*
X206310000Y-46790000D02*
X208310000Y-46790000D01*
X206310000Y-47560000D02*
X205394493Y-47560000D01*
X208310000Y-44790000D02*
X208310000Y-45210000D01*
X208310000Y-45210000D02*
X206310000Y-45210000D01*
X208310000Y-45790000D02*
X208310000Y-46210000D01*
X208310000Y-46210000D02*
X206310000Y-46210000D01*
X208310000Y-46790000D02*
X208310000Y-47210000D01*
X208310000Y-47210000D02*
X206310000Y-47210000D01*
%TO.C,C1*%
X196722420Y-60292000D02*
X197003580Y-60292000D01*
X196722420Y-61312000D02*
X197003580Y-61312000D01*
%TO.C,C3*%
X188100580Y-51310000D02*
X187819420Y-51310000D01*
X188100580Y-50290000D02*
X187819420Y-50290000D01*
%TO.C,J1*%
X151712000Y-45242500D02*
X166412000Y-45242500D01*
X151712000Y-54442500D02*
X151712000Y-45242500D01*
X160512000Y-54442500D02*
X151712000Y-54442500D01*
X165562000Y-45042500D02*
X166612000Y-45042500D01*
X166412000Y-45242500D02*
X166412000Y-47842500D01*
X166412000Y-51742500D02*
X166412000Y-54442500D01*
X166412000Y-54442500D02*
X164512000Y-54442500D01*
X166612000Y-46092500D02*
X166612000Y-45042500D01*
%TO.C,U1*%
X194670000Y-55302000D02*
X194940000Y-55302000D01*
X194940000Y-55302000D02*
X194940000Y-58132000D01*
X201300000Y-55302000D02*
X201300000Y-56402000D01*
X201570000Y-55302000D02*
X201300000Y-55302000D01*
X194670000Y-48882000D02*
X194670000Y-55302000D01*
X201570000Y-48882000D02*
X201570000Y-55302000D01*
%TO.C,J4*%
X188782000Y-37786000D02*
X188782000Y-39116000D01*
X187452000Y-37786000D02*
X188782000Y-37786000D01*
X186182000Y-37786000D02*
X175962000Y-37786000D01*
X186182000Y-37786000D02*
X186182000Y-40386000D01*
X175962000Y-37786000D02*
X175962000Y-42986000D01*
X188782000Y-40386000D02*
X188782000Y-42986000D01*
X186182000Y-40386000D02*
X188782000Y-40386000D01*
X188782000Y-42986000D02*
X175962000Y-42986000D01*
%TO.C,C4*%
X201171000Y-60661420D02*
X201171000Y-60942580D01*
X200151000Y-60661420D02*
X200151000Y-60942580D01*
%TO.C,FB1*%
X170017221Y-55370000D02*
X170342779Y-55370000D01*
X170017221Y-56390000D02*
X170342779Y-56390000D01*
%TD*%
M02*
