M48
; DRILL file {KiCad 7.0.2-0} date 2023 October 31, Tuesday 10:36:24
; FORMAT={-:-/ absolute / inch / decimal}
; #@! TF.CreationDate,2023-10-31T10:36:24-04:00
; #@! TF.GenerationSoftware,Kicad,Pcbnew,7.0.2-0
; #@! TF.FileFunction,Plated,1,2,PTH
FMAT,2
INCH
; #@! TA.AperFunction,Plated,PTH,ViaDrill
T1C0.0157
; #@! TA.AperFunction,Plated,PTH,ComponentDrill
T2C0.0295
; #@! TA.AperFunction,Plated,PTH,ComponentDrill
T3C0.0394
; #@! TA.AperFunction,Plated,PTH,ComponentDrill
T4C0.0866
%
G90
G05
T1
X5.4921Y-4.4281
X5.5807Y-4.4281
X5.7972Y-3.7205
X5.8366Y-3.7205
X6.25Y-3.435
X6.2894Y-3.2087
X6.2894Y-3.435
X6.3386Y-3.9665
X6.4567Y-3.3465
X6.5354Y-3.5531
X6.5748Y-3.5531
X6.6142Y-4.1437
X6.6831Y-3.0906
T2
X5.4528Y-3.2264
X5.5315Y-3.2264
X5.6102Y-3.2264
X5.689Y-3.2264
T3
X5.8744Y-4.3307
X5.8744Y-4.4307
X5.9126Y-3.1791
X5.9744Y-4.3307
X5.9744Y-4.4307
X6.0126Y-3.1791
X6.0744Y-4.3307
X6.0744Y-4.4307
X6.1126Y-3.1791
X6.1744Y-4.3307
X6.1744Y-4.4307
X6.2126Y-3.1791
X6.2744Y-4.3307
X6.2744Y-4.4307
X6.9685Y-3.4734
X6.9685Y-3.5734
X6.9685Y-3.6734
X6.9685Y-3.8671
X6.9685Y-3.9671
X6.9685Y-4.0671
T4
X5.1969Y-3.1791
X5.1969Y-4.3602
X6.9685Y-3.1791
X6.9685Y-4.3602
T3
G00X5.1776Y-3.921
M15
G01X5.1776Y-3.9997
M16
G05
G00X5.2564Y-4.1454
M15
G01X5.3351Y-4.1454
M16
G05
G00X5.4139Y-3.921
M15
G01X5.4139Y-3.9997
M16
G05
T0
M30
