%TF.GenerationSoftware,KiCad,Pcbnew,7.0.2-0*%
%TF.CreationDate,2023-10-31T10:36:30-04:00*%
%TF.ProjectId,WiringHarness,57697269-6e67-4486-9172-6e6573732e6b,rev?*%
%TF.SameCoordinates,Original*%
%TF.FileFunction,Paste,Top*%
%TF.FilePolarity,Positive*%
%FSLAX46Y46*%
G04 Gerber Fmt 4.6, Leading zero omitted, Abs format (unit mm)*
G04 Created by KiCad (PCBNEW 7.0.2-0) date 2023-10-31 10:36:30*
%MOMM*%
%LPD*%
G01*
G04 APERTURE LIST*
G04 Aperture macros list*
%AMRoundRect*
0 Rectangle with rounded corners*
0 $1 Rounding radius*
0 $2 $3 $4 $5 $6 $7 $8 $9 X,Y pos of 4 corners*
0 Add a 4 corners polygon primitive as box body*
4,1,4,$2,$3,$4,$5,$6,$7,$8,$9,$2,$3,0*
0 Add four circle primitives for the rounded corners*
1,1,$1+$1,$2,$3*
1,1,$1+$1,$4,$5*
1,1,$1+$1,$6,$7*
1,1,$1+$1,$8,$9*
0 Add four rect primitives between the rounded corners*
20,1,$1+$1,$2,$3,$4,$5,0*
20,1,$1+$1,$4,$5,$6,$7,0*
20,1,$1+$1,$6,$7,$8,$9,0*
20,1,$1+$1,$8,$9,$2,$3,0*%
G04 Aperture macros list end*
%ADD10RoundRect,0.200000X0.200000X0.275000X-0.200000X0.275000X-0.200000X-0.275000X0.200000X-0.275000X0*%
%ADD11R,1.200000X1.200000*%
%ADD12R,1.500000X1.600000*%
%ADD13RoundRect,0.150000X0.150000X0.625000X-0.150000X0.625000X-0.150000X-0.625000X0.150000X-0.625000X0*%
%ADD14RoundRect,0.250000X0.350000X0.650000X-0.350000X0.650000X-0.350000X-0.650000X0.350000X-0.650000X0*%
%ADD15RoundRect,0.225000X-0.225000X-0.250000X0.225000X-0.250000X0.225000X0.250000X-0.225000X0.250000X0*%
%ADD16RoundRect,0.225000X-0.250000X0.225000X-0.250000X-0.225000X0.250000X-0.225000X0.250000X0.225000X0*%
%ADD17RoundRect,0.088500X-0.531500X-0.206500X0.531500X-0.206500X0.531500X0.206500X-0.531500X0.206500X0*%
%ADD18RoundRect,0.088500X0.531500X0.206500X-0.531500X0.206500X-0.531500X-0.206500X0.531500X-0.206500X0*%
%ADD19RoundRect,0.200000X-0.200000X-0.275000X0.200000X-0.275000X0.200000X0.275000X-0.200000X0.275000X0*%
%ADD20RoundRect,0.225000X0.225000X0.250000X-0.225000X0.250000X-0.225000X-0.250000X0.225000X-0.250000X0*%
%ADD21RoundRect,0.250000X1.000000X0.650000X-1.000000X0.650000X-1.000000X-0.650000X1.000000X-0.650000X0*%
%ADD22R,2.000000X1.500000*%
%ADD23R,2.000000X3.800000*%
%ADD24RoundRect,0.150000X-0.512500X-0.150000X0.512500X-0.150000X0.512500X0.150000X-0.512500X0.150000X0*%
G04 APERTURE END LIST*
D10*
%TO.C,R4*%
X162250000Y-97250000D03*
X160600000Y-97250000D03*
%TD*%
%TO.C,R3*%
X162075000Y-99250000D03*
X160425000Y-99250000D03*
%TD*%
D11*
%TO.C,R5*%
X157250000Y-100000000D03*
D12*
X154000000Y-99000000D03*
D11*
X157250000Y-98000000D03*
%TD*%
D13*
%TO.C,J6*%
X170500000Y-80750000D03*
X169500000Y-80750000D03*
X168500000Y-80750000D03*
X167500000Y-80750000D03*
D14*
X171800000Y-76875000D03*
X166200000Y-76875000D03*
%TD*%
D15*
%TO.C,C6*%
X168225000Y-88750000D03*
X169775000Y-88750000D03*
%TD*%
D16*
%TO.C,C2*%
X141750000Y-109200000D03*
X141750000Y-110750000D03*
%TD*%
D17*
%TO.C,VR1*%
X143445000Y-93550000D03*
X143445000Y-95450000D03*
D18*
X145555000Y-94500000D03*
%TD*%
D19*
%TO.C,R2*%
X153425000Y-77750000D03*
X155075000Y-77750000D03*
%TD*%
D20*
%TO.C,C1*%
X162525000Y-102000000D03*
X160975000Y-102000000D03*
%TD*%
D10*
%TO.C,R1*%
X159575000Y-77750000D03*
X157925000Y-77750000D03*
%TD*%
D16*
%TO.C,C3*%
X139500000Y-109200000D03*
X139500000Y-110750000D03*
%TD*%
D15*
%TO.C,C7*%
X143725000Y-91000000D03*
X145275000Y-91000000D03*
%TD*%
D21*
%TO.C,D1*%
X146750000Y-100750000D03*
X142750000Y-100750000D03*
%TD*%
D22*
%TO.C,U3*%
X165100000Y-97450000D03*
X165100000Y-99750000D03*
D23*
X171400000Y-99750000D03*
D22*
X165100000Y-102050000D03*
%TD*%
D20*
%TO.C,C4*%
X171025000Y-105250000D03*
X169475000Y-105250000D03*
%TD*%
D24*
%TO.C,U2*%
X161612500Y-86300000D03*
X161612500Y-87250000D03*
X161612500Y-88200000D03*
X163887500Y-88200000D03*
X163887500Y-86300000D03*
%TD*%
D15*
%TO.C,C5*%
X162750000Y-90250000D03*
X164300000Y-90250000D03*
%TD*%
M02*
