%TF.GenerationSoftware,KiCad,Pcbnew,7.0.2-0*%
%TF.CreationDate,2023-10-31T10:36:30-04:00*%
%TF.ProjectId,WiringHarness,57697269-6e67-4486-9172-6e6573732e6b,rev?*%
%TF.SameCoordinates,Original*%
%TF.FileFunction,Legend,Bot*%
%TF.FilePolarity,Positive*%
%FSLAX46Y46*%
G04 Gerber Fmt 4.6, Leading zero omitted, Abs format (unit mm)*
G04 Created by KiCad (PCBNEW 7.0.2-0) date 2023-10-31 10:36:30*
%MOMM*%
%LPD*%
G01*
G04 APERTURE LIST*
%ADD10C,0.150000*%
G04 APERTURE END LIST*
D10*
X164761904Y-92613809D02*
X164428571Y-92613809D01*
X164285714Y-93137619D02*
X164761904Y-93137619D01*
X164761904Y-93137619D02*
X164761904Y-92137619D01*
X164761904Y-92137619D02*
X164285714Y-92137619D01*
X163857142Y-93137619D02*
X163857142Y-92137619D01*
X163857142Y-92137619D02*
X163285714Y-93137619D01*
X163285714Y-93137619D02*
X163285714Y-92137619D01*
X162285714Y-92185238D02*
X162380952Y-92137619D01*
X162380952Y-92137619D02*
X162523809Y-92137619D01*
X162523809Y-92137619D02*
X162666666Y-92185238D01*
X162666666Y-92185238D02*
X162761904Y-92280476D01*
X162761904Y-92280476D02*
X162809523Y-92375714D01*
X162809523Y-92375714D02*
X162857142Y-92566190D01*
X162857142Y-92566190D02*
X162857142Y-92709047D01*
X162857142Y-92709047D02*
X162809523Y-92899523D01*
X162809523Y-92899523D02*
X162761904Y-92994761D01*
X162761904Y-92994761D02*
X162666666Y-93090000D01*
X162666666Y-93090000D02*
X162523809Y-93137619D01*
X162523809Y-93137619D02*
X162428571Y-93137619D01*
X162428571Y-93137619D02*
X162285714Y-93090000D01*
X162285714Y-93090000D02*
X162238095Y-93042380D01*
X162238095Y-93042380D02*
X162238095Y-92709047D01*
X162238095Y-92709047D02*
X162428571Y-92709047D01*
X161857142Y-93090000D02*
X161714285Y-93137619D01*
X161714285Y-93137619D02*
X161476190Y-93137619D01*
X161476190Y-93137619D02*
X161380952Y-93090000D01*
X161380952Y-93090000D02*
X161333333Y-93042380D01*
X161333333Y-93042380D02*
X161285714Y-92947142D01*
X161285714Y-92947142D02*
X161285714Y-92851904D01*
X161285714Y-92851904D02*
X161333333Y-92756666D01*
X161333333Y-92756666D02*
X161380952Y-92709047D01*
X161380952Y-92709047D02*
X161476190Y-92661428D01*
X161476190Y-92661428D02*
X161666666Y-92613809D01*
X161666666Y-92613809D02*
X161761904Y-92566190D01*
X161761904Y-92566190D02*
X161809523Y-92518571D01*
X161809523Y-92518571D02*
X161857142Y-92423333D01*
X161857142Y-92423333D02*
X161857142Y-92328095D01*
X161857142Y-92328095D02*
X161809523Y-92232857D01*
X161809523Y-92232857D02*
X161761904Y-92185238D01*
X161761904Y-92185238D02*
X161666666Y-92137619D01*
X161666666Y-92137619D02*
X161428571Y-92137619D01*
X161428571Y-92137619D02*
X161285714Y-92185238D01*
X160904761Y-92232857D02*
X160857142Y-92185238D01*
X160857142Y-92185238D02*
X160761904Y-92137619D01*
X160761904Y-92137619D02*
X160523809Y-92137619D01*
X160523809Y-92137619D02*
X160428571Y-92185238D01*
X160428571Y-92185238D02*
X160380952Y-92232857D01*
X160380952Y-92232857D02*
X160333333Y-92328095D01*
X160333333Y-92328095D02*
X160333333Y-92423333D01*
X160333333Y-92423333D02*
X160380952Y-92566190D01*
X160380952Y-92566190D02*
X160952380Y-93137619D01*
X160952380Y-93137619D02*
X160333333Y-93137619D01*
X159761904Y-92566190D02*
X159857142Y-92518571D01*
X159857142Y-92518571D02*
X159904761Y-92470952D01*
X159904761Y-92470952D02*
X159952380Y-92375714D01*
X159952380Y-92375714D02*
X159952380Y-92328095D01*
X159952380Y-92328095D02*
X159904761Y-92232857D01*
X159904761Y-92232857D02*
X159857142Y-92185238D01*
X159857142Y-92185238D02*
X159761904Y-92137619D01*
X159761904Y-92137619D02*
X159571428Y-92137619D01*
X159571428Y-92137619D02*
X159476190Y-92185238D01*
X159476190Y-92185238D02*
X159428571Y-92232857D01*
X159428571Y-92232857D02*
X159380952Y-92328095D01*
X159380952Y-92328095D02*
X159380952Y-92375714D01*
X159380952Y-92375714D02*
X159428571Y-92470952D01*
X159428571Y-92470952D02*
X159476190Y-92518571D01*
X159476190Y-92518571D02*
X159571428Y-92566190D01*
X159571428Y-92566190D02*
X159761904Y-92566190D01*
X159761904Y-92566190D02*
X159857142Y-92613809D01*
X159857142Y-92613809D02*
X159904761Y-92661428D01*
X159904761Y-92661428D02*
X159952380Y-92756666D01*
X159952380Y-92756666D02*
X159952380Y-92947142D01*
X159952380Y-92947142D02*
X159904761Y-93042380D01*
X159904761Y-93042380D02*
X159857142Y-93090000D01*
X159857142Y-93090000D02*
X159761904Y-93137619D01*
X159761904Y-93137619D02*
X159571428Y-93137619D01*
X159571428Y-93137619D02*
X159476190Y-93090000D01*
X159476190Y-93090000D02*
X159428571Y-93042380D01*
X159428571Y-93042380D02*
X159380952Y-92947142D01*
X159380952Y-92947142D02*
X159380952Y-92756666D01*
X159380952Y-92756666D02*
X159428571Y-92661428D01*
X159428571Y-92661428D02*
X159476190Y-92613809D01*
X159476190Y-92613809D02*
X159571428Y-92566190D01*
X158190475Y-93137619D02*
X158190475Y-92137619D01*
X158190475Y-92137619D02*
X157857142Y-92851904D01*
X157857142Y-92851904D02*
X157523809Y-92137619D01*
X157523809Y-92137619D02*
X157523809Y-93137619D01*
X156619047Y-93137619D02*
X156619047Y-92613809D01*
X156619047Y-92613809D02*
X156666666Y-92518571D01*
X156666666Y-92518571D02*
X156761904Y-92470952D01*
X156761904Y-92470952D02*
X156952380Y-92470952D01*
X156952380Y-92470952D02*
X157047618Y-92518571D01*
X156619047Y-93090000D02*
X156714285Y-93137619D01*
X156714285Y-93137619D02*
X156952380Y-93137619D01*
X156952380Y-93137619D02*
X157047618Y-93090000D01*
X157047618Y-93090000D02*
X157095237Y-92994761D01*
X157095237Y-92994761D02*
X157095237Y-92899523D01*
X157095237Y-92899523D02*
X157047618Y-92804285D01*
X157047618Y-92804285D02*
X156952380Y-92756666D01*
X156952380Y-92756666D02*
X156714285Y-92756666D01*
X156714285Y-92756666D02*
X156619047Y-92709047D01*
X156238094Y-92470952D02*
X155714285Y-92470952D01*
X155714285Y-92470952D02*
X156238094Y-93137619D01*
X156238094Y-93137619D02*
X155714285Y-93137619D01*
X154952380Y-93090000D02*
X155047618Y-93137619D01*
X155047618Y-93137619D02*
X155238094Y-93137619D01*
X155238094Y-93137619D02*
X155333332Y-93090000D01*
X155333332Y-93090000D02*
X155380951Y-92994761D01*
X155380951Y-92994761D02*
X155380951Y-92613809D01*
X155380951Y-92613809D02*
X155333332Y-92518571D01*
X155333332Y-92518571D02*
X155238094Y-92470952D01*
X155238094Y-92470952D02*
X155047618Y-92470952D01*
X155047618Y-92470952D02*
X154952380Y-92518571D01*
X154952380Y-92518571D02*
X154904761Y-92613809D01*
X154904761Y-92613809D02*
X154904761Y-92709047D01*
X154904761Y-92709047D02*
X155380951Y-92804285D01*
X153142856Y-93042380D02*
X153190475Y-93090000D01*
X153190475Y-93090000D02*
X153333332Y-93137619D01*
X153333332Y-93137619D02*
X153428570Y-93137619D01*
X153428570Y-93137619D02*
X153571427Y-93090000D01*
X153571427Y-93090000D02*
X153666665Y-92994761D01*
X153666665Y-92994761D02*
X153714284Y-92899523D01*
X153714284Y-92899523D02*
X153761903Y-92709047D01*
X153761903Y-92709047D02*
X153761903Y-92566190D01*
X153761903Y-92566190D02*
X153714284Y-92375714D01*
X153714284Y-92375714D02*
X153666665Y-92280476D01*
X153666665Y-92280476D02*
X153571427Y-92185238D01*
X153571427Y-92185238D02*
X153428570Y-92137619D01*
X153428570Y-92137619D02*
X153333332Y-92137619D01*
X153333332Y-92137619D02*
X153190475Y-92185238D01*
X153190475Y-92185238D02*
X153142856Y-92232857D01*
X152571427Y-93137619D02*
X152666665Y-93090000D01*
X152666665Y-93090000D02*
X152714284Y-93042380D01*
X152714284Y-93042380D02*
X152761903Y-92947142D01*
X152761903Y-92947142D02*
X152761903Y-92661428D01*
X152761903Y-92661428D02*
X152714284Y-92566190D01*
X152714284Y-92566190D02*
X152666665Y-92518571D01*
X152666665Y-92518571D02*
X152571427Y-92470952D01*
X152571427Y-92470952D02*
X152428570Y-92470952D01*
X152428570Y-92470952D02*
X152333332Y-92518571D01*
X152333332Y-92518571D02*
X152285713Y-92566190D01*
X152285713Y-92566190D02*
X152238094Y-92661428D01*
X152238094Y-92661428D02*
X152238094Y-92947142D01*
X152238094Y-92947142D02*
X152285713Y-93042380D01*
X152285713Y-93042380D02*
X152333332Y-93090000D01*
X152333332Y-93090000D02*
X152428570Y-93137619D01*
X152428570Y-93137619D02*
X152571427Y-93137619D01*
X151809522Y-92470952D02*
X151809522Y-93137619D01*
X151809522Y-92566190D02*
X151761903Y-92518571D01*
X151761903Y-92518571D02*
X151666665Y-92470952D01*
X151666665Y-92470952D02*
X151523808Y-92470952D01*
X151523808Y-92470952D02*
X151428570Y-92518571D01*
X151428570Y-92518571D02*
X151380951Y-92613809D01*
X151380951Y-92613809D02*
X151380951Y-93137619D01*
X151047617Y-92470952D02*
X150666665Y-92470952D01*
X150904760Y-92137619D02*
X150904760Y-92994761D01*
X150904760Y-92994761D02*
X150857141Y-93090000D01*
X150857141Y-93090000D02*
X150761903Y-93137619D01*
X150761903Y-93137619D02*
X150666665Y-93137619D01*
X150333331Y-93137619D02*
X150333331Y-92470952D01*
X150333331Y-92661428D02*
X150285712Y-92566190D01*
X150285712Y-92566190D02*
X150238093Y-92518571D01*
X150238093Y-92518571D02*
X150142855Y-92470952D01*
X150142855Y-92470952D02*
X150047617Y-92470952D01*
X149571426Y-93137619D02*
X149666664Y-93090000D01*
X149666664Y-93090000D02*
X149714283Y-93042380D01*
X149714283Y-93042380D02*
X149761902Y-92947142D01*
X149761902Y-92947142D02*
X149761902Y-92661428D01*
X149761902Y-92661428D02*
X149714283Y-92566190D01*
X149714283Y-92566190D02*
X149666664Y-92518571D01*
X149666664Y-92518571D02*
X149571426Y-92470952D01*
X149571426Y-92470952D02*
X149428569Y-92470952D01*
X149428569Y-92470952D02*
X149333331Y-92518571D01*
X149333331Y-92518571D02*
X149285712Y-92566190D01*
X149285712Y-92566190D02*
X149238093Y-92661428D01*
X149238093Y-92661428D02*
X149238093Y-92947142D01*
X149238093Y-92947142D02*
X149285712Y-93042380D01*
X149285712Y-93042380D02*
X149333331Y-93090000D01*
X149333331Y-93090000D02*
X149428569Y-93137619D01*
X149428569Y-93137619D02*
X149571426Y-93137619D01*
X148666664Y-93137619D02*
X148761902Y-93090000D01*
X148761902Y-93090000D02*
X148809521Y-92994761D01*
X148809521Y-92994761D02*
X148809521Y-92137619D01*
X148142854Y-93137619D02*
X148238092Y-93090000D01*
X148238092Y-93090000D02*
X148285711Y-92994761D01*
X148285711Y-92994761D02*
X148285711Y-92137619D01*
X147380949Y-93090000D02*
X147476187Y-93137619D01*
X147476187Y-93137619D02*
X147666663Y-93137619D01*
X147666663Y-93137619D02*
X147761901Y-93090000D01*
X147761901Y-93090000D02*
X147809520Y-92994761D01*
X147809520Y-92994761D02*
X147809520Y-92613809D01*
X147809520Y-92613809D02*
X147761901Y-92518571D01*
X147761901Y-92518571D02*
X147666663Y-92470952D01*
X147666663Y-92470952D02*
X147476187Y-92470952D01*
X147476187Y-92470952D02*
X147380949Y-92518571D01*
X147380949Y-92518571D02*
X147333330Y-92613809D01*
X147333330Y-92613809D02*
X147333330Y-92709047D01*
X147333330Y-92709047D02*
X147809520Y-92804285D01*
X146904758Y-93137619D02*
X146904758Y-92470952D01*
X146904758Y-92661428D02*
X146857139Y-92566190D01*
X146857139Y-92566190D02*
X146809520Y-92518571D01*
X146809520Y-92518571D02*
X146714282Y-92470952D01*
X146714282Y-92470952D02*
X146619044Y-92470952D01*
X145619043Y-92470952D02*
X145428567Y-93137619D01*
X145428567Y-93137619D02*
X145238091Y-92661428D01*
X145238091Y-92661428D02*
X145047615Y-93137619D01*
X145047615Y-93137619D02*
X144857139Y-92470952D01*
X144476186Y-93137619D02*
X144476186Y-92470952D01*
X144476186Y-92137619D02*
X144523805Y-92185238D01*
X144523805Y-92185238D02*
X144476186Y-92232857D01*
X144476186Y-92232857D02*
X144428567Y-92185238D01*
X144428567Y-92185238D02*
X144476186Y-92137619D01*
X144476186Y-92137619D02*
X144476186Y-92232857D01*
X143999996Y-93137619D02*
X143999996Y-92470952D01*
X143999996Y-92661428D02*
X143952377Y-92566190D01*
X143952377Y-92566190D02*
X143904758Y-92518571D01*
X143904758Y-92518571D02*
X143809520Y-92470952D01*
X143809520Y-92470952D02*
X143714282Y-92470952D01*
X143380948Y-93137619D02*
X143380948Y-92470952D01*
X143380948Y-92137619D02*
X143428567Y-92185238D01*
X143428567Y-92185238D02*
X143380948Y-92232857D01*
X143380948Y-92232857D02*
X143333329Y-92185238D01*
X143333329Y-92185238D02*
X143380948Y-92137619D01*
X143380948Y-92137619D02*
X143380948Y-92232857D01*
X142904758Y-92470952D02*
X142904758Y-93137619D01*
X142904758Y-92566190D02*
X142857139Y-92518571D01*
X142857139Y-92518571D02*
X142761901Y-92470952D01*
X142761901Y-92470952D02*
X142619044Y-92470952D01*
X142619044Y-92470952D02*
X142523806Y-92518571D01*
X142523806Y-92518571D02*
X142476187Y-92613809D01*
X142476187Y-92613809D02*
X142476187Y-93137619D01*
X141571425Y-92470952D02*
X141571425Y-93280476D01*
X141571425Y-93280476D02*
X141619044Y-93375714D01*
X141619044Y-93375714D02*
X141666663Y-93423333D01*
X141666663Y-93423333D02*
X141761901Y-93470952D01*
X141761901Y-93470952D02*
X141904758Y-93470952D01*
X141904758Y-93470952D02*
X141999996Y-93423333D01*
X141571425Y-93090000D02*
X141666663Y-93137619D01*
X141666663Y-93137619D02*
X141857139Y-93137619D01*
X141857139Y-93137619D02*
X141952377Y-93090000D01*
X141952377Y-93090000D02*
X141999996Y-93042380D01*
X141999996Y-93042380D02*
X142047615Y-92947142D01*
X142047615Y-92947142D02*
X142047615Y-92661428D01*
X142047615Y-92661428D02*
X141999996Y-92566190D01*
X141999996Y-92566190D02*
X141952377Y-92518571D01*
X141952377Y-92518571D02*
X141857139Y-92470952D01*
X141857139Y-92470952D02*
X141666663Y-92470952D01*
X141666663Y-92470952D02*
X141571425Y-92518571D01*
X140333329Y-93137619D02*
X140333329Y-92137619D01*
X139904758Y-93137619D02*
X139904758Y-92613809D01*
X139904758Y-92613809D02*
X139952377Y-92518571D01*
X139952377Y-92518571D02*
X140047615Y-92470952D01*
X140047615Y-92470952D02*
X140190472Y-92470952D01*
X140190472Y-92470952D02*
X140285710Y-92518571D01*
X140285710Y-92518571D02*
X140333329Y-92566190D01*
X138999996Y-93137619D02*
X138999996Y-92613809D01*
X138999996Y-92613809D02*
X139047615Y-92518571D01*
X139047615Y-92518571D02*
X139142853Y-92470952D01*
X139142853Y-92470952D02*
X139333329Y-92470952D01*
X139333329Y-92470952D02*
X139428567Y-92518571D01*
X138999996Y-93090000D02*
X139095234Y-93137619D01*
X139095234Y-93137619D02*
X139333329Y-93137619D01*
X139333329Y-93137619D02*
X139428567Y-93090000D01*
X139428567Y-93090000D02*
X139476186Y-92994761D01*
X139476186Y-92994761D02*
X139476186Y-92899523D01*
X139476186Y-92899523D02*
X139428567Y-92804285D01*
X139428567Y-92804285D02*
X139333329Y-92756666D01*
X139333329Y-92756666D02*
X139095234Y-92756666D01*
X139095234Y-92756666D02*
X138999996Y-92709047D01*
X138523805Y-93137619D02*
X138523805Y-92470952D01*
X138523805Y-92661428D02*
X138476186Y-92566190D01*
X138476186Y-92566190D02*
X138428567Y-92518571D01*
X138428567Y-92518571D02*
X138333329Y-92470952D01*
X138333329Y-92470952D02*
X138238091Y-92470952D01*
X137904757Y-92470952D02*
X137904757Y-93137619D01*
X137904757Y-92566190D02*
X137857138Y-92518571D01*
X137857138Y-92518571D02*
X137761900Y-92470952D01*
X137761900Y-92470952D02*
X137619043Y-92470952D01*
X137619043Y-92470952D02*
X137523805Y-92518571D01*
X137523805Y-92518571D02*
X137476186Y-92613809D01*
X137476186Y-92613809D02*
X137476186Y-93137619D01*
X136619043Y-93090000D02*
X136714281Y-93137619D01*
X136714281Y-93137619D02*
X136904757Y-93137619D01*
X136904757Y-93137619D02*
X136999995Y-93090000D01*
X136999995Y-93090000D02*
X137047614Y-92994761D01*
X137047614Y-92994761D02*
X137047614Y-92613809D01*
X137047614Y-92613809D02*
X136999995Y-92518571D01*
X136999995Y-92518571D02*
X136904757Y-92470952D01*
X136904757Y-92470952D02*
X136714281Y-92470952D01*
X136714281Y-92470952D02*
X136619043Y-92518571D01*
X136619043Y-92518571D02*
X136571424Y-92613809D01*
X136571424Y-92613809D02*
X136571424Y-92709047D01*
X136571424Y-92709047D02*
X137047614Y-92804285D01*
X136190471Y-93090000D02*
X136095233Y-93137619D01*
X136095233Y-93137619D02*
X135904757Y-93137619D01*
X135904757Y-93137619D02*
X135809519Y-93090000D01*
X135809519Y-93090000D02*
X135761900Y-92994761D01*
X135761900Y-92994761D02*
X135761900Y-92947142D01*
X135761900Y-92947142D02*
X135809519Y-92851904D01*
X135809519Y-92851904D02*
X135904757Y-92804285D01*
X135904757Y-92804285D02*
X136047614Y-92804285D01*
X136047614Y-92804285D02*
X136142852Y-92756666D01*
X136142852Y-92756666D02*
X136190471Y-92661428D01*
X136190471Y-92661428D02*
X136190471Y-92613809D01*
X136190471Y-92613809D02*
X136142852Y-92518571D01*
X136142852Y-92518571D02*
X136047614Y-92470952D01*
X136047614Y-92470952D02*
X135904757Y-92470952D01*
X135904757Y-92470952D02*
X135809519Y-92518571D01*
X135380947Y-93090000D02*
X135285709Y-93137619D01*
X135285709Y-93137619D02*
X135095233Y-93137619D01*
X135095233Y-93137619D02*
X134999995Y-93090000D01*
X134999995Y-93090000D02*
X134952376Y-92994761D01*
X134952376Y-92994761D02*
X134952376Y-92947142D01*
X134952376Y-92947142D02*
X134999995Y-92851904D01*
X134999995Y-92851904D02*
X135095233Y-92804285D01*
X135095233Y-92804285D02*
X135238090Y-92804285D01*
X135238090Y-92804285D02*
X135333328Y-92756666D01*
X135333328Y-92756666D02*
X135380947Y-92661428D01*
X135380947Y-92661428D02*
X135380947Y-92613809D01*
X135380947Y-92613809D02*
X135333328Y-92518571D01*
X135333328Y-92518571D02*
X135238090Y-92470952D01*
X135238090Y-92470952D02*
X135095233Y-92470952D01*
X135095233Y-92470952D02*
X134999995Y-92518571D01*
X164904761Y-93757619D02*
X164571428Y-94757619D01*
X164571428Y-94757619D02*
X164238095Y-93757619D01*
X163714285Y-93757619D02*
X163619047Y-93757619D01*
X163619047Y-93757619D02*
X163523809Y-93805238D01*
X163523809Y-93805238D02*
X163476190Y-93852857D01*
X163476190Y-93852857D02*
X163428571Y-93948095D01*
X163428571Y-93948095D02*
X163380952Y-94138571D01*
X163380952Y-94138571D02*
X163380952Y-94376666D01*
X163380952Y-94376666D02*
X163428571Y-94567142D01*
X163428571Y-94567142D02*
X163476190Y-94662380D01*
X163476190Y-94662380D02*
X163523809Y-94710000D01*
X163523809Y-94710000D02*
X163619047Y-94757619D01*
X163619047Y-94757619D02*
X163714285Y-94757619D01*
X163714285Y-94757619D02*
X163809523Y-94710000D01*
X163809523Y-94710000D02*
X163857142Y-94662380D01*
X163857142Y-94662380D02*
X163904761Y-94567142D01*
X163904761Y-94567142D02*
X163952380Y-94376666D01*
X163952380Y-94376666D02*
X163952380Y-94138571D01*
X163952380Y-94138571D02*
X163904761Y-93948095D01*
X163904761Y-93948095D02*
X163857142Y-93852857D01*
X163857142Y-93852857D02*
X163809523Y-93805238D01*
X163809523Y-93805238D02*
X163714285Y-93757619D01*
X162952380Y-94662380D02*
X162904761Y-94710000D01*
X162904761Y-94710000D02*
X162952380Y-94757619D01*
X162952380Y-94757619D02*
X162999999Y-94710000D01*
X162999999Y-94710000D02*
X162952380Y-94662380D01*
X162952380Y-94662380D02*
X162952380Y-94757619D01*
X162000000Y-93757619D02*
X162476190Y-93757619D01*
X162476190Y-93757619D02*
X162523809Y-94233809D01*
X162523809Y-94233809D02*
X162476190Y-94186190D01*
X162476190Y-94186190D02*
X162380952Y-94138571D01*
X162380952Y-94138571D02*
X162142857Y-94138571D01*
X162142857Y-94138571D02*
X162047619Y-94186190D01*
X162047619Y-94186190D02*
X162000000Y-94233809D01*
X162000000Y-94233809D02*
X161952381Y-94329047D01*
X161952381Y-94329047D02*
X161952381Y-94567142D01*
X161952381Y-94567142D02*
X162000000Y-94662380D01*
X162000000Y-94662380D02*
X162047619Y-94710000D01*
X162047619Y-94710000D02*
X162142857Y-94757619D01*
X162142857Y-94757619D02*
X162380952Y-94757619D01*
X162380952Y-94757619D02*
X162476190Y-94710000D01*
X162476190Y-94710000D02*
X162523809Y-94662380D01*
X161619047Y-94090952D02*
X161428571Y-94757619D01*
X161428571Y-94757619D02*
X161238095Y-94281428D01*
X161238095Y-94281428D02*
X161047619Y-94757619D01*
X161047619Y-94757619D02*
X160857143Y-94090952D01*
X160476190Y-94757619D02*
X160476190Y-93757619D01*
X160047619Y-94757619D02*
X160047619Y-94233809D01*
X160047619Y-94233809D02*
X160095238Y-94138571D01*
X160095238Y-94138571D02*
X160190476Y-94090952D01*
X160190476Y-94090952D02*
X160333333Y-94090952D01*
X160333333Y-94090952D02*
X160428571Y-94138571D01*
X160428571Y-94138571D02*
X160476190Y-94186190D01*
X158809523Y-94376666D02*
X158047619Y-94376666D01*
X156952380Y-93757619D02*
X156380952Y-93757619D01*
X156666666Y-94757619D02*
X156666666Y-93757619D01*
X155619047Y-94757619D02*
X155619047Y-94233809D01*
X155619047Y-94233809D02*
X155666666Y-94138571D01*
X155666666Y-94138571D02*
X155761904Y-94090952D01*
X155761904Y-94090952D02*
X155952380Y-94090952D01*
X155952380Y-94090952D02*
X156047618Y-94138571D01*
X155619047Y-94710000D02*
X155714285Y-94757619D01*
X155714285Y-94757619D02*
X155952380Y-94757619D01*
X155952380Y-94757619D02*
X156047618Y-94710000D01*
X156047618Y-94710000D02*
X156095237Y-94614761D01*
X156095237Y-94614761D02*
X156095237Y-94519523D01*
X156095237Y-94519523D02*
X156047618Y-94424285D01*
X156047618Y-94424285D02*
X155952380Y-94376666D01*
X155952380Y-94376666D02*
X155714285Y-94376666D01*
X155714285Y-94376666D02*
X155619047Y-94329047D01*
X154714285Y-94757619D02*
X154714285Y-93757619D01*
X154714285Y-94710000D02*
X154809523Y-94757619D01*
X154809523Y-94757619D02*
X154999999Y-94757619D01*
X154999999Y-94757619D02*
X155095237Y-94710000D01*
X155095237Y-94710000D02*
X155142856Y-94662380D01*
X155142856Y-94662380D02*
X155190475Y-94567142D01*
X155190475Y-94567142D02*
X155190475Y-94281428D01*
X155190475Y-94281428D02*
X155142856Y-94186190D01*
X155142856Y-94186190D02*
X155095237Y-94138571D01*
X155095237Y-94138571D02*
X154999999Y-94090952D01*
X154999999Y-94090952D02*
X154809523Y-94090952D01*
X154809523Y-94090952D02*
X154714285Y-94138571D01*
X153619046Y-93757619D02*
X153047618Y-93757619D01*
X153333332Y-94757619D02*
X153333332Y-93757619D01*
X152714284Y-94757619D02*
X152714284Y-94090952D01*
X152714284Y-94281428D02*
X152666665Y-94186190D01*
X152666665Y-94186190D02*
X152619046Y-94138571D01*
X152619046Y-94138571D02*
X152523808Y-94090952D01*
X152523808Y-94090952D02*
X152428570Y-94090952D01*
X151666665Y-94090952D02*
X151666665Y-94757619D01*
X152095236Y-94090952D02*
X152095236Y-94614761D01*
X152095236Y-94614761D02*
X152047617Y-94710000D01*
X152047617Y-94710000D02*
X151952379Y-94757619D01*
X151952379Y-94757619D02*
X151809522Y-94757619D01*
X151809522Y-94757619D02*
X151714284Y-94710000D01*
X151714284Y-94710000D02*
X151666665Y-94662380D01*
X150809522Y-94710000D02*
X150904760Y-94757619D01*
X150904760Y-94757619D02*
X151095236Y-94757619D01*
X151095236Y-94757619D02*
X151190474Y-94710000D01*
X151190474Y-94710000D02*
X151238093Y-94614761D01*
X151238093Y-94614761D02*
X151238093Y-94233809D01*
X151238093Y-94233809D02*
X151190474Y-94138571D01*
X151190474Y-94138571D02*
X151095236Y-94090952D01*
X151095236Y-94090952D02*
X150904760Y-94090952D01*
X150904760Y-94090952D02*
X150809522Y-94138571D01*
X150809522Y-94138571D02*
X150761903Y-94233809D01*
X150761903Y-94233809D02*
X150761903Y-94329047D01*
X150761903Y-94329047D02*
X151238093Y-94424285D01*
X150428569Y-94757619D02*
X149904760Y-94090952D01*
X150428569Y-94090952D02*
X149904760Y-94757619D01*
X164190476Y-96282380D02*
X164238095Y-96330000D01*
X164238095Y-96330000D02*
X164380952Y-96377619D01*
X164380952Y-96377619D02*
X164476190Y-96377619D01*
X164476190Y-96377619D02*
X164619047Y-96330000D01*
X164619047Y-96330000D02*
X164714285Y-96234761D01*
X164714285Y-96234761D02*
X164761904Y-96139523D01*
X164761904Y-96139523D02*
X164809523Y-95949047D01*
X164809523Y-95949047D02*
X164809523Y-95806190D01*
X164809523Y-95806190D02*
X164761904Y-95615714D01*
X164761904Y-95615714D02*
X164714285Y-95520476D01*
X164714285Y-95520476D02*
X164619047Y-95425238D01*
X164619047Y-95425238D02*
X164476190Y-95377619D01*
X164476190Y-95377619D02*
X164380952Y-95377619D01*
X164380952Y-95377619D02*
X164238095Y-95425238D01*
X164238095Y-95425238D02*
X164190476Y-95472857D01*
X163619047Y-96377619D02*
X163714285Y-96330000D01*
X163714285Y-96330000D02*
X163761904Y-96282380D01*
X163761904Y-96282380D02*
X163809523Y-96187142D01*
X163809523Y-96187142D02*
X163809523Y-95901428D01*
X163809523Y-95901428D02*
X163761904Y-95806190D01*
X163761904Y-95806190D02*
X163714285Y-95758571D01*
X163714285Y-95758571D02*
X163619047Y-95710952D01*
X163619047Y-95710952D02*
X163476190Y-95710952D01*
X163476190Y-95710952D02*
X163380952Y-95758571D01*
X163380952Y-95758571D02*
X163333333Y-95806190D01*
X163333333Y-95806190D02*
X163285714Y-95901428D01*
X163285714Y-95901428D02*
X163285714Y-96187142D01*
X163285714Y-96187142D02*
X163333333Y-96282380D01*
X163333333Y-96282380D02*
X163380952Y-96330000D01*
X163380952Y-96330000D02*
X163476190Y-96377619D01*
X163476190Y-96377619D02*
X163619047Y-96377619D01*
X162857142Y-95710952D02*
X162857142Y-96710952D01*
X162857142Y-95758571D02*
X162761904Y-95710952D01*
X162761904Y-95710952D02*
X162571428Y-95710952D01*
X162571428Y-95710952D02*
X162476190Y-95758571D01*
X162476190Y-95758571D02*
X162428571Y-95806190D01*
X162428571Y-95806190D02*
X162380952Y-95901428D01*
X162380952Y-95901428D02*
X162380952Y-96187142D01*
X162380952Y-96187142D02*
X162428571Y-96282380D01*
X162428571Y-96282380D02*
X162476190Y-96330000D01*
X162476190Y-96330000D02*
X162571428Y-96377619D01*
X162571428Y-96377619D02*
X162761904Y-96377619D01*
X162761904Y-96377619D02*
X162857142Y-96330000D01*
X162047618Y-95710952D02*
X161809523Y-96377619D01*
X161571428Y-95710952D02*
X161809523Y-96377619D01*
X161809523Y-96377619D02*
X161904761Y-96615714D01*
X161904761Y-96615714D02*
X161952380Y-96663333D01*
X161952380Y-96663333D02*
X162047618Y-96710952D01*
X161190475Y-96377619D02*
X161190475Y-95710952D01*
X161190475Y-95901428D02*
X161142856Y-95806190D01*
X161142856Y-95806190D02*
X161095237Y-95758571D01*
X161095237Y-95758571D02*
X160999999Y-95710952D01*
X160999999Y-95710952D02*
X160904761Y-95710952D01*
X160571427Y-96377619D02*
X160571427Y-95710952D01*
X160571427Y-95377619D02*
X160619046Y-95425238D01*
X160619046Y-95425238D02*
X160571427Y-95472857D01*
X160571427Y-95472857D02*
X160523808Y-95425238D01*
X160523808Y-95425238D02*
X160571427Y-95377619D01*
X160571427Y-95377619D02*
X160571427Y-95472857D01*
X159666666Y-95710952D02*
X159666666Y-96520476D01*
X159666666Y-96520476D02*
X159714285Y-96615714D01*
X159714285Y-96615714D02*
X159761904Y-96663333D01*
X159761904Y-96663333D02*
X159857142Y-96710952D01*
X159857142Y-96710952D02*
X159999999Y-96710952D01*
X159999999Y-96710952D02*
X160095237Y-96663333D01*
X159666666Y-96330000D02*
X159761904Y-96377619D01*
X159761904Y-96377619D02*
X159952380Y-96377619D01*
X159952380Y-96377619D02*
X160047618Y-96330000D01*
X160047618Y-96330000D02*
X160095237Y-96282380D01*
X160095237Y-96282380D02*
X160142856Y-96187142D01*
X160142856Y-96187142D02*
X160142856Y-95901428D01*
X160142856Y-95901428D02*
X160095237Y-95806190D01*
X160095237Y-95806190D02*
X160047618Y-95758571D01*
X160047618Y-95758571D02*
X159952380Y-95710952D01*
X159952380Y-95710952D02*
X159761904Y-95710952D01*
X159761904Y-95710952D02*
X159666666Y-95758571D01*
X159190475Y-96377619D02*
X159190475Y-95377619D01*
X158761904Y-96377619D02*
X158761904Y-95853809D01*
X158761904Y-95853809D02*
X158809523Y-95758571D01*
X158809523Y-95758571D02*
X158904761Y-95710952D01*
X158904761Y-95710952D02*
X159047618Y-95710952D01*
X159047618Y-95710952D02*
X159142856Y-95758571D01*
X159142856Y-95758571D02*
X159190475Y-95806190D01*
X158428570Y-95710952D02*
X158047618Y-95710952D01*
X158285713Y-95377619D02*
X158285713Y-96234761D01*
X158285713Y-96234761D02*
X158238094Y-96330000D01*
X158238094Y-96330000D02*
X158142856Y-96377619D01*
X158142856Y-96377619D02*
X158047618Y-96377619D01*
X156999998Y-95472857D02*
X156952379Y-95425238D01*
X156952379Y-95425238D02*
X156857141Y-95377619D01*
X156857141Y-95377619D02*
X156619046Y-95377619D01*
X156619046Y-95377619D02*
X156523808Y-95425238D01*
X156523808Y-95425238D02*
X156476189Y-95472857D01*
X156476189Y-95472857D02*
X156428570Y-95568095D01*
X156428570Y-95568095D02*
X156428570Y-95663333D01*
X156428570Y-95663333D02*
X156476189Y-95806190D01*
X156476189Y-95806190D02*
X157047617Y-96377619D01*
X157047617Y-96377619D02*
X156428570Y-96377619D01*
X155809522Y-95377619D02*
X155714284Y-95377619D01*
X155714284Y-95377619D02*
X155619046Y-95425238D01*
X155619046Y-95425238D02*
X155571427Y-95472857D01*
X155571427Y-95472857D02*
X155523808Y-95568095D01*
X155523808Y-95568095D02*
X155476189Y-95758571D01*
X155476189Y-95758571D02*
X155476189Y-95996666D01*
X155476189Y-95996666D02*
X155523808Y-96187142D01*
X155523808Y-96187142D02*
X155571427Y-96282380D01*
X155571427Y-96282380D02*
X155619046Y-96330000D01*
X155619046Y-96330000D02*
X155714284Y-96377619D01*
X155714284Y-96377619D02*
X155809522Y-96377619D01*
X155809522Y-96377619D02*
X155904760Y-96330000D01*
X155904760Y-96330000D02*
X155952379Y-96282380D01*
X155952379Y-96282380D02*
X155999998Y-96187142D01*
X155999998Y-96187142D02*
X156047617Y-95996666D01*
X156047617Y-95996666D02*
X156047617Y-95758571D01*
X156047617Y-95758571D02*
X155999998Y-95568095D01*
X155999998Y-95568095D02*
X155952379Y-95472857D01*
X155952379Y-95472857D02*
X155904760Y-95425238D01*
X155904760Y-95425238D02*
X155809522Y-95377619D01*
X155095236Y-95472857D02*
X155047617Y-95425238D01*
X155047617Y-95425238D02*
X154952379Y-95377619D01*
X154952379Y-95377619D02*
X154714284Y-95377619D01*
X154714284Y-95377619D02*
X154619046Y-95425238D01*
X154619046Y-95425238D02*
X154571427Y-95472857D01*
X154571427Y-95472857D02*
X154523808Y-95568095D01*
X154523808Y-95568095D02*
X154523808Y-95663333D01*
X154523808Y-95663333D02*
X154571427Y-95806190D01*
X154571427Y-95806190D02*
X155142855Y-96377619D01*
X155142855Y-96377619D02*
X154523808Y-96377619D01*
X154190474Y-95377619D02*
X153571427Y-95377619D01*
X153571427Y-95377619D02*
X153904760Y-95758571D01*
X153904760Y-95758571D02*
X153761903Y-95758571D01*
X153761903Y-95758571D02*
X153666665Y-95806190D01*
X153666665Y-95806190D02*
X153619046Y-95853809D01*
X153619046Y-95853809D02*
X153571427Y-95949047D01*
X153571427Y-95949047D02*
X153571427Y-96187142D01*
X153571427Y-96187142D02*
X153619046Y-96282380D01*
X153619046Y-96282380D02*
X153666665Y-96330000D01*
X153666665Y-96330000D02*
X153761903Y-96377619D01*
X153761903Y-96377619D02*
X154047617Y-96377619D01*
X154047617Y-96377619D02*
X154142855Y-96330000D01*
X154142855Y-96330000D02*
X154190474Y-96282380D01*
X153095236Y-96330000D02*
X153095236Y-96377619D01*
X153095236Y-96377619D02*
X153142855Y-96472857D01*
X153142855Y-96472857D02*
X153190474Y-96520476D01*
X151904760Y-96377619D02*
X151904760Y-95377619D01*
X151904760Y-95377619D02*
X151666665Y-95377619D01*
X151666665Y-95377619D02*
X151523808Y-95425238D01*
X151523808Y-95425238D02*
X151428570Y-95520476D01*
X151428570Y-95520476D02*
X151380951Y-95615714D01*
X151380951Y-95615714D02*
X151333332Y-95806190D01*
X151333332Y-95806190D02*
X151333332Y-95949047D01*
X151333332Y-95949047D02*
X151380951Y-96139523D01*
X151380951Y-96139523D02*
X151428570Y-96234761D01*
X151428570Y-96234761D02*
X151523808Y-96330000D01*
X151523808Y-96330000D02*
X151666665Y-96377619D01*
X151666665Y-96377619D02*
X151904760Y-96377619D01*
X150476189Y-96377619D02*
X150476189Y-95853809D01*
X150476189Y-95853809D02*
X150523808Y-95758571D01*
X150523808Y-95758571D02*
X150619046Y-95710952D01*
X150619046Y-95710952D02*
X150809522Y-95710952D01*
X150809522Y-95710952D02*
X150904760Y-95758571D01*
X150476189Y-96330000D02*
X150571427Y-96377619D01*
X150571427Y-96377619D02*
X150809522Y-96377619D01*
X150809522Y-96377619D02*
X150904760Y-96330000D01*
X150904760Y-96330000D02*
X150952379Y-96234761D01*
X150952379Y-96234761D02*
X150952379Y-96139523D01*
X150952379Y-96139523D02*
X150904760Y-96044285D01*
X150904760Y-96044285D02*
X150809522Y-95996666D01*
X150809522Y-95996666D02*
X150571427Y-95996666D01*
X150571427Y-95996666D02*
X150476189Y-95949047D01*
X149999998Y-96377619D02*
X149999998Y-95710952D01*
X149999998Y-95901428D02*
X149952379Y-95806190D01*
X149952379Y-95806190D02*
X149904760Y-95758571D01*
X149904760Y-95758571D02*
X149809522Y-95710952D01*
X149809522Y-95710952D02*
X149714284Y-95710952D01*
X149523807Y-95710952D02*
X149142855Y-95710952D01*
X149380950Y-95377619D02*
X149380950Y-96234761D01*
X149380950Y-96234761D02*
X149333331Y-96330000D01*
X149333331Y-96330000D02*
X149238093Y-96377619D01*
X149238093Y-96377619D02*
X149142855Y-96377619D01*
X148809521Y-96377619D02*
X148809521Y-95710952D01*
X148809521Y-95806190D02*
X148761902Y-95758571D01*
X148761902Y-95758571D02*
X148666664Y-95710952D01*
X148666664Y-95710952D02*
X148523807Y-95710952D01*
X148523807Y-95710952D02*
X148428569Y-95758571D01*
X148428569Y-95758571D02*
X148380950Y-95853809D01*
X148380950Y-95853809D02*
X148380950Y-96377619D01*
X148380950Y-95853809D02*
X148333331Y-95758571D01*
X148333331Y-95758571D02*
X148238093Y-95710952D01*
X148238093Y-95710952D02*
X148095236Y-95710952D01*
X148095236Y-95710952D02*
X147999997Y-95758571D01*
X147999997Y-95758571D02*
X147952378Y-95853809D01*
X147952378Y-95853809D02*
X147952378Y-96377619D01*
X147333331Y-96377619D02*
X147428569Y-96330000D01*
X147428569Y-96330000D02*
X147476188Y-96282380D01*
X147476188Y-96282380D02*
X147523807Y-96187142D01*
X147523807Y-96187142D02*
X147523807Y-95901428D01*
X147523807Y-95901428D02*
X147476188Y-95806190D01*
X147476188Y-95806190D02*
X147428569Y-95758571D01*
X147428569Y-95758571D02*
X147333331Y-95710952D01*
X147333331Y-95710952D02*
X147190474Y-95710952D01*
X147190474Y-95710952D02*
X147095236Y-95758571D01*
X147095236Y-95758571D02*
X147047617Y-95806190D01*
X147047617Y-95806190D02*
X146999998Y-95901428D01*
X146999998Y-95901428D02*
X146999998Y-96187142D01*
X146999998Y-96187142D02*
X147047617Y-96282380D01*
X147047617Y-96282380D02*
X147095236Y-96330000D01*
X147095236Y-96330000D02*
X147190474Y-96377619D01*
X147190474Y-96377619D02*
X147333331Y-96377619D01*
X146142855Y-95710952D02*
X146142855Y-96377619D01*
X146571426Y-95710952D02*
X146571426Y-96234761D01*
X146571426Y-96234761D02*
X146523807Y-96330000D01*
X146523807Y-96330000D02*
X146428569Y-96377619D01*
X146428569Y-96377619D02*
X146285712Y-96377619D01*
X146285712Y-96377619D02*
X146190474Y-96330000D01*
X146190474Y-96330000D02*
X146142855Y-96282380D01*
X145809521Y-95710952D02*
X145428569Y-95710952D01*
X145666664Y-95377619D02*
X145666664Y-96234761D01*
X145666664Y-96234761D02*
X145619045Y-96330000D01*
X145619045Y-96330000D02*
X145523807Y-96377619D01*
X145523807Y-96377619D02*
X145428569Y-96377619D01*
X145095235Y-96377619D02*
X145095235Y-95377619D01*
X144666664Y-96377619D02*
X144666664Y-95853809D01*
X144666664Y-95853809D02*
X144714283Y-95758571D01*
X144714283Y-95758571D02*
X144809521Y-95710952D01*
X144809521Y-95710952D02*
X144952378Y-95710952D01*
X144952378Y-95710952D02*
X145047616Y-95758571D01*
X145047616Y-95758571D02*
X145095235Y-95806190D01*
X142857140Y-96282380D02*
X142904759Y-96330000D01*
X142904759Y-96330000D02*
X143047616Y-96377619D01*
X143047616Y-96377619D02*
X143142854Y-96377619D01*
X143142854Y-96377619D02*
X143285711Y-96330000D01*
X143285711Y-96330000D02*
X143380949Y-96234761D01*
X143380949Y-96234761D02*
X143428568Y-96139523D01*
X143428568Y-96139523D02*
X143476187Y-95949047D01*
X143476187Y-95949047D02*
X143476187Y-95806190D01*
X143476187Y-95806190D02*
X143428568Y-95615714D01*
X143428568Y-95615714D02*
X143380949Y-95520476D01*
X143380949Y-95520476D02*
X143285711Y-95425238D01*
X143285711Y-95425238D02*
X143142854Y-95377619D01*
X143142854Y-95377619D02*
X143047616Y-95377619D01*
X143047616Y-95377619D02*
X142904759Y-95425238D01*
X142904759Y-95425238D02*
X142857140Y-95472857D01*
X142285711Y-96377619D02*
X142380949Y-96330000D01*
X142380949Y-96330000D02*
X142428568Y-96282380D01*
X142428568Y-96282380D02*
X142476187Y-96187142D01*
X142476187Y-96187142D02*
X142476187Y-95901428D01*
X142476187Y-95901428D02*
X142428568Y-95806190D01*
X142428568Y-95806190D02*
X142380949Y-95758571D01*
X142380949Y-95758571D02*
X142285711Y-95710952D01*
X142285711Y-95710952D02*
X142142854Y-95710952D01*
X142142854Y-95710952D02*
X142047616Y-95758571D01*
X142047616Y-95758571D02*
X141999997Y-95806190D01*
X141999997Y-95806190D02*
X141952378Y-95901428D01*
X141952378Y-95901428D02*
X141952378Y-96187142D01*
X141952378Y-96187142D02*
X141999997Y-96282380D01*
X141999997Y-96282380D02*
X142047616Y-96330000D01*
X142047616Y-96330000D02*
X142142854Y-96377619D01*
X142142854Y-96377619D02*
X142285711Y-96377619D01*
X141380949Y-96377619D02*
X141476187Y-96330000D01*
X141476187Y-96330000D02*
X141523806Y-96234761D01*
X141523806Y-96234761D02*
X141523806Y-95377619D01*
X140857139Y-96377619D02*
X140952377Y-96330000D01*
X140952377Y-96330000D02*
X140999996Y-96234761D01*
X140999996Y-96234761D02*
X140999996Y-95377619D01*
X140095234Y-96330000D02*
X140190472Y-96377619D01*
X140190472Y-96377619D02*
X140380948Y-96377619D01*
X140380948Y-96377619D02*
X140476186Y-96330000D01*
X140476186Y-96330000D02*
X140523805Y-96234761D01*
X140523805Y-96234761D02*
X140523805Y-95853809D01*
X140523805Y-95853809D02*
X140476186Y-95758571D01*
X140476186Y-95758571D02*
X140380948Y-95710952D01*
X140380948Y-95710952D02*
X140190472Y-95710952D01*
X140190472Y-95710952D02*
X140095234Y-95758571D01*
X140095234Y-95758571D02*
X140047615Y-95853809D01*
X140047615Y-95853809D02*
X140047615Y-95949047D01*
X140047615Y-95949047D02*
X140523805Y-96044285D01*
X139190472Y-95710952D02*
X139190472Y-96520476D01*
X139190472Y-96520476D02*
X139238091Y-96615714D01*
X139238091Y-96615714D02*
X139285710Y-96663333D01*
X139285710Y-96663333D02*
X139380948Y-96710952D01*
X139380948Y-96710952D02*
X139523805Y-96710952D01*
X139523805Y-96710952D02*
X139619043Y-96663333D01*
X139190472Y-96330000D02*
X139285710Y-96377619D01*
X139285710Y-96377619D02*
X139476186Y-96377619D01*
X139476186Y-96377619D02*
X139571424Y-96330000D01*
X139571424Y-96330000D02*
X139619043Y-96282380D01*
X139619043Y-96282380D02*
X139666662Y-96187142D01*
X139666662Y-96187142D02*
X139666662Y-95901428D01*
X139666662Y-95901428D02*
X139619043Y-95806190D01*
X139619043Y-95806190D02*
X139571424Y-95758571D01*
X139571424Y-95758571D02*
X139476186Y-95710952D01*
X139476186Y-95710952D02*
X139285710Y-95710952D01*
X139285710Y-95710952D02*
X139190472Y-95758571D01*
X138333329Y-96330000D02*
X138428567Y-96377619D01*
X138428567Y-96377619D02*
X138619043Y-96377619D01*
X138619043Y-96377619D02*
X138714281Y-96330000D01*
X138714281Y-96330000D02*
X138761900Y-96234761D01*
X138761900Y-96234761D02*
X138761900Y-95853809D01*
X138761900Y-95853809D02*
X138714281Y-95758571D01*
X138714281Y-95758571D02*
X138619043Y-95710952D01*
X138619043Y-95710952D02*
X138428567Y-95710952D01*
X138428567Y-95710952D02*
X138333329Y-95758571D01*
X138333329Y-95758571D02*
X138285710Y-95853809D01*
X138285710Y-95853809D02*
X138285710Y-95949047D01*
X138285710Y-95949047D02*
X138761900Y-96044285D01*
M02*
