%TF.GenerationSoftware,KiCad,Pcbnew,7.0.2-0*%
%TF.CreationDate,2023-11-21T12:49:43-05:00*%
%TF.ProjectId,WiringHarness,57697269-6e67-4486-9172-6e6573732e6b,rev?*%
%TF.SameCoordinates,Original*%
%TF.FileFunction,Copper,L2,Bot*%
%TF.FilePolarity,Positive*%
%FSLAX46Y46*%
G04 Gerber Fmt 4.6, Leading zero omitted, Abs format (unit mm)*
G04 Created by KiCad (PCBNEW 7.0.2-0) date 2023-11-21 12:49:43*
%MOMM*%
%LPD*%
G01*
G04 APERTURE LIST*
G04 Aperture macros list*
%AMRoundRect*
0 Rectangle with rounded corners*
0 $1 Rounding radius*
0 $2 $3 $4 $5 $6 $7 $8 $9 X,Y pos of 4 corners*
0 Add a 4 corners polygon primitive as box body*
4,1,4,$2,$3,$4,$5,$6,$7,$8,$9,$2,$3,0*
0 Add four circle primitives for the rounded corners*
1,1,$1+$1,$2,$3*
1,1,$1+$1,$4,$5*
1,1,$1+$1,$6,$7*
1,1,$1+$1,$8,$9*
0 Add four rect primitives between the rounded corners*
20,1,$1+$1,$2,$3,$4,$5,0*
20,1,$1+$1,$4,$5,$6,$7,0*
20,1,$1+$1,$6,$7,$8,$9,0*
20,1,$1+$1,$8,$9,$2,$3,0*%
G04 Aperture macros list end*
%TA.AperFunction,ComponentPad*%
%ADD10RoundRect,0.250000X0.350000X0.625000X-0.350000X0.625000X-0.350000X-0.625000X0.350000X-0.625000X0*%
%TD*%
%TA.AperFunction,ComponentPad*%
%ADD11O,1.200000X1.750000*%
%TD*%
%TA.AperFunction,ComponentPad*%
%ADD12R,1.700000X1.700000*%
%TD*%
%TA.AperFunction,ComponentPad*%
%ADD13O,1.700000X1.700000*%
%TD*%
%TA.AperFunction,ComponentPad*%
%ADD14C,4.400000*%
%TD*%
%TA.AperFunction,ComponentPad*%
%ADD15R,3.500000X3.500000*%
%TD*%
%TA.AperFunction,ComponentPad*%
%ADD16RoundRect,0.750000X-0.750000X-1.000000X0.750000X-1.000000X0.750000X1.000000X-0.750000X1.000000X0*%
%TD*%
%TA.AperFunction,ComponentPad*%
%ADD17RoundRect,0.875000X-0.875000X-0.875000X0.875000X-0.875000X0.875000X0.875000X-0.875000X0.875000X0*%
%TD*%
%TA.AperFunction,ComponentPad*%
%ADD18R,1.600000X1.600000*%
%TD*%
%TA.AperFunction,ComponentPad*%
%ADD19C,1.600000*%
%TD*%
%TA.AperFunction,ViaPad*%
%ADD20C,0.800000*%
%TD*%
%TA.AperFunction,ViaPad*%
%ADD21C,0.500000*%
%TD*%
%TA.AperFunction,Conductor*%
%ADD22C,0.254000*%
%TD*%
G04 APERTURE END LIST*
D10*
%TO.P,J7,1,Pin_1*%
%TO.N,GND*%
X144500000Y-81950000D03*
D11*
%TO.P,J7,2,Pin_2*%
%TO.N,/IIC5V*%
X142500000Y-81950000D03*
%TO.P,J7,3,Pin_3*%
%TO.N,/D0*%
X140500000Y-81950000D03*
%TO.P,J7,4,Pin_4*%
%TO.N,/D1*%
X138500000Y-81950000D03*
%TD*%
D12*
%TO.P,J4,1,Pin_1*%
%TO.N,/ServoX*%
X159370000Y-110000000D03*
D13*
%TO.P,J4,2,Pin_2*%
%TO.N,/ServoY*%
X159370000Y-112540000D03*
%TO.P,J4,3,Pin_3*%
%TO.N,/SCL*%
X156830000Y-110000000D03*
%TO.P,J4,4,Pin_4*%
%TO.N,/SDA*%
X156830000Y-112540000D03*
%TO.P,J4,5,Pin_5*%
%TO.N,/D0*%
X154290000Y-110000000D03*
%TO.P,J4,6,Pin_6*%
%TO.N,/D1*%
X154290000Y-112540000D03*
%TO.P,J4,7,Pin_7*%
%TO.N,/Vsys*%
X151750000Y-110000000D03*
%TO.P,J4,8,Pin_8*%
X151750000Y-112540000D03*
%TO.P,J4,9,Pin_9*%
%TO.N,GND*%
X149210000Y-110000000D03*
%TO.P,J4,10,Pin_10*%
X149210000Y-112540000D03*
%TD*%
D12*
%TO.P,J3,1,Pin_1*%
%TO.N,/ServoY*%
X177000000Y-98225000D03*
D13*
%TO.P,J3,2,Pin_2*%
%TO.N,/VoutServo*%
X177000000Y-100765000D03*
%TO.P,J3,3,Pin_3*%
%TO.N,GND*%
X177000000Y-103305000D03*
%TD*%
D12*
%TO.P,J5,1,Pin_1*%
%TO.N,/SCL*%
X157800000Y-80750000D03*
D13*
%TO.P,J5,2,Pin_2*%
%TO.N,/SDA*%
X155260000Y-80750000D03*
%TO.P,J5,3,Pin_3*%
%TO.N,GND*%
X152720000Y-80750000D03*
%TO.P,J5,4,Pin_4*%
%TO.N,/IIC5V*%
X150180000Y-80750000D03*
%TD*%
D14*
%TO.P,H2,1,1*%
%TO.N,GND*%
X177000000Y-110750000D03*
%TD*%
%TO.P,H5,1,1*%
%TO.N,GND*%
X132000000Y-80750000D03*
%TD*%
%TO.P,H3,1,1*%
%TO.N,GND*%
X132000000Y-110750000D03*
%TD*%
D12*
%TO.P,J2,1,Pin_1*%
%TO.N,/ServoX*%
X177000000Y-88225000D03*
D13*
%TO.P,J2,2,Pin_2*%
%TO.N,/VoutServo*%
X177000000Y-90765000D03*
%TO.P,J2,3,Pin_3*%
%TO.N,GND*%
X177000000Y-93305000D03*
%TD*%
D15*
%TO.P,J1,1*%
%TO.N,Net-(D1-A)*%
X137512000Y-100592500D03*
D16*
%TO.P,J1,2*%
%TO.N,GND*%
X131512000Y-100592500D03*
D17*
%TO.P,J1,3*%
%TO.N,N/C*%
X134512000Y-105292500D03*
%TD*%
D18*
%TO.P,C10,1*%
%TO.N,Net-(D1-A)*%
X140200000Y-109250000D03*
D19*
%TO.P,C10,2*%
%TO.N,GND*%
X140200000Y-111750000D03*
%TD*%
D14*
%TO.P,H1,1,1*%
%TO.N,GND*%
X177000000Y-80750000D03*
%TD*%
D20*
%TO.N,GND*%
X166000000Y-90250000D03*
X167000000Y-90250000D03*
X147250000Y-94500000D03*
X147900000Y-107650000D03*
X159750000Y-87250000D03*
X158750000Y-87250000D03*
X148250000Y-94500000D03*
X139750000Y-91050000D03*
X169750000Y-78500000D03*
X160950000Y-103400000D03*
X145650000Y-107650000D03*
X169450000Y-85950000D03*
X168000000Y-105250000D03*
X142400000Y-97350000D03*
X162200000Y-96150000D03*
%TO.N,/SCL*%
X157800000Y-84350000D03*
D21*
%TO.N,/SDA*%
X156400000Y-84150000D03*
D20*
%TO.N,/IIC3V*%
X164950000Y-79400000D03*
X165000000Y-86100000D03*
%TO.N,/SCL3*%
X173650000Y-79450000D03*
X167400000Y-78750000D03*
%TD*%
D22*
%TO.N,/SCL*%
X157800000Y-84350000D02*
X157800000Y-96700000D01*
X156830000Y-110000000D02*
X155750000Y-108920000D01*
X157800000Y-80750000D02*
X157800000Y-84350000D01*
X155750000Y-108920000D02*
X155750000Y-98750000D01*
X157800000Y-96700000D02*
X155750000Y-98750000D01*
%TO.N,/SDA*%
X154946937Y-108655047D02*
X154946937Y-98750000D01*
X156830000Y-112540000D02*
X155394000Y-111104000D01*
X156400000Y-84150000D02*
X156500000Y-84250000D01*
X155394000Y-109102110D02*
X154946937Y-108655047D01*
X155260000Y-80750000D02*
X155260000Y-83010000D01*
X156500000Y-84250000D02*
X156500000Y-97196937D01*
X156500000Y-97196937D02*
X154946937Y-98750000D01*
X155260000Y-83010000D02*
X156400000Y-84150000D01*
X155394000Y-111104000D02*
X155394000Y-109102110D01*
%TO.N,/ServoX*%
X166775000Y-88225000D02*
X159370000Y-95630000D01*
X159370000Y-95630000D02*
X159370000Y-110000000D01*
X177000000Y-88225000D02*
X166775000Y-88225000D01*
%TO.N,/ServoY*%
X173250000Y-101975000D02*
X177000000Y-98225000D01*
X165960000Y-112540000D02*
X173250000Y-105250000D01*
X173250000Y-105250000D02*
X173250000Y-101975000D01*
X159370000Y-112540000D02*
X165960000Y-112540000D01*
%TO.N,/D0*%
X154238998Y-109948998D02*
X154238998Y-95688998D01*
X154238998Y-95688998D02*
X140500000Y-81950000D01*
X154290000Y-110000000D02*
X154238998Y-109948998D01*
%TO.N,/D1*%
X153186000Y-111436000D02*
X153186000Y-96500000D01*
X154290000Y-112540000D02*
X153186000Y-111436000D01*
X138636000Y-81950000D02*
X153186000Y-96500000D01*
X138500000Y-81950000D02*
X138636000Y-81950000D01*
%TO.N,/IIC3V*%
X165000000Y-86100000D02*
X165000000Y-79450000D01*
X165000000Y-79450000D02*
X164950000Y-79400000D01*
%TO.N,/SCL3*%
X171150000Y-76950000D02*
X173650000Y-79450000D01*
X168300000Y-76950000D02*
X167400000Y-77850000D01*
X169400000Y-76950000D02*
X168300000Y-76950000D01*
X169400000Y-76950000D02*
X171150000Y-76950000D01*
X167400000Y-77850000D02*
X167400000Y-78750000D01*
%TD*%
%TA.AperFunction,Conductor*%
%TO.N,GND*%
G36*
X149460000Y-112104498D02*
G01*
X149352315Y-112055320D01*
X149245763Y-112040000D01*
X149174237Y-112040000D01*
X149067685Y-112055320D01*
X148960000Y-112104498D01*
X148960000Y-110435501D01*
X149067685Y-110484680D01*
X149174237Y-110500000D01*
X149245763Y-110500000D01*
X149352315Y-110484680D01*
X149460000Y-110435501D01*
X149460000Y-112104498D01*
G37*
%TD.AperFunction*%
%TA.AperFunction,Conductor*%
G36*
X179003243Y-75750669D02*
G01*
X179133628Y-75757503D01*
X179313910Y-75767628D01*
X179326309Y-75768955D01*
X179475647Y-75792608D01*
X179635321Y-75819737D01*
X179646619Y-75822205D01*
X179796693Y-75862418D01*
X179949188Y-75906351D01*
X179959253Y-75909726D01*
X180104710Y-75965562D01*
X180107599Y-75966714D01*
X180251768Y-76026430D01*
X180260594Y-76030500D01*
X180400064Y-76101565D01*
X180403748Y-76103521D01*
X180493848Y-76153316D01*
X180539548Y-76178574D01*
X180547061Y-76183081D01*
X180678754Y-76268604D01*
X180682947Y-76271452D01*
X180809147Y-76360996D01*
X180815426Y-76365757D01*
X180905017Y-76438307D01*
X180937567Y-76464665D01*
X180942154Y-76468567D01*
X181031944Y-76548809D01*
X181057424Y-76571579D01*
X181062478Y-76576358D01*
X181173640Y-76687520D01*
X181178419Y-76692574D01*
X181281427Y-76807840D01*
X181285333Y-76812431D01*
X181384239Y-76934570D01*
X181389002Y-76940851D01*
X181478546Y-77067051D01*
X181481409Y-77071266D01*
X181566907Y-77202921D01*
X181571430Y-77210460D01*
X181646477Y-77346250D01*
X181648433Y-77349934D01*
X181719498Y-77489404D01*
X181723575Y-77498247D01*
X181783259Y-77642337D01*
X181784462Y-77645353D01*
X181840265Y-77790727D01*
X181843655Y-77800836D01*
X181887579Y-77953297D01*
X181927793Y-78103379D01*
X181930262Y-78114685D01*
X181957394Y-78274369D01*
X181981040Y-78423670D01*
X181982371Y-78436108D01*
X181992509Y-78616617D01*
X181999330Y-78746756D01*
X181999500Y-78753246D01*
X181999500Y-112746753D01*
X181999330Y-112753243D01*
X181992509Y-112883382D01*
X181982372Y-113063887D01*
X181981040Y-113076331D01*
X181957394Y-113225629D01*
X181930263Y-113385308D01*
X181927791Y-113396624D01*
X181887579Y-113546701D01*
X181843653Y-113699170D01*
X181840268Y-113709263D01*
X181784462Y-113854645D01*
X181783259Y-113857661D01*
X181723575Y-114001751D01*
X181719498Y-114010594D01*
X181648433Y-114150064D01*
X181646477Y-114153748D01*
X181571430Y-114289538D01*
X181566897Y-114297094D01*
X181481412Y-114428728D01*
X181478546Y-114432947D01*
X181389002Y-114559147D01*
X181384239Y-114565428D01*
X181285333Y-114687567D01*
X181281427Y-114692158D01*
X181178419Y-114807424D01*
X181173640Y-114812478D01*
X181062478Y-114923640D01*
X181057424Y-114928419D01*
X180942158Y-115031427D01*
X180937567Y-115035333D01*
X180815428Y-115134239D01*
X180809147Y-115139002D01*
X180682947Y-115228546D01*
X180678728Y-115231412D01*
X180547094Y-115316897D01*
X180539538Y-115321430D01*
X180403748Y-115396477D01*
X180400064Y-115398433D01*
X180260594Y-115469498D01*
X180251751Y-115473575D01*
X180107661Y-115533259D01*
X180104645Y-115534462D01*
X179959271Y-115590265D01*
X179949162Y-115593655D01*
X179796702Y-115637579D01*
X179646619Y-115677793D01*
X179635313Y-115680262D01*
X179475630Y-115707394D01*
X179326328Y-115731040D01*
X179313890Y-115732371D01*
X179133382Y-115742509D01*
X179003244Y-115749330D01*
X178996754Y-115749500D01*
X130003247Y-115749500D01*
X129996757Y-115749330D01*
X129866617Y-115742509D01*
X129686111Y-115732372D01*
X129673666Y-115731040D01*
X129524369Y-115707394D01*
X129364690Y-115680263D01*
X129353374Y-115677791D01*
X129203298Y-115637579D01*
X129050828Y-115593653D01*
X129040735Y-115590268D01*
X128895353Y-115534462D01*
X128892337Y-115533259D01*
X128748247Y-115473575D01*
X128739404Y-115469498D01*
X128599934Y-115398433D01*
X128596250Y-115396477D01*
X128460460Y-115321430D01*
X128452921Y-115316907D01*
X128321266Y-115231409D01*
X128317051Y-115228546D01*
X128190851Y-115139002D01*
X128184570Y-115134239D01*
X128062431Y-115035333D01*
X128057840Y-115031427D01*
X127942574Y-114928419D01*
X127937520Y-114923640D01*
X127826358Y-114812478D01*
X127821579Y-114807424D01*
X127718571Y-114692158D01*
X127714665Y-114687567D01*
X127615759Y-114565428D01*
X127610996Y-114559147D01*
X127521452Y-114432947D01*
X127518604Y-114428754D01*
X127433081Y-114297061D01*
X127428568Y-114289538D01*
X127353521Y-114153748D01*
X127351565Y-114150064D01*
X127280500Y-114010594D01*
X127276430Y-114001768D01*
X127216714Y-113857599D01*
X127215562Y-113854710D01*
X127159729Y-113709260D01*
X127156346Y-113699170D01*
X127112414Y-113546679D01*
X127107316Y-113527652D01*
X127072202Y-113396605D01*
X127069738Y-113385323D01*
X127042601Y-113225606D01*
X127018956Y-113076316D01*
X127017627Y-113063890D01*
X127014763Y-113012888D01*
X127007490Y-112883382D01*
X127000669Y-112753243D01*
X127000500Y-112746755D01*
X127000500Y-110753736D01*
X129295290Y-110753736D01*
X129314560Y-111072302D01*
X129315462Y-111079732D01*
X129372990Y-111393651D01*
X129374778Y-111400907D01*
X129469729Y-111705613D01*
X129472374Y-111712589D01*
X129603362Y-112003631D01*
X129606836Y-112010251D01*
X129771945Y-112283373D01*
X129776191Y-112289525D01*
X129921477Y-112474968D01*
X131064210Y-111332234D01*
X131164894Y-111473624D01*
X131316932Y-111618592D01*
X131419222Y-111684330D01*
X130275030Y-112828521D01*
X130275030Y-112828522D01*
X130460474Y-112973808D01*
X130466626Y-112978054D01*
X130739748Y-113143163D01*
X130746368Y-113146637D01*
X131037410Y-113277625D01*
X131044386Y-113280270D01*
X131349092Y-113375221D01*
X131356348Y-113377009D01*
X131670267Y-113434537D01*
X131677697Y-113435439D01*
X131996264Y-113454709D01*
X132003736Y-113454709D01*
X132322302Y-113435439D01*
X132329732Y-113434537D01*
X132643651Y-113377009D01*
X132650907Y-113375221D01*
X132955613Y-113280270D01*
X132962589Y-113277625D01*
X133253631Y-113146637D01*
X133260251Y-113143163D01*
X133533369Y-112978057D01*
X133539524Y-112973808D01*
X133724968Y-112828522D01*
X133724968Y-112828521D01*
X132583306Y-111686859D01*
X132597410Y-111679589D01*
X132762540Y-111549729D01*
X132900110Y-111390965D01*
X132934665Y-111331113D01*
X134078521Y-112474968D01*
X134078522Y-112474968D01*
X134223808Y-112289524D01*
X134228057Y-112283369D01*
X134393163Y-112010251D01*
X134396637Y-112003631D01*
X134510788Y-111750000D01*
X138895033Y-111750000D01*
X138914858Y-111976602D01*
X138973733Y-112196326D01*
X139069866Y-112402484D01*
X139120972Y-112475471D01*
X139120974Y-112475472D01*
X139802046Y-111794399D01*
X139814835Y-111875148D01*
X139872359Y-111988045D01*
X139961955Y-112077641D01*
X140074852Y-112135165D01*
X140155599Y-112147953D01*
X139474526Y-112829025D01*
X139474526Y-112829026D01*
X139547515Y-112880133D01*
X139753673Y-112976266D01*
X139973397Y-113035141D01*
X140200000Y-113054966D01*
X140426602Y-113035141D01*
X140646326Y-112976266D01*
X140852480Y-112880134D01*
X140925472Y-112829025D01*
X140244401Y-112147953D01*
X140325148Y-112135165D01*
X140438045Y-112077641D01*
X140527641Y-111988045D01*
X140585165Y-111875148D01*
X140597953Y-111794400D01*
X141279025Y-112475472D01*
X141330134Y-112402480D01*
X141426266Y-112196326D01*
X141485141Y-111976602D01*
X141504966Y-111750000D01*
X141485141Y-111523397D01*
X141426266Y-111303673D01*
X141330133Y-111097515D01*
X141279025Y-111024526D01*
X140597953Y-111705598D01*
X140585165Y-111624852D01*
X140527641Y-111511955D01*
X140438045Y-111422359D01*
X140325148Y-111364835D01*
X140244399Y-111352045D01*
X140930600Y-110665845D01*
X140940481Y-110616679D01*
X140989096Y-110566496D01*
X141043621Y-110550548D01*
X141044536Y-110550499D01*
X141047872Y-110550499D01*
X141107483Y-110544091D01*
X141242331Y-110493796D01*
X141357546Y-110407546D01*
X141443796Y-110292331D01*
X141494091Y-110157483D01*
X141500500Y-110097873D01*
X141500499Y-108402128D01*
X141494091Y-108342517D01*
X141443796Y-108207669D01*
X141357546Y-108092454D01*
X141242331Y-108006204D01*
X141107483Y-107955909D01*
X141047873Y-107949500D01*
X141044550Y-107949500D01*
X139355439Y-107949500D01*
X139355420Y-107949500D01*
X139352128Y-107949501D01*
X139348848Y-107949853D01*
X139348840Y-107949854D01*
X139292515Y-107955909D01*
X139157669Y-108006204D01*
X139042454Y-108092454D01*
X138956204Y-108207668D01*
X138905910Y-108342515D01*
X138905909Y-108342517D01*
X138899500Y-108402127D01*
X138899500Y-108405448D01*
X138899500Y-108405449D01*
X138899500Y-110094560D01*
X138899500Y-110094578D01*
X138899501Y-110097872D01*
X138899853Y-110101152D01*
X138899854Y-110101159D01*
X138905909Y-110157484D01*
X138925438Y-110209844D01*
X138956204Y-110292331D01*
X139042454Y-110407546D01*
X139157669Y-110493796D01*
X139292517Y-110544091D01*
X139352127Y-110550500D01*
X139355455Y-110550499D01*
X139356388Y-110550550D01*
X139422278Y-110573792D01*
X139465143Y-110628967D01*
X139470666Y-110667113D01*
X140155598Y-111352046D01*
X140074852Y-111364835D01*
X139961955Y-111422359D01*
X139872359Y-111511955D01*
X139814835Y-111624852D01*
X139802046Y-111705599D01*
X139120973Y-111024526D01*
X139120973Y-111024527D01*
X139069865Y-111097516D01*
X138973733Y-111303672D01*
X138914858Y-111523397D01*
X138895033Y-111750000D01*
X134510788Y-111750000D01*
X134527625Y-111712589D01*
X134530270Y-111705613D01*
X134625221Y-111400907D01*
X134627009Y-111393651D01*
X134684537Y-111079732D01*
X134685439Y-111072302D01*
X134704709Y-110753736D01*
X134704709Y-110746263D01*
X134685439Y-110427697D01*
X134684537Y-110420267D01*
X134627009Y-110106348D01*
X134625221Y-110099092D01*
X134530270Y-109794386D01*
X134527625Y-109787410D01*
X134396637Y-109496368D01*
X134393163Y-109489748D01*
X134228054Y-109216626D01*
X134223808Y-109210474D01*
X134078521Y-109025030D01*
X132935787Y-110167763D01*
X132835106Y-110026376D01*
X132683068Y-109881408D01*
X132580777Y-109815669D01*
X133724968Y-108671477D01*
X133724968Y-108671476D01*
X133539525Y-108526191D01*
X133533373Y-108521945D01*
X133260251Y-108356836D01*
X133253631Y-108353362D01*
X132962589Y-108222374D01*
X132955613Y-108219729D01*
X132650907Y-108124778D01*
X132643651Y-108122990D01*
X132329732Y-108065462D01*
X132322302Y-108064560D01*
X132003736Y-108045291D01*
X131996264Y-108045291D01*
X131677697Y-108064560D01*
X131670267Y-108065462D01*
X131356348Y-108122990D01*
X131349092Y-108124778D01*
X131044386Y-108219729D01*
X131037410Y-108222374D01*
X130746368Y-108353362D01*
X130739748Y-108356836D01*
X130466626Y-108521945D01*
X130460474Y-108526191D01*
X130275030Y-108671476D01*
X130275030Y-108671477D01*
X131416693Y-109813140D01*
X131402590Y-109820411D01*
X131237460Y-109950271D01*
X131099890Y-110109035D01*
X131065334Y-110168886D01*
X129921477Y-109025030D01*
X129921476Y-109025030D01*
X129776191Y-109210474D01*
X129771945Y-109216626D01*
X129606836Y-109489748D01*
X129603362Y-109496368D01*
X129472374Y-109787410D01*
X129469729Y-109794386D01*
X129374778Y-110099092D01*
X129372990Y-110106348D01*
X129315462Y-110420267D01*
X129314560Y-110427697D01*
X129295290Y-110746263D01*
X129295290Y-110753736D01*
X127000500Y-110753736D01*
X127000500Y-106261122D01*
X132261500Y-106261122D01*
X132261586Y-106262747D01*
X132261587Y-106262772D01*
X132264067Y-106309459D01*
X132264067Y-106309466D01*
X132264295Y-106313741D01*
X132308755Y-106543626D01*
X132391426Y-106762690D01*
X132509930Y-106964632D01*
X132660858Y-107143642D01*
X132839868Y-107294570D01*
X133041810Y-107413074D01*
X133260874Y-107495745D01*
X133490759Y-107540205D01*
X133543378Y-107543000D01*
X133545022Y-107543000D01*
X135478978Y-107543000D01*
X135480622Y-107543000D01*
X135533241Y-107540205D01*
X135763126Y-107495745D01*
X135982190Y-107413074D01*
X136184132Y-107294570D01*
X136363142Y-107143642D01*
X136514070Y-106964632D01*
X136632574Y-106762690D01*
X136715245Y-106543626D01*
X136759705Y-106313741D01*
X136762500Y-106261122D01*
X136762500Y-104323878D01*
X136759705Y-104271259D01*
X136715245Y-104041374D01*
X136632574Y-103822310D01*
X136514070Y-103620368D01*
X136363142Y-103441358D01*
X136184132Y-103290430D01*
X135982190Y-103171926D01*
X135763126Y-103089255D01*
X135763121Y-103089254D01*
X135760475Y-103088742D01*
X135756974Y-103086934D01*
X135753251Y-103085529D01*
X135753414Y-103085095D01*
X135698395Y-103056682D01*
X135663503Y-102996148D01*
X135666876Y-102926360D01*
X135707445Y-102869475D01*
X135772328Y-102843552D01*
X135784007Y-102842999D01*
X139309872Y-102842999D01*
X139369483Y-102836591D01*
X139504331Y-102786296D01*
X139619546Y-102700046D01*
X139705796Y-102584831D01*
X139756091Y-102449983D01*
X139762500Y-102390373D01*
X139762499Y-98794628D01*
X139756091Y-98735017D01*
X139705796Y-98600169D01*
X139619546Y-98484954D01*
X139504331Y-98398704D01*
X139369483Y-98348409D01*
X139369483Y-98348408D01*
X139313166Y-98342354D01*
X139313165Y-98342353D01*
X139309873Y-98342000D01*
X139306550Y-98342000D01*
X135717439Y-98342000D01*
X135717420Y-98342000D01*
X135714128Y-98342001D01*
X135710848Y-98342353D01*
X135710840Y-98342354D01*
X135654515Y-98348409D01*
X135519669Y-98398704D01*
X135404454Y-98484954D01*
X135318204Y-98600168D01*
X135267909Y-98735016D01*
X135262195Y-98788167D01*
X135261500Y-98794627D01*
X135261500Y-98797948D01*
X135261500Y-98797949D01*
X135261500Y-102387060D01*
X135261500Y-102387078D01*
X135261501Y-102390372D01*
X135267909Y-102449983D01*
X135318204Y-102584831D01*
X135404454Y-102700046D01*
X135519669Y-102786296D01*
X135566940Y-102803927D01*
X135622873Y-102845796D01*
X135647291Y-102911261D01*
X135632440Y-102979534D01*
X135583035Y-103028940D01*
X135517033Y-103043934D01*
X135482242Y-103042086D01*
X135482240Y-103042085D01*
X135480622Y-103042000D01*
X133543378Y-103042000D01*
X133541753Y-103042086D01*
X133541727Y-103042087D01*
X133495040Y-103044567D01*
X133495031Y-103044568D01*
X133490759Y-103044795D01*
X133486561Y-103045606D01*
X133486552Y-103045608D01*
X133260877Y-103089254D01*
X133260874Y-103089254D01*
X133260874Y-103089255D01*
X133151341Y-103130590D01*
X133041807Y-103171927D01*
X132839868Y-103290430D01*
X132660858Y-103441358D01*
X132509930Y-103620368D01*
X132391427Y-103822307D01*
X132308754Y-104041377D01*
X132265108Y-104267052D01*
X132265106Y-104267061D01*
X132264295Y-104271259D01*
X132264068Y-104275531D01*
X132264067Y-104275540D01*
X132261587Y-104322227D01*
X132261586Y-104322253D01*
X132261500Y-104323878D01*
X132261500Y-106261122D01*
X127000500Y-106261122D01*
X127000500Y-100342500D01*
X129512000Y-100342500D01*
X131012000Y-100342500D01*
X131012000Y-100842500D01*
X129512001Y-100842500D01*
X129512001Y-101654244D01*
X129512192Y-101659125D01*
X129522400Y-101788831D01*
X129577377Y-102007018D01*
X129670430Y-102211879D01*
X129798565Y-102396832D01*
X129957667Y-102555934D01*
X130142620Y-102684069D01*
X130347481Y-102777122D01*
X130565668Y-102832099D01*
X130695374Y-102842308D01*
X130700254Y-102842499D01*
X131261999Y-102842499D01*
X131262000Y-102842498D01*
X131262000Y-102026186D01*
X131302156Y-102051993D01*
X131440111Y-102092500D01*
X131583889Y-102092500D01*
X131721844Y-102051993D01*
X131762000Y-102026186D01*
X131762000Y-102842499D01*
X132323744Y-102842499D01*
X132328625Y-102842307D01*
X132458331Y-102832099D01*
X132676518Y-102777122D01*
X132881379Y-102684069D01*
X133066332Y-102555934D01*
X133225434Y-102396832D01*
X133353569Y-102211879D01*
X133446622Y-102007018D01*
X133501599Y-101788831D01*
X133511808Y-101659125D01*
X133512000Y-101654245D01*
X133512000Y-100842500D01*
X132012000Y-100842500D01*
X132012000Y-100342500D01*
X133511999Y-100342500D01*
X133511999Y-99530755D01*
X133511807Y-99525874D01*
X133501599Y-99396168D01*
X133446622Y-99177981D01*
X133353569Y-98973120D01*
X133225434Y-98788167D01*
X133066332Y-98629065D01*
X132881379Y-98500930D01*
X132676518Y-98407877D01*
X132458331Y-98352900D01*
X132328625Y-98342691D01*
X132323746Y-98342500D01*
X131762000Y-98342500D01*
X131762000Y-99158813D01*
X131721844Y-99133007D01*
X131583889Y-99092500D01*
X131440111Y-99092500D01*
X131302156Y-99133007D01*
X131261999Y-99158813D01*
X131261999Y-98342500D01*
X130700255Y-98342500D01*
X130695374Y-98342692D01*
X130565668Y-98352900D01*
X130347481Y-98407877D01*
X130142620Y-98500930D01*
X129957667Y-98629065D01*
X129798565Y-98788167D01*
X129670430Y-98973120D01*
X129577377Y-99177981D01*
X129522400Y-99396168D01*
X129512191Y-99525874D01*
X129512000Y-99530754D01*
X129512000Y-100342500D01*
X127000500Y-100342500D01*
X127000500Y-80753736D01*
X129295290Y-80753736D01*
X129314560Y-81072302D01*
X129315462Y-81079732D01*
X129372990Y-81393651D01*
X129374778Y-81400907D01*
X129469729Y-81705613D01*
X129472374Y-81712589D01*
X129603362Y-82003631D01*
X129606836Y-82010251D01*
X129771945Y-82283373D01*
X129776191Y-82289525D01*
X129921477Y-82474968D01*
X131064211Y-81332235D01*
X131164894Y-81473624D01*
X131316932Y-81618592D01*
X131419222Y-81684330D01*
X130275030Y-82828521D01*
X130275030Y-82828522D01*
X130460474Y-82973808D01*
X130466626Y-82978054D01*
X130739748Y-83143163D01*
X130746368Y-83146637D01*
X131037410Y-83277625D01*
X131044386Y-83280270D01*
X131349092Y-83375221D01*
X131356348Y-83377009D01*
X131670267Y-83434537D01*
X131677697Y-83435439D01*
X131996264Y-83454709D01*
X132003736Y-83454709D01*
X132322302Y-83435439D01*
X132329732Y-83434537D01*
X132643651Y-83377009D01*
X132650907Y-83375221D01*
X132955613Y-83280270D01*
X132962589Y-83277625D01*
X133253631Y-83146637D01*
X133260251Y-83143163D01*
X133533369Y-82978057D01*
X133539524Y-82973808D01*
X133724968Y-82828522D01*
X133724968Y-82828521D01*
X132583306Y-81686859D01*
X132597410Y-81679589D01*
X132762540Y-81549729D01*
X132900110Y-81390965D01*
X132934665Y-81331112D01*
X134078521Y-82474968D01*
X134078522Y-82474968D01*
X134223808Y-82289524D01*
X134228057Y-82283369D01*
X134231650Y-82277425D01*
X137399500Y-82277425D01*
X137399779Y-82280355D01*
X137399781Y-82280380D01*
X137414471Y-82434215D01*
X137473683Y-82635873D01*
X137569990Y-82822684D01*
X137692146Y-82978016D01*
X137699908Y-82987886D01*
X137736807Y-83019859D01*
X137858745Y-83125520D01*
X138020827Y-83219098D01*
X138040756Y-83230604D01*
X138089675Y-83247535D01*
X138239366Y-83299344D01*
X138274298Y-83304366D01*
X138447398Y-83329254D01*
X138657330Y-83319254D01*
X138861576Y-83269704D01*
X138925167Y-83240662D01*
X138994321Y-83230719D01*
X139057877Y-83259743D01*
X139064357Y-83265776D01*
X152522181Y-96723600D01*
X152555666Y-96784923D01*
X152558500Y-96811281D01*
X152558500Y-108692256D01*
X152538815Y-108759295D01*
X152486011Y-108805050D01*
X152416853Y-108814994D01*
X152382096Y-108804638D01*
X152213665Y-108726097D01*
X151985407Y-108664936D01*
X151750000Y-108644340D01*
X151514592Y-108664936D01*
X151286336Y-108726097D01*
X151072170Y-108825965D01*
X150878598Y-108961505D01*
X150711508Y-109128595D01*
X150581269Y-109314596D01*
X150526692Y-109358220D01*
X150457193Y-109365413D01*
X150394839Y-109333891D01*
X150378119Y-109314595D01*
X150248109Y-109128921D01*
X150081081Y-108961893D01*
X149887576Y-108826399D01*
X149673492Y-108726569D01*
X149460000Y-108669364D01*
X149460000Y-109564498D01*
X149352315Y-109515320D01*
X149245763Y-109500000D01*
X149174237Y-109500000D01*
X149067685Y-109515320D01*
X148960000Y-109564498D01*
X148960000Y-108669364D01*
X148959999Y-108669364D01*
X148746507Y-108726569D01*
X148532421Y-108826400D01*
X148338921Y-108961890D01*
X148171890Y-109128921D01*
X148036400Y-109322421D01*
X147936569Y-109536507D01*
X147879364Y-109749999D01*
X147879364Y-109750000D01*
X148776314Y-109750000D01*
X148750507Y-109790156D01*
X148710000Y-109928111D01*
X148710000Y-110071889D01*
X148750507Y-110209844D01*
X148776314Y-110250000D01*
X147879364Y-110250000D01*
X147936569Y-110463492D01*
X148036399Y-110677576D01*
X148171893Y-110871081D01*
X148338918Y-111038106D01*
X148525031Y-111168425D01*
X148568656Y-111223002D01*
X148575848Y-111292501D01*
X148544326Y-111354855D01*
X148525031Y-111371575D01*
X148338918Y-111501893D01*
X148171890Y-111668921D01*
X148036400Y-111862421D01*
X147936569Y-112076507D01*
X147879364Y-112289999D01*
X147879364Y-112290000D01*
X148776314Y-112290000D01*
X148750507Y-112330156D01*
X148710000Y-112468111D01*
X148710000Y-112611889D01*
X148750507Y-112749844D01*
X148776314Y-112790000D01*
X147879364Y-112790000D01*
X147936569Y-113003492D01*
X148036399Y-113217576D01*
X148171893Y-113411081D01*
X148338918Y-113578106D01*
X148532423Y-113713600D01*
X148746509Y-113813430D01*
X148960000Y-113870634D01*
X148960000Y-112975501D01*
X149067685Y-113024680D01*
X149174237Y-113040000D01*
X149245763Y-113040000D01*
X149352315Y-113024680D01*
X149460000Y-112975501D01*
X149460000Y-113870633D01*
X149673490Y-113813430D01*
X149887576Y-113713600D01*
X150081081Y-113578106D01*
X150248109Y-113411078D01*
X150378119Y-113225405D01*
X150432696Y-113181780D01*
X150502194Y-113174586D01*
X150564549Y-113206109D01*
X150581265Y-113225400D01*
X150711505Y-113411401D01*
X150878599Y-113578495D01*
X151072170Y-113714035D01*
X151286337Y-113813903D01*
X151498059Y-113870633D01*
X151514592Y-113875063D01*
X151749999Y-113895659D01*
X151749999Y-113895658D01*
X151750000Y-113895659D01*
X151985408Y-113875063D01*
X152213663Y-113813903D01*
X152427830Y-113714035D01*
X152621401Y-113578495D01*
X152788495Y-113411401D01*
X152918427Y-113225838D01*
X152973001Y-113182216D01*
X153042499Y-113175022D01*
X153104854Y-113206545D01*
X153121572Y-113225838D01*
X153251505Y-113411401D01*
X153418599Y-113578495D01*
X153612170Y-113714035D01*
X153826337Y-113813903D01*
X154054592Y-113875063D01*
X154290000Y-113895659D01*
X154525408Y-113875063D01*
X154753663Y-113813903D01*
X154967830Y-113714035D01*
X155161401Y-113578495D01*
X155328495Y-113411401D01*
X155458426Y-113225839D01*
X155513002Y-113182216D01*
X155582500Y-113175022D01*
X155644855Y-113206545D01*
X155661571Y-113225837D01*
X155791505Y-113411401D01*
X155958599Y-113578495D01*
X156152170Y-113714035D01*
X156366337Y-113813903D01*
X156594592Y-113875063D01*
X156830000Y-113895659D01*
X157065408Y-113875063D01*
X157293663Y-113813903D01*
X157507830Y-113714035D01*
X157701401Y-113578495D01*
X157868495Y-113411401D01*
X157998427Y-113225838D01*
X158053001Y-113182216D01*
X158122499Y-113175022D01*
X158184854Y-113206545D01*
X158201572Y-113225838D01*
X158331505Y-113411401D01*
X158498599Y-113578495D01*
X158692170Y-113714035D01*
X158906337Y-113813903D01*
X159134592Y-113875063D01*
X159370000Y-113895659D01*
X159605408Y-113875063D01*
X159833663Y-113813903D01*
X160047830Y-113714035D01*
X160241401Y-113578495D01*
X160408495Y-113411401D01*
X160542252Y-113220375D01*
X160596829Y-113176751D01*
X160643827Y-113167500D01*
X165877034Y-113167500D01*
X165897601Y-113169770D01*
X165900475Y-113169679D01*
X165900477Y-113169680D01*
X165967918Y-113167561D01*
X165971813Y-113167500D01*
X165995574Y-113167500D01*
X165999476Y-113167500D01*
X166003482Y-113166993D01*
X166015113Y-113166077D01*
X166058943Y-113164701D01*
X166078280Y-113159082D01*
X166097321Y-113155138D01*
X166117293Y-113152616D01*
X166158055Y-113136476D01*
X166169092Y-113132698D01*
X166211191Y-113120468D01*
X166228510Y-113110224D01*
X166245994Y-113101659D01*
X166264703Y-113094253D01*
X166300168Y-113068485D01*
X166309915Y-113062081D01*
X166347656Y-113039763D01*
X166361892Y-113025526D01*
X166376679Y-113012896D01*
X166392967Y-113001063D01*
X166420904Y-112967290D01*
X166428756Y-112958661D01*
X168633681Y-110753736D01*
X174295291Y-110753736D01*
X174314560Y-111072302D01*
X174315462Y-111079732D01*
X174372990Y-111393651D01*
X174374778Y-111400907D01*
X174469729Y-111705613D01*
X174472374Y-111712589D01*
X174603362Y-112003631D01*
X174606836Y-112010251D01*
X174771945Y-112283373D01*
X174776191Y-112289525D01*
X174921477Y-112474968D01*
X176064210Y-111332234D01*
X176164894Y-111473624D01*
X176316932Y-111618592D01*
X176419222Y-111684330D01*
X175275030Y-112828521D01*
X175275030Y-112828522D01*
X175460474Y-112973808D01*
X175466626Y-112978054D01*
X175739748Y-113143163D01*
X175746368Y-113146637D01*
X176037410Y-113277625D01*
X176044386Y-113280270D01*
X176349092Y-113375221D01*
X176356348Y-113377009D01*
X176670267Y-113434537D01*
X176677697Y-113435439D01*
X176996264Y-113454709D01*
X177003736Y-113454709D01*
X177322302Y-113435439D01*
X177329732Y-113434537D01*
X177643651Y-113377009D01*
X177650907Y-113375221D01*
X177955613Y-113280270D01*
X177962589Y-113277625D01*
X178253631Y-113146637D01*
X178260251Y-113143163D01*
X178533369Y-112978057D01*
X178539524Y-112973808D01*
X178724968Y-112828522D01*
X178724968Y-112828521D01*
X177583306Y-111686859D01*
X177597410Y-111679589D01*
X177762540Y-111549729D01*
X177900110Y-111390965D01*
X177934665Y-111331112D01*
X179078521Y-112474968D01*
X179078522Y-112474968D01*
X179223808Y-112289524D01*
X179228057Y-112283369D01*
X179393163Y-112010251D01*
X179396637Y-112003631D01*
X179527625Y-111712589D01*
X179530270Y-111705613D01*
X179625221Y-111400907D01*
X179627009Y-111393651D01*
X179684537Y-111079732D01*
X179685439Y-111072302D01*
X179704709Y-110753736D01*
X179704709Y-110746263D01*
X179685439Y-110427697D01*
X179684537Y-110420267D01*
X179627009Y-110106348D01*
X179625221Y-110099092D01*
X179530270Y-109794386D01*
X179527625Y-109787410D01*
X179396637Y-109496368D01*
X179393163Y-109489748D01*
X179228054Y-109216626D01*
X179223808Y-109210474D01*
X179078521Y-109025030D01*
X177935788Y-110167763D01*
X177835106Y-110026376D01*
X177683068Y-109881408D01*
X177580777Y-109815669D01*
X178724968Y-108671477D01*
X178724968Y-108671476D01*
X178539525Y-108526191D01*
X178533373Y-108521945D01*
X178260251Y-108356836D01*
X178253631Y-108353362D01*
X177962589Y-108222374D01*
X177955613Y-108219729D01*
X177650907Y-108124778D01*
X177643651Y-108122990D01*
X177329732Y-108065462D01*
X177322302Y-108064560D01*
X177003736Y-108045291D01*
X176996264Y-108045291D01*
X176677697Y-108064560D01*
X176670267Y-108065462D01*
X176356348Y-108122990D01*
X176349092Y-108124778D01*
X176044386Y-108219729D01*
X176037410Y-108222374D01*
X175746368Y-108353362D01*
X175739748Y-108356836D01*
X175466626Y-108521945D01*
X175460474Y-108526191D01*
X175275030Y-108671476D01*
X175275030Y-108671477D01*
X176416693Y-109813140D01*
X176402590Y-109820411D01*
X176237460Y-109950271D01*
X176099890Y-110109035D01*
X176065334Y-110168887D01*
X174921477Y-109025030D01*
X174921476Y-109025030D01*
X174776191Y-109210474D01*
X174771945Y-109216626D01*
X174606836Y-109489748D01*
X174603362Y-109496368D01*
X174472374Y-109787410D01*
X174469729Y-109794386D01*
X174374778Y-110099092D01*
X174372990Y-110106348D01*
X174315462Y-110420267D01*
X174314560Y-110427697D01*
X174295291Y-110746263D01*
X174295291Y-110753736D01*
X168633681Y-110753736D01*
X173635044Y-105752373D01*
X173651190Y-105739439D01*
X173653159Y-105737341D01*
X173653162Y-105737340D01*
X173699384Y-105688117D01*
X173702001Y-105685416D01*
X173721623Y-105665796D01*
X173724086Y-105662619D01*
X173731684Y-105653720D01*
X173761693Y-105621767D01*
X173771392Y-105604122D01*
X173782071Y-105587864D01*
X173794408Y-105571962D01*
X173811815Y-105531734D01*
X173816951Y-105521251D01*
X173838072Y-105482834D01*
X173843077Y-105463340D01*
X173849383Y-105444923D01*
X173857373Y-105426460D01*
X173857372Y-105426460D01*
X173857374Y-105426458D01*
X173864231Y-105383155D01*
X173866596Y-105371736D01*
X173877500Y-105329272D01*
X173877500Y-105309141D01*
X173879027Y-105289742D01*
X173882175Y-105269867D01*
X173878050Y-105226230D01*
X173877500Y-105214561D01*
X173877500Y-102286280D01*
X173897185Y-102219241D01*
X173913814Y-102198604D01*
X175432422Y-100679995D01*
X175493743Y-100646512D01*
X175563435Y-100651496D01*
X175619368Y-100693368D01*
X175643629Y-100756870D01*
X175664936Y-101000407D01*
X175709709Y-101167501D01*
X175726097Y-101228663D01*
X175825965Y-101442830D01*
X175961505Y-101636401D01*
X176128599Y-101803495D01*
X176314596Y-101933732D01*
X176358219Y-101988307D01*
X176365412Y-102057806D01*
X176333890Y-102120160D01*
X176314595Y-102136880D01*
X176128919Y-102266892D01*
X175961890Y-102433921D01*
X175826400Y-102627421D01*
X175726569Y-102841507D01*
X175669364Y-103054999D01*
X175669364Y-103055000D01*
X176566314Y-103055000D01*
X176540507Y-103095156D01*
X176500000Y-103233111D01*
X176500000Y-103376889D01*
X176540507Y-103514844D01*
X176566314Y-103555000D01*
X175669364Y-103555000D01*
X175726569Y-103768492D01*
X175826399Y-103982576D01*
X175961893Y-104176081D01*
X176128918Y-104343106D01*
X176322423Y-104478600D01*
X176536509Y-104578430D01*
X176750000Y-104635634D01*
X176750000Y-103740501D01*
X176857685Y-103789680D01*
X176964237Y-103805000D01*
X177035763Y-103805000D01*
X177142315Y-103789680D01*
X177249999Y-103740501D01*
X177249999Y-104635633D01*
X177463490Y-104578430D01*
X177677576Y-104478600D01*
X177871081Y-104343106D01*
X178038106Y-104176081D01*
X178173600Y-103982576D01*
X178273430Y-103768492D01*
X178330636Y-103555000D01*
X177433686Y-103555000D01*
X177459493Y-103514844D01*
X177500000Y-103376889D01*
X177500000Y-103233111D01*
X177459493Y-103095156D01*
X177433686Y-103055000D01*
X178330636Y-103055000D01*
X178330635Y-103054999D01*
X178273430Y-102841507D01*
X178173599Y-102627421D01*
X178038109Y-102433921D01*
X177871081Y-102266893D01*
X177685404Y-102136880D01*
X177641780Y-102082303D01*
X177634587Y-102012804D01*
X177666109Y-101950450D01*
X177685399Y-101933734D01*
X177871401Y-101803495D01*
X178038495Y-101636401D01*
X178174035Y-101442830D01*
X178273903Y-101228663D01*
X178335063Y-101000408D01*
X178355659Y-100765000D01*
X178345728Y-100651496D01*
X178335063Y-100529592D01*
X178284932Y-100342499D01*
X178273903Y-100301337D01*
X178174035Y-100087171D01*
X178038495Y-99893599D01*
X177916569Y-99771673D01*
X177883084Y-99710350D01*
X177888068Y-99640658D01*
X177929940Y-99584725D01*
X177960915Y-99567810D01*
X178092331Y-99518796D01*
X178207546Y-99432546D01*
X178293796Y-99317331D01*
X178344091Y-99182483D01*
X178350500Y-99122873D01*
X178350499Y-97327128D01*
X178344091Y-97267517D01*
X178293796Y-97132669D01*
X178207546Y-97017454D01*
X178092331Y-96931204D01*
X177957483Y-96880909D01*
X177916103Y-96876460D01*
X177901166Y-96874854D01*
X177901165Y-96874853D01*
X177897873Y-96874500D01*
X177894550Y-96874500D01*
X176105439Y-96874500D01*
X176105420Y-96874500D01*
X176102128Y-96874501D01*
X176098848Y-96874853D01*
X176098840Y-96874854D01*
X176042515Y-96880909D01*
X175907669Y-96931204D01*
X175792454Y-97017454D01*
X175706204Y-97132668D01*
X175655910Y-97267515D01*
X175655909Y-97267517D01*
X175649500Y-97327127D01*
X175649500Y-97330449D01*
X175649500Y-98636718D01*
X175629815Y-98703757D01*
X175613181Y-98724399D01*
X172864954Y-101472625D01*
X172848806Y-101485563D01*
X172800646Y-101536847D01*
X172797941Y-101539639D01*
X172778377Y-101559204D01*
X172776003Y-101562264D01*
X172775984Y-101562286D01*
X172775879Y-101562423D01*
X172768317Y-101571274D01*
X172738306Y-101603233D01*
X172728606Y-101620877D01*
X172717928Y-101637133D01*
X172705592Y-101653036D01*
X172688185Y-101693262D01*
X172683047Y-101703750D01*
X172661927Y-101742166D01*
X172656919Y-101761670D01*
X172650619Y-101780069D01*
X172642625Y-101798542D01*
X172635769Y-101841831D01*
X172633401Y-101853267D01*
X172622500Y-101895727D01*
X172622500Y-101915858D01*
X172620973Y-101935256D01*
X172617825Y-101955131D01*
X172621950Y-101998767D01*
X172622500Y-102010437D01*
X172622500Y-104938718D01*
X172602815Y-105005757D01*
X172586181Y-105026399D01*
X165736400Y-111876181D01*
X165675077Y-111909666D01*
X165648719Y-111912500D01*
X160643826Y-111912500D01*
X160576787Y-111892815D01*
X160542251Y-111859623D01*
X160465492Y-111749999D01*
X160408495Y-111668599D01*
X160286569Y-111546673D01*
X160253084Y-111485350D01*
X160258068Y-111415658D01*
X160299940Y-111359725D01*
X160330915Y-111342810D01*
X160462331Y-111293796D01*
X160577546Y-111207546D01*
X160663796Y-111092331D01*
X160714091Y-110957483D01*
X160720500Y-110897873D01*
X160720499Y-109102128D01*
X160714091Y-109042517D01*
X160663796Y-108907669D01*
X160577546Y-108792454D01*
X160462331Y-108706204D01*
X160327483Y-108655909D01*
X160267873Y-108649500D01*
X160264551Y-108649500D01*
X160121500Y-108649500D01*
X160054461Y-108629815D01*
X160008706Y-108577011D01*
X159997500Y-108525500D01*
X159997500Y-95941280D01*
X160017185Y-95874241D01*
X160033814Y-95853604D01*
X166998600Y-88888818D01*
X167059923Y-88855334D01*
X167086281Y-88852500D01*
X175525501Y-88852500D01*
X175592540Y-88872185D01*
X175638295Y-88924989D01*
X175649501Y-88976500D01*
X175649501Y-89122872D01*
X175655909Y-89182483D01*
X175706204Y-89317331D01*
X175792454Y-89432546D01*
X175907669Y-89518796D01*
X176019907Y-89560658D01*
X176039082Y-89567810D01*
X176095016Y-89609681D01*
X176119433Y-89675146D01*
X176104581Y-89743419D01*
X176083431Y-89771673D01*
X175961503Y-89893601D01*
X175825965Y-90087170D01*
X175726097Y-90301336D01*
X175664936Y-90529592D01*
X175644340Y-90765000D01*
X175664936Y-91000407D01*
X175709709Y-91167502D01*
X175726097Y-91228663D01*
X175825965Y-91442830D01*
X175961505Y-91636401D01*
X176128599Y-91803495D01*
X176314596Y-91933732D01*
X176358219Y-91988307D01*
X176365412Y-92057806D01*
X176333890Y-92120160D01*
X176314595Y-92136880D01*
X176128919Y-92266892D01*
X175961890Y-92433921D01*
X175826400Y-92627421D01*
X175726569Y-92841507D01*
X175669364Y-93054999D01*
X175669364Y-93055000D01*
X176566314Y-93055000D01*
X176540507Y-93095156D01*
X176500000Y-93233111D01*
X176500000Y-93376889D01*
X176540507Y-93514844D01*
X176566314Y-93555000D01*
X175669364Y-93555000D01*
X175726569Y-93768492D01*
X175826399Y-93982576D01*
X175961893Y-94176081D01*
X176128918Y-94343106D01*
X176322423Y-94478600D01*
X176536509Y-94578430D01*
X176750000Y-94635634D01*
X176750000Y-93740501D01*
X176857685Y-93789680D01*
X176964237Y-93805000D01*
X177035763Y-93805000D01*
X177142315Y-93789680D01*
X177249999Y-93740501D01*
X177249999Y-94635633D01*
X177463490Y-94578430D01*
X177677576Y-94478600D01*
X177871081Y-94343106D01*
X178038106Y-94176081D01*
X178173600Y-93982576D01*
X178273430Y-93768492D01*
X178330636Y-93555000D01*
X177433686Y-93555000D01*
X177459493Y-93514844D01*
X177500000Y-93376889D01*
X177500000Y-93233111D01*
X177459493Y-93095156D01*
X177433686Y-93055000D01*
X178330636Y-93055000D01*
X178330635Y-93054999D01*
X178273430Y-92841507D01*
X178173599Y-92627421D01*
X178038109Y-92433921D01*
X177871081Y-92266893D01*
X177685404Y-92136880D01*
X177641780Y-92082303D01*
X177634587Y-92012804D01*
X177666109Y-91950450D01*
X177685399Y-91933734D01*
X177871401Y-91803495D01*
X178038495Y-91636401D01*
X178174035Y-91442830D01*
X178273903Y-91228663D01*
X178335063Y-91000408D01*
X178355659Y-90765000D01*
X178335063Y-90529592D01*
X178273903Y-90301337D01*
X178174035Y-90087171D01*
X178038495Y-89893599D01*
X177916569Y-89771673D01*
X177883084Y-89710350D01*
X177888068Y-89640658D01*
X177929940Y-89584725D01*
X177960915Y-89567810D01*
X178092331Y-89518796D01*
X178207546Y-89432546D01*
X178293796Y-89317331D01*
X178344091Y-89182483D01*
X178350500Y-89122873D01*
X178350499Y-87327128D01*
X178344091Y-87267517D01*
X178293796Y-87132669D01*
X178207546Y-87017454D01*
X178092331Y-86931204D01*
X177957483Y-86880909D01*
X177897873Y-86874500D01*
X177894550Y-86874500D01*
X176105439Y-86874500D01*
X176105420Y-86874500D01*
X176102128Y-86874501D01*
X176098848Y-86874853D01*
X176098840Y-86874854D01*
X176042515Y-86880909D01*
X175907669Y-86931204D01*
X175792454Y-87017454D01*
X175706204Y-87132668D01*
X175655910Y-87267515D01*
X175655909Y-87267517D01*
X175649500Y-87327127D01*
X175649500Y-87330449D01*
X175649500Y-87473500D01*
X175629815Y-87540539D01*
X175577011Y-87586294D01*
X175525500Y-87597500D01*
X166857966Y-87597500D01*
X166837403Y-87595229D01*
X166767095Y-87597439D01*
X166763200Y-87597500D01*
X166735524Y-87597500D01*
X166731652Y-87597988D01*
X166731635Y-87597990D01*
X166731493Y-87598008D01*
X166719874Y-87598922D01*
X166676057Y-87600299D01*
X166656724Y-87605916D01*
X166637679Y-87609860D01*
X166617707Y-87612383D01*
X166576954Y-87628518D01*
X166565907Y-87632300D01*
X166523804Y-87644532D01*
X166506476Y-87654780D01*
X166489009Y-87663337D01*
X166470298Y-87670745D01*
X166434837Y-87696509D01*
X166425077Y-87702920D01*
X166387345Y-87725235D01*
X166373107Y-87739473D01*
X166358319Y-87752103D01*
X166342033Y-87763936D01*
X166314091Y-87797711D01*
X166306230Y-87806349D01*
X158984954Y-95127625D01*
X158968806Y-95140563D01*
X158920646Y-95191847D01*
X158917941Y-95194639D01*
X158898377Y-95214204D01*
X158896003Y-95217264D01*
X158895984Y-95217286D01*
X158895879Y-95217423D01*
X158888317Y-95226274D01*
X158858306Y-95258233D01*
X158848606Y-95275877D01*
X158837928Y-95292133D01*
X158825592Y-95308036D01*
X158808185Y-95348262D01*
X158803047Y-95358750D01*
X158781927Y-95397166D01*
X158776919Y-95416670D01*
X158770619Y-95435069D01*
X158762625Y-95453542D01*
X158755769Y-95496831D01*
X158753401Y-95508267D01*
X158742500Y-95550727D01*
X158742500Y-95570858D01*
X158740973Y-95590256D01*
X158737825Y-95610131D01*
X158741950Y-95653767D01*
X158742500Y-95665437D01*
X158742500Y-108525500D01*
X158722815Y-108592539D01*
X158670011Y-108638294D01*
X158618501Y-108649500D01*
X158475439Y-108649500D01*
X158475420Y-108649500D01*
X158472128Y-108649501D01*
X158468848Y-108649853D01*
X158468840Y-108649854D01*
X158412515Y-108655909D01*
X158277669Y-108706204D01*
X158162454Y-108792454D01*
X158076204Y-108907669D01*
X158027189Y-109039083D01*
X157985317Y-109095016D01*
X157919852Y-109119433D01*
X157851580Y-109104581D01*
X157823326Y-109083430D01*
X157701404Y-108961508D01*
X157701401Y-108961505D01*
X157507830Y-108825965D01*
X157293663Y-108726097D01*
X157232502Y-108709709D01*
X157065407Y-108664936D01*
X156830000Y-108644340D01*
X156594593Y-108664936D01*
X156533593Y-108681281D01*
X156463743Y-108679618D01*
X156405881Y-108640455D01*
X156378377Y-108576226D01*
X156377500Y-108561506D01*
X156377500Y-99061280D01*
X156397185Y-98994241D01*
X156413814Y-98973604D01*
X158185044Y-97202373D01*
X158201190Y-97189439D01*
X158203159Y-97187341D01*
X158203162Y-97187340D01*
X158249384Y-97138117D01*
X158252001Y-97135416D01*
X158271623Y-97115796D01*
X158274086Y-97112619D01*
X158281684Y-97103720D01*
X158311693Y-97071767D01*
X158321392Y-97054122D01*
X158332071Y-97037864D01*
X158344408Y-97021962D01*
X158361815Y-96981734D01*
X158366951Y-96971251D01*
X158388072Y-96932834D01*
X158393077Y-96913340D01*
X158399383Y-96894923D01*
X158407373Y-96876460D01*
X158407372Y-96876460D01*
X158407374Y-96876458D01*
X158414231Y-96833155D01*
X158416596Y-96821736D01*
X158427500Y-96779272D01*
X158427500Y-96759141D01*
X158429027Y-96739742D01*
X158432175Y-96719867D01*
X158428050Y-96676230D01*
X158427500Y-96664561D01*
X158427500Y-85046466D01*
X158447185Y-84979427D01*
X158459350Y-84963493D01*
X158472500Y-84948889D01*
X158532533Y-84882216D01*
X158627179Y-84718284D01*
X158685674Y-84538256D01*
X158705460Y-84350000D01*
X158685674Y-84161744D01*
X158627179Y-83981716D01*
X158627179Y-83981715D01*
X158532533Y-83817783D01*
X158459350Y-83736505D01*
X158429120Y-83673513D01*
X158427500Y-83653533D01*
X158427500Y-82224499D01*
X158447185Y-82157460D01*
X158499989Y-82111705D01*
X158551500Y-82100499D01*
X158694561Y-82100499D01*
X158697872Y-82100499D01*
X158757483Y-82094091D01*
X158892331Y-82043796D01*
X159007546Y-81957546D01*
X159093796Y-81842331D01*
X159144091Y-81707483D01*
X159150500Y-81647873D01*
X159150499Y-79852128D01*
X159144091Y-79792517D01*
X159093796Y-79657669D01*
X159007546Y-79542454D01*
X158892331Y-79456204D01*
X158757483Y-79405909D01*
X158757483Y-79405908D01*
X158702524Y-79400000D01*
X164044540Y-79400000D01*
X164064326Y-79588257D01*
X164122820Y-79768284D01*
X164217466Y-79932216D01*
X164254996Y-79973896D01*
X164340650Y-80069024D01*
X164370879Y-80132013D01*
X164372500Y-80151995D01*
X164372500Y-85403533D01*
X164352815Y-85470572D01*
X164340650Y-85486505D01*
X164267466Y-85567783D01*
X164172820Y-85731715D01*
X164114326Y-85911742D01*
X164094540Y-86100000D01*
X164114326Y-86288257D01*
X164172820Y-86468284D01*
X164267466Y-86632216D01*
X164394129Y-86772889D01*
X164547269Y-86884151D01*
X164720197Y-86961144D01*
X164905352Y-87000500D01*
X164905354Y-87000500D01*
X165094648Y-87000500D01*
X165218083Y-86974262D01*
X165279803Y-86961144D01*
X165452730Y-86884151D01*
X165605871Y-86772888D01*
X165732533Y-86632216D01*
X165827179Y-86468284D01*
X165885674Y-86288256D01*
X165905460Y-86100000D01*
X165885674Y-85911744D01*
X165827179Y-85731716D01*
X165827179Y-85731715D01*
X165732533Y-85567783D01*
X165659350Y-85486505D01*
X165629120Y-85423513D01*
X165627500Y-85403533D01*
X165627500Y-80040935D01*
X165647185Y-79973896D01*
X165659351Y-79957962D01*
X165666276Y-79950271D01*
X165682533Y-79932216D01*
X165777179Y-79768284D01*
X165835674Y-79588256D01*
X165855460Y-79400000D01*
X165835674Y-79211744D01*
X165777179Y-79031716D01*
X165777179Y-79031715D01*
X165682533Y-78867783D01*
X165576480Y-78750000D01*
X166494540Y-78750000D01*
X166514326Y-78938257D01*
X166572820Y-79118284D01*
X166667466Y-79282216D01*
X166794129Y-79422889D01*
X166947269Y-79534151D01*
X167120197Y-79611144D01*
X167305352Y-79650500D01*
X167305354Y-79650500D01*
X167494648Y-79650500D01*
X167618084Y-79624262D01*
X167679803Y-79611144D01*
X167852730Y-79534151D01*
X167936198Y-79473508D01*
X168005870Y-79422889D01*
X168026480Y-79400000D01*
X168132533Y-79282216D01*
X168227179Y-79118284D01*
X168285674Y-78938256D01*
X168305460Y-78750000D01*
X168285674Y-78561744D01*
X168227179Y-78381716D01*
X168227179Y-78381715D01*
X168132533Y-78217784D01*
X168110400Y-78193203D01*
X168080170Y-78130212D01*
X168088794Y-78060877D01*
X168114865Y-78022552D01*
X168523599Y-77613819D01*
X168584923Y-77580334D01*
X168611281Y-77577500D01*
X169320728Y-77577500D01*
X170838719Y-77577500D01*
X170905758Y-77597185D01*
X170926400Y-77613819D01*
X172711370Y-79398789D01*
X172744855Y-79460112D01*
X172747010Y-79473508D01*
X172764326Y-79638257D01*
X172822820Y-79818284D01*
X172917466Y-79982216D01*
X173044129Y-80122889D01*
X173197269Y-80234151D01*
X173370197Y-80311144D01*
X173555352Y-80350500D01*
X173555354Y-80350500D01*
X173744648Y-80350500D01*
X173886492Y-80320350D01*
X173929803Y-80311144D01*
X174102730Y-80234151D01*
X174102729Y-80234150D01*
X174136766Y-80209423D01*
X174202572Y-80185942D01*
X174270626Y-80201767D01*
X174319321Y-80251872D01*
X174333197Y-80320350D01*
X174331621Y-80332090D01*
X174315463Y-80420264D01*
X174314560Y-80427697D01*
X174295291Y-80746263D01*
X174295291Y-80753736D01*
X174314560Y-81072302D01*
X174315462Y-81079732D01*
X174372990Y-81393651D01*
X174374778Y-81400907D01*
X174469729Y-81705613D01*
X174472374Y-81712589D01*
X174603362Y-82003631D01*
X174606836Y-82010251D01*
X174771945Y-82283373D01*
X174776191Y-82289525D01*
X174921477Y-82474968D01*
X176064210Y-81332234D01*
X176164894Y-81473624D01*
X176316932Y-81618592D01*
X176419222Y-81684330D01*
X175275030Y-82828521D01*
X175275030Y-82828522D01*
X175460474Y-82973808D01*
X175466626Y-82978054D01*
X175739748Y-83143163D01*
X175746368Y-83146637D01*
X176037410Y-83277625D01*
X176044386Y-83280270D01*
X176349092Y-83375221D01*
X176356348Y-83377009D01*
X176670267Y-83434537D01*
X176677697Y-83435439D01*
X176996264Y-83454709D01*
X177003736Y-83454709D01*
X177322302Y-83435439D01*
X177329732Y-83434537D01*
X177643651Y-83377009D01*
X177650907Y-83375221D01*
X177955613Y-83280270D01*
X177962589Y-83277625D01*
X178253631Y-83146637D01*
X178260251Y-83143163D01*
X178533369Y-82978057D01*
X178539524Y-82973808D01*
X178724968Y-82828522D01*
X178724968Y-82828521D01*
X177583306Y-81686859D01*
X177597410Y-81679589D01*
X177762540Y-81549729D01*
X177900110Y-81390965D01*
X177934665Y-81331112D01*
X179078521Y-82474968D01*
X179078522Y-82474968D01*
X179223808Y-82289524D01*
X179228057Y-82283369D01*
X179393163Y-82010251D01*
X179396637Y-82003631D01*
X179527625Y-81712589D01*
X179530270Y-81705613D01*
X179625221Y-81400907D01*
X179627009Y-81393651D01*
X179684537Y-81079732D01*
X179685439Y-81072302D01*
X179704709Y-80753736D01*
X179704709Y-80746263D01*
X179685439Y-80427697D01*
X179684537Y-80420267D01*
X179627009Y-80106348D01*
X179625221Y-80099092D01*
X179530270Y-79794386D01*
X179527625Y-79787410D01*
X179396637Y-79496368D01*
X179393163Y-79489748D01*
X179228054Y-79216626D01*
X179223808Y-79210474D01*
X179078521Y-79025030D01*
X177935788Y-80167763D01*
X177835106Y-80026376D01*
X177683068Y-79881408D01*
X177580777Y-79815669D01*
X178724968Y-78671477D01*
X178724968Y-78671476D01*
X178539525Y-78526191D01*
X178533373Y-78521945D01*
X178260251Y-78356836D01*
X178253631Y-78353362D01*
X177962589Y-78222374D01*
X177955613Y-78219729D01*
X177650907Y-78124778D01*
X177643651Y-78122990D01*
X177329732Y-78065462D01*
X177322302Y-78064560D01*
X177003736Y-78045291D01*
X176996264Y-78045291D01*
X176677697Y-78064560D01*
X176670267Y-78065462D01*
X176356348Y-78122990D01*
X176349092Y-78124778D01*
X176044386Y-78219729D01*
X176037410Y-78222374D01*
X175746368Y-78353362D01*
X175739748Y-78356836D01*
X175466626Y-78521945D01*
X175460474Y-78526191D01*
X175275030Y-78671476D01*
X175275030Y-78671477D01*
X176416693Y-79813140D01*
X176402590Y-79820411D01*
X176237460Y-79950271D01*
X176099890Y-80109035D01*
X176065334Y-80168887D01*
X174921477Y-79025030D01*
X174921476Y-79025030D01*
X174776191Y-79210474D01*
X174771946Y-79216624D01*
X174748999Y-79254582D01*
X174697470Y-79301769D01*
X174628610Y-79313606D01*
X174564282Y-79286336D01*
X174524953Y-79228748D01*
X174477179Y-79081716D01*
X174448311Y-79031715D01*
X174382533Y-78917783D01*
X174255870Y-78777110D01*
X174102730Y-78665848D01*
X173929802Y-78588855D01*
X173744648Y-78549500D01*
X173744646Y-78549500D01*
X173688281Y-78549500D01*
X173621242Y-78529815D01*
X173600600Y-78513181D01*
X171652375Y-76564956D01*
X171639439Y-76548809D01*
X171588152Y-76500647D01*
X171585355Y-76497936D01*
X171568558Y-76481139D01*
X171565796Y-76478377D01*
X171562714Y-76475987D01*
X171562710Y-76475983D01*
X171562604Y-76475901D01*
X171553716Y-76468310D01*
X171521767Y-76438307D01*
X171519465Y-76437041D01*
X171504120Y-76428605D01*
X171487858Y-76417922D01*
X171471963Y-76405592D01*
X171431736Y-76388184D01*
X171421248Y-76383046D01*
X171382831Y-76361926D01*
X171363337Y-76356921D01*
X171344933Y-76350620D01*
X171326458Y-76342625D01*
X171283171Y-76335769D01*
X171271736Y-76333401D01*
X171229274Y-76322500D01*
X171229272Y-76322500D01*
X171209142Y-76322500D01*
X171189743Y-76320973D01*
X171169868Y-76317825D01*
X171169867Y-76317825D01*
X171149261Y-76319772D01*
X171126230Y-76321950D01*
X171114561Y-76322500D01*
X168382966Y-76322500D01*
X168362399Y-76320229D01*
X168292095Y-76322439D01*
X168288200Y-76322500D01*
X168260524Y-76322500D01*
X168256652Y-76322988D01*
X168256635Y-76322990D01*
X168256493Y-76323008D01*
X168244874Y-76323922D01*
X168201057Y-76325299D01*
X168181724Y-76330916D01*
X168162678Y-76334860D01*
X168142705Y-76337383D01*
X168101953Y-76353518D01*
X168090905Y-76357301D01*
X168048807Y-76369532D01*
X168031480Y-76379779D01*
X168014012Y-76388336D01*
X167995295Y-76395746D01*
X167959825Y-76421516D01*
X167950067Y-76427927D01*
X167912344Y-76450237D01*
X167912342Y-76450238D01*
X167912343Y-76450238D01*
X167898107Y-76464473D01*
X167883319Y-76477103D01*
X167867033Y-76488936D01*
X167839091Y-76522711D01*
X167831230Y-76531349D01*
X167014954Y-77347625D01*
X166998806Y-77360563D01*
X166950646Y-77411847D01*
X166947941Y-77414639D01*
X166928377Y-77434204D01*
X166926003Y-77437264D01*
X166925984Y-77437286D01*
X166925879Y-77437423D01*
X166918317Y-77446274D01*
X166888306Y-77478233D01*
X166878606Y-77495877D01*
X166867928Y-77512133D01*
X166855592Y-77528036D01*
X166838185Y-77568262D01*
X166833047Y-77578750D01*
X166811927Y-77617166D01*
X166806919Y-77636670D01*
X166800619Y-77655069D01*
X166792625Y-77673542D01*
X166785769Y-77716831D01*
X166783401Y-77728267D01*
X166772500Y-77770727D01*
X166772500Y-77790858D01*
X166770973Y-77810256D01*
X166767825Y-77830131D01*
X166771950Y-77873767D01*
X166772500Y-77885437D01*
X166772500Y-78053533D01*
X166752815Y-78120572D01*
X166740650Y-78136505D01*
X166667466Y-78217783D01*
X166572820Y-78381715D01*
X166514326Y-78561742D01*
X166494540Y-78750000D01*
X165576480Y-78750000D01*
X165555870Y-78727110D01*
X165402730Y-78615848D01*
X165229802Y-78538855D01*
X165044648Y-78499500D01*
X165044646Y-78499500D01*
X164855354Y-78499500D01*
X164855352Y-78499500D01*
X164670197Y-78538855D01*
X164497269Y-78615848D01*
X164344129Y-78727110D01*
X164217466Y-78867783D01*
X164122820Y-79031715D01*
X164064326Y-79211742D01*
X164044540Y-79400000D01*
X158702524Y-79400000D01*
X158701166Y-79399854D01*
X158701165Y-79399853D01*
X158697873Y-79399500D01*
X158694550Y-79399500D01*
X156905439Y-79399500D01*
X156905420Y-79399500D01*
X156902128Y-79399501D01*
X156898848Y-79399853D01*
X156898840Y-79399854D01*
X156842515Y-79405909D01*
X156707669Y-79456204D01*
X156592454Y-79542454D01*
X156506204Y-79657669D01*
X156457189Y-79789083D01*
X156415317Y-79845016D01*
X156349852Y-79869433D01*
X156281580Y-79854581D01*
X156253326Y-79833430D01*
X156131404Y-79711508D01*
X156131401Y-79711505D01*
X155937830Y-79575965D01*
X155723663Y-79476097D01*
X155662501Y-79459709D01*
X155495407Y-79414936D01*
X155259999Y-79394340D01*
X155024592Y-79414936D01*
X154796336Y-79476097D01*
X154582170Y-79575965D01*
X154388598Y-79711505D01*
X154221508Y-79878595D01*
X154091269Y-80064596D01*
X154036692Y-80108220D01*
X153967193Y-80115413D01*
X153904839Y-80083891D01*
X153888119Y-80064595D01*
X153758109Y-79878921D01*
X153591081Y-79711893D01*
X153397576Y-79576399D01*
X153183492Y-79476569D01*
X152970000Y-79419364D01*
X152970000Y-80314498D01*
X152862315Y-80265320D01*
X152755763Y-80250000D01*
X152684237Y-80250000D01*
X152577685Y-80265320D01*
X152470000Y-80314498D01*
X152470000Y-79419364D01*
X152469999Y-79419364D01*
X152256507Y-79476569D01*
X152042421Y-79576400D01*
X151848921Y-79711890D01*
X151681893Y-79878918D01*
X151551880Y-80064596D01*
X151497303Y-80108220D01*
X151427804Y-80115413D01*
X151365450Y-80083891D01*
X151348730Y-80064595D01*
X151218494Y-79878598D01*
X151051404Y-79711508D01*
X151051401Y-79711505D01*
X150857830Y-79575965D01*
X150643663Y-79476097D01*
X150582502Y-79459709D01*
X150415407Y-79414936D01*
X150180000Y-79394340D01*
X149944592Y-79414936D01*
X149716336Y-79476097D01*
X149502170Y-79575965D01*
X149308598Y-79711505D01*
X149141505Y-79878598D01*
X149005965Y-80072170D01*
X148906097Y-80286336D01*
X148844936Y-80514592D01*
X148824340Y-80749999D01*
X148844936Y-80985407D01*
X148876593Y-81103553D01*
X148906097Y-81213663D01*
X149005965Y-81427830D01*
X149141505Y-81621401D01*
X149308599Y-81788495D01*
X149502170Y-81924035D01*
X149716337Y-82023903D01*
X149944592Y-82085063D01*
X150180000Y-82105659D01*
X150415408Y-82085063D01*
X150643663Y-82023903D01*
X150857830Y-81924035D01*
X151051401Y-81788495D01*
X151218495Y-81621401D01*
X151348732Y-81435403D01*
X151403307Y-81391780D01*
X151472805Y-81384586D01*
X151535160Y-81416109D01*
X151551880Y-81435404D01*
X151681893Y-81621081D01*
X151848918Y-81788106D01*
X152042423Y-81923600D01*
X152256509Y-82023430D01*
X152470000Y-82080634D01*
X152470000Y-81185501D01*
X152577685Y-81234680D01*
X152684237Y-81250000D01*
X152755763Y-81250000D01*
X152862315Y-81234680D01*
X152970000Y-81185501D01*
X152970000Y-82080633D01*
X153183490Y-82023430D01*
X153397576Y-81923600D01*
X153591081Y-81788106D01*
X153758109Y-81621078D01*
X153888119Y-81435405D01*
X153942696Y-81391780D01*
X154012194Y-81384586D01*
X154074549Y-81416109D01*
X154091265Y-81435400D01*
X154221505Y-81621401D01*
X154388599Y-81788495D01*
X154579624Y-81922252D01*
X154623248Y-81976828D01*
X154632500Y-82023826D01*
X154632500Y-82927033D01*
X154630229Y-82947599D01*
X154632439Y-83017917D01*
X154632500Y-83021811D01*
X154632500Y-83049476D01*
X154632988Y-83053343D01*
X154632989Y-83053354D01*
X154633007Y-83053494D01*
X154633921Y-83065118D01*
X154635298Y-83108943D01*
X154640916Y-83128278D01*
X154644861Y-83147328D01*
X154647383Y-83167293D01*
X154663519Y-83208049D01*
X154667302Y-83219098D01*
X154679530Y-83261187D01*
X154679531Y-83261189D01*
X154679532Y-83261191D01*
X154689779Y-83278517D01*
X154698338Y-83295989D01*
X154705747Y-83314705D01*
X154731511Y-83350165D01*
X154737925Y-83359929D01*
X154760237Y-83397656D01*
X154774475Y-83411894D01*
X154787108Y-83426686D01*
X154798936Y-83442966D01*
X154832705Y-83470902D01*
X154841346Y-83478765D01*
X155634548Y-84271967D01*
X155663908Y-84318693D01*
X155719542Y-84477687D01*
X155809524Y-84620891D01*
X155836181Y-84647548D01*
X155869666Y-84708871D01*
X155872500Y-84735229D01*
X155872500Y-96885655D01*
X155852815Y-96952694D01*
X155836181Y-96973336D01*
X155078179Y-97731339D01*
X155016856Y-97764824D01*
X154947165Y-97759840D01*
X154891231Y-97717968D01*
X154866814Y-97652504D01*
X154866498Y-97643658D01*
X154866498Y-95771963D01*
X154868768Y-95751399D01*
X154866559Y-95681093D01*
X154866498Y-95677198D01*
X154866498Y-95653412D01*
X154866498Y-95649522D01*
X154866010Y-95645658D01*
X154865992Y-95645514D01*
X154865074Y-95633858D01*
X154863698Y-95590055D01*
X154858080Y-95570721D01*
X154854137Y-95551680D01*
X154851614Y-95531705D01*
X154835478Y-95490951D01*
X154831695Y-95479902D01*
X154824037Y-95453542D01*
X154819466Y-95437807D01*
X154809220Y-95420483D01*
X154800659Y-95403007D01*
X154793251Y-95384295D01*
X154774691Y-95358750D01*
X154767483Y-95348830D01*
X154761072Y-95339068D01*
X154738761Y-95301342D01*
X154724528Y-95287109D01*
X154711891Y-95272314D01*
X154700061Y-95256031D01*
X154700058Y-95256029D01*
X154700058Y-95256028D01*
X154666285Y-95228088D01*
X154657645Y-95220226D01*
X142881830Y-83444411D01*
X142848345Y-83383088D01*
X142853329Y-83313396D01*
X142895201Y-83257463D01*
X142917993Y-83243938D01*
X143052753Y-83182396D01*
X143223952Y-83060486D01*
X143322108Y-82957542D01*
X143382614Y-82922609D01*
X143452405Y-82925933D01*
X143509319Y-82966461D01*
X143517387Y-82978016D01*
X143557682Y-83043344D01*
X143681654Y-83167316D01*
X143830877Y-83259357D01*
X143997303Y-83314506D01*
X144096890Y-83324680D01*
X144103168Y-83324999D01*
X144249999Y-83324999D01*
X144250000Y-83324998D01*
X144250000Y-82230617D01*
X144319052Y-82284363D01*
X144437424Y-82325000D01*
X144531073Y-82325000D01*
X144623446Y-82309586D01*
X144733514Y-82250019D01*
X144750000Y-82232110D01*
X144750000Y-83324999D01*
X144896829Y-83324999D01*
X144903111Y-83324678D01*
X145002695Y-83314506D01*
X145169122Y-83259357D01*
X145318345Y-83167316D01*
X145442316Y-83043345D01*
X145534357Y-82894122D01*
X145589506Y-82727696D01*
X145599680Y-82628109D01*
X145600000Y-82621831D01*
X145600000Y-82200000D01*
X144779560Y-82200000D01*
X144818278Y-82157941D01*
X144868551Y-82043330D01*
X144878886Y-81918605D01*
X144848163Y-81797281D01*
X144784606Y-81700000D01*
X145599999Y-81700000D01*
X145599999Y-81278170D01*
X145599678Y-81271888D01*
X145589506Y-81172304D01*
X145534357Y-81005877D01*
X145442316Y-80856654D01*
X145318345Y-80732683D01*
X145169122Y-80640642D01*
X145002696Y-80585493D01*
X144903109Y-80575319D01*
X144896832Y-80575000D01*
X144750000Y-80575000D01*
X144750000Y-81669382D01*
X144680948Y-81615637D01*
X144562576Y-81575000D01*
X144468927Y-81575000D01*
X144376554Y-81590414D01*
X144266486Y-81649981D01*
X144250000Y-81667889D01*
X144250000Y-80575000D01*
X144103171Y-80575000D01*
X144096888Y-80575321D01*
X143997304Y-80585493D01*
X143830877Y-80640642D01*
X143681654Y-80732683D01*
X143557683Y-80856654D01*
X143518513Y-80920159D01*
X143466565Y-80966883D01*
X143397602Y-80978104D01*
X143333520Y-80950261D01*
X143315505Y-80931713D01*
X143300093Y-80912115D01*
X143141254Y-80774479D01*
X142959245Y-80669396D01*
X142760633Y-80600655D01*
X142552603Y-80570746D01*
X142552602Y-80570746D01*
X142463297Y-80575000D01*
X142342669Y-80580746D01*
X142138419Y-80630297D01*
X141947247Y-80717602D01*
X141776050Y-80839512D01*
X141631011Y-80991625D01*
X141604457Y-81032943D01*
X141551652Y-81078697D01*
X141482494Y-81088640D01*
X141418939Y-81059613D01*
X141402673Y-81042554D01*
X141315505Y-80931713D01*
X141300092Y-80912114D01*
X141141256Y-80774481D01*
X141141254Y-80774479D01*
X140959245Y-80669396D01*
X140760633Y-80600655D01*
X140552603Y-80570746D01*
X140552602Y-80570746D01*
X140463297Y-80575000D01*
X140342669Y-80580746D01*
X140138419Y-80630297D01*
X139947247Y-80717602D01*
X139776050Y-80839512D01*
X139631011Y-80991625D01*
X139604457Y-81032943D01*
X139551652Y-81078697D01*
X139482494Y-81088640D01*
X139418939Y-81059613D01*
X139402673Y-81042554D01*
X139315505Y-80931713D01*
X139300092Y-80912114D01*
X139141256Y-80774481D01*
X139141254Y-80774479D01*
X138959245Y-80669396D01*
X138760633Y-80600655D01*
X138552603Y-80570746D01*
X138552602Y-80570746D01*
X138463297Y-80575000D01*
X138342669Y-80580746D01*
X138138419Y-80630297D01*
X137947247Y-80717602D01*
X137776050Y-80839512D01*
X137631013Y-80991623D01*
X137517387Y-81168425D01*
X137439274Y-81363545D01*
X137399500Y-81569913D01*
X137399500Y-81569915D01*
X137399500Y-82277425D01*
X134231650Y-82277425D01*
X134393163Y-82010251D01*
X134396637Y-82003631D01*
X134527625Y-81712589D01*
X134530270Y-81705613D01*
X134625221Y-81400907D01*
X134627009Y-81393651D01*
X134684537Y-81079732D01*
X134685439Y-81072302D01*
X134704709Y-80753736D01*
X134704709Y-80746263D01*
X134685439Y-80427697D01*
X134684537Y-80420267D01*
X134627009Y-80106348D01*
X134625221Y-80099092D01*
X134530270Y-79794386D01*
X134527625Y-79787410D01*
X134396637Y-79496368D01*
X134393163Y-79489748D01*
X134228054Y-79216626D01*
X134223808Y-79210474D01*
X134078521Y-79025030D01*
X132935787Y-80167763D01*
X132835106Y-80026376D01*
X132683068Y-79881408D01*
X132580777Y-79815669D01*
X133724968Y-78671477D01*
X133724968Y-78671476D01*
X133539525Y-78526191D01*
X133533373Y-78521945D01*
X133260251Y-78356836D01*
X133253631Y-78353362D01*
X132962589Y-78222374D01*
X132955613Y-78219729D01*
X132650907Y-78124778D01*
X132643651Y-78122990D01*
X132329732Y-78065462D01*
X132322302Y-78064560D01*
X132003736Y-78045291D01*
X131996264Y-78045291D01*
X131677697Y-78064560D01*
X131670267Y-78065462D01*
X131356348Y-78122990D01*
X131349092Y-78124778D01*
X131044386Y-78219729D01*
X131037410Y-78222374D01*
X130746368Y-78353362D01*
X130739748Y-78356836D01*
X130466626Y-78521945D01*
X130460474Y-78526191D01*
X130275030Y-78671476D01*
X130275030Y-78671477D01*
X131416693Y-79813140D01*
X131402590Y-79820411D01*
X131237460Y-79950271D01*
X131099890Y-80109035D01*
X131065334Y-80168887D01*
X129921477Y-79025030D01*
X129921476Y-79025030D01*
X129776191Y-79210474D01*
X129771945Y-79216626D01*
X129606836Y-79489748D01*
X129603362Y-79496368D01*
X129472374Y-79787410D01*
X129469729Y-79794386D01*
X129374778Y-80099092D01*
X129372990Y-80106348D01*
X129315462Y-80420267D01*
X129314560Y-80427697D01*
X129295290Y-80746263D01*
X129295290Y-80753736D01*
X127000500Y-80753736D01*
X127000500Y-78753245D01*
X127000670Y-78746755D01*
X127007490Y-78616625D01*
X127007534Y-78615848D01*
X127017628Y-78436089D01*
X127018955Y-78423692D01*
X127042611Y-78274331D01*
X127069739Y-78114669D01*
X127072206Y-78103379D01*
X127112425Y-77953279D01*
X127156353Y-77800803D01*
X127159721Y-77790759D01*
X127215583Y-77645233D01*
X127216692Y-77642452D01*
X127276439Y-77498212D01*
X127280488Y-77489429D01*
X127351569Y-77349925D01*
X127353521Y-77346250D01*
X127428588Y-77210426D01*
X127433065Y-77202962D01*
X127518633Y-77071199D01*
X127521434Y-77067077D01*
X127611010Y-76940832D01*
X127615733Y-76934603D01*
X127714702Y-76812386D01*
X127718532Y-76807885D01*
X127821613Y-76692537D01*
X127826323Y-76687556D01*
X127937556Y-76576323D01*
X127942537Y-76571613D01*
X128057885Y-76468532D01*
X128062386Y-76464702D01*
X128184603Y-76365733D01*
X128190832Y-76361010D01*
X128317077Y-76271434D01*
X128321199Y-76268633D01*
X128452962Y-76183065D01*
X128460426Y-76178588D01*
X128596255Y-76103517D01*
X128599934Y-76101565D01*
X128739429Y-76030488D01*
X128748212Y-76026439D01*
X128892452Y-75966692D01*
X128895233Y-75965583D01*
X129040753Y-75909724D01*
X129050818Y-75906349D01*
X129203292Y-75862422D01*
X129353407Y-75822198D01*
X129364672Y-75819739D01*
X129524337Y-75792610D01*
X129673688Y-75768955D01*
X129686098Y-75767627D01*
X129866566Y-75757493D01*
X129996756Y-75750669D01*
X130003245Y-75750500D01*
X178996755Y-75750500D01*
X179003243Y-75750669D01*
G37*
%TD.AperFunction*%
%TD*%
M02*
