%TF.GenerationSoftware,KiCad,Pcbnew,7.0.2-0*%
%TF.CreationDate,2023-11-21T12:49:43-05:00*%
%TF.ProjectId,WiringHarness,57697269-6e67-4486-9172-6e6573732e6b,rev?*%
%TF.SameCoordinates,Original*%
%TF.FileFunction,Legend,Bot*%
%TF.FilePolarity,Positive*%
%FSLAX46Y46*%
G04 Gerber Fmt 4.6, Leading zero omitted, Abs format (unit mm)*
G04 Created by KiCad (PCBNEW 7.0.2-0) date 2023-11-21 12:49:43*
%MOMM*%
%LPD*%
G01*
G04 APERTURE LIST*
%ADD10C,0.150000*%
G04 APERTURE END LIST*
D10*
X164761904Y-92613809D02*
X164428571Y-92613809D01*
X164285714Y-93137619D02*
X164761904Y-93137619D01*
X164761904Y-93137619D02*
X164761904Y-92137619D01*
X164761904Y-92137619D02*
X164285714Y-92137619D01*
X163857142Y-93137619D02*
X163857142Y-92137619D01*
X163857142Y-92137619D02*
X163285714Y-93137619D01*
X163285714Y-93137619D02*
X163285714Y-92137619D01*
X162285714Y-92185238D02*
X162380952Y-92137619D01*
X162380952Y-92137619D02*
X162523809Y-92137619D01*
X162523809Y-92137619D02*
X162666666Y-92185238D01*
X162666666Y-92185238D02*
X162761904Y-92280476D01*
X162761904Y-92280476D02*
X162809523Y-92375714D01*
X162809523Y-92375714D02*
X162857142Y-92566190D01*
X162857142Y-92566190D02*
X162857142Y-92709047D01*
X162857142Y-92709047D02*
X162809523Y-92899523D01*
X162809523Y-92899523D02*
X162761904Y-92994761D01*
X162761904Y-92994761D02*
X162666666Y-93090000D01*
X162666666Y-93090000D02*
X162523809Y-93137619D01*
X162523809Y-93137619D02*
X162428571Y-93137619D01*
X162428571Y-93137619D02*
X162285714Y-93090000D01*
X162285714Y-93090000D02*
X162238095Y-93042380D01*
X162238095Y-93042380D02*
X162238095Y-92709047D01*
X162238095Y-92709047D02*
X162428571Y-92709047D01*
X161857142Y-93090000D02*
X161714285Y-93137619D01*
X161714285Y-93137619D02*
X161476190Y-93137619D01*
X161476190Y-93137619D02*
X161380952Y-93090000D01*
X161380952Y-93090000D02*
X161333333Y-93042380D01*
X161333333Y-93042380D02*
X161285714Y-92947142D01*
X161285714Y-92947142D02*
X161285714Y-92851904D01*
X161285714Y-92851904D02*
X161333333Y-92756666D01*
X161333333Y-92756666D02*
X161380952Y-92709047D01*
X161380952Y-92709047D02*
X161476190Y-92661428D01*
X161476190Y-92661428D02*
X161666666Y-92613809D01*
X161666666Y-92613809D02*
X161761904Y-92566190D01*
X161761904Y-92566190D02*
X161809523Y-92518571D01*
X161809523Y-92518571D02*
X161857142Y-92423333D01*
X161857142Y-92423333D02*
X161857142Y-92328095D01*
X161857142Y-92328095D02*
X161809523Y-92232857D01*
X161809523Y-92232857D02*
X161761904Y-92185238D01*
X161761904Y-92185238D02*
X161666666Y-92137619D01*
X161666666Y-92137619D02*
X161428571Y-92137619D01*
X161428571Y-92137619D02*
X161285714Y-92185238D01*
X160904761Y-92232857D02*
X160857142Y-92185238D01*
X160857142Y-92185238D02*
X160761904Y-92137619D01*
X160761904Y-92137619D02*
X160523809Y-92137619D01*
X160523809Y-92137619D02*
X160428571Y-92185238D01*
X160428571Y-92185238D02*
X160380952Y-92232857D01*
X160380952Y-92232857D02*
X160333333Y-92328095D01*
X160333333Y-92328095D02*
X160333333Y-92423333D01*
X160333333Y-92423333D02*
X160380952Y-92566190D01*
X160380952Y-92566190D02*
X160952380Y-93137619D01*
X160952380Y-93137619D02*
X160333333Y-93137619D01*
X159761904Y-92566190D02*
X159857142Y-92518571D01*
X159857142Y-92518571D02*
X159904761Y-92470952D01*
X159904761Y-92470952D02*
X159952380Y-92375714D01*
X159952380Y-92375714D02*
X159952380Y-92328095D01*
X159952380Y-92328095D02*
X159904761Y-92232857D01*
X159904761Y-92232857D02*
X159857142Y-92185238D01*
X159857142Y-92185238D02*
X159761904Y-92137619D01*
X159761904Y-92137619D02*
X159571428Y-92137619D01*
X159571428Y-92137619D02*
X159476190Y-92185238D01*
X159476190Y-92185238D02*
X159428571Y-92232857D01*
X159428571Y-92232857D02*
X159380952Y-92328095D01*
X159380952Y-92328095D02*
X159380952Y-92375714D01*
X159380952Y-92375714D02*
X159428571Y-92470952D01*
X159428571Y-92470952D02*
X159476190Y-92518571D01*
X159476190Y-92518571D02*
X159571428Y-92566190D01*
X159571428Y-92566190D02*
X159761904Y-92566190D01*
X159761904Y-92566190D02*
X159857142Y-92613809D01*
X159857142Y-92613809D02*
X159904761Y-92661428D01*
X159904761Y-92661428D02*
X159952380Y-92756666D01*
X159952380Y-92756666D02*
X159952380Y-92947142D01*
X159952380Y-92947142D02*
X159904761Y-93042380D01*
X159904761Y-93042380D02*
X159857142Y-93090000D01*
X159857142Y-93090000D02*
X159761904Y-93137619D01*
X159761904Y-93137619D02*
X159571428Y-93137619D01*
X159571428Y-93137619D02*
X159476190Y-93090000D01*
X159476190Y-93090000D02*
X159428571Y-93042380D01*
X159428571Y-93042380D02*
X159380952Y-92947142D01*
X159380952Y-92947142D02*
X159380952Y-92756666D01*
X159380952Y-92756666D02*
X159428571Y-92661428D01*
X159428571Y-92661428D02*
X159476190Y-92613809D01*
X159476190Y-92613809D02*
X159571428Y-92566190D01*
X158190475Y-93137619D02*
X158190475Y-92137619D01*
X158190475Y-92137619D02*
X157857142Y-92851904D01*
X157857142Y-92851904D02*
X157523809Y-92137619D01*
X157523809Y-92137619D02*
X157523809Y-93137619D01*
X156619047Y-93137619D02*
X156619047Y-92613809D01*
X156619047Y-92613809D02*
X156666666Y-92518571D01*
X156666666Y-92518571D02*
X156761904Y-92470952D01*
X156761904Y-92470952D02*
X156952380Y-92470952D01*
X156952380Y-92470952D02*
X157047618Y-92518571D01*
X156619047Y-93090000D02*
X156714285Y-93137619D01*
X156714285Y-93137619D02*
X156952380Y-93137619D01*
X156952380Y-93137619D02*
X157047618Y-93090000D01*
X157047618Y-93090000D02*
X157095237Y-92994761D01*
X157095237Y-92994761D02*
X157095237Y-92899523D01*
X157095237Y-92899523D02*
X157047618Y-92804285D01*
X157047618Y-92804285D02*
X156952380Y-92756666D01*
X156952380Y-92756666D02*
X156714285Y-92756666D01*
X156714285Y-92756666D02*
X156619047Y-92709047D01*
X156238094Y-92470952D02*
X155714285Y-92470952D01*
X155714285Y-92470952D02*
X156238094Y-93137619D01*
X156238094Y-93137619D02*
X155714285Y-93137619D01*
X154952380Y-93090000D02*
X155047618Y-93137619D01*
X155047618Y-93137619D02*
X155238094Y-93137619D01*
X155238094Y-93137619D02*
X155333332Y-93090000D01*
X155333332Y-93090000D02*
X155380951Y-92994761D01*
X155380951Y-92994761D02*
X155380951Y-92613809D01*
X155380951Y-92613809D02*
X155333332Y-92518571D01*
X155333332Y-92518571D02*
X155238094Y-92470952D01*
X155238094Y-92470952D02*
X155047618Y-92470952D01*
X155047618Y-92470952D02*
X154952380Y-92518571D01*
X154952380Y-92518571D02*
X154904761Y-92613809D01*
X154904761Y-92613809D02*
X154904761Y-92709047D01*
X154904761Y-92709047D02*
X155380951Y-92804285D01*
X153142856Y-93042380D02*
X153190475Y-93090000D01*
X153190475Y-93090000D02*
X153333332Y-93137619D01*
X153333332Y-93137619D02*
X153428570Y-93137619D01*
X153428570Y-93137619D02*
X153571427Y-93090000D01*
X153571427Y-93090000D02*
X153666665Y-92994761D01*
X153666665Y-92994761D02*
X153714284Y-92899523D01*
X153714284Y-92899523D02*
X153761903Y-92709047D01*
X153761903Y-92709047D02*
X153761903Y-92566190D01*
X153761903Y-92566190D02*
X153714284Y-92375714D01*
X153714284Y-92375714D02*
X153666665Y-92280476D01*
X153666665Y-92280476D02*
X153571427Y-92185238D01*
X153571427Y-92185238D02*
X153428570Y-92137619D01*
X153428570Y-92137619D02*
X153333332Y-92137619D01*
X153333332Y-92137619D02*
X153190475Y-92185238D01*
X153190475Y-92185238D02*
X153142856Y-92232857D01*
X152571427Y-93137619D02*
X152666665Y-93090000D01*
X152666665Y-93090000D02*
X152714284Y-93042380D01*
X152714284Y-93042380D02*
X152761903Y-92947142D01*
X152761903Y-92947142D02*
X152761903Y-92661428D01*
X152761903Y-92661428D02*
X152714284Y-92566190D01*
X152714284Y-92566190D02*
X152666665Y-92518571D01*
X152666665Y-92518571D02*
X152571427Y-92470952D01*
X152571427Y-92470952D02*
X152428570Y-92470952D01*
X152428570Y-92470952D02*
X152333332Y-92518571D01*
X152333332Y-92518571D02*
X152285713Y-92566190D01*
X152285713Y-92566190D02*
X152238094Y-92661428D01*
X152238094Y-92661428D02*
X152238094Y-92947142D01*
X152238094Y-92947142D02*
X152285713Y-93042380D01*
X152285713Y-93042380D02*
X152333332Y-93090000D01*
X152333332Y-93090000D02*
X152428570Y-93137619D01*
X152428570Y-93137619D02*
X152571427Y-93137619D01*
X151809522Y-92470952D02*
X151809522Y-93137619D01*
X151809522Y-92566190D02*
X151761903Y-92518571D01*
X151761903Y-92518571D02*
X151666665Y-92470952D01*
X151666665Y-92470952D02*
X151523808Y-92470952D01*
X151523808Y-92470952D02*
X151428570Y-92518571D01*
X151428570Y-92518571D02*
X151380951Y-92613809D01*
X151380951Y-92613809D02*
X151380951Y-93137619D01*
X151047617Y-92470952D02*
X150666665Y-92470952D01*
X150904760Y-92137619D02*
X150904760Y-92994761D01*
X150904760Y-92994761D02*
X150857141Y-93090000D01*
X150857141Y-93090000D02*
X150761903Y-93137619D01*
X150761903Y-93137619D02*
X150666665Y-93137619D01*
X150333331Y-93137619D02*
X150333331Y-92470952D01*
X150333331Y-92661428D02*
X150285712Y-92566190D01*
X150285712Y-92566190D02*
X150238093Y-92518571D01*
X150238093Y-92518571D02*
X150142855Y-92470952D01*
X150142855Y-92470952D02*
X150047617Y-92470952D01*
X149571426Y-93137619D02*
X149666664Y-93090000D01*
X149666664Y-93090000D02*
X149714283Y-93042380D01*
X149714283Y-93042380D02*
X149761902Y-92947142D01*
X149761902Y-92947142D02*
X149761902Y-92661428D01*
X149761902Y-92661428D02*
X149714283Y-92566190D01*
X149714283Y-92566190D02*
X149666664Y-92518571D01*
X149666664Y-92518571D02*
X149571426Y-92470952D01*
X149571426Y-92470952D02*
X149428569Y-92470952D01*
X149428569Y-92470952D02*
X149333331Y-92518571D01*
X149333331Y-92518571D02*
X149285712Y-92566190D01*
X149285712Y-92566190D02*
X149238093Y-92661428D01*
X149238093Y-92661428D02*
X149238093Y-92947142D01*
X149238093Y-92947142D02*
X149285712Y-93042380D01*
X149285712Y-93042380D02*
X149333331Y-93090000D01*
X149333331Y-93090000D02*
X149428569Y-93137619D01*
X149428569Y-93137619D02*
X149571426Y-93137619D01*
X148666664Y-93137619D02*
X148761902Y-93090000D01*
X148761902Y-93090000D02*
X148809521Y-92994761D01*
X148809521Y-92994761D02*
X148809521Y-92137619D01*
X148142854Y-93137619D02*
X148238092Y-93090000D01*
X148238092Y-93090000D02*
X148285711Y-92994761D01*
X148285711Y-92994761D02*
X148285711Y-92137619D01*
X147380949Y-93090000D02*
X147476187Y-93137619D01*
X147476187Y-93137619D02*
X147666663Y-93137619D01*
X147666663Y-93137619D02*
X147761901Y-93090000D01*
X147761901Y-93090000D02*
X147809520Y-92994761D01*
X147809520Y-92994761D02*
X147809520Y-92613809D01*
X147809520Y-92613809D02*
X147761901Y-92518571D01*
X147761901Y-92518571D02*
X147666663Y-92470952D01*
X147666663Y-92470952D02*
X147476187Y-92470952D01*
X147476187Y-92470952D02*
X147380949Y-92518571D01*
X147380949Y-92518571D02*
X147333330Y-92613809D01*
X147333330Y-92613809D02*
X147333330Y-92709047D01*
X147333330Y-92709047D02*
X147809520Y-92804285D01*
X146904758Y-93137619D02*
X146904758Y-92470952D01*
X146904758Y-92661428D02*
X146857139Y-92566190D01*
X146857139Y-92566190D02*
X146809520Y-92518571D01*
X146809520Y-92518571D02*
X146714282Y-92470952D01*
X146714282Y-92470952D02*
X146619044Y-92470952D01*
X145619043Y-92470952D02*
X145428567Y-93137619D01*
X145428567Y-93137619D02*
X145238091Y-92661428D01*
X145238091Y-92661428D02*
X145047615Y-93137619D01*
X145047615Y-93137619D02*
X144857139Y-92470952D01*
X144476186Y-93137619D02*
X144476186Y-92470952D01*
X144476186Y-92137619D02*
X144523805Y-92185238D01*
X144523805Y-92185238D02*
X144476186Y-92232857D01*
X144476186Y-92232857D02*
X144428567Y-92185238D01*
X144428567Y-92185238D02*
X144476186Y-92137619D01*
X144476186Y-92137619D02*
X144476186Y-92232857D01*
X143999996Y-93137619D02*
X143999996Y-92470952D01*
X143999996Y-92661428D02*
X143952377Y-92566190D01*
X143952377Y-92566190D02*
X143904758Y-92518571D01*
X143904758Y-92518571D02*
X143809520Y-92470952D01*
X143809520Y-92470952D02*
X143714282Y-92470952D01*
X143380948Y-93137619D02*
X143380948Y-92470952D01*
X143380948Y-92137619D02*
X143428567Y-92185238D01*
X143428567Y-92185238D02*
X143380948Y-92232857D01*
X143380948Y-92232857D02*
X143333329Y-92185238D01*
X143333329Y-92185238D02*
X143380948Y-92137619D01*
X143380948Y-92137619D02*
X143380948Y-92232857D01*
X142904758Y-92470952D02*
X142904758Y-93137619D01*
X142904758Y-92566190D02*
X142857139Y-92518571D01*
X142857139Y-92518571D02*
X142761901Y-92470952D01*
X142761901Y-92470952D02*
X142619044Y-92470952D01*
X142619044Y-92470952D02*
X142523806Y-92518571D01*
X142523806Y-92518571D02*
X142476187Y-92613809D01*
X142476187Y-92613809D02*
X142476187Y-93137619D01*
X141571425Y-92470952D02*
X141571425Y-93280476D01*
X141571425Y-93280476D02*
X141619044Y-93375714D01*
X141619044Y-93375714D02*
X141666663Y-93423333D01*
X141666663Y-93423333D02*
X141761901Y-93470952D01*
X141761901Y-93470952D02*
X141904758Y-93470952D01*
X141904758Y-93470952D02*
X141999996Y-93423333D01*
X141571425Y-93090000D02*
X141666663Y-93137619D01*
X141666663Y-93137619D02*
X141857139Y-93137619D01*
X141857139Y-93137619D02*
X141952377Y-93090000D01*
X141952377Y-93090000D02*
X141999996Y-93042380D01*
X141999996Y-93042380D02*
X142047615Y-92947142D01*
X142047615Y-92947142D02*
X142047615Y-92661428D01*
X142047615Y-92661428D02*
X141999996Y-92566190D01*
X141999996Y-92566190D02*
X141952377Y-92518571D01*
X141952377Y-92518571D02*
X141857139Y-92470952D01*
X141857139Y-92470952D02*
X141666663Y-92470952D01*
X141666663Y-92470952D02*
X141571425Y-92518571D01*
X140333329Y-93137619D02*
X140333329Y-92137619D01*
X139904758Y-93137619D02*
X139904758Y-92613809D01*
X139904758Y-92613809D02*
X139952377Y-92518571D01*
X139952377Y-92518571D02*
X140047615Y-92470952D01*
X140047615Y-92470952D02*
X140190472Y-92470952D01*
X140190472Y-92470952D02*
X140285710Y-92518571D01*
X140285710Y-92518571D02*
X140333329Y-92566190D01*
X138999996Y-93137619D02*
X138999996Y-92613809D01*
X138999996Y-92613809D02*
X139047615Y-92518571D01*
X139047615Y-92518571D02*
X139142853Y-92470952D01*
X139142853Y-92470952D02*
X139333329Y-92470952D01*
X139333329Y-92470952D02*
X139428567Y-92518571D01*
X138999996Y-93090000D02*
X139095234Y-93137619D01*
X139095234Y-93137619D02*
X139333329Y-93137619D01*
X139333329Y-93137619D02*
X139428567Y-93090000D01*
X139428567Y-93090000D02*
X139476186Y-92994761D01*
X139476186Y-92994761D02*
X139476186Y-92899523D01*
X139476186Y-92899523D02*
X139428567Y-92804285D01*
X139428567Y-92804285D02*
X139333329Y-92756666D01*
X139333329Y-92756666D02*
X139095234Y-92756666D01*
X139095234Y-92756666D02*
X138999996Y-92709047D01*
X138523805Y-93137619D02*
X138523805Y-92470952D01*
X138523805Y-92661428D02*
X138476186Y-92566190D01*
X138476186Y-92566190D02*
X138428567Y-92518571D01*
X138428567Y-92518571D02*
X138333329Y-92470952D01*
X138333329Y-92470952D02*
X138238091Y-92470952D01*
X137904757Y-92470952D02*
X137904757Y-93137619D01*
X137904757Y-92566190D02*
X137857138Y-92518571D01*
X137857138Y-92518571D02*
X137761900Y-92470952D01*
X137761900Y-92470952D02*
X137619043Y-92470952D01*
X137619043Y-92470952D02*
X137523805Y-92518571D01*
X137523805Y-92518571D02*
X137476186Y-92613809D01*
X137476186Y-92613809D02*
X137476186Y-93137619D01*
X136619043Y-93090000D02*
X136714281Y-93137619D01*
X136714281Y-93137619D02*
X136904757Y-93137619D01*
X136904757Y-93137619D02*
X136999995Y-93090000D01*
X136999995Y-93090000D02*
X137047614Y-92994761D01*
X137047614Y-92994761D02*
X137047614Y-92613809D01*
X137047614Y-92613809D02*
X136999995Y-92518571D01*
X136999995Y-92518571D02*
X136904757Y-92470952D01*
X136904757Y-92470952D02*
X136714281Y-92470952D01*
X136714281Y-92470952D02*
X136619043Y-92518571D01*
X136619043Y-92518571D02*
X136571424Y-92613809D01*
X136571424Y-92613809D02*
X136571424Y-92709047D01*
X136571424Y-92709047D02*
X137047614Y-92804285D01*
X136190471Y-93090000D02*
X136095233Y-93137619D01*
X136095233Y-93137619D02*
X135904757Y-93137619D01*
X135904757Y-93137619D02*
X135809519Y-93090000D01*
X135809519Y-93090000D02*
X135761900Y-92994761D01*
X135761900Y-92994761D02*
X135761900Y-92947142D01*
X135761900Y-92947142D02*
X135809519Y-92851904D01*
X135809519Y-92851904D02*
X135904757Y-92804285D01*
X135904757Y-92804285D02*
X136047614Y-92804285D01*
X136047614Y-92804285D02*
X136142852Y-92756666D01*
X136142852Y-92756666D02*
X136190471Y-92661428D01*
X136190471Y-92661428D02*
X136190471Y-92613809D01*
X136190471Y-92613809D02*
X136142852Y-92518571D01*
X136142852Y-92518571D02*
X136047614Y-92470952D01*
X136047614Y-92470952D02*
X135904757Y-92470952D01*
X135904757Y-92470952D02*
X135809519Y-92518571D01*
X135380947Y-93090000D02*
X135285709Y-93137619D01*
X135285709Y-93137619D02*
X135095233Y-93137619D01*
X135095233Y-93137619D02*
X134999995Y-93090000D01*
X134999995Y-93090000D02*
X134952376Y-92994761D01*
X134952376Y-92994761D02*
X134952376Y-92947142D01*
X134952376Y-92947142D02*
X134999995Y-92851904D01*
X134999995Y-92851904D02*
X135095233Y-92804285D01*
X135095233Y-92804285D02*
X135238090Y-92804285D01*
X135238090Y-92804285D02*
X135333328Y-92756666D01*
X135333328Y-92756666D02*
X135380947Y-92661428D01*
X135380947Y-92661428D02*
X135380947Y-92613809D01*
X135380947Y-92613809D02*
X135333328Y-92518571D01*
X135333328Y-92518571D02*
X135238090Y-92470952D01*
X135238090Y-92470952D02*
X135095233Y-92470952D01*
X135095233Y-92470952D02*
X134999995Y-92518571D01*
X164904761Y-93757619D02*
X164571428Y-94757619D01*
X164571428Y-94757619D02*
X164238095Y-93757619D01*
X163714285Y-93757619D02*
X163619047Y-93757619D01*
X163619047Y-93757619D02*
X163523809Y-93805238D01*
X163523809Y-93805238D02*
X163476190Y-93852857D01*
X163476190Y-93852857D02*
X163428571Y-93948095D01*
X163428571Y-93948095D02*
X163380952Y-94138571D01*
X163380952Y-94138571D02*
X163380952Y-94376666D01*
X163380952Y-94376666D02*
X163428571Y-94567142D01*
X163428571Y-94567142D02*
X163476190Y-94662380D01*
X163476190Y-94662380D02*
X163523809Y-94710000D01*
X163523809Y-94710000D02*
X163619047Y-94757619D01*
X163619047Y-94757619D02*
X163714285Y-94757619D01*
X163714285Y-94757619D02*
X163809523Y-94710000D01*
X163809523Y-94710000D02*
X163857142Y-94662380D01*
X163857142Y-94662380D02*
X163904761Y-94567142D01*
X163904761Y-94567142D02*
X163952380Y-94376666D01*
X163952380Y-94376666D02*
X163952380Y-94138571D01*
X163952380Y-94138571D02*
X163904761Y-93948095D01*
X163904761Y-93948095D02*
X163857142Y-93852857D01*
X163857142Y-93852857D02*
X163809523Y-93805238D01*
X163809523Y-93805238D02*
X163714285Y-93757619D01*
X162952380Y-94662380D02*
X162904761Y-94710000D01*
X162904761Y-94710000D02*
X162952380Y-94757619D01*
X162952380Y-94757619D02*
X162999999Y-94710000D01*
X162999999Y-94710000D02*
X162952380Y-94662380D01*
X162952380Y-94662380D02*
X162952380Y-94757619D01*
X162428571Y-94757619D02*
X162238095Y-94757619D01*
X162238095Y-94757619D02*
X162142857Y-94710000D01*
X162142857Y-94710000D02*
X162095238Y-94662380D01*
X162095238Y-94662380D02*
X162000000Y-94519523D01*
X162000000Y-94519523D02*
X161952381Y-94329047D01*
X161952381Y-94329047D02*
X161952381Y-93948095D01*
X161952381Y-93948095D02*
X162000000Y-93852857D01*
X162000000Y-93852857D02*
X162047619Y-93805238D01*
X162047619Y-93805238D02*
X162142857Y-93757619D01*
X162142857Y-93757619D02*
X162333333Y-93757619D01*
X162333333Y-93757619D02*
X162428571Y-93805238D01*
X162428571Y-93805238D02*
X162476190Y-93852857D01*
X162476190Y-93852857D02*
X162523809Y-93948095D01*
X162523809Y-93948095D02*
X162523809Y-94186190D01*
X162523809Y-94186190D02*
X162476190Y-94281428D01*
X162476190Y-94281428D02*
X162428571Y-94329047D01*
X162428571Y-94329047D02*
X162333333Y-94376666D01*
X162333333Y-94376666D02*
X162142857Y-94376666D01*
X162142857Y-94376666D02*
X162047619Y-94329047D01*
X162047619Y-94329047D02*
X162000000Y-94281428D01*
X162000000Y-94281428D02*
X161952381Y-94186190D01*
X160761904Y-94376666D02*
X160000000Y-94376666D01*
X158904761Y-93757619D02*
X158333333Y-93757619D01*
X158619047Y-94757619D02*
X158619047Y-93757619D01*
X157571428Y-94757619D02*
X157571428Y-94233809D01*
X157571428Y-94233809D02*
X157619047Y-94138571D01*
X157619047Y-94138571D02*
X157714285Y-94090952D01*
X157714285Y-94090952D02*
X157904761Y-94090952D01*
X157904761Y-94090952D02*
X157999999Y-94138571D01*
X157571428Y-94710000D02*
X157666666Y-94757619D01*
X157666666Y-94757619D02*
X157904761Y-94757619D01*
X157904761Y-94757619D02*
X157999999Y-94710000D01*
X157999999Y-94710000D02*
X158047618Y-94614761D01*
X158047618Y-94614761D02*
X158047618Y-94519523D01*
X158047618Y-94519523D02*
X157999999Y-94424285D01*
X157999999Y-94424285D02*
X157904761Y-94376666D01*
X157904761Y-94376666D02*
X157666666Y-94376666D01*
X157666666Y-94376666D02*
X157571428Y-94329047D01*
X156666666Y-94757619D02*
X156666666Y-93757619D01*
X156666666Y-94710000D02*
X156761904Y-94757619D01*
X156761904Y-94757619D02*
X156952380Y-94757619D01*
X156952380Y-94757619D02*
X157047618Y-94710000D01*
X157047618Y-94710000D02*
X157095237Y-94662380D01*
X157095237Y-94662380D02*
X157142856Y-94567142D01*
X157142856Y-94567142D02*
X157142856Y-94281428D01*
X157142856Y-94281428D02*
X157095237Y-94186190D01*
X157095237Y-94186190D02*
X157047618Y-94138571D01*
X157047618Y-94138571D02*
X156952380Y-94090952D01*
X156952380Y-94090952D02*
X156761904Y-94090952D01*
X156761904Y-94090952D02*
X156666666Y-94138571D01*
X155571427Y-93757619D02*
X154999999Y-93757619D01*
X155285713Y-94757619D02*
X155285713Y-93757619D01*
X154666665Y-94757619D02*
X154666665Y-94090952D01*
X154666665Y-94281428D02*
X154619046Y-94186190D01*
X154619046Y-94186190D02*
X154571427Y-94138571D01*
X154571427Y-94138571D02*
X154476189Y-94090952D01*
X154476189Y-94090952D02*
X154380951Y-94090952D01*
X153619046Y-94090952D02*
X153619046Y-94757619D01*
X154047617Y-94090952D02*
X154047617Y-94614761D01*
X154047617Y-94614761D02*
X153999998Y-94710000D01*
X153999998Y-94710000D02*
X153904760Y-94757619D01*
X153904760Y-94757619D02*
X153761903Y-94757619D01*
X153761903Y-94757619D02*
X153666665Y-94710000D01*
X153666665Y-94710000D02*
X153619046Y-94662380D01*
X152761903Y-94710000D02*
X152857141Y-94757619D01*
X152857141Y-94757619D02*
X153047617Y-94757619D01*
X153047617Y-94757619D02*
X153142855Y-94710000D01*
X153142855Y-94710000D02*
X153190474Y-94614761D01*
X153190474Y-94614761D02*
X153190474Y-94233809D01*
X153190474Y-94233809D02*
X153142855Y-94138571D01*
X153142855Y-94138571D02*
X153047617Y-94090952D01*
X153047617Y-94090952D02*
X152857141Y-94090952D01*
X152857141Y-94090952D02*
X152761903Y-94138571D01*
X152761903Y-94138571D02*
X152714284Y-94233809D01*
X152714284Y-94233809D02*
X152714284Y-94329047D01*
X152714284Y-94329047D02*
X153190474Y-94424285D01*
X152380950Y-94757619D02*
X151857141Y-94090952D01*
X152380950Y-94090952D02*
X151857141Y-94757619D01*
X164190476Y-96282380D02*
X164238095Y-96330000D01*
X164238095Y-96330000D02*
X164380952Y-96377619D01*
X164380952Y-96377619D02*
X164476190Y-96377619D01*
X164476190Y-96377619D02*
X164619047Y-96330000D01*
X164619047Y-96330000D02*
X164714285Y-96234761D01*
X164714285Y-96234761D02*
X164761904Y-96139523D01*
X164761904Y-96139523D02*
X164809523Y-95949047D01*
X164809523Y-95949047D02*
X164809523Y-95806190D01*
X164809523Y-95806190D02*
X164761904Y-95615714D01*
X164761904Y-95615714D02*
X164714285Y-95520476D01*
X164714285Y-95520476D02*
X164619047Y-95425238D01*
X164619047Y-95425238D02*
X164476190Y-95377619D01*
X164476190Y-95377619D02*
X164380952Y-95377619D01*
X164380952Y-95377619D02*
X164238095Y-95425238D01*
X164238095Y-95425238D02*
X164190476Y-95472857D01*
X163619047Y-96377619D02*
X163714285Y-96330000D01*
X163714285Y-96330000D02*
X163761904Y-96282380D01*
X163761904Y-96282380D02*
X163809523Y-96187142D01*
X163809523Y-96187142D02*
X163809523Y-95901428D01*
X163809523Y-95901428D02*
X163761904Y-95806190D01*
X163761904Y-95806190D02*
X163714285Y-95758571D01*
X163714285Y-95758571D02*
X163619047Y-95710952D01*
X163619047Y-95710952D02*
X163476190Y-95710952D01*
X163476190Y-95710952D02*
X163380952Y-95758571D01*
X163380952Y-95758571D02*
X163333333Y-95806190D01*
X163333333Y-95806190D02*
X163285714Y-95901428D01*
X163285714Y-95901428D02*
X163285714Y-96187142D01*
X163285714Y-96187142D02*
X163333333Y-96282380D01*
X163333333Y-96282380D02*
X163380952Y-96330000D01*
X163380952Y-96330000D02*
X163476190Y-96377619D01*
X163476190Y-96377619D02*
X163619047Y-96377619D01*
X162857142Y-95710952D02*
X162857142Y-96710952D01*
X162857142Y-95758571D02*
X162761904Y-95710952D01*
X162761904Y-95710952D02*
X162571428Y-95710952D01*
X162571428Y-95710952D02*
X162476190Y-95758571D01*
X162476190Y-95758571D02*
X162428571Y-95806190D01*
X162428571Y-95806190D02*
X162380952Y-95901428D01*
X162380952Y-95901428D02*
X162380952Y-96187142D01*
X162380952Y-96187142D02*
X162428571Y-96282380D01*
X162428571Y-96282380D02*
X162476190Y-96330000D01*
X162476190Y-96330000D02*
X162571428Y-96377619D01*
X162571428Y-96377619D02*
X162761904Y-96377619D01*
X162761904Y-96377619D02*
X162857142Y-96330000D01*
X162047618Y-95710952D02*
X161809523Y-96377619D01*
X161571428Y-95710952D02*
X161809523Y-96377619D01*
X161809523Y-96377619D02*
X161904761Y-96615714D01*
X161904761Y-96615714D02*
X161952380Y-96663333D01*
X161952380Y-96663333D02*
X162047618Y-96710952D01*
X161190475Y-96377619D02*
X161190475Y-95710952D01*
X161190475Y-95901428D02*
X161142856Y-95806190D01*
X161142856Y-95806190D02*
X161095237Y-95758571D01*
X161095237Y-95758571D02*
X160999999Y-95710952D01*
X160999999Y-95710952D02*
X160904761Y-95710952D01*
X160571427Y-96377619D02*
X160571427Y-95710952D01*
X160571427Y-95377619D02*
X160619046Y-95425238D01*
X160619046Y-95425238D02*
X160571427Y-95472857D01*
X160571427Y-95472857D02*
X160523808Y-95425238D01*
X160523808Y-95425238D02*
X160571427Y-95377619D01*
X160571427Y-95377619D02*
X160571427Y-95472857D01*
X159666666Y-95710952D02*
X159666666Y-96520476D01*
X159666666Y-96520476D02*
X159714285Y-96615714D01*
X159714285Y-96615714D02*
X159761904Y-96663333D01*
X159761904Y-96663333D02*
X159857142Y-96710952D01*
X159857142Y-96710952D02*
X159999999Y-96710952D01*
X159999999Y-96710952D02*
X160095237Y-96663333D01*
X159666666Y-96330000D02*
X159761904Y-96377619D01*
X159761904Y-96377619D02*
X159952380Y-96377619D01*
X159952380Y-96377619D02*
X160047618Y-96330000D01*
X160047618Y-96330000D02*
X160095237Y-96282380D01*
X160095237Y-96282380D02*
X160142856Y-96187142D01*
X160142856Y-96187142D02*
X160142856Y-95901428D01*
X160142856Y-95901428D02*
X160095237Y-95806190D01*
X160095237Y-95806190D02*
X160047618Y-95758571D01*
X160047618Y-95758571D02*
X159952380Y-95710952D01*
X159952380Y-95710952D02*
X159761904Y-95710952D01*
X159761904Y-95710952D02*
X159666666Y-95758571D01*
X159190475Y-96377619D02*
X159190475Y-95377619D01*
X158761904Y-96377619D02*
X158761904Y-95853809D01*
X158761904Y-95853809D02*
X158809523Y-95758571D01*
X158809523Y-95758571D02*
X158904761Y-95710952D01*
X158904761Y-95710952D02*
X159047618Y-95710952D01*
X159047618Y-95710952D02*
X159142856Y-95758571D01*
X159142856Y-95758571D02*
X159190475Y-95806190D01*
X158428570Y-95710952D02*
X158047618Y-95710952D01*
X158285713Y-95377619D02*
X158285713Y-96234761D01*
X158285713Y-96234761D02*
X158238094Y-96330000D01*
X158238094Y-96330000D02*
X158142856Y-96377619D01*
X158142856Y-96377619D02*
X158047618Y-96377619D01*
X156999998Y-95472857D02*
X156952379Y-95425238D01*
X156952379Y-95425238D02*
X156857141Y-95377619D01*
X156857141Y-95377619D02*
X156619046Y-95377619D01*
X156619046Y-95377619D02*
X156523808Y-95425238D01*
X156523808Y-95425238D02*
X156476189Y-95472857D01*
X156476189Y-95472857D02*
X156428570Y-95568095D01*
X156428570Y-95568095D02*
X156428570Y-95663333D01*
X156428570Y-95663333D02*
X156476189Y-95806190D01*
X156476189Y-95806190D02*
X157047617Y-96377619D01*
X157047617Y-96377619D02*
X156428570Y-96377619D01*
X155809522Y-95377619D02*
X155714284Y-95377619D01*
X155714284Y-95377619D02*
X155619046Y-95425238D01*
X155619046Y-95425238D02*
X155571427Y-95472857D01*
X155571427Y-95472857D02*
X155523808Y-95568095D01*
X155523808Y-95568095D02*
X155476189Y-95758571D01*
X155476189Y-95758571D02*
X155476189Y-95996666D01*
X155476189Y-95996666D02*
X155523808Y-96187142D01*
X155523808Y-96187142D02*
X155571427Y-96282380D01*
X155571427Y-96282380D02*
X155619046Y-96330000D01*
X155619046Y-96330000D02*
X155714284Y-96377619D01*
X155714284Y-96377619D02*
X155809522Y-96377619D01*
X155809522Y-96377619D02*
X155904760Y-96330000D01*
X155904760Y-96330000D02*
X155952379Y-96282380D01*
X155952379Y-96282380D02*
X155999998Y-96187142D01*
X155999998Y-96187142D02*
X156047617Y-95996666D01*
X156047617Y-95996666D02*
X156047617Y-95758571D01*
X156047617Y-95758571D02*
X155999998Y-95568095D01*
X155999998Y-95568095D02*
X155952379Y-95472857D01*
X155952379Y-95472857D02*
X155904760Y-95425238D01*
X155904760Y-95425238D02*
X155809522Y-95377619D01*
X155095236Y-95472857D02*
X155047617Y-95425238D01*
X155047617Y-95425238D02*
X154952379Y-95377619D01*
X154952379Y-95377619D02*
X154714284Y-95377619D01*
X154714284Y-95377619D02*
X154619046Y-95425238D01*
X154619046Y-95425238D02*
X154571427Y-95472857D01*
X154571427Y-95472857D02*
X154523808Y-95568095D01*
X154523808Y-95568095D02*
X154523808Y-95663333D01*
X154523808Y-95663333D02*
X154571427Y-95806190D01*
X154571427Y-95806190D02*
X155142855Y-96377619D01*
X155142855Y-96377619D02*
X154523808Y-96377619D01*
X154190474Y-95377619D02*
X153571427Y-95377619D01*
X153571427Y-95377619D02*
X153904760Y-95758571D01*
X153904760Y-95758571D02*
X153761903Y-95758571D01*
X153761903Y-95758571D02*
X153666665Y-95806190D01*
X153666665Y-95806190D02*
X153619046Y-95853809D01*
X153619046Y-95853809D02*
X153571427Y-95949047D01*
X153571427Y-95949047D02*
X153571427Y-96187142D01*
X153571427Y-96187142D02*
X153619046Y-96282380D01*
X153619046Y-96282380D02*
X153666665Y-96330000D01*
X153666665Y-96330000D02*
X153761903Y-96377619D01*
X153761903Y-96377619D02*
X154047617Y-96377619D01*
X154047617Y-96377619D02*
X154142855Y-96330000D01*
X154142855Y-96330000D02*
X154190474Y-96282380D01*
X153095236Y-96330000D02*
X153095236Y-96377619D01*
X153095236Y-96377619D02*
X153142855Y-96472857D01*
X153142855Y-96472857D02*
X153190474Y-96520476D01*
X151904760Y-96377619D02*
X151904760Y-95377619D01*
X151904760Y-95377619D02*
X151666665Y-95377619D01*
X151666665Y-95377619D02*
X151523808Y-95425238D01*
X151523808Y-95425238D02*
X151428570Y-95520476D01*
X151428570Y-95520476D02*
X151380951Y-95615714D01*
X151380951Y-95615714D02*
X151333332Y-95806190D01*
X151333332Y-95806190D02*
X151333332Y-95949047D01*
X151333332Y-95949047D02*
X151380951Y-96139523D01*
X151380951Y-96139523D02*
X151428570Y-96234761D01*
X151428570Y-96234761D02*
X151523808Y-96330000D01*
X151523808Y-96330000D02*
X151666665Y-96377619D01*
X151666665Y-96377619D02*
X151904760Y-96377619D01*
X150476189Y-96377619D02*
X150476189Y-95853809D01*
X150476189Y-95853809D02*
X150523808Y-95758571D01*
X150523808Y-95758571D02*
X150619046Y-95710952D01*
X150619046Y-95710952D02*
X150809522Y-95710952D01*
X150809522Y-95710952D02*
X150904760Y-95758571D01*
X150476189Y-96330000D02*
X150571427Y-96377619D01*
X150571427Y-96377619D02*
X150809522Y-96377619D01*
X150809522Y-96377619D02*
X150904760Y-96330000D01*
X150904760Y-96330000D02*
X150952379Y-96234761D01*
X150952379Y-96234761D02*
X150952379Y-96139523D01*
X150952379Y-96139523D02*
X150904760Y-96044285D01*
X150904760Y-96044285D02*
X150809522Y-95996666D01*
X150809522Y-95996666D02*
X150571427Y-95996666D01*
X150571427Y-95996666D02*
X150476189Y-95949047D01*
X149999998Y-96377619D02*
X149999998Y-95710952D01*
X149999998Y-95901428D02*
X149952379Y-95806190D01*
X149952379Y-95806190D02*
X149904760Y-95758571D01*
X149904760Y-95758571D02*
X149809522Y-95710952D01*
X149809522Y-95710952D02*
X149714284Y-95710952D01*
X149523807Y-95710952D02*
X149142855Y-95710952D01*
X149380950Y-95377619D02*
X149380950Y-96234761D01*
X149380950Y-96234761D02*
X149333331Y-96330000D01*
X149333331Y-96330000D02*
X149238093Y-96377619D01*
X149238093Y-96377619D02*
X149142855Y-96377619D01*
X148809521Y-96377619D02*
X148809521Y-95710952D01*
X148809521Y-95806190D02*
X148761902Y-95758571D01*
X148761902Y-95758571D02*
X148666664Y-95710952D01*
X148666664Y-95710952D02*
X148523807Y-95710952D01*
X148523807Y-95710952D02*
X148428569Y-95758571D01*
X148428569Y-95758571D02*
X148380950Y-95853809D01*
X148380950Y-95853809D02*
X148380950Y-96377619D01*
X148380950Y-95853809D02*
X148333331Y-95758571D01*
X148333331Y-95758571D02*
X148238093Y-95710952D01*
X148238093Y-95710952D02*
X148095236Y-95710952D01*
X148095236Y-95710952D02*
X147999997Y-95758571D01*
X147999997Y-95758571D02*
X147952378Y-95853809D01*
X147952378Y-95853809D02*
X147952378Y-96377619D01*
X147333331Y-96377619D02*
X147428569Y-96330000D01*
X147428569Y-96330000D02*
X147476188Y-96282380D01*
X147476188Y-96282380D02*
X147523807Y-96187142D01*
X147523807Y-96187142D02*
X147523807Y-95901428D01*
X147523807Y-95901428D02*
X147476188Y-95806190D01*
X147476188Y-95806190D02*
X147428569Y-95758571D01*
X147428569Y-95758571D02*
X147333331Y-95710952D01*
X147333331Y-95710952D02*
X147190474Y-95710952D01*
X147190474Y-95710952D02*
X147095236Y-95758571D01*
X147095236Y-95758571D02*
X147047617Y-95806190D01*
X147047617Y-95806190D02*
X146999998Y-95901428D01*
X146999998Y-95901428D02*
X146999998Y-96187142D01*
X146999998Y-96187142D02*
X147047617Y-96282380D01*
X147047617Y-96282380D02*
X147095236Y-96330000D01*
X147095236Y-96330000D02*
X147190474Y-96377619D01*
X147190474Y-96377619D02*
X147333331Y-96377619D01*
X146142855Y-95710952D02*
X146142855Y-96377619D01*
X146571426Y-95710952D02*
X146571426Y-96234761D01*
X146571426Y-96234761D02*
X146523807Y-96330000D01*
X146523807Y-96330000D02*
X146428569Y-96377619D01*
X146428569Y-96377619D02*
X146285712Y-96377619D01*
X146285712Y-96377619D02*
X146190474Y-96330000D01*
X146190474Y-96330000D02*
X146142855Y-96282380D01*
X145809521Y-95710952D02*
X145428569Y-95710952D01*
X145666664Y-95377619D02*
X145666664Y-96234761D01*
X145666664Y-96234761D02*
X145619045Y-96330000D01*
X145619045Y-96330000D02*
X145523807Y-96377619D01*
X145523807Y-96377619D02*
X145428569Y-96377619D01*
X145095235Y-96377619D02*
X145095235Y-95377619D01*
X144666664Y-96377619D02*
X144666664Y-95853809D01*
X144666664Y-95853809D02*
X144714283Y-95758571D01*
X144714283Y-95758571D02*
X144809521Y-95710952D01*
X144809521Y-95710952D02*
X144952378Y-95710952D01*
X144952378Y-95710952D02*
X145047616Y-95758571D01*
X145047616Y-95758571D02*
X145095235Y-95806190D01*
X142857140Y-96282380D02*
X142904759Y-96330000D01*
X142904759Y-96330000D02*
X143047616Y-96377619D01*
X143047616Y-96377619D02*
X143142854Y-96377619D01*
X143142854Y-96377619D02*
X143285711Y-96330000D01*
X143285711Y-96330000D02*
X143380949Y-96234761D01*
X143380949Y-96234761D02*
X143428568Y-96139523D01*
X143428568Y-96139523D02*
X143476187Y-95949047D01*
X143476187Y-95949047D02*
X143476187Y-95806190D01*
X143476187Y-95806190D02*
X143428568Y-95615714D01*
X143428568Y-95615714D02*
X143380949Y-95520476D01*
X143380949Y-95520476D02*
X143285711Y-95425238D01*
X143285711Y-95425238D02*
X143142854Y-95377619D01*
X143142854Y-95377619D02*
X143047616Y-95377619D01*
X143047616Y-95377619D02*
X142904759Y-95425238D01*
X142904759Y-95425238D02*
X142857140Y-95472857D01*
X142285711Y-96377619D02*
X142380949Y-96330000D01*
X142380949Y-96330000D02*
X142428568Y-96282380D01*
X142428568Y-96282380D02*
X142476187Y-96187142D01*
X142476187Y-96187142D02*
X142476187Y-95901428D01*
X142476187Y-95901428D02*
X142428568Y-95806190D01*
X142428568Y-95806190D02*
X142380949Y-95758571D01*
X142380949Y-95758571D02*
X142285711Y-95710952D01*
X142285711Y-95710952D02*
X142142854Y-95710952D01*
X142142854Y-95710952D02*
X142047616Y-95758571D01*
X142047616Y-95758571D02*
X141999997Y-95806190D01*
X141999997Y-95806190D02*
X141952378Y-95901428D01*
X141952378Y-95901428D02*
X141952378Y-96187142D01*
X141952378Y-96187142D02*
X141999997Y-96282380D01*
X141999997Y-96282380D02*
X142047616Y-96330000D01*
X142047616Y-96330000D02*
X142142854Y-96377619D01*
X142142854Y-96377619D02*
X142285711Y-96377619D01*
X141380949Y-96377619D02*
X141476187Y-96330000D01*
X141476187Y-96330000D02*
X141523806Y-96234761D01*
X141523806Y-96234761D02*
X141523806Y-95377619D01*
X140857139Y-96377619D02*
X140952377Y-96330000D01*
X140952377Y-96330000D02*
X140999996Y-96234761D01*
X140999996Y-96234761D02*
X140999996Y-95377619D01*
X140095234Y-96330000D02*
X140190472Y-96377619D01*
X140190472Y-96377619D02*
X140380948Y-96377619D01*
X140380948Y-96377619D02*
X140476186Y-96330000D01*
X140476186Y-96330000D02*
X140523805Y-96234761D01*
X140523805Y-96234761D02*
X140523805Y-95853809D01*
X140523805Y-95853809D02*
X140476186Y-95758571D01*
X140476186Y-95758571D02*
X140380948Y-95710952D01*
X140380948Y-95710952D02*
X140190472Y-95710952D01*
X140190472Y-95710952D02*
X140095234Y-95758571D01*
X140095234Y-95758571D02*
X140047615Y-95853809D01*
X140047615Y-95853809D02*
X140047615Y-95949047D01*
X140047615Y-95949047D02*
X140523805Y-96044285D01*
X139190472Y-95710952D02*
X139190472Y-96520476D01*
X139190472Y-96520476D02*
X139238091Y-96615714D01*
X139238091Y-96615714D02*
X139285710Y-96663333D01*
X139285710Y-96663333D02*
X139380948Y-96710952D01*
X139380948Y-96710952D02*
X139523805Y-96710952D01*
X139523805Y-96710952D02*
X139619043Y-96663333D01*
X139190472Y-96330000D02*
X139285710Y-96377619D01*
X139285710Y-96377619D02*
X139476186Y-96377619D01*
X139476186Y-96377619D02*
X139571424Y-96330000D01*
X139571424Y-96330000D02*
X139619043Y-96282380D01*
X139619043Y-96282380D02*
X139666662Y-96187142D01*
X139666662Y-96187142D02*
X139666662Y-95901428D01*
X139666662Y-95901428D02*
X139619043Y-95806190D01*
X139619043Y-95806190D02*
X139571424Y-95758571D01*
X139571424Y-95758571D02*
X139476186Y-95710952D01*
X139476186Y-95710952D02*
X139285710Y-95710952D01*
X139285710Y-95710952D02*
X139190472Y-95758571D01*
X138333329Y-96330000D02*
X138428567Y-96377619D01*
X138428567Y-96377619D02*
X138619043Y-96377619D01*
X138619043Y-96377619D02*
X138714281Y-96330000D01*
X138714281Y-96330000D02*
X138761900Y-96234761D01*
X138761900Y-96234761D02*
X138761900Y-95853809D01*
X138761900Y-95853809D02*
X138714281Y-95758571D01*
X138714281Y-95758571D02*
X138619043Y-95710952D01*
X138619043Y-95710952D02*
X138428567Y-95710952D01*
X138428567Y-95710952D02*
X138333329Y-95758571D01*
X138333329Y-95758571D02*
X138285710Y-95853809D01*
X138285710Y-95853809D02*
X138285710Y-95949047D01*
X138285710Y-95949047D02*
X138761900Y-96044285D01*
%TO.C,G\u002A\u002A\u002A*%
G36*
X173448719Y-102989245D02*
G01*
X173448719Y-103135596D01*
X173302368Y-103135596D01*
X173156018Y-103135596D01*
X173156018Y-102989245D01*
X173156018Y-102842894D01*
X173302368Y-102842894D01*
X173448719Y-102842894D01*
X173448719Y-102989245D01*
G37*
G36*
X173448719Y-108843278D02*
G01*
X173448719Y-108989629D01*
X173156018Y-108989629D01*
X172863316Y-108989629D01*
X172863316Y-108843278D01*
X172863316Y-108696927D01*
X173156018Y-108696927D01*
X173448719Y-108696927D01*
X173448719Y-108843278D01*
G37*
G36*
X173156018Y-103281947D02*
G01*
X173156018Y-103428297D01*
X172863316Y-103428297D01*
X172570614Y-103428297D01*
X172570614Y-103281947D01*
X172570614Y-103135596D01*
X172863316Y-103135596D01*
X173156018Y-103135596D01*
X173156018Y-103281947D01*
G37*
G36*
X172863316Y-110306787D02*
G01*
X172863316Y-110745839D01*
X172424263Y-110745839D01*
X171985211Y-110745839D01*
X171985211Y-110306787D01*
X171985211Y-109867734D01*
X172424263Y-109867734D01*
X172863316Y-109867734D01*
X172863316Y-110306787D01*
G37*
G36*
X172277913Y-107672472D02*
G01*
X172277913Y-107818822D01*
X172131562Y-107818822D01*
X171985211Y-107818822D01*
X171985211Y-107672472D01*
X171985211Y-107526121D01*
X172131562Y-107526121D01*
X172277913Y-107526121D01*
X172277913Y-107672472D01*
G37*
G36*
X172863316Y-101525737D02*
G01*
X172863316Y-101964789D01*
X172424263Y-101964789D01*
X171985211Y-101964789D01*
X171985211Y-101525737D01*
X171985211Y-101086684D01*
X172424263Y-101086684D01*
X172863316Y-101086684D01*
X172863316Y-101525737D01*
G37*
G36*
X171985211Y-107965173D02*
G01*
X171985211Y-108111524D01*
X171838860Y-108111524D01*
X171692509Y-108111524D01*
X171692509Y-107965173D01*
X171692509Y-107818822D01*
X171838860Y-107818822D01*
X171985211Y-107818822D01*
X171985211Y-107965173D01*
G37*
G36*
X171107106Y-111184892D02*
G01*
X171107106Y-111331242D01*
X170960755Y-111331242D01*
X170814404Y-111331242D01*
X170814404Y-111184892D01*
X170814404Y-111038541D01*
X170960755Y-111038541D01*
X171107106Y-111038541D01*
X171107106Y-111184892D01*
G37*
G36*
X171107106Y-107965173D02*
G01*
X171107106Y-108111524D01*
X170960755Y-108111524D01*
X170814404Y-108111524D01*
X170814404Y-107965173D01*
X170814404Y-107818822D01*
X170960755Y-107818822D01*
X171107106Y-107818822D01*
X171107106Y-107965173D01*
G37*
G36*
X171107106Y-100647632D02*
G01*
X171107106Y-100793982D01*
X170960755Y-100793982D01*
X170814404Y-100793982D01*
X170814404Y-100647632D01*
X170814404Y-100501281D01*
X170960755Y-100501281D01*
X171107106Y-100501281D01*
X171107106Y-100647632D01*
G37*
G36*
X170814404Y-104160052D02*
G01*
X170814404Y-104306402D01*
X170668053Y-104306402D01*
X170521703Y-104306402D01*
X170521703Y-104160052D01*
X170521703Y-104013701D01*
X170668053Y-104013701D01*
X170814404Y-104013701D01*
X170814404Y-104160052D01*
G37*
G36*
X168765493Y-110014085D02*
G01*
X168765493Y-110160436D01*
X168619142Y-110160436D01*
X168472791Y-110160436D01*
X168472791Y-110014085D01*
X168472791Y-109867734D01*
X168619142Y-109867734D01*
X168765493Y-109867734D01*
X168765493Y-110014085D01*
G37*
G36*
X169058194Y-105330858D02*
G01*
X169058194Y-105477209D01*
X168765493Y-105477209D01*
X168472791Y-105477209D01*
X168472791Y-105330858D01*
X168472791Y-105184507D01*
X168765493Y-105184507D01*
X169058194Y-105184507D01*
X169058194Y-105330858D01*
G37*
G36*
X168180089Y-106794367D02*
G01*
X168180089Y-106940717D01*
X167887388Y-106940717D01*
X167594686Y-106940717D01*
X167594686Y-106794367D01*
X167594686Y-106648016D01*
X167887388Y-106648016D01*
X168180089Y-106648016D01*
X168180089Y-106794367D01*
G37*
G36*
X167594686Y-102403842D02*
G01*
X167594686Y-102550192D01*
X167448335Y-102550192D01*
X167301984Y-102550192D01*
X167301984Y-102403842D01*
X167301984Y-102257491D01*
X167448335Y-102257491D01*
X167594686Y-102257491D01*
X167594686Y-102403842D01*
G37*
G36*
X167009283Y-110306787D02*
G01*
X167009283Y-110453137D01*
X166862932Y-110453137D01*
X166716581Y-110453137D01*
X166716581Y-110306787D01*
X166716581Y-110160436D01*
X166862932Y-110160436D01*
X167009283Y-110160436D01*
X167009283Y-110306787D01*
G37*
G36*
X166423879Y-106501665D02*
G01*
X166423879Y-106648016D01*
X166277528Y-106648016D01*
X166131178Y-106648016D01*
X166131178Y-106501665D01*
X166131178Y-106355314D01*
X166277528Y-106355314D01*
X166423879Y-106355314D01*
X166423879Y-106501665D01*
G37*
G36*
X165838476Y-105330858D02*
G01*
X165838476Y-105477209D01*
X165692125Y-105477209D01*
X165545774Y-105477209D01*
X165545774Y-105330858D01*
X165545774Y-105184507D01*
X165692125Y-105184507D01*
X165838476Y-105184507D01*
X165838476Y-105330858D01*
G37*
G36*
X165838476Y-102550192D02*
G01*
X165838476Y-102842894D01*
X165692125Y-102842894D01*
X165545774Y-102842894D01*
X165545774Y-102550192D01*
X165545774Y-102257491D01*
X165692125Y-102257491D01*
X165838476Y-102257491D01*
X165838476Y-102550192D01*
G37*
G36*
X165253073Y-102403842D02*
G01*
X165253073Y-102550192D01*
X165106722Y-102550192D01*
X164960371Y-102550192D01*
X164960371Y-102403842D01*
X164960371Y-102257491D01*
X165106722Y-102257491D01*
X165253073Y-102257491D01*
X165253073Y-102403842D01*
G37*
G36*
X165253073Y-100940333D02*
G01*
X165253073Y-101086684D01*
X165106722Y-101086684D01*
X164960371Y-101086684D01*
X164960371Y-100940333D01*
X164960371Y-100793982D01*
X165106722Y-100793982D01*
X165253073Y-100793982D01*
X165253073Y-100940333D01*
G37*
G36*
X164667669Y-109428682D02*
G01*
X164667669Y-109575032D01*
X164521318Y-109575032D01*
X164374968Y-109575032D01*
X164374968Y-109428682D01*
X164374968Y-109282331D01*
X164521318Y-109282331D01*
X164667669Y-109282331D01*
X164667669Y-109428682D01*
G37*
G36*
X164082266Y-101525737D02*
G01*
X164082266Y-101964789D01*
X163643213Y-101964789D01*
X163204161Y-101964789D01*
X163204161Y-101525737D01*
X163204161Y-101086684D01*
X163643213Y-101086684D01*
X164082266Y-101086684D01*
X164082266Y-101525737D01*
G37*
G36*
X165838476Y-110599488D02*
G01*
X165838476Y-110745839D01*
X165692125Y-110745839D01*
X165545774Y-110745839D01*
X165545774Y-110892190D01*
X165545774Y-111038541D01*
X165399423Y-111038541D01*
X165253073Y-111038541D01*
X165253073Y-110745839D01*
X165253073Y-110453137D01*
X165545774Y-110453137D01*
X165838476Y-110453137D01*
X165838476Y-110599488D01*
G37*
G36*
X173302368Y-104013701D02*
G01*
X173448719Y-104013701D01*
X173448719Y-104160052D01*
X173448719Y-104306402D01*
X173302368Y-104306402D01*
X173156018Y-104306402D01*
X173156018Y-104160052D01*
X173156018Y-104013701D01*
X173302368Y-104013701D01*
G37*
G36*
X173156018Y-103867350D02*
G01*
X173156018Y-104013701D01*
X172863316Y-104013701D01*
X172570614Y-104013701D01*
X172570614Y-103867350D01*
X172570614Y-103720999D01*
X172863316Y-103720999D01*
X173156018Y-103720999D01*
X173156018Y-103867350D01*
G37*
G36*
X168765493Y-103428297D02*
G01*
X168765493Y-103720999D01*
X168619142Y-103720999D01*
X168472791Y-103720999D01*
X168472791Y-103867350D01*
X168472791Y-104013701D01*
X168180089Y-104013701D01*
X167887388Y-104013701D01*
X167887388Y-103720999D01*
X167887388Y-103428297D01*
X168180089Y-103428297D01*
X168472791Y-103428297D01*
X168472791Y-103281947D01*
X168472791Y-103135596D01*
X168619142Y-103135596D01*
X168765493Y-103135596D01*
X168765493Y-103428297D01*
G37*
G36*
X164228617Y-111038541D02*
G01*
X164374968Y-111038541D01*
X164374968Y-111184892D01*
X164374968Y-111331242D01*
X164228617Y-111331242D01*
X164082266Y-111331242D01*
X164082266Y-111184892D01*
X164082266Y-111038541D01*
X164228617Y-111038541D01*
G37*
G36*
X164082266Y-110892190D02*
G01*
X164082266Y-111038541D01*
X163935915Y-111038541D01*
X163789564Y-111038541D01*
X163789564Y-110892190D01*
X163789564Y-110745839D01*
X163935915Y-110745839D01*
X164082266Y-110745839D01*
X164082266Y-110892190D01*
G37*
G36*
X163057810Y-103135596D02*
G01*
X163204161Y-103135596D01*
X163204161Y-103281947D01*
X163204161Y-103428297D01*
X163057810Y-103428297D01*
X162911459Y-103428297D01*
X162911459Y-103281947D01*
X162911459Y-103135596D01*
X163057810Y-103135596D01*
G37*
G36*
X162911459Y-102989245D02*
G01*
X162911459Y-103135596D01*
X162765108Y-103135596D01*
X162618758Y-103135596D01*
X162618758Y-102989245D01*
X162618758Y-102842894D01*
X162765108Y-102842894D01*
X162911459Y-102842894D01*
X162911459Y-102989245D01*
G37*
G36*
X162911459Y-108550577D02*
G01*
X162911459Y-108696927D01*
X163057810Y-108696927D01*
X163204161Y-108696927D01*
X163204161Y-108550577D01*
X163204161Y-108404226D01*
X163350512Y-108404226D01*
X163496863Y-108404226D01*
X163496863Y-108696927D01*
X163496863Y-108989629D01*
X163204161Y-108989629D01*
X162911459Y-108989629D01*
X162911459Y-108843278D01*
X162911459Y-108696927D01*
X162765108Y-108696927D01*
X162618758Y-108696927D01*
X162618758Y-108550577D01*
X162618758Y-108404226D01*
X162765108Y-108404226D01*
X162911459Y-108404226D01*
X162911459Y-108550577D01*
G37*
G36*
X171985211Y-105330858D02*
G01*
X171985211Y-105477209D01*
X172131562Y-105477209D01*
X172277913Y-105477209D01*
X172277913Y-105623560D01*
X172277913Y-105769911D01*
X172131562Y-105769911D01*
X171985211Y-105769911D01*
X171985211Y-105916262D01*
X171985211Y-106062612D01*
X171692509Y-106062612D01*
X171399808Y-106062612D01*
X171399808Y-105916262D01*
X171399808Y-105769911D01*
X171546158Y-105769911D01*
X171692509Y-105769911D01*
X171692509Y-105623560D01*
X171692509Y-105477209D01*
X171546158Y-105477209D01*
X171399808Y-105477209D01*
X171399808Y-105330858D01*
X171399808Y-105184507D01*
X171692509Y-105184507D01*
X171985211Y-105184507D01*
X171985211Y-105330858D01*
G37*
G36*
X166716581Y-107087068D02*
G01*
X166716581Y-107233419D01*
X166862932Y-107233419D01*
X167009283Y-107233419D01*
X167009283Y-107526121D01*
X167009283Y-107818822D01*
X166862932Y-107818822D01*
X166716581Y-107818822D01*
X166716581Y-107672472D01*
X166716581Y-107526121D01*
X166570230Y-107526121D01*
X166423879Y-107526121D01*
X166423879Y-107672472D01*
X166423879Y-107818822D01*
X166277528Y-107818822D01*
X166131178Y-107818822D01*
X166131178Y-107526121D01*
X166131178Y-107233419D01*
X166277528Y-107233419D01*
X166423879Y-107233419D01*
X166423879Y-107087068D01*
X166423879Y-106940717D01*
X166570230Y-106940717D01*
X166716581Y-106940717D01*
X166716581Y-107087068D01*
G37*
G36*
X164521318Y-103720999D02*
G01*
X164667669Y-103720999D01*
X164667669Y-103867350D01*
X164667669Y-104013701D01*
X164814020Y-104013701D01*
X164960371Y-104013701D01*
X164960371Y-104160052D01*
X164960371Y-104306402D01*
X164521318Y-104306402D01*
X164082266Y-104306402D01*
X164082266Y-104160052D01*
X164082266Y-104013701D01*
X164228617Y-104013701D01*
X164374968Y-104013701D01*
X164374968Y-103867350D01*
X164374968Y-103720999D01*
X164521318Y-103720999D01*
G37*
G36*
X164374968Y-103574648D02*
G01*
X164374968Y-103720999D01*
X164228617Y-103720999D01*
X164082266Y-103720999D01*
X164082266Y-103574648D01*
X164082266Y-103428297D01*
X164228617Y-103428297D01*
X164374968Y-103428297D01*
X164374968Y-103574648D01*
G37*
G36*
X173448719Y-111331242D02*
G01*
X172424263Y-111331242D01*
X171399808Y-111331242D01*
X171399808Y-111022280D01*
X171708770Y-111022280D01*
X172416909Y-111031047D01*
X172438852Y-111031313D01*
X172676907Y-111033320D01*
X172857392Y-111032704D01*
X172987185Y-111029149D01*
X173073168Y-111022339D01*
X173122218Y-111011956D01*
X173141215Y-110997684D01*
X173142604Y-110991334D01*
X173146674Y-110930733D01*
X173149409Y-110818338D01*
X173150707Y-110664453D01*
X173150462Y-110479380D01*
X173148569Y-110273424D01*
X173139756Y-109591294D01*
X172424263Y-109591294D01*
X171708770Y-109591294D01*
X171708770Y-110306787D01*
X171708770Y-111022280D01*
X171399808Y-111022280D01*
X171399808Y-110306787D01*
X171399808Y-109282331D01*
X172424263Y-109282331D01*
X173448719Y-109282331D01*
X173448719Y-110306787D01*
X173448719Y-110664453D01*
X173448719Y-111331242D01*
G37*
G36*
X173448719Y-102550192D02*
G01*
X172424263Y-102550192D01*
X171399808Y-102550192D01*
X171399808Y-102241230D01*
X171708770Y-102241230D01*
X172416909Y-102249997D01*
X172438852Y-102250263D01*
X172676907Y-102252270D01*
X172857392Y-102251654D01*
X172987185Y-102248099D01*
X173073168Y-102241289D01*
X173122218Y-102230906D01*
X173141215Y-102216634D01*
X173142604Y-102210284D01*
X173146674Y-102149683D01*
X173149409Y-102037288D01*
X173150707Y-101883403D01*
X173150462Y-101698330D01*
X173148569Y-101492374D01*
X173139756Y-100810244D01*
X172424263Y-100810244D01*
X171708770Y-100810244D01*
X171708770Y-101525737D01*
X171708770Y-102241230D01*
X171399808Y-102241230D01*
X171399808Y-101525737D01*
X171399808Y-100501281D01*
X172424263Y-100501281D01*
X173448719Y-100501281D01*
X173448719Y-101525737D01*
X173448719Y-101883403D01*
X173448719Y-102550192D01*
G37*
G36*
X164667669Y-102550192D02*
G01*
X163643213Y-102550192D01*
X162618758Y-102550192D01*
X162618758Y-102241230D01*
X162927720Y-102241230D01*
X163635859Y-102249997D01*
X163657802Y-102250263D01*
X163895857Y-102252270D01*
X164076342Y-102251654D01*
X164206136Y-102248099D01*
X164292118Y-102241289D01*
X164341168Y-102230906D01*
X164360165Y-102216634D01*
X164361554Y-102210284D01*
X164365624Y-102149683D01*
X164368359Y-102037288D01*
X164369657Y-101883403D01*
X164369412Y-101698330D01*
X164367519Y-101492374D01*
X164358706Y-100810244D01*
X163643213Y-100810244D01*
X162927720Y-100810244D01*
X162927720Y-101525737D01*
X162927720Y-102241230D01*
X162618758Y-102241230D01*
X162618758Y-101525737D01*
X162618758Y-100501281D01*
X163643213Y-100501281D01*
X164667669Y-100501281D01*
X164667669Y-101525737D01*
X164667669Y-101883403D01*
X164667669Y-102550192D01*
G37*
G36*
X169643598Y-103574648D02*
G01*
X169643598Y-103720999D01*
X169497247Y-103720999D01*
X169350896Y-103720999D01*
X169350896Y-103867350D01*
X169350896Y-104013701D01*
X169643598Y-104013701D01*
X169936299Y-104013701D01*
X169936299Y-103867350D01*
X169936299Y-103720999D01*
X170082650Y-103720999D01*
X170229001Y-103720999D01*
X170229001Y-104013701D01*
X170229001Y-104306402D01*
X169936299Y-104306402D01*
X169643598Y-104306402D01*
X169643598Y-104452753D01*
X169643598Y-104599104D01*
X169789948Y-104599104D01*
X169936299Y-104599104D01*
X169936299Y-104745455D01*
X169936299Y-104891806D01*
X170082650Y-104891806D01*
X170229001Y-104891806D01*
X170229001Y-105038157D01*
X170229001Y-105184507D01*
X170375352Y-105184507D01*
X170521703Y-105184507D01*
X170521703Y-104891806D01*
X170521703Y-104599104D01*
X170668053Y-104599104D01*
X170814404Y-104599104D01*
X170814404Y-104745455D01*
X170814404Y-104891806D01*
X170960755Y-104891806D01*
X171107106Y-104891806D01*
X171107106Y-105038157D01*
X171107106Y-105184507D01*
X170814404Y-105184507D01*
X170521703Y-105184507D01*
X170521703Y-105330858D01*
X170521703Y-105477209D01*
X170229001Y-105477209D01*
X169936299Y-105477209D01*
X169936299Y-105623560D01*
X169936299Y-105769911D01*
X169643598Y-105769911D01*
X169350896Y-105769911D01*
X169350896Y-105623560D01*
X169350896Y-105477209D01*
X169497247Y-105477209D01*
X169643598Y-105477209D01*
X169643598Y-105330858D01*
X169643598Y-105184507D01*
X169350896Y-105184507D01*
X169058194Y-105184507D01*
X169058194Y-105038157D01*
X169058194Y-104891806D01*
X168911843Y-104891806D01*
X168765493Y-104891806D01*
X168765493Y-104745455D01*
X168765493Y-104599104D01*
X168472791Y-104599104D01*
X168180089Y-104599104D01*
X168180089Y-104745455D01*
X168180089Y-104891806D01*
X168033738Y-104891806D01*
X167887388Y-104891806D01*
X167887388Y-104599104D01*
X167887388Y-104306402D01*
X168326440Y-104306402D01*
X168765493Y-104306402D01*
X168765493Y-104160052D01*
X168765493Y-104013701D01*
X168911843Y-104013701D01*
X169058194Y-104013701D01*
X169058194Y-104160052D01*
X169058194Y-104306402D01*
X169204545Y-104306402D01*
X169350896Y-104306402D01*
X169350896Y-104160052D01*
X169350896Y-104013701D01*
X169204545Y-104013701D01*
X169058194Y-104013701D01*
X169058194Y-103720999D01*
X169058194Y-103428297D01*
X169350896Y-103428297D01*
X169643598Y-103428297D01*
X169643598Y-103574648D01*
G37*
G36*
X170814404Y-105623560D02*
G01*
X170814404Y-105769911D01*
X170960755Y-105769911D01*
X171107106Y-105769911D01*
X171107106Y-105916262D01*
X171107106Y-106062612D01*
X170960755Y-106062612D01*
X170814404Y-106062612D01*
X170814404Y-106208963D01*
X170814404Y-106355314D01*
X170668053Y-106355314D01*
X170521703Y-106355314D01*
X170521703Y-106501665D01*
X170521703Y-106648016D01*
X170375352Y-106648016D01*
X170229001Y-106648016D01*
X170229001Y-106501665D01*
X170229001Y-106355314D01*
X170082650Y-106355314D01*
X169936299Y-106355314D01*
X169936299Y-106062612D01*
X169936299Y-105769911D01*
X170082650Y-105769911D01*
X170229001Y-105769911D01*
X170229001Y-105916262D01*
X170229001Y-106062612D01*
X170375352Y-106062612D01*
X170521703Y-106062612D01*
X170521703Y-105769911D01*
X170521703Y-105477209D01*
X170668053Y-105477209D01*
X170814404Y-105477209D01*
X170814404Y-105623560D01*
G37*
G36*
X170814404Y-110745839D02*
G01*
X170375352Y-110745839D01*
X169936299Y-110745839D01*
X169936299Y-110892190D01*
X169936299Y-111038541D01*
X169789948Y-111038541D01*
X169643598Y-111038541D01*
X169643598Y-111184892D01*
X169643598Y-111331242D01*
X169350896Y-111331242D01*
X169058194Y-111331242D01*
X169058194Y-111184892D01*
X169058194Y-111038541D01*
X168911843Y-111038541D01*
X168765493Y-111038541D01*
X168765493Y-111184892D01*
X168765493Y-111331242D01*
X168472791Y-111331242D01*
X168180089Y-111331242D01*
X168180089Y-111038541D01*
X168180089Y-110745839D01*
X168033738Y-110745839D01*
X167887388Y-110745839D01*
X167887388Y-110892190D01*
X167887388Y-111038541D01*
X167594686Y-111038541D01*
X167301984Y-111038541D01*
X167301984Y-111184892D01*
X167301984Y-111331242D01*
X166716581Y-111331242D01*
X166131178Y-111331242D01*
X166131178Y-111184892D01*
X166131178Y-111038541D01*
X166277528Y-111038541D01*
X166423879Y-111038541D01*
X166423879Y-110892190D01*
X166423879Y-110745839D01*
X166277528Y-110745839D01*
X166131178Y-110745839D01*
X166131178Y-110599488D01*
X166131178Y-110453137D01*
X165984827Y-110453137D01*
X165838476Y-110453137D01*
X165838476Y-110306787D01*
X165838476Y-110160436D01*
X165692125Y-110160436D01*
X165545774Y-110160436D01*
X165545774Y-110014085D01*
X165545774Y-109867734D01*
X165692125Y-109867734D01*
X165838476Y-109867734D01*
X165838476Y-110014085D01*
X165838476Y-110160436D01*
X165984827Y-110160436D01*
X166131178Y-110160436D01*
X166131178Y-110014085D01*
X166131178Y-109867734D01*
X166277528Y-109867734D01*
X166423879Y-109867734D01*
X166423879Y-110160436D01*
X166423879Y-110453137D01*
X166570230Y-110453137D01*
X166716581Y-110453137D01*
X166716581Y-110745839D01*
X166716581Y-111038541D01*
X166862932Y-111038541D01*
X167009283Y-111038541D01*
X167009283Y-110745839D01*
X167009283Y-110453137D01*
X167155633Y-110453137D01*
X167301984Y-110453137D01*
X167301984Y-110599488D01*
X167301984Y-110745839D01*
X167448335Y-110745839D01*
X167594686Y-110745839D01*
X167594686Y-110453137D01*
X167594686Y-110160436D01*
X167448335Y-110160436D01*
X167301984Y-110160436D01*
X167301984Y-110014085D01*
X167301984Y-109867734D01*
X167448335Y-109867734D01*
X167594686Y-109867734D01*
X167594686Y-109721383D01*
X167594686Y-109575032D01*
X167741037Y-109575032D01*
X167887388Y-109575032D01*
X167887388Y-109867734D01*
X167887388Y-110160436D01*
X168180089Y-110160436D01*
X168472791Y-110160436D01*
X168472791Y-110306787D01*
X168472791Y-110453137D01*
X168326440Y-110453137D01*
X168180089Y-110453137D01*
X168180089Y-110599488D01*
X168180089Y-110745839D01*
X168472791Y-110745839D01*
X168765493Y-110745839D01*
X169350896Y-110745839D01*
X169643598Y-110745839D01*
X169936299Y-110745839D01*
X169936299Y-110599488D01*
X169936299Y-110453137D01*
X169643598Y-110453137D01*
X169350896Y-110453137D01*
X169350896Y-110599488D01*
X169350896Y-110745839D01*
X168765493Y-110745839D01*
X168765493Y-110599488D01*
X168765493Y-110453137D01*
X168911843Y-110453137D01*
X169058194Y-110453137D01*
X169058194Y-110306787D01*
X169058194Y-110160436D01*
X169350896Y-110160436D01*
X169643598Y-110160436D01*
X169643598Y-110014085D01*
X169643598Y-109867734D01*
X169789948Y-109867734D01*
X169936299Y-109867734D01*
X169936299Y-109575032D01*
X169936299Y-109282331D01*
X169789948Y-109282331D01*
X169643598Y-109282331D01*
X169643598Y-109135980D01*
X169643598Y-108989629D01*
X169936299Y-108989629D01*
X170229001Y-108989629D01*
X170229001Y-108843278D01*
X170229001Y-108696927D01*
X170375352Y-108696927D01*
X170521703Y-108696927D01*
X170521703Y-109135980D01*
X170521703Y-109575032D01*
X170375352Y-109575032D01*
X170229001Y-109575032D01*
X170229001Y-109721383D01*
X170229001Y-109867734D01*
X170375352Y-109867734D01*
X170521703Y-109867734D01*
X170521703Y-109721383D01*
X170521703Y-109575032D01*
X170668053Y-109575032D01*
X170814404Y-109575032D01*
X170814404Y-109282331D01*
X170814404Y-108989629D01*
X170960755Y-108989629D01*
X171107106Y-108989629D01*
X171107106Y-109282331D01*
X171107106Y-109575032D01*
X170960755Y-109575032D01*
X170814404Y-109575032D01*
X170814404Y-109721383D01*
X170814404Y-109867734D01*
X170960755Y-109867734D01*
X171107106Y-109867734D01*
X171107106Y-110014085D01*
X171107106Y-110160436D01*
X170960755Y-110160436D01*
X170814404Y-110160436D01*
X170814404Y-110453137D01*
X170814404Y-110745839D01*
G37*
G36*
X170082650Y-111038541D02*
G01*
X170229001Y-111038541D01*
X170229001Y-111184892D01*
X170229001Y-111331242D01*
X170082650Y-111331242D01*
X169936299Y-111331242D01*
X169936299Y-111184892D01*
X169936299Y-111038541D01*
X170082650Y-111038541D01*
G37*
G36*
X167448335Y-106062612D02*
G01*
X167594686Y-106062612D01*
X167594686Y-105769911D01*
X167594686Y-105477209D01*
X167887388Y-105477209D01*
X168180089Y-105477209D01*
X168180089Y-105623560D01*
X168180089Y-105769911D01*
X168033738Y-105769911D01*
X167887388Y-105769911D01*
X167887388Y-105916262D01*
X167887388Y-106062612D01*
X168326440Y-106062612D01*
X168765493Y-106062612D01*
X168765493Y-105916262D01*
X168765493Y-105769911D01*
X169058194Y-105769911D01*
X169350896Y-105769911D01*
X169350896Y-106062612D01*
X169350896Y-106355314D01*
X168911843Y-106355314D01*
X168472791Y-106355314D01*
X168472791Y-106501665D01*
X168472791Y-106648016D01*
X168326440Y-106648016D01*
X168180089Y-106648016D01*
X168180089Y-106501665D01*
X168180089Y-106355314D01*
X167887388Y-106355314D01*
X167594686Y-106355314D01*
X167594686Y-106501665D01*
X167594686Y-106648016D01*
X167448335Y-106648016D01*
X167301984Y-106648016D01*
X167301984Y-106794367D01*
X167301984Y-106940717D01*
X167009283Y-106940717D01*
X166716581Y-106940717D01*
X166716581Y-106648016D01*
X166716581Y-106355314D01*
X166862932Y-106355314D01*
X167009283Y-106355314D01*
X167009283Y-106208963D01*
X167009283Y-106062612D01*
X166862932Y-106062612D01*
X166716581Y-106062612D01*
X166716581Y-106208963D01*
X166716581Y-106355314D01*
X166570230Y-106355314D01*
X166423879Y-106355314D01*
X166423879Y-106208963D01*
X166423879Y-106062612D01*
X166277528Y-106062612D01*
X166131178Y-106062612D01*
X166131178Y-105769911D01*
X166131178Y-105477209D01*
X166277528Y-105477209D01*
X166423879Y-105477209D01*
X166423879Y-105623560D01*
X166423879Y-105769911D01*
X166570230Y-105769911D01*
X166716581Y-105769911D01*
X166716581Y-105623560D01*
X166716581Y-105477209D01*
X166862932Y-105477209D01*
X167009283Y-105477209D01*
X167009283Y-105623560D01*
X167009283Y-105769911D01*
X167155633Y-105769911D01*
X167301984Y-105769911D01*
X167301984Y-105916262D01*
X167301984Y-106062612D01*
X167448335Y-106062612D01*
G37*
G36*
X169936299Y-106794367D02*
G01*
X169936299Y-106940717D01*
X169643598Y-106940717D01*
X169350896Y-106940717D01*
X169350896Y-107233419D01*
X169350896Y-107526121D01*
X169204545Y-107526121D01*
X169058194Y-107526121D01*
X169058194Y-107379770D01*
X169058194Y-107233419D01*
X168911843Y-107233419D01*
X168765493Y-107233419D01*
X168765493Y-107379770D01*
X168765493Y-107526121D01*
X168472791Y-107526121D01*
X168180089Y-107526121D01*
X168180089Y-107672472D01*
X168180089Y-107818822D01*
X168033738Y-107818822D01*
X167887388Y-107818822D01*
X167887388Y-107672472D01*
X167887388Y-107526121D01*
X167594686Y-107526121D01*
X167301984Y-107526121D01*
X167301984Y-107233419D01*
X167301984Y-106940717D01*
X167448335Y-106940717D01*
X167594686Y-106940717D01*
X167594686Y-107087068D01*
X167594686Y-107233419D01*
X167887388Y-107233419D01*
X168180089Y-107233419D01*
X168180089Y-107087068D01*
X168180089Y-106940717D01*
X168326440Y-106940717D01*
X168472791Y-106940717D01*
X168472791Y-106794367D01*
X168472791Y-106648016D01*
X168765493Y-106648016D01*
X169058194Y-106648016D01*
X169058194Y-106794367D01*
X169058194Y-106940717D01*
X169204545Y-106940717D01*
X169350896Y-106940717D01*
X169350896Y-106794367D01*
X169350896Y-106648016D01*
X169643598Y-106648016D01*
X169936299Y-106648016D01*
X169936299Y-106794367D01*
G37*
G36*
X169497247Y-107526121D02*
G01*
X169643598Y-107526121D01*
X169643598Y-107818822D01*
X169643598Y-108111524D01*
X169497247Y-108111524D01*
X169350896Y-108111524D01*
X169350896Y-108404226D01*
X169350896Y-108696927D01*
X169497247Y-108696927D01*
X169643598Y-108696927D01*
X169643598Y-108404226D01*
X169643598Y-108111524D01*
X169936299Y-108111524D01*
X170229001Y-108111524D01*
X170229001Y-108257875D01*
X170229001Y-108404226D01*
X170082650Y-108404226D01*
X169936299Y-108404226D01*
X169936299Y-108550577D01*
X169936299Y-108696927D01*
X169789948Y-108696927D01*
X169643598Y-108696927D01*
X169643598Y-108843278D01*
X169643598Y-108989629D01*
X169497247Y-108989629D01*
X169350896Y-108989629D01*
X169350896Y-109135980D01*
X169350896Y-109282331D01*
X169204545Y-109282331D01*
X169058194Y-109282331D01*
X169058194Y-109575032D01*
X169058194Y-109867734D01*
X168911843Y-109867734D01*
X168765493Y-109867734D01*
X168765493Y-109721383D01*
X168765493Y-109575032D01*
X168619142Y-109575032D01*
X168472791Y-109575032D01*
X168472791Y-109428682D01*
X168472791Y-109282331D01*
X168326440Y-109282331D01*
X168180089Y-109282331D01*
X168180089Y-109428682D01*
X168180089Y-109575032D01*
X168033738Y-109575032D01*
X167887388Y-109575032D01*
X167887388Y-109282331D01*
X167887388Y-108989629D01*
X168033738Y-108989629D01*
X168180089Y-108989629D01*
X168180089Y-108843278D01*
X168180089Y-108696927D01*
X168033738Y-108696927D01*
X167887388Y-108696927D01*
X167887388Y-108404226D01*
X167887388Y-108111524D01*
X168033738Y-108111524D01*
X168180089Y-108111524D01*
X168180089Y-108257875D01*
X168180089Y-108404226D01*
X168326440Y-108404226D01*
X168472791Y-108404226D01*
X168472791Y-108550577D01*
X168472791Y-108696927D01*
X168765493Y-108696927D01*
X169058194Y-108696927D01*
X169058194Y-108257875D01*
X169058194Y-107818822D01*
X169204545Y-107818822D01*
X169350896Y-107818822D01*
X169350896Y-107672472D01*
X169350896Y-107526121D01*
X169497247Y-107526121D01*
G37*
G36*
X168472791Y-107818822D02*
G01*
X168765493Y-107818822D01*
X168765493Y-108111524D01*
X168765493Y-108404226D01*
X168619142Y-108404226D01*
X168472791Y-108404226D01*
X168472791Y-108257875D01*
X168472791Y-108111524D01*
X168326440Y-108111524D01*
X168180089Y-108111524D01*
X168180089Y-107965173D01*
X168180089Y-107818822D01*
X168472791Y-107818822D01*
G37*
G36*
X170082650Y-106940717D02*
G01*
X170229001Y-106940717D01*
X170229001Y-107087068D01*
X170229001Y-107233419D01*
X170082650Y-107233419D01*
X169936299Y-107233419D01*
X169936299Y-107087068D01*
X169936299Y-106940717D01*
X170082650Y-106940717D01*
G37*
G36*
X165545774Y-109282331D02*
G01*
X165984827Y-109282331D01*
X166423879Y-109282331D01*
X166423879Y-109135980D01*
X166423879Y-108989629D01*
X166131178Y-108989629D01*
X165838476Y-108989629D01*
X165838476Y-108843278D01*
X165838476Y-108696927D01*
X165984827Y-108696927D01*
X166131178Y-108696927D01*
X166131178Y-108550577D01*
X166131178Y-108404226D01*
X166277528Y-108404226D01*
X166423879Y-108404226D01*
X166423879Y-108550577D01*
X166423879Y-108696927D01*
X166716581Y-108696927D01*
X167009283Y-108696927D01*
X167009283Y-108550577D01*
X167009283Y-108404226D01*
X166862932Y-108404226D01*
X166716581Y-108404226D01*
X166716581Y-108257875D01*
X166716581Y-108111524D01*
X166862932Y-108111524D01*
X167009283Y-108111524D01*
X167009283Y-107965173D01*
X167009283Y-107818822D01*
X167448335Y-107818822D01*
X167887388Y-107818822D01*
X167887388Y-107965173D01*
X167887388Y-108111524D01*
X167741037Y-108111524D01*
X167594686Y-108111524D01*
X167594686Y-108257875D01*
X167594686Y-108404226D01*
X167448335Y-108404226D01*
X167301984Y-108404226D01*
X167301984Y-108550577D01*
X167301984Y-108696927D01*
X167594686Y-108696927D01*
X167887388Y-108696927D01*
X167887388Y-108843278D01*
X167887388Y-108989629D01*
X167741037Y-108989629D01*
X167594686Y-108989629D01*
X167594686Y-109135980D01*
X167594686Y-109282331D01*
X167448335Y-109282331D01*
X167301984Y-109282331D01*
X167301984Y-109135980D01*
X167301984Y-108989629D01*
X167009283Y-108989629D01*
X166716581Y-108989629D01*
X166716581Y-109135980D01*
X166716581Y-109282331D01*
X167009283Y-109282331D01*
X167301984Y-109282331D01*
X167301984Y-109575032D01*
X167301984Y-109867734D01*
X167155633Y-109867734D01*
X167009283Y-109867734D01*
X167009283Y-109721383D01*
X167009283Y-109575032D01*
X166862932Y-109575032D01*
X166716581Y-109575032D01*
X166716581Y-109721383D01*
X166716581Y-109867734D01*
X166570230Y-109867734D01*
X166423879Y-109867734D01*
X166423879Y-109721383D01*
X166423879Y-109575032D01*
X165984827Y-109575032D01*
X165545774Y-109575032D01*
X165545774Y-109428682D01*
X165545774Y-109282331D01*
X165399423Y-109282331D01*
X165253073Y-109282331D01*
X165253073Y-109721383D01*
X165253073Y-110160436D01*
X165106722Y-110160436D01*
X164960371Y-110160436D01*
X164960371Y-110745839D01*
X164960371Y-111331242D01*
X164814020Y-111331242D01*
X164667669Y-111331242D01*
X164667669Y-111038541D01*
X164667669Y-110745839D01*
X164521318Y-110745839D01*
X164374968Y-110745839D01*
X164374968Y-110599488D01*
X164374968Y-110453137D01*
X164228617Y-110453137D01*
X164082266Y-110453137D01*
X164082266Y-110306787D01*
X164082266Y-110160436D01*
X163935915Y-110160436D01*
X163789564Y-110160436D01*
X163789564Y-110306787D01*
X163789564Y-110453137D01*
X163643213Y-110453137D01*
X163496863Y-110453137D01*
X163496863Y-110892190D01*
X163496863Y-111331242D01*
X163057810Y-111331242D01*
X162618758Y-111331242D01*
X162618758Y-111184892D01*
X162618758Y-111038541D01*
X162765108Y-111038541D01*
X162911459Y-111038541D01*
X162911459Y-110306787D01*
X162911459Y-110160436D01*
X163204161Y-110160436D01*
X163204161Y-110306787D01*
X163204161Y-110453137D01*
X163350512Y-110453137D01*
X163496863Y-110453137D01*
X163496863Y-110306787D01*
X163496863Y-110160436D01*
X163350512Y-110160436D01*
X163204161Y-110160436D01*
X162911459Y-110160436D01*
X162911459Y-109867734D01*
X164082266Y-109867734D01*
X164521318Y-109867734D01*
X164960371Y-109867734D01*
X164960371Y-109428682D01*
X164960371Y-108989629D01*
X164521318Y-108989629D01*
X164082266Y-108989629D01*
X164082266Y-109428682D01*
X164082266Y-109867734D01*
X162911459Y-109867734D01*
X162911459Y-109575032D01*
X163350512Y-109575032D01*
X163789564Y-109575032D01*
X163789564Y-108989629D01*
X163789564Y-108404226D01*
X164082266Y-108404226D01*
X164374968Y-108404226D01*
X164374968Y-108550577D01*
X164374968Y-108696927D01*
X164521318Y-108696927D01*
X164667669Y-108696927D01*
X164667669Y-108550577D01*
X164667669Y-108404226D01*
X164814020Y-108404226D01*
X164960371Y-108404226D01*
X164960371Y-108550577D01*
X164960371Y-108696927D01*
X165253073Y-108696927D01*
X165545774Y-108696927D01*
X165545774Y-108989629D01*
X165545774Y-109282331D01*
G37*
G36*
X165984827Y-106648016D02*
G01*
X166131178Y-106648016D01*
X166131178Y-106794367D01*
X166131178Y-106940717D01*
X165838476Y-106940717D01*
X165545774Y-106940717D01*
X165545774Y-107233419D01*
X165545774Y-107526121D01*
X165399423Y-107526121D01*
X165253073Y-107526121D01*
X165253073Y-107233419D01*
X165253073Y-106940717D01*
X164960371Y-106940717D01*
X164667669Y-106940717D01*
X164667669Y-106794367D01*
X164667669Y-106648016D01*
X164521318Y-106648016D01*
X164374968Y-106648016D01*
X164374968Y-107087068D01*
X164374968Y-107526121D01*
X164814020Y-107526121D01*
X165253073Y-107526121D01*
X165253073Y-107672472D01*
X165253073Y-107818822D01*
X165399423Y-107818822D01*
X165545774Y-107818822D01*
X165545774Y-107672472D01*
X165545774Y-107526121D01*
X165692125Y-107526121D01*
X165838476Y-107526121D01*
X165838476Y-107818822D01*
X165838476Y-108111524D01*
X165984827Y-108111524D01*
X166131178Y-108111524D01*
X166131178Y-108257875D01*
X166131178Y-108404226D01*
X165984827Y-108404226D01*
X165838476Y-108404226D01*
X165838476Y-108550577D01*
X165838476Y-108696927D01*
X165692125Y-108696927D01*
X165545774Y-108696927D01*
X165545774Y-108550577D01*
X165545774Y-108404226D01*
X165399423Y-108404226D01*
X165253073Y-108404226D01*
X165253073Y-108257875D01*
X165253073Y-108111524D01*
X164960371Y-108111524D01*
X164667669Y-108111524D01*
X164667669Y-107965173D01*
X164667669Y-107818822D01*
X164374968Y-107818822D01*
X164082266Y-107818822D01*
X164082266Y-107965173D01*
X164082266Y-108111524D01*
X163935915Y-108111524D01*
X163789564Y-108111524D01*
X163789564Y-107965173D01*
X163789564Y-107818822D01*
X163935915Y-107818822D01*
X164082266Y-107818822D01*
X164082266Y-107672472D01*
X164082266Y-107526121D01*
X163935915Y-107526121D01*
X163789564Y-107526121D01*
X163789564Y-107672472D01*
X163789564Y-107818822D01*
X163350512Y-107818822D01*
X162911459Y-107818822D01*
X162911459Y-107526121D01*
X162911459Y-107233419D01*
X163057810Y-107233419D01*
X163204161Y-107233419D01*
X163496863Y-107233419D01*
X163496863Y-107379770D01*
X163496863Y-107526121D01*
X163643213Y-107526121D01*
X163789564Y-107526121D01*
X163789564Y-107379770D01*
X163789564Y-107233419D01*
X163643213Y-107233419D01*
X163496863Y-107233419D01*
X163204161Y-107233419D01*
X163204161Y-107087068D01*
X163204161Y-106940717D01*
X163496863Y-106940717D01*
X163789564Y-106940717D01*
X163789564Y-106794367D01*
X163789564Y-106648016D01*
X163496863Y-106648016D01*
X163204161Y-106648016D01*
X163204161Y-106501665D01*
X163204161Y-106355314D01*
X163057810Y-106355314D01*
X162911459Y-106355314D01*
X162911459Y-106208963D01*
X162911459Y-106062612D01*
X163204161Y-106062612D01*
X163496863Y-106062612D01*
X163496863Y-106208963D01*
X163496863Y-106355314D01*
X163643213Y-106355314D01*
X163789564Y-106355314D01*
X163789564Y-106501665D01*
X163789564Y-106648016D01*
X163935915Y-106648016D01*
X164082266Y-106648016D01*
X164082266Y-106355314D01*
X164374968Y-106355314D01*
X164667669Y-106355314D01*
X164960371Y-106355314D01*
X164960371Y-106501665D01*
X164960371Y-106648016D01*
X165253073Y-106648016D01*
X165545774Y-106648016D01*
X165545774Y-106501665D01*
X165545774Y-106355314D01*
X165399423Y-106355314D01*
X165253073Y-106355314D01*
X165253073Y-106208963D01*
X165253073Y-106062612D01*
X164814020Y-106062612D01*
X164374968Y-106062612D01*
X164374968Y-106208963D01*
X164374968Y-106355314D01*
X164082266Y-106355314D01*
X164082266Y-106208963D01*
X164082266Y-105769911D01*
X163496863Y-105769911D01*
X162911459Y-105769911D01*
X162911459Y-105623560D01*
X162911459Y-105477209D01*
X162765108Y-105477209D01*
X162618758Y-105477209D01*
X162618758Y-105330858D01*
X162618758Y-105184507D01*
X162911459Y-105184507D01*
X163204161Y-105184507D01*
X163204161Y-104891806D01*
X163496863Y-104891806D01*
X163496863Y-105038157D01*
X163496863Y-105184507D01*
X163643213Y-105184507D01*
X163789564Y-105184507D01*
X163789564Y-105038157D01*
X163789564Y-104891806D01*
X163643213Y-104891806D01*
X163496863Y-104891806D01*
X163204161Y-104891806D01*
X163204161Y-104599104D01*
X163057810Y-104599104D01*
X162911459Y-104599104D01*
X162911459Y-104452753D01*
X162911459Y-104306402D01*
X162765108Y-104306402D01*
X162618758Y-104306402D01*
X162618758Y-104160052D01*
X162618758Y-104013701D01*
X162765108Y-104013701D01*
X162911459Y-104013701D01*
X162911459Y-103867350D01*
X162911459Y-103720999D01*
X163204161Y-103720999D01*
X163496863Y-103720999D01*
X163496863Y-103574648D01*
X163496863Y-103428297D01*
X163643213Y-103428297D01*
X163789564Y-103428297D01*
X163789564Y-103720999D01*
X163789564Y-104013701D01*
X163643213Y-104013701D01*
X163496863Y-104013701D01*
X163496863Y-104160052D01*
X163496863Y-104306402D01*
X163350512Y-104306402D01*
X163204161Y-104306402D01*
X163204161Y-104452753D01*
X163204161Y-104599104D01*
X163350512Y-104599104D01*
X163496863Y-104599104D01*
X163496863Y-104452753D01*
X163496863Y-104306402D01*
X163789564Y-104306402D01*
X164082266Y-104306402D01*
X164082266Y-104452753D01*
X164082266Y-104599104D01*
X164228617Y-104599104D01*
X164374968Y-104599104D01*
X164374968Y-104745455D01*
X164374968Y-104891806D01*
X164521318Y-104891806D01*
X164667669Y-104891806D01*
X164667669Y-105038157D01*
X164667669Y-105184507D01*
X164814020Y-105184507D01*
X164960371Y-105184507D01*
X164960371Y-105330858D01*
X164960371Y-105477209D01*
X164521318Y-105477209D01*
X164082266Y-105477209D01*
X164082266Y-105330858D01*
X164082266Y-105184507D01*
X163935915Y-105184507D01*
X163789564Y-105184507D01*
X163789564Y-105330858D01*
X163789564Y-105477209D01*
X163935915Y-105477209D01*
X164082266Y-105477209D01*
X164082266Y-105623560D01*
X164082266Y-105769911D01*
X164521318Y-105769911D01*
X164960371Y-105769911D01*
X164960371Y-105623560D01*
X164960371Y-105477209D01*
X165253073Y-105477209D01*
X165545774Y-105477209D01*
X165545774Y-105623560D01*
X165545774Y-105769911D01*
X165692125Y-105769911D01*
X165838476Y-105769911D01*
X165838476Y-106208963D01*
X165838476Y-106648016D01*
X165984827Y-106648016D01*
G37*
G36*
X163789564Y-108257875D02*
G01*
X163789564Y-108404226D01*
X163643213Y-108404226D01*
X163496863Y-108404226D01*
X163496863Y-108257875D01*
X163496863Y-108111524D01*
X163643213Y-108111524D01*
X163789564Y-108111524D01*
X163789564Y-108257875D01*
G37*
G36*
X171107106Y-102842894D02*
G01*
X171399808Y-102842894D01*
X171692509Y-102842894D01*
X171692509Y-102989245D01*
X171692509Y-103135596D01*
X171546158Y-103135596D01*
X171399808Y-103135596D01*
X171399808Y-103281947D01*
X171399808Y-103428297D01*
X171546158Y-103428297D01*
X171692509Y-103428297D01*
X171692509Y-103281947D01*
X171692509Y-103135596D01*
X171838860Y-103135596D01*
X171985211Y-103135596D01*
X171985211Y-102989245D01*
X171985211Y-102842894D01*
X172131562Y-102842894D01*
X172277913Y-102842894D01*
X172277913Y-102989245D01*
X172277913Y-103135596D01*
X172131562Y-103135596D01*
X171985211Y-103135596D01*
X171985211Y-103281947D01*
X171985211Y-103428297D01*
X171838860Y-103428297D01*
X171692509Y-103428297D01*
X171692509Y-103574648D01*
X171692509Y-103720999D01*
X171546158Y-103720999D01*
X171399808Y-103720999D01*
X171399808Y-103867350D01*
X171399808Y-104013701D01*
X171546158Y-104013701D01*
X171692509Y-104013701D01*
X171692509Y-103867350D01*
X171692509Y-103720999D01*
X171985211Y-103720999D01*
X172277913Y-103720999D01*
X172277913Y-103867350D01*
X172277913Y-104013701D01*
X171985211Y-104013701D01*
X171692509Y-104013701D01*
X171692509Y-104160052D01*
X171692509Y-104306402D01*
X171399808Y-104306402D01*
X171107106Y-104306402D01*
X171107106Y-104160052D01*
X171107106Y-104013701D01*
X170960755Y-104013701D01*
X170814404Y-104013701D01*
X170814404Y-103867350D01*
X170814404Y-103720999D01*
X170521703Y-103720999D01*
X170229001Y-103720999D01*
X170229001Y-103574648D01*
X170229001Y-103428297D01*
X169936299Y-103428297D01*
X169643598Y-103428297D01*
X169643598Y-103281947D01*
X169643598Y-103135596D01*
X169936299Y-103135596D01*
X170229001Y-103135596D01*
X170521703Y-103135596D01*
X170521703Y-102989245D01*
X170521703Y-102842894D01*
X170668053Y-102842894D01*
X170814404Y-102842894D01*
X170814404Y-102550192D01*
X170814404Y-102257491D01*
X170668053Y-102257491D01*
X170521703Y-102257491D01*
X170521703Y-102550192D01*
X170521703Y-102842894D01*
X170229001Y-102842894D01*
X169936299Y-102842894D01*
X169936299Y-102989245D01*
X169936299Y-103135596D01*
X169643598Y-103135596D01*
X169204545Y-103135596D01*
X168765493Y-103135596D01*
X168765493Y-102989245D01*
X168765493Y-102842894D01*
X168472791Y-102842894D01*
X168180089Y-102842894D01*
X168180089Y-102989245D01*
X168180089Y-103135596D01*
X168033738Y-103135596D01*
X167887388Y-103135596D01*
X167887388Y-103281947D01*
X167887388Y-103428297D01*
X167741037Y-103428297D01*
X167594686Y-103428297D01*
X167594686Y-103574648D01*
X167594686Y-103720999D01*
X167448335Y-103720999D01*
X167301984Y-103720999D01*
X167301984Y-103867350D01*
X167301984Y-104013701D01*
X167594686Y-104013701D01*
X167887388Y-104013701D01*
X167887388Y-104160052D01*
X167887388Y-104306402D01*
X167301984Y-104306402D01*
X166716581Y-104306402D01*
X166716581Y-104452753D01*
X166716581Y-104599104D01*
X167155633Y-104599104D01*
X167594686Y-104599104D01*
X167594686Y-105038157D01*
X167594686Y-105477209D01*
X167448335Y-105477209D01*
X167301984Y-105477209D01*
X167301984Y-105330858D01*
X167301984Y-105184507D01*
X167155633Y-105184507D01*
X167009283Y-105184507D01*
X167009283Y-105038157D01*
X167009283Y-104891806D01*
X166862932Y-104891806D01*
X166716581Y-104891806D01*
X166716581Y-105038157D01*
X166716581Y-105184507D01*
X166570230Y-105184507D01*
X166423879Y-105184507D01*
X166423879Y-105038157D01*
X166423879Y-104891806D01*
X165838476Y-104891806D01*
X165253073Y-104891806D01*
X165253073Y-105038157D01*
X165253073Y-105184507D01*
X165106722Y-105184507D01*
X164960371Y-105184507D01*
X164960371Y-105038157D01*
X164960371Y-104891806D01*
X164814020Y-104891806D01*
X164667669Y-104891806D01*
X164667669Y-104745455D01*
X164667669Y-104599104D01*
X164960371Y-104599104D01*
X165253073Y-104599104D01*
X165253073Y-104452753D01*
X165253073Y-104306402D01*
X165692125Y-104306402D01*
X166131178Y-104306402D01*
X166131178Y-104452753D01*
X166131178Y-104599104D01*
X166277528Y-104599104D01*
X166423879Y-104599104D01*
X166423879Y-104306402D01*
X166423879Y-104013701D01*
X166277528Y-104013701D01*
X166131178Y-104013701D01*
X166131178Y-103867350D01*
X166131178Y-103720999D01*
X166277528Y-103720999D01*
X166423879Y-103720999D01*
X166423879Y-103867350D01*
X166423879Y-104013701D01*
X166570230Y-104013701D01*
X166716581Y-104013701D01*
X166716581Y-103720999D01*
X166716581Y-103428297D01*
X166862932Y-103428297D01*
X167009283Y-103428297D01*
X167009283Y-103281947D01*
X167009283Y-103135596D01*
X166862932Y-103135596D01*
X166716581Y-103135596D01*
X166716581Y-102989245D01*
X166716581Y-102842894D01*
X166570230Y-102842894D01*
X166423879Y-102842894D01*
X166423879Y-102989245D01*
X166423879Y-103135596D01*
X166277528Y-103135596D01*
X166131178Y-103135596D01*
X166131178Y-102550192D01*
X166131178Y-101964789D01*
X166277528Y-101964789D01*
X166423879Y-101964789D01*
X166423879Y-102257491D01*
X166423879Y-102550192D01*
X166570230Y-102550192D01*
X166716581Y-102550192D01*
X166716581Y-102257491D01*
X166716581Y-101964789D01*
X166862932Y-101964789D01*
X167009283Y-101964789D01*
X167009283Y-101818438D01*
X167009283Y-101672087D01*
X167155633Y-101672087D01*
X167301984Y-101672087D01*
X167301984Y-101964789D01*
X167301984Y-102257491D01*
X167155633Y-102257491D01*
X167009283Y-102257491D01*
X167009283Y-102696543D01*
X167009283Y-103135596D01*
X167301984Y-103135596D01*
X167594686Y-103135596D01*
X167594686Y-102989245D01*
X167594686Y-102842894D01*
X167741037Y-102842894D01*
X167887388Y-102842894D01*
X167887388Y-102550192D01*
X167887388Y-102257491D01*
X167741037Y-102257491D01*
X167594686Y-102257491D01*
X167594686Y-102111140D01*
X167594686Y-101964789D01*
X167741037Y-101964789D01*
X167887388Y-101964789D01*
X167887388Y-101818438D01*
X167887388Y-101672087D01*
X167594686Y-101672087D01*
X167301984Y-101672087D01*
X167301984Y-101525737D01*
X167301984Y-101379386D01*
X167009283Y-101379386D01*
X166716581Y-101379386D01*
X166716581Y-101525737D01*
X166716581Y-101672087D01*
X166277528Y-101672087D01*
X165838476Y-101672087D01*
X165838476Y-101818438D01*
X165838476Y-101964789D01*
X165399423Y-101964789D01*
X164960371Y-101964789D01*
X164960371Y-101672087D01*
X164960371Y-101379386D01*
X165253073Y-101379386D01*
X165545774Y-101379386D01*
X165545774Y-101086684D01*
X165545774Y-100793982D01*
X165399423Y-100793982D01*
X165253073Y-100793982D01*
X165253073Y-100647632D01*
X165253073Y-100501281D01*
X165838476Y-100501281D01*
X166423879Y-100501281D01*
X166423879Y-100647632D01*
X166423879Y-100793982D01*
X166131178Y-100793982D01*
X165838476Y-100793982D01*
X165838476Y-101086684D01*
X165838476Y-101379386D01*
X166131178Y-101379386D01*
X166423879Y-101379386D01*
X166423879Y-101233035D01*
X166423879Y-101086684D01*
X166570230Y-101086684D01*
X166716581Y-101086684D01*
X166716581Y-100793982D01*
X166716581Y-100501281D01*
X166862932Y-100501281D01*
X167009283Y-100501281D01*
X167009283Y-100793982D01*
X167009283Y-101086684D01*
X167155633Y-101086684D01*
X167301984Y-101086684D01*
X167301984Y-100940333D01*
X167301984Y-100793982D01*
X167448335Y-100793982D01*
X167594686Y-100793982D01*
X167594686Y-100940333D01*
X167594686Y-101086684D01*
X167741037Y-101086684D01*
X167887388Y-101086684D01*
X167887388Y-100940333D01*
X167887388Y-100793982D01*
X167741037Y-100793982D01*
X167594686Y-100793982D01*
X167594686Y-100647632D01*
X167594686Y-100501281D01*
X168033738Y-100501281D01*
X168472791Y-100501281D01*
X168472791Y-100647632D01*
X168472791Y-100793982D01*
X168765493Y-100793982D01*
X169058194Y-100793982D01*
X169058194Y-100940333D01*
X169058194Y-101086684D01*
X169204545Y-101086684D01*
X169350896Y-101086684D01*
X169350896Y-100940333D01*
X169350896Y-100793982D01*
X169204545Y-100793982D01*
X169058194Y-100793982D01*
X169058194Y-100647632D01*
X169058194Y-100501281D01*
X169497247Y-100501281D01*
X169936299Y-100501281D01*
X169936299Y-100647632D01*
X169936299Y-100793982D01*
X169789948Y-100793982D01*
X169643598Y-100793982D01*
X169643598Y-101086684D01*
X169643598Y-101379386D01*
X169497247Y-101379386D01*
X169350896Y-101379386D01*
X169350896Y-101672087D01*
X169350896Y-101964789D01*
X169058194Y-101964789D01*
X168765493Y-101964789D01*
X168765493Y-101818438D01*
X168765493Y-101672087D01*
X168619142Y-101672087D01*
X168472791Y-101672087D01*
X168472791Y-101525737D01*
X168472791Y-101379386D01*
X168619142Y-101379386D01*
X168765493Y-101379386D01*
X168765493Y-101233035D01*
X168765493Y-101086684D01*
X168619142Y-101086684D01*
X168472791Y-101086684D01*
X168472791Y-101233035D01*
X168472791Y-101379386D01*
X168326440Y-101379386D01*
X168180089Y-101379386D01*
X168180089Y-101233035D01*
X168180089Y-101086684D01*
X168033738Y-101086684D01*
X167887388Y-101086684D01*
X167887388Y-101233035D01*
X167887388Y-101379386D01*
X168033738Y-101379386D01*
X168180089Y-101379386D01*
X168180089Y-101964789D01*
X168180089Y-102550192D01*
X168326440Y-102550192D01*
X168472791Y-102550192D01*
X168472791Y-102403842D01*
X168472791Y-102257491D01*
X168619142Y-102257491D01*
X168765493Y-102257491D01*
X168765493Y-102550192D01*
X168765493Y-102842894D01*
X168911843Y-102842894D01*
X169058194Y-102842894D01*
X169058194Y-102550192D01*
X169058194Y-102257491D01*
X169204545Y-102257491D01*
X169350896Y-102257491D01*
X169350896Y-102550192D01*
X169350896Y-102842894D01*
X169497247Y-102842894D01*
X169643598Y-102842894D01*
X169643598Y-102550192D01*
X169936299Y-102550192D01*
X170082650Y-102550192D01*
X170229001Y-102550192D01*
X170229001Y-102403842D01*
X170229001Y-102257491D01*
X170082650Y-102257491D01*
X169936299Y-102257491D01*
X169936299Y-102403842D01*
X169936299Y-102550192D01*
X169643598Y-102550192D01*
X169643598Y-102257491D01*
X169497247Y-102257491D01*
X169350896Y-102257491D01*
X169350896Y-102111140D01*
X169350896Y-101964789D01*
X169497247Y-101964789D01*
X169643598Y-101964789D01*
X169643598Y-101672087D01*
X169643598Y-101379386D01*
X169789948Y-101379386D01*
X169936299Y-101379386D01*
X169936299Y-101525737D01*
X169936299Y-101672087D01*
X170375352Y-101672087D01*
X170814404Y-101672087D01*
X170814404Y-101525737D01*
X170814404Y-101379386D01*
X170960755Y-101379386D01*
X171107106Y-101379386D01*
X171107106Y-102111140D01*
X171107106Y-102257491D01*
X171107106Y-102842894D01*
G37*
G36*
X173156018Y-105184507D02*
G01*
X173448719Y-105184507D01*
X173448719Y-105769911D01*
X173448719Y-106355314D01*
X173302368Y-106355314D01*
X173156018Y-106355314D01*
X173156018Y-106501665D01*
X173156018Y-106648016D01*
X173009667Y-106648016D01*
X172863316Y-106648016D01*
X172863316Y-106794367D01*
X172863316Y-106940717D01*
X173009667Y-106940717D01*
X173156018Y-106940717D01*
X173156018Y-106794367D01*
X173156018Y-106648016D01*
X173302368Y-106648016D01*
X173448719Y-106648016D01*
X173448719Y-106794367D01*
X173448719Y-106940717D01*
X173302368Y-106940717D01*
X173156018Y-106940717D01*
X173156018Y-107087068D01*
X173156018Y-107233419D01*
X172863316Y-107233419D01*
X172570614Y-107233419D01*
X172570614Y-107379770D01*
X172570614Y-107526121D01*
X172424263Y-107526121D01*
X172277913Y-107526121D01*
X172277913Y-107379770D01*
X172277913Y-107233419D01*
X172131562Y-107233419D01*
X171985211Y-107233419D01*
X171985211Y-107379770D01*
X171985211Y-107526121D01*
X171838860Y-107526121D01*
X171692509Y-107526121D01*
X171692509Y-107379770D01*
X171692509Y-107233419D01*
X171546158Y-107233419D01*
X171399808Y-107233419D01*
X171399808Y-107379770D01*
X171399808Y-107526121D01*
X171546158Y-107526121D01*
X171692509Y-107526121D01*
X171692509Y-107672472D01*
X171692509Y-107818822D01*
X171399808Y-107818822D01*
X171107106Y-107818822D01*
X171107106Y-107672472D01*
X171107106Y-107526121D01*
X170960755Y-107526121D01*
X170814404Y-107526121D01*
X170814404Y-107672472D01*
X170814404Y-107818822D01*
X170668053Y-107818822D01*
X170521703Y-107818822D01*
X170521703Y-107965173D01*
X170521703Y-108111524D01*
X170375352Y-108111524D01*
X170229001Y-108111524D01*
X170229001Y-107672472D01*
X170229001Y-107233419D01*
X170375352Y-107233419D01*
X170521703Y-107233419D01*
X170521703Y-107087068D01*
X170521703Y-106940717D01*
X170668053Y-106940717D01*
X170814404Y-106940717D01*
X170814404Y-107087068D01*
X170814404Y-107233419D01*
X170960755Y-107233419D01*
X171107106Y-107233419D01*
X171107106Y-107087068D01*
X171107106Y-106940717D01*
X171546158Y-106940717D01*
X171985211Y-106940717D01*
X171985211Y-106794367D01*
X171985211Y-106648016D01*
X171546158Y-106648016D01*
X171107106Y-106648016D01*
X171107106Y-106501665D01*
X171107106Y-106355314D01*
X171692509Y-106355314D01*
X172277913Y-106355314D01*
X172277913Y-106208963D01*
X172277913Y-106062612D01*
X172570614Y-106062612D01*
X172863316Y-106062612D01*
X172863316Y-106208963D01*
X172863316Y-106355314D01*
X173009667Y-106355314D01*
X173156018Y-106355314D01*
X173156018Y-106062612D01*
X173156018Y-105769911D01*
X173009667Y-105769911D01*
X172863316Y-105769911D01*
X172863316Y-105477209D01*
X172863316Y-105184507D01*
X173156018Y-105184507D01*
G37*
G36*
X172716965Y-107526121D02*
G01*
X172863316Y-107526121D01*
X172863316Y-107965173D01*
X172863316Y-108404226D01*
X172424263Y-108404226D01*
X171985211Y-108404226D01*
X171985211Y-108550577D01*
X171985211Y-108696927D01*
X171838860Y-108696927D01*
X171692509Y-108696927D01*
X171692509Y-108843278D01*
X171692509Y-108989629D01*
X171399808Y-108989629D01*
X171107106Y-108989629D01*
X171107106Y-108843278D01*
X171107106Y-108696927D01*
X170814404Y-108696927D01*
X170521703Y-108696927D01*
X170521703Y-108550577D01*
X170521703Y-108404226D01*
X170814404Y-108404226D01*
X171107106Y-108404226D01*
X171107106Y-108257875D01*
X171107106Y-108111524D01*
X171399808Y-108111524D01*
X171692509Y-108111524D01*
X171692509Y-108257875D01*
X171692509Y-108404226D01*
X171546158Y-108404226D01*
X171399808Y-108404226D01*
X171399808Y-108550577D01*
X171399808Y-108696927D01*
X171546158Y-108696927D01*
X171692509Y-108696927D01*
X171692509Y-108550577D01*
X171692509Y-108404226D01*
X171838860Y-108404226D01*
X171985211Y-108404226D01*
X171985211Y-108257875D01*
X171985211Y-108111524D01*
X172277913Y-108111524D01*
X172570614Y-108111524D01*
X172570614Y-107818822D01*
X172570614Y-107526121D01*
X172716965Y-107526121D01*
G37*
G36*
X172131562Y-108696927D02*
G01*
X172277913Y-108696927D01*
X172277913Y-108843278D01*
X172277913Y-108989629D01*
X172131562Y-108989629D01*
X171985211Y-108989629D01*
X171985211Y-108843278D01*
X171985211Y-108696927D01*
X172131562Y-108696927D01*
G37*
G36*
X173302368Y-107233419D02*
G01*
X173448719Y-107233419D01*
X173448719Y-107672472D01*
X173448719Y-108111524D01*
X173302368Y-108111524D01*
X173156018Y-108111524D01*
X173156018Y-107672472D01*
X173156018Y-107233419D01*
X173302368Y-107233419D01*
G37*
G36*
X171985211Y-104306402D02*
G01*
X172277913Y-104306402D01*
X172277913Y-104452753D01*
X172277913Y-104599104D01*
X172863316Y-104599104D01*
X173448719Y-104599104D01*
X173448719Y-104745455D01*
X173448719Y-104891806D01*
X173156018Y-104891806D01*
X172863316Y-104891806D01*
X172863316Y-105038157D01*
X172863316Y-105184507D01*
X172716965Y-105184507D01*
X172570614Y-105184507D01*
X172570614Y-105038157D01*
X172570614Y-104891806D01*
X171838860Y-104891806D01*
X171107106Y-104891806D01*
X171107106Y-104745455D01*
X171107106Y-104599104D01*
X171399808Y-104599104D01*
X171692509Y-104599104D01*
X171692509Y-104452753D01*
X171692509Y-104306402D01*
X171985211Y-104306402D01*
G37*
G36*
X164960371Y-102989245D02*
G01*
X164960371Y-103135596D01*
X165106722Y-103135596D01*
X165253073Y-103135596D01*
X165253073Y-102989245D01*
X165253073Y-102842894D01*
X165399423Y-102842894D01*
X165545774Y-102842894D01*
X165545774Y-103135596D01*
X165545774Y-103428297D01*
X165838476Y-103428297D01*
X166131178Y-103428297D01*
X166131178Y-103574648D01*
X166131178Y-103720999D01*
X165984827Y-103720999D01*
X165838476Y-103720999D01*
X165838476Y-103867350D01*
X165838476Y-104013701D01*
X165399423Y-104013701D01*
X164960371Y-104013701D01*
X164960371Y-103867350D01*
X164960371Y-103720999D01*
X165106722Y-103720999D01*
X165253073Y-103720999D01*
X165253073Y-103574648D01*
X165253073Y-103428297D01*
X164960371Y-103428297D01*
X164667669Y-103428297D01*
X164667669Y-103281947D01*
X164667669Y-103135596D01*
X164374968Y-103135596D01*
X164082266Y-103135596D01*
X164082266Y-103281947D01*
X164082266Y-103428297D01*
X163935915Y-103428297D01*
X163789564Y-103428297D01*
X163789564Y-103281947D01*
X163789564Y-103135596D01*
X163643213Y-103135596D01*
X163496863Y-103135596D01*
X163496863Y-102989245D01*
X163496863Y-102842894D01*
X164228617Y-102842894D01*
X164960371Y-102842894D01*
X164960371Y-102989245D01*
G37*
G36*
X170229001Y-100793982D02*
G01*
X170521703Y-100793982D01*
X170521703Y-101086684D01*
X170521703Y-101379386D01*
X170375352Y-101379386D01*
X170229001Y-101379386D01*
X170229001Y-101233035D01*
X170229001Y-101086684D01*
X170082650Y-101086684D01*
X169936299Y-101086684D01*
X169936299Y-100940333D01*
X169936299Y-100793982D01*
X170229001Y-100793982D01*
G37*
%TD*%
M02*
