%TF.GenerationSoftware,KiCad,Pcbnew,7.0.2-0*%
%TF.CreationDate,2023-11-21T12:49:43-05:00*%
%TF.ProjectId,WiringHarness,57697269-6e67-4486-9172-6e6573732e6b,rev?*%
%TF.SameCoordinates,Original*%
%TF.FileFunction,Legend,Top*%
%TF.FilePolarity,Positive*%
%FSLAX46Y46*%
G04 Gerber Fmt 4.6, Leading zero omitted, Abs format (unit mm)*
G04 Created by KiCad (PCBNEW 7.0.2-0) date 2023-11-21 12:49:43*
%MOMM*%
%LPD*%
G01*
G04 APERTURE LIST*
%ADD10C,0.150000*%
%ADD11C,0.090000*%
%ADD12C,0.120000*%
%ADD13C,0.127000*%
%ADD14C,0.240000*%
%ADD15C,0.200000*%
G04 APERTURE END LIST*
D10*
X148864285Y-82903142D02*
X149264285Y-84103142D01*
X149264285Y-84103142D02*
X149664285Y-82903142D01*
X152521428Y-82960285D02*
X152407143Y-82903142D01*
X152407143Y-82903142D02*
X152235714Y-82903142D01*
X152235714Y-82903142D02*
X152064285Y-82960285D01*
X152064285Y-82960285D02*
X151950000Y-83074571D01*
X151950000Y-83074571D02*
X151892857Y-83188857D01*
X151892857Y-83188857D02*
X151835714Y-83417428D01*
X151835714Y-83417428D02*
X151835714Y-83588857D01*
X151835714Y-83588857D02*
X151892857Y-83817428D01*
X151892857Y-83817428D02*
X151950000Y-83931714D01*
X151950000Y-83931714D02*
X152064285Y-84046000D01*
X152064285Y-84046000D02*
X152235714Y-84103142D01*
X152235714Y-84103142D02*
X152350000Y-84103142D01*
X152350000Y-84103142D02*
X152521428Y-84046000D01*
X152521428Y-84046000D02*
X152578571Y-83988857D01*
X152578571Y-83988857D02*
X152578571Y-83588857D01*
X152578571Y-83588857D02*
X152350000Y-83588857D01*
X154921429Y-84103142D02*
X154921429Y-82903142D01*
X154921429Y-82903142D02*
X155207143Y-82903142D01*
X155207143Y-82903142D02*
X155378572Y-82960285D01*
X155378572Y-82960285D02*
X155492857Y-83074571D01*
X155492857Y-83074571D02*
X155550000Y-83188857D01*
X155550000Y-83188857D02*
X155607143Y-83417428D01*
X155607143Y-83417428D02*
X155607143Y-83588857D01*
X155607143Y-83588857D02*
X155550000Y-83817428D01*
X155550000Y-83817428D02*
X155492857Y-83931714D01*
X155492857Y-83931714D02*
X155378572Y-84046000D01*
X155378572Y-84046000D02*
X155207143Y-84103142D01*
X155207143Y-84103142D02*
X154921429Y-84103142D01*
X158635715Y-83988857D02*
X158578572Y-84046000D01*
X158578572Y-84046000D02*
X158407144Y-84103142D01*
X158407144Y-84103142D02*
X158292858Y-84103142D01*
X158292858Y-84103142D02*
X158121429Y-84046000D01*
X158121429Y-84046000D02*
X158007144Y-83931714D01*
X158007144Y-83931714D02*
X157950001Y-83817428D01*
X157950001Y-83817428D02*
X157892858Y-83588857D01*
X157892858Y-83588857D02*
X157892858Y-83417428D01*
X157892858Y-83417428D02*
X157950001Y-83188857D01*
X157950001Y-83188857D02*
X158007144Y-83074571D01*
X158007144Y-83074571D02*
X158121429Y-82960285D01*
X158121429Y-82960285D02*
X158292858Y-82903142D01*
X158292858Y-82903142D02*
X158407144Y-82903142D01*
X158407144Y-82903142D02*
X158578572Y-82960285D01*
X158578572Y-82960285D02*
X158635715Y-83017428D01*
X173561904Y-102675238D02*
X173466666Y-102627619D01*
X173466666Y-102627619D02*
X173323809Y-102627619D01*
X173323809Y-102627619D02*
X173180952Y-102675238D01*
X173180952Y-102675238D02*
X173085714Y-102770476D01*
X173085714Y-102770476D02*
X173038095Y-102865714D01*
X173038095Y-102865714D02*
X172990476Y-103056190D01*
X172990476Y-103056190D02*
X172990476Y-103199047D01*
X172990476Y-103199047D02*
X173038095Y-103389523D01*
X173038095Y-103389523D02*
X173085714Y-103484761D01*
X173085714Y-103484761D02*
X173180952Y-103580000D01*
X173180952Y-103580000D02*
X173323809Y-103627619D01*
X173323809Y-103627619D02*
X173419047Y-103627619D01*
X173419047Y-103627619D02*
X173561904Y-103580000D01*
X173561904Y-103580000D02*
X173609523Y-103532380D01*
X173609523Y-103532380D02*
X173609523Y-103199047D01*
X173609523Y-103199047D02*
X173419047Y-103199047D01*
X172942857Y-87627619D02*
X173609523Y-88627619D01*
X173609523Y-87627619D02*
X172942857Y-88627619D01*
G36*
X138169983Y-83767266D02*
G01*
X138180480Y-83767588D01*
X138190841Y-83768123D01*
X138201066Y-83768873D01*
X138211156Y-83769837D01*
X138221109Y-83771015D01*
X138230926Y-83772407D01*
X138240607Y-83774013D01*
X138259562Y-83777869D01*
X138277972Y-83782581D01*
X138295839Y-83788150D01*
X138313162Y-83794576D01*
X138329942Y-83801858D01*
X138346177Y-83809997D01*
X138361869Y-83818993D01*
X138377017Y-83828846D01*
X138391621Y-83839555D01*
X138405681Y-83851122D01*
X138419197Y-83863545D01*
X138432170Y-83876824D01*
X138444474Y-83890832D01*
X138455983Y-83905439D01*
X138466700Y-83920645D01*
X138476622Y-83936450D01*
X138485751Y-83952854D01*
X138494085Y-83969858D01*
X138501626Y-83987461D01*
X138508374Y-84005662D01*
X138511449Y-84014988D01*
X138514327Y-84024463D01*
X138517006Y-84034089D01*
X138519487Y-84043864D01*
X138521769Y-84053788D01*
X138523852Y-84063863D01*
X138525738Y-84074087D01*
X138527424Y-84084461D01*
X138528913Y-84094985D01*
X138530203Y-84105659D01*
X138531294Y-84116482D01*
X138532187Y-84127456D01*
X138532882Y-84138579D01*
X138533378Y-84149852D01*
X138533676Y-84161274D01*
X138533775Y-84172847D01*
X138533660Y-84184153D01*
X138533317Y-84195359D01*
X138532744Y-84206463D01*
X138531943Y-84217467D01*
X138530913Y-84228369D01*
X138529653Y-84239170D01*
X138528165Y-84249870D01*
X138526448Y-84260469D01*
X138524501Y-84270966D01*
X138522326Y-84281363D01*
X138519922Y-84291658D01*
X138517288Y-84301853D01*
X138514426Y-84311946D01*
X138511335Y-84321938D01*
X138508015Y-84331829D01*
X138504466Y-84341618D01*
X138500729Y-84351282D01*
X138496783Y-84360795D01*
X138492630Y-84370158D01*
X138488269Y-84379369D01*
X138483700Y-84388430D01*
X138478923Y-84397340D01*
X138473938Y-84406100D01*
X138468745Y-84414708D01*
X138463344Y-84423166D01*
X138457735Y-84431473D01*
X138451918Y-84439630D01*
X138445893Y-84447635D01*
X138439660Y-84455490D01*
X138433219Y-84463194D01*
X138426570Y-84470748D01*
X138419713Y-84478150D01*
X138409855Y-84487880D01*
X138399606Y-84497104D01*
X138388967Y-84505821D01*
X138377936Y-84514031D01*
X138366515Y-84521735D01*
X138354704Y-84528932D01*
X138342501Y-84535622D01*
X138329908Y-84541806D01*
X138316925Y-84547483D01*
X138303550Y-84552654D01*
X138294417Y-84555819D01*
X138285031Y-84558748D01*
X138275312Y-84561487D01*
X138265262Y-84564037D01*
X138254880Y-84566398D01*
X138244166Y-84568571D01*
X138233119Y-84570554D01*
X138221741Y-84572349D01*
X138210031Y-84573954D01*
X138197989Y-84575371D01*
X138185614Y-84576599D01*
X138172908Y-84577638D01*
X138159870Y-84578488D01*
X138146499Y-84579149D01*
X138132797Y-84579622D01*
X138118762Y-84579905D01*
X138104396Y-84580000D01*
X138093987Y-84580000D01*
X138082981Y-84580000D01*
X138073163Y-84580000D01*
X138062006Y-84580000D01*
X138057990Y-84580000D01*
X138048196Y-84580000D01*
X138037388Y-84580000D01*
X138027611Y-84580000D01*
X138017506Y-84580000D01*
X138007676Y-84580000D01*
X137899232Y-84580000D01*
X137868213Y-84580000D01*
X137857708Y-84579427D01*
X137847190Y-84577370D01*
X137837255Y-84573268D01*
X137830111Y-84568032D01*
X137823972Y-84560353D01*
X137819842Y-84550781D01*
X137817857Y-84540683D01*
X137817411Y-84532128D01*
X137818112Y-84521561D01*
X137820631Y-84511345D01*
X137825654Y-84502223D01*
X137832065Y-84496224D01*
X137841148Y-84491843D01*
X137851775Y-84489036D01*
X137862875Y-84487394D01*
X137873528Y-84486562D01*
X137885458Y-84486220D01*
X137887997Y-84486210D01*
X137900453Y-84486210D01*
X137900453Y-83860949D01*
X138007676Y-83860949D01*
X138007676Y-84486210D01*
X138018636Y-84487233D01*
X138029535Y-84488103D01*
X138040374Y-84488821D01*
X138051151Y-84489385D01*
X138061943Y-84489813D01*
X138072583Y-84490118D01*
X138083070Y-84490301D01*
X138093405Y-84490362D01*
X138103880Y-84490288D01*
X138114179Y-84490066D01*
X138124301Y-84489695D01*
X138134247Y-84489176D01*
X138144016Y-84488508D01*
X138163025Y-84486728D01*
X138181328Y-84484354D01*
X138198925Y-84481387D01*
X138215816Y-84477826D01*
X138232001Y-84473672D01*
X138247480Y-84468925D01*
X138262253Y-84463584D01*
X138276319Y-84457649D01*
X138289680Y-84451122D01*
X138302335Y-84444000D01*
X138314284Y-84436286D01*
X138325527Y-84427978D01*
X138336064Y-84419076D01*
X138341067Y-84414403D01*
X138350591Y-84404566D01*
X138359500Y-84394047D01*
X138367795Y-84382844D01*
X138375475Y-84370958D01*
X138382541Y-84358389D01*
X138388992Y-84345137D01*
X138394829Y-84331202D01*
X138400052Y-84316584D01*
X138404660Y-84301282D01*
X138408654Y-84285298D01*
X138412033Y-84268630D01*
X138414798Y-84251279D01*
X138416948Y-84233245D01*
X138418485Y-84214528D01*
X138419406Y-84195128D01*
X138419637Y-84185172D01*
X138419713Y-84175045D01*
X138419636Y-84164859D01*
X138419404Y-84154848D01*
X138419018Y-84145012D01*
X138417781Y-84125866D01*
X138415927Y-84107420D01*
X138413454Y-84089674D01*
X138410363Y-84072629D01*
X138406653Y-84056283D01*
X138402325Y-84040639D01*
X138397379Y-84025694D01*
X138391815Y-84011450D01*
X138385633Y-83997906D01*
X138378832Y-83985062D01*
X138371413Y-83972918D01*
X138363376Y-83961475D01*
X138354721Y-83950732D01*
X138345447Y-83940690D01*
X138340579Y-83935931D01*
X138330347Y-83926851D01*
X138319375Y-83918357D01*
X138307663Y-83910449D01*
X138295211Y-83903126D01*
X138282018Y-83896390D01*
X138268084Y-83890239D01*
X138253411Y-83884674D01*
X138237997Y-83879694D01*
X138221842Y-83875301D01*
X138204948Y-83871493D01*
X138187313Y-83868271D01*
X138168937Y-83865635D01*
X138149821Y-83863585D01*
X138139986Y-83862779D01*
X138129965Y-83862120D01*
X138119759Y-83861608D01*
X138109369Y-83861241D01*
X138098793Y-83861022D01*
X138088032Y-83860949D01*
X138076483Y-83860949D01*
X138066015Y-83860949D01*
X138055171Y-83860949D01*
X138044581Y-83860949D01*
X138038939Y-83860949D01*
X138028644Y-83860949D01*
X138018827Y-83860949D01*
X138008579Y-83860949D01*
X138007676Y-83860949D01*
X137900453Y-83860949D01*
X137889462Y-83860949D01*
X137879547Y-83860788D01*
X137868292Y-83860137D01*
X137858300Y-83858985D01*
X137847979Y-83856941D01*
X137838238Y-83853646D01*
X137832798Y-83850690D01*
X137825360Y-83843546D01*
X137820356Y-83833929D01*
X137817951Y-83823305D01*
X137817411Y-83814054D01*
X137818018Y-83804095D01*
X137820201Y-83794229D01*
X137824555Y-83785065D01*
X137830111Y-83778639D01*
X137838376Y-83773090D01*
X137847604Y-83769682D01*
X137858602Y-83767709D01*
X137869678Y-83767159D01*
X137899232Y-83767159D01*
X138007676Y-83767159D01*
X138159351Y-83767159D01*
X138169983Y-83767266D01*
G37*
G36*
X138847871Y-83847759D02*
G01*
X138838009Y-83849367D01*
X138834438Y-83849958D01*
X138826622Y-83850446D01*
X138816486Y-83849698D01*
X138806251Y-83847068D01*
X138797252Y-83842545D01*
X138791939Y-83838478D01*
X138785446Y-83831128D01*
X138780723Y-83821511D01*
X138778716Y-83811550D01*
X138778506Y-83806727D01*
X138779651Y-83796904D01*
X138783555Y-83787037D01*
X138789509Y-83778918D01*
X138790230Y-83778150D01*
X138797636Y-83771627D01*
X138806665Y-83766069D01*
X138816053Y-83761940D01*
X138823935Y-83759344D01*
X139027878Y-83704633D01*
X139035327Y-83697794D01*
X139042533Y-83692909D01*
X139051787Y-83689551D01*
X139057431Y-83689002D01*
X139067062Y-83691017D01*
X139074920Y-83697064D01*
X139077948Y-83701214D01*
X139082259Y-83710620D01*
X139084625Y-83720924D01*
X139085490Y-83731625D01*
X139085519Y-83734187D01*
X139085519Y-84486210D01*
X139195429Y-84486210D01*
X139206485Y-84486296D01*
X139216755Y-84486554D01*
X139229227Y-84487164D01*
X139240302Y-84488080D01*
X139252181Y-84489654D01*
X139261878Y-84491706D01*
X139271787Y-84495379D01*
X139272854Y-84495980D01*
X139280882Y-84502690D01*
X139286283Y-84512106D01*
X139288878Y-84522746D01*
X139289462Y-84532128D01*
X139288808Y-84542027D01*
X139286457Y-84551938D01*
X139281769Y-84561300D01*
X139275785Y-84568032D01*
X139266990Y-84573817D01*
X139257323Y-84577370D01*
X139247437Y-84579252D01*
X139236219Y-84579988D01*
X139234508Y-84580000D01*
X138823691Y-84580000D01*
X138813905Y-84579579D01*
X138803682Y-84578024D01*
X138793573Y-84574845D01*
X138784207Y-84569481D01*
X138782414Y-84568032D01*
X138775802Y-84560353D01*
X138771354Y-84550781D01*
X138769217Y-84540683D01*
X138768736Y-84532128D01*
X138769519Y-84521299D01*
X138772332Y-84510926D01*
X138777941Y-84501811D01*
X138785101Y-84495980D01*
X138794494Y-84492173D01*
X138805931Y-84489654D01*
X138817850Y-84488080D01*
X138828948Y-84487164D01*
X138841435Y-84486554D01*
X138851712Y-84486296D01*
X138862770Y-84486210D01*
X138976831Y-84486210D01*
X138976831Y-83816985D01*
X138847871Y-83847759D01*
G37*
X172895238Y-100127619D02*
X173228571Y-101127619D01*
X173228571Y-101127619D02*
X173561904Y-100127619D01*
D11*
X128214285Y-94639857D02*
X128214285Y-93739857D01*
X128642856Y-94039857D02*
X128642856Y-94639857D01*
X128642856Y-94125571D02*
X128685713Y-94082714D01*
X128685713Y-94082714D02*
X128771428Y-94039857D01*
X128771428Y-94039857D02*
X128899999Y-94039857D01*
X128899999Y-94039857D02*
X128985713Y-94082714D01*
X128985713Y-94082714D02*
X129028571Y-94168428D01*
X129028571Y-94168428D02*
X129028571Y-94639857D01*
X129457142Y-94039857D02*
X129457142Y-94939857D01*
X129457142Y-94082714D02*
X129542857Y-94039857D01*
X129542857Y-94039857D02*
X129714285Y-94039857D01*
X129714285Y-94039857D02*
X129799999Y-94082714D01*
X129799999Y-94082714D02*
X129842857Y-94125571D01*
X129842857Y-94125571D02*
X129885714Y-94211285D01*
X129885714Y-94211285D02*
X129885714Y-94468428D01*
X129885714Y-94468428D02*
X129842857Y-94554142D01*
X129842857Y-94554142D02*
X129799999Y-94597000D01*
X129799999Y-94597000D02*
X129714285Y-94639857D01*
X129714285Y-94639857D02*
X129542857Y-94639857D01*
X129542857Y-94639857D02*
X129457142Y-94597000D01*
X130657143Y-94039857D02*
X130657143Y-94639857D01*
X130271428Y-94039857D02*
X130271428Y-94511285D01*
X130271428Y-94511285D02*
X130314285Y-94597000D01*
X130314285Y-94597000D02*
X130400000Y-94639857D01*
X130400000Y-94639857D02*
X130528571Y-94639857D01*
X130528571Y-94639857D02*
X130614285Y-94597000D01*
X130614285Y-94597000D02*
X130657143Y-94554142D01*
X130957143Y-94039857D02*
X131300000Y-94039857D01*
X131085714Y-93739857D02*
X131085714Y-94511285D01*
X131085714Y-94511285D02*
X131128571Y-94597000D01*
X131128571Y-94597000D02*
X131214286Y-94639857D01*
X131214286Y-94639857D02*
X131300000Y-94639857D01*
X132328571Y-94639857D02*
X132500000Y-94639857D01*
X132500000Y-94639857D02*
X132585714Y-94597000D01*
X132585714Y-94597000D02*
X132628571Y-94554142D01*
X132628571Y-94554142D02*
X132714286Y-94425571D01*
X132714286Y-94425571D02*
X132757143Y-94254142D01*
X132757143Y-94254142D02*
X132757143Y-93911285D01*
X132757143Y-93911285D02*
X132714286Y-93825571D01*
X132714286Y-93825571D02*
X132671429Y-93782714D01*
X132671429Y-93782714D02*
X132585714Y-93739857D01*
X132585714Y-93739857D02*
X132414286Y-93739857D01*
X132414286Y-93739857D02*
X132328571Y-93782714D01*
X132328571Y-93782714D02*
X132285714Y-93825571D01*
X132285714Y-93825571D02*
X132242857Y-93911285D01*
X132242857Y-93911285D02*
X132242857Y-94125571D01*
X132242857Y-94125571D02*
X132285714Y-94211285D01*
X132285714Y-94211285D02*
X132328571Y-94254142D01*
X132328571Y-94254142D02*
X132414286Y-94297000D01*
X132414286Y-94297000D02*
X132585714Y-94297000D01*
X132585714Y-94297000D02*
X132671429Y-94254142D01*
X132671429Y-94254142D02*
X132714286Y-94211285D01*
X132714286Y-94211285D02*
X132757143Y-94125571D01*
X133828571Y-94297000D02*
X134514286Y-94297000D01*
X135585714Y-93825571D02*
X135628571Y-93782714D01*
X135628571Y-93782714D02*
X135714286Y-93739857D01*
X135714286Y-93739857D02*
X135928571Y-93739857D01*
X135928571Y-93739857D02*
X136014286Y-93782714D01*
X136014286Y-93782714D02*
X136057143Y-93825571D01*
X136057143Y-93825571D02*
X136100000Y-93911285D01*
X136100000Y-93911285D02*
X136100000Y-93997000D01*
X136100000Y-93997000D02*
X136057143Y-94125571D01*
X136057143Y-94125571D02*
X135542857Y-94639857D01*
X135542857Y-94639857D02*
X136100000Y-94639857D01*
X136657143Y-93739857D02*
X136742857Y-93739857D01*
X136742857Y-93739857D02*
X136828571Y-93782714D01*
X136828571Y-93782714D02*
X136871429Y-93825571D01*
X136871429Y-93825571D02*
X136914286Y-93911285D01*
X136914286Y-93911285D02*
X136957143Y-94082714D01*
X136957143Y-94082714D02*
X136957143Y-94297000D01*
X136957143Y-94297000D02*
X136914286Y-94468428D01*
X136914286Y-94468428D02*
X136871429Y-94554142D01*
X136871429Y-94554142D02*
X136828571Y-94597000D01*
X136828571Y-94597000D02*
X136742857Y-94639857D01*
X136742857Y-94639857D02*
X136657143Y-94639857D01*
X136657143Y-94639857D02*
X136571429Y-94597000D01*
X136571429Y-94597000D02*
X136528571Y-94554142D01*
X136528571Y-94554142D02*
X136485714Y-94468428D01*
X136485714Y-94468428D02*
X136442857Y-94297000D01*
X136442857Y-94297000D02*
X136442857Y-94082714D01*
X136442857Y-94082714D02*
X136485714Y-93911285D01*
X136485714Y-93911285D02*
X136528571Y-93825571D01*
X136528571Y-93825571D02*
X136571429Y-93782714D01*
X136571429Y-93782714D02*
X136657143Y-93739857D01*
X137214286Y-93739857D02*
X137514286Y-94639857D01*
X137514286Y-94639857D02*
X137814286Y-93739857D01*
D10*
X173561904Y-92675238D02*
X173466666Y-92627619D01*
X173466666Y-92627619D02*
X173323809Y-92627619D01*
X173323809Y-92627619D02*
X173180952Y-92675238D01*
X173180952Y-92675238D02*
X173085714Y-92770476D01*
X173085714Y-92770476D02*
X173038095Y-92865714D01*
X173038095Y-92865714D02*
X172990476Y-93056190D01*
X172990476Y-93056190D02*
X172990476Y-93199047D01*
X172990476Y-93199047D02*
X173038095Y-93389523D01*
X173038095Y-93389523D02*
X173085714Y-93484761D01*
X173085714Y-93484761D02*
X173180952Y-93580000D01*
X173180952Y-93580000D02*
X173323809Y-93627619D01*
X173323809Y-93627619D02*
X173419047Y-93627619D01*
X173419047Y-93627619D02*
X173561904Y-93580000D01*
X173561904Y-93580000D02*
X173609523Y-93532380D01*
X173609523Y-93532380D02*
X173609523Y-93199047D01*
X173609523Y-93199047D02*
X173419047Y-93199047D01*
X173228571Y-98151428D02*
X173228571Y-98627619D01*
X172895238Y-97627619D02*
X173228571Y-98151428D01*
X173228571Y-98151428D02*
X173561904Y-97627619D01*
G36*
X141831577Y-83860949D02*
G01*
X141822784Y-83860949D01*
X141812511Y-83860686D01*
X141801474Y-83859679D01*
X141791846Y-83857916D01*
X141782392Y-83854904D01*
X141773935Y-83850202D01*
X141766969Y-83842998D01*
X141762283Y-83833475D01*
X141760032Y-83823064D01*
X141759525Y-83814054D01*
X141760288Y-83803368D01*
X141762972Y-83792953D01*
X141767587Y-83784237D01*
X141771737Y-83779371D01*
X141779613Y-83773468D01*
X141789228Y-83769497D01*
X141799234Y-83767589D01*
X141807641Y-83767159D01*
X142015980Y-83767159D01*
X142028000Y-83767416D01*
X142038720Y-83768185D01*
X142049869Y-83769785D01*
X142060509Y-83772585D01*
X142069550Y-83777016D01*
X142070446Y-83777662D01*
X142077294Y-83784688D01*
X142081901Y-83794225D01*
X142084114Y-83804812D01*
X142084612Y-83814054D01*
X142083888Y-83824025D01*
X142081285Y-83833932D01*
X142076094Y-83843180D01*
X142069469Y-83849713D01*
X142060783Y-83854629D01*
X142051355Y-83857778D01*
X142040220Y-83859851D01*
X142029318Y-83860773D01*
X142021353Y-83860949D01*
X141945882Y-83860949D01*
X142179378Y-84469846D01*
X142406769Y-83860949D01*
X142315422Y-83860949D01*
X142303916Y-83860554D01*
X142293577Y-83859369D01*
X142282992Y-83856988D01*
X142272840Y-83852950D01*
X142267550Y-83849713D01*
X142260112Y-83842252D01*
X142255108Y-83832780D01*
X142252704Y-83822675D01*
X142252163Y-83814054D01*
X142252852Y-83803380D01*
X142255329Y-83793042D01*
X142260269Y-83783783D01*
X142266573Y-83777662D01*
X142275366Y-83773067D01*
X142285664Y-83770123D01*
X142296426Y-83768400D01*
X142306759Y-83767529D01*
X142318332Y-83767170D01*
X142320795Y-83767159D01*
X142536461Y-83767159D01*
X142547468Y-83767923D01*
X142557039Y-83770212D01*
X142566091Y-83774613D01*
X142571877Y-83779371D01*
X142578188Y-83787901D01*
X142581869Y-83797372D01*
X142583552Y-83807218D01*
X142583845Y-83814054D01*
X142583155Y-83824466D01*
X142580678Y-83834648D01*
X142575739Y-83843913D01*
X142569434Y-83850202D01*
X142559648Y-83855397D01*
X142549712Y-83858262D01*
X142539577Y-83859899D01*
X142527947Y-83860781D01*
X142519364Y-83860949D01*
X142511060Y-83860949D01*
X142263642Y-84517473D01*
X142259735Y-84526928D01*
X142254766Y-84538459D01*
X142250072Y-84548761D01*
X142245653Y-84557834D01*
X142240515Y-84567448D01*
X142234917Y-84576449D01*
X142229937Y-84582686D01*
X142221612Y-84589513D01*
X142211905Y-84593811D01*
X142201985Y-84595517D01*
X142198429Y-84595631D01*
X142159351Y-84595631D01*
X142148264Y-84594475D01*
X142137720Y-84591006D01*
X142127717Y-84585224D01*
X142118257Y-84577130D01*
X142111517Y-84569541D01*
X142105082Y-84560652D01*
X142098952Y-84550462D01*
X142093126Y-84538971D01*
X142087606Y-84526179D01*
X142085833Y-84521625D01*
X142084368Y-84517473D01*
X141831577Y-83860949D01*
G37*
G36*
X143062805Y-84095422D02*
G01*
X143312177Y-84095422D01*
X143322049Y-84096088D01*
X143332388Y-84098481D01*
X143341718Y-84102614D01*
X143350042Y-84108487D01*
X143351011Y-84109344D01*
X143357743Y-84116701D01*
X143363018Y-84125928D01*
X143365858Y-84136159D01*
X143366399Y-84143538D01*
X143365201Y-84154342D01*
X143361607Y-84163948D01*
X143355618Y-84172357D01*
X143351256Y-84176510D01*
X143343135Y-84182067D01*
X143333914Y-84186036D01*
X143323595Y-84188417D01*
X143313664Y-84189199D01*
X143312177Y-84189211D01*
X143062805Y-84189211D01*
X143062805Y-84459832D01*
X143062150Y-84470680D01*
X143060187Y-84480569D01*
X143056340Y-84490697D01*
X143050783Y-84499574D01*
X143049127Y-84501598D01*
X143041678Y-84508543D01*
X143033007Y-84513504D01*
X143023115Y-84516481D01*
X143012002Y-84517473D01*
X143002049Y-84516390D01*
X142992707Y-84513138D01*
X142983975Y-84507719D01*
X142975854Y-84500132D01*
X142969859Y-84492276D01*
X142964810Y-84482640D01*
X142961684Y-84472302D01*
X142960482Y-84461261D01*
X142960467Y-84459832D01*
X142960467Y-84189211D01*
X142712561Y-84189211D01*
X142702403Y-84188603D01*
X142691824Y-84186420D01*
X142682344Y-84182650D01*
X142673964Y-84177292D01*
X142672993Y-84176510D01*
X142665555Y-84168767D01*
X142660551Y-84159826D01*
X142657982Y-84149688D01*
X142657606Y-84143538D01*
X142658900Y-84133188D01*
X142662784Y-84123574D01*
X142669256Y-84114693D01*
X142673970Y-84110076D01*
X142682610Y-84103665D01*
X142691922Y-84099085D01*
X142701905Y-84096338D01*
X142712561Y-84095422D01*
X142960467Y-84095422D01*
X142960467Y-83837990D01*
X142961157Y-83827558D01*
X142963633Y-83816781D01*
X142967911Y-83807225D01*
X142973991Y-83798890D01*
X142974877Y-83797934D01*
X142982602Y-83791309D01*
X142991364Y-83786577D01*
X143001164Y-83783737D01*
X143012002Y-83782791D01*
X143021793Y-83783515D01*
X143031837Y-83786118D01*
X143040661Y-83790614D01*
X143048263Y-83797002D01*
X143049127Y-83797934D01*
X143055111Y-83806116D01*
X143059385Y-83815519D01*
X143061950Y-83826144D01*
X143062791Y-83836442D01*
X143062805Y-83837990D01*
X143062805Y-84095422D01*
G37*
G36*
X144640160Y-84459344D02*
G01*
X144640160Y-84298632D01*
X144469923Y-84298632D01*
X144459213Y-84297724D01*
X144449262Y-84294585D01*
X144440685Y-84288542D01*
X144439392Y-84287152D01*
X144434112Y-84278785D01*
X144431031Y-84269215D01*
X144429623Y-84259087D01*
X144429378Y-84251981D01*
X144429799Y-84240938D01*
X144431310Y-84230321D01*
X144434324Y-84220932D01*
X144438171Y-84214856D01*
X144446318Y-84209155D01*
X144455860Y-84206251D01*
X144466515Y-84204999D01*
X144472609Y-84204842D01*
X144769364Y-84204842D01*
X144779602Y-84206011D01*
X144788769Y-84209997D01*
X144795743Y-84216810D01*
X144800610Y-84226256D01*
X144803089Y-84236045D01*
X144804158Y-84246303D01*
X144804291Y-84251981D01*
X144803742Y-84262834D01*
X144801769Y-84273291D01*
X144797834Y-84282573D01*
X144792812Y-84288618D01*
X144784072Y-84293899D01*
X144774608Y-84296715D01*
X144764523Y-84298153D01*
X144754540Y-84298622D01*
X144752756Y-84298632D01*
X144743963Y-84298632D01*
X144743963Y-84485233D01*
X144743963Y-84501353D01*
X144743558Y-84511576D01*
X144741818Y-84521657D01*
X144739811Y-84526510D01*
X144733125Y-84533967D01*
X144724942Y-84539576D01*
X144723447Y-84540432D01*
X144713059Y-84546065D01*
X144701557Y-84551484D01*
X144692199Y-84555408D01*
X144682214Y-84559212D01*
X144671602Y-84562896D01*
X144660363Y-84566459D01*
X144648498Y-84569903D01*
X144636006Y-84573226D01*
X144622887Y-84576428D01*
X144609141Y-84579511D01*
X144595108Y-84582392D01*
X144581037Y-84584989D01*
X144566927Y-84587303D01*
X144552778Y-84589334D01*
X144538591Y-84591082D01*
X144524365Y-84592546D01*
X144510100Y-84593726D01*
X144495797Y-84594624D01*
X144481455Y-84595237D01*
X144467075Y-84595568D01*
X144457466Y-84595631D01*
X144446026Y-84595516D01*
X144434723Y-84595172D01*
X144423559Y-84594598D01*
X144412533Y-84593795D01*
X144401646Y-84592763D01*
X144390897Y-84591501D01*
X144380286Y-84590009D01*
X144369814Y-84588288D01*
X144359480Y-84586338D01*
X144349284Y-84584158D01*
X144339227Y-84581749D01*
X144329308Y-84579110D01*
X144319527Y-84576242D01*
X144309885Y-84573144D01*
X144300381Y-84569817D01*
X144291015Y-84566261D01*
X144281788Y-84562475D01*
X144272699Y-84558459D01*
X144263748Y-84554214D01*
X144254936Y-84549740D01*
X144246262Y-84545036D01*
X144237726Y-84540103D01*
X144229329Y-84534940D01*
X144221070Y-84529548D01*
X144212949Y-84523926D01*
X144204967Y-84518075D01*
X144197123Y-84511995D01*
X144189417Y-84505685D01*
X144181850Y-84499145D01*
X144174421Y-84492376D01*
X144167131Y-84485378D01*
X144159979Y-84478150D01*
X144153006Y-84470723D01*
X144146255Y-84463156D01*
X144139725Y-84455450D01*
X144133417Y-84447605D01*
X144127330Y-84439620D01*
X144121465Y-84431496D01*
X144115820Y-84423233D01*
X144110397Y-84414830D01*
X144105196Y-84406288D01*
X144100215Y-84397607D01*
X144095456Y-84388787D01*
X144090919Y-84379827D01*
X144086603Y-84370728D01*
X144082508Y-84361490D01*
X144078634Y-84352112D01*
X144074982Y-84342595D01*
X144071551Y-84332939D01*
X144068342Y-84323144D01*
X144065354Y-84313209D01*
X144062587Y-84303135D01*
X144060041Y-84292922D01*
X144057717Y-84282569D01*
X144055614Y-84272077D01*
X144053733Y-84261446D01*
X144052073Y-84250675D01*
X144050634Y-84239765D01*
X144049417Y-84228716D01*
X144048421Y-84217528D01*
X144047646Y-84206200D01*
X144047093Y-84194733D01*
X144046761Y-84183127D01*
X144046650Y-84171381D01*
X144046758Y-84159615D01*
X144047083Y-84147979D01*
X144047624Y-84136471D01*
X144048382Y-84125093D01*
X144049357Y-84113845D01*
X144050548Y-84102725D01*
X144051956Y-84091735D01*
X144053580Y-84080874D01*
X144055421Y-84070142D01*
X144057479Y-84059540D01*
X144059753Y-84049067D01*
X144062243Y-84038723D01*
X144064950Y-84028508D01*
X144067874Y-84018423D01*
X144071015Y-84008467D01*
X144074371Y-83998640D01*
X144077945Y-83988943D01*
X144081735Y-83979375D01*
X144085742Y-83969936D01*
X144089965Y-83960626D01*
X144094405Y-83951446D01*
X144099061Y-83942395D01*
X144103934Y-83933473D01*
X144109023Y-83924681D01*
X144114329Y-83916017D01*
X144119852Y-83907483D01*
X144125591Y-83899079D01*
X144131547Y-83890803D01*
X144137720Y-83882657D01*
X144144109Y-83874640D01*
X144150714Y-83866753D01*
X144157536Y-83858995D01*
X144164526Y-83851421D01*
X144171635Y-83844088D01*
X144178864Y-83836996D01*
X144186212Y-83830143D01*
X144193679Y-83823532D01*
X144201265Y-83817160D01*
X144208971Y-83811030D01*
X144216796Y-83805139D01*
X144232803Y-83794079D01*
X144249287Y-83783982D01*
X144266249Y-83774845D01*
X144283688Y-83766671D01*
X144301603Y-83759458D01*
X144319996Y-83753207D01*
X144329371Y-83750442D01*
X144338865Y-83747918D01*
X144348479Y-83745633D01*
X144358212Y-83743590D01*
X144368064Y-83741787D01*
X144378036Y-83740224D01*
X144388127Y-83738902D01*
X144398337Y-83737820D01*
X144408666Y-83736978D01*
X144419115Y-83736377D01*
X144429682Y-83736016D01*
X144440369Y-83735896D01*
X144452036Y-83736118D01*
X144463710Y-83736782D01*
X144475391Y-83737888D01*
X144487081Y-83739438D01*
X144498778Y-83741430D01*
X144510482Y-83743865D01*
X144522195Y-83746742D01*
X144533914Y-83750062D01*
X144545756Y-83753657D01*
X144557713Y-83757481D01*
X144569784Y-83761534D01*
X144581969Y-83765816D01*
X144591183Y-83769178D01*
X144600462Y-83772668D01*
X144609805Y-83776287D01*
X144619212Y-83780035D01*
X144628684Y-83783912D01*
X144631856Y-83785233D01*
X144636108Y-83775996D01*
X144641785Y-83767591D01*
X144649186Y-83760604D01*
X144650662Y-83759588D01*
X144659895Y-83754999D01*
X144669741Y-83752480D01*
X144679786Y-83751559D01*
X144682170Y-83751528D01*
X144693496Y-83752215D01*
X144703293Y-83754275D01*
X144712791Y-83758416D01*
X144721100Y-83765438D01*
X144724912Y-83771067D01*
X144728564Y-83780181D01*
X144731031Y-83790504D01*
X144732626Y-83800548D01*
X144733885Y-83812180D01*
X144734609Y-83821946D01*
X144735145Y-83832605D01*
X144735491Y-83844157D01*
X144735648Y-83856602D01*
X144735659Y-83860949D01*
X144735659Y-83955959D01*
X144735373Y-83966144D01*
X144734274Y-83977043D01*
X144731950Y-83987936D01*
X144727920Y-83997980D01*
X144723935Y-84003831D01*
X144715988Y-84010324D01*
X144706654Y-84014312D01*
X144696733Y-84016424D01*
X144686927Y-84017212D01*
X144683391Y-84017264D01*
X144672730Y-84016125D01*
X144663036Y-84012708D01*
X144654307Y-84007014D01*
X144646545Y-83999041D01*
X144639748Y-83988791D01*
X144635006Y-83978951D01*
X144631856Y-83970614D01*
X144628101Y-83961248D01*
X144624179Y-83952054D01*
X144623063Y-83949609D01*
X144618107Y-83939076D01*
X144612765Y-83929004D01*
X144607036Y-83919390D01*
X144600921Y-83910236D01*
X144594419Y-83901541D01*
X144587531Y-83893306D01*
X144580257Y-83885530D01*
X144572596Y-83878213D01*
X144564549Y-83871356D01*
X144556116Y-83864959D01*
X144550279Y-83860949D01*
X144541272Y-83855362D01*
X144532021Y-83850324D01*
X144522524Y-83845836D01*
X144512784Y-83841898D01*
X144502798Y-83838509D01*
X144492568Y-83835669D01*
X144482093Y-83833380D01*
X144471373Y-83831639D01*
X144460408Y-83830449D01*
X144449199Y-83829808D01*
X144441591Y-83829685D01*
X144426427Y-83830035D01*
X144411648Y-83831082D01*
X144397255Y-83832828D01*
X144383247Y-83835273D01*
X144369625Y-83838415D01*
X144356388Y-83842256D01*
X144343537Y-83846796D01*
X144331071Y-83852034D01*
X144318990Y-83857970D01*
X144307295Y-83864605D01*
X144295986Y-83871938D01*
X144285061Y-83879969D01*
X144274523Y-83888699D01*
X144264369Y-83898127D01*
X144254602Y-83908253D01*
X144245219Y-83919078D01*
X144236317Y-83930496D01*
X144227989Y-83942400D01*
X144220235Y-83954790D01*
X144213056Y-83967667D01*
X144206451Y-83981031D01*
X144200420Y-83994881D01*
X144194963Y-84009218D01*
X144190081Y-84024042D01*
X144185774Y-84039352D01*
X144182041Y-84055148D01*
X144178882Y-84071432D01*
X144176297Y-84088201D01*
X144174287Y-84105458D01*
X144172851Y-84123200D01*
X144171989Y-84141430D01*
X144171702Y-84160146D01*
X144172019Y-84179496D01*
X144172969Y-84198343D01*
X144174553Y-84216689D01*
X144176770Y-84234533D01*
X144179621Y-84251875D01*
X144183105Y-84268716D01*
X144187223Y-84285054D01*
X144191974Y-84300891D01*
X144197359Y-84316226D01*
X144203377Y-84331059D01*
X144210029Y-84345390D01*
X144217315Y-84359219D01*
X144225233Y-84372547D01*
X144233786Y-84385372D01*
X144242972Y-84397696D01*
X144252791Y-84409518D01*
X144263136Y-84420698D01*
X144273899Y-84431156D01*
X144285080Y-84440894D01*
X144296678Y-84449910D01*
X144308695Y-84458204D01*
X144321129Y-84465778D01*
X144333982Y-84472630D01*
X144347252Y-84478761D01*
X144360940Y-84484170D01*
X144375046Y-84488859D01*
X144389570Y-84492826D01*
X144404511Y-84496072D01*
X144419871Y-84498596D01*
X144435649Y-84500399D01*
X144451844Y-84501481D01*
X144468457Y-84501842D01*
X144478265Y-84501685D01*
X144488149Y-84501216D01*
X144498110Y-84500434D01*
X144508147Y-84499338D01*
X144518260Y-84497930D01*
X144528449Y-84496209D01*
X144538715Y-84494175D01*
X144549057Y-84491828D01*
X144559617Y-84489076D01*
X144570413Y-84485951D01*
X144581446Y-84482451D01*
X144592716Y-84478578D01*
X144604222Y-84474330D01*
X144615965Y-84469709D01*
X144627944Y-84464713D01*
X144637084Y-84460721D01*
X144640160Y-84459344D01*
G37*
X172895238Y-90127619D02*
X173228571Y-91127619D01*
X173228571Y-91127619D02*
X173561904Y-90127619D01*
G36*
X140169983Y-83767266D02*
G01*
X140180480Y-83767588D01*
X140190841Y-83768123D01*
X140201066Y-83768873D01*
X140211156Y-83769837D01*
X140221109Y-83771015D01*
X140230926Y-83772407D01*
X140240607Y-83774013D01*
X140259562Y-83777869D01*
X140277972Y-83782581D01*
X140295839Y-83788150D01*
X140313162Y-83794576D01*
X140329942Y-83801858D01*
X140346177Y-83809997D01*
X140361869Y-83818993D01*
X140377017Y-83828846D01*
X140391621Y-83839555D01*
X140405681Y-83851122D01*
X140419197Y-83863545D01*
X140432170Y-83876824D01*
X140444474Y-83890832D01*
X140455983Y-83905439D01*
X140466700Y-83920645D01*
X140476622Y-83936450D01*
X140485751Y-83952854D01*
X140494085Y-83969858D01*
X140501626Y-83987461D01*
X140508374Y-84005662D01*
X140511449Y-84014988D01*
X140514327Y-84024463D01*
X140517006Y-84034089D01*
X140519487Y-84043864D01*
X140521769Y-84053788D01*
X140523852Y-84063863D01*
X140525738Y-84074087D01*
X140527424Y-84084461D01*
X140528913Y-84094985D01*
X140530203Y-84105659D01*
X140531294Y-84116482D01*
X140532187Y-84127456D01*
X140532882Y-84138579D01*
X140533378Y-84149852D01*
X140533676Y-84161274D01*
X140533775Y-84172847D01*
X140533660Y-84184153D01*
X140533317Y-84195359D01*
X140532744Y-84206463D01*
X140531943Y-84217467D01*
X140530913Y-84228369D01*
X140529653Y-84239170D01*
X140528165Y-84249870D01*
X140526448Y-84260469D01*
X140524501Y-84270966D01*
X140522326Y-84281363D01*
X140519922Y-84291658D01*
X140517288Y-84301853D01*
X140514426Y-84311946D01*
X140511335Y-84321938D01*
X140508015Y-84331829D01*
X140504466Y-84341618D01*
X140500729Y-84351282D01*
X140496783Y-84360795D01*
X140492630Y-84370158D01*
X140488269Y-84379369D01*
X140483700Y-84388430D01*
X140478923Y-84397340D01*
X140473938Y-84406100D01*
X140468745Y-84414708D01*
X140463344Y-84423166D01*
X140457735Y-84431473D01*
X140451918Y-84439630D01*
X140445893Y-84447635D01*
X140439660Y-84455490D01*
X140433219Y-84463194D01*
X140426570Y-84470748D01*
X140419713Y-84478150D01*
X140409855Y-84487880D01*
X140399606Y-84497104D01*
X140388967Y-84505821D01*
X140377936Y-84514031D01*
X140366515Y-84521735D01*
X140354704Y-84528932D01*
X140342501Y-84535622D01*
X140329908Y-84541806D01*
X140316925Y-84547483D01*
X140303550Y-84552654D01*
X140294417Y-84555819D01*
X140285031Y-84558748D01*
X140275312Y-84561487D01*
X140265262Y-84564037D01*
X140254880Y-84566398D01*
X140244166Y-84568571D01*
X140233119Y-84570554D01*
X140221741Y-84572349D01*
X140210031Y-84573954D01*
X140197989Y-84575371D01*
X140185614Y-84576599D01*
X140172908Y-84577638D01*
X140159870Y-84578488D01*
X140146499Y-84579149D01*
X140132797Y-84579622D01*
X140118762Y-84579905D01*
X140104396Y-84580000D01*
X140093987Y-84580000D01*
X140082981Y-84580000D01*
X140073163Y-84580000D01*
X140062006Y-84580000D01*
X140057990Y-84580000D01*
X140048196Y-84580000D01*
X140037388Y-84580000D01*
X140027611Y-84580000D01*
X140017506Y-84580000D01*
X140007676Y-84580000D01*
X139899232Y-84580000D01*
X139868213Y-84580000D01*
X139857708Y-84579427D01*
X139847190Y-84577370D01*
X139837255Y-84573268D01*
X139830111Y-84568032D01*
X139823972Y-84560353D01*
X139819842Y-84550781D01*
X139817857Y-84540683D01*
X139817411Y-84532128D01*
X139818112Y-84521561D01*
X139820631Y-84511345D01*
X139825654Y-84502223D01*
X139832065Y-84496224D01*
X139841148Y-84491843D01*
X139851775Y-84489036D01*
X139862875Y-84487394D01*
X139873528Y-84486562D01*
X139885458Y-84486220D01*
X139887997Y-84486210D01*
X139900453Y-84486210D01*
X139900453Y-83860949D01*
X140007676Y-83860949D01*
X140007676Y-84486210D01*
X140018636Y-84487233D01*
X140029535Y-84488103D01*
X140040374Y-84488821D01*
X140051151Y-84489385D01*
X140061943Y-84489813D01*
X140072583Y-84490118D01*
X140083070Y-84490301D01*
X140093405Y-84490362D01*
X140103880Y-84490288D01*
X140114179Y-84490066D01*
X140124301Y-84489695D01*
X140134247Y-84489176D01*
X140144016Y-84488508D01*
X140163025Y-84486728D01*
X140181328Y-84484354D01*
X140198925Y-84481387D01*
X140215816Y-84477826D01*
X140232001Y-84473672D01*
X140247480Y-84468925D01*
X140262253Y-84463584D01*
X140276319Y-84457649D01*
X140289680Y-84451122D01*
X140302335Y-84444000D01*
X140314284Y-84436286D01*
X140325527Y-84427978D01*
X140336064Y-84419076D01*
X140341067Y-84414403D01*
X140350591Y-84404566D01*
X140359500Y-84394047D01*
X140367795Y-84382844D01*
X140375475Y-84370958D01*
X140382541Y-84358389D01*
X140388992Y-84345137D01*
X140394829Y-84331202D01*
X140400052Y-84316584D01*
X140404660Y-84301282D01*
X140408654Y-84285298D01*
X140412033Y-84268630D01*
X140414798Y-84251279D01*
X140416948Y-84233245D01*
X140418485Y-84214528D01*
X140419406Y-84195128D01*
X140419637Y-84185172D01*
X140419713Y-84175045D01*
X140419636Y-84164859D01*
X140419404Y-84154848D01*
X140419018Y-84145012D01*
X140417781Y-84125866D01*
X140415927Y-84107420D01*
X140413454Y-84089674D01*
X140410363Y-84072629D01*
X140406653Y-84056283D01*
X140402325Y-84040639D01*
X140397379Y-84025694D01*
X140391815Y-84011450D01*
X140385633Y-83997906D01*
X140378832Y-83985062D01*
X140371413Y-83972918D01*
X140363376Y-83961475D01*
X140354721Y-83950732D01*
X140345447Y-83940690D01*
X140340579Y-83935931D01*
X140330347Y-83926851D01*
X140319375Y-83918357D01*
X140307663Y-83910449D01*
X140295211Y-83903126D01*
X140282018Y-83896390D01*
X140268084Y-83890239D01*
X140253411Y-83884674D01*
X140237997Y-83879694D01*
X140221842Y-83875301D01*
X140204948Y-83871493D01*
X140187313Y-83868271D01*
X140168937Y-83865635D01*
X140149821Y-83863585D01*
X140139986Y-83862779D01*
X140129965Y-83862120D01*
X140119759Y-83861608D01*
X140109369Y-83861241D01*
X140098793Y-83861022D01*
X140088032Y-83860949D01*
X140076483Y-83860949D01*
X140066015Y-83860949D01*
X140055171Y-83860949D01*
X140044581Y-83860949D01*
X140038939Y-83860949D01*
X140028644Y-83860949D01*
X140018827Y-83860949D01*
X140008579Y-83860949D01*
X140007676Y-83860949D01*
X139900453Y-83860949D01*
X139889462Y-83860949D01*
X139879547Y-83860788D01*
X139868292Y-83860137D01*
X139858300Y-83858985D01*
X139847979Y-83856941D01*
X139838238Y-83853646D01*
X139832798Y-83850690D01*
X139825360Y-83843546D01*
X139820356Y-83833929D01*
X139817951Y-83823305D01*
X139817411Y-83814054D01*
X139818018Y-83804095D01*
X139820201Y-83794229D01*
X139824555Y-83785065D01*
X139830111Y-83778639D01*
X139838376Y-83773090D01*
X139847604Y-83769682D01*
X139858602Y-83767709D01*
X139869678Y-83767159D01*
X139899232Y-83767159D01*
X140007676Y-83767159D01*
X140159351Y-83767159D01*
X140169983Y-83767266D01*
G37*
G36*
X141027946Y-83689477D02*
G01*
X141043475Y-83690902D01*
X141058591Y-83693278D01*
X141073292Y-83696604D01*
X141087579Y-83700880D01*
X141101452Y-83706106D01*
X141114912Y-83712283D01*
X141127957Y-83719410D01*
X141140588Y-83727487D01*
X141152804Y-83736514D01*
X141164607Y-83746492D01*
X141175996Y-83757420D01*
X141186971Y-83769298D01*
X141197531Y-83782127D01*
X141207678Y-83795906D01*
X141217411Y-83810635D01*
X141226638Y-83826183D01*
X141235271Y-83842420D01*
X141243308Y-83859347D01*
X141250750Y-83876962D01*
X141257596Y-83895266D01*
X141260796Y-83904676D01*
X141263847Y-83914258D01*
X141266749Y-83924013D01*
X141269503Y-83933940D01*
X141272108Y-83944039D01*
X141274563Y-83954310D01*
X141276870Y-83964754D01*
X141279028Y-83975370D01*
X141281038Y-83986158D01*
X141282898Y-83997118D01*
X141284610Y-84008250D01*
X141286173Y-84019555D01*
X141287586Y-84031032D01*
X141288852Y-84042681D01*
X141289968Y-84054502D01*
X141290935Y-84066495D01*
X141291754Y-84078661D01*
X141292424Y-84090999D01*
X141292945Y-84103509D01*
X141293317Y-84116191D01*
X141293540Y-84129045D01*
X141293614Y-84142072D01*
X141293540Y-84155084D01*
X141293317Y-84167926D01*
X141292945Y-84180596D01*
X141292424Y-84193096D01*
X141291754Y-84205425D01*
X141290935Y-84217583D01*
X141289968Y-84229571D01*
X141288852Y-84241387D01*
X141287586Y-84253033D01*
X141286173Y-84264508D01*
X141284610Y-84275813D01*
X141282898Y-84286946D01*
X141281038Y-84297909D01*
X141279028Y-84308701D01*
X141276870Y-84319322D01*
X141274563Y-84329773D01*
X141272108Y-84340052D01*
X141269503Y-84350161D01*
X141266749Y-84360099D01*
X141263847Y-84369867D01*
X141260796Y-84379463D01*
X141257596Y-84388889D01*
X141254247Y-84398144D01*
X141247103Y-84416142D01*
X141239364Y-84433456D01*
X141231029Y-84450088D01*
X141222099Y-84466036D01*
X141217411Y-84473754D01*
X141207678Y-84488512D01*
X141197531Y-84502319D01*
X141186971Y-84515173D01*
X141175996Y-84527075D01*
X141164607Y-84538025D01*
X141152804Y-84548023D01*
X141140588Y-84557068D01*
X141127957Y-84565162D01*
X141114912Y-84572303D01*
X141101452Y-84578492D01*
X141087579Y-84583729D01*
X141073292Y-84588014D01*
X141058591Y-84591346D01*
X141043475Y-84593727D01*
X141027946Y-84595155D01*
X141012002Y-84595631D01*
X140996060Y-84595158D01*
X140980533Y-84593738D01*
X140965423Y-84591372D01*
X140950728Y-84588060D01*
X140936449Y-84583801D01*
X140922587Y-84578595D01*
X140909140Y-84572443D01*
X140896109Y-84565345D01*
X140883494Y-84557300D01*
X140871296Y-84548309D01*
X140859513Y-84538371D01*
X140848146Y-84527487D01*
X140837195Y-84515657D01*
X140826660Y-84502880D01*
X140816541Y-84489156D01*
X140806838Y-84474487D01*
X140797670Y-84458963D01*
X140789093Y-84442739D01*
X140781107Y-84425815D01*
X140773713Y-84408190D01*
X140766910Y-84389865D01*
X140763731Y-84380440D01*
X140760699Y-84370840D01*
X140757816Y-84361065D01*
X140755080Y-84351114D01*
X140752492Y-84340989D01*
X140750052Y-84330689D01*
X140747760Y-84320213D01*
X140745615Y-84309563D01*
X140743619Y-84298737D01*
X140741770Y-84287736D01*
X140740070Y-84276560D01*
X140738517Y-84265210D01*
X140737112Y-84253684D01*
X140735855Y-84241983D01*
X140734746Y-84230107D01*
X140733785Y-84218055D01*
X140732972Y-84205829D01*
X140732306Y-84193428D01*
X140731788Y-84180852D01*
X140731419Y-84168100D01*
X140731197Y-84155174D01*
X140731123Y-84142072D01*
X140731126Y-84141584D01*
X140844940Y-84141584D01*
X140844983Y-84152254D01*
X140845112Y-84162774D01*
X140845327Y-84173141D01*
X140845627Y-84183357D01*
X140846014Y-84193421D01*
X140846486Y-84203333D01*
X140847044Y-84213094D01*
X140848418Y-84232160D01*
X140850135Y-84250619D01*
X140852196Y-84268472D01*
X140854600Y-84285718D01*
X140857348Y-84302357D01*
X140860439Y-84318389D01*
X140863874Y-84333815D01*
X140867652Y-84348633D01*
X140871774Y-84362845D01*
X140876239Y-84376450D01*
X140881047Y-84389449D01*
X140886199Y-84401840D01*
X140888904Y-84407808D01*
X140894537Y-84419195D01*
X140900444Y-84429847D01*
X140906627Y-84439765D01*
X140913084Y-84448948D01*
X140919816Y-84457396D01*
X140926823Y-84465110D01*
X140934104Y-84472089D01*
X140941660Y-84478333D01*
X140953510Y-84486323D01*
X140965978Y-84492659D01*
X140979064Y-84497342D01*
X140992768Y-84500373D01*
X141007091Y-84501750D01*
X141012002Y-84501842D01*
X141021816Y-84501474D01*
X141036014Y-84499546D01*
X141049585Y-84495965D01*
X141062530Y-84490730D01*
X141074847Y-84483843D01*
X141086538Y-84475303D01*
X141093983Y-84468691D01*
X141101150Y-84461345D01*
X141108039Y-84453264D01*
X141114649Y-84444448D01*
X141120980Y-84434898D01*
X141127033Y-84424613D01*
X141132807Y-84413594D01*
X141135589Y-84407808D01*
X141140913Y-84395720D01*
X141145893Y-84383025D01*
X141150530Y-84369724D01*
X141154823Y-84355815D01*
X141158773Y-84341300D01*
X141162380Y-84326178D01*
X141165642Y-84310449D01*
X141168562Y-84294113D01*
X141171138Y-84277171D01*
X141173370Y-84259622D01*
X141175260Y-84241466D01*
X141176805Y-84222703D01*
X141178007Y-84203333D01*
X141178480Y-84193421D01*
X141178866Y-84183357D01*
X141179166Y-84173141D01*
X141179381Y-84162774D01*
X141179510Y-84152254D01*
X141179553Y-84141584D01*
X141179510Y-84130958D01*
X141179381Y-84120484D01*
X141179166Y-84110161D01*
X141178866Y-84099990D01*
X141178480Y-84089969D01*
X141178007Y-84080100D01*
X141176805Y-84060816D01*
X141175260Y-84042136D01*
X141173370Y-84024061D01*
X141171138Y-84006591D01*
X141168562Y-83989726D01*
X141165642Y-83973465D01*
X141162380Y-83957810D01*
X141158773Y-83942759D01*
X141154823Y-83928314D01*
X141150530Y-83914473D01*
X141145893Y-83901237D01*
X141140913Y-83888606D01*
X141135589Y-83876580D01*
X141129954Y-83865223D01*
X141124041Y-83854598D01*
X141117849Y-83844706D01*
X141111379Y-83835547D01*
X141104629Y-83827121D01*
X141097602Y-83819427D01*
X141090295Y-83812466D01*
X141082711Y-83806238D01*
X141070811Y-83798270D01*
X141058284Y-83791950D01*
X141045131Y-83787279D01*
X141031351Y-83784256D01*
X141016944Y-83782882D01*
X141012002Y-83782791D01*
X140997474Y-83783615D01*
X140983563Y-83786088D01*
X140970271Y-83790210D01*
X140957597Y-83795980D01*
X140945542Y-83803399D01*
X140934104Y-83812466D01*
X140926823Y-83819427D01*
X140919816Y-83827121D01*
X140913084Y-83835547D01*
X140906627Y-83844706D01*
X140900444Y-83854598D01*
X140894537Y-83865223D01*
X140888904Y-83876580D01*
X140883580Y-83888606D01*
X140878600Y-83901237D01*
X140873963Y-83914473D01*
X140869670Y-83928314D01*
X140865720Y-83942759D01*
X140862114Y-83957810D01*
X140858851Y-83973465D01*
X140855931Y-83989726D01*
X140853355Y-84006591D01*
X140851123Y-84024061D01*
X140849234Y-84042136D01*
X140847688Y-84060816D01*
X140846486Y-84080100D01*
X140846014Y-84089969D01*
X140845627Y-84099990D01*
X140845327Y-84110161D01*
X140845112Y-84120484D01*
X140844983Y-84130958D01*
X140844940Y-84141584D01*
X140731126Y-84141584D01*
X140731197Y-84129001D01*
X140731419Y-84116104D01*
X140731788Y-84103382D01*
X140732306Y-84090835D01*
X140732972Y-84078462D01*
X140733785Y-84066263D01*
X140734746Y-84054240D01*
X140735855Y-84042390D01*
X140737112Y-84030716D01*
X140738517Y-84019216D01*
X140740070Y-84007891D01*
X140741770Y-83996740D01*
X140743619Y-83985764D01*
X140745615Y-83974962D01*
X140747760Y-83964335D01*
X140750052Y-83953883D01*
X140752492Y-83943605D01*
X140755080Y-83933502D01*
X140757816Y-83923573D01*
X140760699Y-83913820D01*
X140763731Y-83904240D01*
X140766910Y-83894835D01*
X140770238Y-83885605D01*
X140777336Y-83867669D01*
X140785026Y-83850430D01*
X140793307Y-83833891D01*
X140802180Y-83818049D01*
X140806838Y-83810390D01*
X140816541Y-83795691D01*
X140826660Y-83781940D01*
X140837195Y-83769137D01*
X140848146Y-83757283D01*
X140859513Y-83746377D01*
X140871296Y-83736419D01*
X140883494Y-83727410D01*
X140896109Y-83719349D01*
X140909140Y-83712236D01*
X140922587Y-83706072D01*
X140936449Y-83700856D01*
X140950728Y-83696588D01*
X140965423Y-83693269D01*
X140980533Y-83690898D01*
X140996060Y-83689476D01*
X141012002Y-83689002D01*
X141027946Y-83689477D01*
G37*
%TO.C,J7*%
X134416666Y-76462619D02*
X134416666Y-77176904D01*
X134416666Y-77176904D02*
X134369047Y-77319761D01*
X134369047Y-77319761D02*
X134273809Y-77415000D01*
X134273809Y-77415000D02*
X134130952Y-77462619D01*
X134130952Y-77462619D02*
X134035714Y-77462619D01*
X134797619Y-76462619D02*
X135464285Y-76462619D01*
X135464285Y-76462619D02*
X135035714Y-77462619D01*
%TO.C,J4*%
X161162619Y-111603333D02*
X161876904Y-111603333D01*
X161876904Y-111603333D02*
X162019761Y-111650952D01*
X162019761Y-111650952D02*
X162115000Y-111746190D01*
X162115000Y-111746190D02*
X162162619Y-111889047D01*
X162162619Y-111889047D02*
X162162619Y-111984285D01*
X161495952Y-110698571D02*
X162162619Y-110698571D01*
X161115000Y-110936666D02*
X161829285Y-111174761D01*
X161829285Y-111174761D02*
X161829285Y-110555714D01*
%TO.C,R4*%
X161083333Y-96212619D02*
X160750000Y-95736428D01*
X160511905Y-96212619D02*
X160511905Y-95212619D01*
X160511905Y-95212619D02*
X160892857Y-95212619D01*
X160892857Y-95212619D02*
X160988095Y-95260238D01*
X160988095Y-95260238D02*
X161035714Y-95307857D01*
X161035714Y-95307857D02*
X161083333Y-95403095D01*
X161083333Y-95403095D02*
X161083333Y-95545952D01*
X161083333Y-95545952D02*
X161035714Y-95641190D01*
X161035714Y-95641190D02*
X160988095Y-95688809D01*
X160988095Y-95688809D02*
X160892857Y-95736428D01*
X160892857Y-95736428D02*
X160511905Y-95736428D01*
X161940476Y-95545952D02*
X161940476Y-96212619D01*
X161702381Y-95165000D02*
X161464286Y-95879285D01*
X161464286Y-95879285D02*
X162083333Y-95879285D01*
%TO.C,R6*%
X155562619Y-90166666D02*
X155086428Y-90499999D01*
X155562619Y-90738094D02*
X154562619Y-90738094D01*
X154562619Y-90738094D02*
X154562619Y-90357142D01*
X154562619Y-90357142D02*
X154610238Y-90261904D01*
X154610238Y-90261904D02*
X154657857Y-90214285D01*
X154657857Y-90214285D02*
X154753095Y-90166666D01*
X154753095Y-90166666D02*
X154895952Y-90166666D01*
X154895952Y-90166666D02*
X154991190Y-90214285D01*
X154991190Y-90214285D02*
X155038809Y-90261904D01*
X155038809Y-90261904D02*
X155086428Y-90357142D01*
X155086428Y-90357142D02*
X155086428Y-90738094D01*
X154562619Y-89309523D02*
X154562619Y-89499999D01*
X154562619Y-89499999D02*
X154610238Y-89595237D01*
X154610238Y-89595237D02*
X154657857Y-89642856D01*
X154657857Y-89642856D02*
X154800714Y-89738094D01*
X154800714Y-89738094D02*
X154991190Y-89785713D01*
X154991190Y-89785713D02*
X155372142Y-89785713D01*
X155372142Y-89785713D02*
X155467380Y-89738094D01*
X155467380Y-89738094D02*
X155515000Y-89690475D01*
X155515000Y-89690475D02*
X155562619Y-89595237D01*
X155562619Y-89595237D02*
X155562619Y-89404761D01*
X155562619Y-89404761D02*
X155515000Y-89309523D01*
X155515000Y-89309523D02*
X155467380Y-89261904D01*
X155467380Y-89261904D02*
X155372142Y-89214285D01*
X155372142Y-89214285D02*
X155134047Y-89214285D01*
X155134047Y-89214285D02*
X155038809Y-89261904D01*
X155038809Y-89261904D02*
X154991190Y-89309523D01*
X154991190Y-89309523D02*
X154943571Y-89404761D01*
X154943571Y-89404761D02*
X154943571Y-89595237D01*
X154943571Y-89595237D02*
X154991190Y-89690475D01*
X154991190Y-89690475D02*
X155038809Y-89738094D01*
X155038809Y-89738094D02*
X155134047Y-89785713D01*
%TO.C,R5*%
X154988991Y-102471160D02*
X154655603Y-101994891D01*
X154417468Y-102471160D02*
X154417468Y-101470995D01*
X154417468Y-101470995D02*
X154798483Y-101470995D01*
X154798483Y-101470995D02*
X154893737Y-101518622D01*
X154893737Y-101518622D02*
X154941364Y-101566249D01*
X154941364Y-101566249D02*
X154988991Y-101661503D01*
X154988991Y-101661503D02*
X154988991Y-101804384D01*
X154988991Y-101804384D02*
X154941364Y-101899638D01*
X154941364Y-101899638D02*
X154893737Y-101947264D01*
X154893737Y-101947264D02*
X154798483Y-101994891D01*
X154798483Y-101994891D02*
X154417468Y-101994891D01*
X155893902Y-101470995D02*
X155417633Y-101470995D01*
X155417633Y-101470995D02*
X155370006Y-101947264D01*
X155370006Y-101947264D02*
X155417633Y-101899638D01*
X155417633Y-101899638D02*
X155512887Y-101852011D01*
X155512887Y-101852011D02*
X155751021Y-101852011D01*
X155751021Y-101852011D02*
X155846275Y-101899638D01*
X155846275Y-101899638D02*
X155893902Y-101947264D01*
X155893902Y-101947264D02*
X155941529Y-102042518D01*
X155941529Y-102042518D02*
X155941529Y-102280653D01*
X155941529Y-102280653D02*
X155893902Y-102375907D01*
X155893902Y-102375907D02*
X155846275Y-102423534D01*
X155846275Y-102423534D02*
X155751021Y-102471160D01*
X155751021Y-102471160D02*
X155512887Y-102471160D01*
X155512887Y-102471160D02*
X155417633Y-102423534D01*
X155417633Y-102423534D02*
X155370006Y-102375907D01*
%TO.C,H2*%
X176238095Y-108012619D02*
X176238095Y-107012619D01*
X176238095Y-107488809D02*
X176809523Y-107488809D01*
X176809523Y-108012619D02*
X176809523Y-107012619D01*
X177238095Y-107107857D02*
X177285714Y-107060238D01*
X177285714Y-107060238D02*
X177380952Y-107012619D01*
X177380952Y-107012619D02*
X177619047Y-107012619D01*
X177619047Y-107012619D02*
X177714285Y-107060238D01*
X177714285Y-107060238D02*
X177761904Y-107107857D01*
X177761904Y-107107857D02*
X177809523Y-107203095D01*
X177809523Y-107203095D02*
X177809523Y-107298333D01*
X177809523Y-107298333D02*
X177761904Y-107441190D01*
X177761904Y-107441190D02*
X177190476Y-108012619D01*
X177190476Y-108012619D02*
X177809523Y-108012619D01*
%TO.C,C6*%
X169058333Y-90867380D02*
X169010714Y-90915000D01*
X169010714Y-90915000D02*
X168867857Y-90962619D01*
X168867857Y-90962619D02*
X168772619Y-90962619D01*
X168772619Y-90962619D02*
X168629762Y-90915000D01*
X168629762Y-90915000D02*
X168534524Y-90819761D01*
X168534524Y-90819761D02*
X168486905Y-90724523D01*
X168486905Y-90724523D02*
X168439286Y-90534047D01*
X168439286Y-90534047D02*
X168439286Y-90391190D01*
X168439286Y-90391190D02*
X168486905Y-90200714D01*
X168486905Y-90200714D02*
X168534524Y-90105476D01*
X168534524Y-90105476D02*
X168629762Y-90010238D01*
X168629762Y-90010238D02*
X168772619Y-89962619D01*
X168772619Y-89962619D02*
X168867857Y-89962619D01*
X168867857Y-89962619D02*
X169010714Y-90010238D01*
X169010714Y-90010238D02*
X169058333Y-90057857D01*
X169915476Y-89962619D02*
X169725000Y-89962619D01*
X169725000Y-89962619D02*
X169629762Y-90010238D01*
X169629762Y-90010238D02*
X169582143Y-90057857D01*
X169582143Y-90057857D02*
X169486905Y-90200714D01*
X169486905Y-90200714D02*
X169439286Y-90391190D01*
X169439286Y-90391190D02*
X169439286Y-90772142D01*
X169439286Y-90772142D02*
X169486905Y-90867380D01*
X169486905Y-90867380D02*
X169534524Y-90915000D01*
X169534524Y-90915000D02*
X169629762Y-90962619D01*
X169629762Y-90962619D02*
X169820238Y-90962619D01*
X169820238Y-90962619D02*
X169915476Y-90915000D01*
X169915476Y-90915000D02*
X169963095Y-90867380D01*
X169963095Y-90867380D02*
X170010714Y-90772142D01*
X170010714Y-90772142D02*
X170010714Y-90534047D01*
X170010714Y-90534047D02*
X169963095Y-90438809D01*
X169963095Y-90438809D02*
X169915476Y-90391190D01*
X169915476Y-90391190D02*
X169820238Y-90343571D01*
X169820238Y-90343571D02*
X169629762Y-90343571D01*
X169629762Y-90343571D02*
X169534524Y-90391190D01*
X169534524Y-90391190D02*
X169486905Y-90438809D01*
X169486905Y-90438809D02*
X169439286Y-90534047D01*
%TO.C,C2*%
X149817380Y-105366666D02*
X149865000Y-105414285D01*
X149865000Y-105414285D02*
X149912619Y-105557142D01*
X149912619Y-105557142D02*
X149912619Y-105652380D01*
X149912619Y-105652380D02*
X149865000Y-105795237D01*
X149865000Y-105795237D02*
X149769761Y-105890475D01*
X149769761Y-105890475D02*
X149674523Y-105938094D01*
X149674523Y-105938094D02*
X149484047Y-105985713D01*
X149484047Y-105985713D02*
X149341190Y-105985713D01*
X149341190Y-105985713D02*
X149150714Y-105938094D01*
X149150714Y-105938094D02*
X149055476Y-105890475D01*
X149055476Y-105890475D02*
X148960238Y-105795237D01*
X148960238Y-105795237D02*
X148912619Y-105652380D01*
X148912619Y-105652380D02*
X148912619Y-105557142D01*
X148912619Y-105557142D02*
X148960238Y-105414285D01*
X148960238Y-105414285D02*
X149007857Y-105366666D01*
X149007857Y-104985713D02*
X148960238Y-104938094D01*
X148960238Y-104938094D02*
X148912619Y-104842856D01*
X148912619Y-104842856D02*
X148912619Y-104604761D01*
X148912619Y-104604761D02*
X148960238Y-104509523D01*
X148960238Y-104509523D02*
X149007857Y-104461904D01*
X149007857Y-104461904D02*
X149103095Y-104414285D01*
X149103095Y-104414285D02*
X149198333Y-104414285D01*
X149198333Y-104414285D02*
X149341190Y-104461904D01*
X149341190Y-104461904D02*
X149912619Y-105033332D01*
X149912619Y-105033332D02*
X149912619Y-104414285D01*
%TO.C,C9*%
X140187380Y-92016666D02*
X140235000Y-92064285D01*
X140235000Y-92064285D02*
X140282619Y-92207142D01*
X140282619Y-92207142D02*
X140282619Y-92302380D01*
X140282619Y-92302380D02*
X140235000Y-92445237D01*
X140235000Y-92445237D02*
X140139761Y-92540475D01*
X140139761Y-92540475D02*
X140044523Y-92588094D01*
X140044523Y-92588094D02*
X139854047Y-92635713D01*
X139854047Y-92635713D02*
X139711190Y-92635713D01*
X139711190Y-92635713D02*
X139520714Y-92588094D01*
X139520714Y-92588094D02*
X139425476Y-92540475D01*
X139425476Y-92540475D02*
X139330238Y-92445237D01*
X139330238Y-92445237D02*
X139282619Y-92302380D01*
X139282619Y-92302380D02*
X139282619Y-92207142D01*
X139282619Y-92207142D02*
X139330238Y-92064285D01*
X139330238Y-92064285D02*
X139377857Y-92016666D01*
X140282619Y-91540475D02*
X140282619Y-91349999D01*
X140282619Y-91349999D02*
X140235000Y-91254761D01*
X140235000Y-91254761D02*
X140187380Y-91207142D01*
X140187380Y-91207142D02*
X140044523Y-91111904D01*
X140044523Y-91111904D02*
X139854047Y-91064285D01*
X139854047Y-91064285D02*
X139473095Y-91064285D01*
X139473095Y-91064285D02*
X139377857Y-91111904D01*
X139377857Y-91111904D02*
X139330238Y-91159523D01*
X139330238Y-91159523D02*
X139282619Y-91254761D01*
X139282619Y-91254761D02*
X139282619Y-91445237D01*
X139282619Y-91445237D02*
X139330238Y-91540475D01*
X139330238Y-91540475D02*
X139377857Y-91588094D01*
X139377857Y-91588094D02*
X139473095Y-91635713D01*
X139473095Y-91635713D02*
X139711190Y-91635713D01*
X139711190Y-91635713D02*
X139806428Y-91588094D01*
X139806428Y-91588094D02*
X139854047Y-91540475D01*
X139854047Y-91540475D02*
X139901666Y-91445237D01*
X139901666Y-91445237D02*
X139901666Y-91254761D01*
X139901666Y-91254761D02*
X139854047Y-91159523D01*
X139854047Y-91159523D02*
X139806428Y-91111904D01*
X139806428Y-91111904D02*
X139711190Y-91064285D01*
%TO.C,VR1*%
X144190476Y-96962619D02*
X144523809Y-97962619D01*
X144523809Y-97962619D02*
X144857142Y-96962619D01*
X145761904Y-97962619D02*
X145428571Y-97486428D01*
X145190476Y-97962619D02*
X145190476Y-96962619D01*
X145190476Y-96962619D02*
X145571428Y-96962619D01*
X145571428Y-96962619D02*
X145666666Y-97010238D01*
X145666666Y-97010238D02*
X145714285Y-97057857D01*
X145714285Y-97057857D02*
X145761904Y-97153095D01*
X145761904Y-97153095D02*
X145761904Y-97295952D01*
X145761904Y-97295952D02*
X145714285Y-97391190D01*
X145714285Y-97391190D02*
X145666666Y-97438809D01*
X145666666Y-97438809D02*
X145571428Y-97486428D01*
X145571428Y-97486428D02*
X145190476Y-97486428D01*
X146714285Y-97962619D02*
X146142857Y-97962619D01*
X146428571Y-97962619D02*
X146428571Y-96962619D01*
X146428571Y-96962619D02*
X146333333Y-97105476D01*
X146333333Y-97105476D02*
X146238095Y-97200714D01*
X146238095Y-97200714D02*
X146142857Y-97248333D01*
%TO.C,C1*%
X161583333Y-103797380D02*
X161535714Y-103845000D01*
X161535714Y-103845000D02*
X161392857Y-103892619D01*
X161392857Y-103892619D02*
X161297619Y-103892619D01*
X161297619Y-103892619D02*
X161154762Y-103845000D01*
X161154762Y-103845000D02*
X161059524Y-103749761D01*
X161059524Y-103749761D02*
X161011905Y-103654523D01*
X161011905Y-103654523D02*
X160964286Y-103464047D01*
X160964286Y-103464047D02*
X160964286Y-103321190D01*
X160964286Y-103321190D02*
X161011905Y-103130714D01*
X161011905Y-103130714D02*
X161059524Y-103035476D01*
X161059524Y-103035476D02*
X161154762Y-102940238D01*
X161154762Y-102940238D02*
X161297619Y-102892619D01*
X161297619Y-102892619D02*
X161392857Y-102892619D01*
X161392857Y-102892619D02*
X161535714Y-102940238D01*
X161535714Y-102940238D02*
X161583333Y-102987857D01*
X162535714Y-103892619D02*
X161964286Y-103892619D01*
X162250000Y-103892619D02*
X162250000Y-102892619D01*
X162250000Y-102892619D02*
X162154762Y-103035476D01*
X162154762Y-103035476D02*
X162059524Y-103130714D01*
X162059524Y-103130714D02*
X161964286Y-103178333D01*
%TO.C,C3*%
X144517380Y-105366666D02*
X144565000Y-105414285D01*
X144565000Y-105414285D02*
X144612619Y-105557142D01*
X144612619Y-105557142D02*
X144612619Y-105652380D01*
X144612619Y-105652380D02*
X144565000Y-105795237D01*
X144565000Y-105795237D02*
X144469761Y-105890475D01*
X144469761Y-105890475D02*
X144374523Y-105938094D01*
X144374523Y-105938094D02*
X144184047Y-105985713D01*
X144184047Y-105985713D02*
X144041190Y-105985713D01*
X144041190Y-105985713D02*
X143850714Y-105938094D01*
X143850714Y-105938094D02*
X143755476Y-105890475D01*
X143755476Y-105890475D02*
X143660238Y-105795237D01*
X143660238Y-105795237D02*
X143612619Y-105652380D01*
X143612619Y-105652380D02*
X143612619Y-105557142D01*
X143612619Y-105557142D02*
X143660238Y-105414285D01*
X143660238Y-105414285D02*
X143707857Y-105366666D01*
X143612619Y-105033332D02*
X143612619Y-104414285D01*
X143612619Y-104414285D02*
X143993571Y-104747618D01*
X143993571Y-104747618D02*
X143993571Y-104604761D01*
X143993571Y-104604761D02*
X144041190Y-104509523D01*
X144041190Y-104509523D02*
X144088809Y-104461904D01*
X144088809Y-104461904D02*
X144184047Y-104414285D01*
X144184047Y-104414285D02*
X144422142Y-104414285D01*
X144422142Y-104414285D02*
X144517380Y-104461904D01*
X144517380Y-104461904D02*
X144565000Y-104509523D01*
X144565000Y-104509523D02*
X144612619Y-104604761D01*
X144612619Y-104604761D02*
X144612619Y-104890475D01*
X144612619Y-104890475D02*
X144565000Y-104985713D01*
X144565000Y-104985713D02*
X144517380Y-105033332D01*
%TO.C,C7*%
X144333333Y-89937380D02*
X144285714Y-89985000D01*
X144285714Y-89985000D02*
X144142857Y-90032619D01*
X144142857Y-90032619D02*
X144047619Y-90032619D01*
X144047619Y-90032619D02*
X143904762Y-89985000D01*
X143904762Y-89985000D02*
X143809524Y-89889761D01*
X143809524Y-89889761D02*
X143761905Y-89794523D01*
X143761905Y-89794523D02*
X143714286Y-89604047D01*
X143714286Y-89604047D02*
X143714286Y-89461190D01*
X143714286Y-89461190D02*
X143761905Y-89270714D01*
X143761905Y-89270714D02*
X143809524Y-89175476D01*
X143809524Y-89175476D02*
X143904762Y-89080238D01*
X143904762Y-89080238D02*
X144047619Y-89032619D01*
X144047619Y-89032619D02*
X144142857Y-89032619D01*
X144142857Y-89032619D02*
X144285714Y-89080238D01*
X144285714Y-89080238D02*
X144333333Y-89127857D01*
X144666667Y-89032619D02*
X145333333Y-89032619D01*
X145333333Y-89032619D02*
X144904762Y-90032619D01*
%TO.C,J1*%
X129166666Y-106212619D02*
X129166666Y-106926904D01*
X129166666Y-106926904D02*
X129119047Y-107069761D01*
X129119047Y-107069761D02*
X129023809Y-107165000D01*
X129023809Y-107165000D02*
X128880952Y-107212619D01*
X128880952Y-107212619D02*
X128785714Y-107212619D01*
X130166666Y-107212619D02*
X129595238Y-107212619D01*
X129880952Y-107212619D02*
X129880952Y-106212619D01*
X129880952Y-106212619D02*
X129785714Y-106355476D01*
X129785714Y-106355476D02*
X129690476Y-106450714D01*
X129690476Y-106450714D02*
X129595238Y-106498333D01*
%TO.C,D1*%
X149261905Y-101462619D02*
X149261905Y-100462619D01*
X149261905Y-100462619D02*
X149500000Y-100462619D01*
X149500000Y-100462619D02*
X149642857Y-100510238D01*
X149642857Y-100510238D02*
X149738095Y-100605476D01*
X149738095Y-100605476D02*
X149785714Y-100700714D01*
X149785714Y-100700714D02*
X149833333Y-100891190D01*
X149833333Y-100891190D02*
X149833333Y-101034047D01*
X149833333Y-101034047D02*
X149785714Y-101224523D01*
X149785714Y-101224523D02*
X149738095Y-101319761D01*
X149738095Y-101319761D02*
X149642857Y-101415000D01*
X149642857Y-101415000D02*
X149500000Y-101462619D01*
X149500000Y-101462619D02*
X149261905Y-101462619D01*
X150785714Y-101462619D02*
X150214286Y-101462619D01*
X150500000Y-101462619D02*
X150500000Y-100462619D01*
X150500000Y-100462619D02*
X150404762Y-100605476D01*
X150404762Y-100605476D02*
X150309524Y-100700714D01*
X150309524Y-100700714D02*
X150214286Y-100748333D01*
%TO.C,C10*%
X144967380Y-111142857D02*
X145015000Y-111190476D01*
X145015000Y-111190476D02*
X145062619Y-111333333D01*
X145062619Y-111333333D02*
X145062619Y-111428571D01*
X145062619Y-111428571D02*
X145015000Y-111571428D01*
X145015000Y-111571428D02*
X144919761Y-111666666D01*
X144919761Y-111666666D02*
X144824523Y-111714285D01*
X144824523Y-111714285D02*
X144634047Y-111761904D01*
X144634047Y-111761904D02*
X144491190Y-111761904D01*
X144491190Y-111761904D02*
X144300714Y-111714285D01*
X144300714Y-111714285D02*
X144205476Y-111666666D01*
X144205476Y-111666666D02*
X144110238Y-111571428D01*
X144110238Y-111571428D02*
X144062619Y-111428571D01*
X144062619Y-111428571D02*
X144062619Y-111333333D01*
X144062619Y-111333333D02*
X144110238Y-111190476D01*
X144110238Y-111190476D02*
X144157857Y-111142857D01*
X145062619Y-110190476D02*
X145062619Y-110761904D01*
X145062619Y-110476190D02*
X144062619Y-110476190D01*
X144062619Y-110476190D02*
X144205476Y-110571428D01*
X144205476Y-110571428D02*
X144300714Y-110666666D01*
X144300714Y-110666666D02*
X144348333Y-110761904D01*
X144062619Y-109571428D02*
X144062619Y-109476190D01*
X144062619Y-109476190D02*
X144110238Y-109380952D01*
X144110238Y-109380952D02*
X144157857Y-109333333D01*
X144157857Y-109333333D02*
X144253095Y-109285714D01*
X144253095Y-109285714D02*
X144443571Y-109238095D01*
X144443571Y-109238095D02*
X144681666Y-109238095D01*
X144681666Y-109238095D02*
X144872142Y-109285714D01*
X144872142Y-109285714D02*
X144967380Y-109333333D01*
X144967380Y-109333333D02*
X145015000Y-109380952D01*
X145015000Y-109380952D02*
X145062619Y-109476190D01*
X145062619Y-109476190D02*
X145062619Y-109571428D01*
X145062619Y-109571428D02*
X145015000Y-109666666D01*
X145015000Y-109666666D02*
X144967380Y-109714285D01*
X144967380Y-109714285D02*
X144872142Y-109761904D01*
X144872142Y-109761904D02*
X144681666Y-109809523D01*
X144681666Y-109809523D02*
X144443571Y-109809523D01*
X144443571Y-109809523D02*
X144253095Y-109761904D01*
X144253095Y-109761904D02*
X144157857Y-109714285D01*
X144157857Y-109714285D02*
X144110238Y-109666666D01*
X144110238Y-109666666D02*
X144062619Y-109571428D01*
%TO.C,U1*%
X167838095Y-86737619D02*
X167838095Y-87547142D01*
X167838095Y-87547142D02*
X167885714Y-87642380D01*
X167885714Y-87642380D02*
X167933333Y-87690000D01*
X167933333Y-87690000D02*
X168028571Y-87737619D01*
X168028571Y-87737619D02*
X168219047Y-87737619D01*
X168219047Y-87737619D02*
X168314285Y-87690000D01*
X168314285Y-87690000D02*
X168361904Y-87642380D01*
X168361904Y-87642380D02*
X168409523Y-87547142D01*
X168409523Y-87547142D02*
X168409523Y-86737619D01*
X169409523Y-87737619D02*
X168838095Y-87737619D01*
X169123809Y-87737619D02*
X169123809Y-86737619D01*
X169123809Y-86737619D02*
X169028571Y-86880476D01*
X169028571Y-86880476D02*
X168933333Y-86975714D01*
X168933333Y-86975714D02*
X168838095Y-87023333D01*
%TO.C,U3*%
X167488095Y-94712619D02*
X167488095Y-95522142D01*
X167488095Y-95522142D02*
X167535714Y-95617380D01*
X167535714Y-95617380D02*
X167583333Y-95665000D01*
X167583333Y-95665000D02*
X167678571Y-95712619D01*
X167678571Y-95712619D02*
X167869047Y-95712619D01*
X167869047Y-95712619D02*
X167964285Y-95665000D01*
X167964285Y-95665000D02*
X168011904Y-95617380D01*
X168011904Y-95617380D02*
X168059523Y-95522142D01*
X168059523Y-95522142D02*
X168059523Y-94712619D01*
X168440476Y-94712619D02*
X169059523Y-94712619D01*
X169059523Y-94712619D02*
X168726190Y-95093571D01*
X168726190Y-95093571D02*
X168869047Y-95093571D01*
X168869047Y-95093571D02*
X168964285Y-95141190D01*
X168964285Y-95141190D02*
X169011904Y-95188809D01*
X169011904Y-95188809D02*
X169059523Y-95284047D01*
X169059523Y-95284047D02*
X169059523Y-95522142D01*
X169059523Y-95522142D02*
X169011904Y-95617380D01*
X169011904Y-95617380D02*
X168964285Y-95665000D01*
X168964285Y-95665000D02*
X168869047Y-95712619D01*
X168869047Y-95712619D02*
X168583333Y-95712619D01*
X168583333Y-95712619D02*
X168488095Y-95665000D01*
X168488095Y-95665000D02*
X168440476Y-95617380D01*
%TO.C,C4*%
X170083333Y-107047380D02*
X170035714Y-107095000D01*
X170035714Y-107095000D02*
X169892857Y-107142619D01*
X169892857Y-107142619D02*
X169797619Y-107142619D01*
X169797619Y-107142619D02*
X169654762Y-107095000D01*
X169654762Y-107095000D02*
X169559524Y-106999761D01*
X169559524Y-106999761D02*
X169511905Y-106904523D01*
X169511905Y-106904523D02*
X169464286Y-106714047D01*
X169464286Y-106714047D02*
X169464286Y-106571190D01*
X169464286Y-106571190D02*
X169511905Y-106380714D01*
X169511905Y-106380714D02*
X169559524Y-106285476D01*
X169559524Y-106285476D02*
X169654762Y-106190238D01*
X169654762Y-106190238D02*
X169797619Y-106142619D01*
X169797619Y-106142619D02*
X169892857Y-106142619D01*
X169892857Y-106142619D02*
X170035714Y-106190238D01*
X170035714Y-106190238D02*
X170083333Y-106237857D01*
X170940476Y-106475952D02*
X170940476Y-107142619D01*
X170702381Y-106095000D02*
X170464286Y-106809285D01*
X170464286Y-106809285D02*
X171083333Y-106809285D01*
%TO.C,U2*%
X165238095Y-87712619D02*
X165238095Y-88522142D01*
X165238095Y-88522142D02*
X165285714Y-88617380D01*
X165285714Y-88617380D02*
X165333333Y-88665000D01*
X165333333Y-88665000D02*
X165428571Y-88712619D01*
X165428571Y-88712619D02*
X165619047Y-88712619D01*
X165619047Y-88712619D02*
X165714285Y-88665000D01*
X165714285Y-88665000D02*
X165761904Y-88617380D01*
X165761904Y-88617380D02*
X165809523Y-88522142D01*
X165809523Y-88522142D02*
X165809523Y-87712619D01*
X166238095Y-87807857D02*
X166285714Y-87760238D01*
X166285714Y-87760238D02*
X166380952Y-87712619D01*
X166380952Y-87712619D02*
X166619047Y-87712619D01*
X166619047Y-87712619D02*
X166714285Y-87760238D01*
X166714285Y-87760238D02*
X166761904Y-87807857D01*
X166761904Y-87807857D02*
X166809523Y-87903095D01*
X166809523Y-87903095D02*
X166809523Y-87998333D01*
X166809523Y-87998333D02*
X166761904Y-88141190D01*
X166761904Y-88141190D02*
X166190476Y-88712619D01*
X166190476Y-88712619D02*
X166809523Y-88712619D01*
%TO.C,C8*%
X140117380Y-96816666D02*
X140165000Y-96864285D01*
X140165000Y-96864285D02*
X140212619Y-97007142D01*
X140212619Y-97007142D02*
X140212619Y-97102380D01*
X140212619Y-97102380D02*
X140165000Y-97245237D01*
X140165000Y-97245237D02*
X140069761Y-97340475D01*
X140069761Y-97340475D02*
X139974523Y-97388094D01*
X139974523Y-97388094D02*
X139784047Y-97435713D01*
X139784047Y-97435713D02*
X139641190Y-97435713D01*
X139641190Y-97435713D02*
X139450714Y-97388094D01*
X139450714Y-97388094D02*
X139355476Y-97340475D01*
X139355476Y-97340475D02*
X139260238Y-97245237D01*
X139260238Y-97245237D02*
X139212619Y-97102380D01*
X139212619Y-97102380D02*
X139212619Y-97007142D01*
X139212619Y-97007142D02*
X139260238Y-96864285D01*
X139260238Y-96864285D02*
X139307857Y-96816666D01*
X139641190Y-96245237D02*
X139593571Y-96340475D01*
X139593571Y-96340475D02*
X139545952Y-96388094D01*
X139545952Y-96388094D02*
X139450714Y-96435713D01*
X139450714Y-96435713D02*
X139403095Y-96435713D01*
X139403095Y-96435713D02*
X139307857Y-96388094D01*
X139307857Y-96388094D02*
X139260238Y-96340475D01*
X139260238Y-96340475D02*
X139212619Y-96245237D01*
X139212619Y-96245237D02*
X139212619Y-96054761D01*
X139212619Y-96054761D02*
X139260238Y-95959523D01*
X139260238Y-95959523D02*
X139307857Y-95911904D01*
X139307857Y-95911904D02*
X139403095Y-95864285D01*
X139403095Y-95864285D02*
X139450714Y-95864285D01*
X139450714Y-95864285D02*
X139545952Y-95911904D01*
X139545952Y-95911904D02*
X139593571Y-95959523D01*
X139593571Y-95959523D02*
X139641190Y-96054761D01*
X139641190Y-96054761D02*
X139641190Y-96245237D01*
X139641190Y-96245237D02*
X139688809Y-96340475D01*
X139688809Y-96340475D02*
X139736428Y-96388094D01*
X139736428Y-96388094D02*
X139831666Y-96435713D01*
X139831666Y-96435713D02*
X140022142Y-96435713D01*
X140022142Y-96435713D02*
X140117380Y-96388094D01*
X140117380Y-96388094D02*
X140165000Y-96340475D01*
X140165000Y-96340475D02*
X140212619Y-96245237D01*
X140212619Y-96245237D02*
X140212619Y-96054761D01*
X140212619Y-96054761D02*
X140165000Y-95959523D01*
X140165000Y-95959523D02*
X140117380Y-95911904D01*
X140117380Y-95911904D02*
X140022142Y-95864285D01*
X140022142Y-95864285D02*
X139831666Y-95864285D01*
X139831666Y-95864285D02*
X139736428Y-95911904D01*
X139736428Y-95911904D02*
X139688809Y-95959523D01*
X139688809Y-95959523D02*
X139641190Y-96054761D01*
%TO.C,C5*%
X163583333Y-92617380D02*
X163535714Y-92665000D01*
X163535714Y-92665000D02*
X163392857Y-92712619D01*
X163392857Y-92712619D02*
X163297619Y-92712619D01*
X163297619Y-92712619D02*
X163154762Y-92665000D01*
X163154762Y-92665000D02*
X163059524Y-92569761D01*
X163059524Y-92569761D02*
X163011905Y-92474523D01*
X163011905Y-92474523D02*
X162964286Y-92284047D01*
X162964286Y-92284047D02*
X162964286Y-92141190D01*
X162964286Y-92141190D02*
X163011905Y-91950714D01*
X163011905Y-91950714D02*
X163059524Y-91855476D01*
X163059524Y-91855476D02*
X163154762Y-91760238D01*
X163154762Y-91760238D02*
X163297619Y-91712619D01*
X163297619Y-91712619D02*
X163392857Y-91712619D01*
X163392857Y-91712619D02*
X163535714Y-91760238D01*
X163535714Y-91760238D02*
X163583333Y-91807857D01*
X164488095Y-91712619D02*
X164011905Y-91712619D01*
X164011905Y-91712619D02*
X163964286Y-92188809D01*
X163964286Y-92188809D02*
X164011905Y-92141190D01*
X164011905Y-92141190D02*
X164107143Y-92093571D01*
X164107143Y-92093571D02*
X164345238Y-92093571D01*
X164345238Y-92093571D02*
X164440476Y-92141190D01*
X164440476Y-92141190D02*
X164488095Y-92188809D01*
X164488095Y-92188809D02*
X164535714Y-92284047D01*
X164535714Y-92284047D02*
X164535714Y-92522142D01*
X164535714Y-92522142D02*
X164488095Y-92617380D01*
X164488095Y-92617380D02*
X164440476Y-92665000D01*
X164440476Y-92665000D02*
X164345238Y-92712619D01*
X164345238Y-92712619D02*
X164107143Y-92712619D01*
X164107143Y-92712619D02*
X164011905Y-92665000D01*
X164011905Y-92665000D02*
X163964286Y-92617380D01*
D12*
%TO.C,J7*%
X146560000Y-83410000D02*
X146560000Y-75590000D01*
X146560000Y-81810000D02*
X145640000Y-81810000D01*
X146560000Y-75590000D02*
X136440000Y-75590000D01*
X145800000Y-79450000D02*
X145800000Y-77850000D01*
X145800000Y-77850000D02*
X144800000Y-77850000D01*
X145640000Y-83410000D02*
X146560000Y-83410000D01*
X145640000Y-81810000D02*
X145640000Y-83410000D01*
X145360000Y-81810000D02*
X145640000Y-81810000D01*
X145360000Y-81810000D02*
X145360000Y-83025000D01*
X145300000Y-77850000D02*
X145300000Y-75590000D01*
X144800000Y-79450000D02*
X145800000Y-79450000D01*
X144800000Y-77850000D02*
X144800000Y-79450000D01*
X144800000Y-77850000D02*
X144800000Y-75590000D01*
X144000000Y-79950000D02*
X139000000Y-79950000D01*
X144000000Y-75590000D02*
X144000000Y-79950000D01*
X139000000Y-79950000D02*
X139000000Y-75590000D01*
X138200000Y-79450000D02*
X137200000Y-79450000D01*
X138200000Y-77850000D02*
X138200000Y-79450000D01*
X137360000Y-83410000D02*
X137360000Y-81810000D01*
X137360000Y-81810000D02*
X137640000Y-81810000D01*
X137200000Y-79450000D02*
X137200000Y-77850000D01*
X137200000Y-77850000D02*
X138200000Y-77850000D01*
X136440000Y-83410000D02*
X137360000Y-83410000D01*
X136440000Y-81810000D02*
X137360000Y-81810000D01*
X136440000Y-75590000D02*
X136440000Y-83410000D01*
%TO.C,JP1*%
X161000000Y-80200000D02*
X161000000Y-79600000D01*
X161700000Y-78900000D02*
X163100000Y-78900000D01*
X163100000Y-80900000D02*
X161700000Y-80900000D01*
X163800000Y-79600000D02*
X163800000Y-80200000D01*
X161700000Y-78900000D02*
G75*
G03*
X161000000Y-79600000I-1J-699999D01*
G01*
X161000000Y-80200000D02*
G75*
G03*
X161700000Y-80900000I699999J-1D01*
G01*
X163800000Y-79600000D02*
G75*
G03*
X163100000Y-78900000I-700000J0D01*
G01*
X163100000Y-80900000D02*
G75*
G03*
X163800000Y-80200000I0J700000D01*
G01*
%TO.C,J4*%
X160700000Y-108670000D02*
X160700000Y-110000000D01*
X159370000Y-108670000D02*
X160700000Y-108670000D01*
X158100000Y-108670000D02*
X147880000Y-108670000D01*
X158100000Y-108670000D02*
X158100000Y-111270000D01*
X147880000Y-108670000D02*
X147880000Y-113870000D01*
X160700000Y-111270000D02*
X160700000Y-113870000D01*
X158100000Y-111270000D02*
X160700000Y-111270000D01*
X160700000Y-113870000D02*
X147880000Y-113870000D01*
%TO.C,R4*%
X161662258Y-97772500D02*
X161187742Y-97772500D01*
X161662258Y-96727500D02*
X161187742Y-96727500D01*
%TO.C,R3*%
X161487258Y-99772500D02*
X161012742Y-99772500D01*
X161487258Y-98727500D02*
X161012742Y-98727500D01*
%TO.C,JP3*%
X161000000Y-77700000D02*
X161000000Y-77100000D01*
X161700000Y-76400000D02*
X163100000Y-76400000D01*
X163100000Y-78400000D02*
X161700000Y-78400000D01*
X163800000Y-77100000D02*
X163800000Y-77700000D01*
X161700000Y-76400000D02*
G75*
G03*
X161000000Y-77100000I-1J-699999D01*
G01*
X161000000Y-77700000D02*
G75*
G03*
X161700000Y-78400000I699999J-1D01*
G01*
X163800000Y-77100000D02*
G75*
G03*
X163100000Y-76400000I-700000J0D01*
G01*
X163100000Y-78400000D02*
G75*
G03*
X163800000Y-77700000I0J700000D01*
G01*
%TO.C,R6*%
X154627500Y-87737258D02*
X154627500Y-87262742D01*
X155672500Y-87737258D02*
X155672500Y-87262742D01*
%TO.C,J6*%
X172110000Y-80535000D02*
X171060000Y-80535000D01*
X172110000Y-78035000D02*
X172110000Y-80535000D01*
X171060000Y-80535000D02*
X171060000Y-81525000D01*
X170940000Y-76065000D02*
X167060000Y-76065000D01*
X165890000Y-80535000D02*
X166940000Y-80535000D01*
X165890000Y-78035000D02*
X165890000Y-80535000D01*
%TO.C,J3*%
X175730000Y-96955000D02*
X177000000Y-96955000D01*
X175730000Y-98225000D02*
X175730000Y-96955000D01*
X178042929Y-100385000D02*
X178440000Y-100385000D01*
X178042929Y-101145000D02*
X178440000Y-101145000D01*
X178042929Y-102925000D02*
X178440000Y-102925000D01*
X178042929Y-103685000D02*
X178440000Y-103685000D01*
X178110000Y-97845000D02*
X178440000Y-97845000D01*
X178110000Y-98605000D02*
X178440000Y-98605000D01*
X178440000Y-96895000D02*
X178440000Y-104635000D01*
X178440000Y-99495000D02*
X181100000Y-99495000D01*
X178440000Y-102035000D02*
X181100000Y-102035000D01*
X178440000Y-104635000D02*
X181100000Y-104635000D01*
X181100000Y-96895000D02*
X178440000Y-96895000D01*
X181100000Y-97845000D02*
X187100000Y-97845000D01*
X181100000Y-97905000D02*
X187100000Y-97905000D01*
X181100000Y-98025000D02*
X187100000Y-98025000D01*
X181100000Y-98145000D02*
X187100000Y-98145000D01*
X181100000Y-98265000D02*
X187100000Y-98265000D01*
X181100000Y-98385000D02*
X187100000Y-98385000D01*
X181100000Y-98505000D02*
X187100000Y-98505000D01*
X181100000Y-100385000D02*
X187100000Y-100385000D01*
X181100000Y-102925000D02*
X187100000Y-102925000D01*
X181100000Y-104635000D02*
X181100000Y-96895000D01*
X187100000Y-97845000D02*
X187100000Y-98605000D01*
X187100000Y-98605000D02*
X181100000Y-98605000D01*
X187100000Y-100385000D02*
X187100000Y-101145000D01*
X187100000Y-101145000D02*
X181100000Y-101145000D01*
X187100000Y-102925000D02*
X187100000Y-103685000D01*
X187100000Y-103685000D02*
X181100000Y-103685000D01*
D13*
%TO.C,R5*%
X156300000Y-100800000D02*
X153650000Y-100800000D01*
X156300000Y-97200000D02*
X153650000Y-97200000D01*
X153650000Y-100800000D02*
X153650000Y-100200000D01*
X153650000Y-97200000D02*
X153650000Y-97800000D01*
D14*
X158515670Y-100558000D02*
G75*
G03*
X158515670Y-100558000I-120000J0D01*
G01*
D12*
%TO.C,J5*%
X156530000Y-79420000D02*
X148850000Y-79420000D01*
X156530000Y-79420000D02*
X156530000Y-82080000D01*
X148850000Y-79420000D02*
X148850000Y-82080000D01*
X159130000Y-80750000D02*
X159130000Y-82080000D01*
X159130000Y-82080000D02*
X157800000Y-82080000D01*
X156530000Y-82080000D02*
X148850000Y-82080000D01*
%TO.C,C6*%
X168859420Y-88240000D02*
X169140580Y-88240000D01*
X168859420Y-89260000D02*
X169140580Y-89260000D01*
%TO.C,C2*%
X148410000Y-105009420D02*
X148410000Y-105290580D01*
X147390000Y-105009420D02*
X147390000Y-105290580D01*
%TO.C,C9*%
X140740000Y-91990580D02*
X140740000Y-91709420D01*
X141760000Y-91990580D02*
X141760000Y-91709420D01*
D13*
%TO.C,VR1*%
X143800000Y-92941000D02*
X145200000Y-92941000D01*
X145200000Y-92941000D02*
X145200000Y-93880000D01*
X145200000Y-96059000D02*
X143800000Y-96059000D01*
X145200000Y-96059000D02*
X145200000Y-95120000D01*
D15*
X141890000Y-93600000D02*
G75*
G03*
X141890000Y-93600000I-100000J0D01*
G01*
D12*
%TO.C,R2*%
X173912258Y-84222500D02*
X173437742Y-84222500D01*
X173912258Y-83177500D02*
X173437742Y-83177500D01*
%TO.C,J2*%
X175730000Y-86955000D02*
X177000000Y-86955000D01*
X175730000Y-88225000D02*
X175730000Y-86955000D01*
X178042929Y-90385000D02*
X178440000Y-90385000D01*
X178042929Y-91145000D02*
X178440000Y-91145000D01*
X178042929Y-92925000D02*
X178440000Y-92925000D01*
X178042929Y-93685000D02*
X178440000Y-93685000D01*
X178110000Y-87845000D02*
X178440000Y-87845000D01*
X178110000Y-88605000D02*
X178440000Y-88605000D01*
X178440000Y-86895000D02*
X178440000Y-94635000D01*
X178440000Y-89495000D02*
X181100000Y-89495000D01*
X178440000Y-92035000D02*
X181100000Y-92035000D01*
X178440000Y-94635000D02*
X181100000Y-94635000D01*
X181100000Y-86895000D02*
X178440000Y-86895000D01*
X181100000Y-87845000D02*
X187100000Y-87845000D01*
X181100000Y-87905000D02*
X187100000Y-87905000D01*
X181100000Y-88025000D02*
X187100000Y-88025000D01*
X181100000Y-88145000D02*
X187100000Y-88145000D01*
X181100000Y-88265000D02*
X187100000Y-88265000D01*
X181100000Y-88385000D02*
X187100000Y-88385000D01*
X181100000Y-88505000D02*
X187100000Y-88505000D01*
X181100000Y-90385000D02*
X187100000Y-90385000D01*
X181100000Y-92925000D02*
X187100000Y-92925000D01*
X181100000Y-94635000D02*
X181100000Y-86895000D01*
X187100000Y-87845000D02*
X187100000Y-88605000D01*
X187100000Y-88605000D02*
X181100000Y-88605000D01*
X187100000Y-90385000D02*
X187100000Y-91145000D01*
X187100000Y-91145000D02*
X181100000Y-91145000D01*
X187100000Y-92925000D02*
X187100000Y-93685000D01*
X187100000Y-93685000D02*
X181100000Y-93685000D01*
%TO.C,C1*%
X161890580Y-102510000D02*
X161609420Y-102510000D01*
X161890580Y-101490000D02*
X161609420Y-101490000D01*
%TO.C,R1*%
X173912258Y-85872500D02*
X173437742Y-85872500D01*
X173912258Y-84827500D02*
X173437742Y-84827500D01*
%TO.C,C11*%
X175510000Y-91959420D02*
X175510000Y-92240580D01*
X174490000Y-91959420D02*
X174490000Y-92240580D01*
%TO.C,C3*%
X146160000Y-105009420D02*
X146160000Y-105290580D01*
X145140000Y-105009420D02*
X145140000Y-105290580D01*
%TO.C,C7*%
X144359420Y-90490000D02*
X144640580Y-90490000D01*
X144359420Y-91510000D02*
X144640580Y-91510000D01*
%TO.C,C12*%
X175510000Y-101859420D02*
X175510000Y-102140580D01*
X174490000Y-101859420D02*
X174490000Y-102140580D01*
%TO.C,J1*%
X123712000Y-95992500D02*
X138412000Y-95992500D01*
X123712000Y-105192500D02*
X123712000Y-95992500D01*
X132512000Y-105192500D02*
X123712000Y-105192500D01*
X137562000Y-95792500D02*
X138612000Y-95792500D01*
X138412000Y-95992500D02*
X138412000Y-98592500D01*
X138412000Y-102492500D02*
X138412000Y-105192500D01*
X138412000Y-105192500D02*
X136512000Y-105192500D01*
X138612000Y-96842500D02*
X138612000Y-95792500D01*
%TO.C,D1*%
X148260000Y-102400000D02*
X148260000Y-99100000D01*
X148260000Y-102400000D02*
X142750000Y-102400000D01*
X148260000Y-99100000D02*
X142750000Y-99100000D01*
%TO.C,C10*%
X142039000Y-106999759D02*
X142039000Y-107629759D01*
X142354000Y-107314759D02*
X141724000Y-107314759D01*
X143430000Y-110500000D02*
X136970000Y-110500000D01*
X143430000Y-110540000D02*
X136970000Y-110540000D01*
X143430000Y-110580000D02*
X136970000Y-110580000D01*
X143428000Y-110620000D02*
X136972000Y-110620000D01*
X143427000Y-110660000D02*
X136973000Y-110660000D01*
X143424000Y-110700000D02*
X136976000Y-110700000D01*
X143422000Y-110740000D02*
X141240000Y-110740000D01*
X139160000Y-110740000D02*
X136978000Y-110740000D01*
X143418000Y-110780000D02*
X141240000Y-110780000D01*
X139160000Y-110780000D02*
X136982000Y-110780000D01*
X143415000Y-110820000D02*
X141240000Y-110820000D01*
X139160000Y-110820000D02*
X136985000Y-110820000D01*
X143411000Y-110860000D02*
X141240000Y-110860000D01*
X139160000Y-110860000D02*
X136989000Y-110860000D01*
X143406000Y-110900000D02*
X141240000Y-110900000D01*
X139160000Y-110900000D02*
X136994000Y-110900000D01*
X143401000Y-110940000D02*
X141240000Y-110940000D01*
X139160000Y-110940000D02*
X136999000Y-110940000D01*
X143395000Y-110980000D02*
X141240000Y-110980000D01*
X139160000Y-110980000D02*
X137005000Y-110980000D01*
X143389000Y-111020000D02*
X141240000Y-111020000D01*
X139160000Y-111020000D02*
X137011000Y-111020000D01*
X143382000Y-111060000D02*
X141240000Y-111060000D01*
X139160000Y-111060000D02*
X137018000Y-111060000D01*
X143375000Y-111100000D02*
X141240000Y-111100000D01*
X139160000Y-111100000D02*
X137025000Y-111100000D01*
X143367000Y-111140000D02*
X141240000Y-111140000D01*
X139160000Y-111140000D02*
X137033000Y-111140000D01*
X143359000Y-111180000D02*
X141240000Y-111180000D01*
X139160000Y-111180000D02*
X137041000Y-111180000D01*
X143350000Y-111221000D02*
X141240000Y-111221000D01*
X139160000Y-111221000D02*
X137050000Y-111221000D01*
X143341000Y-111261000D02*
X141240000Y-111261000D01*
X139160000Y-111261000D02*
X137059000Y-111261000D01*
X143331000Y-111301000D02*
X141240000Y-111301000D01*
X139160000Y-111301000D02*
X137069000Y-111301000D01*
X143321000Y-111341000D02*
X141240000Y-111341000D01*
X139160000Y-111341000D02*
X137079000Y-111341000D01*
X143310000Y-111381000D02*
X141240000Y-111381000D01*
X139160000Y-111381000D02*
X137090000Y-111381000D01*
X143298000Y-111421000D02*
X141240000Y-111421000D01*
X139160000Y-111421000D02*
X137102000Y-111421000D01*
X143286000Y-111461000D02*
X141240000Y-111461000D01*
X139160000Y-111461000D02*
X137114000Y-111461000D01*
X143274000Y-111501000D02*
X141240000Y-111501000D01*
X139160000Y-111501000D02*
X137126000Y-111501000D01*
X143261000Y-111541000D02*
X141240000Y-111541000D01*
X139160000Y-111541000D02*
X137139000Y-111541000D01*
X143247000Y-111581000D02*
X141240000Y-111581000D01*
X139160000Y-111581000D02*
X137153000Y-111581000D01*
X143233000Y-111621000D02*
X141240000Y-111621000D01*
X139160000Y-111621000D02*
X137167000Y-111621000D01*
X143218000Y-111661000D02*
X141240000Y-111661000D01*
X139160000Y-111661000D02*
X137182000Y-111661000D01*
X143202000Y-111701000D02*
X141240000Y-111701000D01*
X139160000Y-111701000D02*
X137198000Y-111701000D01*
X143186000Y-111741000D02*
X141240000Y-111741000D01*
X139160000Y-111741000D02*
X137214000Y-111741000D01*
X143170000Y-111781000D02*
X141240000Y-111781000D01*
X139160000Y-111781000D02*
X137230000Y-111781000D01*
X143152000Y-111821000D02*
X141240000Y-111821000D01*
X139160000Y-111821000D02*
X137248000Y-111821000D01*
X143134000Y-111861000D02*
X141240000Y-111861000D01*
X139160000Y-111861000D02*
X137266000Y-111861000D01*
X143116000Y-111901000D02*
X141240000Y-111901000D01*
X139160000Y-111901000D02*
X137284000Y-111901000D01*
X143096000Y-111941000D02*
X141240000Y-111941000D01*
X139160000Y-111941000D02*
X137304000Y-111941000D01*
X143076000Y-111981000D02*
X141240000Y-111981000D01*
X139160000Y-111981000D02*
X137324000Y-111981000D01*
X143056000Y-112021000D02*
X141240000Y-112021000D01*
X139160000Y-112021000D02*
X137344000Y-112021000D01*
X143034000Y-112061000D02*
X141240000Y-112061000D01*
X139160000Y-112061000D02*
X137366000Y-112061000D01*
X143012000Y-112101000D02*
X141240000Y-112101000D01*
X139160000Y-112101000D02*
X137388000Y-112101000D01*
X142990000Y-112141000D02*
X141240000Y-112141000D01*
X139160000Y-112141000D02*
X137410000Y-112141000D01*
X142966000Y-112181000D02*
X141240000Y-112181000D01*
X139160000Y-112181000D02*
X137434000Y-112181000D01*
X142942000Y-112221000D02*
X141240000Y-112221000D01*
X139160000Y-112221000D02*
X137458000Y-112221000D01*
X142916000Y-112261000D02*
X141240000Y-112261000D01*
X139160000Y-112261000D02*
X137484000Y-112261000D01*
X142890000Y-112301000D02*
X141240000Y-112301000D01*
X139160000Y-112301000D02*
X137510000Y-112301000D01*
X142864000Y-112341000D02*
X141240000Y-112341000D01*
X139160000Y-112341000D02*
X137536000Y-112341000D01*
X142836000Y-112381000D02*
X141240000Y-112381000D01*
X139160000Y-112381000D02*
X137564000Y-112381000D01*
X142807000Y-112421000D02*
X141240000Y-112421000D01*
X139160000Y-112421000D02*
X137593000Y-112421000D01*
X142778000Y-112461000D02*
X141240000Y-112461000D01*
X139160000Y-112461000D02*
X137622000Y-112461000D01*
X142748000Y-112501000D02*
X141240000Y-112501000D01*
X139160000Y-112501000D02*
X137652000Y-112501000D01*
X142716000Y-112541000D02*
X141240000Y-112541000D01*
X139160000Y-112541000D02*
X137684000Y-112541000D01*
X142684000Y-112581000D02*
X141240000Y-112581000D01*
X139160000Y-112581000D02*
X137716000Y-112581000D01*
X142650000Y-112621000D02*
X141240000Y-112621000D01*
X139160000Y-112621000D02*
X137750000Y-112621000D01*
X142616000Y-112661000D02*
X141240000Y-112661000D01*
X139160000Y-112661000D02*
X137784000Y-112661000D01*
X142580000Y-112701000D02*
X141240000Y-112701000D01*
X139160000Y-112701000D02*
X137820000Y-112701000D01*
X142543000Y-112741000D02*
X141240000Y-112741000D01*
X139160000Y-112741000D02*
X137857000Y-112741000D01*
X142505000Y-112781000D02*
X141240000Y-112781000D01*
X139160000Y-112781000D02*
X137895000Y-112781000D01*
X142465000Y-112821000D02*
X137935000Y-112821000D01*
X142424000Y-112861000D02*
X137976000Y-112861000D01*
X142382000Y-112901000D02*
X138018000Y-112901000D01*
X142337000Y-112941000D02*
X138063000Y-112941000D01*
X142292000Y-112981000D02*
X138108000Y-112981000D01*
X142244000Y-113021000D02*
X138156000Y-113021000D01*
X142195000Y-113061000D02*
X138205000Y-113061000D01*
X142144000Y-113101000D02*
X138256000Y-113101000D01*
X142090000Y-113141000D02*
X138310000Y-113141000D01*
X142034000Y-113181000D02*
X138366000Y-113181000D01*
X141976000Y-113221000D02*
X138424000Y-113221000D01*
X141914000Y-113261000D02*
X138486000Y-113261000D01*
X141850000Y-113301000D02*
X138550000Y-113301000D01*
X141781000Y-113341000D02*
X138619000Y-113341000D01*
X141709000Y-113381000D02*
X138691000Y-113381000D01*
X141632000Y-113421000D02*
X138768000Y-113421000D01*
X141550000Y-113461000D02*
X138850000Y-113461000D01*
X141462000Y-113501000D02*
X138938000Y-113501000D01*
X141365000Y-113541000D02*
X139035000Y-113541000D01*
X141259000Y-113581000D02*
X139141000Y-113581000D01*
X141140000Y-113621000D02*
X139260000Y-113621000D01*
X141002000Y-113661000D02*
X139398000Y-113661000D01*
X140833000Y-113701000D02*
X139567000Y-113701000D01*
X140602000Y-113741000D02*
X139798000Y-113741000D01*
X143470000Y-110500000D02*
G75*
G03*
X143470000Y-110500000I-3270000J0D01*
G01*
D10*
%TO.C,U1*%
X170225000Y-86350000D02*
X170225000Y-86225000D01*
X170225000Y-86350000D02*
X166975000Y-86350000D01*
X170225000Y-86225000D02*
X171300000Y-86225000D01*
X170225000Y-83100000D02*
X170225000Y-83325000D01*
X170225000Y-83100000D02*
X166975000Y-83100000D01*
X166975000Y-86350000D02*
X166975000Y-86125000D01*
X166975000Y-83100000D02*
X166975000Y-83325000D01*
D12*
%TO.C,U3*%
X164150000Y-96340000D02*
X170160000Y-96340000D01*
X166400000Y-103160000D02*
X170160000Y-103160000D01*
X170160000Y-96340000D02*
X170160000Y-97600000D01*
X170160000Y-103160000D02*
X170160000Y-101900000D01*
%TO.C,JP2*%
X161000000Y-82850000D02*
X161000000Y-82250000D01*
X161700000Y-81550000D02*
X163100000Y-81550000D01*
X163100000Y-83550000D02*
X161700000Y-83550000D01*
X163800000Y-82250000D02*
X163800000Y-82850000D01*
X161700000Y-81550000D02*
G75*
G03*
X161000000Y-82250000I-1J-699999D01*
G01*
X161000000Y-82850000D02*
G75*
G03*
X161700000Y-83550000I699999J-1D01*
G01*
X163800000Y-82250000D02*
G75*
G03*
X163100000Y-81550000I-700000J0D01*
G01*
X163100000Y-83550000D02*
G75*
G03*
X163800000Y-82850000I0J700000D01*
G01*
%TO.C,C4*%
X170390580Y-105760000D02*
X170109420Y-105760000D01*
X170390580Y-104740000D02*
X170109420Y-104740000D01*
%TO.C,U2*%
X162750000Y-85690000D02*
X160950000Y-85690000D01*
X162750000Y-85690000D02*
X163550000Y-85690000D01*
X162750000Y-88810000D02*
X161950000Y-88810000D01*
X162750000Y-88810000D02*
X163550000Y-88810000D01*
%TO.C,C8*%
X141760000Y-96409420D02*
X141760000Y-96690580D01*
X140740000Y-96409420D02*
X140740000Y-96690580D01*
%TO.C,C5*%
X163384420Y-89740000D02*
X163665580Y-89740000D01*
X163384420Y-90760000D02*
X163665580Y-90760000D01*
%TD*%
M02*
