%TF.GenerationSoftware,KiCad,Pcbnew,7.0.2-0*%
%TF.CreationDate,2024-01-05T14:45:17-05:00*%
%TF.ProjectId,WiringHarness,57697269-6e67-4486-9172-6e6573732e6b,rev?*%
%TF.SameCoordinates,Original*%
%TF.FileFunction,Soldermask,Bot*%
%TF.FilePolarity,Negative*%
%FSLAX46Y46*%
G04 Gerber Fmt 4.6, Leading zero omitted, Abs format (unit mm)*
G04 Created by KiCad (PCBNEW 7.0.2-0) date 2024-01-05 14:45:17*
%MOMM*%
%LPD*%
G01*
G04 APERTURE LIST*
G04 Aperture macros list*
%AMRoundRect*
0 Rectangle with rounded corners*
0 $1 Rounding radius*
0 $2 $3 $4 $5 $6 $7 $8 $9 X,Y pos of 4 corners*
0 Add a 4 corners polygon primitive as box body*
4,1,4,$2,$3,$4,$5,$6,$7,$8,$9,$2,$3,0*
0 Add four circle primitives for the rounded corners*
1,1,$1+$1,$2,$3*
1,1,$1+$1,$4,$5*
1,1,$1+$1,$6,$7*
1,1,$1+$1,$8,$9*
0 Add four rect primitives between the rounded corners*
20,1,$1+$1,$2,$3,$4,$5,0*
20,1,$1+$1,$4,$5,$6,$7,0*
20,1,$1+$1,$6,$7,$8,$9,0*
20,1,$1+$1,$8,$9,$2,$3,0*%
%AMFreePoly0*
4,1,19,0.500000,-0.750000,0.000000,-0.750000,0.000000,-0.744911,-0.071157,-0.744911,-0.207708,-0.704816,-0.327430,-0.627875,-0.420627,-0.520320,-0.479746,-0.390866,-0.500000,-0.250000,-0.500000,0.250000,-0.479746,0.390866,-0.420627,0.520320,-0.327430,0.627875,-0.207708,0.704816,-0.071157,0.744911,0.000000,0.744911,0.000000,0.750000,0.500000,0.750000,0.500000,-0.750000,0.500000,-0.750000,
$1*%
%AMFreePoly1*
4,1,19,0.000000,0.744911,0.071157,0.744911,0.207708,0.704816,0.327430,0.627875,0.420627,0.520320,0.479746,0.390866,0.500000,0.250000,0.500000,-0.250000,0.479746,-0.390866,0.420627,-0.520320,0.327430,-0.627875,0.207708,-0.704816,0.071157,-0.744911,0.000000,-0.744911,0.000000,-0.750000,-0.500000,-0.750000,-0.500000,0.750000,0.000000,0.750000,0.000000,0.744911,0.000000,0.744911,
$1*%
G04 Aperture macros list end*
%ADD10R,1.700000X1.700000*%
%ADD11O,1.700000X1.700000*%
%ADD12C,4.400000*%
%ADD13R,1.600000X1.600000*%
%ADD14C,1.600000*%
%ADD15C,0.990600*%
%ADD16R,3.500000X3.500000*%
%ADD17RoundRect,0.750000X-0.750000X-1.000000X0.750000X-1.000000X0.750000X1.000000X-0.750000X1.000000X0*%
%ADD18RoundRect,0.875000X-0.875000X-0.875000X0.875000X-0.875000X0.875000X0.875000X-0.875000X0.875000X0*%
%ADD19FreePoly0,0.000000*%
%ADD20FreePoly1,0.000000*%
G04 APERTURE END LIST*
D10*
%TO.C,J4*%
X159370000Y-110000000D03*
D11*
X159370000Y-112540000D03*
X156830000Y-110000000D03*
X156830000Y-112540000D03*
X154290000Y-110000000D03*
X154290000Y-112540000D03*
X151750000Y-110000000D03*
X151750000Y-112540000D03*
X149210000Y-110000000D03*
X149210000Y-112540000D03*
%TD*%
D10*
%TO.C,J5*%
X157800000Y-80750000D03*
D11*
X155260000Y-80750000D03*
X152720000Y-80750000D03*
X150180000Y-80750000D03*
%TD*%
D12*
%TO.C,H2*%
X177000000Y-110750000D03*
%TD*%
D10*
%TO.C,J7*%
X181864000Y-81661000D03*
D11*
X184404000Y-81661000D03*
X181864000Y-84201000D03*
X184404000Y-84201000D03*
X181864000Y-86741000D03*
X184404000Y-86741000D03*
X181864000Y-89281000D03*
X184404000Y-89281000D03*
X181864000Y-91821000D03*
X184404000Y-91821000D03*
X181864000Y-94361000D03*
X184404000Y-94361000D03*
X181864000Y-96901000D03*
X184404000Y-96901000D03*
X181864000Y-99441000D03*
X184404000Y-99441000D03*
X181864000Y-101981000D03*
X184404000Y-101981000D03*
X181864000Y-104521000D03*
X184404000Y-104521000D03*
X181864000Y-107061000D03*
X184404000Y-107061000D03*
X181864000Y-109601000D03*
X184404000Y-109601000D03*
%TD*%
D12*
%TO.C,H5*%
X132000000Y-80750000D03*
%TD*%
%TO.C,H3*%
X132000000Y-110750000D03*
%TD*%
D13*
%TO.C,C3*%
X167934000Y-111836200D03*
D14*
X170434000Y-111836200D03*
%TD*%
D15*
%TO.C,J3*%
X181356000Y-77724000D03*
X186436000Y-76708000D03*
X186436000Y-78740000D03*
%TD*%
D16*
%TO.C,J1*%
X137512000Y-100592500D03*
D17*
X131512000Y-100592500D03*
D18*
X134512000Y-105292500D03*
%TD*%
D13*
%TO.C,C10*%
X140200000Y-109250000D03*
D14*
X140200000Y-111750000D03*
%TD*%
D12*
%TO.C,H1*%
X177000000Y-80750000D03*
%TD*%
D19*
%TO.C,JP3*%
X159913800Y-77647800D03*
D20*
X161213800Y-77647800D03*
%TD*%
D19*
%TO.C,JP1*%
X159900000Y-81150000D03*
D20*
X161200000Y-81150000D03*
%TD*%
D19*
%TO.C,JP2*%
X159900000Y-84400000D03*
D20*
X161200000Y-84400000D03*
%TD*%
M02*
