%TF.GenerationSoftware,KiCad,Pcbnew,7.0.2-0*%
%TF.CreationDate,2024-01-05T14:45:17-05:00*%
%TF.ProjectId,WiringHarness,57697269-6e67-4486-9172-6e6573732e6b,rev?*%
%TF.SameCoordinates,Original*%
%TF.FileFunction,Copper,L1,Top*%
%TF.FilePolarity,Positive*%
%FSLAX46Y46*%
G04 Gerber Fmt 4.6, Leading zero omitted, Abs format (unit mm)*
G04 Created by KiCad (PCBNEW 7.0.2-0) date 2024-01-05 14:45:17*
%MOMM*%
%LPD*%
G01*
G04 APERTURE LIST*
G04 Aperture macros list*
%AMRoundRect*
0 Rectangle with rounded corners*
0 $1 Rounding radius*
0 $2 $3 $4 $5 $6 $7 $8 $9 X,Y pos of 4 corners*
0 Add a 4 corners polygon primitive as box body*
4,1,4,$2,$3,$4,$5,$6,$7,$8,$9,$2,$3,0*
0 Add four circle primitives for the rounded corners*
1,1,$1+$1,$2,$3*
1,1,$1+$1,$4,$5*
1,1,$1+$1,$6,$7*
1,1,$1+$1,$8,$9*
0 Add four rect primitives between the rounded corners*
20,1,$1+$1,$2,$3,$4,$5,0*
20,1,$1+$1,$4,$5,$6,$7,0*
20,1,$1+$1,$6,$7,$8,$9,0*
20,1,$1+$1,$8,$9,$2,$3,0*%
%AMFreePoly0*
4,1,14,0.230680,0.111820,0.364320,-0.021821,0.377500,-0.053642,0.377500,-0.080000,0.364320,-0.111820,0.332500,-0.125000,-0.332500,-0.125000,-0.364320,-0.111820,-0.377500,-0.080000,-0.377500,0.080000,-0.364320,0.111820,-0.332500,0.125000,0.198860,0.125000,0.230680,0.111820,0.230680,0.111820,$1*%
%AMFreePoly1*
4,1,14,0.364320,0.111820,0.377500,0.080000,0.377501,0.053640,0.364318,0.021819,0.230680,-0.111820,0.198860,-0.125000,-0.332500,-0.125000,-0.364320,-0.111820,-0.377500,-0.080000,-0.377500,0.080000,-0.364320,0.111820,-0.332500,0.125000,0.332500,0.125000,0.364320,0.111820,0.364320,0.111820,$1*%
%AMFreePoly2*
4,1,15,0.053642,0.377500,0.080000,0.377500,0.111820,0.364320,0.125000,0.332500,0.125000,-0.332500,0.111820,-0.364320,0.080000,-0.377500,-0.080000,-0.377500,-0.111820,-0.364320,-0.125000,-0.332500,-0.125000,0.198860,-0.111820,0.230680,0.021820,0.364320,0.053640,0.377501,0.053642,0.377500,0.053642,0.377500,$1*%
%AMFreePoly3*
4,1,14,-0.021820,0.364320,0.111820,0.230679,0.125001,0.198860,0.125000,-0.332500,0.111820,-0.364320,0.080000,-0.377500,-0.080000,-0.377500,-0.111820,-0.364320,-0.125000,-0.332500,-0.125000,0.332500,-0.111820,0.364320,-0.080000,0.377500,-0.053640,0.377500,-0.021820,0.364320,-0.021820,0.364320,$1*%
%AMFreePoly4*
4,1,14,0.364320,0.111820,0.377500,0.080000,0.377500,-0.080000,0.364320,-0.111820,0.332500,-0.125000,-0.198860,-0.125001,-0.230680,-0.111818,-0.364320,0.021820,-0.377500,0.053640,-0.377500,0.080000,-0.364320,0.111820,-0.332500,0.125000,0.332500,0.125000,0.364320,0.111820,0.364320,0.111820,$1*%
%AMFreePoly5*
4,1,15,-0.198858,0.125000,0.332500,0.125000,0.364320,0.111820,0.377500,0.080000,0.377500,-0.080000,0.364320,-0.111820,0.332500,-0.125000,-0.332500,-0.125000,-0.364320,-0.111820,-0.377500,-0.080000,-0.377500,-0.053640,-0.364320,-0.021820,-0.230680,0.111820,-0.198860,0.125001,-0.198858,0.125000,-0.198858,0.125000,$1*%
%AMFreePoly6*
4,1,14,0.111820,0.364320,0.125000,0.332500,0.125001,-0.198860,0.111818,-0.230680,-0.021820,-0.364320,-0.053640,-0.377500,-0.080000,-0.377500,-0.111820,-0.364320,-0.125000,-0.332500,-0.125000,0.332500,-0.111820,0.364320,-0.080000,0.377500,0.080000,0.377500,0.111820,0.364320,0.111820,0.364320,$1*%
%AMFreePoly7*
4,1,14,0.111820,0.364320,0.125000,0.332500,0.125000,-0.332500,0.111820,-0.364320,0.080000,-0.377500,0.053640,-0.377501,0.021819,-0.364318,-0.111820,-0.230680,-0.125000,-0.198860,-0.125000,0.332500,-0.111820,0.364320,-0.080000,0.377500,0.080000,0.377500,0.111820,0.364320,0.111820,0.364320,$1*%
G04 Aperture macros list end*
%TA.AperFunction,SMDPad,CuDef*%
%ADD10RoundRect,0.250000X0.475000X-0.250000X0.475000X0.250000X-0.475000X0.250000X-0.475000X-0.250000X0*%
%TD*%
%TA.AperFunction,SMDPad,CuDef*%
%ADD11RoundRect,0.225000X0.225000X0.250000X-0.225000X0.250000X-0.225000X-0.250000X0.225000X-0.250000X0*%
%TD*%
%TA.AperFunction,ComponentPad*%
%ADD12R,1.700000X1.700000*%
%TD*%
%TA.AperFunction,ComponentPad*%
%ADD13O,1.700000X1.700000*%
%TD*%
%TA.AperFunction,SMDPad,CuDef*%
%ADD14RoundRect,0.225000X-0.225000X-0.250000X0.225000X-0.250000X0.225000X0.250000X-0.225000X0.250000X0*%
%TD*%
%TA.AperFunction,SMDPad,CuDef*%
%ADD15RoundRect,0.225000X-0.250000X0.225000X-0.250000X-0.225000X0.250000X-0.225000X0.250000X0.225000X0*%
%TD*%
%TA.AperFunction,ComponentPad*%
%ADD16C,4.400000*%
%TD*%
%TA.AperFunction,SMDPad,CuDef*%
%ADD17RoundRect,0.250000X-2.050000X-0.300000X2.050000X-0.300000X2.050000X0.300000X-2.050000X0.300000X0*%
%TD*%
%TA.AperFunction,SMDPad,CuDef*%
%ADD18RoundRect,0.250000X-2.025000X-2.375000X2.025000X-2.375000X2.025000X2.375000X-2.025000X2.375000X0*%
%TD*%
%TA.AperFunction,SMDPad,CuDef*%
%ADD19RoundRect,0.250002X-4.449998X-5.149998X4.449998X-5.149998X4.449998X5.149998X-4.449998X5.149998X0*%
%TD*%
%TA.AperFunction,SMDPad,CuDef*%
%ADD20RoundRect,0.250000X-0.250000X-0.475000X0.250000X-0.475000X0.250000X0.475000X-0.250000X0.475000X0*%
%TD*%
%TA.AperFunction,ComponentPad*%
%ADD21R,1.600000X1.600000*%
%TD*%
%TA.AperFunction,ComponentPad*%
%ADD22C,1.600000*%
%TD*%
%TA.AperFunction,SMDPad,CuDef*%
%ADD23RoundRect,0.075000X0.350000X0.075000X-0.350000X0.075000X-0.350000X-0.075000X0.350000X-0.075000X0*%
%TD*%
%TA.AperFunction,SMDPad,CuDef*%
%ADD24RoundRect,0.225000X0.225000X0.575000X-0.225000X0.575000X-0.225000X-0.575000X0.225000X-0.575000X0*%
%TD*%
%TA.AperFunction,SMDPad,CuDef*%
%ADD25RoundRect,0.250000X1.000000X0.650000X-1.000000X0.650000X-1.000000X-0.650000X1.000000X-0.650000X0*%
%TD*%
%TA.AperFunction,ConnectorPad*%
%ADD26C,0.787400*%
%TD*%
%TA.AperFunction,SMDPad,CuDef*%
%ADD27RoundRect,0.150000X0.150000X0.625000X-0.150000X0.625000X-0.150000X-0.625000X0.150000X-0.625000X0*%
%TD*%
%TA.AperFunction,SMDPad,CuDef*%
%ADD28RoundRect,0.250000X0.350000X0.650000X-0.350000X0.650000X-0.350000X-0.650000X0.350000X-0.650000X0*%
%TD*%
%TA.AperFunction,SMDPad,CuDef*%
%ADD29RoundRect,0.218750X-0.218750X-0.256250X0.218750X-0.256250X0.218750X0.256250X-0.218750X0.256250X0*%
%TD*%
%TA.AperFunction,SMDPad,CuDef*%
%ADD30RoundRect,0.100000X0.712500X0.100000X-0.712500X0.100000X-0.712500X-0.100000X0.712500X-0.100000X0*%
%TD*%
%TA.AperFunction,ComponentPad*%
%ADD31R,3.500000X3.500000*%
%TD*%
%TA.AperFunction,ComponentPad*%
%ADD32RoundRect,0.750000X-0.750000X-1.000000X0.750000X-1.000000X0.750000X1.000000X-0.750000X1.000000X0*%
%TD*%
%TA.AperFunction,ComponentPad*%
%ADD33RoundRect,0.875000X-0.875000X-0.875000X0.875000X-0.875000X0.875000X0.875000X-0.875000X0.875000X0*%
%TD*%
%TA.AperFunction,SMDPad,CuDef*%
%ADD34RoundRect,0.200000X-0.200000X-0.275000X0.200000X-0.275000X0.200000X0.275000X-0.200000X0.275000X0*%
%TD*%
%TA.AperFunction,SMDPad,CuDef*%
%ADD35R,1.200000X1.200000*%
%TD*%
%TA.AperFunction,SMDPad,CuDef*%
%ADD36R,1.600000X1.500000*%
%TD*%
%TA.AperFunction,SMDPad,CuDef*%
%ADD37RoundRect,0.200000X0.200000X0.275000X-0.200000X0.275000X-0.200000X-0.275000X0.200000X-0.275000X0*%
%TD*%
%TA.AperFunction,SMDPad,CuDef*%
%ADD38RoundRect,0.112500X0.387500X0.112500X-0.387500X0.112500X-0.387500X-0.112500X0.387500X-0.112500X0*%
%TD*%
%TA.AperFunction,SMDPad,CuDef*%
%ADD39RoundRect,0.375000X0.375000X0.875000X-0.375000X0.875000X-0.375000X-0.875000X0.375000X-0.875000X0*%
%TD*%
%TA.AperFunction,SMDPad,CuDef*%
%ADD40FreePoly0,90.000000*%
%TD*%
%TA.AperFunction,SMDPad,CuDef*%
%ADD41RoundRect,0.062500X0.062500X-0.375000X0.062500X0.375000X-0.062500X0.375000X-0.062500X-0.375000X0*%
%TD*%
%TA.AperFunction,SMDPad,CuDef*%
%ADD42FreePoly1,90.000000*%
%TD*%
%TA.AperFunction,SMDPad,CuDef*%
%ADD43FreePoly2,90.000000*%
%TD*%
%TA.AperFunction,SMDPad,CuDef*%
%ADD44RoundRect,0.062500X0.375000X-0.062500X0.375000X0.062500X-0.375000X0.062500X-0.375000X-0.062500X0*%
%TD*%
%TA.AperFunction,SMDPad,CuDef*%
%ADD45FreePoly3,90.000000*%
%TD*%
%TA.AperFunction,SMDPad,CuDef*%
%ADD46FreePoly4,90.000000*%
%TD*%
%TA.AperFunction,SMDPad,CuDef*%
%ADD47FreePoly5,90.000000*%
%TD*%
%TA.AperFunction,SMDPad,CuDef*%
%ADD48FreePoly6,90.000000*%
%TD*%
%TA.AperFunction,SMDPad,CuDef*%
%ADD49FreePoly7,90.000000*%
%TD*%
%TA.AperFunction,ViaPad*%
%ADD50C,0.500000*%
%TD*%
%TA.AperFunction,ViaPad*%
%ADD51C,0.350000*%
%TD*%
%TA.AperFunction,Conductor*%
%ADD52C,1.270000*%
%TD*%
%TA.AperFunction,Conductor*%
%ADD53C,0.254000*%
%TD*%
%TA.AperFunction,Conductor*%
%ADD54C,0.127000*%
%TD*%
%TA.AperFunction,Conductor*%
%ADD55C,0.635000*%
%TD*%
%TA.AperFunction,Conductor*%
%ADD56C,0.508000*%
%TD*%
G04 APERTURE END LIST*
D10*
%TO.P,C4,1*%
%TO.N,+5VP*%
X178422000Y-101407000D03*
%TO.P,C4,2*%
%TO.N,GND*%
X178422000Y-99507000D03*
%TD*%
D11*
%TO.P,C15,1*%
%TO.N,+5V*%
X146888200Y-82016600D03*
%TO.P,C15,2*%
%TO.N,GND*%
X145338200Y-82016600D03*
%TD*%
D12*
%TO.P,J4,1,Pin_1*%
%TO.N,/StepX*%
X159370000Y-110000000D03*
D13*
%TO.P,J4,2,Pin_2*%
%TO.N,/DirX*%
X159370000Y-112540000D03*
%TO.P,J4,3,Pin_3*%
%TO.N,/SCL*%
X156830000Y-110000000D03*
%TO.P,J4,4,Pin_4*%
%TO.N,/SDA*%
X156830000Y-112540000D03*
%TO.P,J4,5,Pin_5*%
%TO.N,/D0*%
X154290000Y-110000000D03*
%TO.P,J4,6,Pin_6*%
%TO.N,/D1*%
X154290000Y-112540000D03*
%TO.P,J4,7,Pin_7*%
%TO.N,/StepY*%
X151750000Y-110000000D03*
%TO.P,J4,8,Pin_8*%
%TO.N,/DirY*%
X151750000Y-112540000D03*
%TO.P,J4,9,Pin_9*%
%TO.N,/Vsys*%
X149210000Y-110000000D03*
%TO.P,J4,10,Pin_10*%
%TO.N,GND*%
X149210000Y-112540000D03*
%TD*%
D14*
%TO.P,C5,1*%
%TO.N,/RstN*%
X173355000Y-92659200D03*
%TO.P,C5,2*%
%TO.N,GND*%
X174905000Y-92659200D03*
%TD*%
%TO.P,C12,1*%
%TO.N,+3.3V*%
X169328800Y-92659200D03*
%TO.P,C12,2*%
%TO.N,GND*%
X170878800Y-92659200D03*
%TD*%
D15*
%TO.P,C13,1*%
%TO.N,/Vsys*%
X156950000Y-103575000D03*
%TO.P,C13,2*%
%TO.N,GND*%
X156950000Y-105125000D03*
%TD*%
D12*
%TO.P,J5,1,Pin_1*%
%TO.N,/SCL*%
X157800000Y-80750000D03*
D13*
%TO.P,J5,2,Pin_2*%
%TO.N,/SDA*%
X155260000Y-80750000D03*
%TO.P,J5,3,Pin_3*%
%TO.N,GND*%
X152720000Y-80750000D03*
%TO.P,J5,4,Pin_4*%
%TO.N,+5V*%
X150180000Y-80750000D03*
%TD*%
D16*
%TO.P,H2,1,1*%
%TO.N,GND*%
X177000000Y-110750000D03*
%TD*%
D12*
%TO.P,J7,1,Pin_1*%
%TO.N,/Y0_0*%
X181864000Y-81661000D03*
D13*
%TO.P,J7,2,Pin_2*%
%TO.N,/Y1_0*%
X184404000Y-81661000D03*
%TO.P,J7,3,Pin_3*%
%TO.N,/Y0_1*%
X181864000Y-84201000D03*
%TO.P,J7,4,Pin_4*%
%TO.N,/Y1_1*%
X184404000Y-84201000D03*
%TO.P,J7,5,Pin_5*%
%TO.N,/Y0_2*%
X181864000Y-86741000D03*
%TO.P,J7,6,Pin_6*%
%TO.N,/Y1_2*%
X184404000Y-86741000D03*
%TO.P,J7,7,Pin_7*%
%TO.N,/Y0_3*%
X181864000Y-89281000D03*
%TO.P,J7,8,Pin_8*%
%TO.N,/Y1_3*%
X184404000Y-89281000D03*
%TO.P,J7,9,Pin_9*%
%TO.N,GND*%
X181864000Y-91821000D03*
%TO.P,J7,10,Pin_10*%
X184404000Y-91821000D03*
%TO.P,J7,11,Pin_11*%
%TO.N,+5VP*%
X181864000Y-94361000D03*
%TO.P,J7,12,Pin_12*%
X184404000Y-94361000D03*
%TO.P,J7,13,Pin_13*%
%TO.N,unconnected-(J7-Pin_13-Pad13)*%
X181864000Y-96901000D03*
%TO.P,J7,14,Pin_14*%
%TO.N,/X_0*%
X184404000Y-96901000D03*
%TO.P,J7,15,Pin_15*%
%TO.N,unconnected-(J7-Pin_15-Pad15)*%
X181864000Y-99441000D03*
%TO.P,J7,16,Pin_16*%
%TO.N,/X_1*%
X184404000Y-99441000D03*
%TO.P,J7,17,Pin_17*%
%TO.N,/D1*%
X181864000Y-101981000D03*
%TO.P,J7,18,Pin_18*%
%TO.N,/X_2*%
X184404000Y-101981000D03*
%TO.P,J7,19,Pin_19*%
%TO.N,/D0*%
X181864000Y-104521000D03*
%TO.P,J7,20,Pin_20*%
%TO.N,/X_3*%
X184404000Y-104521000D03*
%TO.P,J7,21,Pin_21*%
%TO.N,GND*%
X181864000Y-107061000D03*
%TO.P,J7,22,Pin_22*%
X184404000Y-107061000D03*
%TO.P,J7,23,Pin_23*%
%TO.N,Net-(J7-Pin_23)*%
X181864000Y-109601000D03*
%TO.P,J7,24,Pin_24*%
%TO.N,+5VP*%
X184404000Y-109601000D03*
%TD*%
D16*
%TO.P,H5,1,1*%
%TO.N,GND*%
X132000000Y-80750000D03*
%TD*%
D17*
%TO.P,U8,1,ADJ/GND*%
%TO.N,Net-(U8-ADJ{slash}GND)*%
X161931000Y-98533000D03*
%TO.P,U8,2,OUT*%
%TO.N,+5VP*%
X161931000Y-101073000D03*
D18*
X168656000Y-98298000D03*
X168656000Y-103848000D03*
D19*
X171081000Y-101073000D03*
D18*
X173506000Y-98298000D03*
X173506000Y-103848000D03*
D17*
%TO.P,U8,3,IN*%
%TO.N,/Vsys*%
X161931000Y-103613000D03*
%TD*%
D16*
%TO.P,H3,1,1*%
%TO.N,GND*%
X132000000Y-110750000D03*
%TD*%
D20*
%TO.P,C2,1*%
%TO.N,/Vsys*%
X144930000Y-91520000D03*
%TO.P,C2,2*%
%TO.N,GND*%
X146830000Y-91520000D03*
%TD*%
D21*
%TO.P,C3,1*%
%TO.N,+5VP*%
X167934000Y-111836200D03*
D22*
%TO.P,C3,2*%
%TO.N,GND*%
X170434000Y-111836200D03*
%TD*%
D23*
%TO.P,U3,1,GND*%
%TO.N,GND*%
X161290000Y-91592400D03*
%TO.P,U3,2,Sense*%
%TO.N,+3.3V*%
X161290000Y-91092400D03*
%TO.P,U3,3,VOUT*%
X161290000Y-90592400D03*
%TO.P,U3,4,VIN*%
%TO.N,/Vsys*%
X159140000Y-90592400D03*
%TO.P,U3,5,NC*%
%TO.N,unconnected-(U3-NC-Pad5)*%
X159140000Y-91092400D03*
%TO.P,U3,6,EN*%
%TO.N,/Vsys*%
X159140000Y-91592400D03*
D24*
%TO.P,U3,7,GND*%
%TO.N,GND*%
X160215000Y-91092400D03*
%TD*%
D25*
%TO.P,D1,1,K*%
%TO.N,/Vsys*%
X150844000Y-104394000D03*
%TO.P,D1,2,A*%
%TO.N,Net-(D1-A)*%
X146844000Y-104394000D03*
%TD*%
D26*
%TO.P,J3,1,VCC*%
%TO.N,+3.3V*%
X182626000Y-78359000D03*
%TO.P,J3,2,SWDIO*%
%TO.N,/SWDIO*%
X182626000Y-77089000D03*
%TO.P,J3,3,~{RESET}*%
%TO.N,/RstN*%
X183896000Y-78359000D03*
%TO.P,J3,4,SWCLK*%
%TO.N,/SWCLK*%
X183896000Y-77089000D03*
%TO.P,J3,5,GND*%
%TO.N,GND*%
X185166000Y-78359000D03*
%TO.P,J3,6,SWO*%
%TO.N,unconnected-(J3-SWO-Pad6)*%
X185166000Y-77089000D03*
%TD*%
D27*
%TO.P,J6,1,Pin_1*%
%TO.N,GND*%
X169116000Y-81153000D03*
%TO.P,J6,2,Pin_2*%
%TO.N,+3.3V*%
X168116000Y-81153000D03*
%TO.P,J6,3,Pin_3*%
%TO.N,/SDA3*%
X167116000Y-81153000D03*
%TO.P,J6,4,Pin_4*%
%TO.N,/SCL3*%
X166116000Y-81153000D03*
D28*
%TO.P,J6,MP*%
%TO.N,N/C*%
X170416000Y-77278000D03*
X164816000Y-77278000D03*
%TD*%
D29*
%TO.P,FB1,1*%
%TO.N,+5VP*%
X181686000Y-112649000D03*
%TO.P,FB1,2*%
%TO.N,Net-(J7-Pin_23)*%
X183261000Y-112649000D03*
%TD*%
D14*
%TO.P,C6,1*%
%TO.N,Net-(J7-Pin_23)*%
X185420000Y-112649000D03*
%TO.P,C6,2*%
%TO.N,GND*%
X186970000Y-112649000D03*
%TD*%
D15*
%TO.P,C11,1*%
%TO.N,+3.3V*%
X164250000Y-90250000D03*
%TO.P,C11,2*%
%TO.N,GND*%
X164250000Y-91800000D03*
%TD*%
D30*
%TO.P,U1,1,GND*%
%TO.N,GND*%
X161882800Y-86827000D03*
%TO.P,U1,2,VREF1*%
%TO.N,+3.3V*%
X161882800Y-86177000D03*
%TO.P,U1,3,SCL1*%
%TO.N,/SCL3*%
X161882800Y-85527000D03*
%TO.P,U1,4,SDA1*%
%TO.N,/SDA3*%
X161882800Y-84877000D03*
%TO.P,U1,5,SDA2*%
%TO.N,/SDA*%
X157657800Y-84877000D03*
%TO.P,U1,6,SCL2*%
%TO.N,/SCL*%
X157657800Y-85527000D03*
%TO.P,U1,7,VREF2*%
%TO.N,Net-(U1-EN)*%
X157657800Y-86177000D03*
%TO.P,U1,8,EN*%
X157657800Y-86827000D03*
%TD*%
D31*
%TO.P,J1,1*%
%TO.N,Net-(D1-A)*%
X137512000Y-100592500D03*
D32*
%TO.P,J1,2*%
%TO.N,GND*%
X131512000Y-100592500D03*
D33*
%TO.P,J1,3*%
%TO.N,N/C*%
X134512000Y-105292500D03*
%TD*%
D34*
%TO.P,R6,1*%
%TO.N,+5V*%
X152489400Y-86029800D03*
%TO.P,R6,2*%
%TO.N,Net-(U1-EN)*%
X154139400Y-86029800D03*
%TD*%
D35*
%TO.P,R7,1*%
%TO.N,GND*%
X153305000Y-98980665D03*
D36*
%TO.P,R7,2*%
%TO.N,Net-(U8-ADJ{slash}GND)*%
X154305000Y-95730665D03*
D35*
%TO.P,R7,3*%
%TO.N,+5VP*%
X155305000Y-98980665D03*
%TD*%
D21*
%TO.P,C10,1*%
%TO.N,Net-(D1-A)*%
X140200000Y-109250000D03*
D22*
%TO.P,C10,2*%
%TO.N,GND*%
X140200000Y-111750000D03*
%TD*%
D11*
%TO.P,C14,1*%
%TO.N,+5V*%
X146850400Y-84048600D03*
%TO.P,C14,2*%
%TO.N,GND*%
X145300400Y-84048600D03*
%TD*%
D37*
%TO.P,R2,1*%
%TO.N,+3.3V*%
X167118800Y-85674200D03*
%TO.P,R2,2*%
%TO.N,/SDA3*%
X165468800Y-85674200D03*
%TD*%
%TO.P,R1,1*%
%TO.N,+3.3V*%
X167131000Y-83769200D03*
%TO.P,R1,2*%
%TO.N,/SCL3*%
X165481000Y-83769200D03*
%TD*%
D15*
%TO.P,C1,1*%
%TO.N,/Vsys*%
X156550000Y-90425000D03*
%TO.P,C1,2*%
%TO.N,GND*%
X156550000Y-91975000D03*
%TD*%
D16*
%TO.P,H1,1,1*%
%TO.N,GND*%
X177000000Y-80750000D03*
%TD*%
D38*
%TO.P,U7,1,GND*%
%TO.N,GND*%
X147574000Y-88006000D03*
%TO.P,U7,2,Sense*%
%TO.N,+5V*%
X147574000Y-87056000D03*
%TO.P,U7,3,VOUT*%
X147574000Y-86106000D03*
%TO.P,U7,4,VIN*%
%TO.N,/Vsys*%
X144474000Y-86106000D03*
%TO.P,U7,5,NC*%
%TO.N,unconnected-(U7-NC-Pad5)*%
X144474000Y-87056000D03*
%TO.P,U7,6,EN*%
%TO.N,/Vsys*%
X144474000Y-88006000D03*
D39*
%TO.P,U7,7,GND*%
%TO.N,GND*%
X146024000Y-87056000D03*
%TD*%
D40*
%TO.P,U6,1,PC14*%
%TO.N,/SDA3*%
X169797600Y-89881500D03*
D41*
%TO.P,U6,2,PC15*%
%TO.N,unconnected-(U6-PC15-Pad2)*%
X170297600Y-89821500D03*
%TO.P,U6,3,VDD*%
%TO.N,+3.3V*%
X170797600Y-89821500D03*
%TO.P,U6,4,VSS*%
%TO.N,GND*%
X171297600Y-89821500D03*
%TO.P,U6,5,PF2*%
%TO.N,/RstN*%
X171797600Y-89821500D03*
%TO.P,U6,6,PA0*%
%TO.N,/StepX*%
X172297600Y-89821500D03*
D42*
%TO.P,U6,7,PA1*%
%TO.N,/DirX*%
X172797600Y-89881500D03*
D43*
%TO.P,U6,8,PA2*%
%TO.N,/DirY*%
X173295100Y-89384000D03*
D44*
%TO.P,U6,9,PA3*%
%TO.N,/Y1_3*%
X173235100Y-88884000D03*
%TO.P,U6,10,PA4*%
%TO.N,/Y0_3*%
X173235100Y-88384000D03*
%TO.P,U6,11,PA5*%
%TO.N,/Y1_2*%
X173235100Y-87884000D03*
%TO.P,U6,12,PA6*%
%TO.N,/Y0_2*%
X173235100Y-87384000D03*
%TO.P,U6,13,PA7*%
%TO.N,/Y1_1*%
X173235100Y-86884000D03*
D45*
%TO.P,U6,14,PB0*%
%TO.N,unconnected-(U6-PB0-Pad14)*%
X173295100Y-86384000D03*
D46*
%TO.P,U6,15,PB1*%
%TO.N,unconnected-(U6-PB1-Pad15)*%
X172797600Y-85886500D03*
D41*
%TO.P,U6,16,PA8*%
%TO.N,/Y0_1*%
X172297600Y-85946500D03*
%TO.P,U6,17,PC6*%
%TO.N,unconnected-(U6-PC6-Pad17)*%
X171797600Y-85946500D03*
%TO.P,U6,18,PA11/PA9*%
%TO.N,/Y1_0*%
X171297600Y-85946500D03*
%TO.P,U6,19,PA12/PA10*%
%TO.N,/Y0_0*%
X170797600Y-85946500D03*
%TO.P,U6,20,PA13*%
%TO.N,/SWDIO*%
X170297600Y-85946500D03*
D47*
%TO.P,U6,21,PA14*%
%TO.N,/SWCLK*%
X169797600Y-85886500D03*
D48*
%TO.P,U6,22,PA15*%
%TO.N,/StepY*%
X169300100Y-86384000D03*
D44*
%TO.P,U6,23,PB3*%
%TO.N,unconnected-(U6-PB3-Pad23)*%
X169360100Y-86884000D03*
%TO.P,U6,24,PB4*%
%TO.N,/X_0*%
X169360100Y-87384000D03*
%TO.P,U6,25,PB5*%
%TO.N,/X_1*%
X169360100Y-87884000D03*
%TO.P,U6,26,PB6*%
%TO.N,/X_2*%
X169360100Y-88384000D03*
%TO.P,U6,27,PB7*%
%TO.N,/X_3*%
X169360100Y-88884000D03*
D49*
%TO.P,U6,28,PB8*%
%TO.N,/SCL3*%
X169300100Y-89384000D03*
%TD*%
D50*
%TO.N,GND*%
X145415000Y-84074000D03*
X146050000Y-87122000D03*
D51*
X146850000Y-91270000D03*
X146860000Y-91810000D03*
D50*
X156550000Y-92000000D03*
X156972000Y-105130600D03*
X175006000Y-92710000D03*
X160274000Y-90678000D03*
D51*
X169150000Y-81500000D03*
D50*
X184785000Y-79502000D03*
X146050000Y-86360000D03*
X145415000Y-82042000D03*
X160020000Y-86614000D03*
D51*
X169150000Y-80800000D03*
D50*
X146050000Y-87884000D03*
X170942000Y-92710000D03*
X187071000Y-112649000D03*
X153289000Y-98958400D03*
X178435000Y-99568000D03*
X164211000Y-91821000D03*
X160274000Y-91440000D03*
%TO.N,/Vsys*%
X154940000Y-91440000D03*
X154940000Y-92710000D03*
X142240000Y-87630000D03*
X146685000Y-108585000D03*
X145415000Y-109855000D03*
X140970000Y-88900000D03*
X147955000Y-107315000D03*
X142240000Y-86360000D03*
X140970000Y-86360000D03*
X142240000Y-91440000D03*
X145415000Y-107315000D03*
X146685000Y-107315000D03*
X142240000Y-88900000D03*
X140970000Y-90170000D03*
X146685000Y-109855000D03*
X140970000Y-87630000D03*
X145415000Y-108585000D03*
X142240000Y-90170000D03*
X140970000Y-91440000D03*
X154940000Y-90170000D03*
%TO.N,/SDA3*%
X165735000Y-90678000D03*
X165468800Y-85674200D03*
D51*
X163576000Y-83515200D03*
%TO.N,/D0*%
X179628800Y-107950000D03*
%TO.N,/D1*%
X178917600Y-108356400D03*
D50*
%TO.N,/SCL3*%
X165481000Y-83769200D03*
X165222000Y-89154000D03*
D51*
X161200000Y-81150000D03*
D50*
%TO.N,/RstN*%
X180213000Y-79375000D03*
X179959000Y-90551000D03*
%TO.N,/StepX*%
X172466000Y-90805000D03*
X171958000Y-108839000D03*
%TO.N,/DirX*%
X173228000Y-113030000D03*
X173355000Y-90932000D03*
%TO.N,/StepY*%
X151257000Y-87807800D03*
%TO.N,/DirY*%
X173990000Y-114046000D03*
X174498000Y-89535000D03*
%TO.N,+3.3V*%
X162941000Y-77597000D03*
X173228000Y-79629000D03*
X162941000Y-78359000D03*
X162687000Y-89662000D03*
X173228000Y-77978000D03*
X169291000Y-92710000D03*
X162687000Y-92837000D03*
X173228000Y-78740000D03*
X162941000Y-79248000D03*
X163449000Y-85979000D03*
X173228000Y-80518000D03*
X162941000Y-76835000D03*
X161798000Y-88900000D03*
X162687000Y-91821000D03*
X179750000Y-78150000D03*
X162687000Y-88900000D03*
%TO.N,+5V*%
X149150000Y-86650000D03*
X158369000Y-77724000D03*
X146850000Y-84050000D03*
X149150000Y-88550000D03*
X149150000Y-87650000D03*
X149150000Y-85750000D03*
D51*
%TO.N,/X_0*%
X167900000Y-87000000D03*
X168050000Y-94100000D03*
%TO.N,/X_1*%
X167350000Y-87550000D03*
X167350000Y-94350000D03*
%TO.N,/X_2*%
X166900000Y-88200000D03*
X166900000Y-94900000D03*
%TO.N,/X_3*%
X166400000Y-88700000D03*
X166400000Y-107289600D03*
D50*
%TO.N,+5VP*%
X161925000Y-111760000D03*
X172720000Y-101600000D03*
X151765000Y-98425000D03*
X175260000Y-99060000D03*
X179197000Y-114681000D03*
X164465000Y-110490000D03*
X170180000Y-104140000D03*
X167640000Y-104140000D03*
X175260000Y-104140000D03*
X151765000Y-100965000D03*
X182245000Y-114681000D03*
X153035000Y-100965000D03*
X167640000Y-96520000D03*
X172720000Y-104140000D03*
X151765000Y-99695000D03*
X175260000Y-96520000D03*
X167640000Y-101600000D03*
X163195000Y-111760000D03*
X172720000Y-96520000D03*
X170180000Y-101600000D03*
X170180000Y-96520000D03*
X172720000Y-99060000D03*
X163195000Y-110490000D03*
X154305000Y-100965000D03*
X175260000Y-101600000D03*
X178054000Y-114681000D03*
X167640000Y-99060000D03*
X181229000Y-114681000D03*
X170180000Y-99060000D03*
X164465000Y-111760000D03*
X183261000Y-114681000D03*
X161925000Y-110490000D03*
X180213000Y-114681000D03*
%TD*%
D52*
%TO.N,Net-(D1-A)*%
X145415000Y-104394000D02*
X144907000Y-104394000D01*
X144907000Y-104394000D02*
X141105500Y-100592500D01*
X146844000Y-104394000D02*
X145415000Y-104394000D01*
X145056000Y-104394000D02*
X145415000Y-104394000D01*
X140200000Y-109250000D02*
X145056000Y-104394000D01*
X141105500Y-100592500D02*
X137512000Y-100592500D01*
D53*
%TO.N,GND*%
X160562600Y-91440000D02*
X160274000Y-91440000D01*
X160233000Y-86827000D02*
X160020000Y-86614000D01*
X171297600Y-89821500D02*
X171297600Y-92240400D01*
X160274000Y-91440000D02*
X160274000Y-91151400D01*
X171297600Y-92240400D02*
X170878800Y-92659200D01*
X185166000Y-79121000D02*
X184785000Y-79502000D01*
X161290000Y-91592400D02*
X160715000Y-91592400D01*
X160274000Y-91151400D02*
X160215000Y-91092400D01*
X146172000Y-88006000D02*
X146050000Y-87884000D01*
X160715000Y-91592400D02*
X160562600Y-91440000D01*
X161882800Y-86827000D02*
X160233000Y-86827000D01*
X147574000Y-88006000D02*
X146172000Y-88006000D01*
X185166000Y-78359000D02*
X185166000Y-79121000D01*
D54*
%TO.N,/SCL*%
X159232600Y-84764700D02*
X159232600Y-83921600D01*
X157657800Y-85527000D02*
X158470300Y-85527000D01*
X159232600Y-83921600D02*
X157800000Y-82489000D01*
X158470300Y-85527000D02*
X159232600Y-84764700D01*
X157800000Y-82489000D02*
X157800000Y-80750000D01*
%TO.N,/SDA*%
X157657800Y-84877000D02*
X155260000Y-82479200D01*
X155260000Y-82479200D02*
X155260000Y-80750000D01*
D55*
%TO.N,/Vsys*%
X156988000Y-103613000D02*
X156950000Y-103575000D01*
D53*
X158115000Y-90805000D02*
X158327600Y-90592400D01*
D52*
X150844000Y-104394000D02*
X150844000Y-105873800D01*
D53*
X159140000Y-91592400D02*
X158267400Y-91592400D01*
X158115000Y-91440000D02*
X158115000Y-90805000D01*
X158327600Y-90592400D02*
X159140000Y-90592400D01*
X144474000Y-86106000D02*
X142494000Y-86106000D01*
X144474000Y-88006000D02*
X142616000Y-88006000D01*
X158267400Y-91592400D02*
X158115000Y-91440000D01*
D55*
X150844000Y-104394000D02*
X154051000Y-104394000D01*
D53*
X142616000Y-88006000D02*
X142240000Y-87630000D01*
D52*
X149210000Y-107507800D02*
X149210000Y-110000000D01*
X150844000Y-105873800D02*
X149210000Y-107507800D01*
D53*
X142494000Y-86106000D02*
X142240000Y-86360000D01*
D55*
X154051000Y-104394000D02*
X154870000Y-103575000D01*
X156950000Y-103575000D02*
X154870000Y-103575000D01*
X161931000Y-103613000D02*
X156988000Y-103613000D01*
D54*
%TO.N,/SDA3*%
X163576000Y-84124800D02*
X162823800Y-84877000D01*
X163576000Y-83515200D02*
X163576000Y-84124800D01*
X167116000Y-81153000D02*
X167116000Y-80378000D01*
X167116000Y-81153000D02*
X167116000Y-82649186D01*
X166319200Y-84823800D02*
X165468800Y-85674200D01*
X169797600Y-89881500D02*
X169797600Y-90422600D01*
X165709600Y-79933800D02*
X163576000Y-82067400D01*
X169797600Y-90422600D02*
X169799000Y-90424000D01*
X167116000Y-82649186D02*
X166319200Y-83445986D01*
X169545000Y-90678000D02*
X165735000Y-90678000D01*
X169799000Y-90424000D02*
X169545000Y-90678000D01*
X166671800Y-79933800D02*
X165709600Y-79933800D01*
X163576000Y-82067400D02*
X163576000Y-83515200D01*
X166319200Y-83445986D02*
X166319200Y-84823800D01*
X167116000Y-80378000D02*
X166671800Y-79933800D01*
X162823800Y-84877000D02*
X161882800Y-84877000D01*
%TO.N,/D0*%
X179501800Y-107823000D02*
X156467000Y-107823000D01*
X156467000Y-107823000D02*
X154290000Y-110000000D01*
X179628800Y-107950000D02*
X179501800Y-107823000D01*
%TO.N,/D1*%
X178917600Y-108356400D02*
X178847700Y-108286500D01*
X156762500Y-108286500D02*
X155473400Y-109575600D01*
X155473400Y-111356600D02*
X154290000Y-112540000D01*
X178847700Y-108286500D02*
X156762500Y-108286500D01*
X155473400Y-109575600D02*
X155473400Y-111356600D01*
%TO.N,/SCL3*%
X164465000Y-83769200D02*
X165481000Y-83769200D01*
X161070300Y-85527000D02*
X160655000Y-85111700D01*
X161200000Y-82208200D02*
X161200000Y-81150000D01*
X165452000Y-89384000D02*
X165222000Y-89154000D01*
X160655000Y-85111700D02*
X160655000Y-82753200D01*
X165481000Y-82905600D02*
X165481000Y-83769200D01*
X160655000Y-82753200D02*
X161200000Y-82208200D01*
X161882800Y-85527000D02*
X161070300Y-85527000D01*
X166116000Y-81153000D02*
X166116000Y-82270600D01*
X169300100Y-89384000D02*
X165452000Y-89384000D01*
X162707200Y-85527000D02*
X164465000Y-83769200D01*
X166116000Y-82270600D02*
X165481000Y-82905600D01*
X161882800Y-85527000D02*
X162707200Y-85527000D01*
%TO.N,Net-(U1-EN)*%
X156464000Y-86741000D02*
X156464000Y-86177000D01*
X157657800Y-86827000D02*
X156550000Y-86827000D01*
X156550000Y-86827000D02*
X156464000Y-86741000D01*
X154286600Y-86177000D02*
X154139400Y-86029800D01*
X156464000Y-86177000D02*
X154286600Y-86177000D01*
X157657800Y-86177000D02*
X156464000Y-86177000D01*
%TO.N,/RstN*%
X183896000Y-78359000D02*
X182880000Y-79375000D01*
X171797600Y-89821500D02*
X171797600Y-91101800D01*
X172440600Y-92659200D02*
X173355000Y-92659200D01*
X171797600Y-91101800D02*
X172237400Y-91541600D01*
X179197000Y-91313000D02*
X173863000Y-91313000D01*
X172237400Y-92456000D02*
X172440600Y-92659200D01*
X173863000Y-91313000D02*
X173355000Y-91821000D01*
X172237400Y-91541600D02*
X172237400Y-92456000D01*
X173355000Y-91821000D02*
X173355000Y-92659200D01*
X179959000Y-90551000D02*
X179197000Y-91313000D01*
X182880000Y-79375000D02*
X180213000Y-79375000D01*
%TO.N,/StepX*%
X171958000Y-108839000D02*
X160531000Y-108839000D01*
X172297600Y-89821500D02*
X172297600Y-90636600D01*
X160531000Y-108839000D02*
X159370000Y-110000000D01*
X172297600Y-90636600D02*
X172466000Y-90805000D01*
%TO.N,/DirX*%
X160373500Y-113543500D02*
X159370000Y-112540000D01*
X173228000Y-113030000D02*
X172714500Y-113543500D01*
X172864901Y-90441901D02*
X173355000Y-90932000D01*
X172797600Y-90410401D02*
X172829100Y-90441901D01*
X172829100Y-90441901D02*
X172864901Y-90441901D01*
X172714500Y-113543500D02*
X160373500Y-113543500D01*
X172797600Y-89881500D02*
X172797600Y-90410401D01*
%TO.N,/StepY*%
X167716667Y-86563200D02*
X164769800Y-86563200D01*
X151599200Y-88150000D02*
X151257000Y-87807800D01*
X164769800Y-86563200D02*
X163183000Y-88150000D01*
X167895867Y-86384000D02*
X167716667Y-86563200D01*
X169300100Y-86384000D02*
X167895867Y-86384000D01*
X163183000Y-88150000D02*
X151599200Y-88150000D01*
%TO.N,/DirY*%
X173990000Y-114046000D02*
X153256000Y-114046000D01*
X173295100Y-89384000D02*
X174347000Y-89384000D01*
X174347000Y-89384000D02*
X174498000Y-89535000D01*
X153256000Y-114046000D02*
X151750000Y-112540000D01*
D55*
%TO.N,Net-(U8-ADJ{slash}GND)*%
X158604000Y-98533000D02*
X161931000Y-98533000D01*
X155801665Y-95730665D02*
X158604000Y-98533000D01*
X154305000Y-95730665D02*
X155801665Y-95730665D01*
D53*
%TO.N,+3.3V*%
X161290000Y-90592400D02*
X162601400Y-90592400D01*
X167817800Y-85674200D02*
X168529000Y-84963000D01*
D56*
X163275000Y-90250000D02*
X162687000Y-89662000D01*
D53*
X162526600Y-91092400D02*
X162687000Y-90932000D01*
D56*
X164250000Y-90250000D02*
X164250000Y-89320000D01*
X164250000Y-90250000D02*
X163275000Y-90250000D01*
D53*
X161882800Y-86177000D02*
X163251000Y-86177000D01*
X162687000Y-90932000D02*
X162687000Y-90678000D01*
X182351039Y-78633961D02*
X180233961Y-78633961D01*
X182626000Y-78359000D02*
X182351039Y-78633961D01*
X179750000Y-78150000D02*
X179705000Y-78105000D01*
D56*
X163830000Y-88900000D02*
X162687000Y-88900000D01*
D53*
X167118800Y-85674200D02*
X167817800Y-85674200D01*
X170797600Y-89821500D02*
X170797600Y-90695400D01*
X170797600Y-90695400D02*
X170307000Y-91186000D01*
X162601400Y-90592400D02*
X162687000Y-90678000D01*
X180233961Y-78633961D02*
X179750000Y-78150000D01*
X161290000Y-91092400D02*
X162526600Y-91092400D01*
X163251000Y-86177000D02*
X163449000Y-85979000D01*
X168529000Y-84201000D02*
X168097200Y-83769200D01*
D56*
X164250000Y-89320000D02*
X163830000Y-88900000D01*
D53*
X168097200Y-83769200D02*
X167131000Y-83769200D01*
X168529000Y-84963000D02*
X168529000Y-84201000D01*
D56*
%TO.N,+5V*%
X152489400Y-86029800D02*
X150820200Y-86029800D01*
X150820200Y-86029800D02*
X150750000Y-86100000D01*
D54*
%TO.N,/Y1_2*%
X173235100Y-87884000D02*
X183261000Y-87884000D01*
X183261000Y-87884000D02*
X184404000Y-86741000D01*
%TO.N,/Y1_3*%
X179892273Y-88884000D02*
X181402773Y-90394500D01*
X173235100Y-88884000D02*
X179892273Y-88884000D01*
X181402773Y-90394500D02*
X183290500Y-90394500D01*
X183290500Y-90394500D02*
X184404000Y-89281000D01*
%TO.N,/X_0*%
X181715773Y-95787500D02*
X180028273Y-94100000D01*
X183290500Y-95787500D02*
X181715773Y-95787500D01*
X184404000Y-96901000D02*
X183290500Y-95787500D01*
X180028273Y-94100000D02*
X168050000Y-94100000D01*
X168284000Y-87384000D02*
X167900000Y-87000000D01*
X169360100Y-87384000D02*
X168284000Y-87384000D01*
%TO.N,/X_1*%
X182389727Y-97950000D02*
X182325227Y-98014500D01*
X167684000Y-87884000D02*
X167350000Y-87550000D01*
X184404000Y-99441000D02*
X182913000Y-97950000D01*
X182325227Y-98014500D02*
X181364500Y-98014500D01*
X182913000Y-97950000D02*
X182389727Y-97950000D01*
X181364500Y-98014500D02*
X177900000Y-94550000D01*
X177900000Y-94550000D02*
X167550000Y-94550000D01*
X167550000Y-94550000D02*
X167350000Y-94350000D01*
X169360100Y-87884000D02*
X167684000Y-87884000D01*
%TO.N,/X_2*%
X167084000Y-88384000D02*
X166900000Y-88200000D01*
X183290500Y-100867500D02*
X184404000Y-101981000D01*
X166900000Y-94900000D02*
X177700000Y-94900000D01*
X182327500Y-98327500D02*
X183290500Y-99290500D01*
X177700000Y-94900000D02*
X181127500Y-98327500D01*
X183290500Y-99290500D02*
X183290500Y-100867500D01*
X181127500Y-98327500D02*
X182327500Y-98327500D01*
X169360100Y-88384000D02*
X167084000Y-88384000D01*
%TO.N,/X_3*%
X166584000Y-88884000D02*
X166400000Y-88700000D01*
X166560400Y-107450000D02*
X179900273Y-107450000D01*
X182977500Y-105947500D02*
X184404000Y-104521000D01*
X166400000Y-107289600D02*
X166560400Y-107450000D01*
X169360100Y-88884000D02*
X166584000Y-88884000D01*
X181402773Y-105947500D02*
X182977500Y-105947500D01*
X179900273Y-107450000D02*
X181402773Y-105947500D01*
%TO.N,/Y0_0*%
X170797600Y-85946500D02*
X170797600Y-84702400D01*
X170797600Y-84702400D02*
X172286500Y-83213500D01*
X180311500Y-83213500D02*
X181864000Y-81661000D01*
X172286500Y-83213500D02*
X180311500Y-83213500D01*
%TO.N,/Y0_1*%
X172297600Y-84952400D02*
X172700000Y-84550000D01*
X181515000Y-84550000D02*
X181864000Y-84201000D01*
X172297600Y-85946500D02*
X172297600Y-84952400D01*
X172700000Y-84550000D02*
X181515000Y-84550000D01*
%TO.N,/Y0_2*%
X173235100Y-87384000D02*
X181221000Y-87384000D01*
X181221000Y-87384000D02*
X181864000Y-86741000D01*
%TO.N,/Y0_3*%
X173235100Y-88384000D02*
X180967000Y-88384000D01*
X180967000Y-88384000D02*
X181864000Y-89281000D01*
%TO.N,/Y1_0*%
X171297600Y-84802400D02*
X171900000Y-84200000D01*
X171297600Y-85946500D02*
X171297600Y-84802400D01*
X171900000Y-84200000D02*
X180290273Y-84200000D01*
X180290273Y-84200000D02*
X181715773Y-82774500D01*
X181715773Y-82774500D02*
X183290500Y-82774500D01*
X183290500Y-82774500D02*
X184404000Y-81661000D01*
%TO.N,/Y1_1*%
X179200000Y-85400000D02*
X183205000Y-85400000D01*
X173235100Y-86884000D02*
X177716000Y-86884000D01*
X177716000Y-86884000D02*
X179200000Y-85400000D01*
X183205000Y-85400000D02*
X184404000Y-84201000D01*
%TO.N,/SWDIO*%
X172212000Y-82677000D02*
X172212000Y-77216000D01*
X170297600Y-84591400D02*
X172212000Y-82677000D01*
X170297600Y-85946500D02*
X170297600Y-84591400D01*
X172613961Y-76814039D02*
X182351039Y-76814039D01*
X172212000Y-77216000D02*
X172613961Y-76814039D01*
X182351039Y-76814039D02*
X182626000Y-77089000D01*
%TO.N,/SWCLK*%
X169797600Y-84456400D02*
X169797600Y-85886500D01*
X171831000Y-82423000D02*
X169797600Y-84456400D01*
X183896000Y-77089000D02*
X183107539Y-76300539D01*
X171831000Y-76835000D02*
X171831000Y-82423000D01*
X183107539Y-76300539D02*
X172365461Y-76300539D01*
X172365461Y-76300539D02*
X171831000Y-76835000D01*
D55*
%TO.N,+5VP*%
X167113000Y-101073000D02*
X167640000Y-101600000D01*
X168167000Y-101073000D02*
X169653000Y-101073000D01*
X178422000Y-101407000D02*
X175453000Y-101407000D01*
X155305000Y-99958400D02*
X156419600Y-101073000D01*
X172913000Y-101407000D02*
X172720000Y-101600000D01*
X169653000Y-101073000D02*
X170180000Y-101600000D01*
X172720000Y-101600000D02*
X172527000Y-101407000D01*
X161931000Y-101073000D02*
X167113000Y-101073000D01*
X175067000Y-101407000D02*
X172913000Y-101407000D01*
D53*
X157019665Y-98980665D02*
X157099000Y-99060000D01*
D55*
X155305000Y-98980665D02*
X155305000Y-99958400D01*
X175260000Y-101600000D02*
X175067000Y-101407000D01*
X170707000Y-101073000D02*
X171081000Y-101073000D01*
D53*
X155305000Y-98980665D02*
X157019665Y-98980665D01*
D55*
X172527000Y-101407000D02*
X171415000Y-101407000D01*
X170180000Y-101600000D02*
X170707000Y-101073000D01*
X156419600Y-101073000D02*
X161931000Y-101073000D01*
X167640000Y-101600000D02*
X168167000Y-101073000D01*
X171415000Y-101407000D02*
X171081000Y-101073000D01*
X175453000Y-101407000D02*
X175260000Y-101600000D01*
%TO.N,Net-(J7-Pin_23)*%
X183261000Y-112649000D02*
X185420000Y-112649000D01*
X181864000Y-109601000D02*
X183261000Y-110998000D01*
X183261000Y-110998000D02*
X183261000Y-112649000D01*
%TD*%
%TA.AperFunction,Conductor*%
%TO.N,+5VP*%
G36*
X188001153Y-75825694D02*
G01*
X188318180Y-75843497D01*
X188331978Y-75845051D01*
X188641580Y-75897653D01*
X188655135Y-75900747D01*
X188956898Y-75987681D01*
X188970025Y-75992274D01*
X189260153Y-76112448D01*
X189272660Y-76118471D01*
X189547518Y-76270377D01*
X189559292Y-76277775D01*
X189632622Y-76329805D01*
X189815416Y-76459503D01*
X189826270Y-76468159D01*
X190060436Y-76677420D01*
X190070262Y-76687247D01*
X190279521Y-76921407D01*
X190288191Y-76932278D01*
X190469909Y-77188384D01*
X190477307Y-77200158D01*
X190629212Y-77475007D01*
X190635246Y-77487536D01*
X190733192Y-77723999D01*
X190755419Y-77777658D01*
X190760012Y-77790784D01*
X190846948Y-78092547D01*
X190850042Y-78106103D01*
X190902644Y-78415693D01*
X190904201Y-78429511D01*
X190921985Y-78746170D01*
X190922180Y-78753123D01*
X190922180Y-112746519D01*
X190921985Y-112753472D01*
X190904181Y-113070487D01*
X190902624Y-113084305D01*
X190850023Y-113393893D01*
X190846929Y-113407450D01*
X190759994Y-113709209D01*
X190755401Y-113722334D01*
X190635228Y-114012454D01*
X190629194Y-114024983D01*
X190477290Y-114299830D01*
X190469892Y-114311603D01*
X190288175Y-114567708D01*
X190279506Y-114578580D01*
X190070249Y-114812738D01*
X190060416Y-114822571D01*
X189826272Y-115031813D01*
X189815400Y-115040483D01*
X189559282Y-115222207D01*
X189547508Y-115229605D01*
X189387353Y-115318118D01*
X189272659Y-115381506D01*
X189260138Y-115387536D01*
X188970016Y-115507706D01*
X188956891Y-115512299D01*
X188655131Y-115599233D01*
X188641574Y-115602327D01*
X188331986Y-115654927D01*
X188318168Y-115656484D01*
X188057497Y-115671121D01*
X188000796Y-115674305D01*
X187993847Y-115674500D01*
X152394500Y-115674500D01*
X152327461Y-115654815D01*
X152281706Y-115602011D01*
X152270500Y-115550500D01*
X152270500Y-114157479D01*
X152290185Y-114090440D01*
X152342989Y-114044685D01*
X152412147Y-114034741D01*
X152475703Y-114063766D01*
X152482181Y-114069798D01*
X152825302Y-114412919D01*
X152835997Y-114425114D01*
X152853749Y-114448249D01*
X152883330Y-114470947D01*
X152883339Y-114470955D01*
X152971567Y-114538654D01*
X153108766Y-114595483D01*
X153256000Y-114614868D01*
X153284916Y-114611060D01*
X153301102Y-114610000D01*
X173441271Y-114610000D01*
X173507099Y-114629329D01*
X173507280Y-114629043D01*
X173508294Y-114629680D01*
X173508310Y-114629685D01*
X173508339Y-114629708D01*
X173519107Y-114636474D01*
X173519110Y-114636477D01*
X173662310Y-114726456D01*
X173821941Y-114782313D01*
X173933980Y-114794937D01*
X173989999Y-114801249D01*
X173989999Y-114801248D01*
X173990000Y-114801249D01*
X174158059Y-114782313D01*
X174317690Y-114726456D01*
X174460890Y-114636477D01*
X174580477Y-114516890D01*
X174670456Y-114373690D01*
X174726313Y-114214059D01*
X174745249Y-114046000D01*
X174726313Y-113877941D01*
X174670456Y-113718310D01*
X174580477Y-113575110D01*
X174460890Y-113455523D01*
X174317690Y-113365544D01*
X174158059Y-113309687D01*
X174158058Y-113309686D01*
X174158056Y-113309686D01*
X174077542Y-113300614D01*
X174013128Y-113273547D01*
X173973573Y-113215952D01*
X173968206Y-113163510D01*
X173981366Y-113046708D01*
X173983249Y-113030000D01*
X173981224Y-113012032D01*
X173969391Y-112907011D01*
X173964313Y-112861941D01*
X173908456Y-112702310D01*
X173818477Y-112559110D01*
X173698890Y-112439523D01*
X173555690Y-112349544D01*
X173396059Y-112293687D01*
X173396058Y-112293686D01*
X173396056Y-112293686D01*
X173228000Y-112274750D01*
X173059943Y-112293686D01*
X172900310Y-112349544D01*
X172757108Y-112439524D01*
X172637524Y-112559108D01*
X172547544Y-112702310D01*
X172491686Y-112861943D01*
X172490848Y-112869384D01*
X172463781Y-112933798D01*
X172406186Y-112973353D01*
X172367628Y-112979500D01*
X171429249Y-112979500D01*
X171362210Y-112959815D01*
X171316455Y-112907011D01*
X171306511Y-112837853D01*
X171335536Y-112774297D01*
X171341568Y-112767819D01*
X171434046Y-112675340D01*
X171515431Y-112559110D01*
X171564568Y-112488934D01*
X171660739Y-112282696D01*
X171719635Y-112062892D01*
X171739468Y-111836200D01*
X171719635Y-111609508D01*
X171660739Y-111389704D01*
X171564568Y-111183466D01*
X171557965Y-111174035D01*
X171434046Y-110997059D01*
X171273140Y-110836153D01*
X171086735Y-110705632D01*
X170880497Y-110609461D01*
X170660689Y-110550564D01*
X170434000Y-110530731D01*
X170207310Y-110550564D01*
X169987502Y-110609461D01*
X169781264Y-110705632D01*
X169594863Y-110836150D01*
X169437519Y-110993494D01*
X169376196Y-111026978D01*
X169306504Y-111021994D01*
X169250571Y-110980122D01*
X169235737Y-110942412D01*
X169233041Y-110943418D01*
X169177352Y-110794110D01*
X169091188Y-110679011D01*
X168976089Y-110592847D01*
X168841371Y-110542600D01*
X168785132Y-110536554D01*
X168778518Y-110536200D01*
X168184000Y-110536200D01*
X168184000Y-111520514D01*
X168172045Y-111508559D01*
X168059148Y-111451035D01*
X167965481Y-111436200D01*
X167902519Y-111436200D01*
X167808852Y-111451035D01*
X167695955Y-111508559D01*
X167684000Y-111520514D01*
X167684000Y-110536200D01*
X167089482Y-110536200D01*
X167082867Y-110536554D01*
X167026628Y-110542600D01*
X166891910Y-110592847D01*
X166776811Y-110679011D01*
X166690647Y-110794110D01*
X166640400Y-110928828D01*
X166634354Y-110985067D01*
X166634000Y-110991681D01*
X166634000Y-111586200D01*
X167618314Y-111586200D01*
X167606359Y-111598155D01*
X167548835Y-111711052D01*
X167529014Y-111836200D01*
X167548835Y-111961348D01*
X167606359Y-112074245D01*
X167618314Y-112086200D01*
X166634000Y-112086200D01*
X166634000Y-112680718D01*
X166634354Y-112687332D01*
X166640400Y-112743571D01*
X166665985Y-112812166D01*
X166670969Y-112881858D01*
X166637484Y-112943181D01*
X166576161Y-112976666D01*
X166549803Y-112979500D01*
X160811977Y-112979500D01*
X160744938Y-112959815D01*
X160699183Y-112907011D01*
X160689239Y-112837853D01*
X160692202Y-112823406D01*
X160696836Y-112806110D01*
X160705063Y-112775408D01*
X160725659Y-112540000D01*
X160725301Y-112535913D01*
X160705063Y-112304592D01*
X160697067Y-112274750D01*
X160643903Y-112076337D01*
X160544035Y-111862171D01*
X160408495Y-111668599D01*
X160286569Y-111546673D01*
X160253084Y-111485350D01*
X160258068Y-111415658D01*
X160299940Y-111359725D01*
X160330915Y-111342810D01*
X160462331Y-111293796D01*
X160577546Y-111207546D01*
X160663796Y-111092331D01*
X160714091Y-110957483D01*
X160720500Y-110897873D01*
X160720499Y-109526999D01*
X160740184Y-109459961D01*
X160792987Y-109414206D01*
X160844499Y-109403000D01*
X171409271Y-109403000D01*
X171475099Y-109422329D01*
X171475280Y-109422043D01*
X171476294Y-109422680D01*
X171476310Y-109422685D01*
X171476339Y-109422708D01*
X171487107Y-109429474D01*
X171487110Y-109429477D01*
X171630310Y-109519456D01*
X171789941Y-109575313D01*
X171901980Y-109587936D01*
X171957999Y-109594249D01*
X171957999Y-109594248D01*
X171958000Y-109594249D01*
X172126059Y-109575313D01*
X172285690Y-109519456D01*
X172428890Y-109429477D01*
X172548477Y-109309890D01*
X172638456Y-109166690D01*
X172694313Y-109007059D01*
X172699324Y-108962589D01*
X172699546Y-108960617D01*
X172726612Y-108896203D01*
X172784207Y-108856647D01*
X172822766Y-108850500D01*
X174802906Y-108850500D01*
X174869945Y-108870185D01*
X174915700Y-108922989D01*
X174925644Y-108992147D01*
X174900517Y-109050973D01*
X174775779Y-109210189D01*
X174775774Y-109210195D01*
X174773470Y-109213137D01*
X174771540Y-109216328D01*
X174771532Y-109216341D01*
X174606392Y-109489515D01*
X174606384Y-109489528D01*
X174604455Y-109492721D01*
X174602921Y-109496128D01*
X174602918Y-109496135D01*
X174523368Y-109672889D01*
X174470373Y-109790639D01*
X174469260Y-109794210D01*
X174469258Y-109794216D01*
X174397047Y-110025952D01*
X174373179Y-110102547D01*
X174372505Y-110106224D01*
X174372502Y-110106237D01*
X174314965Y-110420207D01*
X174314962Y-110420223D01*
X174314290Y-110423896D01*
X174314064Y-110427625D01*
X174314063Y-110427637D01*
X174298867Y-110678864D01*
X174294564Y-110750000D01*
X174294790Y-110753736D01*
X174314063Y-111072362D01*
X174314064Y-111072372D01*
X174314290Y-111076104D01*
X174314963Y-111079778D01*
X174314965Y-111079792D01*
X174372502Y-111393762D01*
X174372504Y-111393771D01*
X174373179Y-111397453D01*
X174374295Y-111401036D01*
X174374296Y-111401038D01*
X174459454Y-111674321D01*
X174470373Y-111709361D01*
X174525118Y-111831000D01*
X174598578Y-111994222D01*
X174604455Y-112007279D01*
X174606388Y-112010477D01*
X174606392Y-112010484D01*
X174771532Y-112283658D01*
X174771536Y-112283663D01*
X174773470Y-112286863D01*
X174974952Y-112544036D01*
X175205964Y-112775048D01*
X175463137Y-112976530D01*
X175466339Y-112978466D01*
X175466341Y-112978467D01*
X175739515Y-113143607D01*
X175742721Y-113145545D01*
X176040639Y-113279627D01*
X176352547Y-113376821D01*
X176673896Y-113435710D01*
X177000000Y-113455436D01*
X177326104Y-113435710D01*
X177647453Y-113376821D01*
X177959361Y-113279627D01*
X178257279Y-113145545D01*
X178536863Y-112976530D01*
X178635823Y-112899000D01*
X180748501Y-112899000D01*
X180748501Y-112949993D01*
X180748821Y-112956275D01*
X180758556Y-113051582D01*
X180811406Y-113211073D01*
X180899614Y-113354081D01*
X181018418Y-113472885D01*
X181161426Y-113561093D01*
X181320916Y-113613943D01*
X181416206Y-113623678D01*
X181422522Y-113623999D01*
X181436000Y-113623999D01*
X181436000Y-112899000D01*
X180748501Y-112899000D01*
X178635823Y-112899000D01*
X178794036Y-112775048D01*
X179025048Y-112544036D01*
X179138676Y-112399000D01*
X180748500Y-112399000D01*
X181436000Y-112399000D01*
X181436000Y-111674000D01*
X181422509Y-111674000D01*
X181416222Y-111674321D01*
X181320917Y-111684056D01*
X181161426Y-111736906D01*
X181018418Y-111825114D01*
X180899614Y-111943918D01*
X180811406Y-112086926D01*
X180758556Y-112246416D01*
X180748819Y-112341724D01*
X180748500Y-112348004D01*
X180748500Y-112399000D01*
X179138676Y-112399000D01*
X179226530Y-112286863D01*
X179395545Y-112007279D01*
X179529627Y-111709361D01*
X179626821Y-111397453D01*
X179685710Y-111076104D01*
X179705436Y-110750000D01*
X179685710Y-110423896D01*
X179626821Y-110102547D01*
X179529627Y-109790639D01*
X179395545Y-109492721D01*
X179353204Y-109422680D01*
X179228467Y-109216341D01*
X179228466Y-109216339D01*
X179226530Y-109213137D01*
X179190140Y-109166689D01*
X179176171Y-109148858D01*
X179150322Y-109083945D01*
X179163671Y-109015363D01*
X179211979Y-108964884D01*
X179216156Y-108962589D01*
X179228779Y-108955964D01*
X179304146Y-108916408D01*
X179426932Y-108807629D01*
X179515678Y-108679058D01*
X179569958Y-108635070D01*
X179617726Y-108625500D01*
X179710820Y-108625500D01*
X179710821Y-108625500D01*
X179870095Y-108586242D01*
X180015346Y-108510008D01*
X180138132Y-108401229D01*
X180231318Y-108266226D01*
X180289488Y-108112845D01*
X180309261Y-107950000D01*
X180304479Y-107910620D01*
X180315939Y-107841700D01*
X180339891Y-107807997D01*
X180475413Y-107672475D01*
X180536734Y-107638992D01*
X180606426Y-107643976D01*
X180662359Y-107685848D01*
X180675473Y-107707752D01*
X180689965Y-107738830D01*
X180825505Y-107932401D01*
X180992599Y-108099495D01*
X181178160Y-108229426D01*
X181221783Y-108284002D01*
X181228976Y-108353501D01*
X181197454Y-108415855D01*
X181178158Y-108432575D01*
X181084297Y-108498298D01*
X180992595Y-108562508D01*
X180825505Y-108729598D01*
X180689965Y-108923170D01*
X180590097Y-109137336D01*
X180528936Y-109365592D01*
X180508340Y-109600999D01*
X180528936Y-109836407D01*
X180554496Y-109931798D01*
X180590097Y-110064663D01*
X180689965Y-110278830D01*
X180825505Y-110472401D01*
X180992599Y-110639495D01*
X181186170Y-110775035D01*
X181400337Y-110874903D01*
X181605737Y-110929939D01*
X181628592Y-110936063D01*
X181863998Y-110956659D01*
X181863998Y-110956658D01*
X181864000Y-110956659D01*
X181989235Y-110945701D01*
X182057732Y-110959467D01*
X182087722Y-110981548D01*
X182406681Y-111300507D01*
X182440166Y-111361830D01*
X182443000Y-111388188D01*
X182443000Y-111658093D01*
X182423315Y-111725132D01*
X182370511Y-111770887D01*
X182301353Y-111780831D01*
X182253904Y-111763632D01*
X182210575Y-111736907D01*
X182051083Y-111684056D01*
X181955775Y-111674319D01*
X181949496Y-111674000D01*
X181936000Y-111674000D01*
X181936000Y-113623999D01*
X181949493Y-113623999D01*
X181955775Y-113623678D01*
X182051082Y-113613943D01*
X182210573Y-113561093D01*
X182353581Y-113472885D01*
X182385466Y-113441001D01*
X182446789Y-113407516D01*
X182516481Y-113412500D01*
X182560828Y-113441001D01*
X182593106Y-113473279D01*
X182593108Y-113473280D01*
X182593109Y-113473281D01*
X182736213Y-113561549D01*
X182816013Y-113587992D01*
X182895814Y-113614436D01*
X182991193Y-113624180D01*
X182991194Y-113624180D01*
X182994326Y-113624500D01*
X182997475Y-113624500D01*
X183524525Y-113624500D01*
X183527674Y-113624500D01*
X183626185Y-113614436D01*
X183785787Y-113561549D01*
X183785789Y-113561548D01*
X183909144Y-113485462D01*
X183974241Y-113467000D01*
X184698735Y-113467000D01*
X184763832Y-113485462D01*
X184886300Y-113561002D01*
X185047292Y-113614349D01*
X185143522Y-113624180D01*
X185143523Y-113624180D01*
X185146655Y-113624500D01*
X185693344Y-113624499D01*
X185792708Y-113614349D01*
X185953697Y-113561003D01*
X186098044Y-113471968D01*
X186107317Y-113462694D01*
X186168639Y-113429208D01*
X186238331Y-113434191D01*
X186282683Y-113462695D01*
X186291957Y-113471969D01*
X186436300Y-113561002D01*
X186597292Y-113614349D01*
X186693522Y-113624180D01*
X186693523Y-113624180D01*
X186696655Y-113624500D01*
X187243344Y-113624499D01*
X187342708Y-113614349D01*
X187503697Y-113561003D01*
X187592274Y-113506368D01*
X187648044Y-113471968D01*
X187767968Y-113352044D01*
X187857002Y-113207699D01*
X187860197Y-113198059D01*
X187910349Y-113046708D01*
X187920500Y-112947345D01*
X187920499Y-112350656D01*
X187910349Y-112251292D01*
X187857003Y-112090303D01*
X187857002Y-112090302D01*
X187857002Y-112090300D01*
X187767968Y-111945955D01*
X187648044Y-111826031D01*
X187503699Y-111736997D01*
X187342707Y-111683650D01*
X187246477Y-111673819D01*
X187246458Y-111673818D01*
X187243345Y-111673500D01*
X187240196Y-111673500D01*
X186699805Y-111673500D01*
X186699785Y-111673500D01*
X186696656Y-111673501D01*
X186693524Y-111673820D01*
X186693522Y-111673821D01*
X186597292Y-111683650D01*
X186436300Y-111736997D01*
X186291954Y-111826031D01*
X186282679Y-111835307D01*
X186221355Y-111868791D01*
X186151663Y-111863805D01*
X186107321Y-111835307D01*
X186098045Y-111826031D01*
X185953699Y-111736997D01*
X185792707Y-111683650D01*
X185696477Y-111673819D01*
X185696458Y-111673818D01*
X185693345Y-111673500D01*
X185690196Y-111673500D01*
X185149805Y-111673500D01*
X185149785Y-111673500D01*
X185146656Y-111673501D01*
X185143524Y-111673820D01*
X185143522Y-111673821D01*
X185047292Y-111683650D01*
X184886300Y-111736997D01*
X184763832Y-111812538D01*
X184698735Y-111831000D01*
X184203000Y-111831000D01*
X184135961Y-111811315D01*
X184090206Y-111758511D01*
X184079000Y-111707000D01*
X184079000Y-111050334D01*
X184098685Y-110983295D01*
X184127514Y-110951958D01*
X184153999Y-110931634D01*
X184153999Y-110036501D01*
X184261685Y-110085680D01*
X184368237Y-110101000D01*
X184439763Y-110101000D01*
X184546315Y-110085680D01*
X184654000Y-110036501D01*
X184654000Y-110931633D01*
X184867490Y-110874430D01*
X185081576Y-110774600D01*
X185275081Y-110639106D01*
X185442106Y-110472081D01*
X185577600Y-110278576D01*
X185677430Y-110064492D01*
X185734636Y-109851000D01*
X184837686Y-109851000D01*
X184863493Y-109810844D01*
X184904000Y-109672889D01*
X184904000Y-109529111D01*
X184863493Y-109391156D01*
X184837686Y-109351000D01*
X185734636Y-109351000D01*
X185734635Y-109350999D01*
X185677430Y-109137507D01*
X185577599Y-108923421D01*
X185442109Y-108729921D01*
X185275081Y-108562893D01*
X185089404Y-108432880D01*
X185045780Y-108378303D01*
X185038587Y-108308804D01*
X185070109Y-108246450D01*
X185089399Y-108229734D01*
X185275401Y-108099495D01*
X185442495Y-107932401D01*
X185578035Y-107738830D01*
X185677903Y-107524663D01*
X185739063Y-107296408D01*
X185759659Y-107061000D01*
X185739063Y-106825592D01*
X185677903Y-106597337D01*
X185578035Y-106383171D01*
X185442495Y-106189599D01*
X185275401Y-106022505D01*
X185089839Y-105892573D01*
X185046216Y-105837998D01*
X185039022Y-105768500D01*
X185070545Y-105706145D01*
X185089837Y-105689428D01*
X185275401Y-105559495D01*
X185442495Y-105392401D01*
X185578035Y-105198830D01*
X185677903Y-104984663D01*
X185739063Y-104756408D01*
X185759659Y-104521000D01*
X185739063Y-104285592D01*
X185677903Y-104057337D01*
X185578035Y-103843171D01*
X185442495Y-103649599D01*
X185275401Y-103482505D01*
X185089839Y-103352573D01*
X185046215Y-103297997D01*
X185039023Y-103228498D01*
X185070545Y-103166144D01*
X185089831Y-103149432D01*
X185275401Y-103019495D01*
X185442495Y-102852401D01*
X185578035Y-102658830D01*
X185677903Y-102444663D01*
X185739063Y-102216408D01*
X185759659Y-101981000D01*
X185739063Y-101745592D01*
X185677903Y-101517337D01*
X185578035Y-101303171D01*
X185442495Y-101109599D01*
X185275401Y-100942505D01*
X185089839Y-100812573D01*
X185046216Y-100757998D01*
X185039022Y-100688500D01*
X185070545Y-100626145D01*
X185089837Y-100609428D01*
X185275401Y-100479495D01*
X185442495Y-100312401D01*
X185578035Y-100118830D01*
X185677903Y-99904663D01*
X185739063Y-99676408D01*
X185759659Y-99441000D01*
X185758321Y-99425712D01*
X185739063Y-99205592D01*
X185711896Y-99104202D01*
X185677903Y-98977337D01*
X185578035Y-98763171D01*
X185442495Y-98569599D01*
X185275401Y-98402505D01*
X185089839Y-98272573D01*
X185046215Y-98217997D01*
X185039023Y-98148498D01*
X185070545Y-98086144D01*
X185089831Y-98069432D01*
X185275401Y-97939495D01*
X185442495Y-97772401D01*
X185578035Y-97578830D01*
X185677903Y-97364663D01*
X185739063Y-97136408D01*
X185759659Y-96901000D01*
X185739063Y-96665592D01*
X185677903Y-96437337D01*
X185578035Y-96223171D01*
X185442495Y-96029599D01*
X185275401Y-95862505D01*
X185089402Y-95732267D01*
X185045780Y-95677692D01*
X185038587Y-95608193D01*
X185070109Y-95545839D01*
X185089405Y-95529119D01*
X185275078Y-95399109D01*
X185442106Y-95232081D01*
X185577600Y-95038576D01*
X185677430Y-94824492D01*
X185734636Y-94611000D01*
X184837686Y-94611000D01*
X184863493Y-94570844D01*
X184904000Y-94432889D01*
X184904000Y-94289111D01*
X184863493Y-94151156D01*
X184837686Y-94111000D01*
X185734636Y-94111000D01*
X185734635Y-94110999D01*
X185677430Y-93897507D01*
X185577599Y-93683421D01*
X185442109Y-93489921D01*
X185275081Y-93322893D01*
X185089404Y-93192880D01*
X185045780Y-93138303D01*
X185038587Y-93068804D01*
X185070109Y-93006450D01*
X185089399Y-92989734D01*
X185275401Y-92859495D01*
X185442495Y-92692401D01*
X185578035Y-92498830D01*
X185677903Y-92284663D01*
X185739063Y-92056408D01*
X185759659Y-91821000D01*
X185739063Y-91585592D01*
X185677903Y-91357337D01*
X185578035Y-91143171D01*
X185442495Y-90949599D01*
X185275401Y-90782505D01*
X185089839Y-90652573D01*
X185046216Y-90597998D01*
X185039022Y-90528500D01*
X185070545Y-90466145D01*
X185089837Y-90449428D01*
X185275401Y-90319495D01*
X185442495Y-90152401D01*
X185578035Y-89958830D01*
X185677903Y-89744663D01*
X185739063Y-89516408D01*
X185759659Y-89281000D01*
X185739063Y-89045592D01*
X185677903Y-88817337D01*
X185578035Y-88603171D01*
X185442495Y-88409599D01*
X185275401Y-88242505D01*
X185089839Y-88112573D01*
X185046216Y-88057998D01*
X185039022Y-87988500D01*
X185070545Y-87926145D01*
X185089837Y-87909428D01*
X185275401Y-87779495D01*
X185442495Y-87612401D01*
X185578035Y-87418830D01*
X185677903Y-87204663D01*
X185739063Y-86976408D01*
X185759659Y-86741000D01*
X185745660Y-86581000D01*
X185739063Y-86505592D01*
X185688036Y-86315156D01*
X185677903Y-86277337D01*
X185578035Y-86063171D01*
X185442495Y-85869599D01*
X185275401Y-85702505D01*
X185089839Y-85572573D01*
X185046216Y-85517998D01*
X185039022Y-85448500D01*
X185070545Y-85386145D01*
X185089837Y-85369428D01*
X185275401Y-85239495D01*
X185442495Y-85072401D01*
X185578035Y-84878830D01*
X185677903Y-84664663D01*
X185739063Y-84436408D01*
X185759659Y-84201000D01*
X185739063Y-83965592D01*
X185677903Y-83737337D01*
X185578035Y-83523171D01*
X185442495Y-83329599D01*
X185275401Y-83162505D01*
X185089839Y-83032573D01*
X185046216Y-82977998D01*
X185039022Y-82908500D01*
X185070545Y-82846145D01*
X185089837Y-82829428D01*
X185275401Y-82699495D01*
X185442495Y-82532401D01*
X185578035Y-82338830D01*
X185677903Y-82124663D01*
X185739063Y-81896408D01*
X185759659Y-81661000D01*
X185739063Y-81425592D01*
X185677903Y-81197337D01*
X185578035Y-80983171D01*
X185442495Y-80789599D01*
X185275401Y-80622505D01*
X185081830Y-80486965D01*
X185042945Y-80468832D01*
X184998159Y-80447948D01*
X184945720Y-80401775D01*
X184926568Y-80334581D01*
X184946784Y-80267700D01*
X184999950Y-80222366D01*
X185009587Y-80218532D01*
X185112690Y-80182456D01*
X185255890Y-80092477D01*
X185375477Y-79972890D01*
X185465456Y-79829690D01*
X185521092Y-79670690D01*
X185550450Y-79623967D01*
X185551044Y-79623373D01*
X185567190Y-79610439D01*
X185569159Y-79608341D01*
X185569162Y-79608340D01*
X185615384Y-79559117D01*
X185618001Y-79556416D01*
X185637623Y-79536796D01*
X185640086Y-79533619D01*
X185647684Y-79524720D01*
X185677693Y-79492767D01*
X185687392Y-79475122D01*
X185698071Y-79458864D01*
X185710408Y-79442962D01*
X185727817Y-79402728D01*
X185732954Y-79392245D01*
X185754072Y-79353834D01*
X185759080Y-79334326D01*
X185765377Y-79315935D01*
X185773373Y-79297459D01*
X185780230Y-79254160D01*
X185782596Y-79242737D01*
X185793500Y-79200272D01*
X185793500Y-79180134D01*
X185795027Y-79160736D01*
X185798174Y-79140867D01*
X185794050Y-79097238D01*
X185793500Y-79085569D01*
X185793500Y-79046051D01*
X185813185Y-78979012D01*
X185825344Y-78963084D01*
X185893408Y-78887493D01*
X185987392Y-78724707D01*
X186045478Y-78545939D01*
X186065126Y-78359000D01*
X186045478Y-78172061D01*
X185987392Y-77993293D01*
X185987392Y-77993292D01*
X185893408Y-77830507D01*
X185872217Y-77806972D01*
X185841987Y-77743980D01*
X185850613Y-77674645D01*
X185872218Y-77641027D01*
X185893408Y-77617493D01*
X185987392Y-77454707D01*
X186005907Y-77397724D01*
X186045478Y-77275939D01*
X186065126Y-77089000D01*
X186045478Y-76902061D01*
X185987392Y-76723293D01*
X185987392Y-76723292D01*
X185893408Y-76560506D01*
X185767632Y-76420817D01*
X185615566Y-76310335D01*
X185542434Y-76277775D01*
X185443845Y-76233880D01*
X185443842Y-76233879D01*
X185443839Y-76233878D01*
X185259987Y-76194800D01*
X185259984Y-76194800D01*
X185072016Y-76194800D01*
X185072013Y-76194800D01*
X184888160Y-76233878D01*
X184888155Y-76233879D01*
X184888155Y-76233880D01*
X184849596Y-76251047D01*
X184716433Y-76310335D01*
X184603885Y-76392107D01*
X184538079Y-76415587D01*
X184470025Y-76399761D01*
X184458115Y-76392107D01*
X184345566Y-76310335D01*
X184272434Y-76277775D01*
X184173845Y-76233880D01*
X184173842Y-76233879D01*
X184173839Y-76233878D01*
X183989987Y-76194800D01*
X183989984Y-76194800D01*
X183850779Y-76194800D01*
X183783740Y-76175115D01*
X183763098Y-76158481D01*
X183641798Y-76037181D01*
X183608313Y-75975858D01*
X183613297Y-75906166D01*
X183655169Y-75850233D01*
X183720633Y-75825816D01*
X183729479Y-75825500D01*
X187973149Y-75825500D01*
X187994202Y-75825500D01*
X188001153Y-75825694D01*
G37*
%TD.AperFunction*%
%TA.AperFunction,Conductor*%
G36*
X159818459Y-94392061D02*
G01*
X159938227Y-94445857D01*
X160005388Y-94465123D01*
X160005393Y-94465124D01*
X160147934Y-94484710D01*
X166168907Y-94447077D01*
X166236065Y-94466343D01*
X166282149Y-94518860D01*
X166292525Y-94587955D01*
X166285621Y-94615045D01*
X166239312Y-94737152D01*
X166219538Y-94899999D01*
X166239312Y-95062845D01*
X166270787Y-95145838D01*
X166276154Y-95215501D01*
X166243006Y-95277007D01*
X166219943Y-95295347D01*
X166162654Y-95330683D01*
X166038683Y-95454654D01*
X165946642Y-95603877D01*
X165894300Y-95761835D01*
X165887503Y-95778285D01*
X165883543Y-95786204D01*
X165887832Y-95801825D01*
X165887209Y-95812240D01*
X165881320Y-95869888D01*
X165881000Y-95876170D01*
X165881000Y-98048000D01*
X176280999Y-98048000D01*
X176280999Y-95876170D01*
X176280678Y-95869888D01*
X176270506Y-95770304D01*
X176223021Y-95627004D01*
X176220619Y-95557176D01*
X176256351Y-95497134D01*
X176318871Y-95465941D01*
X176340727Y-95464000D01*
X177415021Y-95464000D01*
X177482060Y-95483685D01*
X177502702Y-95500319D01*
X180652608Y-98650225D01*
X180686093Y-98711548D01*
X180681109Y-98781240D01*
X180677309Y-98790311D01*
X180590097Y-98977336D01*
X180528936Y-99205592D01*
X180508340Y-99440999D01*
X180528936Y-99676407D01*
X180563087Y-99803858D01*
X180590097Y-99904663D01*
X180689965Y-100118830D01*
X180825505Y-100312401D01*
X180992599Y-100479495D01*
X181178160Y-100609426D01*
X181221783Y-100664002D01*
X181228976Y-100733501D01*
X181197454Y-100795855D01*
X181178159Y-100812575D01*
X180992595Y-100942508D01*
X180825505Y-101109598D01*
X180689965Y-101303170D01*
X180590097Y-101517336D01*
X180528936Y-101745592D01*
X180508340Y-101981000D01*
X180528936Y-102216407D01*
X180566257Y-102355690D01*
X180590097Y-102444663D01*
X180689965Y-102658830D01*
X180825505Y-102852401D01*
X180992599Y-103019495D01*
X181178160Y-103149426D01*
X181221783Y-103204002D01*
X181228976Y-103273501D01*
X181197454Y-103335855D01*
X181178159Y-103352575D01*
X180992595Y-103482508D01*
X180825505Y-103649598D01*
X180689965Y-103843170D01*
X180590097Y-104057336D01*
X180528936Y-104285592D01*
X180508340Y-104521000D01*
X180528936Y-104756407D01*
X180548516Y-104829480D01*
X180590097Y-104984663D01*
X180689965Y-105198830D01*
X180825505Y-105392401D01*
X180825508Y-105392404D01*
X180905198Y-105472094D01*
X180938683Y-105533417D01*
X180933699Y-105603109D01*
X180905198Y-105647456D01*
X179702975Y-106849681D01*
X179641652Y-106883166D01*
X179615294Y-106886000D01*
X176225427Y-106886000D01*
X176158388Y-106866315D01*
X176112633Y-106813511D01*
X176102689Y-106744353D01*
X176119888Y-106696903D01*
X176215358Y-106542120D01*
X176270506Y-106375696D01*
X176280680Y-106276109D01*
X176281000Y-106269831D01*
X176281000Y-104098000D01*
X165881001Y-104098000D01*
X165881001Y-106269829D01*
X165881321Y-106276111D01*
X165891493Y-106375695D01*
X165946642Y-106542122D01*
X165990277Y-106612866D01*
X166008717Y-106680258D01*
X165987794Y-106746922D01*
X165966965Y-106770777D01*
X165890668Y-106838369D01*
X165831550Y-106924018D01*
X165777267Y-106968008D01*
X165707818Y-106975668D01*
X165645254Y-106944564D01*
X165609436Y-106884574D01*
X165605500Y-106853578D01*
X165605500Y-102362323D01*
X165605500Y-102359000D01*
X165593947Y-102251544D01*
X165582741Y-102200033D01*
X165571648Y-102166704D01*
X165548614Y-102097496D01*
X165470826Y-101976458D01*
X165457993Y-101961648D01*
X165425070Y-101923653D01*
X165316336Y-101829433D01*
X165316335Y-101829432D01*
X165185460Y-101769662D01*
X165120113Y-101750474D01*
X165120111Y-101750473D01*
X165118420Y-101749977D01*
X165118416Y-101749976D01*
X165115290Y-101749526D01*
X165115277Y-101749524D01*
X164976000Y-101729500D01*
X164824692Y-101729500D01*
X164757653Y-101709815D01*
X164711898Y-101657011D01*
X164701954Y-101587853D01*
X164706986Y-101566495D01*
X164720506Y-101525694D01*
X164730680Y-101426109D01*
X164731000Y-101419831D01*
X164731000Y-101323000D01*
X165881000Y-101323000D01*
X165881000Y-103598000D01*
X168406000Y-103598000D01*
X168406000Y-101323000D01*
X168906000Y-101323000D01*
X168906000Y-103598000D01*
X173256000Y-103598000D01*
X173256000Y-101323000D01*
X173756000Y-101323000D01*
X173756000Y-103598000D01*
X176280999Y-103598000D01*
X176280999Y-101657000D01*
X177197001Y-101657000D01*
X177197001Y-101703829D01*
X177197321Y-101710111D01*
X177207493Y-101809695D01*
X177262642Y-101976122D01*
X177354683Y-102125345D01*
X177478654Y-102249316D01*
X177627877Y-102341357D01*
X177794303Y-102396506D01*
X177893890Y-102406680D01*
X177900168Y-102406999D01*
X178171999Y-102406999D01*
X178172000Y-102406998D01*
X178172000Y-101657000D01*
X178672000Y-101657000D01*
X178672000Y-102406999D01*
X178943829Y-102406999D01*
X178950111Y-102406678D01*
X179049695Y-102396506D01*
X179216122Y-102341357D01*
X179365345Y-102249316D01*
X179489316Y-102125345D01*
X179581357Y-101976122D01*
X179636506Y-101809696D01*
X179646680Y-101710109D01*
X179647000Y-101703831D01*
X179647000Y-101657000D01*
X178672000Y-101657000D01*
X178172000Y-101657000D01*
X177197001Y-101657000D01*
X176280999Y-101657000D01*
X176280999Y-101323000D01*
X173756000Y-101323000D01*
X173256000Y-101323000D01*
X168906000Y-101323000D01*
X168406000Y-101323000D01*
X165881000Y-101323000D01*
X164731000Y-101323000D01*
X159131001Y-101323000D01*
X159131001Y-101419829D01*
X159131321Y-101426111D01*
X159141493Y-101525695D01*
X159155014Y-101566496D01*
X159157416Y-101636324D01*
X159121684Y-101696366D01*
X159059164Y-101727559D01*
X159037308Y-101729500D01*
X151124500Y-101729500D01*
X151057461Y-101709815D01*
X151011706Y-101657011D01*
X151000500Y-101605500D01*
X151000500Y-100823000D01*
X159131000Y-100823000D01*
X161681000Y-100823000D01*
X161681000Y-100023000D01*
X162181000Y-100023000D01*
X162181000Y-100823000D01*
X164730999Y-100823000D01*
X164730999Y-100726170D01*
X164730678Y-100719888D01*
X164720506Y-100620304D01*
X164665357Y-100453877D01*
X164573316Y-100304654D01*
X164449345Y-100180683D01*
X164300122Y-100088642D01*
X164133696Y-100033493D01*
X164034109Y-100023319D01*
X164027832Y-100023000D01*
X162181000Y-100023000D01*
X161681000Y-100023000D01*
X159834170Y-100023000D01*
X159827888Y-100023321D01*
X159728304Y-100033493D01*
X159561877Y-100088642D01*
X159412654Y-100180683D01*
X159288683Y-100304654D01*
X159196642Y-100453877D01*
X159141493Y-100620303D01*
X159131319Y-100719890D01*
X159131000Y-100726168D01*
X159131000Y-100823000D01*
X151000500Y-100823000D01*
X151000500Y-99625243D01*
X152204500Y-99625243D01*
X152204501Y-99628537D01*
X152204853Y-99631817D01*
X152204854Y-99631824D01*
X152210909Y-99688149D01*
X152236056Y-99755572D01*
X152261204Y-99822996D01*
X152347454Y-99938211D01*
X152462669Y-100024461D01*
X152597517Y-100074756D01*
X152657127Y-100081165D01*
X153952872Y-100081164D01*
X154012483Y-100074756D01*
X154147331Y-100024461D01*
X154231107Y-99961745D01*
X154296568Y-99937329D01*
X154364841Y-99952180D01*
X154379727Y-99961746D01*
X154462911Y-100024017D01*
X154597628Y-100074264D01*
X154653867Y-100080310D01*
X154660482Y-100080665D01*
X155055000Y-100080665D01*
X155055000Y-99230665D01*
X155555000Y-99230665D01*
X155555000Y-100080665D01*
X155949518Y-100080665D01*
X155956132Y-100080310D01*
X156012371Y-100074264D01*
X156147089Y-100024017D01*
X156262188Y-99937853D01*
X156348352Y-99822754D01*
X156398599Y-99688036D01*
X156404645Y-99631797D01*
X156405000Y-99625183D01*
X156405000Y-99230665D01*
X155555000Y-99230665D01*
X155055000Y-99230665D01*
X155055000Y-97880665D01*
X155555000Y-97880665D01*
X155555000Y-98730665D01*
X156405000Y-98730665D01*
X156405000Y-98336146D01*
X156404645Y-98329532D01*
X156398599Y-98273293D01*
X156348352Y-98138575D01*
X156262188Y-98023476D01*
X156147089Y-97937312D01*
X156012371Y-97887065D01*
X155956132Y-97881019D01*
X155949518Y-97880665D01*
X155555000Y-97880665D01*
X155055000Y-97880665D01*
X154660482Y-97880665D01*
X154653867Y-97881019D01*
X154597628Y-97887065D01*
X154462908Y-97937313D01*
X154379726Y-97999583D01*
X154314262Y-98024000D01*
X154245989Y-98009148D01*
X154231112Y-97999587D01*
X154147331Y-97936869D01*
X154012483Y-97886574D01*
X153960816Y-97881019D01*
X153956166Y-97880519D01*
X153956165Y-97880518D01*
X153952873Y-97880165D01*
X153949550Y-97880165D01*
X152660439Y-97880165D01*
X152660420Y-97880165D01*
X152657128Y-97880166D01*
X152653848Y-97880518D01*
X152653840Y-97880519D01*
X152597515Y-97886574D01*
X152462669Y-97936869D01*
X152347454Y-98023119D01*
X152261204Y-98138333D01*
X152211136Y-98272574D01*
X152210909Y-98273182D01*
X152204500Y-98332792D01*
X152204500Y-98336113D01*
X152204500Y-98336114D01*
X152204500Y-99625225D01*
X152204500Y-99625243D01*
X151000500Y-99625243D01*
X151000500Y-94609500D01*
X151020185Y-94542461D01*
X151072989Y-94496706D01*
X151124500Y-94485500D01*
X153002753Y-94485500D01*
X153069792Y-94505185D01*
X153115547Y-94557989D01*
X153125491Y-94627147D01*
X153102020Y-94683810D01*
X153061205Y-94738331D01*
X153010909Y-94873181D01*
X153005002Y-94928127D01*
X153004500Y-94932792D01*
X153004500Y-94936113D01*
X153004500Y-94936114D01*
X153004500Y-96525225D01*
X153004500Y-96525243D01*
X153004501Y-96528537D01*
X153010909Y-96588148D01*
X153061204Y-96722996D01*
X153147454Y-96838211D01*
X153262669Y-96924461D01*
X153397517Y-96974756D01*
X153457127Y-96981165D01*
X155152872Y-96981164D01*
X155212483Y-96974756D01*
X155347331Y-96924461D01*
X155462546Y-96838211D01*
X155500871Y-96787014D01*
X155556805Y-96745144D01*
X155626496Y-96740160D01*
X155687819Y-96773645D01*
X157951730Y-99037556D01*
X157951733Y-99037560D01*
X157951734Y-99037560D01*
X157960413Y-99046239D01*
X157960415Y-99046242D01*
X158090758Y-99176585D01*
X158124017Y-99197482D01*
X158135341Y-99205517D01*
X158166044Y-99230003D01*
X158187679Y-99240421D01*
X158201418Y-99247038D01*
X158213589Y-99253764D01*
X158246837Y-99274656D01*
X158283896Y-99287623D01*
X158296745Y-99292945D01*
X158332122Y-99309982D01*
X158370401Y-99318719D01*
X158383763Y-99322568D01*
X158420826Y-99335537D01*
X158426253Y-99336148D01*
X158459841Y-99339933D01*
X158473552Y-99342262D01*
X158511832Y-99351000D01*
X158511833Y-99351000D01*
X158558062Y-99351000D01*
X159286270Y-99351000D01*
X159353309Y-99370685D01*
X159373952Y-99387320D01*
X159412344Y-99425712D01*
X159561666Y-99517814D01*
X159653190Y-99548142D01*
X159728202Y-99572999D01*
X159827858Y-99583180D01*
X159827859Y-99583180D01*
X159830991Y-99583500D01*
X164031008Y-99583499D01*
X164133797Y-99572999D01*
X164300334Y-99517814D01*
X164449656Y-99425712D01*
X164573712Y-99301656D01*
X164665814Y-99152334D01*
X164720999Y-98985797D01*
X164731500Y-98883009D01*
X164731500Y-98548000D01*
X165881000Y-98548000D01*
X165881000Y-100823000D01*
X168406000Y-100823000D01*
X168406000Y-98548000D01*
X168906000Y-98548000D01*
X168906000Y-100823000D01*
X173256000Y-100823000D01*
X173256000Y-98548000D01*
X173756000Y-98548000D01*
X173756000Y-100823000D01*
X176280999Y-100823000D01*
X176280999Y-100735262D01*
X176281000Y-100735251D01*
X176281000Y-99803877D01*
X177196500Y-99803877D01*
X177196501Y-99807008D01*
X177196820Y-99810140D01*
X177196821Y-99810141D01*
X177207000Y-99909796D01*
X177262186Y-100076334D01*
X177354288Y-100225657D01*
X177478340Y-100349709D01*
X177478342Y-100349710D01*
X177478344Y-100349712D01*
X177481652Y-100351752D01*
X177528379Y-100403698D01*
X177539603Y-100472660D01*
X177511762Y-100536744D01*
X177481659Y-100562830D01*
X177478654Y-100564683D01*
X177354683Y-100688654D01*
X177262642Y-100837877D01*
X177207493Y-101004303D01*
X177197319Y-101103890D01*
X177197000Y-101110168D01*
X177197000Y-101157000D01*
X179646998Y-101157000D01*
X179646999Y-101110170D01*
X179646678Y-101103888D01*
X179636506Y-101004304D01*
X179581357Y-100837877D01*
X179489316Y-100688654D01*
X179365344Y-100564682D01*
X179362343Y-100562831D01*
X179315618Y-100510883D01*
X179304397Y-100441921D01*
X179332240Y-100377839D01*
X179362345Y-100351753D01*
X179365656Y-100349712D01*
X179489712Y-100225656D01*
X179581814Y-100076334D01*
X179636999Y-99909797D01*
X179647500Y-99807009D01*
X179647499Y-99206992D01*
X179636999Y-99104203D01*
X179581814Y-98937666D01*
X179489712Y-98788344D01*
X179489711Y-98788342D01*
X179365657Y-98664288D01*
X179216334Y-98572186D01*
X179049797Y-98517000D01*
X178950141Y-98506819D01*
X178950122Y-98506818D01*
X178947009Y-98506500D01*
X178943860Y-98506500D01*
X177900140Y-98506500D01*
X177900120Y-98506500D01*
X177896992Y-98506501D01*
X177893860Y-98506820D01*
X177893858Y-98506821D01*
X177794203Y-98517000D01*
X177627665Y-98572186D01*
X177478342Y-98664288D01*
X177354288Y-98788342D01*
X177262186Y-98937665D01*
X177207000Y-99104202D01*
X177196819Y-99203858D01*
X177196817Y-99203878D01*
X177196500Y-99206991D01*
X177196500Y-99210138D01*
X177196500Y-99210139D01*
X177196500Y-99803858D01*
X177196500Y-99803877D01*
X176281000Y-99803877D01*
X176281000Y-98548000D01*
X173756000Y-98548000D01*
X173256000Y-98548000D01*
X168906000Y-98548000D01*
X168406000Y-98548000D01*
X165881000Y-98548000D01*
X164731500Y-98548000D01*
X164731499Y-98182992D01*
X164720999Y-98080203D01*
X164665814Y-97913666D01*
X164608593Y-97820895D01*
X164573711Y-97764342D01*
X164449657Y-97640288D01*
X164300334Y-97548186D01*
X164133797Y-97493000D01*
X164034141Y-97482819D01*
X164034122Y-97482818D01*
X164031009Y-97482500D01*
X164027860Y-97482500D01*
X159834140Y-97482500D01*
X159834120Y-97482500D01*
X159830992Y-97482501D01*
X159827860Y-97482820D01*
X159827858Y-97482821D01*
X159728203Y-97493000D01*
X159561665Y-97548186D01*
X159412343Y-97640288D01*
X159373952Y-97678680D01*
X159312629Y-97712166D01*
X159286270Y-97715000D01*
X158994188Y-97715000D01*
X158927149Y-97695315D01*
X158906507Y-97678681D01*
X156459480Y-95231654D01*
X156459476Y-95231648D01*
X156314909Y-95087081D01*
X156281656Y-95066187D01*
X156270314Y-95058139D01*
X156239620Y-95033661D01*
X156204250Y-95016628D01*
X156192079Y-95009902D01*
X156158825Y-94989007D01*
X156121763Y-94976039D01*
X156108917Y-94970718D01*
X156073544Y-94953683D01*
X156035259Y-94944945D01*
X156021897Y-94941095D01*
X155984838Y-94928127D01*
X155945822Y-94923731D01*
X155932116Y-94921402D01*
X155893834Y-94912665D01*
X155893831Y-94912665D01*
X155847603Y-94912665D01*
X155699912Y-94912665D01*
X155632873Y-94892980D01*
X155587118Y-94840176D01*
X155583730Y-94831998D01*
X155580930Y-94824492D01*
X155548796Y-94738334D01*
X155548794Y-94738331D01*
X155507980Y-94683810D01*
X155483563Y-94618346D01*
X155498415Y-94550073D01*
X155547820Y-94500668D01*
X155607247Y-94485500D01*
X159386802Y-94485500D01*
X159390542Y-94485500D01*
X159511269Y-94470872D01*
X159568786Y-94456726D01*
X159682533Y-94413685D01*
X159695085Y-94404626D01*
X159760963Y-94381355D01*
X159818459Y-94392061D01*
G37*
%TD.AperFunction*%
%TA.AperFunction,Conductor*%
G36*
X183944507Y-94151156D02*
G01*
X183904000Y-94289111D01*
X183904000Y-94432889D01*
X183944507Y-94570844D01*
X183970314Y-94611000D01*
X182297686Y-94611000D01*
X182323493Y-94570844D01*
X182364000Y-94432889D01*
X182364000Y-94289111D01*
X182323493Y-94151156D01*
X182297686Y-94111000D01*
X183970314Y-94111000D01*
X183944507Y-94151156D01*
G37*
%TD.AperFunction*%
%TD*%
%TA.AperFunction,Conductor*%
%TO.N,+3.3V*%
G36*
X164682313Y-84452016D02*
G01*
X164726658Y-84480515D01*
X164796143Y-84550000D01*
X164845815Y-84599672D01*
X164866034Y-84611895D01*
X164913221Y-84663423D01*
X164925060Y-84732282D01*
X164897791Y-84796611D01*
X164866035Y-84824128D01*
X164833614Y-84843727D01*
X164713328Y-84964013D01*
X164625323Y-85109592D01*
X164574713Y-85272006D01*
X164569522Y-85329136D01*
X164568300Y-85342584D01*
X164568300Y-85345403D01*
X164568300Y-85953341D01*
X164548615Y-86020380D01*
X164495811Y-86066135D01*
X164491779Y-86067890D01*
X164485366Y-86070547D01*
X164485367Y-86070547D01*
X164367547Y-86160951D01*
X164349793Y-86184089D01*
X164339100Y-86196282D01*
X163397514Y-87137868D01*
X163336191Y-87171353D01*
X163266499Y-87166369D01*
X163210566Y-87124497D01*
X163186149Y-87059033D01*
X163186893Y-87034012D01*
X163195800Y-86966361D01*
X163195799Y-86687640D01*
X163186105Y-86614000D01*
X163180345Y-86570239D01*
X163171463Y-86548797D01*
X163163994Y-86479328D01*
X163171464Y-86453888D01*
X163179856Y-86433628D01*
X163187312Y-86377000D01*
X163144800Y-86377000D01*
X163077761Y-86357315D01*
X163046424Y-86328486D01*
X163023582Y-86298718D01*
X162993162Y-86275376D01*
X162951959Y-86218949D01*
X162947804Y-86149203D01*
X162982016Y-86088282D01*
X162993162Y-86078624D01*
X163003688Y-86070547D01*
X163023582Y-86055282D01*
X163046423Y-86025514D01*
X163102852Y-85984311D01*
X163144800Y-85977000D01*
X163187310Y-85977000D01*
X163187311Y-85976998D01*
X163179879Y-85920542D01*
X163190645Y-85851507D01*
X163215132Y-85816683D01*
X164551300Y-84480515D01*
X164612621Y-84447032D01*
X164682313Y-84452016D01*
G37*
%TD.AperFunction*%
%TA.AperFunction,Conductor*%
G36*
X166675294Y-87146885D02*
G01*
X166721049Y-87199689D01*
X166730993Y-87268847D01*
X166724197Y-87295171D01*
X166689312Y-87387154D01*
X166676336Y-87494016D01*
X166648714Y-87558194D01*
X166610867Y-87588865D01*
X166513451Y-87639993D01*
X166390668Y-87748769D01*
X166297482Y-87883773D01*
X166259571Y-87983734D01*
X166217392Y-88039437D01*
X166173309Y-88060158D01*
X166158703Y-88063758D01*
X166013453Y-88139992D01*
X165890668Y-88248769D01*
X165797480Y-88383775D01*
X165775998Y-88440419D01*
X165733820Y-88496121D01*
X165668222Y-88520177D01*
X165600032Y-88504949D01*
X165594084Y-88501439D01*
X165549691Y-88473544D01*
X165390056Y-88417686D01*
X165222000Y-88398750D01*
X165053943Y-88417686D01*
X164894310Y-88473544D01*
X164751108Y-88563524D01*
X164631524Y-88683108D01*
X164541544Y-88826310D01*
X164485686Y-88985943D01*
X164466750Y-89153999D01*
X164485686Y-89322056D01*
X164541544Y-89481691D01*
X164567818Y-89523506D01*
X164605993Y-89584260D01*
X164625000Y-89650231D01*
X164625000Y-90501000D01*
X164605315Y-90568039D01*
X164552511Y-90613794D01*
X164501000Y-90625000D01*
X163285937Y-90625000D01*
X163338453Y-90783486D01*
X163427426Y-90927732D01*
X163436659Y-90936965D01*
X163470144Y-90998288D01*
X163465160Y-91067980D01*
X163436661Y-91112325D01*
X163427031Y-91121954D01*
X163337997Y-91266300D01*
X163284650Y-91427292D01*
X163274819Y-91523522D01*
X163274817Y-91523542D01*
X163274500Y-91526655D01*
X163274500Y-91529802D01*
X163274500Y-91529803D01*
X163274500Y-92070194D01*
X163274500Y-92070213D01*
X163274501Y-92073344D01*
X163274820Y-92076476D01*
X163274821Y-92076477D01*
X163284650Y-92172707D01*
X163337997Y-92333699D01*
X163427031Y-92478044D01*
X163546955Y-92597968D01*
X163691300Y-92687002D01*
X163852292Y-92740349D01*
X163948522Y-92750180D01*
X163948523Y-92750180D01*
X163951655Y-92750500D01*
X164548344Y-92750499D01*
X164647708Y-92740349D01*
X164808697Y-92687003D01*
X164953044Y-92597968D01*
X165072968Y-92478044D01*
X165090352Y-92449860D01*
X165162002Y-92333699D01*
X165178405Y-92284200D01*
X168386635Y-92284200D01*
X168953800Y-92284200D01*
X168953800Y-91695137D01*
X168953799Y-91695136D01*
X168795313Y-91747653D01*
X168651067Y-91836626D01*
X168531226Y-91956467D01*
X168442253Y-92100714D01*
X168388944Y-92261590D01*
X168386635Y-92284200D01*
X165178405Y-92284200D01*
X165215349Y-92172708D01*
X165225500Y-92073345D01*
X165225499Y-91526656D01*
X165220490Y-91477626D01*
X165233259Y-91408937D01*
X165281139Y-91358052D01*
X165348929Y-91341131D01*
X165393705Y-91355030D01*
X165394122Y-91353841D01*
X165407308Y-91358455D01*
X165407310Y-91358456D01*
X165566941Y-91414313D01*
X165735000Y-91433249D01*
X165903059Y-91414313D01*
X166062690Y-91358456D01*
X166205890Y-91268477D01*
X166205892Y-91268474D01*
X166217720Y-91261043D01*
X166220265Y-91265094D01*
X166257371Y-91244834D01*
X166283729Y-91242000D01*
X169499906Y-91242000D01*
X169516089Y-91243060D01*
X169545000Y-91246867D01*
X169692234Y-91227483D01*
X169829433Y-91170653D01*
X169917668Y-91102949D01*
X169917668Y-91102948D01*
X169922064Y-91099576D01*
X169933361Y-91090906D01*
X169947250Y-91080250D01*
X169965004Y-91057110D01*
X169975691Y-91044924D01*
X170165921Y-90854693D01*
X170178107Y-90844006D01*
X170201250Y-90826250D01*
X170209534Y-90815453D01*
X170215243Y-90808014D01*
X170271670Y-90766811D01*
X170313620Y-90759499D01*
X170392945Y-90759499D01*
X170397000Y-90759499D01*
X170507072Y-90745009D01*
X170507072Y-90745008D01*
X170523259Y-90742878D01*
X170523645Y-90745811D01*
X170568100Y-90741026D01*
X170630583Y-90772293D01*
X170666243Y-90832378D01*
X170670099Y-90863059D01*
X170670099Y-91565118D01*
X170650414Y-91632157D01*
X170597610Y-91677912D01*
X170558702Y-91688476D01*
X170506092Y-91693850D01*
X170345100Y-91747197D01*
X170200754Y-91836231D01*
X170191125Y-91845861D01*
X170129801Y-91879345D01*
X170060110Y-91874359D01*
X170015765Y-91845859D01*
X170006532Y-91836626D01*
X169862286Y-91747653D01*
X169703800Y-91695136D01*
X169703800Y-92910200D01*
X169684115Y-92977239D01*
X169631311Y-93022994D01*
X169579800Y-93034200D01*
X168386635Y-93034200D01*
X168388943Y-93056806D01*
X168442253Y-93217685D01*
X168501331Y-93313465D01*
X168519772Y-93380857D01*
X168498850Y-93447521D01*
X168445208Y-93492291D01*
X168375877Y-93500952D01*
X168338168Y-93488359D01*
X168326372Y-93482168D01*
X168291295Y-93463758D01*
X168132021Y-93424500D01*
X167967979Y-93424500D01*
X167808705Y-93463758D01*
X167708567Y-93516315D01*
X167663452Y-93539993D01*
X167543012Y-93646694D01*
X167479779Y-93676415D01*
X167436212Y-93674500D01*
X167432021Y-93674500D01*
X167267979Y-93674500D01*
X167108705Y-93713758D01*
X166986574Y-93777857D01*
X166963450Y-93789994D01*
X166831657Y-93906753D01*
X166768424Y-93936475D01*
X166750205Y-93937936D01*
X160144775Y-93979220D01*
X160077614Y-93959954D01*
X160031530Y-93907437D01*
X160020000Y-93855222D01*
X160020000Y-92516899D01*
X160039685Y-92449860D01*
X160092489Y-92404105D01*
X160143997Y-92392899D01*
X160488344Y-92392899D01*
X160587708Y-92382749D01*
X160748697Y-92329403D01*
X160859006Y-92261361D01*
X160924104Y-92242900D01*
X161673667Y-92242900D01*
X161677720Y-92242900D01*
X161790236Y-92228087D01*
X161930233Y-92170098D01*
X162050451Y-92077851D01*
X162142698Y-91957633D01*
X162200687Y-91817636D01*
X162215500Y-91705120D01*
X162215500Y-91479680D01*
X162200687Y-91367164D01*
X162200686Y-91367161D01*
X162199305Y-91356671D01*
X162199305Y-91324299D01*
X162214470Y-91209108D01*
X162215000Y-91201036D01*
X162215000Y-90983763D01*
X162214470Y-90975691D01*
X162199053Y-90858586D01*
X162199053Y-90826214D01*
X162214470Y-90709108D01*
X162215000Y-90701036D01*
X162215000Y-90483763D01*
X162214470Y-90475691D01*
X162200199Y-90367294D01*
X162142263Y-90227421D01*
X162050094Y-90107305D01*
X161929978Y-90015136D01*
X161790105Y-89957200D01*
X161681708Y-89942929D01*
X161673637Y-89942400D01*
X160924918Y-89942400D01*
X160859822Y-89923939D01*
X160780477Y-89874999D01*
X163285936Y-89874999D01*
X163285937Y-89875000D01*
X163875000Y-89875000D01*
X163875000Y-89307834D01*
X163852390Y-89310144D01*
X163691514Y-89363453D01*
X163547267Y-89452426D01*
X163427426Y-89572267D01*
X163338453Y-89716513D01*
X163285936Y-89874999D01*
X160780477Y-89874999D01*
X160748697Y-89855397D01*
X160587707Y-89802050D01*
X160491477Y-89792219D01*
X160491458Y-89792218D01*
X160488345Y-89791900D01*
X160485196Y-89791900D01*
X160144000Y-89791900D01*
X160076961Y-89772215D01*
X160031206Y-89719411D01*
X160020000Y-89667900D01*
X160020000Y-88838000D01*
X160039685Y-88770961D01*
X160092489Y-88725206D01*
X160144000Y-88714000D01*
X163137906Y-88714000D01*
X163154089Y-88715060D01*
X163183000Y-88718867D01*
X163330234Y-88699483D01*
X163467433Y-88642653D01*
X163555668Y-88574949D01*
X163555668Y-88574948D01*
X163565061Y-88567740D01*
X163585250Y-88552250D01*
X163603003Y-88529112D01*
X163613690Y-88516925D01*
X164967097Y-87163519D01*
X165028420Y-87130034D01*
X165054778Y-87127200D01*
X166608255Y-87127200D01*
X166675294Y-87146885D01*
G37*
%TD.AperFunction*%
%TA.AperFunction,Conductor*%
G36*
X163974808Y-75845185D02*
G01*
X164020563Y-75897989D01*
X164030507Y-75967147D01*
X164001482Y-76030703D01*
X163995450Y-76037181D01*
X163873288Y-76159342D01*
X163781186Y-76308665D01*
X163726000Y-76475202D01*
X163715819Y-76574858D01*
X163715817Y-76574878D01*
X163715500Y-76577991D01*
X163715500Y-76581138D01*
X163715500Y-76581139D01*
X163715500Y-77974859D01*
X163715500Y-77974878D01*
X163715501Y-77978008D01*
X163715820Y-77981140D01*
X163715821Y-77981141D01*
X163726000Y-78080796D01*
X163781186Y-78247334D01*
X163873288Y-78396657D01*
X163997342Y-78520711D01*
X163997344Y-78520712D01*
X164146666Y-78612814D01*
X164258017Y-78649712D01*
X164313202Y-78667999D01*
X164412858Y-78678180D01*
X164412859Y-78678180D01*
X164415991Y-78678500D01*
X165216008Y-78678499D01*
X165318797Y-78667999D01*
X165485334Y-78612814D01*
X165634656Y-78520712D01*
X165758712Y-78396656D01*
X165850814Y-78247334D01*
X165905999Y-78080797D01*
X165916500Y-77978009D01*
X165916499Y-76577992D01*
X165905999Y-76475203D01*
X165850814Y-76308666D01*
X165758712Y-76159344D01*
X165758711Y-76159342D01*
X165636550Y-76037181D01*
X165603065Y-75975858D01*
X165608049Y-75906166D01*
X165649921Y-75850233D01*
X165715385Y-75825816D01*
X165724231Y-75825500D01*
X169507769Y-75825500D01*
X169574808Y-75845185D01*
X169620563Y-75897989D01*
X169630507Y-75967147D01*
X169601482Y-76030703D01*
X169595450Y-76037181D01*
X169473288Y-76159342D01*
X169381186Y-76308665D01*
X169326000Y-76475202D01*
X169315819Y-76574858D01*
X169315817Y-76574878D01*
X169315500Y-76577991D01*
X169315500Y-76581138D01*
X169315500Y-76581139D01*
X169315500Y-77974859D01*
X169315500Y-77974878D01*
X169315501Y-77978008D01*
X169315820Y-77981140D01*
X169315821Y-77981141D01*
X169326000Y-78080796D01*
X169381186Y-78247334D01*
X169473288Y-78396657D01*
X169597342Y-78520711D01*
X169597344Y-78520712D01*
X169746666Y-78612814D01*
X169858017Y-78649712D01*
X169913202Y-78667999D01*
X170012858Y-78678180D01*
X170012859Y-78678180D01*
X170015991Y-78678500D01*
X170816008Y-78678499D01*
X170918797Y-78667999D01*
X171085334Y-78612814D01*
X171085335Y-78612813D01*
X171099091Y-78608255D01*
X171100107Y-78611321D01*
X171145285Y-78598956D01*
X171211950Y-78619873D01*
X171256724Y-78673511D01*
X171267000Y-78722935D01*
X171267000Y-82138020D01*
X171247315Y-82205059D01*
X171230681Y-82225701D01*
X169430680Y-84025701D01*
X169418488Y-84036394D01*
X169395349Y-84054150D01*
X169360198Y-84099958D01*
X169360188Y-84099973D01*
X169304947Y-84171966D01*
X169248117Y-84309166D01*
X169228732Y-84456399D01*
X169232539Y-84485308D01*
X169233600Y-84501494D01*
X169233600Y-84999882D01*
X169213915Y-85066921D01*
X169190298Y-85094030D01*
X168378160Y-85790148D01*
X168314449Y-85818831D01*
X168297462Y-85820000D01*
X167940961Y-85820000D01*
X167924777Y-85818939D01*
X167895867Y-85815133D01*
X167895866Y-85815133D01*
X167884139Y-85816677D01*
X167858899Y-85820000D01*
X167803766Y-85827258D01*
X167748632Y-85834517D01*
X167611433Y-85891347D01*
X167504270Y-85973576D01*
X167439101Y-85998770D01*
X167428784Y-85999200D01*
X166867800Y-85999200D01*
X166800761Y-85979515D01*
X166755006Y-85926711D01*
X166743800Y-85875200D01*
X166743799Y-85299200D01*
X167493800Y-85299200D01*
X168014854Y-85299200D01*
X168012390Y-85272093D01*
X167961819Y-85109803D01*
X167873874Y-84964324D01*
X167753675Y-84844125D01*
X167732797Y-84831504D01*
X167685609Y-84779976D01*
X167673771Y-84711116D01*
X167701040Y-84646788D01*
X167732799Y-84619269D01*
X167765876Y-84599273D01*
X167886074Y-84479075D01*
X167974019Y-84333596D01*
X168024590Y-84171306D01*
X168027054Y-84144200D01*
X167506000Y-84144200D01*
X167506000Y-84720638D01*
X167493800Y-84762186D01*
X167493800Y-85299200D01*
X166743799Y-85299200D01*
X166743799Y-85239015D01*
X166763483Y-85171976D01*
X166769409Y-85163546D01*
X166811853Y-85108233D01*
X166868683Y-84971034D01*
X166883200Y-84860768D01*
X166888067Y-84823800D01*
X166884260Y-84794890D01*
X166883200Y-84778705D01*
X166883200Y-83730964D01*
X166902885Y-83663925D01*
X166919519Y-83643283D01*
X167132283Y-83430519D01*
X167193606Y-83397034D01*
X167219964Y-83394200D01*
X168027054Y-83394200D01*
X168024590Y-83367093D01*
X167974019Y-83204803D01*
X167886075Y-83059326D01*
X167765872Y-82939123D01*
X167724849Y-82914324D01*
X167677662Y-82862796D01*
X167665824Y-82793936D01*
X167666044Y-82792151D01*
X167680000Y-82686154D01*
X167684867Y-82649186D01*
X167681060Y-82620276D01*
X167680000Y-82604091D01*
X167680000Y-82536937D01*
X167699685Y-82469898D01*
X167752489Y-82424143D01*
X167809881Y-82415890D01*
X167816000Y-82411296D01*
X167816000Y-82159814D01*
X167833266Y-82096695D01*
X167867744Y-82038398D01*
X167913598Y-81880569D01*
X167916500Y-81843694D01*
X168315500Y-81843694D01*
X168315690Y-81846114D01*
X168315691Y-81846128D01*
X168318402Y-81880572D01*
X168364254Y-82038394D01*
X168364255Y-82038396D01*
X168364256Y-82038398D01*
X168398733Y-82096695D01*
X168416000Y-82159814D01*
X168416000Y-82411296D01*
X168526200Y-82379280D01*
X168552387Y-82363794D01*
X168620111Y-82346610D01*
X168678630Y-82363793D01*
X168705602Y-82379744D01*
X168863427Y-82425597D01*
X168863431Y-82425598D01*
X168900306Y-82428500D01*
X168902751Y-82428500D01*
X169329249Y-82428500D01*
X169331694Y-82428500D01*
X169368569Y-82425598D01*
X169526398Y-82379744D01*
X169667865Y-82296081D01*
X169784081Y-82179865D01*
X169867744Y-82038398D01*
X169913598Y-81880569D01*
X169916500Y-81843694D01*
X169916500Y-80462306D01*
X169913598Y-80425431D01*
X169867744Y-80267602D01*
X169784081Y-80126135D01*
X169667865Y-80009919D01*
X169645831Y-79996888D01*
X169526397Y-79926255D01*
X169368572Y-79880402D01*
X169334128Y-79877691D01*
X169334114Y-79877690D01*
X169331694Y-79877500D01*
X168900306Y-79877500D01*
X168897886Y-79877690D01*
X168897871Y-79877691D01*
X168863427Y-79880402D01*
X168705602Y-79926255D01*
X168678627Y-79942208D01*
X168610903Y-79959388D01*
X168552389Y-79942207D01*
X168526197Y-79926717D01*
X168416001Y-79894701D01*
X168416000Y-79894702D01*
X168416000Y-80146184D01*
X168398732Y-80209305D01*
X168364255Y-80267602D01*
X168318402Y-80425427D01*
X168315691Y-80459871D01*
X168315690Y-80459886D01*
X168315500Y-80462306D01*
X168315500Y-81843694D01*
X167916500Y-81843694D01*
X167916500Y-80462306D01*
X167913598Y-80425431D01*
X167867744Y-80267602D01*
X167860111Y-80254695D01*
X167833268Y-80209305D01*
X167816000Y-80146184D01*
X167816000Y-79894702D01*
X167815999Y-79894702D01*
X167705801Y-79926718D01*
X167679608Y-79942208D01*
X167611883Y-79959388D01*
X167553370Y-79942207D01*
X167527179Y-79926718D01*
X167526398Y-79926256D01*
X167526397Y-79926255D01*
X167526396Y-79926255D01*
X167466021Y-79908714D01*
X167412936Y-79877319D01*
X167102496Y-79566879D01*
X167091800Y-79554683D01*
X167074049Y-79531549D01*
X167023446Y-79492721D01*
X166956233Y-79441147D01*
X166819034Y-79384317D01*
X166801904Y-79382061D01*
X166671800Y-79364932D01*
X166646319Y-79368287D01*
X166642889Y-79368739D01*
X166626706Y-79369800D01*
X165754694Y-79369800D01*
X165738510Y-79368739D01*
X165734630Y-79368228D01*
X165709599Y-79364932D01*
X165562366Y-79384317D01*
X165425166Y-79441147D01*
X165357954Y-79492721D01*
X165307349Y-79531550D01*
X165289594Y-79554688D01*
X165278901Y-79566880D01*
X163209080Y-81636701D01*
X163196888Y-81647394D01*
X163173749Y-81665150D01*
X163138598Y-81710958D01*
X163138588Y-81710973D01*
X163083347Y-81782966D01*
X163026517Y-81920166D01*
X163007132Y-82067399D01*
X163010939Y-82096308D01*
X163012000Y-82112494D01*
X163012000Y-83104531D01*
X162992315Y-83171570D01*
X162990050Y-83174971D01*
X162973481Y-83198973D01*
X162915312Y-83352354D01*
X162895538Y-83515199D01*
X162915312Y-83678045D01*
X162972075Y-83827716D01*
X162977442Y-83897379D01*
X162944295Y-83958885D01*
X162943814Y-83959368D01*
X162759216Y-84143965D01*
X162697893Y-84177450D01*
X162655354Y-84179224D01*
X162638676Y-84177028D01*
X162638667Y-84177027D01*
X162634661Y-84176500D01*
X162630608Y-84176500D01*
X161343000Y-84176500D01*
X161275961Y-84156815D01*
X161230206Y-84104011D01*
X161219000Y-84052500D01*
X161219000Y-83038177D01*
X161238685Y-82971138D01*
X161255314Y-82950501D01*
X161566924Y-82638891D01*
X161579100Y-82628212D01*
X161602250Y-82610450D01*
X161692653Y-82492633D01*
X161749483Y-82355434D01*
X161764000Y-82245168D01*
X161768867Y-82208200D01*
X161768453Y-82205059D01*
X161765061Y-82179291D01*
X161764000Y-82163105D01*
X161764000Y-81560668D01*
X161783685Y-81493629D01*
X161785951Y-81490227D01*
X161802518Y-81466226D01*
X161860688Y-81312845D01*
X161880461Y-81150000D01*
X161860688Y-80987155D01*
X161802518Y-80833774D01*
X161744693Y-80750000D01*
X161709331Y-80698769D01*
X161586549Y-80589994D01*
X161586547Y-80589993D01*
X161586546Y-80589992D01*
X161441295Y-80513758D01*
X161282021Y-80474500D01*
X161117979Y-80474500D01*
X160958705Y-80513758D01*
X160836574Y-80577857D01*
X160813450Y-80589994D01*
X160690668Y-80698769D01*
X160597481Y-80833774D01*
X160539312Y-80987154D01*
X160519538Y-81150000D01*
X160539312Y-81312845D01*
X160597482Y-81466226D01*
X160614049Y-81490227D01*
X160635933Y-81556581D01*
X160636000Y-81560668D01*
X160636000Y-81923220D01*
X160616315Y-81990259D01*
X160599681Y-82010901D01*
X160288081Y-82322500D01*
X160275889Y-82333193D01*
X160252748Y-82350950D01*
X160242374Y-82364470D01*
X160185946Y-82405672D01*
X160116199Y-82409825D01*
X160055280Y-82375612D01*
X160022528Y-82313894D01*
X160020000Y-82288982D01*
X160020000Y-75949500D01*
X160039685Y-75882461D01*
X160092489Y-75836706D01*
X160144000Y-75825500D01*
X163907769Y-75825500D01*
X163974808Y-75845185D01*
G37*
%TD.AperFunction*%
%TA.AperFunction,Conductor*%
G36*
X180283039Y-77397724D02*
G01*
X180328794Y-77450528D01*
X180340000Y-77502039D01*
X180340000Y-78495304D01*
X180320315Y-78562343D01*
X180267511Y-78608098D01*
X180226484Y-78614639D01*
X180226884Y-78618186D01*
X180044943Y-78638686D01*
X179885310Y-78694544D01*
X179742108Y-78784524D01*
X179622524Y-78904108D01*
X179532544Y-79047310D01*
X179472073Y-79220128D01*
X179469088Y-79219083D01*
X179450529Y-79263244D01*
X179392931Y-79302795D01*
X179323094Y-79304927D01*
X179263190Y-79268964D01*
X179248264Y-79249089D01*
X179228467Y-79216341D01*
X179228466Y-79216339D01*
X179226530Y-79213137D01*
X179025048Y-78955964D01*
X178794036Y-78724952D01*
X178536863Y-78523470D01*
X178533663Y-78521536D01*
X178533658Y-78521532D01*
X178260484Y-78356392D01*
X178260477Y-78356388D01*
X178257279Y-78354455D01*
X177959361Y-78220373D01*
X177647453Y-78123179D01*
X177643771Y-78122504D01*
X177643762Y-78122502D01*
X177329792Y-78064965D01*
X177329778Y-78064963D01*
X177326104Y-78064290D01*
X177322372Y-78064064D01*
X177322362Y-78064063D01*
X177003736Y-78044790D01*
X177000000Y-78044564D01*
X176996264Y-78044790D01*
X176677637Y-78064063D01*
X176677625Y-78064064D01*
X176673896Y-78064290D01*
X176670223Y-78064962D01*
X176670207Y-78064965D01*
X176356237Y-78122502D01*
X176356224Y-78122505D01*
X176352547Y-78123179D01*
X176348967Y-78124294D01*
X176348961Y-78124296D01*
X176044216Y-78219258D01*
X176044210Y-78219260D01*
X176040639Y-78220373D01*
X176037230Y-78221907D01*
X176037228Y-78221908D01*
X175746135Y-78352918D01*
X175746128Y-78352921D01*
X175742721Y-78354455D01*
X175739528Y-78356384D01*
X175739515Y-78356392D01*
X175466341Y-78521532D01*
X175466328Y-78521540D01*
X175463137Y-78523470D01*
X175460195Y-78525774D01*
X175460189Y-78525779D01*
X175244777Y-78694544D01*
X175205964Y-78724952D01*
X175203318Y-78727597D01*
X175203310Y-78727605D01*
X174977605Y-78953310D01*
X174977597Y-78953318D01*
X174974952Y-78955964D01*
X174972640Y-78958914D01*
X174972640Y-78958915D01*
X174775779Y-79210189D01*
X174775774Y-79210195D01*
X174773470Y-79213137D01*
X174771540Y-79216328D01*
X174771532Y-79216341D01*
X174606392Y-79489515D01*
X174606384Y-79489528D01*
X174604455Y-79492721D01*
X174602921Y-79496128D01*
X174602918Y-79496135D01*
X174476399Y-79777250D01*
X174470373Y-79790639D01*
X174469260Y-79794210D01*
X174469258Y-79794216D01*
X174400210Y-80015802D01*
X174373179Y-80102547D01*
X174372505Y-80106224D01*
X174372502Y-80106237D01*
X174314965Y-80420207D01*
X174314965Y-80420210D01*
X174314290Y-80423896D01*
X174314064Y-80427625D01*
X174314063Y-80427637D01*
X174297663Y-80698769D01*
X174294564Y-80750000D01*
X174294790Y-80753736D01*
X174314063Y-81072362D01*
X174314064Y-81072372D01*
X174314290Y-81076104D01*
X174314963Y-81079778D01*
X174314965Y-81079792D01*
X174372502Y-81393762D01*
X174372504Y-81393771D01*
X174373179Y-81397453D01*
X174374295Y-81401036D01*
X174374296Y-81401038D01*
X174409424Y-81513767D01*
X174470373Y-81709361D01*
X174604455Y-82007279D01*
X174606388Y-82010477D01*
X174606392Y-82010484D01*
X174771532Y-82283658D01*
X174771536Y-82283663D01*
X174773470Y-82286863D01*
X174801390Y-82322500D01*
X174900517Y-82449027D01*
X174926366Y-82513939D01*
X174913017Y-82582522D01*
X174864709Y-82633001D01*
X174802906Y-82649500D01*
X172900000Y-82649500D01*
X172832961Y-82629815D01*
X172787206Y-82577011D01*
X172776000Y-82525500D01*
X172776000Y-77502039D01*
X172795685Y-77435000D01*
X172848489Y-77389245D01*
X172900000Y-77378039D01*
X180216000Y-77378039D01*
X180283039Y-77397724D01*
G37*
%TD.AperFunction*%
%TD*%
%TA.AperFunction,Conductor*%
%TO.N,+5V*%
G36*
X159457539Y-75845185D02*
G01*
X159503294Y-75897989D01*
X159514500Y-75949500D01*
X159514500Y-82288982D01*
X159514578Y-82290529D01*
X159514579Y-82290556D01*
X159517001Y-82338416D01*
X159517003Y-82338454D01*
X159517083Y-82340017D01*
X159517242Y-82341584D01*
X159517244Y-82341610D01*
X159519450Y-82363348D01*
X159519452Y-82363370D01*
X159519611Y-82364929D01*
X159519845Y-82366465D01*
X159519848Y-82366482D01*
X159527335Y-82415454D01*
X159576006Y-82550852D01*
X159608758Y-82612570D01*
X159693600Y-82728766D01*
X159693601Y-82728767D01*
X159693603Y-82728769D01*
X159807749Y-82816360D01*
X159807751Y-82816361D01*
X159868668Y-82850573D01*
X160011715Y-82905878D01*
X160067146Y-82948413D01*
X160090781Y-83014164D01*
X160091000Y-83021535D01*
X160091000Y-84849254D01*
X160071315Y-84916293D01*
X160018511Y-84962048D01*
X160001937Y-84968230D01*
X159948267Y-84983990D01*
X159878397Y-84983992D01*
X159819619Y-84946218D01*
X159790592Y-84882663D01*
X159790391Y-84848828D01*
X159801467Y-84764699D01*
X159797661Y-84735791D01*
X159796600Y-84719605D01*
X159796600Y-83966694D01*
X159797661Y-83950508D01*
X159801467Y-83921599D01*
X159799211Y-83904470D01*
X159782083Y-83774366D01*
X159725253Y-83637167D01*
X159708816Y-83615746D01*
X159699120Y-83603109D01*
X159663111Y-83556181D01*
X159634850Y-83519350D01*
X159611704Y-83501589D01*
X159599512Y-83490896D01*
X158420797Y-82312180D01*
X158387312Y-82250857D01*
X158392296Y-82181165D01*
X158434168Y-82125232D01*
X158499632Y-82100815D01*
X158508478Y-82100499D01*
X158694561Y-82100499D01*
X158697872Y-82100499D01*
X158757483Y-82094091D01*
X158892331Y-82043796D01*
X159007546Y-81957546D01*
X159093796Y-81842331D01*
X159144091Y-81707483D01*
X159150500Y-81647873D01*
X159150499Y-79852128D01*
X159144091Y-79792517D01*
X159093796Y-79657669D01*
X159007546Y-79542454D01*
X158892331Y-79456204D01*
X158757483Y-79405909D01*
X158697873Y-79399500D01*
X158694550Y-79399500D01*
X156905439Y-79399500D01*
X156905420Y-79399500D01*
X156902128Y-79399501D01*
X156898848Y-79399853D01*
X156898840Y-79399854D01*
X156842515Y-79405909D01*
X156707669Y-79456204D01*
X156592454Y-79542454D01*
X156506204Y-79657669D01*
X156457189Y-79789083D01*
X156415317Y-79845016D01*
X156349852Y-79869433D01*
X156281580Y-79854581D01*
X156253326Y-79833430D01*
X156131404Y-79711508D01*
X156131401Y-79711505D01*
X155937830Y-79575965D01*
X155723663Y-79476097D01*
X155660199Y-79459092D01*
X155495407Y-79414936D01*
X155259999Y-79394340D01*
X155024592Y-79414936D01*
X154796336Y-79476097D01*
X154582170Y-79575965D01*
X154388598Y-79711505D01*
X154221505Y-79878598D01*
X154091575Y-80064159D01*
X154036998Y-80107784D01*
X153967500Y-80114978D01*
X153905145Y-80083455D01*
X153888425Y-80064159D01*
X153873449Y-80042771D01*
X153758495Y-79878599D01*
X153591401Y-79711505D01*
X153397830Y-79575965D01*
X153183663Y-79476097D01*
X153120199Y-79459092D01*
X152955407Y-79414936D01*
X152720000Y-79394340D01*
X152484592Y-79414936D01*
X152256336Y-79476097D01*
X152042170Y-79575965D01*
X151848598Y-79711505D01*
X151681508Y-79878595D01*
X151681505Y-79878598D01*
X151681505Y-79878599D01*
X151649490Y-79924321D01*
X151551269Y-80064596D01*
X151496692Y-80108220D01*
X151427193Y-80115413D01*
X151364839Y-80083891D01*
X151348119Y-80064595D01*
X151218109Y-79878921D01*
X151051081Y-79711893D01*
X150857576Y-79576399D01*
X150643493Y-79476570D01*
X150555000Y-79452857D01*
X150555000Y-80413343D01*
X150453100Y-80325048D01*
X150322315Y-80265320D01*
X150215763Y-80250000D01*
X150144237Y-80250000D01*
X150037685Y-80265320D01*
X149906900Y-80325048D01*
X149798239Y-80419202D01*
X149720507Y-80540156D01*
X149680000Y-80678111D01*
X149680000Y-80821889D01*
X149720507Y-80959844D01*
X149798239Y-81080798D01*
X149906900Y-81174952D01*
X150037685Y-81234680D01*
X150144237Y-81250000D01*
X150215763Y-81250000D01*
X150322315Y-81234680D01*
X150453100Y-81174952D01*
X150555000Y-81086656D01*
X150555000Y-82047141D01*
X150643491Y-82023430D01*
X150857576Y-81923600D01*
X151051081Y-81788106D01*
X151218109Y-81621078D01*
X151348119Y-81435405D01*
X151402696Y-81391780D01*
X151472194Y-81384586D01*
X151534549Y-81416109D01*
X151551265Y-81435400D01*
X151681505Y-81621401D01*
X151848599Y-81788495D01*
X152042170Y-81924035D01*
X152256337Y-82023903D01*
X152484592Y-82085062D01*
X152484592Y-82085063D01*
X152719999Y-82105659D01*
X152719999Y-82105658D01*
X152720000Y-82105659D01*
X152955408Y-82085063D01*
X153183663Y-82023903D01*
X153397830Y-81924035D01*
X153591401Y-81788495D01*
X153758495Y-81621401D01*
X153888426Y-81435839D01*
X153943002Y-81392216D01*
X154012500Y-81385022D01*
X154074855Y-81416545D01*
X154091571Y-81435837D01*
X154221505Y-81621401D01*
X154388599Y-81788495D01*
X154552502Y-81903261D01*
X154582173Y-81924037D01*
X154624402Y-81943728D01*
X154676843Y-81989899D01*
X154696000Y-82056111D01*
X154696000Y-82434104D01*
X154694939Y-82450289D01*
X154691132Y-82479199D01*
X154703785Y-82575299D01*
X154710517Y-82626434D01*
X154767347Y-82763633D01*
X154834057Y-82850573D01*
X154857750Y-82881450D01*
X154880884Y-82899201D01*
X154893079Y-82909896D01*
X155656783Y-83673600D01*
X156372890Y-84389706D01*
X156406375Y-84451029D01*
X156401391Y-84520721D01*
X156399771Y-84524838D01*
X156377847Y-84577769D01*
X156360256Y-84620238D01*
X156344800Y-84737639D01*
X156344800Y-84741691D01*
X156344800Y-84741692D01*
X156344800Y-85012305D01*
X156344800Y-85012320D01*
X156344801Y-85016360D01*
X156345329Y-85020373D01*
X156345330Y-85020384D01*
X156360255Y-85133760D01*
X156368865Y-85154547D01*
X156376334Y-85224017D01*
X156368866Y-85249450D01*
X156360256Y-85270237D01*
X156345380Y-85383235D01*
X156344800Y-85387639D01*
X156344800Y-85391692D01*
X156344800Y-85391693D01*
X156344800Y-85489000D01*
X156325115Y-85556039D01*
X156272311Y-85601794D01*
X156220800Y-85613000D01*
X155120177Y-85613000D01*
X155053138Y-85593315D01*
X155007383Y-85540511D01*
X155001792Y-85525890D01*
X154982879Y-85465196D01*
X154980582Y-85461397D01*
X154894872Y-85319615D01*
X154894871Y-85319613D01*
X154774586Y-85199328D01*
X154666123Y-85133760D01*
X154629006Y-85111322D01*
X154466596Y-85060714D01*
X154466593Y-85060713D01*
X154398824Y-85054555D01*
X154398820Y-85054554D01*
X154396016Y-85054300D01*
X153882784Y-85054300D01*
X153879980Y-85054554D01*
X153879975Y-85054555D01*
X153812206Y-85060713D01*
X153730998Y-85086017D01*
X153649794Y-85111322D01*
X153649792Y-85111322D01*
X153649792Y-85111323D01*
X153504213Y-85199328D01*
X153401727Y-85301815D01*
X153340404Y-85335300D01*
X153270712Y-85330316D01*
X153226365Y-85301815D01*
X153124275Y-85199725D01*
X152978797Y-85111781D01*
X152864400Y-85076132D01*
X152864400Y-86983466D01*
X152978796Y-86947819D01*
X153124273Y-86859875D01*
X153226364Y-86757784D01*
X153287687Y-86724299D01*
X153357379Y-86729283D01*
X153401725Y-86757782D01*
X153504215Y-86860272D01*
X153649794Y-86948278D01*
X153812204Y-86998886D01*
X153882784Y-87005300D01*
X153885603Y-87005300D01*
X154393197Y-87005300D01*
X154396016Y-87005300D01*
X154466596Y-86998886D01*
X154629006Y-86948278D01*
X154774585Y-86860272D01*
X154857539Y-86777317D01*
X154918860Y-86743834D01*
X154945219Y-86741000D01*
X155786388Y-86741000D01*
X155853427Y-86760685D01*
X155899182Y-86813489D01*
X155909327Y-86848814D01*
X155914517Y-86888234D01*
X155971347Y-87025433D01*
X155992155Y-87052551D01*
X156024800Y-87095096D01*
X156061750Y-87143251D01*
X156084890Y-87161007D01*
X156097084Y-87171701D01*
X156119301Y-87193918D01*
X156129990Y-87206105D01*
X156138598Y-87217323D01*
X156147751Y-87229251D01*
X156249322Y-87307187D01*
X156258101Y-87316560D01*
X156265567Y-87319652D01*
X156265567Y-87319653D01*
X156307224Y-87336908D01*
X156332648Y-87347439D01*
X156387051Y-87391280D01*
X156409116Y-87457575D01*
X156391837Y-87525274D01*
X156340699Y-87572884D01*
X156285195Y-87586000D01*
X152062491Y-87586000D01*
X151995452Y-87566315D01*
X151949697Y-87513511D01*
X151945449Y-87502954D01*
X151937456Y-87480110D01*
X151847477Y-87336910D01*
X151727890Y-87217323D01*
X151584690Y-87127344D01*
X151425059Y-87071487D01*
X151425058Y-87071486D01*
X151425056Y-87071486D01*
X151257000Y-87052550D01*
X151088943Y-87071486D01*
X150929310Y-87127344D01*
X150786108Y-87217324D01*
X150666524Y-87336908D01*
X150576544Y-87480110D01*
X150520686Y-87639743D01*
X150501750Y-87807800D01*
X150520686Y-87975856D01*
X150520686Y-87975858D01*
X150520687Y-87975859D01*
X150576544Y-88135490D01*
X150666523Y-88278690D01*
X150786110Y-88398277D01*
X150929310Y-88488256D01*
X151088941Y-88544113D01*
X151168856Y-88553117D01*
X151230456Y-88577960D01*
X151314767Y-88642653D01*
X151451966Y-88699483D01*
X151599200Y-88718867D01*
X151628111Y-88715061D01*
X151644296Y-88714000D01*
X159390500Y-88714000D01*
X159457539Y-88733685D01*
X159503294Y-88786489D01*
X159514500Y-88838000D01*
X159514500Y-89411000D01*
X159494815Y-89478039D01*
X159442011Y-89523794D01*
X159390500Y-89535000D01*
X157119662Y-89535000D01*
X157080658Y-89528706D01*
X156947707Y-89484650D01*
X156851477Y-89474819D01*
X156851458Y-89474818D01*
X156848345Y-89474500D01*
X156845196Y-89474500D01*
X156254805Y-89474500D01*
X156254785Y-89474500D01*
X156251656Y-89474501D01*
X156248524Y-89474820D01*
X156248522Y-89474821D01*
X156152292Y-89484650D01*
X156019342Y-89528706D01*
X155980338Y-89535000D01*
X155375756Y-89535000D01*
X155309785Y-89515994D01*
X155267690Y-89489544D01*
X155108059Y-89433687D01*
X155108058Y-89433686D01*
X155108056Y-89433686D01*
X154939999Y-89414750D01*
X154771943Y-89433686D01*
X154639960Y-89479869D01*
X154612310Y-89489544D01*
X154570214Y-89515994D01*
X154504244Y-89535000D01*
X146174000Y-89535000D01*
X146106961Y-89515315D01*
X146061206Y-89462511D01*
X146050000Y-89411000D01*
X146050000Y-88930499D01*
X146069685Y-88863460D01*
X146122489Y-88817705D01*
X146173998Y-88806499D01*
X146475122Y-88806499D01*
X146517889Y-88803600D01*
X146702693Y-88757641D01*
X146839136Y-88689971D01*
X146907938Y-88677820D01*
X146928823Y-88681984D01*
X146941111Y-88685554D01*
X146941113Y-88685555D01*
X147089844Y-88728765D01*
X147124595Y-88731500D01*
X148023404Y-88731499D01*
X148058156Y-88728765D01*
X148206887Y-88685555D01*
X148340198Y-88606715D01*
X148449715Y-88497198D01*
X148528555Y-88363887D01*
X148571765Y-88215156D01*
X148574500Y-88180405D01*
X148574499Y-87831596D01*
X148571765Y-87796844D01*
X148528555Y-87648113D01*
X148496332Y-87593627D01*
X148479150Y-87525906D01*
X148496333Y-87467386D01*
X148528093Y-87413682D01*
X148566641Y-87281001D01*
X148566640Y-87281000D01*
X148034633Y-87281000D01*
X148026402Y-87280676D01*
X148028269Y-87280787D01*
X148025839Y-87280691D01*
X148023405Y-87280500D01*
X148020960Y-87280500D01*
X147473000Y-87280500D01*
X147405961Y-87260815D01*
X147360206Y-87208011D01*
X147349000Y-87156500D01*
X147349000Y-86331000D01*
X147799000Y-86331000D01*
X147799000Y-86831000D01*
X148566640Y-86831000D01*
X148566641Y-86830998D01*
X148528093Y-86698317D01*
X148496042Y-86644122D01*
X148478859Y-86576398D01*
X148496042Y-86517878D01*
X148528093Y-86463682D01*
X148545200Y-86404800D01*
X151593346Y-86404800D01*
X151595809Y-86431906D01*
X151646380Y-86594196D01*
X151734325Y-86739675D01*
X151854524Y-86859874D01*
X152000003Y-86947819D01*
X152114399Y-86983466D01*
X152114400Y-86983466D01*
X152114400Y-86404800D01*
X151593346Y-86404800D01*
X148545200Y-86404800D01*
X148566641Y-86331001D01*
X148566640Y-86331000D01*
X147799000Y-86331000D01*
X147349000Y-86331000D01*
X147349000Y-85381000D01*
X147799000Y-85381000D01*
X147799000Y-85881000D01*
X148566640Y-85881000D01*
X148566641Y-85880998D01*
X148528092Y-85748314D01*
X148472788Y-85654800D01*
X151593346Y-85654800D01*
X152114400Y-85654800D01*
X152114400Y-85076132D01*
X152114399Y-85076132D01*
X152000002Y-85111781D01*
X151854524Y-85199725D01*
X151734325Y-85319924D01*
X151646380Y-85465403D01*
X151595809Y-85627693D01*
X151593346Y-85654800D01*
X148472788Y-85654800D01*
X148449315Y-85615109D01*
X148339890Y-85505684D01*
X148206685Y-85426907D01*
X148058081Y-85383733D01*
X148025785Y-85381191D01*
X148020908Y-85381000D01*
X147799000Y-85381000D01*
X147349000Y-85381000D01*
X147127070Y-85381000D01*
X147122234Y-85381190D01*
X147089920Y-85383733D01*
X146929486Y-85430344D01*
X146859617Y-85430145D01*
X146839799Y-85422357D01*
X146702693Y-85354359D01*
X146702692Y-85354359D01*
X146517887Y-85308399D01*
X146477216Y-85305641D01*
X146477188Y-85305640D01*
X146475123Y-85305500D01*
X146473025Y-85305500D01*
X146174000Y-85305500D01*
X146106961Y-85285815D01*
X146061206Y-85233011D01*
X146050000Y-85181500D01*
X146050000Y-85017685D01*
X146069685Y-84950646D01*
X146122489Y-84904891D01*
X146191647Y-84894947D01*
X146239098Y-84912147D01*
X146316917Y-84960147D01*
X146475399Y-85012662D01*
X146475400Y-85012662D01*
X146475400Y-84423600D01*
X147225400Y-84423600D01*
X147225400Y-85012662D01*
X147383881Y-84960147D01*
X147528134Y-84871171D01*
X147647973Y-84751332D01*
X147736946Y-84607085D01*
X147790255Y-84446209D01*
X147792565Y-84423600D01*
X147225400Y-84423600D01*
X146475400Y-84423600D01*
X146475400Y-83797600D01*
X146495085Y-83730561D01*
X146547889Y-83684806D01*
X146599400Y-83673600D01*
X147792565Y-83673600D01*
X147792565Y-83673599D01*
X147790256Y-83650993D01*
X147736946Y-83490114D01*
X147647973Y-83345867D01*
X147528132Y-83226026D01*
X147403097Y-83148903D01*
X147356372Y-83096955D01*
X147345151Y-83027993D01*
X147372994Y-82963911D01*
X147410830Y-82938158D01*
X147409349Y-82935756D01*
X147565932Y-82839173D01*
X147685773Y-82719332D01*
X147774746Y-82575085D01*
X147828055Y-82414209D01*
X147830365Y-82391600D01*
X146637200Y-82391600D01*
X146570161Y-82371915D01*
X146524406Y-82319111D01*
X146513200Y-82267600D01*
X146513200Y-81052537D01*
X146513199Y-81052536D01*
X147263200Y-81052536D01*
X147263200Y-81641600D01*
X147830365Y-81641600D01*
X147830365Y-81641599D01*
X147828056Y-81618993D01*
X147774746Y-81458114D01*
X147685773Y-81313867D01*
X147565932Y-81194026D01*
X147454025Y-81125000D01*
X148882858Y-81125000D01*
X148906569Y-81213491D01*
X149006399Y-81427576D01*
X149141893Y-81621081D01*
X149308918Y-81788106D01*
X149502423Y-81923600D01*
X149716508Y-82023430D01*
X149804999Y-82047141D01*
X149805000Y-82047141D01*
X149805000Y-81125000D01*
X148882858Y-81125000D01*
X147454025Y-81125000D01*
X147421686Y-81105053D01*
X147263200Y-81052536D01*
X146513199Y-81052536D01*
X146354713Y-81105053D01*
X146210466Y-81194026D01*
X146201232Y-81203261D01*
X146139908Y-81236745D01*
X146070216Y-81231759D01*
X146025872Y-81203259D01*
X146016244Y-81193631D01*
X145871899Y-81104597D01*
X145710907Y-81051250D01*
X145614677Y-81041419D01*
X145614658Y-81041418D01*
X145611545Y-81041100D01*
X145608396Y-81041100D01*
X145068005Y-81041100D01*
X145067985Y-81041100D01*
X145064856Y-81041101D01*
X145061724Y-81041420D01*
X145061722Y-81041421D01*
X144965492Y-81051250D01*
X144804500Y-81104597D01*
X144660155Y-81193631D01*
X144540231Y-81313555D01*
X144451197Y-81457900D01*
X144397850Y-81618892D01*
X144388019Y-81715122D01*
X144388017Y-81715142D01*
X144387700Y-81718255D01*
X144387700Y-81721402D01*
X144387700Y-81721403D01*
X144387700Y-82311794D01*
X144387700Y-82311813D01*
X144387701Y-82314944D01*
X144388020Y-82318076D01*
X144388021Y-82318077D01*
X144397850Y-82414307D01*
X144451197Y-82575299D01*
X144540231Y-82719644D01*
X144660155Y-82839568D01*
X144784327Y-82916159D01*
X144831052Y-82968107D01*
X144842273Y-83037069D01*
X144814430Y-83101151D01*
X144777411Y-83126350D01*
X144779038Y-83128988D01*
X144622355Y-83225631D01*
X144502431Y-83345555D01*
X144413397Y-83489900D01*
X144360050Y-83650892D01*
X144350219Y-83747122D01*
X144350217Y-83747142D01*
X144349900Y-83750255D01*
X144349900Y-83753402D01*
X144349900Y-83753403D01*
X144349900Y-84343794D01*
X144349900Y-84343813D01*
X144349901Y-84346944D01*
X144350220Y-84350076D01*
X144350221Y-84350077D01*
X144360050Y-84446307D01*
X144413397Y-84607299D01*
X144502431Y-84751644D01*
X144605721Y-84854934D01*
X144639206Y-84916257D01*
X144634222Y-84985949D01*
X144592350Y-85041882D01*
X144526886Y-85066299D01*
X144518203Y-85066615D01*
X127199663Y-85089401D01*
X127132598Y-85069805D01*
X127086774Y-85017061D01*
X127075500Y-84965401D01*
X127075500Y-80750000D01*
X129294564Y-80750000D01*
X129294790Y-80753736D01*
X129314063Y-81072362D01*
X129314064Y-81072372D01*
X129314290Y-81076104D01*
X129314963Y-81079778D01*
X129314965Y-81079792D01*
X129372502Y-81393762D01*
X129372504Y-81393771D01*
X129373179Y-81397453D01*
X129374295Y-81401036D01*
X129374296Y-81401038D01*
X129461205Y-81679939D01*
X129470373Y-81709361D01*
X129604455Y-82007279D01*
X129606388Y-82010477D01*
X129606392Y-82010484D01*
X129771532Y-82283658D01*
X129771536Y-82283663D01*
X129773470Y-82286863D01*
X129974952Y-82544036D01*
X130205964Y-82775048D01*
X130463137Y-82976530D01*
X130466339Y-82978466D01*
X130466341Y-82978467D01*
X130695535Y-83117020D01*
X130742721Y-83145545D01*
X131040639Y-83279627D01*
X131352547Y-83376821D01*
X131673896Y-83435710D01*
X132000000Y-83455436D01*
X132326104Y-83435710D01*
X132647453Y-83376821D01*
X132959361Y-83279627D01*
X133257279Y-83145545D01*
X133536863Y-82976530D01*
X133794036Y-82775048D01*
X134025048Y-82544036D01*
X134226530Y-82286863D01*
X134395545Y-82007279D01*
X134529627Y-81709361D01*
X134626821Y-81397453D01*
X134685710Y-81076104D01*
X134705436Y-80750000D01*
X134685710Y-80423896D01*
X134681832Y-80402737D01*
X134676749Y-80375000D01*
X148882858Y-80375000D01*
X149805000Y-80375000D01*
X149805000Y-79452857D01*
X149716506Y-79476570D01*
X149502421Y-79576400D01*
X149308921Y-79711890D01*
X149141890Y-79878921D01*
X149006400Y-80072421D01*
X148906569Y-80286507D01*
X148882858Y-80374999D01*
X148882858Y-80375000D01*
X134676749Y-80375000D01*
X134660533Y-80286507D01*
X134626821Y-80102547D01*
X134529627Y-79790639D01*
X134395545Y-79492721D01*
X134385781Y-79476570D01*
X134228467Y-79216341D01*
X134228466Y-79216339D01*
X134226530Y-79213137D01*
X134025048Y-78955964D01*
X133794036Y-78724952D01*
X133536863Y-78523470D01*
X133533663Y-78521536D01*
X133533658Y-78521532D01*
X133260484Y-78356392D01*
X133260477Y-78356388D01*
X133257279Y-78354455D01*
X132959361Y-78220373D01*
X132738522Y-78151557D01*
X132651038Y-78124296D01*
X132651036Y-78124295D01*
X132647453Y-78123179D01*
X132643771Y-78122504D01*
X132643762Y-78122502D01*
X132329792Y-78064965D01*
X132329778Y-78064963D01*
X132326104Y-78064290D01*
X132322372Y-78064064D01*
X132322362Y-78064063D01*
X132003736Y-78044790D01*
X132000000Y-78044564D01*
X131996264Y-78044790D01*
X131677637Y-78064063D01*
X131677625Y-78064064D01*
X131673896Y-78064290D01*
X131670223Y-78064962D01*
X131670207Y-78064965D01*
X131356237Y-78122502D01*
X131356224Y-78122505D01*
X131352547Y-78123179D01*
X131348967Y-78124294D01*
X131348961Y-78124296D01*
X131044216Y-78219258D01*
X131044210Y-78219260D01*
X131040639Y-78220373D01*
X131037230Y-78221907D01*
X131037228Y-78221908D01*
X130746135Y-78352918D01*
X130746128Y-78352921D01*
X130742721Y-78354455D01*
X130739528Y-78356384D01*
X130739515Y-78356392D01*
X130466341Y-78521532D01*
X130466328Y-78521540D01*
X130463137Y-78523470D01*
X130460195Y-78525774D01*
X130460189Y-78525779D01*
X130317302Y-78637724D01*
X130205964Y-78724952D01*
X130203318Y-78727597D01*
X130203310Y-78727605D01*
X129977605Y-78953310D01*
X129977597Y-78953318D01*
X129974952Y-78955964D01*
X129972640Y-78958914D01*
X129972640Y-78958915D01*
X129775779Y-79210189D01*
X129775774Y-79210195D01*
X129773470Y-79213137D01*
X129771540Y-79216328D01*
X129771532Y-79216341D01*
X129606392Y-79489515D01*
X129606384Y-79489528D01*
X129604455Y-79492721D01*
X129602921Y-79496128D01*
X129602918Y-79496135D01*
X129498533Y-79728069D01*
X129470373Y-79790639D01*
X129469260Y-79794210D01*
X129469258Y-79794216D01*
X129382567Y-80072421D01*
X129373179Y-80102547D01*
X129372505Y-80106224D01*
X129372502Y-80106237D01*
X129314965Y-80420207D01*
X129314962Y-80420223D01*
X129314290Y-80423896D01*
X129314064Y-80427625D01*
X129314063Y-80427637D01*
X129294790Y-80746263D01*
X129294564Y-80750000D01*
X127075500Y-80750000D01*
X127075500Y-78753479D01*
X127075695Y-78746526D01*
X127081805Y-78637724D01*
X127093499Y-78429499D01*
X127095053Y-78415705D01*
X127147657Y-78106100D01*
X127150750Y-78092548D01*
X127154079Y-78080995D01*
X127237687Y-77790783D01*
X127242279Y-77777662D01*
X127296680Y-77646327D01*
X127362457Y-77487527D01*
X127368477Y-77475027D01*
X127520399Y-77200142D01*
X127527776Y-77188403D01*
X127709510Y-76932274D01*
X127718156Y-76921431D01*
X127927435Y-76687247D01*
X127937247Y-76677435D01*
X128171431Y-76468156D01*
X128182274Y-76459510D01*
X128438403Y-76277776D01*
X128450142Y-76270399D01*
X128725027Y-76118477D01*
X128737527Y-76112457D01*
X129027666Y-75992277D01*
X129040783Y-75987687D01*
X129342553Y-75900748D01*
X129356100Y-75897657D01*
X129665705Y-75845053D01*
X129679499Y-75843499D01*
X129996527Y-75825695D01*
X130003481Y-75825500D01*
X130024531Y-75825500D01*
X159390500Y-75825500D01*
X159457539Y-75845185D01*
G37*
%TD.AperFunction*%
%TD*%
%TA.AperFunction,Conductor*%
%TO.N,/Vsys*%
G36*
X143472752Y-85593174D02*
G01*
X143518576Y-85645918D01*
X143528611Y-85715064D01*
X143522415Y-85732729D01*
X143524278Y-85733271D01*
X143481358Y-85880998D01*
X143481360Y-85881000D01*
X144575000Y-85881000D01*
X144642039Y-85900685D01*
X144687794Y-85953489D01*
X144699000Y-86005000D01*
X144699000Y-86206500D01*
X144679315Y-86273539D01*
X144626511Y-86319294D01*
X144575000Y-86330500D01*
X144027019Y-86330500D01*
X144026993Y-86330500D01*
X144024596Y-86330501D01*
X144022188Y-86330690D01*
X144019738Y-86330787D01*
X144021604Y-86330677D01*
X144013384Y-86331000D01*
X143481360Y-86331000D01*
X143481358Y-86331001D01*
X143519907Y-86463685D01*
X143551666Y-86517387D01*
X143568849Y-86585111D01*
X143551667Y-86643628D01*
X143519444Y-86698115D01*
X143476235Y-86846841D01*
X143476235Y-86846844D01*
X143473500Y-86881595D01*
X143473500Y-86884039D01*
X143473500Y-86884040D01*
X143473500Y-87227980D01*
X143473500Y-87228005D01*
X143473501Y-87230404D01*
X143473689Y-87232795D01*
X143473690Y-87232817D01*
X143474710Y-87245775D01*
X143476235Y-87265156D01*
X143505041Y-87364309D01*
X143519445Y-87413888D01*
X143551666Y-87468370D01*
X143568849Y-87536094D01*
X143551667Y-87594610D01*
X143519907Y-87648314D01*
X143481358Y-87780998D01*
X143481360Y-87781000D01*
X144013367Y-87781000D01*
X144021597Y-87781323D01*
X144019731Y-87781213D01*
X144022152Y-87781307D01*
X144024595Y-87781500D01*
X144575000Y-87781499D01*
X144642039Y-87801183D01*
X144687794Y-87853987D01*
X144699000Y-87905499D01*
X144699000Y-88730999D01*
X144920929Y-88730999D01*
X144925765Y-88730809D01*
X144958079Y-88728266D01*
X145118513Y-88681656D01*
X145188382Y-88681855D01*
X145208202Y-88689644D01*
X145291203Y-88730808D01*
X145345307Y-88757641D01*
X145452857Y-88784387D01*
X145513163Y-88819669D01*
X145544822Y-88881955D01*
X145545669Y-88922361D01*
X145544500Y-88930495D01*
X145544500Y-88930498D01*
X145544500Y-88930499D01*
X145544500Y-89411000D01*
X145544854Y-89414294D01*
X145544855Y-89414309D01*
X145554919Y-89507910D01*
X145556053Y-89518456D01*
X145556757Y-89521693D01*
X145556759Y-89521704D01*
X145564541Y-89557475D01*
X145567259Y-89569967D01*
X145568305Y-89573110D01*
X145568309Y-89573124D01*
X145601385Y-89672503D01*
X145679173Y-89793541D01*
X145679175Y-89793543D01*
X145724930Y-89846347D01*
X145833664Y-89940567D01*
X145964541Y-90000338D01*
X146031580Y-90020023D01*
X146031584Y-90020024D01*
X146174000Y-90040500D01*
X154499893Y-90040500D01*
X154504244Y-90040500D01*
X154644187Y-90020743D01*
X154710157Y-90001737D01*
X154816891Y-89953975D01*
X154826583Y-89950120D01*
X154871955Y-89934243D01*
X154899025Y-89928064D01*
X154926118Y-89925011D01*
X154953871Y-89925011D01*
X154980983Y-89928065D01*
X155008043Y-89934242D01*
X155053418Y-89950120D01*
X155063091Y-89953968D01*
X155169844Y-90001738D01*
X155235815Y-90020744D01*
X155375756Y-90040500D01*
X155380111Y-90040500D01*
X155515668Y-90040500D01*
X155548021Y-90050000D01*
X157537822Y-90050000D01*
X157539008Y-90049080D01*
X157584332Y-90040500D01*
X158179719Y-90040500D01*
X158246758Y-90060185D01*
X158292513Y-90112989D01*
X158302457Y-90182147D01*
X158290363Y-90210835D01*
X158293985Y-90212336D01*
X158229800Y-90367294D01*
X158215529Y-90475691D01*
X158215000Y-90483763D01*
X158215000Y-90701036D01*
X158215529Y-90709111D01*
X158230694Y-90824301D01*
X158230694Y-90856671D01*
X158215029Y-90975659D01*
X158214500Y-90979680D01*
X158214500Y-91205120D01*
X158215028Y-91209136D01*
X158215029Y-91209140D01*
X158230694Y-91328129D01*
X158230694Y-91360499D01*
X158215529Y-91475688D01*
X158215000Y-91483763D01*
X158215000Y-91701036D01*
X158215529Y-91709108D01*
X158229800Y-91817505D01*
X158287736Y-91957378D01*
X158379905Y-92077494D01*
X158500021Y-92169663D01*
X158639894Y-92227599D01*
X158748291Y-92241870D01*
X158756363Y-92242400D01*
X159410863Y-92242400D01*
X159477902Y-92262085D01*
X159523657Y-92314889D01*
X159533601Y-92384047D01*
X159514500Y-92516899D01*
X159514500Y-93855222D01*
X159514343Y-93849396D01*
X159498320Y-93917319D01*
X159448059Y-93965854D01*
X159390542Y-93980000D01*
X150495000Y-93980000D01*
X150495000Y-102235000D01*
X164976000Y-102235000D01*
X165043039Y-102254685D01*
X165088794Y-102307489D01*
X165100000Y-102359000D01*
X165100000Y-107135000D01*
X165080315Y-107202039D01*
X165027511Y-107247794D01*
X164976000Y-107259000D01*
X156512094Y-107259000D01*
X156495910Y-107257939D01*
X156467000Y-107254133D01*
X156466999Y-107254133D01*
X156448516Y-107256566D01*
X156430032Y-107259000D01*
X156374899Y-107266258D01*
X156319765Y-107273517D01*
X156182566Y-107330347D01*
X156064749Y-107420749D01*
X156046994Y-107443888D01*
X156036301Y-107456080D01*
X155578701Y-107913681D01*
X155517378Y-107947166D01*
X155491020Y-107950000D01*
X151765000Y-107950000D01*
X151765000Y-108529403D01*
X151745315Y-108596442D01*
X151692511Y-108642197D01*
X151651808Y-108652931D01*
X151514592Y-108664936D01*
X151286336Y-108726097D01*
X151072170Y-108825965D01*
X150878598Y-108961505D01*
X150711508Y-109128595D01*
X150581269Y-109314596D01*
X150526692Y-109358220D01*
X150457193Y-109365413D01*
X150394839Y-109333891D01*
X150378119Y-109314595D01*
X150248109Y-109128921D01*
X150081081Y-108961893D01*
X149887576Y-108826399D01*
X149673493Y-108726570D01*
X149585000Y-108702857D01*
X149585000Y-109663343D01*
X149483100Y-109575048D01*
X149352315Y-109515320D01*
X149245763Y-109500000D01*
X149174237Y-109500000D01*
X149067685Y-109515320D01*
X148936900Y-109575048D01*
X148828239Y-109669202D01*
X148750507Y-109790156D01*
X148710000Y-109928111D01*
X148710000Y-110071889D01*
X148750507Y-110209844D01*
X148828239Y-110330798D01*
X148879252Y-110375000D01*
X147912858Y-110375000D01*
X147936569Y-110463491D01*
X148036399Y-110677576D01*
X148171893Y-110871081D01*
X148338918Y-111038106D01*
X148524595Y-111168119D01*
X148568219Y-111222696D01*
X148575412Y-111292195D01*
X148543890Y-111354549D01*
X148524595Y-111371269D01*
X148338595Y-111501508D01*
X148171505Y-111668598D01*
X148035965Y-111862170D01*
X147936097Y-112076336D01*
X147874936Y-112304592D01*
X147854340Y-112539999D01*
X147874936Y-112775407D01*
X147919709Y-112942501D01*
X147936097Y-113003663D01*
X148035965Y-113217830D01*
X148171505Y-113411401D01*
X148338599Y-113578495D01*
X148532170Y-113714035D01*
X148746337Y-113813903D01*
X148974592Y-113875063D01*
X149210000Y-113895659D01*
X149445408Y-113875063D01*
X149673663Y-113813903D01*
X149887830Y-113714035D01*
X150081401Y-113578495D01*
X150248495Y-113411401D01*
X150378426Y-113225839D01*
X150433002Y-113182216D01*
X150502500Y-113175022D01*
X150564855Y-113206545D01*
X150581571Y-113225837D01*
X150711505Y-113411401D01*
X150878599Y-113578495D01*
X151072170Y-113714035D01*
X151286337Y-113813903D01*
X151514591Y-113875063D01*
X151514592Y-113875063D01*
X151651807Y-113887068D01*
X151716876Y-113912520D01*
X151757855Y-113969111D01*
X151765000Y-114010596D01*
X151765000Y-115550500D01*
X151745315Y-115617539D01*
X151692511Y-115663294D01*
X151641000Y-115674500D01*
X130003481Y-115674500D01*
X129996528Y-115674305D01*
X129679511Y-115656501D01*
X129665693Y-115654944D01*
X129356105Y-115602343D01*
X129342548Y-115599249D01*
X129040787Y-115512313D01*
X129027662Y-115507720D01*
X128737541Y-115387548D01*
X128725013Y-115381515D01*
X128636998Y-115332871D01*
X128450156Y-115229607D01*
X128438391Y-115222214D01*
X128182285Y-115040497D01*
X128171417Y-115031831D01*
X128054885Y-114927692D01*
X127937256Y-114822572D01*
X127927425Y-114812741D01*
X127816067Y-114688131D01*
X127718164Y-114578576D01*
X127709504Y-114567716D01*
X127527782Y-114311604D01*
X127520395Y-114299848D01*
X127368480Y-114024979D01*
X127362454Y-114012465D01*
X127242279Y-113722337D01*
X127237686Y-113709212D01*
X127150750Y-113407451D01*
X127147656Y-113393894D01*
X127128431Y-113280741D01*
X127095053Y-113084296D01*
X127093499Y-113070498D01*
X127075693Y-112753436D01*
X127075500Y-112746548D01*
X127075500Y-112725469D01*
X127075500Y-112725468D01*
X127075500Y-110750000D01*
X129294564Y-110750000D01*
X129294790Y-110753736D01*
X129314063Y-111072362D01*
X129314064Y-111072372D01*
X129314290Y-111076104D01*
X129314963Y-111079778D01*
X129314965Y-111079792D01*
X129372502Y-111393762D01*
X129372504Y-111393771D01*
X129373179Y-111397453D01*
X129470373Y-111709361D01*
X129604455Y-112007279D01*
X129606388Y-112010477D01*
X129606392Y-112010484D01*
X129771532Y-112283658D01*
X129771536Y-112283663D01*
X129773470Y-112286863D01*
X129974952Y-112544036D01*
X130205964Y-112775048D01*
X130463137Y-112976530D01*
X130466339Y-112978466D01*
X130466341Y-112978467D01*
X130735616Y-113141250D01*
X130742721Y-113145545D01*
X131040639Y-113279627D01*
X131352547Y-113376821D01*
X131673896Y-113435710D01*
X132000000Y-113455436D01*
X132326104Y-113435710D01*
X132647453Y-113376821D01*
X132959361Y-113279627D01*
X133257279Y-113145545D01*
X133536863Y-112976530D01*
X133794036Y-112775048D01*
X134025048Y-112544036D01*
X134226530Y-112286863D01*
X134395545Y-112007279D01*
X134529627Y-111709361D01*
X134626821Y-111397453D01*
X134685710Y-111076104D01*
X134705436Y-110750000D01*
X134685710Y-110423896D01*
X134626821Y-110102547D01*
X134529627Y-109790639D01*
X134395545Y-109492721D01*
X134226530Y-109213137D01*
X134025048Y-108955964D01*
X133794036Y-108724952D01*
X133536863Y-108523470D01*
X133533663Y-108521536D01*
X133533658Y-108521532D01*
X133260484Y-108356392D01*
X133260477Y-108356388D01*
X133257279Y-108354455D01*
X132959361Y-108220373D01*
X132647453Y-108123179D01*
X132643771Y-108122504D01*
X132643762Y-108122502D01*
X132329792Y-108064965D01*
X132329778Y-108064963D01*
X132326104Y-108064290D01*
X132322372Y-108064064D01*
X132322362Y-108064063D01*
X132003736Y-108044790D01*
X132000000Y-108044564D01*
X131996264Y-108044790D01*
X131677637Y-108064063D01*
X131677625Y-108064064D01*
X131673896Y-108064290D01*
X131670223Y-108064962D01*
X131670207Y-108064965D01*
X131356237Y-108122502D01*
X131356224Y-108122505D01*
X131352547Y-108123179D01*
X131348967Y-108124294D01*
X131348961Y-108124296D01*
X131044216Y-108219258D01*
X131044210Y-108219260D01*
X131040639Y-108220373D01*
X131037230Y-108221907D01*
X131037228Y-108221908D01*
X130746135Y-108352918D01*
X130746128Y-108352921D01*
X130742721Y-108354455D01*
X130739528Y-108356384D01*
X130739515Y-108356392D01*
X130466341Y-108521532D01*
X130466328Y-108521540D01*
X130463137Y-108523470D01*
X130460195Y-108525774D01*
X130460189Y-108525779D01*
X130252172Y-108688750D01*
X130205964Y-108724952D01*
X130203318Y-108727597D01*
X130203310Y-108727605D01*
X129977605Y-108953310D01*
X129977597Y-108953318D01*
X129974952Y-108955964D01*
X129972640Y-108958914D01*
X129972640Y-108958915D01*
X129775779Y-109210189D01*
X129775774Y-109210195D01*
X129773470Y-109213137D01*
X129771540Y-109216328D01*
X129771532Y-109216341D01*
X129606392Y-109489515D01*
X129606384Y-109489528D01*
X129604455Y-109492721D01*
X129602921Y-109496128D01*
X129602918Y-109496135D01*
X129544921Y-109625000D01*
X129470373Y-109790639D01*
X129469260Y-109794210D01*
X129469258Y-109794216D01*
X129374636Y-110097872D01*
X129373179Y-110102547D01*
X129372505Y-110106224D01*
X129372502Y-110106237D01*
X129314965Y-110420207D01*
X129314962Y-110420223D01*
X129314290Y-110423896D01*
X129314064Y-110427625D01*
X129314063Y-110427637D01*
X129298471Y-110685404D01*
X129294564Y-110750000D01*
X127075500Y-110750000D01*
X127075500Y-106261122D01*
X132261500Y-106261122D01*
X132261586Y-106262747D01*
X132261587Y-106262772D01*
X132264067Y-106309459D01*
X132264067Y-106309466D01*
X132264295Y-106313741D01*
X132308755Y-106543626D01*
X132391426Y-106762690D01*
X132509930Y-106964632D01*
X132660858Y-107143642D01*
X132839868Y-107294570D01*
X133041810Y-107413074D01*
X133260874Y-107495745D01*
X133490759Y-107540205D01*
X133543378Y-107543000D01*
X133545022Y-107543000D01*
X135478978Y-107543000D01*
X135480622Y-107543000D01*
X135533241Y-107540205D01*
X135763126Y-107495745D01*
X135982190Y-107413074D01*
X136184132Y-107294570D01*
X136363142Y-107143642D01*
X136514070Y-106964632D01*
X136632574Y-106762690D01*
X136715245Y-106543626D01*
X136759705Y-106313741D01*
X136762500Y-106261122D01*
X136762500Y-104323878D01*
X136759705Y-104271259D01*
X136715245Y-104041374D01*
X136632574Y-103822310D01*
X136514070Y-103620368D01*
X136363142Y-103441358D01*
X136184132Y-103290430D01*
X135982190Y-103171926D01*
X135763126Y-103089255D01*
X135763121Y-103089254D01*
X135760475Y-103088742D01*
X135756974Y-103086934D01*
X135753251Y-103085529D01*
X135753414Y-103085095D01*
X135698395Y-103056682D01*
X135663503Y-102996148D01*
X135666876Y-102926360D01*
X135707445Y-102869475D01*
X135772328Y-102843552D01*
X135784007Y-102842999D01*
X139309872Y-102842999D01*
X139369483Y-102836591D01*
X139504331Y-102786296D01*
X139619546Y-102700046D01*
X139705796Y-102584831D01*
X139756091Y-102449983D01*
X139762500Y-102390373D01*
X139762500Y-101852000D01*
X139782185Y-101784961D01*
X139834989Y-101739206D01*
X139886500Y-101728000D01*
X140583799Y-101728000D01*
X140650838Y-101747685D01*
X140671479Y-101764318D01*
X143287980Y-104380820D01*
X143321464Y-104442141D01*
X143316480Y-104511833D01*
X143287979Y-104556180D01*
X139930977Y-107913181D01*
X139869654Y-107946666D01*
X139843296Y-107949500D01*
X139355439Y-107949500D01*
X139355420Y-107949500D01*
X139352128Y-107949501D01*
X139348848Y-107949853D01*
X139348840Y-107949854D01*
X139292515Y-107955909D01*
X139157669Y-108006204D01*
X139042454Y-108092454D01*
X138956204Y-108207668D01*
X138915929Y-108315653D01*
X138905909Y-108342517D01*
X138899500Y-108402127D01*
X138899500Y-108405448D01*
X138899500Y-108405449D01*
X138899500Y-110094560D01*
X138899500Y-110094578D01*
X138899501Y-110097872D01*
X138899853Y-110101152D01*
X138899854Y-110101159D01*
X138900400Y-110106237D01*
X138905909Y-110157483D01*
X138956204Y-110292331D01*
X139042454Y-110407546D01*
X139157669Y-110493796D01*
X139275448Y-110537725D01*
X139307110Y-110549534D01*
X139305914Y-110552740D01*
X139346955Y-110569737D01*
X139386807Y-110627126D01*
X139389307Y-110696951D01*
X139356838Y-110753975D01*
X139199950Y-110910863D01*
X139069432Y-111097264D01*
X138973261Y-111303502D01*
X138914364Y-111523310D01*
X138894531Y-111750000D01*
X138914364Y-111976689D01*
X138973261Y-112196497D01*
X139069432Y-112402735D01*
X139199953Y-112589140D01*
X139360859Y-112750046D01*
X139547264Y-112880567D01*
X139547265Y-112880567D01*
X139547266Y-112880568D01*
X139753504Y-112976739D01*
X139973308Y-113035635D01*
X140124436Y-113048857D01*
X140199999Y-113055468D01*
X140199999Y-113055467D01*
X140200000Y-113055468D01*
X140426692Y-113035635D01*
X140646496Y-112976739D01*
X140852734Y-112880568D01*
X141039139Y-112750047D01*
X141200047Y-112589139D01*
X141330568Y-112402734D01*
X141426739Y-112196496D01*
X141485635Y-111976692D01*
X141505468Y-111750000D01*
X141485635Y-111523308D01*
X141426739Y-111303504D01*
X141330568Y-111097266D01*
X141328052Y-111093672D01*
X141200046Y-110910859D01*
X141043162Y-110753975D01*
X141009677Y-110692652D01*
X141014661Y-110622960D01*
X141056533Y-110567027D01*
X141093927Y-110552315D01*
X141092890Y-110549534D01*
X141109229Y-110543439D01*
X141242331Y-110493796D01*
X141357546Y-110407546D01*
X141443796Y-110292331D01*
X141494091Y-110157483D01*
X141500500Y-110097873D01*
X141500499Y-109625000D01*
X147912858Y-109625000D01*
X148835000Y-109625000D01*
X148835000Y-108702857D01*
X148746506Y-108726570D01*
X148532421Y-108826400D01*
X148338921Y-108961890D01*
X148171890Y-109128921D01*
X148036400Y-109322421D01*
X147936569Y-109536507D01*
X147912858Y-109624999D01*
X147912858Y-109625000D01*
X141500499Y-109625000D01*
X141500499Y-109606699D01*
X141520183Y-109539661D01*
X141536813Y-109519024D01*
X145333097Y-105722741D01*
X145394418Y-105689258D01*
X145464110Y-105694242D01*
X145485869Y-105704884D01*
X145524666Y-105728814D01*
X145608667Y-105756649D01*
X145691202Y-105783999D01*
X145790858Y-105794180D01*
X145790859Y-105794180D01*
X145793991Y-105794500D01*
X147894008Y-105794499D01*
X147996797Y-105783999D01*
X148163334Y-105728814D01*
X148312656Y-105636712D01*
X148436712Y-105512656D01*
X148528814Y-105363334D01*
X148583999Y-105196797D01*
X148594500Y-105094009D01*
X148594500Y-104769000D01*
X149094001Y-104769000D01*
X149094001Y-105090829D01*
X149094321Y-105097111D01*
X149104493Y-105196695D01*
X149159642Y-105363122D01*
X149251683Y-105512345D01*
X149375654Y-105636316D01*
X149524877Y-105728357D01*
X149691303Y-105783506D01*
X149790890Y-105793680D01*
X149797168Y-105793999D01*
X150468999Y-105793999D01*
X150469000Y-105793998D01*
X150469000Y-104769000D01*
X151219000Y-104769000D01*
X151219000Y-105793999D01*
X151890829Y-105793999D01*
X151897111Y-105793678D01*
X151996695Y-105783506D01*
X152163122Y-105728357D01*
X152312345Y-105636316D01*
X152436316Y-105512345D01*
X152508563Y-105395213D01*
X155974500Y-105395213D01*
X155974501Y-105398344D01*
X155974820Y-105401476D01*
X155974821Y-105401477D01*
X155984650Y-105497707D01*
X156037997Y-105658699D01*
X156127031Y-105803044D01*
X156246955Y-105922968D01*
X156391300Y-106012002D01*
X156552292Y-106065349D01*
X156648522Y-106075180D01*
X156648523Y-106075180D01*
X156651655Y-106075500D01*
X157248344Y-106075499D01*
X157347708Y-106065349D01*
X157508697Y-106012003D01*
X157653044Y-105922968D01*
X157772968Y-105803044D01*
X157833513Y-105704886D01*
X157862002Y-105658699D01*
X157910396Y-105512656D01*
X157915349Y-105497708D01*
X157925500Y-105398345D01*
X157925499Y-104851656D01*
X157915349Y-104752292D01*
X157862003Y-104591303D01*
X157862002Y-104591302D01*
X157862002Y-104591300D01*
X157772969Y-104446957D01*
X157763341Y-104437329D01*
X157729854Y-104376007D01*
X157734837Y-104306315D01*
X157763341Y-104261963D01*
X157772572Y-104252732D01*
X157861546Y-104108484D01*
X157901471Y-103988000D01*
X159133557Y-103988000D01*
X159141493Y-104065695D01*
X159196642Y-104232122D01*
X159288683Y-104381345D01*
X159412654Y-104505316D01*
X159561877Y-104597357D01*
X159728303Y-104652506D01*
X159827890Y-104662680D01*
X159834168Y-104662999D01*
X161555999Y-104662999D01*
X161556000Y-104662998D01*
X161556000Y-103988000D01*
X162306000Y-103988000D01*
X162306000Y-104662999D01*
X164027829Y-104662999D01*
X164034111Y-104662678D01*
X164133695Y-104652506D01*
X164300122Y-104597357D01*
X164449345Y-104505316D01*
X164573316Y-104381345D01*
X164665357Y-104232122D01*
X164720506Y-104065696D01*
X164728444Y-103988000D01*
X162306000Y-103988000D01*
X161556000Y-103988000D01*
X159133557Y-103988000D01*
X157901471Y-103988000D01*
X157914063Y-103950000D01*
X155985937Y-103950000D01*
X156038453Y-104108486D01*
X156127426Y-104252732D01*
X156136659Y-104261965D01*
X156170144Y-104323288D01*
X156165160Y-104392980D01*
X156136661Y-104437325D01*
X156127031Y-104446954D01*
X156037997Y-104591300D01*
X155984650Y-104752292D01*
X155974819Y-104848522D01*
X155974817Y-104848542D01*
X155974500Y-104851655D01*
X155974500Y-104854802D01*
X155974500Y-104854803D01*
X155974500Y-105395194D01*
X155974500Y-105395213D01*
X152508563Y-105395213D01*
X152528357Y-105363122D01*
X152583506Y-105196696D01*
X152593680Y-105097109D01*
X152594000Y-105090831D01*
X152594000Y-104769000D01*
X151219000Y-104769000D01*
X150469000Y-104769000D01*
X149094001Y-104769000D01*
X148594500Y-104769000D01*
X148594499Y-104019000D01*
X149094000Y-104019000D01*
X150469000Y-104019000D01*
X150469000Y-102994000D01*
X151219000Y-102994000D01*
X151219000Y-104019000D01*
X152593999Y-104019000D01*
X152593999Y-103697170D01*
X152593678Y-103690888D01*
X152583506Y-103591304D01*
X152528357Y-103424877D01*
X152436316Y-103275654D01*
X152398662Y-103238000D01*
X159133556Y-103238000D01*
X161556000Y-103238000D01*
X161556000Y-102563000D01*
X162306000Y-102563000D01*
X162306000Y-103238000D01*
X164728443Y-103238000D01*
X164728443Y-103237999D01*
X164720506Y-103160304D01*
X164665357Y-102993877D01*
X164573316Y-102844654D01*
X164449345Y-102720683D01*
X164300122Y-102628642D01*
X164133696Y-102573493D01*
X164034109Y-102563319D01*
X164027832Y-102563000D01*
X162306000Y-102563000D01*
X161556000Y-102563000D01*
X159834170Y-102563000D01*
X159827888Y-102563321D01*
X159728304Y-102573493D01*
X159561877Y-102628642D01*
X159412654Y-102720683D01*
X159288683Y-102844654D01*
X159196642Y-102993877D01*
X159141493Y-103160303D01*
X159133556Y-103238000D01*
X152398662Y-103238000D01*
X152360661Y-103199999D01*
X155985936Y-103199999D01*
X155985937Y-103200000D01*
X156575000Y-103200000D01*
X156575000Y-102632834D01*
X157325000Y-102632834D01*
X157325000Y-103200000D01*
X157914063Y-103200000D01*
X157914063Y-103199999D01*
X157861546Y-103041513D01*
X157772573Y-102897267D01*
X157652732Y-102777426D01*
X157508485Y-102688453D01*
X157347609Y-102635144D01*
X157325000Y-102632834D01*
X156575000Y-102632834D01*
X156552390Y-102635144D01*
X156391514Y-102688453D01*
X156247267Y-102777426D01*
X156127426Y-102897267D01*
X156038453Y-103041513D01*
X155985936Y-103199999D01*
X152360661Y-103199999D01*
X152312345Y-103151683D01*
X152163122Y-103059642D01*
X151996696Y-103004493D01*
X151897109Y-102994319D01*
X151890832Y-102994000D01*
X151219000Y-102994000D01*
X150469000Y-102994000D01*
X149797171Y-102994000D01*
X149790888Y-102994321D01*
X149691304Y-103004493D01*
X149524877Y-103059642D01*
X149375654Y-103151683D01*
X149251683Y-103275654D01*
X149159642Y-103424877D01*
X149104493Y-103591303D01*
X149094319Y-103690890D01*
X149094000Y-103697168D01*
X149094000Y-104019000D01*
X148594499Y-104019000D01*
X148594499Y-103693992D01*
X148583999Y-103591203D01*
X148528814Y-103424666D01*
X148436712Y-103275344D01*
X148436711Y-103275342D01*
X148312657Y-103151288D01*
X148163334Y-103059186D01*
X147996797Y-103004000D01*
X147897141Y-102993819D01*
X147897122Y-102993818D01*
X147894009Y-102993500D01*
X147890860Y-102993500D01*
X145797140Y-102993500D01*
X145797120Y-102993500D01*
X145793992Y-102993501D01*
X145790860Y-102993820D01*
X145790858Y-102993821D01*
X145691203Y-103004000D01*
X145524665Y-103059186D01*
X145393714Y-103139956D01*
X145326321Y-103158396D01*
X145259658Y-103137473D01*
X145240937Y-103122098D01*
X141982781Y-99863942D01*
X141969449Y-99848180D01*
X141967555Y-99845519D01*
X141899932Y-99781042D01*
X141897820Y-99778980D01*
X141872265Y-99753425D01*
X141870172Y-99751332D01*
X141867897Y-99749454D01*
X141867892Y-99749449D01*
X141863147Y-99745532D01*
X141856525Y-99739655D01*
X141810611Y-99695875D01*
X141782519Y-99677821D01*
X141770614Y-99669128D01*
X141744852Y-99647859D01*
X141689163Y-99617450D01*
X141681551Y-99612934D01*
X141628183Y-99578637D01*
X141597174Y-99566222D01*
X141583838Y-99559938D01*
X141554526Y-99543933D01*
X141524818Y-99534436D01*
X141494077Y-99524609D01*
X141485756Y-99521617D01*
X141426863Y-99498040D01*
X141410185Y-99494825D01*
X141394058Y-99491717D01*
X141379779Y-99488072D01*
X141362521Y-99482555D01*
X141347967Y-99477903D01*
X141284966Y-99470370D01*
X141276222Y-99469006D01*
X141213928Y-99457000D01*
X141213927Y-99457000D01*
X141180528Y-99457000D01*
X141165808Y-99456123D01*
X141161141Y-99455565D01*
X141132643Y-99452157D01*
X141069362Y-99456684D01*
X141060516Y-99457000D01*
X139886499Y-99457000D01*
X139819460Y-99437315D01*
X139773705Y-99384511D01*
X139762499Y-99333000D01*
X139762499Y-98797939D01*
X139762499Y-98797938D01*
X139762499Y-98794628D01*
X139756091Y-98735017D01*
X139705796Y-98600169D01*
X139619546Y-98484954D01*
X139504331Y-98398704D01*
X139369483Y-98348409D01*
X139309873Y-98342000D01*
X139306550Y-98342000D01*
X135717439Y-98342000D01*
X135717420Y-98342000D01*
X135714128Y-98342001D01*
X135710848Y-98342353D01*
X135710840Y-98342354D01*
X135654515Y-98348409D01*
X135519669Y-98398704D01*
X135404454Y-98484954D01*
X135318204Y-98600168D01*
X135267910Y-98735015D01*
X135267909Y-98735017D01*
X135261500Y-98794627D01*
X135261500Y-98797948D01*
X135261500Y-98797949D01*
X135261500Y-102387060D01*
X135261500Y-102387078D01*
X135261501Y-102390372D01*
X135267909Y-102449983D01*
X135318204Y-102584831D01*
X135404454Y-102700046D01*
X135519669Y-102786296D01*
X135566940Y-102803927D01*
X135622873Y-102845796D01*
X135647291Y-102911261D01*
X135632440Y-102979534D01*
X135583035Y-103028940D01*
X135517033Y-103043934D01*
X135482242Y-103042086D01*
X135482240Y-103042085D01*
X135480622Y-103042000D01*
X133543378Y-103042000D01*
X133541753Y-103042086D01*
X133541727Y-103042087D01*
X133495040Y-103044567D01*
X133495031Y-103044568D01*
X133490759Y-103044795D01*
X133486561Y-103045606D01*
X133486552Y-103045608D01*
X133260877Y-103089254D01*
X133041807Y-103171927D01*
X132839868Y-103290430D01*
X132660858Y-103441358D01*
X132509930Y-103620368D01*
X132391427Y-103822307D01*
X132391425Y-103822310D01*
X132391426Y-103822310D01*
X132328898Y-103988000D01*
X132308754Y-104041377D01*
X132265108Y-104267052D01*
X132265106Y-104267061D01*
X132264295Y-104271259D01*
X132264068Y-104275531D01*
X132264067Y-104275540D01*
X132261587Y-104322227D01*
X132261586Y-104322253D01*
X132261500Y-104323878D01*
X132261500Y-106261122D01*
X127075500Y-106261122D01*
X127075500Y-101654295D01*
X129511500Y-101654295D01*
X129511501Y-101656716D01*
X129511691Y-101659135D01*
X129511692Y-101659151D01*
X129521904Y-101788916D01*
X129576902Y-102007181D01*
X129669992Y-102212125D01*
X129798180Y-102397154D01*
X129957345Y-102556319D01*
X130142374Y-102684507D01*
X130347318Y-102777597D01*
X130565583Y-102832595D01*
X130565584Y-102832595D01*
X130565588Y-102832596D01*
X130697783Y-102843000D01*
X132326216Y-102842999D01*
X132458412Y-102832596D01*
X132458416Y-102832595D01*
X132676681Y-102777597D01*
X132711063Y-102761979D01*
X132881626Y-102684507D01*
X133066654Y-102556319D01*
X133225819Y-102397154D01*
X133354007Y-102212126D01*
X133447096Y-102007183D01*
X133484116Y-101860269D01*
X133502095Y-101788916D01*
X133502095Y-101788915D01*
X133502096Y-101788912D01*
X133512500Y-101656717D01*
X133512499Y-99528284D01*
X133502096Y-99396088D01*
X133490735Y-99351000D01*
X133447097Y-99177818D01*
X133354007Y-98972874D01*
X133225819Y-98787845D01*
X133066654Y-98628680D01*
X132881625Y-98500492D01*
X132676681Y-98407402D01*
X132458416Y-98352404D01*
X132328651Y-98342191D01*
X132328636Y-98342190D01*
X132326217Y-98342000D01*
X132323771Y-98342000D01*
X130700229Y-98342000D01*
X130700203Y-98342000D01*
X130697784Y-98342001D01*
X130695365Y-98342191D01*
X130695348Y-98342192D01*
X130565583Y-98352404D01*
X130347318Y-98407402D01*
X130142374Y-98500492D01*
X129957345Y-98628680D01*
X129798180Y-98787845D01*
X129669992Y-98972874D01*
X129576902Y-99177818D01*
X129521904Y-99396083D01*
X129511691Y-99525848D01*
X129511690Y-99525864D01*
X129511500Y-99528283D01*
X129511500Y-99530727D01*
X129511500Y-99530728D01*
X129511500Y-101654270D01*
X129511500Y-101654295D01*
X127075500Y-101654295D01*
X127075500Y-91895000D01*
X143930001Y-91895000D01*
X143930001Y-92041829D01*
X143930321Y-92048111D01*
X143940493Y-92147695D01*
X143995642Y-92314122D01*
X144087683Y-92463345D01*
X144211654Y-92587316D01*
X144360877Y-92679357D01*
X144527304Y-92734506D01*
X144554999Y-92737335D01*
X145305000Y-92737335D01*
X145332695Y-92734506D01*
X145499122Y-92679357D01*
X145648345Y-92587316D01*
X145772313Y-92463348D01*
X145774164Y-92460348D01*
X145826110Y-92413621D01*
X145895072Y-92402396D01*
X145959156Y-92430236D01*
X145985246Y-92460345D01*
X145987290Y-92463659D01*
X146111342Y-92587711D01*
X146111344Y-92587712D01*
X146260666Y-92679814D01*
X146370450Y-92716193D01*
X146427202Y-92734999D01*
X146526858Y-92745180D01*
X146526859Y-92745180D01*
X146529991Y-92745500D01*
X147130008Y-92745499D01*
X147232797Y-92734999D01*
X147399334Y-92679814D01*
X147548656Y-92587712D01*
X147672712Y-92463656D01*
X147764814Y-92314334D01*
X147787718Y-92245213D01*
X155574500Y-92245213D01*
X155574501Y-92248344D01*
X155574820Y-92251476D01*
X155574821Y-92251477D01*
X155584650Y-92347707D01*
X155637997Y-92508699D01*
X155727031Y-92653044D01*
X155846955Y-92772968D01*
X155991300Y-92862002D01*
X156152292Y-92915349D01*
X156248522Y-92925180D01*
X156248523Y-92925180D01*
X156251655Y-92925500D01*
X156848344Y-92925499D01*
X156947708Y-92915349D01*
X157108697Y-92862003D01*
X157253044Y-92772968D01*
X157372968Y-92653044D01*
X157462003Y-92508697D01*
X157515349Y-92347708D01*
X157525500Y-92248345D01*
X157525499Y-91701656D01*
X157515349Y-91602292D01*
X157462003Y-91441303D01*
X157462002Y-91441302D01*
X157462002Y-91441300D01*
X157372969Y-91296957D01*
X157363341Y-91287329D01*
X157329854Y-91226007D01*
X157334837Y-91156315D01*
X157363341Y-91111963D01*
X157372572Y-91102732D01*
X157461546Y-90958484D01*
X157514063Y-90800000D01*
X155585937Y-90800000D01*
X155638453Y-90958486D01*
X155727426Y-91102732D01*
X155736659Y-91111965D01*
X155770144Y-91173288D01*
X155765160Y-91242980D01*
X155736661Y-91287325D01*
X155727031Y-91296954D01*
X155637997Y-91441300D01*
X155584650Y-91602292D01*
X155574819Y-91698522D01*
X155574817Y-91698542D01*
X155574500Y-91701655D01*
X155574500Y-91704802D01*
X155574500Y-91704803D01*
X155574500Y-92245194D01*
X155574500Y-92245213D01*
X147787718Y-92245213D01*
X147819999Y-92147797D01*
X147830500Y-92045009D01*
X147830499Y-90994992D01*
X147819999Y-90892203D01*
X147764814Y-90725666D01*
X147672712Y-90576344D01*
X147672711Y-90576342D01*
X147548657Y-90452288D01*
X147399334Y-90360186D01*
X147232797Y-90305000D01*
X147133141Y-90294819D01*
X147133122Y-90294818D01*
X147130009Y-90294500D01*
X147126860Y-90294500D01*
X146533141Y-90294500D01*
X146533121Y-90294500D01*
X146529992Y-90294501D01*
X146526860Y-90294820D01*
X146526858Y-90294821D01*
X146427203Y-90305000D01*
X146260665Y-90360186D01*
X146111342Y-90452288D01*
X145987286Y-90576344D01*
X145985242Y-90579659D01*
X145933292Y-90626382D01*
X145864329Y-90637601D01*
X145800248Y-90609755D01*
X145774168Y-90579656D01*
X145772316Y-90576654D01*
X145648345Y-90452683D01*
X145499122Y-90360642D01*
X145332697Y-90305494D01*
X145305000Y-90302664D01*
X145305000Y-92737335D01*
X144554999Y-92737335D01*
X144555000Y-92737334D01*
X144555000Y-91895000D01*
X143930001Y-91895000D01*
X127075500Y-91895000D01*
X127075500Y-91145000D01*
X143930000Y-91145000D01*
X144555000Y-91145000D01*
X144555000Y-90302664D01*
X144554999Y-90302664D01*
X144527302Y-90305494D01*
X144360877Y-90360642D01*
X144211654Y-90452683D01*
X144087683Y-90576654D01*
X143995642Y-90725877D01*
X143940493Y-90892303D01*
X143930319Y-90991890D01*
X143930000Y-90998168D01*
X143930000Y-91145000D01*
X127075500Y-91145000D01*
X127075500Y-88231001D01*
X143481358Y-88231001D01*
X143519907Y-88363685D01*
X143598684Y-88496890D01*
X143708109Y-88606315D01*
X143841314Y-88685092D01*
X143989918Y-88728266D01*
X144022215Y-88730808D01*
X144027092Y-88730999D01*
X144248999Y-88730999D01*
X144249000Y-88730998D01*
X144249000Y-88231000D01*
X143481360Y-88231000D01*
X143481358Y-88231001D01*
X127075500Y-88231001D01*
X127075500Y-85718902D01*
X127095185Y-85651863D01*
X127147989Y-85606108D01*
X127199337Y-85594902D01*
X127200325Y-85594900D01*
X127200328Y-85594901D01*
X143405692Y-85573579D01*
X143472752Y-85593174D01*
G37*
%TD.AperFunction*%
%TD*%
M02*
