%TF.GenerationSoftware,KiCad,Pcbnew,7.0.2-0*%
%TF.CreationDate,2024-01-05T14:45:17-05:00*%
%TF.ProjectId,WiringHarness,57697269-6e67-4486-9172-6e6573732e6b,rev?*%
%TF.SameCoordinates,Original*%
%TF.FileFunction,Copper,L3,Inr*%
%TF.FilePolarity,Positive*%
%FSLAX46Y46*%
G04 Gerber Fmt 4.6, Leading zero omitted, Abs format (unit mm)*
G04 Created by KiCad (PCBNEW 7.0.2-0) date 2024-01-05 14:45:17*
%MOMM*%
%LPD*%
G01*
G04 APERTURE LIST*
G04 Aperture macros list*
%AMRoundRect*
0 Rectangle with rounded corners*
0 $1 Rounding radius*
0 $2 $3 $4 $5 $6 $7 $8 $9 X,Y pos of 4 corners*
0 Add a 4 corners polygon primitive as box body*
4,1,4,$2,$3,$4,$5,$6,$7,$8,$9,$2,$3,0*
0 Add four circle primitives for the rounded corners*
1,1,$1+$1,$2,$3*
1,1,$1+$1,$4,$5*
1,1,$1+$1,$6,$7*
1,1,$1+$1,$8,$9*
0 Add four rect primitives between the rounded corners*
20,1,$1+$1,$2,$3,$4,$5,0*
20,1,$1+$1,$4,$5,$6,$7,0*
20,1,$1+$1,$6,$7,$8,$9,0*
20,1,$1+$1,$8,$9,$2,$3,0*%
G04 Aperture macros list end*
%TA.AperFunction,ComponentPad*%
%ADD10R,1.700000X1.700000*%
%TD*%
%TA.AperFunction,ComponentPad*%
%ADD11O,1.700000X1.700000*%
%TD*%
%TA.AperFunction,ComponentPad*%
%ADD12C,4.400000*%
%TD*%
%TA.AperFunction,ComponentPad*%
%ADD13R,1.600000X1.600000*%
%TD*%
%TA.AperFunction,ComponentPad*%
%ADD14C,1.600000*%
%TD*%
%TA.AperFunction,ComponentPad*%
%ADD15R,3.500000X3.500000*%
%TD*%
%TA.AperFunction,ComponentPad*%
%ADD16RoundRect,0.750000X-0.750000X-1.000000X0.750000X-1.000000X0.750000X1.000000X-0.750000X1.000000X0*%
%TD*%
%TA.AperFunction,ComponentPad*%
%ADD17RoundRect,0.875000X-0.875000X-0.875000X0.875000X-0.875000X0.875000X0.875000X-0.875000X0.875000X0*%
%TD*%
%TA.AperFunction,ViaPad*%
%ADD18C,0.500000*%
%TD*%
%TA.AperFunction,ViaPad*%
%ADD19C,0.350000*%
%TD*%
%TA.AperFunction,Conductor*%
%ADD20C,0.635000*%
%TD*%
G04 APERTURE END LIST*
D10*
%TO.N,/StepX*%
%TO.C,J4*%
X159370000Y-110000000D03*
D11*
%TO.N,/DirX*%
X159370000Y-112540000D03*
%TO.N,/SCL*%
X156830000Y-110000000D03*
%TO.N,/SDA*%
X156830000Y-112540000D03*
%TO.N,/D0*%
X154290000Y-110000000D03*
%TO.N,/D1*%
X154290000Y-112540000D03*
%TO.N,/StepY*%
X151750000Y-110000000D03*
%TO.N,/DirY*%
X151750000Y-112540000D03*
%TO.N,/Vsys*%
X149210000Y-110000000D03*
%TO.N,GND*%
X149210000Y-112540000D03*
%TD*%
D10*
%TO.N,/SCL*%
%TO.C,J5*%
X157800000Y-80750000D03*
D11*
%TO.N,/SDA*%
X155260000Y-80750000D03*
%TO.N,GND*%
X152720000Y-80750000D03*
%TO.N,+5V*%
X150180000Y-80750000D03*
%TD*%
D12*
%TO.N,GND*%
%TO.C,H2*%
X177000000Y-110750000D03*
%TD*%
D10*
%TO.N,/Y0_0*%
%TO.C,J7*%
X181864000Y-81661000D03*
D11*
%TO.N,/Y1_0*%
X184404000Y-81661000D03*
%TO.N,/Y0_1*%
X181864000Y-84201000D03*
%TO.N,/Y1_1*%
X184404000Y-84201000D03*
%TO.N,/Y0_2*%
X181864000Y-86741000D03*
%TO.N,/Y1_2*%
X184404000Y-86741000D03*
%TO.N,/Y0_3*%
X181864000Y-89281000D03*
%TO.N,/Y1_3*%
X184404000Y-89281000D03*
%TO.N,GND*%
X181864000Y-91821000D03*
X184404000Y-91821000D03*
%TO.N,+5VP*%
X181864000Y-94361000D03*
X184404000Y-94361000D03*
%TO.N,unconnected-(J7-Pin_13-Pad13)*%
X181864000Y-96901000D03*
%TO.N,/X_0*%
X184404000Y-96901000D03*
%TO.N,unconnected-(J7-Pin_15-Pad15)*%
X181864000Y-99441000D03*
%TO.N,/X_1*%
X184404000Y-99441000D03*
%TO.N,/D1*%
X181864000Y-101981000D03*
%TO.N,/X_2*%
X184404000Y-101981000D03*
%TO.N,/D0*%
X181864000Y-104521000D03*
%TO.N,/X_3*%
X184404000Y-104521000D03*
%TO.N,GND*%
X181864000Y-107061000D03*
X184404000Y-107061000D03*
%TO.N,Net-(J7-Pin_23)*%
X181864000Y-109601000D03*
%TO.N,+5VP*%
X184404000Y-109601000D03*
%TD*%
D12*
%TO.N,GND*%
%TO.C,H5*%
X132000000Y-80750000D03*
%TD*%
%TO.N,GND*%
%TO.C,H3*%
X132000000Y-110750000D03*
%TD*%
D13*
%TO.N,+5VP*%
%TO.C,C3*%
X167934000Y-111836200D03*
D14*
%TO.N,GND*%
X170434000Y-111836200D03*
%TD*%
D15*
%TO.N,Net-(D1-A)*%
%TO.C,J1*%
X137512000Y-100592500D03*
D16*
%TO.N,GND*%
X131512000Y-100592500D03*
D17*
%TO.N,N/C*%
X134512000Y-105292500D03*
%TD*%
D13*
%TO.N,Net-(D1-A)*%
%TO.C,C10*%
X140200000Y-109250000D03*
D14*
%TO.N,GND*%
X140200000Y-111750000D03*
%TD*%
D12*
%TO.N,GND*%
%TO.C,H1*%
X177000000Y-80750000D03*
%TD*%
D18*
%TO.N,GND*%
X145415000Y-84074000D03*
X146050000Y-87122000D03*
D19*
X146850000Y-91270000D03*
X146860000Y-91810000D03*
D18*
X156550000Y-92000000D03*
X156972000Y-105130600D03*
X175006000Y-92710000D03*
X160274000Y-90678000D03*
D19*
X169150000Y-81500000D03*
D18*
X184785000Y-79502000D03*
X146050000Y-86360000D03*
X145415000Y-82042000D03*
X160020000Y-86614000D03*
D19*
X169150000Y-80800000D03*
D18*
X146050000Y-87884000D03*
X170942000Y-92710000D03*
X187071000Y-112649000D03*
X153289000Y-98958400D03*
X178435000Y-99568000D03*
X164211000Y-91821000D03*
X160274000Y-91440000D03*
%TO.N,/Vsys*%
X154940000Y-91440000D03*
X154940000Y-92710000D03*
X142240000Y-87630000D03*
X146685000Y-108585000D03*
X145415000Y-109855000D03*
X140970000Y-88900000D03*
X147955000Y-107315000D03*
X142240000Y-86360000D03*
X140970000Y-86360000D03*
X142240000Y-91440000D03*
X145415000Y-107315000D03*
X146685000Y-107315000D03*
X142240000Y-88900000D03*
X140970000Y-90170000D03*
X146685000Y-109855000D03*
X140970000Y-87630000D03*
X145415000Y-108585000D03*
X142240000Y-90170000D03*
X140970000Y-91440000D03*
X154940000Y-90170000D03*
%TO.N,/SDA3*%
X165735000Y-90678000D03*
X165468800Y-85674200D03*
D19*
X163576000Y-83515200D03*
%TO.N,/D0*%
X179628800Y-107950000D03*
%TO.N,/D1*%
X178917600Y-108356400D03*
D18*
%TO.N,/SCL3*%
X165481000Y-83769200D03*
X165222000Y-89154000D03*
D19*
X161200000Y-81150000D03*
D18*
%TO.N,/RstN*%
X180213000Y-79375000D03*
X179959000Y-90551000D03*
%TO.N,/StepX*%
X172466000Y-90805000D03*
X171958000Y-108839000D03*
%TO.N,/DirX*%
X173228000Y-113030000D03*
X173355000Y-90932000D03*
%TO.N,/StepY*%
X151257000Y-87807800D03*
%TO.N,/DirY*%
X173990000Y-114046000D03*
X174498000Y-89535000D03*
%TO.N,+3.3V*%
X162941000Y-77597000D03*
X173228000Y-79629000D03*
X162941000Y-78359000D03*
X162687000Y-89662000D03*
X173228000Y-77978000D03*
X169291000Y-92710000D03*
X162687000Y-92837000D03*
X173228000Y-78740000D03*
X162941000Y-79248000D03*
X163449000Y-85979000D03*
X173228000Y-80518000D03*
X162941000Y-76835000D03*
X161798000Y-88900000D03*
X162687000Y-91821000D03*
X179750000Y-78150000D03*
X162687000Y-88900000D03*
%TO.N,+5V*%
X149150000Y-86650000D03*
X158369000Y-77724000D03*
X146850000Y-84050000D03*
X149150000Y-88550000D03*
X149150000Y-87650000D03*
X149150000Y-85750000D03*
D19*
%TO.N,/X_0*%
X167900000Y-87000000D03*
X168050000Y-94100000D03*
%TO.N,/X_1*%
X167350000Y-87550000D03*
X167350000Y-94350000D03*
%TO.N,/X_2*%
X166900000Y-88200000D03*
X166900000Y-94900000D03*
%TO.N,/X_3*%
X166400000Y-88700000D03*
X166400000Y-107289600D03*
D18*
%TO.N,+5VP*%
X161925000Y-111760000D03*
X172720000Y-101600000D03*
X151765000Y-98425000D03*
X175260000Y-99060000D03*
X179197000Y-114681000D03*
X164465000Y-110490000D03*
X170180000Y-104140000D03*
X167640000Y-104140000D03*
X175260000Y-104140000D03*
X151765000Y-100965000D03*
X182245000Y-114681000D03*
X153035000Y-100965000D03*
X167640000Y-96520000D03*
X172720000Y-104140000D03*
X151765000Y-99695000D03*
X175260000Y-96520000D03*
X167640000Y-101600000D03*
X163195000Y-111760000D03*
X172720000Y-96520000D03*
X170180000Y-101600000D03*
X170180000Y-96520000D03*
X172720000Y-99060000D03*
X163195000Y-110490000D03*
X154305000Y-100965000D03*
X175260000Y-101600000D03*
X178054000Y-114681000D03*
X167640000Y-99060000D03*
X181229000Y-114681000D03*
X170180000Y-99060000D03*
X164465000Y-111760000D03*
X183261000Y-114681000D03*
X161925000Y-110490000D03*
X180213000Y-114681000D03*
%TD*%
D20*
%TO.N,+5VP*%
X181864000Y-94361000D02*
X178562000Y-94361000D01*
X181864000Y-94361000D02*
X187325000Y-94361000D01*
%TD*%
%TA.AperFunction,Conductor*%
%TO.N,+3.3V*%
G36*
X180283039Y-75845185D02*
G01*
X180328794Y-75897989D01*
X180340000Y-75949500D01*
X180340000Y-78495304D01*
X180320315Y-78562343D01*
X180267511Y-78608098D01*
X180226484Y-78614639D01*
X180226884Y-78618186D01*
X180044943Y-78638686D01*
X179885310Y-78694544D01*
X179742108Y-78784524D01*
X179622524Y-78904108D01*
X179532544Y-79047310D01*
X179472073Y-79220128D01*
X179469088Y-79219083D01*
X179450529Y-79263244D01*
X179392931Y-79302795D01*
X179323094Y-79304927D01*
X179263190Y-79268964D01*
X179248264Y-79249089D01*
X179228467Y-79216341D01*
X179228466Y-79216339D01*
X179226530Y-79213137D01*
X179025048Y-78955964D01*
X178794036Y-78724952D01*
X178536863Y-78523470D01*
X178533663Y-78521536D01*
X178533658Y-78521532D01*
X178260484Y-78356392D01*
X178260477Y-78356388D01*
X178257279Y-78354455D01*
X177959361Y-78220373D01*
X177647453Y-78123179D01*
X177643771Y-78122504D01*
X177643762Y-78122502D01*
X177329792Y-78064965D01*
X177329778Y-78064963D01*
X177326104Y-78064290D01*
X177322372Y-78064064D01*
X177322362Y-78064063D01*
X177003736Y-78044790D01*
X177000000Y-78044564D01*
X176996264Y-78044790D01*
X176677637Y-78064063D01*
X176677625Y-78064064D01*
X176673896Y-78064290D01*
X176670223Y-78064962D01*
X176670207Y-78064965D01*
X176356237Y-78122502D01*
X176356224Y-78122505D01*
X176352547Y-78123179D01*
X176348967Y-78124294D01*
X176348961Y-78124296D01*
X176044216Y-78219258D01*
X176044210Y-78219260D01*
X176040639Y-78220373D01*
X176037230Y-78221907D01*
X176037228Y-78221908D01*
X175746135Y-78352918D01*
X175746128Y-78352921D01*
X175742721Y-78354455D01*
X175739528Y-78356384D01*
X175739515Y-78356392D01*
X175466341Y-78521532D01*
X175466328Y-78521540D01*
X175463137Y-78523470D01*
X175460195Y-78525774D01*
X175460189Y-78525779D01*
X175316073Y-78638687D01*
X175205964Y-78724952D01*
X175203318Y-78727597D01*
X175203310Y-78727605D01*
X174977605Y-78953310D01*
X174977597Y-78953318D01*
X174974952Y-78955964D01*
X174972640Y-78958914D01*
X174972640Y-78958915D01*
X174775779Y-79210189D01*
X174775774Y-79210195D01*
X174773470Y-79213137D01*
X174771540Y-79216328D01*
X174771532Y-79216341D01*
X174606392Y-79489515D01*
X174606384Y-79489528D01*
X174604455Y-79492721D01*
X174602921Y-79496128D01*
X174602918Y-79496135D01*
X174471908Y-79787228D01*
X174470373Y-79790639D01*
X174469260Y-79794210D01*
X174469258Y-79794216D01*
X174400210Y-80015802D01*
X174373179Y-80102547D01*
X174372505Y-80106224D01*
X174372502Y-80106237D01*
X174314965Y-80420207D01*
X174314965Y-80420210D01*
X174314290Y-80423896D01*
X174314064Y-80427625D01*
X174314063Y-80427637D01*
X174301390Y-80637154D01*
X174294564Y-80750000D01*
X174294790Y-80753736D01*
X174314063Y-81072362D01*
X174314064Y-81072372D01*
X174314290Y-81076104D01*
X174314963Y-81079778D01*
X174314965Y-81079792D01*
X174372502Y-81393762D01*
X174372504Y-81393771D01*
X174373179Y-81397453D01*
X174470373Y-81709361D01*
X174604455Y-82007279D01*
X174606388Y-82010477D01*
X174606392Y-82010484D01*
X174771532Y-82283658D01*
X174771536Y-82283663D01*
X174773470Y-82286863D01*
X174974952Y-82544036D01*
X175205964Y-82775048D01*
X175463137Y-82976530D01*
X175466339Y-82978466D01*
X175466341Y-82978467D01*
X175648761Y-83088744D01*
X175742721Y-83145545D01*
X176040639Y-83279627D01*
X176352547Y-83376821D01*
X176673896Y-83435710D01*
X177000000Y-83455436D01*
X177326104Y-83435710D01*
X177647453Y-83376821D01*
X177959361Y-83279627D01*
X178257279Y-83145545D01*
X178536863Y-82976530D01*
X178794036Y-82775048D01*
X179025048Y-82544036D01*
X179226530Y-82286863D01*
X179395545Y-82007279D01*
X179529627Y-81709361D01*
X179626821Y-81397453D01*
X179685710Y-81076104D01*
X179705436Y-80750000D01*
X179685710Y-80423896D01*
X179634261Y-80143146D01*
X179641539Y-80073658D01*
X179685231Y-80019134D01*
X179751464Y-79996888D01*
X179819210Y-80013981D01*
X179822181Y-80015789D01*
X179885310Y-80055456D01*
X180044941Y-80111313D01*
X180093201Y-80116750D01*
X180226884Y-80131814D01*
X180226441Y-80135738D01*
X180270902Y-80143512D01*
X180322297Y-80190844D01*
X180340000Y-80254695D01*
X180340000Y-89714436D01*
X180320315Y-89781475D01*
X180267511Y-89827230D01*
X180198353Y-89837174D01*
X180175047Y-89831478D01*
X180127058Y-89814686D01*
X179959000Y-89795750D01*
X179790943Y-89814686D01*
X179631310Y-89870544D01*
X179488108Y-89960524D01*
X179368524Y-90080108D01*
X179278544Y-90223310D01*
X179222686Y-90382943D01*
X179203750Y-90551000D01*
X179222686Y-90719056D01*
X179222686Y-90719058D01*
X179222687Y-90719059D01*
X179278544Y-90878690D01*
X179368523Y-91021890D01*
X179488110Y-91141477D01*
X179631310Y-91231456D01*
X179790941Y-91287313D01*
X179959000Y-91306249D01*
X180127059Y-91287313D01*
X180175045Y-91270521D01*
X180244824Y-91266960D01*
X180305451Y-91301688D01*
X180337679Y-91363681D01*
X180340000Y-91387563D01*
X180340000Y-93419000D01*
X180320315Y-93486039D01*
X180267511Y-93531794D01*
X180216000Y-93543000D01*
X178516062Y-93543000D01*
X178512604Y-93543389D01*
X178512597Y-93543390D01*
X178378828Y-93558462D01*
X178204836Y-93619344D01*
X178048758Y-93717414D01*
X177933908Y-93832264D01*
X177872585Y-93865748D01*
X177847002Y-93868580D01*
X168792509Y-93925171D01*
X168725348Y-93905905D01*
X168679264Y-93853388D01*
X168675792Y-93845143D01*
X168652518Y-93783774D01*
X168559331Y-93648769D01*
X168436549Y-93539994D01*
X168436547Y-93539993D01*
X168436546Y-93539992D01*
X168291295Y-93463758D01*
X168132021Y-93424500D01*
X167967979Y-93424500D01*
X167808705Y-93463758D01*
X167679074Y-93531794D01*
X167663452Y-93539993D01*
X167543012Y-93646694D01*
X167479779Y-93676415D01*
X167436212Y-93674500D01*
X167432021Y-93674500D01*
X167267979Y-93674500D01*
X167108705Y-93713758D01*
X166986574Y-93777857D01*
X166963450Y-93789994D01*
X166831657Y-93906753D01*
X166768424Y-93936475D01*
X166750205Y-93937936D01*
X160144775Y-93979220D01*
X160077614Y-93959954D01*
X160031530Y-93907437D01*
X160020000Y-93855222D01*
X160020000Y-92710000D01*
X170186750Y-92710000D01*
X170205686Y-92878056D01*
X170205686Y-92878058D01*
X170205687Y-92878059D01*
X170261544Y-93037690D01*
X170351523Y-93180890D01*
X170471110Y-93300477D01*
X170614310Y-93390456D01*
X170773941Y-93446313D01*
X170942000Y-93465249D01*
X171110059Y-93446313D01*
X171269690Y-93390456D01*
X171412890Y-93300477D01*
X171532477Y-93180890D01*
X171622456Y-93037690D01*
X171678313Y-92878059D01*
X171697249Y-92710000D01*
X174250750Y-92710000D01*
X174269686Y-92878056D01*
X174269686Y-92878058D01*
X174269687Y-92878059D01*
X174325544Y-93037690D01*
X174415523Y-93180890D01*
X174535110Y-93300477D01*
X174678310Y-93390456D01*
X174837941Y-93446313D01*
X175006000Y-93465249D01*
X175174059Y-93446313D01*
X175333690Y-93390456D01*
X175476890Y-93300477D01*
X175596477Y-93180890D01*
X175686456Y-93037690D01*
X175742313Y-92878059D01*
X175761249Y-92710000D01*
X175742313Y-92541941D01*
X175686456Y-92382310D01*
X175596477Y-92239110D01*
X175476890Y-92119523D01*
X175333690Y-92029544D01*
X175174059Y-91973687D01*
X175174058Y-91973686D01*
X175174056Y-91973686D01*
X175005999Y-91954750D01*
X174837943Y-91973686D01*
X174678310Y-92029544D01*
X174535108Y-92119524D01*
X174415524Y-92239108D01*
X174325544Y-92382310D01*
X174269686Y-92541943D01*
X174250750Y-92710000D01*
X171697249Y-92710000D01*
X171678313Y-92541941D01*
X171622456Y-92382310D01*
X171532477Y-92239110D01*
X171412890Y-92119523D01*
X171269690Y-92029544D01*
X171110059Y-91973687D01*
X171110058Y-91973686D01*
X171110056Y-91973686D01*
X170941999Y-91954750D01*
X170773943Y-91973686D01*
X170614310Y-92029544D01*
X170471108Y-92119524D01*
X170351524Y-92239108D01*
X170261544Y-92382310D01*
X170205686Y-92541943D01*
X170186750Y-92710000D01*
X160020000Y-92710000D01*
X160020000Y-92305386D01*
X160039685Y-92238347D01*
X160092489Y-92192592D01*
X160157884Y-92182166D01*
X160274000Y-92195249D01*
X160442059Y-92176313D01*
X160601690Y-92120456D01*
X160744890Y-92030477D01*
X160864477Y-91910890D01*
X160920959Y-91821000D01*
X163455750Y-91821000D01*
X163474686Y-91989056D01*
X163474686Y-91989058D01*
X163474687Y-91989059D01*
X163530544Y-92148690D01*
X163620523Y-92291890D01*
X163740110Y-92411477D01*
X163883310Y-92501456D01*
X164042941Y-92557313D01*
X164211000Y-92576249D01*
X164379059Y-92557313D01*
X164538690Y-92501456D01*
X164681890Y-92411477D01*
X164801477Y-92291890D01*
X164891456Y-92148690D01*
X164947313Y-91989059D01*
X164966249Y-91821000D01*
X164947313Y-91652941D01*
X164891456Y-91493310D01*
X164801477Y-91350110D01*
X164681890Y-91230523D01*
X164538690Y-91140544D01*
X164379059Y-91084687D01*
X164379058Y-91084686D01*
X164379056Y-91084686D01*
X164211000Y-91065750D01*
X164042943Y-91084686D01*
X163883310Y-91140544D01*
X163740108Y-91230524D01*
X163620524Y-91350108D01*
X163530544Y-91493310D01*
X163474686Y-91652943D01*
X163455750Y-91821000D01*
X160920959Y-91821000D01*
X160954456Y-91767690D01*
X161010313Y-91608059D01*
X161029249Y-91440000D01*
X161010313Y-91271941D01*
X160954456Y-91112310D01*
X160954455Y-91112309D01*
X160950132Y-91099953D01*
X160946571Y-91030174D01*
X160950132Y-91018044D01*
X160954453Y-91005694D01*
X160954456Y-91005690D01*
X161010313Y-90846059D01*
X161029249Y-90678000D01*
X161010313Y-90509941D01*
X160954456Y-90350310D01*
X160864477Y-90207110D01*
X160744890Y-90087523D01*
X160601690Y-89997544D01*
X160442059Y-89941687D01*
X160442058Y-89941686D01*
X160442056Y-89941686D01*
X160273999Y-89922750D01*
X160157883Y-89935833D01*
X160089061Y-89923778D01*
X160037682Y-89876429D01*
X160020000Y-89812613D01*
X160020000Y-89153999D01*
X164466750Y-89153999D01*
X164485686Y-89322056D01*
X164485686Y-89322058D01*
X164485687Y-89322059D01*
X164541544Y-89481690D01*
X164631523Y-89624890D01*
X164751110Y-89744477D01*
X164894310Y-89834456D01*
X165053941Y-89890313D01*
X165164197Y-89902736D01*
X165228611Y-89929802D01*
X165268167Y-89987397D01*
X165270304Y-90057234D01*
X165237996Y-90113637D01*
X165144523Y-90207110D01*
X165054544Y-90350310D01*
X164998686Y-90509943D01*
X164979750Y-90677999D01*
X164998686Y-90846056D01*
X164998686Y-90846058D01*
X164998687Y-90846059D01*
X165054544Y-91005690D01*
X165144523Y-91148890D01*
X165264110Y-91268477D01*
X165407310Y-91358456D01*
X165566941Y-91414313D01*
X165735000Y-91433249D01*
X165903059Y-91414313D01*
X166062690Y-91358456D01*
X166205890Y-91268477D01*
X166325477Y-91148890D01*
X166415456Y-91005690D01*
X166471313Y-90846059D01*
X166475939Y-90804999D01*
X171710750Y-90804999D01*
X171729686Y-90973056D01*
X171729686Y-90973058D01*
X171729687Y-90973059D01*
X171785544Y-91132690D01*
X171875523Y-91275890D01*
X171995110Y-91395477D01*
X172138310Y-91485456D01*
X172297941Y-91541313D01*
X172409980Y-91553936D01*
X172465999Y-91560249D01*
X172465999Y-91560248D01*
X172466000Y-91560249D01*
X172634059Y-91541313D01*
X172759707Y-91497346D01*
X172829484Y-91493786D01*
X172871033Y-91517026D01*
X172872280Y-91515043D01*
X172884108Y-91522475D01*
X172884110Y-91522477D01*
X173027310Y-91612456D01*
X173186941Y-91668313D01*
X173298980Y-91680936D01*
X173354999Y-91687249D01*
X173354999Y-91687248D01*
X173355000Y-91687249D01*
X173523059Y-91668313D01*
X173682690Y-91612456D01*
X173825890Y-91522477D01*
X173945477Y-91402890D01*
X174035456Y-91259690D01*
X174091313Y-91100059D01*
X174110249Y-90932000D01*
X174091313Y-90763941D01*
X174035456Y-90604310D01*
X173945477Y-90461110D01*
X173825890Y-90341523D01*
X173682690Y-90251544D01*
X173523059Y-90195687D01*
X173523058Y-90195686D01*
X173523056Y-90195686D01*
X173355000Y-90176750D01*
X173186945Y-90195686D01*
X173186942Y-90195686D01*
X173186941Y-90195687D01*
X173061292Y-90239653D01*
X172991516Y-90243214D01*
X172949966Y-90219973D01*
X172948720Y-90221957D01*
X172936891Y-90214524D01*
X172936890Y-90214523D01*
X172793690Y-90124544D01*
X172634059Y-90068687D01*
X172634058Y-90068686D01*
X172634056Y-90068686D01*
X172466000Y-90049750D01*
X172297943Y-90068686D01*
X172138310Y-90124544D01*
X171995108Y-90214524D01*
X171875524Y-90334108D01*
X171785544Y-90477310D01*
X171729686Y-90636943D01*
X171710750Y-90804999D01*
X166475939Y-90804999D01*
X166490249Y-90678000D01*
X166471313Y-90509941D01*
X166415456Y-90350310D01*
X166325477Y-90207110D01*
X166205890Y-90087523D01*
X166062690Y-89997544D01*
X165903059Y-89941687D01*
X165903058Y-89941686D01*
X165903056Y-89941686D01*
X165792801Y-89929263D01*
X165728387Y-89902196D01*
X165688832Y-89844601D01*
X165686695Y-89774764D01*
X165719001Y-89718365D01*
X165812477Y-89624890D01*
X165868959Y-89535000D01*
X173742750Y-89535000D01*
X173761686Y-89703056D01*
X173761686Y-89703058D01*
X173761687Y-89703059D01*
X173817544Y-89862690D01*
X173907523Y-90005890D01*
X174027110Y-90125477D01*
X174170310Y-90215456D01*
X174329941Y-90271313D01*
X174498000Y-90290249D01*
X174666059Y-90271313D01*
X174825690Y-90215456D01*
X174968890Y-90125477D01*
X175088477Y-90005890D01*
X175178456Y-89862690D01*
X175234313Y-89703059D01*
X175253249Y-89535000D01*
X175234313Y-89366941D01*
X175178456Y-89207310D01*
X175088477Y-89064110D01*
X174968890Y-88944523D01*
X174825690Y-88854544D01*
X174666059Y-88798687D01*
X174666058Y-88798686D01*
X174666056Y-88798686D01*
X174497999Y-88779750D01*
X174329943Y-88798686D01*
X174170310Y-88854544D01*
X174027108Y-88944524D01*
X173907524Y-89064108D01*
X173817544Y-89207310D01*
X173761686Y-89366943D01*
X173742750Y-89535000D01*
X165868959Y-89535000D01*
X165902456Y-89481690D01*
X165937761Y-89380792D01*
X165978480Y-89324019D01*
X166043432Y-89298271D01*
X166111994Y-89311727D01*
X166112321Y-89311897D01*
X166158705Y-89336242D01*
X166317979Y-89375500D01*
X166317980Y-89375500D01*
X166482020Y-89375500D01*
X166482021Y-89375500D01*
X166641295Y-89336242D01*
X166786546Y-89260008D01*
X166909332Y-89151229D01*
X167002518Y-89016226D01*
X167040428Y-88916265D01*
X167082604Y-88860564D01*
X167126694Y-88839840D01*
X167141295Y-88836242D01*
X167286546Y-88760008D01*
X167409332Y-88651229D01*
X167502518Y-88516226D01*
X167560688Y-88362845D01*
X167573663Y-88255983D01*
X167601285Y-88191806D01*
X167639130Y-88161135D01*
X167736546Y-88110008D01*
X167859332Y-88001229D01*
X167952518Y-87866226D01*
X168006190Y-87724704D01*
X168048368Y-87669002D01*
X168092458Y-87648279D01*
X168096988Y-87647162D01*
X168141295Y-87636242D01*
X168286546Y-87560008D01*
X168409332Y-87451229D01*
X168502518Y-87316226D01*
X168560688Y-87162845D01*
X168580461Y-87000000D01*
X168560688Y-86837155D01*
X168502518Y-86683774D01*
X168502518Y-86683773D01*
X168409331Y-86548769D01*
X168286549Y-86439994D01*
X168286547Y-86439993D01*
X168286546Y-86439992D01*
X168141295Y-86363758D01*
X167982021Y-86324500D01*
X167817979Y-86324500D01*
X167658705Y-86363758D01*
X167536574Y-86427857D01*
X167513450Y-86439994D01*
X167390668Y-86548769D01*
X167297481Y-86683774D01*
X167243810Y-86825294D01*
X167201632Y-86880997D01*
X167157545Y-86901719D01*
X167108709Y-86913756D01*
X166963450Y-86989994D01*
X166840668Y-87098769D01*
X166747481Y-87233774D01*
X166689312Y-87387154D01*
X166676336Y-87494016D01*
X166648714Y-87558194D01*
X166610867Y-87588865D01*
X166513451Y-87639993D01*
X166390668Y-87748769D01*
X166297482Y-87883773D01*
X166259571Y-87983734D01*
X166217392Y-88039437D01*
X166173309Y-88060158D01*
X166158703Y-88063758D01*
X166013453Y-88139992D01*
X165890668Y-88248769D01*
X165797480Y-88383775D01*
X165775998Y-88440419D01*
X165733820Y-88496121D01*
X165668222Y-88520177D01*
X165600032Y-88504949D01*
X165594084Y-88501439D01*
X165549691Y-88473544D01*
X165390056Y-88417686D01*
X165222000Y-88398750D01*
X165053943Y-88417686D01*
X164894310Y-88473544D01*
X164751108Y-88563524D01*
X164631524Y-88683108D01*
X164541544Y-88826310D01*
X164485686Y-88985943D01*
X164466750Y-89153999D01*
X160020000Y-89153999D01*
X160020000Y-87480061D01*
X160039685Y-87413022D01*
X160092489Y-87367267D01*
X160130115Y-87356841D01*
X160188059Y-87350313D01*
X160347690Y-87294456D01*
X160490890Y-87204477D01*
X160610477Y-87084890D01*
X160700456Y-86941690D01*
X160756313Y-86782059D01*
X160775249Y-86614000D01*
X160756313Y-86445941D01*
X160700456Y-86286310D01*
X160610477Y-86143110D01*
X160490890Y-86023523D01*
X160347690Y-85933544D01*
X160188059Y-85877687D01*
X160188058Y-85877686D01*
X160188056Y-85877686D01*
X160130116Y-85871158D01*
X160065702Y-85844091D01*
X160026147Y-85786496D01*
X160020000Y-85747938D01*
X160020000Y-85674200D01*
X164713550Y-85674200D01*
X164732486Y-85842256D01*
X164732486Y-85842258D01*
X164732487Y-85842259D01*
X164788344Y-86001890D01*
X164878323Y-86145090D01*
X164997910Y-86264677D01*
X165141110Y-86354656D01*
X165300741Y-86410513D01*
X165468800Y-86429449D01*
X165636859Y-86410513D01*
X165796490Y-86354656D01*
X165939690Y-86264677D01*
X166059277Y-86145090D01*
X166149256Y-86001890D01*
X166205113Y-85842259D01*
X166224049Y-85674200D01*
X166205113Y-85506141D01*
X166149256Y-85346510D01*
X166059277Y-85203310D01*
X165939690Y-85083723D01*
X165796490Y-84993744D01*
X165636859Y-84937887D01*
X165636858Y-84937886D01*
X165636856Y-84937886D01*
X165468800Y-84918950D01*
X165300743Y-84937886D01*
X165141110Y-84993744D01*
X164997908Y-85083724D01*
X164878324Y-85203308D01*
X164788344Y-85346510D01*
X164732486Y-85506143D01*
X164713550Y-85674200D01*
X160020000Y-85674200D01*
X160020000Y-83515199D01*
X162895538Y-83515199D01*
X162915312Y-83678045D01*
X162973481Y-83831425D01*
X163066668Y-83966430D01*
X163189450Y-84075205D01*
X163189451Y-84075205D01*
X163189454Y-84075208D01*
X163334705Y-84151442D01*
X163493979Y-84190700D01*
X163493980Y-84190700D01*
X163658020Y-84190700D01*
X163658021Y-84190700D01*
X163817295Y-84151442D01*
X163962546Y-84075208D01*
X164085332Y-83966429D01*
X164178518Y-83831426D01*
X164202117Y-83769200D01*
X164725750Y-83769200D01*
X164744686Y-83937256D01*
X164744686Y-83937258D01*
X164744687Y-83937259D01*
X164800544Y-84096890D01*
X164890523Y-84240090D01*
X165010110Y-84359677D01*
X165153310Y-84449656D01*
X165312941Y-84505513D01*
X165481000Y-84524449D01*
X165649059Y-84505513D01*
X165808690Y-84449656D01*
X165951890Y-84359677D01*
X166071477Y-84240090D01*
X166161456Y-84096890D01*
X166217313Y-83937259D01*
X166236249Y-83769200D01*
X166217313Y-83601141D01*
X166161456Y-83441510D01*
X166071477Y-83298310D01*
X165951890Y-83178723D01*
X165808690Y-83088744D01*
X165649059Y-83032887D01*
X165649058Y-83032886D01*
X165649056Y-83032886D01*
X165481000Y-83013950D01*
X165312943Y-83032886D01*
X165153310Y-83088744D01*
X165010108Y-83178724D01*
X164890524Y-83298308D01*
X164800544Y-83441510D01*
X164744686Y-83601143D01*
X164725750Y-83769200D01*
X164202117Y-83769200D01*
X164236688Y-83678045D01*
X164256461Y-83515200D01*
X164236688Y-83352355D01*
X164178518Y-83198974D01*
X164085332Y-83063971D01*
X164085331Y-83063969D01*
X163962549Y-82955194D01*
X163962547Y-82955193D01*
X163962546Y-82955192D01*
X163817295Y-82878958D01*
X163658021Y-82839700D01*
X163493979Y-82839700D01*
X163334705Y-82878958D01*
X163212574Y-82943057D01*
X163189450Y-82955194D01*
X163066668Y-83063969D01*
X162973481Y-83198974D01*
X162915312Y-83352354D01*
X162895538Y-83515199D01*
X160020000Y-83515199D01*
X160020000Y-81150000D01*
X160519538Y-81150000D01*
X160539312Y-81312845D01*
X160597481Y-81466225D01*
X160690668Y-81601230D01*
X160813450Y-81710005D01*
X160813451Y-81710005D01*
X160813454Y-81710008D01*
X160958705Y-81786242D01*
X161117979Y-81825500D01*
X161117980Y-81825500D01*
X161282020Y-81825500D01*
X161282021Y-81825500D01*
X161441295Y-81786242D01*
X161586546Y-81710008D01*
X161709332Y-81601229D01*
X161779205Y-81500000D01*
X168469538Y-81500000D01*
X168489312Y-81662845D01*
X168547481Y-81816225D01*
X168640668Y-81951230D01*
X168763450Y-82060005D01*
X168763451Y-82060005D01*
X168763454Y-82060008D01*
X168908705Y-82136242D01*
X169067979Y-82175500D01*
X169067980Y-82175500D01*
X169232020Y-82175500D01*
X169232021Y-82175500D01*
X169391295Y-82136242D01*
X169536546Y-82060008D01*
X169659332Y-81951229D01*
X169752518Y-81816226D01*
X169810688Y-81662845D01*
X169830461Y-81500000D01*
X169810688Y-81337155D01*
X169756385Y-81193970D01*
X169751018Y-81124307D01*
X169756381Y-81106038D01*
X169810688Y-80962845D01*
X169830461Y-80800000D01*
X169810688Y-80637155D01*
X169752518Y-80483774D01*
X169746117Y-80474500D01*
X169659331Y-80348769D01*
X169536549Y-80239994D01*
X169536547Y-80239993D01*
X169536546Y-80239992D01*
X169391295Y-80163758D01*
X169232021Y-80124500D01*
X169067979Y-80124500D01*
X168908705Y-80163758D01*
X168786574Y-80227857D01*
X168763450Y-80239994D01*
X168640668Y-80348769D01*
X168547481Y-80483774D01*
X168489312Y-80637154D01*
X168469538Y-80800000D01*
X168489312Y-80962845D01*
X168543614Y-81106029D01*
X168548981Y-81175693D01*
X168543614Y-81193971D01*
X168489312Y-81337154D01*
X168469538Y-81500000D01*
X161779205Y-81500000D01*
X161802518Y-81466226D01*
X161860688Y-81312845D01*
X161880461Y-81150000D01*
X161860688Y-80987155D01*
X161802518Y-80833774D01*
X161802517Y-80833773D01*
X161709331Y-80698769D01*
X161586549Y-80589994D01*
X161586547Y-80589993D01*
X161586546Y-80589992D01*
X161441295Y-80513758D01*
X161282021Y-80474500D01*
X161117979Y-80474500D01*
X160958705Y-80513758D01*
X160836574Y-80577857D01*
X160813450Y-80589994D01*
X160690668Y-80698769D01*
X160597481Y-80833774D01*
X160539312Y-80987154D01*
X160519538Y-81150000D01*
X160020000Y-81150000D01*
X160020000Y-75949500D01*
X160039685Y-75882461D01*
X160092489Y-75836706D01*
X160144000Y-75825500D01*
X180216000Y-75825500D01*
X180283039Y-75845185D01*
G37*
%TD.AperFunction*%
%TD*%
%TA.AperFunction,Conductor*%
%TO.N,+5V*%
G36*
X159457539Y-75845185D02*
G01*
X159503294Y-75897989D01*
X159514500Y-75949500D01*
X159514500Y-81149999D01*
X159514500Y-81499999D01*
X159514500Y-83515199D01*
X159514500Y-83769197D01*
X159514500Y-85674197D01*
X159514500Y-85747938D01*
X159514691Y-85750353D01*
X159514692Y-85750370D01*
X159520610Y-85825072D01*
X159520804Y-85827521D01*
X159521189Y-85829937D01*
X159521190Y-85829944D01*
X159526566Y-85863668D01*
X159526569Y-85863683D01*
X159526951Y-85866079D01*
X159527523Y-85868449D01*
X159527526Y-85868460D01*
X159545566Y-85943105D01*
X159542181Y-86012893D01*
X159512718Y-86059915D01*
X159429523Y-86143110D01*
X159339544Y-86286310D01*
X159283686Y-86445943D01*
X159264750Y-86614000D01*
X159283686Y-86782056D01*
X159283686Y-86782058D01*
X159283687Y-86782059D01*
X159339544Y-86941690D01*
X159426187Y-87079581D01*
X159429524Y-87084891D01*
X159516386Y-87171753D01*
X159549871Y-87233076D01*
X159547683Y-87294368D01*
X159534977Y-87337641D01*
X159534976Y-87337645D01*
X159534527Y-87340767D01*
X159534524Y-87340783D01*
X159514500Y-87480061D01*
X159514500Y-89411000D01*
X159494815Y-89478039D01*
X159442011Y-89523794D01*
X159390500Y-89535000D01*
X155375756Y-89535000D01*
X155309785Y-89515994D01*
X155267690Y-89489544D01*
X155108059Y-89433687D01*
X155108058Y-89433686D01*
X155108056Y-89433686D01*
X154939999Y-89414750D01*
X154771943Y-89433686D01*
X154639194Y-89480137D01*
X154612310Y-89489544D01*
X154570214Y-89515994D01*
X154504244Y-89535000D01*
X146174000Y-89535000D01*
X146106961Y-89515315D01*
X146061206Y-89462511D01*
X146050000Y-89411000D01*
X146050000Y-88750061D01*
X146069685Y-88683022D01*
X146122489Y-88637267D01*
X146160115Y-88626841D01*
X146218059Y-88620313D01*
X146377690Y-88564456D01*
X146520890Y-88474477D01*
X146640477Y-88354890D01*
X146730456Y-88211690D01*
X146786313Y-88052059D01*
X146805249Y-87884000D01*
X146796663Y-87807800D01*
X150501750Y-87807800D01*
X150520686Y-87975856D01*
X150520686Y-87975858D01*
X150520687Y-87975859D01*
X150576544Y-88135490D01*
X150666523Y-88278690D01*
X150786110Y-88398277D01*
X150929310Y-88488256D01*
X151088941Y-88544113D01*
X151257000Y-88563049D01*
X151425059Y-88544113D01*
X151584690Y-88488256D01*
X151727890Y-88398277D01*
X151847477Y-88278690D01*
X151937456Y-88135490D01*
X151993313Y-87975859D01*
X152012249Y-87807800D01*
X151993313Y-87639741D01*
X151937456Y-87480110D01*
X151847477Y-87336910D01*
X151727890Y-87217323D01*
X151584690Y-87127344D01*
X151425059Y-87071487D01*
X151425058Y-87071486D01*
X151425056Y-87071486D01*
X151257000Y-87052550D01*
X151088943Y-87071486D01*
X150929310Y-87127344D01*
X150786108Y-87217324D01*
X150666524Y-87336908D01*
X150576544Y-87480110D01*
X150520686Y-87639743D01*
X150501750Y-87807800D01*
X146796663Y-87807800D01*
X146786313Y-87715941D01*
X146730456Y-87556310D01*
X146730454Y-87556308D01*
X146726132Y-87543954D01*
X146722571Y-87474176D01*
X146726132Y-87462046D01*
X146730454Y-87449691D01*
X146730456Y-87449690D01*
X146786313Y-87290059D01*
X146805249Y-87122000D01*
X146786313Y-86953941D01*
X146730456Y-86794310D01*
X146730455Y-86794309D01*
X146726132Y-86781953D01*
X146722571Y-86712174D01*
X146726132Y-86700044D01*
X146730453Y-86687694D01*
X146730456Y-86687690D01*
X146786313Y-86528059D01*
X146805249Y-86360000D01*
X146786313Y-86191941D01*
X146730456Y-86032310D01*
X146640477Y-85889110D01*
X146520890Y-85769523D01*
X146377690Y-85679544D01*
X146218059Y-85623687D01*
X146218058Y-85623686D01*
X146218056Y-85623686D01*
X146160116Y-85617158D01*
X146095702Y-85590091D01*
X146056147Y-85532496D01*
X146050000Y-85493938D01*
X146050000Y-85064600D01*
X146049999Y-85064599D01*
X145528300Y-85065286D01*
X145461235Y-85045690D01*
X145415411Y-84992946D01*
X145414826Y-84988915D01*
X145388506Y-85032765D01*
X145325868Y-85063720D01*
X145304637Y-85065580D01*
X127199663Y-85089401D01*
X127132598Y-85069805D01*
X127086774Y-85017061D01*
X127075500Y-84965401D01*
X127075500Y-84074000D01*
X144659750Y-84074000D01*
X144678686Y-84242056D01*
X144678686Y-84242058D01*
X144678687Y-84242059D01*
X144734544Y-84401690D01*
X144824523Y-84544890D01*
X144944110Y-84664477D01*
X145087310Y-84754456D01*
X145246941Y-84810313D01*
X145294954Y-84815722D01*
X145318358Y-84818360D01*
X145382772Y-84845427D01*
X145417819Y-84896457D01*
X145434317Y-84860207D01*
X145493046Y-84822355D01*
X145514253Y-84818066D01*
X145546804Y-84814397D01*
X145583059Y-84810313D01*
X145742690Y-84754456D01*
X145885890Y-84664477D01*
X146005477Y-84544890D01*
X146095456Y-84401690D01*
X146151313Y-84242059D01*
X146170249Y-84074000D01*
X146151313Y-83905941D01*
X146095456Y-83746310D01*
X146005477Y-83603110D01*
X145885890Y-83483523D01*
X145742690Y-83393544D01*
X145583059Y-83337687D01*
X145583058Y-83337686D01*
X145583056Y-83337686D01*
X145415000Y-83318750D01*
X145246943Y-83337686D01*
X145087310Y-83393544D01*
X144944108Y-83483524D01*
X144824524Y-83603108D01*
X144734544Y-83746310D01*
X144678686Y-83905943D01*
X144659750Y-84074000D01*
X127075500Y-84074000D01*
X127075500Y-80750000D01*
X129294564Y-80750000D01*
X129294790Y-80753736D01*
X129314063Y-81072362D01*
X129314064Y-81072372D01*
X129314290Y-81076104D01*
X129314963Y-81079778D01*
X129314965Y-81079792D01*
X129372502Y-81393762D01*
X129372504Y-81393771D01*
X129373179Y-81397453D01*
X129374295Y-81401036D01*
X129374296Y-81401038D01*
X129458108Y-81670000D01*
X129470373Y-81709361D01*
X129604455Y-82007279D01*
X129606388Y-82010477D01*
X129606392Y-82010484D01*
X129771532Y-82283658D01*
X129771536Y-82283663D01*
X129773470Y-82286863D01*
X129974952Y-82544036D01*
X130205964Y-82775048D01*
X130463137Y-82976530D01*
X130742721Y-83145545D01*
X131040639Y-83279627D01*
X131352547Y-83376821D01*
X131673896Y-83435710D01*
X132000000Y-83455436D01*
X132326104Y-83435710D01*
X132647453Y-83376821D01*
X132959361Y-83279627D01*
X133257279Y-83145545D01*
X133536863Y-82976530D01*
X133794036Y-82775048D01*
X134025048Y-82544036D01*
X134226530Y-82286863D01*
X134374555Y-82042000D01*
X144659750Y-82042000D01*
X144678686Y-82210056D01*
X144678686Y-82210058D01*
X144678687Y-82210059D01*
X144734544Y-82369690D01*
X144824523Y-82512890D01*
X144944110Y-82632477D01*
X145087310Y-82722456D01*
X145246941Y-82778313D01*
X145415000Y-82797249D01*
X145583059Y-82778313D01*
X145742690Y-82722456D01*
X145885890Y-82632477D01*
X146005477Y-82512890D01*
X146095456Y-82369690D01*
X146151313Y-82210059D01*
X146170249Y-82042000D01*
X146151313Y-81873941D01*
X146095456Y-81714310D01*
X146005477Y-81571110D01*
X145885890Y-81451523D01*
X145742690Y-81361544D01*
X145583059Y-81305687D01*
X145583058Y-81305686D01*
X145583056Y-81305686D01*
X145415000Y-81286750D01*
X145246943Y-81305686D01*
X145087310Y-81361544D01*
X144944108Y-81451524D01*
X144824524Y-81571108D01*
X144734544Y-81714310D01*
X144678686Y-81873943D01*
X144659750Y-82042000D01*
X134374555Y-82042000D01*
X134395545Y-82007279D01*
X134529627Y-81709361D01*
X134626821Y-81397453D01*
X134676750Y-81125000D01*
X148882858Y-81125000D01*
X148906569Y-81213491D01*
X149006399Y-81427576D01*
X149141893Y-81621081D01*
X149308918Y-81788106D01*
X149502423Y-81923600D01*
X149716508Y-82023430D01*
X149804999Y-82047141D01*
X149805000Y-82047141D01*
X149805000Y-81125000D01*
X148882858Y-81125000D01*
X134676750Y-81125000D01*
X134685710Y-81076104D01*
X134701087Y-80821889D01*
X149680000Y-80821889D01*
X149720507Y-80959844D01*
X149798239Y-81080798D01*
X149906900Y-81174952D01*
X150037685Y-81234680D01*
X150144237Y-81250000D01*
X150215763Y-81250000D01*
X150322315Y-81234680D01*
X150453100Y-81174952D01*
X150555000Y-81086656D01*
X150555000Y-82047141D01*
X150643491Y-82023430D01*
X150857576Y-81923600D01*
X151051081Y-81788106D01*
X151218109Y-81621078D01*
X151348119Y-81435405D01*
X151402696Y-81391780D01*
X151472194Y-81384586D01*
X151534549Y-81416109D01*
X151551265Y-81435400D01*
X151681505Y-81621401D01*
X151848599Y-81788495D01*
X152042170Y-81924035D01*
X152256337Y-82023903D01*
X152484592Y-82085062D01*
X152484592Y-82085063D01*
X152719999Y-82105659D01*
X152719999Y-82105658D01*
X152720000Y-82105659D01*
X152955408Y-82085063D01*
X153183663Y-82023903D01*
X153397830Y-81924035D01*
X153591401Y-81788495D01*
X153758495Y-81621401D01*
X153888426Y-81435839D01*
X153943002Y-81392216D01*
X154012500Y-81385022D01*
X154074855Y-81416545D01*
X154091571Y-81435837D01*
X154221505Y-81621401D01*
X154388599Y-81788495D01*
X154582170Y-81924035D01*
X154796337Y-82023903D01*
X155024592Y-82085062D01*
X155024592Y-82085063D01*
X155259999Y-82105659D01*
X155259999Y-82105658D01*
X155260000Y-82105659D01*
X155495408Y-82085063D01*
X155723663Y-82023903D01*
X155937830Y-81924035D01*
X156131401Y-81788495D01*
X156253329Y-81666566D01*
X156314648Y-81633084D01*
X156384340Y-81638068D01*
X156440274Y-81679939D01*
X156457189Y-81710916D01*
X156506204Y-81842331D01*
X156592454Y-81957546D01*
X156707669Y-82043796D01*
X156842517Y-82094091D01*
X156902127Y-82100500D01*
X158697872Y-82100499D01*
X158757483Y-82094091D01*
X158892331Y-82043796D01*
X159007546Y-81957546D01*
X159093796Y-81842331D01*
X159144091Y-81707483D01*
X159150500Y-81647873D01*
X159150499Y-79852128D01*
X159144091Y-79792517D01*
X159093796Y-79657669D01*
X159007546Y-79542454D01*
X158892331Y-79456204D01*
X158757483Y-79405909D01*
X158697873Y-79399500D01*
X158694550Y-79399500D01*
X156905439Y-79399500D01*
X156905420Y-79399500D01*
X156902128Y-79399501D01*
X156898848Y-79399853D01*
X156898840Y-79399854D01*
X156842515Y-79405909D01*
X156707669Y-79456204D01*
X156592454Y-79542454D01*
X156506204Y-79657669D01*
X156457189Y-79789083D01*
X156415317Y-79845016D01*
X156349852Y-79869433D01*
X156281580Y-79854581D01*
X156253326Y-79833430D01*
X156131404Y-79711508D01*
X156131401Y-79711505D01*
X155937830Y-79575965D01*
X155723663Y-79476097D01*
X155660199Y-79459092D01*
X155495407Y-79414936D01*
X155259999Y-79394340D01*
X155024592Y-79414936D01*
X154796336Y-79476097D01*
X154582170Y-79575965D01*
X154388598Y-79711505D01*
X154221505Y-79878598D01*
X154091575Y-80064159D01*
X154036998Y-80107784D01*
X153967500Y-80114978D01*
X153905145Y-80083455D01*
X153888425Y-80064159D01*
X153873449Y-80042771D01*
X153758495Y-79878599D01*
X153591401Y-79711505D01*
X153397830Y-79575965D01*
X153183663Y-79476097D01*
X153120199Y-79459092D01*
X152955407Y-79414936D01*
X152720000Y-79394340D01*
X152484592Y-79414936D01*
X152256336Y-79476097D01*
X152042170Y-79575965D01*
X151848598Y-79711505D01*
X151681508Y-79878595D01*
X151551269Y-80064596D01*
X151496692Y-80108220D01*
X151427193Y-80115413D01*
X151364839Y-80083891D01*
X151348119Y-80064595D01*
X151218109Y-79878921D01*
X151051081Y-79711893D01*
X150857576Y-79576399D01*
X150643493Y-79476570D01*
X150555000Y-79452857D01*
X150555000Y-80413343D01*
X150453100Y-80325048D01*
X150322315Y-80265320D01*
X150215763Y-80250000D01*
X150144237Y-80250000D01*
X150037685Y-80265320D01*
X149906900Y-80325048D01*
X149798239Y-80419202D01*
X149720507Y-80540156D01*
X149680000Y-80678111D01*
X149680000Y-80821889D01*
X134701087Y-80821889D01*
X134705436Y-80750000D01*
X134685710Y-80423896D01*
X134676750Y-80375000D01*
X148882858Y-80375000D01*
X149805000Y-80375000D01*
X149805000Y-79452857D01*
X149716506Y-79476570D01*
X149502421Y-79576400D01*
X149308921Y-79711890D01*
X149141890Y-79878921D01*
X149006400Y-80072421D01*
X148906569Y-80286507D01*
X148882858Y-80374999D01*
X148882858Y-80375000D01*
X134676750Y-80375000D01*
X134626821Y-80102547D01*
X134529627Y-79790639D01*
X134395545Y-79492721D01*
X134385781Y-79476570D01*
X134228467Y-79216341D01*
X134228466Y-79216339D01*
X134226530Y-79213137D01*
X134025048Y-78955964D01*
X133794036Y-78724952D01*
X133536863Y-78523470D01*
X133533663Y-78521536D01*
X133533658Y-78521532D01*
X133260484Y-78356392D01*
X133260477Y-78356388D01*
X133257279Y-78354455D01*
X132959361Y-78220373D01*
X132647453Y-78123179D01*
X132643771Y-78122504D01*
X132643762Y-78122502D01*
X132329792Y-78064965D01*
X132329778Y-78064963D01*
X132326104Y-78064290D01*
X132322372Y-78064064D01*
X132322362Y-78064063D01*
X132003736Y-78044790D01*
X132000000Y-78044564D01*
X131996264Y-78044790D01*
X131677637Y-78064063D01*
X131677625Y-78064064D01*
X131673896Y-78064290D01*
X131670223Y-78064962D01*
X131670207Y-78064965D01*
X131356237Y-78122502D01*
X131356224Y-78122505D01*
X131352547Y-78123179D01*
X131348967Y-78124294D01*
X131348961Y-78124296D01*
X131044216Y-78219258D01*
X131044210Y-78219260D01*
X131040639Y-78220373D01*
X131037230Y-78221907D01*
X131037228Y-78221908D01*
X130746135Y-78352918D01*
X130746128Y-78352921D01*
X130742721Y-78354455D01*
X130739528Y-78356384D01*
X130739515Y-78356392D01*
X130466341Y-78521532D01*
X130466328Y-78521540D01*
X130463137Y-78523470D01*
X130460195Y-78525774D01*
X130460189Y-78525779D01*
X130317302Y-78637724D01*
X130205964Y-78724952D01*
X130203318Y-78727597D01*
X130203310Y-78727605D01*
X129977605Y-78953310D01*
X129977597Y-78953318D01*
X129974952Y-78955964D01*
X129972640Y-78958914D01*
X129972640Y-78958915D01*
X129775779Y-79210189D01*
X129775774Y-79210195D01*
X129773470Y-79213137D01*
X129771540Y-79216328D01*
X129771532Y-79216341D01*
X129606392Y-79489515D01*
X129606384Y-79489528D01*
X129604455Y-79492721D01*
X129602921Y-79496128D01*
X129602918Y-79496135D01*
X129498533Y-79728069D01*
X129470373Y-79790639D01*
X129469260Y-79794210D01*
X129469258Y-79794216D01*
X129382567Y-80072421D01*
X129373179Y-80102547D01*
X129372505Y-80106224D01*
X129372502Y-80106237D01*
X129314965Y-80420207D01*
X129314962Y-80420223D01*
X129314290Y-80423896D01*
X129314064Y-80427625D01*
X129314063Y-80427637D01*
X129296353Y-80720419D01*
X129294564Y-80750000D01*
X127075500Y-80750000D01*
X127075500Y-78753479D01*
X127075695Y-78746526D01*
X127081805Y-78637724D01*
X127093499Y-78429499D01*
X127095053Y-78415705D01*
X127147657Y-78106100D01*
X127150750Y-78092548D01*
X127158957Y-78064063D01*
X127237687Y-77790783D01*
X127242279Y-77777662D01*
X127296680Y-77646327D01*
X127362457Y-77487527D01*
X127368477Y-77475027D01*
X127520399Y-77200142D01*
X127527776Y-77188403D01*
X127709510Y-76932274D01*
X127718156Y-76921431D01*
X127927435Y-76687247D01*
X127937247Y-76677435D01*
X128171431Y-76468156D01*
X128182274Y-76459510D01*
X128438403Y-76277776D01*
X128450142Y-76270399D01*
X128725027Y-76118477D01*
X128737527Y-76112457D01*
X129027666Y-75992277D01*
X129040783Y-75987687D01*
X129342553Y-75900748D01*
X129356100Y-75897657D01*
X129665705Y-75845053D01*
X129679499Y-75843499D01*
X129996527Y-75825695D01*
X130003481Y-75825500D01*
X130024531Y-75825500D01*
X159390500Y-75825500D01*
X159457539Y-75845185D01*
G37*
%TD.AperFunction*%
%TD*%
%TA.AperFunction,Conductor*%
%TO.N,/Vsys*%
G36*
X145456776Y-85560502D02*
G01*
X145464331Y-85561579D01*
X145527925Y-85590521D01*
X145565776Y-85649249D01*
X145567375Y-85655212D01*
X145575566Y-85689106D01*
X145572180Y-85758894D01*
X145542718Y-85805915D01*
X145459523Y-85889110D01*
X145369544Y-86032310D01*
X145313686Y-86191943D01*
X145294750Y-86360000D01*
X145313686Y-86528056D01*
X145373867Y-86700046D01*
X145377428Y-86769825D01*
X145373867Y-86781954D01*
X145313686Y-86953943D01*
X145294750Y-87122000D01*
X145313686Y-87290056D01*
X145373867Y-87462046D01*
X145377428Y-87531825D01*
X145373867Y-87543954D01*
X145313686Y-87715943D01*
X145294750Y-87884000D01*
X145313686Y-88052056D01*
X145313686Y-88052058D01*
X145313687Y-88052059D01*
X145369544Y-88211690D01*
X145453054Y-88344594D01*
X145459524Y-88354891D01*
X145546386Y-88441753D01*
X145579871Y-88503076D01*
X145577683Y-88564368D01*
X145565473Y-88605951D01*
X145564977Y-88607641D01*
X145564976Y-88607645D01*
X145564527Y-88610767D01*
X145564524Y-88610783D01*
X145546376Y-88737013D01*
X145544500Y-88750061D01*
X145544500Y-89411000D01*
X145544854Y-89414294D01*
X145544855Y-89414309D01*
X145555697Y-89515145D01*
X145556053Y-89518456D01*
X145556757Y-89521693D01*
X145556759Y-89521704D01*
X145559651Y-89534997D01*
X145567259Y-89569967D01*
X145568305Y-89573110D01*
X145568309Y-89573124D01*
X145601385Y-89672503D01*
X145679173Y-89793541D01*
X145679175Y-89793543D01*
X145724930Y-89846347D01*
X145833664Y-89940567D01*
X145964541Y-90000338D01*
X146031580Y-90020023D01*
X146031584Y-90020024D01*
X146174000Y-90040500D01*
X154499893Y-90040500D01*
X154504244Y-90040500D01*
X154644187Y-90020743D01*
X154710157Y-90001737D01*
X154816891Y-89953975D01*
X154826583Y-89950120D01*
X154871955Y-89934243D01*
X154899025Y-89928064D01*
X154926118Y-89925011D01*
X154953871Y-89925011D01*
X154980983Y-89928065D01*
X155008043Y-89934242D01*
X155053418Y-89950120D01*
X155063091Y-89953968D01*
X155169844Y-90001738D01*
X155235815Y-90020744D01*
X155375756Y-90040500D01*
X155380111Y-90040500D01*
X159387176Y-90040500D01*
X159390500Y-90040500D01*
X159464339Y-90032561D01*
X159533098Y-90044966D01*
X159584235Y-90092576D01*
X159591541Y-90106940D01*
X159604266Y-90136586D01*
X159617857Y-90153277D01*
X159644923Y-90217691D01*
X159632868Y-90286513D01*
X159626698Y-90297543D01*
X159593545Y-90350307D01*
X159537686Y-90509943D01*
X159518750Y-90677999D01*
X159537686Y-90846056D01*
X159597867Y-91018046D01*
X159601428Y-91087825D01*
X159597867Y-91099954D01*
X159537686Y-91271943D01*
X159518750Y-91440000D01*
X159537686Y-91608056D01*
X159537686Y-91608058D01*
X159537687Y-91608059D01*
X159593544Y-91767690D01*
X159625345Y-91818301D01*
X159644345Y-91885536D01*
X159623977Y-91952372D01*
X159614503Y-91964895D01*
X159554662Y-92095925D01*
X159545765Y-92126225D01*
X159534977Y-92162966D01*
X159534976Y-92162970D01*
X159534527Y-92166092D01*
X159534524Y-92166108D01*
X159514500Y-92305386D01*
X159514500Y-92709997D01*
X159514500Y-93855222D01*
X159514343Y-93849396D01*
X159498320Y-93917319D01*
X159448059Y-93965854D01*
X159390542Y-93980000D01*
X150495000Y-93980000D01*
X150495000Y-102235000D01*
X164976000Y-102235000D01*
X165043039Y-102254685D01*
X165088794Y-102307489D01*
X165100000Y-102359000D01*
X165100000Y-107826000D01*
X165080315Y-107893039D01*
X165027511Y-107938794D01*
X164976000Y-107950000D01*
X151765000Y-107950000D01*
X151765000Y-108529403D01*
X151745315Y-108596442D01*
X151692511Y-108642197D01*
X151651808Y-108652931D01*
X151514592Y-108664936D01*
X151286336Y-108726097D01*
X151072170Y-108825965D01*
X150878598Y-108961505D01*
X150711508Y-109128595D01*
X150581269Y-109314596D01*
X150526692Y-109358220D01*
X150457193Y-109365413D01*
X150394839Y-109333891D01*
X150378119Y-109314595D01*
X150248109Y-109128921D01*
X150081081Y-108961893D01*
X149887576Y-108826399D01*
X149673493Y-108726570D01*
X149585000Y-108702857D01*
X149585000Y-109663343D01*
X149483100Y-109575048D01*
X149352315Y-109515320D01*
X149245763Y-109500000D01*
X149174237Y-109500000D01*
X149067685Y-109515320D01*
X148936900Y-109575048D01*
X148828239Y-109669202D01*
X148750507Y-109790156D01*
X148710000Y-109928111D01*
X148710000Y-110071889D01*
X148750507Y-110209844D01*
X148828239Y-110330798D01*
X148879252Y-110375000D01*
X147912858Y-110375000D01*
X147936569Y-110463491D01*
X148036399Y-110677576D01*
X148171893Y-110871081D01*
X148338918Y-111038106D01*
X148524595Y-111168119D01*
X148568219Y-111222696D01*
X148575412Y-111292195D01*
X148543890Y-111354549D01*
X148524595Y-111371269D01*
X148338595Y-111501508D01*
X148171505Y-111668598D01*
X148035965Y-111862170D01*
X147936097Y-112076336D01*
X147874936Y-112304592D01*
X147854340Y-112539999D01*
X147874936Y-112775407D01*
X147919709Y-112942501D01*
X147936097Y-113003663D01*
X148035965Y-113217830D01*
X148171505Y-113411401D01*
X148338599Y-113578495D01*
X148532170Y-113714035D01*
X148746337Y-113813903D01*
X148974592Y-113875063D01*
X149210000Y-113895659D01*
X149445408Y-113875063D01*
X149673663Y-113813903D01*
X149887830Y-113714035D01*
X150081401Y-113578495D01*
X150248495Y-113411401D01*
X150378426Y-113225839D01*
X150433002Y-113182216D01*
X150502500Y-113175022D01*
X150564855Y-113206545D01*
X150581571Y-113225837D01*
X150711505Y-113411401D01*
X150878599Y-113578495D01*
X151072170Y-113714035D01*
X151286337Y-113813903D01*
X151514591Y-113875063D01*
X151514592Y-113875063D01*
X151651807Y-113887068D01*
X151716876Y-113912520D01*
X151757855Y-113969111D01*
X151765000Y-114010596D01*
X151765000Y-115550500D01*
X151745315Y-115617539D01*
X151692511Y-115663294D01*
X151641000Y-115674500D01*
X130003481Y-115674500D01*
X129996528Y-115674305D01*
X129679511Y-115656501D01*
X129665693Y-115654944D01*
X129356105Y-115602343D01*
X129342548Y-115599249D01*
X129040787Y-115512313D01*
X129027662Y-115507720D01*
X128737541Y-115387548D01*
X128725013Y-115381515D01*
X128636998Y-115332871D01*
X128450156Y-115229607D01*
X128438391Y-115222214D01*
X128182285Y-115040497D01*
X128171417Y-115031831D01*
X128054885Y-114927692D01*
X127937256Y-114822572D01*
X127927425Y-114812741D01*
X127718168Y-114578582D01*
X127709504Y-114567716D01*
X127527782Y-114311604D01*
X127520395Y-114299848D01*
X127368480Y-114024979D01*
X127362454Y-114012465D01*
X127242279Y-113722337D01*
X127237686Y-113709212D01*
X127150750Y-113407451D01*
X127147656Y-113393894D01*
X127128431Y-113280741D01*
X127095053Y-113084296D01*
X127093499Y-113070498D01*
X127075693Y-112753436D01*
X127075500Y-112746548D01*
X127075500Y-112725469D01*
X127075500Y-112725468D01*
X127075500Y-110750000D01*
X129294564Y-110750000D01*
X129294790Y-110753736D01*
X129314063Y-111072362D01*
X129314064Y-111072372D01*
X129314290Y-111076104D01*
X129314963Y-111079778D01*
X129314965Y-111079792D01*
X129372502Y-111393762D01*
X129372504Y-111393771D01*
X129373179Y-111397453D01*
X129470373Y-111709361D01*
X129604455Y-112007279D01*
X129606388Y-112010477D01*
X129606392Y-112010484D01*
X129771532Y-112283658D01*
X129771536Y-112283663D01*
X129773470Y-112286863D01*
X129974952Y-112544036D01*
X130205964Y-112775048D01*
X130463137Y-112976530D01*
X130466339Y-112978466D01*
X130466341Y-112978467D01*
X130739515Y-113143607D01*
X130742721Y-113145545D01*
X131040639Y-113279627D01*
X131352547Y-113376821D01*
X131673896Y-113435710D01*
X132000000Y-113455436D01*
X132326104Y-113435710D01*
X132647453Y-113376821D01*
X132959361Y-113279627D01*
X133257279Y-113145545D01*
X133536863Y-112976530D01*
X133794036Y-112775048D01*
X134025048Y-112544036D01*
X134226530Y-112286863D01*
X134395545Y-112007279D01*
X134511337Y-111750000D01*
X138894531Y-111750000D01*
X138914364Y-111976689D01*
X138973261Y-112196497D01*
X139069432Y-112402735D01*
X139199953Y-112589140D01*
X139360859Y-112750046D01*
X139547264Y-112880567D01*
X139547265Y-112880567D01*
X139547266Y-112880568D01*
X139753504Y-112976739D01*
X139973308Y-113035635D01*
X140124436Y-113048857D01*
X140199999Y-113055468D01*
X140199999Y-113055467D01*
X140200000Y-113055468D01*
X140426692Y-113035635D01*
X140646496Y-112976739D01*
X140852734Y-112880568D01*
X141039139Y-112750047D01*
X141200047Y-112589139D01*
X141330568Y-112402734D01*
X141426739Y-112196496D01*
X141485635Y-111976692D01*
X141505468Y-111750000D01*
X141485635Y-111523308D01*
X141426739Y-111303504D01*
X141330568Y-111097266D01*
X141318813Y-111080477D01*
X141200046Y-110910859D01*
X141043162Y-110753975D01*
X141009677Y-110692652D01*
X141014661Y-110622960D01*
X141056533Y-110567027D01*
X141093927Y-110552315D01*
X141092890Y-110549534D01*
X141109229Y-110543439D01*
X141242331Y-110493796D01*
X141357546Y-110407546D01*
X141443796Y-110292331D01*
X141494091Y-110157483D01*
X141500500Y-110097873D01*
X141500500Y-109625000D01*
X147912858Y-109625000D01*
X148835000Y-109625000D01*
X148835000Y-108702857D01*
X148746506Y-108726570D01*
X148532421Y-108826400D01*
X148338921Y-108961890D01*
X148171890Y-109128921D01*
X148036400Y-109322421D01*
X147936569Y-109536507D01*
X147912858Y-109624999D01*
X147912858Y-109625000D01*
X141500500Y-109625000D01*
X141500499Y-108402128D01*
X141494091Y-108342517D01*
X141443796Y-108207669D01*
X141357546Y-108092454D01*
X141242331Y-108006204D01*
X141107483Y-107955909D01*
X141107482Y-107955908D01*
X141051166Y-107949854D01*
X141051165Y-107949853D01*
X141047873Y-107949500D01*
X141044550Y-107949500D01*
X139355439Y-107949500D01*
X139355420Y-107949500D01*
X139352128Y-107949501D01*
X139348848Y-107949853D01*
X139348840Y-107949854D01*
X139292515Y-107955909D01*
X139157669Y-108006204D01*
X139042454Y-108092454D01*
X138956204Y-108207668D01*
X138905910Y-108342515D01*
X138905909Y-108342517D01*
X138899500Y-108402127D01*
X138899500Y-108405448D01*
X138899500Y-108405449D01*
X138899500Y-110094560D01*
X138899500Y-110094578D01*
X138899501Y-110097872D01*
X138899853Y-110101152D01*
X138899854Y-110101159D01*
X138900400Y-110106237D01*
X138905909Y-110157483D01*
X138956204Y-110292331D01*
X139042454Y-110407546D01*
X139157669Y-110493796D01*
X139275448Y-110537725D01*
X139307110Y-110549534D01*
X139305914Y-110552740D01*
X139346955Y-110569737D01*
X139386807Y-110627126D01*
X139389307Y-110696951D01*
X139356838Y-110753975D01*
X139199950Y-110910863D01*
X139069432Y-111097264D01*
X138973261Y-111303502D01*
X138914364Y-111523310D01*
X138894531Y-111750000D01*
X134511337Y-111750000D01*
X134529627Y-111709361D01*
X134626821Y-111397453D01*
X134685710Y-111076104D01*
X134705436Y-110750000D01*
X134685710Y-110423896D01*
X134626821Y-110102547D01*
X134529627Y-109790639D01*
X134395545Y-109492721D01*
X134226530Y-109213137D01*
X134025048Y-108955964D01*
X133794036Y-108724952D01*
X133536863Y-108523470D01*
X133533663Y-108521536D01*
X133533658Y-108521532D01*
X133260484Y-108356392D01*
X133260477Y-108356388D01*
X133257279Y-108354455D01*
X132959361Y-108220373D01*
X132647453Y-108123179D01*
X132643771Y-108122504D01*
X132643762Y-108122502D01*
X132329792Y-108064965D01*
X132329778Y-108064963D01*
X132326104Y-108064290D01*
X132322372Y-108064064D01*
X132322362Y-108064063D01*
X132003736Y-108044790D01*
X132000000Y-108044564D01*
X131996264Y-108044790D01*
X131677637Y-108064063D01*
X131677625Y-108064064D01*
X131673896Y-108064290D01*
X131670223Y-108064962D01*
X131670207Y-108064965D01*
X131356237Y-108122502D01*
X131356224Y-108122505D01*
X131352547Y-108123179D01*
X131348967Y-108124294D01*
X131348961Y-108124296D01*
X131044216Y-108219258D01*
X131044210Y-108219260D01*
X131040639Y-108220373D01*
X131037230Y-108221907D01*
X131037228Y-108221908D01*
X130746135Y-108352918D01*
X130746128Y-108352921D01*
X130742721Y-108354455D01*
X130739528Y-108356384D01*
X130739515Y-108356392D01*
X130466341Y-108521532D01*
X130466328Y-108521540D01*
X130463137Y-108523470D01*
X130460195Y-108525774D01*
X130460189Y-108525779D01*
X130234166Y-108702857D01*
X130205964Y-108724952D01*
X130203318Y-108727597D01*
X130203310Y-108727605D01*
X129977605Y-108953310D01*
X129977597Y-108953318D01*
X129974952Y-108955964D01*
X129972640Y-108958914D01*
X129972640Y-108958915D01*
X129775779Y-109210189D01*
X129775774Y-109210195D01*
X129773470Y-109213137D01*
X129771540Y-109216328D01*
X129771532Y-109216341D01*
X129606392Y-109489515D01*
X129606384Y-109489528D01*
X129604455Y-109492721D01*
X129602921Y-109496128D01*
X129602918Y-109496135D01*
X129544921Y-109625000D01*
X129470373Y-109790639D01*
X129469260Y-109794210D01*
X129469258Y-109794216D01*
X129374636Y-110097872D01*
X129373179Y-110102547D01*
X129372505Y-110106224D01*
X129372502Y-110106237D01*
X129314965Y-110420207D01*
X129314962Y-110420223D01*
X129314290Y-110423896D01*
X129314064Y-110427625D01*
X129314063Y-110427637D01*
X129298471Y-110685404D01*
X129294564Y-110750000D01*
X127075500Y-110750000D01*
X127075500Y-106261122D01*
X132261500Y-106261122D01*
X132261586Y-106262747D01*
X132261587Y-106262772D01*
X132264067Y-106309459D01*
X132264067Y-106309466D01*
X132264295Y-106313741D01*
X132308755Y-106543626D01*
X132391426Y-106762690D01*
X132509930Y-106964632D01*
X132660858Y-107143642D01*
X132839868Y-107294570D01*
X133041810Y-107413074D01*
X133260874Y-107495745D01*
X133490759Y-107540205D01*
X133543378Y-107543000D01*
X133545022Y-107543000D01*
X135478978Y-107543000D01*
X135480622Y-107543000D01*
X135533241Y-107540205D01*
X135763126Y-107495745D01*
X135982190Y-107413074D01*
X136184132Y-107294570D01*
X136363142Y-107143642D01*
X136514070Y-106964632D01*
X136632574Y-106762690D01*
X136715245Y-106543626D01*
X136759705Y-106313741D01*
X136762500Y-106261122D01*
X136762500Y-105130600D01*
X156216750Y-105130600D01*
X156235686Y-105298656D01*
X156235686Y-105298658D01*
X156235687Y-105298659D01*
X156291544Y-105458290D01*
X156381523Y-105601490D01*
X156501110Y-105721077D01*
X156644310Y-105811056D01*
X156803941Y-105866913D01*
X156915980Y-105879536D01*
X156971999Y-105885849D01*
X156971999Y-105885848D01*
X156972000Y-105885849D01*
X157140059Y-105866913D01*
X157299690Y-105811056D01*
X157442890Y-105721077D01*
X157562477Y-105601490D01*
X157652456Y-105458290D01*
X157708313Y-105298659D01*
X157727249Y-105130600D01*
X157708313Y-104962541D01*
X157652456Y-104802910D01*
X157562477Y-104659710D01*
X157442890Y-104540123D01*
X157299690Y-104450144D01*
X157140059Y-104394287D01*
X157140058Y-104394286D01*
X157140056Y-104394286D01*
X156971999Y-104375350D01*
X156803943Y-104394286D01*
X156644310Y-104450144D01*
X156501108Y-104540124D01*
X156381524Y-104659708D01*
X156291544Y-104802910D01*
X156235686Y-104962543D01*
X156216750Y-105130600D01*
X136762500Y-105130600D01*
X136762500Y-104323878D01*
X136759705Y-104271259D01*
X136715245Y-104041374D01*
X136632574Y-103822310D01*
X136514070Y-103620368D01*
X136363142Y-103441358D01*
X136184132Y-103290430D01*
X135982190Y-103171926D01*
X135763126Y-103089255D01*
X135763121Y-103089254D01*
X135760475Y-103088742D01*
X135756974Y-103086934D01*
X135753251Y-103085529D01*
X135753414Y-103085095D01*
X135698395Y-103056682D01*
X135663503Y-102996148D01*
X135666876Y-102926360D01*
X135707445Y-102869475D01*
X135772328Y-102843552D01*
X135784007Y-102842999D01*
X139309872Y-102842999D01*
X139369483Y-102836591D01*
X139504331Y-102786296D01*
X139619546Y-102700046D01*
X139705796Y-102584831D01*
X139756091Y-102449983D01*
X139762500Y-102390373D01*
X139762499Y-98794628D01*
X139756091Y-98735017D01*
X139705796Y-98600169D01*
X139619546Y-98484954D01*
X139504331Y-98398704D01*
X139369483Y-98348409D01*
X139309873Y-98342000D01*
X139306550Y-98342000D01*
X135717439Y-98342000D01*
X135717420Y-98342000D01*
X135714128Y-98342001D01*
X135710848Y-98342353D01*
X135710840Y-98342354D01*
X135654515Y-98348409D01*
X135519669Y-98398704D01*
X135404454Y-98484954D01*
X135318204Y-98600168D01*
X135267910Y-98735015D01*
X135267909Y-98735017D01*
X135261500Y-98794627D01*
X135261500Y-98797948D01*
X135261500Y-98797949D01*
X135261500Y-102387060D01*
X135261500Y-102387078D01*
X135261501Y-102390372D01*
X135267909Y-102449983D01*
X135318204Y-102584831D01*
X135404454Y-102700046D01*
X135519669Y-102786296D01*
X135566940Y-102803927D01*
X135622873Y-102845796D01*
X135647291Y-102911261D01*
X135632440Y-102979534D01*
X135583035Y-103028940D01*
X135517033Y-103043934D01*
X135482242Y-103042086D01*
X135482240Y-103042085D01*
X135480622Y-103042000D01*
X133543378Y-103042000D01*
X133541753Y-103042086D01*
X133541727Y-103042087D01*
X133495040Y-103044567D01*
X133495031Y-103044568D01*
X133490759Y-103044795D01*
X133486561Y-103045606D01*
X133486552Y-103045608D01*
X133260877Y-103089254D01*
X133041807Y-103171927D01*
X132839868Y-103290430D01*
X132660858Y-103441358D01*
X132509930Y-103620368D01*
X132391427Y-103822307D01*
X132308754Y-104041377D01*
X132265108Y-104267052D01*
X132265106Y-104267061D01*
X132264295Y-104271259D01*
X132264068Y-104275531D01*
X132264067Y-104275540D01*
X132261587Y-104322227D01*
X132261586Y-104322253D01*
X132261500Y-104323878D01*
X132261500Y-106261122D01*
X127075500Y-106261122D01*
X127075500Y-101654295D01*
X129511500Y-101654295D01*
X129511501Y-101656716D01*
X129511691Y-101659135D01*
X129511692Y-101659151D01*
X129521904Y-101788916D01*
X129576902Y-102007181D01*
X129669992Y-102212125D01*
X129798180Y-102397154D01*
X129957345Y-102556319D01*
X130142374Y-102684507D01*
X130347318Y-102777597D01*
X130565583Y-102832595D01*
X130565584Y-102832595D01*
X130565588Y-102832596D01*
X130697783Y-102843000D01*
X132326216Y-102842999D01*
X132458412Y-102832596D01*
X132458416Y-102832595D01*
X132676681Y-102777597D01*
X132711063Y-102761979D01*
X132881626Y-102684507D01*
X133066654Y-102556319D01*
X133225819Y-102397154D01*
X133354007Y-102212126D01*
X133447096Y-102007183D01*
X133502096Y-101788912D01*
X133512500Y-101656717D01*
X133512499Y-99528284D01*
X133502096Y-99396088D01*
X133474379Y-99286090D01*
X133447097Y-99177818D01*
X133354007Y-98972874D01*
X133225819Y-98787845D01*
X133066654Y-98628680D01*
X132881625Y-98500492D01*
X132676681Y-98407402D01*
X132458416Y-98352404D01*
X132328651Y-98342191D01*
X132328636Y-98342190D01*
X132326217Y-98342000D01*
X132323771Y-98342000D01*
X130700229Y-98342000D01*
X130700203Y-98342000D01*
X130697784Y-98342001D01*
X130695365Y-98342191D01*
X130695348Y-98342192D01*
X130565583Y-98352404D01*
X130347318Y-98407402D01*
X130142374Y-98500492D01*
X129957345Y-98628680D01*
X129798180Y-98787845D01*
X129669992Y-98972874D01*
X129576902Y-99177818D01*
X129521904Y-99396083D01*
X129511691Y-99525848D01*
X129511690Y-99525864D01*
X129511500Y-99528283D01*
X129511500Y-99530727D01*
X129511500Y-99530728D01*
X129511500Y-101654270D01*
X129511500Y-101654295D01*
X127075500Y-101654295D01*
X127075500Y-91270000D01*
X146169538Y-91270000D01*
X146189312Y-91432845D01*
X146218274Y-91509212D01*
X146223641Y-91578876D01*
X146218275Y-91597152D01*
X146199312Y-91647154D01*
X146179538Y-91810000D01*
X146199312Y-91972845D01*
X146257481Y-92126225D01*
X146350668Y-92261230D01*
X146473450Y-92370005D01*
X146473451Y-92370005D01*
X146473454Y-92370008D01*
X146618705Y-92446242D01*
X146777979Y-92485500D01*
X146777980Y-92485500D01*
X146942020Y-92485500D01*
X146942021Y-92485500D01*
X147101295Y-92446242D01*
X147246546Y-92370008D01*
X147369332Y-92261229D01*
X147462518Y-92126226D01*
X147510389Y-92000000D01*
X155794750Y-92000000D01*
X155813686Y-92168056D01*
X155813686Y-92168058D01*
X155813687Y-92168059D01*
X155869544Y-92327690D01*
X155959523Y-92470890D01*
X156079110Y-92590477D01*
X156222310Y-92680456D01*
X156381941Y-92736313D01*
X156550000Y-92755249D01*
X156718059Y-92736313D01*
X156877690Y-92680456D01*
X157020890Y-92590477D01*
X157140477Y-92470890D01*
X157230456Y-92327690D01*
X157286313Y-92168059D01*
X157305249Y-92000000D01*
X157286313Y-91831941D01*
X157230456Y-91672310D01*
X157140477Y-91529110D01*
X157020890Y-91409523D01*
X156877690Y-91319544D01*
X156718059Y-91263687D01*
X156718058Y-91263686D01*
X156718056Y-91263686D01*
X156550000Y-91244750D01*
X156381943Y-91263686D01*
X156222310Y-91319544D01*
X156079108Y-91409524D01*
X155959524Y-91529108D01*
X155869544Y-91672310D01*
X155813686Y-91831943D01*
X155794750Y-92000000D01*
X147510389Y-92000000D01*
X147520688Y-91972845D01*
X147540461Y-91810000D01*
X147520688Y-91647155D01*
X147491724Y-91570786D01*
X147486358Y-91501124D01*
X147491722Y-91482851D01*
X147510688Y-91432845D01*
X147530461Y-91270000D01*
X147529694Y-91263687D01*
X147527395Y-91244750D01*
X147510688Y-91107155D01*
X147452518Y-90953774D01*
X147451023Y-90951608D01*
X147359331Y-90818769D01*
X147236549Y-90709994D01*
X147236547Y-90709993D01*
X147236546Y-90709992D01*
X147091295Y-90633758D01*
X146932021Y-90594500D01*
X146767979Y-90594500D01*
X146608705Y-90633758D01*
X146498442Y-90691629D01*
X146463450Y-90709994D01*
X146340668Y-90818769D01*
X146247481Y-90953774D01*
X146189312Y-91107154D01*
X146169538Y-91270000D01*
X127075500Y-91270000D01*
X127075500Y-85718902D01*
X127095185Y-85651863D01*
X127147989Y-85606108D01*
X127199337Y-85594902D01*
X127200325Y-85594900D01*
X127200328Y-85594901D01*
X145305302Y-85571080D01*
X145348754Y-85569151D01*
X145369985Y-85567291D01*
X145401810Y-85563117D01*
X145423169Y-85560317D01*
X145456776Y-85560502D01*
G37*
%TD.AperFunction*%
%TD*%
%TA.AperFunction,Conductor*%
%TO.N,+5VP*%
G36*
X188001153Y-75825694D02*
G01*
X188318180Y-75843497D01*
X188331978Y-75845051D01*
X188641580Y-75897653D01*
X188655135Y-75900747D01*
X188956898Y-75987681D01*
X188970025Y-75992274D01*
X189260153Y-76112448D01*
X189272660Y-76118471D01*
X189547518Y-76270377D01*
X189559292Y-76277775D01*
X189632622Y-76329805D01*
X189815416Y-76459503D01*
X189826270Y-76468159D01*
X190060436Y-76677420D01*
X190070262Y-76687247D01*
X190279521Y-76921407D01*
X190288191Y-76932278D01*
X190469909Y-77188384D01*
X190477307Y-77200158D01*
X190629212Y-77475007D01*
X190635246Y-77487536D01*
X190701017Y-77646322D01*
X190755419Y-77777658D01*
X190760012Y-77790784D01*
X190846948Y-78092547D01*
X190850042Y-78106103D01*
X190902644Y-78415693D01*
X190904201Y-78429511D01*
X190921985Y-78746170D01*
X190922180Y-78753123D01*
X190922180Y-112746519D01*
X190921985Y-112753472D01*
X190904181Y-113070487D01*
X190902624Y-113084305D01*
X190850023Y-113393893D01*
X190846929Y-113407450D01*
X190759994Y-113709209D01*
X190755401Y-113722334D01*
X190635228Y-114012454D01*
X190629194Y-114024983D01*
X190477290Y-114299830D01*
X190469892Y-114311603D01*
X190288175Y-114567708D01*
X190279506Y-114578580D01*
X190070249Y-114812738D01*
X190060416Y-114822571D01*
X189826272Y-115031813D01*
X189815400Y-115040483D01*
X189559282Y-115222207D01*
X189547508Y-115229605D01*
X189387353Y-115318118D01*
X189272659Y-115381506D01*
X189260138Y-115387536D01*
X188970016Y-115507706D01*
X188956891Y-115512299D01*
X188655131Y-115599233D01*
X188641574Y-115602327D01*
X188331986Y-115654927D01*
X188318168Y-115656484D01*
X188057497Y-115671121D01*
X188000796Y-115674305D01*
X187993847Y-115674500D01*
X152394500Y-115674500D01*
X152327461Y-115654815D01*
X152281706Y-115602011D01*
X152270500Y-115550500D01*
X152270500Y-114013239D01*
X152270500Y-114010596D01*
X152263165Y-113924797D01*
X152257888Y-113894163D01*
X152265908Y-113824755D01*
X152310178Y-113770701D01*
X152327669Y-113760740D01*
X152427830Y-113714035D01*
X152621401Y-113578495D01*
X152788495Y-113411401D01*
X152918427Y-113225838D01*
X152973001Y-113182216D01*
X153042499Y-113175022D01*
X153104854Y-113206545D01*
X153121572Y-113225838D01*
X153251505Y-113411401D01*
X153418599Y-113578495D01*
X153612170Y-113714035D01*
X153826337Y-113813903D01*
X154054592Y-113875063D01*
X154290000Y-113895659D01*
X154525408Y-113875063D01*
X154753663Y-113813903D01*
X154967830Y-113714035D01*
X155161401Y-113578495D01*
X155328495Y-113411401D01*
X155458426Y-113225839D01*
X155513002Y-113182216D01*
X155582500Y-113175022D01*
X155644855Y-113206545D01*
X155661571Y-113225837D01*
X155791505Y-113411401D01*
X155958599Y-113578495D01*
X156152170Y-113714035D01*
X156366337Y-113813903D01*
X156594592Y-113875063D01*
X156830000Y-113895659D01*
X157065408Y-113875063D01*
X157293663Y-113813903D01*
X157507830Y-113714035D01*
X157701401Y-113578495D01*
X157868495Y-113411401D01*
X157998427Y-113225838D01*
X158053001Y-113182216D01*
X158122499Y-113175022D01*
X158184854Y-113206545D01*
X158201572Y-113225838D01*
X158331505Y-113411401D01*
X158498599Y-113578495D01*
X158692170Y-113714035D01*
X158906337Y-113813903D01*
X159134592Y-113875063D01*
X159370000Y-113895659D01*
X159605408Y-113875063D01*
X159833663Y-113813903D01*
X160047830Y-113714035D01*
X160241401Y-113578495D01*
X160408495Y-113411401D01*
X160544035Y-113217830D01*
X160643903Y-113003663D01*
X160705063Y-112775408D01*
X160725659Y-112540000D01*
X160705063Y-112304592D01*
X160680039Y-112211200D01*
X166634000Y-112211200D01*
X166634000Y-112680718D01*
X166634354Y-112687332D01*
X166640400Y-112743571D01*
X166690647Y-112878289D01*
X166776811Y-112993388D01*
X166891910Y-113079552D01*
X167026628Y-113129799D01*
X167082867Y-113135845D01*
X167089482Y-113136200D01*
X167559000Y-113136200D01*
X167559000Y-112211200D01*
X166634000Y-112211200D01*
X160680039Y-112211200D01*
X160643903Y-112076337D01*
X160544035Y-111862171D01*
X160525850Y-111836200D01*
X167529014Y-111836200D01*
X167548835Y-111961348D01*
X167606359Y-112074245D01*
X167695955Y-112163841D01*
X167808852Y-112221365D01*
X167902519Y-112236200D01*
X167965481Y-112236200D01*
X168059148Y-112221365D01*
X168172045Y-112163841D01*
X168261641Y-112074245D01*
X168309000Y-111981297D01*
X168309000Y-113136200D01*
X168778518Y-113136200D01*
X168785132Y-113135845D01*
X168841371Y-113129799D01*
X168976089Y-113079552D01*
X169091188Y-112993388D01*
X169177352Y-112878289D01*
X169233041Y-112728982D01*
X169236154Y-112730143D01*
X169253274Y-112688796D01*
X169310660Y-112648939D01*
X169380485Y-112646434D01*
X169437519Y-112678906D01*
X169594859Y-112836246D01*
X169781264Y-112966767D01*
X169781265Y-112966767D01*
X169781266Y-112966768D01*
X169987504Y-113062939D01*
X170207308Y-113121835D01*
X170434000Y-113141668D01*
X170660692Y-113121835D01*
X170880496Y-113062939D01*
X170951133Y-113030000D01*
X172472750Y-113030000D01*
X172491686Y-113198056D01*
X172491686Y-113198058D01*
X172491687Y-113198059D01*
X172547544Y-113357690D01*
X172637523Y-113500890D01*
X172757110Y-113620477D01*
X172900310Y-113710456D01*
X173059941Y-113766313D01*
X173140456Y-113775385D01*
X173204870Y-113802451D01*
X173244426Y-113860046D01*
X173249793Y-113912488D01*
X173234750Y-114045999D01*
X173253686Y-114214056D01*
X173253686Y-114214058D01*
X173253687Y-114214059D01*
X173309544Y-114373690D01*
X173399523Y-114516890D01*
X173519110Y-114636477D01*
X173662310Y-114726456D01*
X173821941Y-114782313D01*
X173933980Y-114794937D01*
X173989999Y-114801249D01*
X173989999Y-114801248D01*
X173990000Y-114801249D01*
X174158059Y-114782313D01*
X174317690Y-114726456D01*
X174460890Y-114636477D01*
X174580477Y-114516890D01*
X174670456Y-114373690D01*
X174726313Y-114214059D01*
X174745249Y-114046000D01*
X174726313Y-113877941D01*
X174670456Y-113718310D01*
X174580477Y-113575110D01*
X174460890Y-113455523D01*
X174317690Y-113365544D01*
X174158059Y-113309687D01*
X174158058Y-113309686D01*
X174158056Y-113309686D01*
X174077542Y-113300614D01*
X174013128Y-113273547D01*
X173973573Y-113215952D01*
X173968206Y-113163510D01*
X173983249Y-113029999D01*
X173964313Y-112861943D01*
X173964313Y-112861941D01*
X173908456Y-112702310D01*
X173818477Y-112559110D01*
X173698890Y-112439523D01*
X173555690Y-112349544D01*
X173396059Y-112293687D01*
X173396058Y-112293686D01*
X173396056Y-112293686D01*
X173228000Y-112274750D01*
X173059943Y-112293686D01*
X172900310Y-112349544D01*
X172757108Y-112439524D01*
X172637524Y-112559108D01*
X172547544Y-112702310D01*
X172491686Y-112861943D01*
X172472750Y-113030000D01*
X170951133Y-113030000D01*
X171086734Y-112966768D01*
X171273139Y-112836247D01*
X171434047Y-112675339D01*
X171564568Y-112488934D01*
X171660739Y-112282696D01*
X171719635Y-112062892D01*
X171739468Y-111836200D01*
X171719635Y-111609508D01*
X171660739Y-111389704D01*
X171564568Y-111183466D01*
X171557965Y-111174035D01*
X171434046Y-110997059D01*
X171273140Y-110836153D01*
X171150100Y-110750000D01*
X174294564Y-110750000D01*
X174294790Y-110753736D01*
X174314063Y-111072362D01*
X174314064Y-111072372D01*
X174314290Y-111076104D01*
X174314963Y-111079778D01*
X174314965Y-111079792D01*
X174372502Y-111393762D01*
X174372504Y-111393771D01*
X174373179Y-111397453D01*
X174470373Y-111709361D01*
X174604455Y-112007279D01*
X174606388Y-112010477D01*
X174606392Y-112010484D01*
X174771532Y-112283658D01*
X174771536Y-112283663D01*
X174773470Y-112286863D01*
X174974952Y-112544036D01*
X175205964Y-112775048D01*
X175463137Y-112976530D01*
X175466339Y-112978466D01*
X175466341Y-112978467D01*
X175736308Y-113141668D01*
X175742721Y-113145545D01*
X176040639Y-113279627D01*
X176352547Y-113376821D01*
X176673896Y-113435710D01*
X177000000Y-113455436D01*
X177326104Y-113435710D01*
X177647453Y-113376821D01*
X177959361Y-113279627D01*
X178257279Y-113145545D01*
X178536863Y-112976530D01*
X178794036Y-112775048D01*
X178920085Y-112648999D01*
X186315750Y-112648999D01*
X186334686Y-112817056D01*
X186334686Y-112817058D01*
X186334687Y-112817059D01*
X186390544Y-112976690D01*
X186480523Y-113119890D01*
X186600110Y-113239477D01*
X186743310Y-113329456D01*
X186902941Y-113385313D01*
X187071000Y-113404249D01*
X187239059Y-113385313D01*
X187398690Y-113329456D01*
X187541890Y-113239477D01*
X187661477Y-113119890D01*
X187751456Y-112976690D01*
X187807313Y-112817059D01*
X187826249Y-112649000D01*
X187807313Y-112480941D01*
X187751456Y-112321310D01*
X187661477Y-112178110D01*
X187541890Y-112058523D01*
X187398690Y-111968544D01*
X187239059Y-111912687D01*
X187239058Y-111912686D01*
X187239056Y-111912686D01*
X187070999Y-111893750D01*
X186902943Y-111912686D01*
X186743310Y-111968544D01*
X186600108Y-112058524D01*
X186480524Y-112178108D01*
X186390544Y-112321310D01*
X186334686Y-112480943D01*
X186315750Y-112648999D01*
X178920085Y-112648999D01*
X179025048Y-112544036D01*
X179226530Y-112286863D01*
X179395545Y-112007279D01*
X179529627Y-111709361D01*
X179626821Y-111397453D01*
X179685710Y-111076104D01*
X179705436Y-110750000D01*
X179685710Y-110423896D01*
X179626821Y-110102547D01*
X179529627Y-109790639D01*
X179395545Y-109492721D01*
X179318693Y-109365592D01*
X179228467Y-109216341D01*
X179228466Y-109216339D01*
X179226530Y-109213137D01*
X179176171Y-109148858D01*
X179150322Y-109083945D01*
X179163671Y-109015363D01*
X179211979Y-108964884D01*
X179216156Y-108962589D01*
X179233835Y-108953310D01*
X179304146Y-108916408D01*
X179426932Y-108807629D01*
X179515678Y-108679058D01*
X179569958Y-108635070D01*
X179617726Y-108625500D01*
X179710820Y-108625500D01*
X179710821Y-108625500D01*
X179870095Y-108586242D01*
X180015346Y-108510008D01*
X180138132Y-108401229D01*
X180231318Y-108266226D01*
X180289488Y-108112845D01*
X180309261Y-107950000D01*
X180289488Y-107787155D01*
X180231318Y-107633774D01*
X180212026Y-107605825D01*
X180138131Y-107498769D01*
X180015349Y-107389994D01*
X180015347Y-107389993D01*
X180015346Y-107389992D01*
X179870095Y-107313758D01*
X179710821Y-107274500D01*
X179546779Y-107274500D01*
X179387505Y-107313758D01*
X179265374Y-107377857D01*
X179242250Y-107389994D01*
X179119468Y-107498769D01*
X179030723Y-107627340D01*
X178976440Y-107671330D01*
X178928673Y-107680900D01*
X178835579Y-107680900D01*
X178676305Y-107720158D01*
X178554174Y-107784257D01*
X178531050Y-107796394D01*
X178408268Y-107905169D01*
X178315081Y-108040174D01*
X178251573Y-108207633D01*
X178247064Y-108205923D01*
X178230163Y-108243960D01*
X178171775Y-108282335D01*
X178101909Y-108283051D01*
X178084732Y-108276798D01*
X178021910Y-108248524D01*
X177959361Y-108220373D01*
X177873299Y-108193555D01*
X177651038Y-108124296D01*
X177651036Y-108124295D01*
X177647453Y-108123179D01*
X177643771Y-108122504D01*
X177643762Y-108122502D01*
X177329792Y-108064965D01*
X177329778Y-108064963D01*
X177326104Y-108064290D01*
X177322372Y-108064064D01*
X177322362Y-108064063D01*
X177003736Y-108044790D01*
X177000000Y-108044564D01*
X176996264Y-108044790D01*
X176677637Y-108064063D01*
X176677625Y-108064064D01*
X176673896Y-108064290D01*
X176670223Y-108064962D01*
X176670207Y-108064965D01*
X176356237Y-108122502D01*
X176356224Y-108122505D01*
X176352547Y-108123179D01*
X176348967Y-108124294D01*
X176348961Y-108124296D01*
X176044216Y-108219258D01*
X176044210Y-108219260D01*
X176040639Y-108220373D01*
X176037230Y-108221907D01*
X176037228Y-108221908D01*
X175746135Y-108352918D01*
X175746128Y-108352921D01*
X175742721Y-108354455D01*
X175739528Y-108356384D01*
X175739515Y-108356392D01*
X175466341Y-108521532D01*
X175466328Y-108521540D01*
X175463137Y-108523470D01*
X175460195Y-108525774D01*
X175460189Y-108525779D01*
X175274904Y-108670941D01*
X175205964Y-108724952D01*
X175203318Y-108727597D01*
X175203310Y-108727605D01*
X174977605Y-108953310D01*
X174977597Y-108953318D01*
X174974952Y-108955964D01*
X174972640Y-108958914D01*
X174972640Y-108958915D01*
X174775779Y-109210189D01*
X174775774Y-109210195D01*
X174773470Y-109213137D01*
X174771540Y-109216328D01*
X174771532Y-109216341D01*
X174606392Y-109489515D01*
X174606384Y-109489528D01*
X174604455Y-109492721D01*
X174602921Y-109496128D01*
X174602918Y-109496135D01*
X174523368Y-109672889D01*
X174470373Y-109790639D01*
X174469260Y-109794210D01*
X174469258Y-109794216D01*
X174385038Y-110064491D01*
X174373179Y-110102547D01*
X174372505Y-110106224D01*
X174372502Y-110106237D01*
X174314965Y-110420207D01*
X174314962Y-110420223D01*
X174314290Y-110423896D01*
X174314064Y-110427625D01*
X174314063Y-110427637D01*
X174298858Y-110679011D01*
X174294564Y-110750000D01*
X171150100Y-110750000D01*
X171086735Y-110705632D01*
X170880497Y-110609461D01*
X170660689Y-110550564D01*
X170434000Y-110530731D01*
X170207310Y-110550564D01*
X169987502Y-110609461D01*
X169781264Y-110705632D01*
X169594863Y-110836150D01*
X169437519Y-110993494D01*
X169376196Y-111026978D01*
X169306504Y-111021994D01*
X169250571Y-110980122D01*
X169235737Y-110942412D01*
X169233041Y-110943418D01*
X169177352Y-110794110D01*
X169091188Y-110679011D01*
X168976089Y-110592847D01*
X168841371Y-110542600D01*
X168785132Y-110536554D01*
X168778518Y-110536200D01*
X168309000Y-110536200D01*
X168309000Y-111691102D01*
X168261641Y-111598155D01*
X168172045Y-111508559D01*
X168059148Y-111451035D01*
X167965481Y-111436200D01*
X167902519Y-111436200D01*
X167808852Y-111451035D01*
X167695955Y-111508559D01*
X167606359Y-111598155D01*
X167548835Y-111711052D01*
X167529014Y-111836200D01*
X160525850Y-111836200D01*
X160408495Y-111668599D01*
X160286569Y-111546673D01*
X160253084Y-111485350D01*
X160254811Y-111461200D01*
X166634000Y-111461200D01*
X167559000Y-111461200D01*
X167559000Y-110536200D01*
X167089482Y-110536200D01*
X167082867Y-110536554D01*
X167026628Y-110542600D01*
X166891910Y-110592847D01*
X166776811Y-110679011D01*
X166690647Y-110794110D01*
X166640400Y-110928828D01*
X166634354Y-110985067D01*
X166634000Y-110991681D01*
X166634000Y-111461200D01*
X160254811Y-111461200D01*
X160258068Y-111415658D01*
X160299940Y-111359725D01*
X160330915Y-111342810D01*
X160462331Y-111293796D01*
X160577546Y-111207546D01*
X160663796Y-111092331D01*
X160714091Y-110957483D01*
X160720500Y-110897873D01*
X160720499Y-109102128D01*
X160714091Y-109042517D01*
X160663796Y-108907669D01*
X160612390Y-108838999D01*
X171202750Y-108838999D01*
X171221686Y-109007056D01*
X171221686Y-109007058D01*
X171221687Y-109007059D01*
X171277544Y-109166690D01*
X171367523Y-109309890D01*
X171487110Y-109429477D01*
X171630310Y-109519456D01*
X171789941Y-109575313D01*
X171901980Y-109587936D01*
X171957999Y-109594249D01*
X171957999Y-109594248D01*
X171958000Y-109594249D01*
X172126059Y-109575313D01*
X172285690Y-109519456D01*
X172428890Y-109429477D01*
X172548477Y-109309890D01*
X172638456Y-109166690D01*
X172694313Y-109007059D01*
X172713249Y-108839000D01*
X172694313Y-108670941D01*
X172638456Y-108511310D01*
X172548477Y-108368110D01*
X172428890Y-108248523D01*
X172285690Y-108158544D01*
X172126059Y-108102687D01*
X172126058Y-108102686D01*
X172126056Y-108102686D01*
X171958000Y-108083750D01*
X171789943Y-108102686D01*
X171630310Y-108158544D01*
X171487108Y-108248524D01*
X171367524Y-108368108D01*
X171277544Y-108511310D01*
X171221686Y-108670943D01*
X171202750Y-108838999D01*
X160612390Y-108838999D01*
X160577546Y-108792454D01*
X160462331Y-108706204D01*
X160434117Y-108695681D01*
X160378186Y-108653810D01*
X160353769Y-108588346D01*
X160368621Y-108520073D01*
X160418027Y-108470668D01*
X160477453Y-108455500D01*
X164972676Y-108455500D01*
X164976000Y-108455500D01*
X165083456Y-108443947D01*
X165134967Y-108432741D01*
X165164165Y-108423022D01*
X165237503Y-108398614D01*
X165336637Y-108334903D01*
X165358543Y-108320825D01*
X165411347Y-108275070D01*
X165505567Y-108166336D01*
X165565338Y-108035459D01*
X165585023Y-107968420D01*
X165585024Y-107968416D01*
X165605500Y-107826000D01*
X165605500Y-107725621D01*
X165625185Y-107658582D01*
X165677989Y-107612827D01*
X165747147Y-107602883D01*
X165810703Y-107631908D01*
X165831547Y-107655177D01*
X165890668Y-107740829D01*
X165890669Y-107740830D01*
X166013450Y-107849605D01*
X166013451Y-107849605D01*
X166013454Y-107849608D01*
X166158705Y-107925842D01*
X166317979Y-107965100D01*
X166317980Y-107965100D01*
X166482020Y-107965100D01*
X166482021Y-107965100D01*
X166641295Y-107925842D01*
X166786546Y-107849608D01*
X166909332Y-107740829D01*
X167002518Y-107605826D01*
X167060688Y-107452445D01*
X167080461Y-107289600D01*
X167060688Y-107126755D01*
X167002518Y-106973374D01*
X166909332Y-106838371D01*
X166909331Y-106838369D01*
X166786549Y-106729594D01*
X166786547Y-106729593D01*
X166786546Y-106729592D01*
X166641295Y-106653358D01*
X166482021Y-106614100D01*
X166317979Y-106614100D01*
X166158705Y-106653358D01*
X166036574Y-106717457D01*
X166013450Y-106729594D01*
X165890668Y-106838369D01*
X165831550Y-106924018D01*
X165777267Y-106968008D01*
X165707818Y-106975668D01*
X165645254Y-106944564D01*
X165609436Y-106884574D01*
X165605500Y-106853578D01*
X165605500Y-102362323D01*
X165605500Y-102359000D01*
X165593947Y-102251544D01*
X165582741Y-102200033D01*
X165581690Y-102196875D01*
X165548614Y-102097496D01*
X165470826Y-101976458D01*
X165466004Y-101970894D01*
X165425070Y-101923653D01*
X165316336Y-101829433D01*
X165316335Y-101829432D01*
X165185460Y-101769662D01*
X165120113Y-101750474D01*
X165120111Y-101750473D01*
X165118420Y-101749977D01*
X165118416Y-101749976D01*
X165115290Y-101749526D01*
X165115277Y-101749524D01*
X164976000Y-101729500D01*
X151124500Y-101729500D01*
X151057461Y-101709815D01*
X151011706Y-101657011D01*
X151000500Y-101605500D01*
X151000500Y-98958400D01*
X152533750Y-98958400D01*
X152552686Y-99126456D01*
X152552686Y-99126458D01*
X152552687Y-99126459D01*
X152608544Y-99286090D01*
X152698523Y-99429290D01*
X152818110Y-99548877D01*
X152961310Y-99638856D01*
X153120941Y-99694713D01*
X153289000Y-99713649D01*
X153457059Y-99694713D01*
X153616690Y-99638856D01*
X153729456Y-99568000D01*
X177679750Y-99568000D01*
X177698686Y-99736056D01*
X177698686Y-99736058D01*
X177698687Y-99736059D01*
X177754544Y-99895690D01*
X177844523Y-100038890D01*
X177964110Y-100158477D01*
X178107310Y-100248456D01*
X178266941Y-100304313D01*
X178435000Y-100323249D01*
X178603059Y-100304313D01*
X178762690Y-100248456D01*
X178905890Y-100158477D01*
X179025477Y-100038890D01*
X179115456Y-99895690D01*
X179171313Y-99736059D01*
X179190249Y-99568000D01*
X179171313Y-99399941D01*
X179115456Y-99240310D01*
X179025477Y-99097110D01*
X178905890Y-98977523D01*
X178762690Y-98887544D01*
X178603059Y-98831687D01*
X178603058Y-98831686D01*
X178603056Y-98831686D01*
X178435000Y-98812750D01*
X178266943Y-98831686D01*
X178107310Y-98887544D01*
X177964108Y-98977524D01*
X177844524Y-99097108D01*
X177754544Y-99240310D01*
X177698686Y-99399943D01*
X177679750Y-99568000D01*
X153729456Y-99568000D01*
X153759890Y-99548877D01*
X153879477Y-99429290D01*
X153969456Y-99286090D01*
X154025313Y-99126459D01*
X154044249Y-98958400D01*
X154025313Y-98790341D01*
X153969456Y-98630710D01*
X153879477Y-98487510D01*
X153759890Y-98367923D01*
X153616690Y-98277944D01*
X153457059Y-98222087D01*
X153457058Y-98222086D01*
X153457056Y-98222086D01*
X153289000Y-98203150D01*
X153120943Y-98222086D01*
X152961310Y-98277944D01*
X152818108Y-98367924D01*
X152698524Y-98487508D01*
X152608544Y-98630710D01*
X152552686Y-98790343D01*
X152533750Y-98958400D01*
X151000500Y-98958400D01*
X151000500Y-94609500D01*
X151020185Y-94542461D01*
X151072989Y-94496706D01*
X151124500Y-94485500D01*
X159386802Y-94485500D01*
X159390542Y-94485500D01*
X159511269Y-94470872D01*
X159568786Y-94456726D01*
X159682533Y-94413685D01*
X159695085Y-94404626D01*
X159760963Y-94381355D01*
X159818459Y-94392061D01*
X159938227Y-94445857D01*
X160005388Y-94465123D01*
X160005393Y-94465124D01*
X160147934Y-94484710D01*
X166168907Y-94447077D01*
X166236065Y-94466343D01*
X166282149Y-94518860D01*
X166292525Y-94587955D01*
X166285621Y-94615045D01*
X166239312Y-94737152D01*
X166219538Y-94899999D01*
X166239312Y-95062845D01*
X166297481Y-95216225D01*
X166390668Y-95351230D01*
X166513450Y-95460005D01*
X166513451Y-95460005D01*
X166513454Y-95460008D01*
X166658705Y-95536242D01*
X166817979Y-95575500D01*
X166817980Y-95575500D01*
X166982020Y-95575500D01*
X166982021Y-95575500D01*
X167141295Y-95536242D01*
X167286546Y-95460008D01*
X167409332Y-95351229D01*
X167502518Y-95216226D01*
X167560688Y-95062845D01*
X167560694Y-95062791D01*
X167560805Y-95062533D01*
X167566027Y-95048766D01*
X167566631Y-95048995D01*
X167588314Y-94998615D01*
X167626159Y-94967943D01*
X167736546Y-94910008D01*
X167856989Y-94803304D01*
X167920219Y-94773584D01*
X167963776Y-94775500D01*
X167967979Y-94775500D01*
X168132020Y-94775500D01*
X168132021Y-94775500D01*
X168291295Y-94736242D01*
X168436546Y-94660008D01*
X168559332Y-94551229D01*
X168612477Y-94474235D01*
X168666759Y-94430246D01*
X168731403Y-94421830D01*
X168795668Y-94430661D01*
X177850161Y-94374070D01*
X177902620Y-94371011D01*
X177928203Y-94368179D01*
X177980031Y-94359697D01*
X178114840Y-94309417D01*
X178169673Y-94279476D01*
X178174411Y-94277244D01*
X178176160Y-94275934D01*
X178176163Y-94275933D01*
X178176168Y-94275931D01*
X178291350Y-94189706D01*
X178356045Y-94125009D01*
X178377754Y-94107698D01*
X178389738Y-94100167D01*
X178413722Y-94085097D01*
X178438732Y-94073052D01*
X178478838Y-94059018D01*
X178505897Y-94052843D01*
X178537542Y-94049278D01*
X178551410Y-94048500D01*
X180212676Y-94048500D01*
X180216000Y-94048500D01*
X180323456Y-94036947D01*
X180374967Y-94025741D01*
X180475302Y-93992345D01*
X180514461Y-93986000D01*
X181533252Y-93986000D01*
X181482239Y-94030202D01*
X181404507Y-94151156D01*
X181364000Y-94289111D01*
X181364000Y-94432889D01*
X181404507Y-94570844D01*
X181482239Y-94691798D01*
X181533252Y-94736000D01*
X180566858Y-94736000D01*
X180590569Y-94824491D01*
X180690399Y-95038576D01*
X180825893Y-95232081D01*
X180992918Y-95399106D01*
X181178595Y-95529119D01*
X181222219Y-95583696D01*
X181229412Y-95653195D01*
X181197890Y-95715549D01*
X181178595Y-95732269D01*
X180992595Y-95862508D01*
X180825505Y-96029598D01*
X180689965Y-96223170D01*
X180590097Y-96437336D01*
X180528936Y-96665592D01*
X180508340Y-96900999D01*
X180528936Y-97136407D01*
X180573709Y-97303502D01*
X180590097Y-97364663D01*
X180689965Y-97578830D01*
X180825505Y-97772401D01*
X180992599Y-97939495D01*
X181178160Y-98069426D01*
X181221783Y-98124002D01*
X181228976Y-98193501D01*
X181197454Y-98255855D01*
X181178160Y-98272574D01*
X181041988Y-98367923D01*
X180992595Y-98402508D01*
X180825505Y-98569598D01*
X180689965Y-98763170D01*
X180590097Y-98977336D01*
X180528936Y-99205592D01*
X180508340Y-99440999D01*
X180528936Y-99676407D01*
X180544919Y-99736056D01*
X180590097Y-99904663D01*
X180689965Y-100118830D01*
X180825505Y-100312401D01*
X180992599Y-100479495D01*
X181178160Y-100609426D01*
X181221783Y-100664002D01*
X181228976Y-100733501D01*
X181197454Y-100795855D01*
X181178159Y-100812575D01*
X180992595Y-100942508D01*
X180825505Y-101109598D01*
X180689965Y-101303170D01*
X180590097Y-101517336D01*
X180528936Y-101745592D01*
X180508340Y-101981000D01*
X180528936Y-102216407D01*
X180539238Y-102254854D01*
X180590097Y-102444663D01*
X180689965Y-102658830D01*
X180825505Y-102852401D01*
X180992599Y-103019495D01*
X181178160Y-103149426D01*
X181221783Y-103204002D01*
X181228976Y-103273501D01*
X181197454Y-103335855D01*
X181178159Y-103352575D01*
X180992595Y-103482508D01*
X180825505Y-103649598D01*
X180689965Y-103843170D01*
X180590097Y-104057336D01*
X180528936Y-104285592D01*
X180508340Y-104521000D01*
X180528936Y-104756407D01*
X180573709Y-104923501D01*
X180590097Y-104984663D01*
X180689965Y-105198830D01*
X180825505Y-105392401D01*
X180992599Y-105559495D01*
X181178160Y-105689426D01*
X181221783Y-105744002D01*
X181228976Y-105813501D01*
X181197454Y-105875855D01*
X181178159Y-105892575D01*
X180992595Y-106022508D01*
X180825505Y-106189598D01*
X180689965Y-106383170D01*
X180590097Y-106597336D01*
X180528936Y-106825592D01*
X180508340Y-107060999D01*
X180528936Y-107296407D01*
X180554012Y-107389992D01*
X180590097Y-107524663D01*
X180689965Y-107738830D01*
X180825505Y-107932401D01*
X180992599Y-108099495D01*
X181178160Y-108229426D01*
X181221783Y-108284002D01*
X181228976Y-108353501D01*
X181197454Y-108415855D01*
X181178158Y-108432575D01*
X181045050Y-108525779D01*
X180992595Y-108562508D01*
X180825505Y-108729598D01*
X180689965Y-108923170D01*
X180590097Y-109137336D01*
X180528936Y-109365592D01*
X180508340Y-109600999D01*
X180528936Y-109836407D01*
X180554496Y-109931798D01*
X180590097Y-110064663D01*
X180689965Y-110278830D01*
X180825505Y-110472401D01*
X180992599Y-110639495D01*
X181186170Y-110775035D01*
X181400337Y-110874903D01*
X181628592Y-110936063D01*
X181864000Y-110956659D01*
X182099408Y-110936063D01*
X182327663Y-110874903D01*
X182541830Y-110775035D01*
X182735401Y-110639495D01*
X182902495Y-110472401D01*
X183032732Y-110286403D01*
X183087307Y-110242780D01*
X183156805Y-110235586D01*
X183219160Y-110267109D01*
X183235880Y-110286404D01*
X183365893Y-110472081D01*
X183532918Y-110639106D01*
X183726423Y-110774600D01*
X183940507Y-110874430D01*
X184028998Y-110898141D01*
X184028999Y-110898141D01*
X184028999Y-109937656D01*
X184130900Y-110025952D01*
X184261685Y-110085680D01*
X184368237Y-110101000D01*
X184439763Y-110101000D01*
X184546315Y-110085680D01*
X184677100Y-110025952D01*
X184734748Y-109976000D01*
X184779000Y-109976000D01*
X184779000Y-110898141D01*
X184867491Y-110874430D01*
X185081576Y-110774600D01*
X185275081Y-110639106D01*
X185442106Y-110472081D01*
X185577600Y-110278576D01*
X185677430Y-110064491D01*
X185701142Y-109976000D01*
X184779000Y-109976000D01*
X184734748Y-109976000D01*
X184785761Y-109931798D01*
X184863493Y-109810844D01*
X184904000Y-109672889D01*
X184904000Y-109529111D01*
X184863493Y-109391156D01*
X184785761Y-109270202D01*
X184734748Y-109226000D01*
X185701142Y-109226000D01*
X185701141Y-109225999D01*
X185677430Y-109137507D01*
X185577599Y-108923421D01*
X185442109Y-108729921D01*
X185275081Y-108562893D01*
X185089404Y-108432880D01*
X185045780Y-108378303D01*
X185038587Y-108308804D01*
X185070109Y-108246450D01*
X185089399Y-108229734D01*
X185275401Y-108099495D01*
X185442495Y-107932401D01*
X185578035Y-107738830D01*
X185677903Y-107524663D01*
X185739063Y-107296408D01*
X185759659Y-107061000D01*
X185739063Y-106825592D01*
X185677903Y-106597337D01*
X185578035Y-106383171D01*
X185442495Y-106189599D01*
X185275401Y-106022505D01*
X185089839Y-105892573D01*
X185046216Y-105837998D01*
X185039022Y-105768500D01*
X185070545Y-105706145D01*
X185089837Y-105689428D01*
X185275401Y-105559495D01*
X185442495Y-105392401D01*
X185578035Y-105198830D01*
X185677903Y-104984663D01*
X185739063Y-104756408D01*
X185759659Y-104521000D01*
X185739063Y-104285592D01*
X185677903Y-104057337D01*
X185578035Y-103843171D01*
X185442495Y-103649599D01*
X185275401Y-103482505D01*
X185089839Y-103352573D01*
X185046215Y-103297997D01*
X185039023Y-103228498D01*
X185070545Y-103166144D01*
X185089831Y-103149432D01*
X185275401Y-103019495D01*
X185442495Y-102852401D01*
X185578035Y-102658830D01*
X185677903Y-102444663D01*
X185739063Y-102216408D01*
X185759659Y-101981000D01*
X185739063Y-101745592D01*
X185677903Y-101517337D01*
X185578035Y-101303171D01*
X185442495Y-101109599D01*
X185275401Y-100942505D01*
X185089839Y-100812573D01*
X185046216Y-100757998D01*
X185039022Y-100688500D01*
X185070545Y-100626145D01*
X185089837Y-100609428D01*
X185275401Y-100479495D01*
X185442495Y-100312401D01*
X185578035Y-100118830D01*
X185677903Y-99904663D01*
X185739063Y-99676408D01*
X185759659Y-99441000D01*
X185758634Y-99429290D01*
X185739063Y-99205592D01*
X185739063Y-99205591D01*
X185677903Y-98977337D01*
X185578035Y-98763171D01*
X185442495Y-98569599D01*
X185275401Y-98402505D01*
X185089839Y-98272573D01*
X185046215Y-98217997D01*
X185039023Y-98148498D01*
X185070545Y-98086144D01*
X185089831Y-98069432D01*
X185275401Y-97939495D01*
X185442495Y-97772401D01*
X185578035Y-97578830D01*
X185677903Y-97364663D01*
X185739063Y-97136408D01*
X185759659Y-96901000D01*
X185739063Y-96665592D01*
X185677903Y-96437337D01*
X185578035Y-96223171D01*
X185442495Y-96029599D01*
X185275401Y-95862505D01*
X185089402Y-95732267D01*
X185045780Y-95677692D01*
X185038587Y-95608193D01*
X185070109Y-95545839D01*
X185089405Y-95529119D01*
X185275078Y-95399109D01*
X185442106Y-95232081D01*
X185577600Y-95038576D01*
X185677430Y-94824491D01*
X185701142Y-94736000D01*
X184734748Y-94736000D01*
X184785761Y-94691798D01*
X184863493Y-94570844D01*
X184904000Y-94432889D01*
X184904000Y-94289111D01*
X184863493Y-94151156D01*
X184785761Y-94030202D01*
X184734748Y-93986000D01*
X185701142Y-93986000D01*
X185701141Y-93985999D01*
X185677430Y-93897507D01*
X185577599Y-93683421D01*
X185442109Y-93489921D01*
X185275081Y-93322893D01*
X185089404Y-93192880D01*
X185045780Y-93138303D01*
X185038587Y-93068804D01*
X185070109Y-93006450D01*
X185089399Y-92989734D01*
X185275401Y-92859495D01*
X185442495Y-92692401D01*
X185578035Y-92498830D01*
X185677903Y-92284663D01*
X185739063Y-92056408D01*
X185759659Y-91821000D01*
X185739063Y-91585592D01*
X185677903Y-91357337D01*
X185578035Y-91143171D01*
X185442495Y-90949599D01*
X185275401Y-90782505D01*
X185089839Y-90652573D01*
X185046216Y-90597998D01*
X185039022Y-90528500D01*
X185070545Y-90466145D01*
X185089837Y-90449428D01*
X185275401Y-90319495D01*
X185442495Y-90152401D01*
X185578035Y-89958830D01*
X185677903Y-89744663D01*
X185739063Y-89516408D01*
X185759659Y-89281000D01*
X185739063Y-89045592D01*
X185677903Y-88817337D01*
X185578035Y-88603171D01*
X185442495Y-88409599D01*
X185275401Y-88242505D01*
X185089839Y-88112573D01*
X185046216Y-88057998D01*
X185039022Y-87988500D01*
X185070545Y-87926145D01*
X185089837Y-87909428D01*
X185275401Y-87779495D01*
X185442495Y-87612401D01*
X185578035Y-87418830D01*
X185677903Y-87204663D01*
X185739063Y-86976408D01*
X185759659Y-86741000D01*
X185739063Y-86505592D01*
X185677903Y-86277337D01*
X185578035Y-86063171D01*
X185442495Y-85869599D01*
X185275401Y-85702505D01*
X185089839Y-85572573D01*
X185046216Y-85517998D01*
X185039022Y-85448500D01*
X185070545Y-85386145D01*
X185089837Y-85369428D01*
X185275401Y-85239495D01*
X185442495Y-85072401D01*
X185578035Y-84878830D01*
X185677903Y-84664663D01*
X185739063Y-84436408D01*
X185759659Y-84201000D01*
X185739063Y-83965592D01*
X185677903Y-83737337D01*
X185578035Y-83523171D01*
X185442495Y-83329599D01*
X185275401Y-83162505D01*
X185089839Y-83032573D01*
X185046216Y-82977998D01*
X185039022Y-82908500D01*
X185070545Y-82846145D01*
X185089837Y-82829428D01*
X185275401Y-82699495D01*
X185442495Y-82532401D01*
X185578035Y-82338830D01*
X185677903Y-82124663D01*
X185739063Y-81896408D01*
X185759659Y-81661000D01*
X185739063Y-81425592D01*
X185677903Y-81197337D01*
X185578035Y-80983171D01*
X185442495Y-80789599D01*
X185275401Y-80622505D01*
X185081830Y-80486965D01*
X185009966Y-80453454D01*
X184998159Y-80447948D01*
X184945720Y-80401775D01*
X184926568Y-80334581D01*
X184946784Y-80267700D01*
X184999950Y-80222366D01*
X185009587Y-80218532D01*
X185112690Y-80182456D01*
X185255890Y-80092477D01*
X185375477Y-79972890D01*
X185465456Y-79829690D01*
X185521313Y-79670059D01*
X185540249Y-79502000D01*
X185521313Y-79333941D01*
X185465456Y-79174310D01*
X185375477Y-79031110D01*
X185255890Y-78911523D01*
X185112690Y-78821544D01*
X184953059Y-78765687D01*
X184953058Y-78765686D01*
X184953056Y-78765686D01*
X184785000Y-78746750D01*
X184616943Y-78765686D01*
X184457310Y-78821544D01*
X184314108Y-78911524D01*
X184194524Y-79031108D01*
X184104544Y-79174310D01*
X184048686Y-79333943D01*
X184029750Y-79501999D01*
X184048686Y-79670056D01*
X184048686Y-79670058D01*
X184048687Y-79670059D01*
X184104544Y-79829690D01*
X184167916Y-79930545D01*
X184194524Y-79972891D01*
X184323989Y-80102356D01*
X184322407Y-80103937D01*
X184356257Y-80142209D01*
X184366904Y-80211262D01*
X184338528Y-80275110D01*
X184280137Y-80313481D01*
X184254801Y-80318394D01*
X184168592Y-80325936D01*
X183940336Y-80387097D01*
X183726170Y-80486965D01*
X183532601Y-80622503D01*
X183410673Y-80744431D01*
X183349350Y-80777915D01*
X183279658Y-80772931D01*
X183223725Y-80731059D01*
X183206810Y-80700082D01*
X183199658Y-80680907D01*
X183157796Y-80568669D01*
X183071546Y-80453454D01*
X182956331Y-80367204D01*
X182821483Y-80316909D01*
X182761873Y-80310500D01*
X182758550Y-80310500D01*
X180969441Y-80310500D01*
X180969422Y-80310500D01*
X180967703Y-80310500D01*
X180967699Y-80310500D01*
X180966128Y-80310501D01*
X180967539Y-80310463D01*
X180900026Y-80294501D01*
X180851516Y-80244217D01*
X180838530Y-80203471D01*
X180827689Y-80123794D01*
X180827124Y-80119638D01*
X180809421Y-80055787D01*
X180807765Y-80051931D01*
X180807762Y-80051923D01*
X180777729Y-79982003D01*
X180769357Y-79912637D01*
X180799817Y-79849756D01*
X180803431Y-79845960D01*
X180803471Y-79845895D01*
X180803477Y-79845890D01*
X180893456Y-79702690D01*
X180949313Y-79543059D01*
X180968249Y-79375000D01*
X180949313Y-79206941D01*
X180893456Y-79047310D01*
X180803477Y-78904110D01*
X180803135Y-78903768D01*
X180802296Y-78902231D01*
X180796043Y-78892280D01*
X180796652Y-78891896D01*
X180769650Y-78842445D01*
X180774634Y-78772753D01*
X180778022Y-78764575D01*
X180805338Y-78704763D01*
X180825023Y-78637724D01*
X180825024Y-78637720D01*
X180845500Y-78495304D01*
X180845500Y-75949500D01*
X180845500Y-75949499D01*
X180865185Y-75882461D01*
X180917989Y-75836706D01*
X180969500Y-75825500D01*
X187973149Y-75825500D01*
X187994202Y-75825500D01*
X188001153Y-75825694D01*
G37*
%TD.AperFunction*%
%TA.AperFunction,Conductor*%
G36*
X184022239Y-94030202D02*
G01*
X183944507Y-94151156D01*
X183904000Y-94289111D01*
X183904000Y-94432889D01*
X183944507Y-94570844D01*
X184022239Y-94691798D01*
X184073252Y-94736000D01*
X182194748Y-94736000D01*
X182245761Y-94691798D01*
X182323493Y-94570844D01*
X182364000Y-94432889D01*
X182364000Y-94289111D01*
X182323493Y-94151156D01*
X182245761Y-94030202D01*
X182194748Y-93986000D01*
X184073252Y-93986000D01*
X184022239Y-94030202D01*
G37*
%TD.AperFunction*%
%TD*%
M02*
