%TF.GenerationSoftware,KiCad,Pcbnew,7.0.2-0*%
%TF.CreationDate,2024-01-05T14:45:17-05:00*%
%TF.ProjectId,WiringHarness,57697269-6e67-4486-9172-6e6573732e6b,rev?*%
%TF.SameCoordinates,Original*%
%TF.FileFunction,Legend,Bot*%
%TF.FilePolarity,Positive*%
%FSLAX46Y46*%
G04 Gerber Fmt 4.6, Leading zero omitted, Abs format (unit mm)*
G04 Created by KiCad (PCBNEW 7.0.2-0) date 2024-01-05 14:45:17*
%MOMM*%
%LPD*%
G01*
G04 APERTURE LIST*
%ADD10C,0.150000*%
%ADD11C,0.120000*%
G04 APERTURE END LIST*
D10*
X164761904Y-92613809D02*
X164428571Y-92613809D01*
X164285714Y-93137619D02*
X164761904Y-93137619D01*
X164761904Y-93137619D02*
X164761904Y-92137619D01*
X164761904Y-92137619D02*
X164285714Y-92137619D01*
X163857142Y-93137619D02*
X163857142Y-92137619D01*
X163857142Y-92137619D02*
X163285714Y-93137619D01*
X163285714Y-93137619D02*
X163285714Y-92137619D01*
X162285714Y-92185238D02*
X162380952Y-92137619D01*
X162380952Y-92137619D02*
X162523809Y-92137619D01*
X162523809Y-92137619D02*
X162666666Y-92185238D01*
X162666666Y-92185238D02*
X162761904Y-92280476D01*
X162761904Y-92280476D02*
X162809523Y-92375714D01*
X162809523Y-92375714D02*
X162857142Y-92566190D01*
X162857142Y-92566190D02*
X162857142Y-92709047D01*
X162857142Y-92709047D02*
X162809523Y-92899523D01*
X162809523Y-92899523D02*
X162761904Y-92994761D01*
X162761904Y-92994761D02*
X162666666Y-93090000D01*
X162666666Y-93090000D02*
X162523809Y-93137619D01*
X162523809Y-93137619D02*
X162428571Y-93137619D01*
X162428571Y-93137619D02*
X162285714Y-93090000D01*
X162285714Y-93090000D02*
X162238095Y-93042380D01*
X162238095Y-93042380D02*
X162238095Y-92709047D01*
X162238095Y-92709047D02*
X162428571Y-92709047D01*
X161857142Y-93090000D02*
X161714285Y-93137619D01*
X161714285Y-93137619D02*
X161476190Y-93137619D01*
X161476190Y-93137619D02*
X161380952Y-93090000D01*
X161380952Y-93090000D02*
X161333333Y-93042380D01*
X161333333Y-93042380D02*
X161285714Y-92947142D01*
X161285714Y-92947142D02*
X161285714Y-92851904D01*
X161285714Y-92851904D02*
X161333333Y-92756666D01*
X161333333Y-92756666D02*
X161380952Y-92709047D01*
X161380952Y-92709047D02*
X161476190Y-92661428D01*
X161476190Y-92661428D02*
X161666666Y-92613809D01*
X161666666Y-92613809D02*
X161761904Y-92566190D01*
X161761904Y-92566190D02*
X161809523Y-92518571D01*
X161809523Y-92518571D02*
X161857142Y-92423333D01*
X161857142Y-92423333D02*
X161857142Y-92328095D01*
X161857142Y-92328095D02*
X161809523Y-92232857D01*
X161809523Y-92232857D02*
X161761904Y-92185238D01*
X161761904Y-92185238D02*
X161666666Y-92137619D01*
X161666666Y-92137619D02*
X161428571Y-92137619D01*
X161428571Y-92137619D02*
X161285714Y-92185238D01*
X160904761Y-92232857D02*
X160857142Y-92185238D01*
X160857142Y-92185238D02*
X160761904Y-92137619D01*
X160761904Y-92137619D02*
X160523809Y-92137619D01*
X160523809Y-92137619D02*
X160428571Y-92185238D01*
X160428571Y-92185238D02*
X160380952Y-92232857D01*
X160380952Y-92232857D02*
X160333333Y-92328095D01*
X160333333Y-92328095D02*
X160333333Y-92423333D01*
X160333333Y-92423333D02*
X160380952Y-92566190D01*
X160380952Y-92566190D02*
X160952380Y-93137619D01*
X160952380Y-93137619D02*
X160333333Y-93137619D01*
X159761904Y-92566190D02*
X159857142Y-92518571D01*
X159857142Y-92518571D02*
X159904761Y-92470952D01*
X159904761Y-92470952D02*
X159952380Y-92375714D01*
X159952380Y-92375714D02*
X159952380Y-92328095D01*
X159952380Y-92328095D02*
X159904761Y-92232857D01*
X159904761Y-92232857D02*
X159857142Y-92185238D01*
X159857142Y-92185238D02*
X159761904Y-92137619D01*
X159761904Y-92137619D02*
X159571428Y-92137619D01*
X159571428Y-92137619D02*
X159476190Y-92185238D01*
X159476190Y-92185238D02*
X159428571Y-92232857D01*
X159428571Y-92232857D02*
X159380952Y-92328095D01*
X159380952Y-92328095D02*
X159380952Y-92375714D01*
X159380952Y-92375714D02*
X159428571Y-92470952D01*
X159428571Y-92470952D02*
X159476190Y-92518571D01*
X159476190Y-92518571D02*
X159571428Y-92566190D01*
X159571428Y-92566190D02*
X159761904Y-92566190D01*
X159761904Y-92566190D02*
X159857142Y-92613809D01*
X159857142Y-92613809D02*
X159904761Y-92661428D01*
X159904761Y-92661428D02*
X159952380Y-92756666D01*
X159952380Y-92756666D02*
X159952380Y-92947142D01*
X159952380Y-92947142D02*
X159904761Y-93042380D01*
X159904761Y-93042380D02*
X159857142Y-93090000D01*
X159857142Y-93090000D02*
X159761904Y-93137619D01*
X159761904Y-93137619D02*
X159571428Y-93137619D01*
X159571428Y-93137619D02*
X159476190Y-93090000D01*
X159476190Y-93090000D02*
X159428571Y-93042380D01*
X159428571Y-93042380D02*
X159380952Y-92947142D01*
X159380952Y-92947142D02*
X159380952Y-92756666D01*
X159380952Y-92756666D02*
X159428571Y-92661428D01*
X159428571Y-92661428D02*
X159476190Y-92613809D01*
X159476190Y-92613809D02*
X159571428Y-92566190D01*
X158190475Y-93137619D02*
X158190475Y-92137619D01*
X158190475Y-92137619D02*
X157857142Y-92851904D01*
X157857142Y-92851904D02*
X157523809Y-92137619D01*
X157523809Y-92137619D02*
X157523809Y-93137619D01*
X156619047Y-93137619D02*
X156619047Y-92613809D01*
X156619047Y-92613809D02*
X156666666Y-92518571D01*
X156666666Y-92518571D02*
X156761904Y-92470952D01*
X156761904Y-92470952D02*
X156952380Y-92470952D01*
X156952380Y-92470952D02*
X157047618Y-92518571D01*
X156619047Y-93090000D02*
X156714285Y-93137619D01*
X156714285Y-93137619D02*
X156952380Y-93137619D01*
X156952380Y-93137619D02*
X157047618Y-93090000D01*
X157047618Y-93090000D02*
X157095237Y-92994761D01*
X157095237Y-92994761D02*
X157095237Y-92899523D01*
X157095237Y-92899523D02*
X157047618Y-92804285D01*
X157047618Y-92804285D02*
X156952380Y-92756666D01*
X156952380Y-92756666D02*
X156714285Y-92756666D01*
X156714285Y-92756666D02*
X156619047Y-92709047D01*
X156238094Y-92470952D02*
X155714285Y-92470952D01*
X155714285Y-92470952D02*
X156238094Y-93137619D01*
X156238094Y-93137619D02*
X155714285Y-93137619D01*
X154952380Y-93090000D02*
X155047618Y-93137619D01*
X155047618Y-93137619D02*
X155238094Y-93137619D01*
X155238094Y-93137619D02*
X155333332Y-93090000D01*
X155333332Y-93090000D02*
X155380951Y-92994761D01*
X155380951Y-92994761D02*
X155380951Y-92613809D01*
X155380951Y-92613809D02*
X155333332Y-92518571D01*
X155333332Y-92518571D02*
X155238094Y-92470952D01*
X155238094Y-92470952D02*
X155047618Y-92470952D01*
X155047618Y-92470952D02*
X154952380Y-92518571D01*
X154952380Y-92518571D02*
X154904761Y-92613809D01*
X154904761Y-92613809D02*
X154904761Y-92709047D01*
X154904761Y-92709047D02*
X155380951Y-92804285D01*
X153142856Y-93042380D02*
X153190475Y-93090000D01*
X153190475Y-93090000D02*
X153333332Y-93137619D01*
X153333332Y-93137619D02*
X153428570Y-93137619D01*
X153428570Y-93137619D02*
X153571427Y-93090000D01*
X153571427Y-93090000D02*
X153666665Y-92994761D01*
X153666665Y-92994761D02*
X153714284Y-92899523D01*
X153714284Y-92899523D02*
X153761903Y-92709047D01*
X153761903Y-92709047D02*
X153761903Y-92566190D01*
X153761903Y-92566190D02*
X153714284Y-92375714D01*
X153714284Y-92375714D02*
X153666665Y-92280476D01*
X153666665Y-92280476D02*
X153571427Y-92185238D01*
X153571427Y-92185238D02*
X153428570Y-92137619D01*
X153428570Y-92137619D02*
X153333332Y-92137619D01*
X153333332Y-92137619D02*
X153190475Y-92185238D01*
X153190475Y-92185238D02*
X153142856Y-92232857D01*
X152571427Y-93137619D02*
X152666665Y-93090000D01*
X152666665Y-93090000D02*
X152714284Y-93042380D01*
X152714284Y-93042380D02*
X152761903Y-92947142D01*
X152761903Y-92947142D02*
X152761903Y-92661428D01*
X152761903Y-92661428D02*
X152714284Y-92566190D01*
X152714284Y-92566190D02*
X152666665Y-92518571D01*
X152666665Y-92518571D02*
X152571427Y-92470952D01*
X152571427Y-92470952D02*
X152428570Y-92470952D01*
X152428570Y-92470952D02*
X152333332Y-92518571D01*
X152333332Y-92518571D02*
X152285713Y-92566190D01*
X152285713Y-92566190D02*
X152238094Y-92661428D01*
X152238094Y-92661428D02*
X152238094Y-92947142D01*
X152238094Y-92947142D02*
X152285713Y-93042380D01*
X152285713Y-93042380D02*
X152333332Y-93090000D01*
X152333332Y-93090000D02*
X152428570Y-93137619D01*
X152428570Y-93137619D02*
X152571427Y-93137619D01*
X151809522Y-92470952D02*
X151809522Y-93137619D01*
X151809522Y-92566190D02*
X151761903Y-92518571D01*
X151761903Y-92518571D02*
X151666665Y-92470952D01*
X151666665Y-92470952D02*
X151523808Y-92470952D01*
X151523808Y-92470952D02*
X151428570Y-92518571D01*
X151428570Y-92518571D02*
X151380951Y-92613809D01*
X151380951Y-92613809D02*
X151380951Y-93137619D01*
X151047617Y-92470952D02*
X150666665Y-92470952D01*
X150904760Y-92137619D02*
X150904760Y-92994761D01*
X150904760Y-92994761D02*
X150857141Y-93090000D01*
X150857141Y-93090000D02*
X150761903Y-93137619D01*
X150761903Y-93137619D02*
X150666665Y-93137619D01*
X150333331Y-93137619D02*
X150333331Y-92470952D01*
X150333331Y-92661428D02*
X150285712Y-92566190D01*
X150285712Y-92566190D02*
X150238093Y-92518571D01*
X150238093Y-92518571D02*
X150142855Y-92470952D01*
X150142855Y-92470952D02*
X150047617Y-92470952D01*
X149571426Y-93137619D02*
X149666664Y-93090000D01*
X149666664Y-93090000D02*
X149714283Y-93042380D01*
X149714283Y-93042380D02*
X149761902Y-92947142D01*
X149761902Y-92947142D02*
X149761902Y-92661428D01*
X149761902Y-92661428D02*
X149714283Y-92566190D01*
X149714283Y-92566190D02*
X149666664Y-92518571D01*
X149666664Y-92518571D02*
X149571426Y-92470952D01*
X149571426Y-92470952D02*
X149428569Y-92470952D01*
X149428569Y-92470952D02*
X149333331Y-92518571D01*
X149333331Y-92518571D02*
X149285712Y-92566190D01*
X149285712Y-92566190D02*
X149238093Y-92661428D01*
X149238093Y-92661428D02*
X149238093Y-92947142D01*
X149238093Y-92947142D02*
X149285712Y-93042380D01*
X149285712Y-93042380D02*
X149333331Y-93090000D01*
X149333331Y-93090000D02*
X149428569Y-93137619D01*
X149428569Y-93137619D02*
X149571426Y-93137619D01*
X148666664Y-93137619D02*
X148761902Y-93090000D01*
X148761902Y-93090000D02*
X148809521Y-92994761D01*
X148809521Y-92994761D02*
X148809521Y-92137619D01*
X148142854Y-93137619D02*
X148238092Y-93090000D01*
X148238092Y-93090000D02*
X148285711Y-92994761D01*
X148285711Y-92994761D02*
X148285711Y-92137619D01*
X147380949Y-93090000D02*
X147476187Y-93137619D01*
X147476187Y-93137619D02*
X147666663Y-93137619D01*
X147666663Y-93137619D02*
X147761901Y-93090000D01*
X147761901Y-93090000D02*
X147809520Y-92994761D01*
X147809520Y-92994761D02*
X147809520Y-92613809D01*
X147809520Y-92613809D02*
X147761901Y-92518571D01*
X147761901Y-92518571D02*
X147666663Y-92470952D01*
X147666663Y-92470952D02*
X147476187Y-92470952D01*
X147476187Y-92470952D02*
X147380949Y-92518571D01*
X147380949Y-92518571D02*
X147333330Y-92613809D01*
X147333330Y-92613809D02*
X147333330Y-92709047D01*
X147333330Y-92709047D02*
X147809520Y-92804285D01*
X146904758Y-93137619D02*
X146904758Y-92470952D01*
X146904758Y-92661428D02*
X146857139Y-92566190D01*
X146857139Y-92566190D02*
X146809520Y-92518571D01*
X146809520Y-92518571D02*
X146714282Y-92470952D01*
X146714282Y-92470952D02*
X146619044Y-92470952D01*
X145619043Y-92470952D02*
X145428567Y-93137619D01*
X145428567Y-93137619D02*
X145238091Y-92661428D01*
X145238091Y-92661428D02*
X145047615Y-93137619D01*
X145047615Y-93137619D02*
X144857139Y-92470952D01*
X144476186Y-93137619D02*
X144476186Y-92470952D01*
X144476186Y-92137619D02*
X144523805Y-92185238D01*
X144523805Y-92185238D02*
X144476186Y-92232857D01*
X144476186Y-92232857D02*
X144428567Y-92185238D01*
X144428567Y-92185238D02*
X144476186Y-92137619D01*
X144476186Y-92137619D02*
X144476186Y-92232857D01*
X143999996Y-93137619D02*
X143999996Y-92470952D01*
X143999996Y-92661428D02*
X143952377Y-92566190D01*
X143952377Y-92566190D02*
X143904758Y-92518571D01*
X143904758Y-92518571D02*
X143809520Y-92470952D01*
X143809520Y-92470952D02*
X143714282Y-92470952D01*
X143380948Y-93137619D02*
X143380948Y-92470952D01*
X143380948Y-92137619D02*
X143428567Y-92185238D01*
X143428567Y-92185238D02*
X143380948Y-92232857D01*
X143380948Y-92232857D02*
X143333329Y-92185238D01*
X143333329Y-92185238D02*
X143380948Y-92137619D01*
X143380948Y-92137619D02*
X143380948Y-92232857D01*
X142904758Y-92470952D02*
X142904758Y-93137619D01*
X142904758Y-92566190D02*
X142857139Y-92518571D01*
X142857139Y-92518571D02*
X142761901Y-92470952D01*
X142761901Y-92470952D02*
X142619044Y-92470952D01*
X142619044Y-92470952D02*
X142523806Y-92518571D01*
X142523806Y-92518571D02*
X142476187Y-92613809D01*
X142476187Y-92613809D02*
X142476187Y-93137619D01*
X141571425Y-92470952D02*
X141571425Y-93280476D01*
X141571425Y-93280476D02*
X141619044Y-93375714D01*
X141619044Y-93375714D02*
X141666663Y-93423333D01*
X141666663Y-93423333D02*
X141761901Y-93470952D01*
X141761901Y-93470952D02*
X141904758Y-93470952D01*
X141904758Y-93470952D02*
X141999996Y-93423333D01*
X141571425Y-93090000D02*
X141666663Y-93137619D01*
X141666663Y-93137619D02*
X141857139Y-93137619D01*
X141857139Y-93137619D02*
X141952377Y-93090000D01*
X141952377Y-93090000D02*
X141999996Y-93042380D01*
X141999996Y-93042380D02*
X142047615Y-92947142D01*
X142047615Y-92947142D02*
X142047615Y-92661428D01*
X142047615Y-92661428D02*
X141999996Y-92566190D01*
X141999996Y-92566190D02*
X141952377Y-92518571D01*
X141952377Y-92518571D02*
X141857139Y-92470952D01*
X141857139Y-92470952D02*
X141666663Y-92470952D01*
X141666663Y-92470952D02*
X141571425Y-92518571D01*
X140333329Y-93137619D02*
X140333329Y-92137619D01*
X139904758Y-93137619D02*
X139904758Y-92613809D01*
X139904758Y-92613809D02*
X139952377Y-92518571D01*
X139952377Y-92518571D02*
X140047615Y-92470952D01*
X140047615Y-92470952D02*
X140190472Y-92470952D01*
X140190472Y-92470952D02*
X140285710Y-92518571D01*
X140285710Y-92518571D02*
X140333329Y-92566190D01*
X138999996Y-93137619D02*
X138999996Y-92613809D01*
X138999996Y-92613809D02*
X139047615Y-92518571D01*
X139047615Y-92518571D02*
X139142853Y-92470952D01*
X139142853Y-92470952D02*
X139333329Y-92470952D01*
X139333329Y-92470952D02*
X139428567Y-92518571D01*
X138999996Y-93090000D02*
X139095234Y-93137619D01*
X139095234Y-93137619D02*
X139333329Y-93137619D01*
X139333329Y-93137619D02*
X139428567Y-93090000D01*
X139428567Y-93090000D02*
X139476186Y-92994761D01*
X139476186Y-92994761D02*
X139476186Y-92899523D01*
X139476186Y-92899523D02*
X139428567Y-92804285D01*
X139428567Y-92804285D02*
X139333329Y-92756666D01*
X139333329Y-92756666D02*
X139095234Y-92756666D01*
X139095234Y-92756666D02*
X138999996Y-92709047D01*
X138523805Y-93137619D02*
X138523805Y-92470952D01*
X138523805Y-92661428D02*
X138476186Y-92566190D01*
X138476186Y-92566190D02*
X138428567Y-92518571D01*
X138428567Y-92518571D02*
X138333329Y-92470952D01*
X138333329Y-92470952D02*
X138238091Y-92470952D01*
X137904757Y-92470952D02*
X137904757Y-93137619D01*
X137904757Y-92566190D02*
X137857138Y-92518571D01*
X137857138Y-92518571D02*
X137761900Y-92470952D01*
X137761900Y-92470952D02*
X137619043Y-92470952D01*
X137619043Y-92470952D02*
X137523805Y-92518571D01*
X137523805Y-92518571D02*
X137476186Y-92613809D01*
X137476186Y-92613809D02*
X137476186Y-93137619D01*
X136619043Y-93090000D02*
X136714281Y-93137619D01*
X136714281Y-93137619D02*
X136904757Y-93137619D01*
X136904757Y-93137619D02*
X136999995Y-93090000D01*
X136999995Y-93090000D02*
X137047614Y-92994761D01*
X137047614Y-92994761D02*
X137047614Y-92613809D01*
X137047614Y-92613809D02*
X136999995Y-92518571D01*
X136999995Y-92518571D02*
X136904757Y-92470952D01*
X136904757Y-92470952D02*
X136714281Y-92470952D01*
X136714281Y-92470952D02*
X136619043Y-92518571D01*
X136619043Y-92518571D02*
X136571424Y-92613809D01*
X136571424Y-92613809D02*
X136571424Y-92709047D01*
X136571424Y-92709047D02*
X137047614Y-92804285D01*
X136190471Y-93090000D02*
X136095233Y-93137619D01*
X136095233Y-93137619D02*
X135904757Y-93137619D01*
X135904757Y-93137619D02*
X135809519Y-93090000D01*
X135809519Y-93090000D02*
X135761900Y-92994761D01*
X135761900Y-92994761D02*
X135761900Y-92947142D01*
X135761900Y-92947142D02*
X135809519Y-92851904D01*
X135809519Y-92851904D02*
X135904757Y-92804285D01*
X135904757Y-92804285D02*
X136047614Y-92804285D01*
X136047614Y-92804285D02*
X136142852Y-92756666D01*
X136142852Y-92756666D02*
X136190471Y-92661428D01*
X136190471Y-92661428D02*
X136190471Y-92613809D01*
X136190471Y-92613809D02*
X136142852Y-92518571D01*
X136142852Y-92518571D02*
X136047614Y-92470952D01*
X136047614Y-92470952D02*
X135904757Y-92470952D01*
X135904757Y-92470952D02*
X135809519Y-92518571D01*
X135380947Y-93090000D02*
X135285709Y-93137619D01*
X135285709Y-93137619D02*
X135095233Y-93137619D01*
X135095233Y-93137619D02*
X134999995Y-93090000D01*
X134999995Y-93090000D02*
X134952376Y-92994761D01*
X134952376Y-92994761D02*
X134952376Y-92947142D01*
X134952376Y-92947142D02*
X134999995Y-92851904D01*
X134999995Y-92851904D02*
X135095233Y-92804285D01*
X135095233Y-92804285D02*
X135238090Y-92804285D01*
X135238090Y-92804285D02*
X135333328Y-92756666D01*
X135333328Y-92756666D02*
X135380947Y-92661428D01*
X135380947Y-92661428D02*
X135380947Y-92613809D01*
X135380947Y-92613809D02*
X135333328Y-92518571D01*
X135333328Y-92518571D02*
X135238090Y-92470952D01*
X135238090Y-92470952D02*
X135095233Y-92470952D01*
X135095233Y-92470952D02*
X134999995Y-92518571D01*
X164904761Y-93757619D02*
X164571428Y-94757619D01*
X164571428Y-94757619D02*
X164238095Y-93757619D01*
X163380952Y-94757619D02*
X163952380Y-94757619D01*
X163666666Y-94757619D02*
X163666666Y-93757619D01*
X163666666Y-93757619D02*
X163761904Y-93900476D01*
X163761904Y-93900476D02*
X163857142Y-93995714D01*
X163857142Y-93995714D02*
X163952380Y-94043333D01*
X162952380Y-94662380D02*
X162904761Y-94710000D01*
X162904761Y-94710000D02*
X162952380Y-94757619D01*
X162952380Y-94757619D02*
X162999999Y-94710000D01*
X162999999Y-94710000D02*
X162952380Y-94662380D01*
X162952380Y-94662380D02*
X162952380Y-94757619D01*
X162285714Y-93757619D02*
X162190476Y-93757619D01*
X162190476Y-93757619D02*
X162095238Y-93805238D01*
X162095238Y-93805238D02*
X162047619Y-93852857D01*
X162047619Y-93852857D02*
X162000000Y-93948095D01*
X162000000Y-93948095D02*
X161952381Y-94138571D01*
X161952381Y-94138571D02*
X161952381Y-94376666D01*
X161952381Y-94376666D02*
X162000000Y-94567142D01*
X162000000Y-94567142D02*
X162047619Y-94662380D01*
X162047619Y-94662380D02*
X162095238Y-94710000D01*
X162095238Y-94710000D02*
X162190476Y-94757619D01*
X162190476Y-94757619D02*
X162285714Y-94757619D01*
X162285714Y-94757619D02*
X162380952Y-94710000D01*
X162380952Y-94710000D02*
X162428571Y-94662380D01*
X162428571Y-94662380D02*
X162476190Y-94567142D01*
X162476190Y-94567142D02*
X162523809Y-94376666D01*
X162523809Y-94376666D02*
X162523809Y-94138571D01*
X162523809Y-94138571D02*
X162476190Y-93948095D01*
X162476190Y-93948095D02*
X162428571Y-93852857D01*
X162428571Y-93852857D02*
X162380952Y-93805238D01*
X162380952Y-93805238D02*
X162285714Y-93757619D01*
X160761904Y-94376666D02*
X160000000Y-94376666D01*
X158904761Y-93757619D02*
X158333333Y-93757619D01*
X158619047Y-94757619D02*
X158619047Y-93757619D01*
X157571428Y-94757619D02*
X157571428Y-94233809D01*
X157571428Y-94233809D02*
X157619047Y-94138571D01*
X157619047Y-94138571D02*
X157714285Y-94090952D01*
X157714285Y-94090952D02*
X157904761Y-94090952D01*
X157904761Y-94090952D02*
X157999999Y-94138571D01*
X157571428Y-94710000D02*
X157666666Y-94757619D01*
X157666666Y-94757619D02*
X157904761Y-94757619D01*
X157904761Y-94757619D02*
X157999999Y-94710000D01*
X157999999Y-94710000D02*
X158047618Y-94614761D01*
X158047618Y-94614761D02*
X158047618Y-94519523D01*
X158047618Y-94519523D02*
X157999999Y-94424285D01*
X157999999Y-94424285D02*
X157904761Y-94376666D01*
X157904761Y-94376666D02*
X157666666Y-94376666D01*
X157666666Y-94376666D02*
X157571428Y-94329047D01*
X156666666Y-94757619D02*
X156666666Y-93757619D01*
X156666666Y-94710000D02*
X156761904Y-94757619D01*
X156761904Y-94757619D02*
X156952380Y-94757619D01*
X156952380Y-94757619D02*
X157047618Y-94710000D01*
X157047618Y-94710000D02*
X157095237Y-94662380D01*
X157095237Y-94662380D02*
X157142856Y-94567142D01*
X157142856Y-94567142D02*
X157142856Y-94281428D01*
X157142856Y-94281428D02*
X157095237Y-94186190D01*
X157095237Y-94186190D02*
X157047618Y-94138571D01*
X157047618Y-94138571D02*
X156952380Y-94090952D01*
X156952380Y-94090952D02*
X156761904Y-94090952D01*
X156761904Y-94090952D02*
X156666666Y-94138571D01*
X155571427Y-93757619D02*
X154999999Y-93757619D01*
X155285713Y-94757619D02*
X155285713Y-93757619D01*
X154666665Y-94757619D02*
X154666665Y-94090952D01*
X154666665Y-94281428D02*
X154619046Y-94186190D01*
X154619046Y-94186190D02*
X154571427Y-94138571D01*
X154571427Y-94138571D02*
X154476189Y-94090952D01*
X154476189Y-94090952D02*
X154380951Y-94090952D01*
X153619046Y-94090952D02*
X153619046Y-94757619D01*
X154047617Y-94090952D02*
X154047617Y-94614761D01*
X154047617Y-94614761D02*
X153999998Y-94710000D01*
X153999998Y-94710000D02*
X153904760Y-94757619D01*
X153904760Y-94757619D02*
X153761903Y-94757619D01*
X153761903Y-94757619D02*
X153666665Y-94710000D01*
X153666665Y-94710000D02*
X153619046Y-94662380D01*
X152761903Y-94710000D02*
X152857141Y-94757619D01*
X152857141Y-94757619D02*
X153047617Y-94757619D01*
X153047617Y-94757619D02*
X153142855Y-94710000D01*
X153142855Y-94710000D02*
X153190474Y-94614761D01*
X153190474Y-94614761D02*
X153190474Y-94233809D01*
X153190474Y-94233809D02*
X153142855Y-94138571D01*
X153142855Y-94138571D02*
X153047617Y-94090952D01*
X153047617Y-94090952D02*
X152857141Y-94090952D01*
X152857141Y-94090952D02*
X152761903Y-94138571D01*
X152761903Y-94138571D02*
X152714284Y-94233809D01*
X152714284Y-94233809D02*
X152714284Y-94329047D01*
X152714284Y-94329047D02*
X153190474Y-94424285D01*
X152380950Y-94757619D02*
X151857141Y-94090952D01*
X152380950Y-94090952D02*
X151857141Y-94757619D01*
X164190476Y-96282380D02*
X164238095Y-96330000D01*
X164238095Y-96330000D02*
X164380952Y-96377619D01*
X164380952Y-96377619D02*
X164476190Y-96377619D01*
X164476190Y-96377619D02*
X164619047Y-96330000D01*
X164619047Y-96330000D02*
X164714285Y-96234761D01*
X164714285Y-96234761D02*
X164761904Y-96139523D01*
X164761904Y-96139523D02*
X164809523Y-95949047D01*
X164809523Y-95949047D02*
X164809523Y-95806190D01*
X164809523Y-95806190D02*
X164761904Y-95615714D01*
X164761904Y-95615714D02*
X164714285Y-95520476D01*
X164714285Y-95520476D02*
X164619047Y-95425238D01*
X164619047Y-95425238D02*
X164476190Y-95377619D01*
X164476190Y-95377619D02*
X164380952Y-95377619D01*
X164380952Y-95377619D02*
X164238095Y-95425238D01*
X164238095Y-95425238D02*
X164190476Y-95472857D01*
X163619047Y-96377619D02*
X163714285Y-96330000D01*
X163714285Y-96330000D02*
X163761904Y-96282380D01*
X163761904Y-96282380D02*
X163809523Y-96187142D01*
X163809523Y-96187142D02*
X163809523Y-95901428D01*
X163809523Y-95901428D02*
X163761904Y-95806190D01*
X163761904Y-95806190D02*
X163714285Y-95758571D01*
X163714285Y-95758571D02*
X163619047Y-95710952D01*
X163619047Y-95710952D02*
X163476190Y-95710952D01*
X163476190Y-95710952D02*
X163380952Y-95758571D01*
X163380952Y-95758571D02*
X163333333Y-95806190D01*
X163333333Y-95806190D02*
X163285714Y-95901428D01*
X163285714Y-95901428D02*
X163285714Y-96187142D01*
X163285714Y-96187142D02*
X163333333Y-96282380D01*
X163333333Y-96282380D02*
X163380952Y-96330000D01*
X163380952Y-96330000D02*
X163476190Y-96377619D01*
X163476190Y-96377619D02*
X163619047Y-96377619D01*
X162857142Y-95710952D02*
X162857142Y-96710952D01*
X162857142Y-95758571D02*
X162761904Y-95710952D01*
X162761904Y-95710952D02*
X162571428Y-95710952D01*
X162571428Y-95710952D02*
X162476190Y-95758571D01*
X162476190Y-95758571D02*
X162428571Y-95806190D01*
X162428571Y-95806190D02*
X162380952Y-95901428D01*
X162380952Y-95901428D02*
X162380952Y-96187142D01*
X162380952Y-96187142D02*
X162428571Y-96282380D01*
X162428571Y-96282380D02*
X162476190Y-96330000D01*
X162476190Y-96330000D02*
X162571428Y-96377619D01*
X162571428Y-96377619D02*
X162761904Y-96377619D01*
X162761904Y-96377619D02*
X162857142Y-96330000D01*
X162047618Y-95710952D02*
X161809523Y-96377619D01*
X161571428Y-95710952D02*
X161809523Y-96377619D01*
X161809523Y-96377619D02*
X161904761Y-96615714D01*
X161904761Y-96615714D02*
X161952380Y-96663333D01*
X161952380Y-96663333D02*
X162047618Y-96710952D01*
X161190475Y-96377619D02*
X161190475Y-95710952D01*
X161190475Y-95901428D02*
X161142856Y-95806190D01*
X161142856Y-95806190D02*
X161095237Y-95758571D01*
X161095237Y-95758571D02*
X160999999Y-95710952D01*
X160999999Y-95710952D02*
X160904761Y-95710952D01*
X160571427Y-96377619D02*
X160571427Y-95710952D01*
X160571427Y-95377619D02*
X160619046Y-95425238D01*
X160619046Y-95425238D02*
X160571427Y-95472857D01*
X160571427Y-95472857D02*
X160523808Y-95425238D01*
X160523808Y-95425238D02*
X160571427Y-95377619D01*
X160571427Y-95377619D02*
X160571427Y-95472857D01*
X159666666Y-95710952D02*
X159666666Y-96520476D01*
X159666666Y-96520476D02*
X159714285Y-96615714D01*
X159714285Y-96615714D02*
X159761904Y-96663333D01*
X159761904Y-96663333D02*
X159857142Y-96710952D01*
X159857142Y-96710952D02*
X159999999Y-96710952D01*
X159999999Y-96710952D02*
X160095237Y-96663333D01*
X159666666Y-96330000D02*
X159761904Y-96377619D01*
X159761904Y-96377619D02*
X159952380Y-96377619D01*
X159952380Y-96377619D02*
X160047618Y-96330000D01*
X160047618Y-96330000D02*
X160095237Y-96282380D01*
X160095237Y-96282380D02*
X160142856Y-96187142D01*
X160142856Y-96187142D02*
X160142856Y-95901428D01*
X160142856Y-95901428D02*
X160095237Y-95806190D01*
X160095237Y-95806190D02*
X160047618Y-95758571D01*
X160047618Y-95758571D02*
X159952380Y-95710952D01*
X159952380Y-95710952D02*
X159761904Y-95710952D01*
X159761904Y-95710952D02*
X159666666Y-95758571D01*
X159190475Y-96377619D02*
X159190475Y-95377619D01*
X158761904Y-96377619D02*
X158761904Y-95853809D01*
X158761904Y-95853809D02*
X158809523Y-95758571D01*
X158809523Y-95758571D02*
X158904761Y-95710952D01*
X158904761Y-95710952D02*
X159047618Y-95710952D01*
X159047618Y-95710952D02*
X159142856Y-95758571D01*
X159142856Y-95758571D02*
X159190475Y-95806190D01*
X158428570Y-95710952D02*
X158047618Y-95710952D01*
X158285713Y-95377619D02*
X158285713Y-96234761D01*
X158285713Y-96234761D02*
X158238094Y-96330000D01*
X158238094Y-96330000D02*
X158142856Y-96377619D01*
X158142856Y-96377619D02*
X158047618Y-96377619D01*
X156999998Y-95472857D02*
X156952379Y-95425238D01*
X156952379Y-95425238D02*
X156857141Y-95377619D01*
X156857141Y-95377619D02*
X156619046Y-95377619D01*
X156619046Y-95377619D02*
X156523808Y-95425238D01*
X156523808Y-95425238D02*
X156476189Y-95472857D01*
X156476189Y-95472857D02*
X156428570Y-95568095D01*
X156428570Y-95568095D02*
X156428570Y-95663333D01*
X156428570Y-95663333D02*
X156476189Y-95806190D01*
X156476189Y-95806190D02*
X157047617Y-96377619D01*
X157047617Y-96377619D02*
X156428570Y-96377619D01*
X155809522Y-95377619D02*
X155714284Y-95377619D01*
X155714284Y-95377619D02*
X155619046Y-95425238D01*
X155619046Y-95425238D02*
X155571427Y-95472857D01*
X155571427Y-95472857D02*
X155523808Y-95568095D01*
X155523808Y-95568095D02*
X155476189Y-95758571D01*
X155476189Y-95758571D02*
X155476189Y-95996666D01*
X155476189Y-95996666D02*
X155523808Y-96187142D01*
X155523808Y-96187142D02*
X155571427Y-96282380D01*
X155571427Y-96282380D02*
X155619046Y-96330000D01*
X155619046Y-96330000D02*
X155714284Y-96377619D01*
X155714284Y-96377619D02*
X155809522Y-96377619D01*
X155809522Y-96377619D02*
X155904760Y-96330000D01*
X155904760Y-96330000D02*
X155952379Y-96282380D01*
X155952379Y-96282380D02*
X155999998Y-96187142D01*
X155999998Y-96187142D02*
X156047617Y-95996666D01*
X156047617Y-95996666D02*
X156047617Y-95758571D01*
X156047617Y-95758571D02*
X155999998Y-95568095D01*
X155999998Y-95568095D02*
X155952379Y-95472857D01*
X155952379Y-95472857D02*
X155904760Y-95425238D01*
X155904760Y-95425238D02*
X155809522Y-95377619D01*
X155095236Y-95472857D02*
X155047617Y-95425238D01*
X155047617Y-95425238D02*
X154952379Y-95377619D01*
X154952379Y-95377619D02*
X154714284Y-95377619D01*
X154714284Y-95377619D02*
X154619046Y-95425238D01*
X154619046Y-95425238D02*
X154571427Y-95472857D01*
X154571427Y-95472857D02*
X154523808Y-95568095D01*
X154523808Y-95568095D02*
X154523808Y-95663333D01*
X154523808Y-95663333D02*
X154571427Y-95806190D01*
X154571427Y-95806190D02*
X155142855Y-96377619D01*
X155142855Y-96377619D02*
X154523808Y-96377619D01*
X153666665Y-95710952D02*
X153666665Y-96377619D01*
X153904760Y-95330000D02*
X154142855Y-96044285D01*
X154142855Y-96044285D02*
X153523808Y-96044285D01*
X153095236Y-96330000D02*
X153095236Y-96377619D01*
X153095236Y-96377619D02*
X153142855Y-96472857D01*
X153142855Y-96472857D02*
X153190474Y-96520476D01*
X151904760Y-96377619D02*
X151904760Y-95377619D01*
X151904760Y-95377619D02*
X151666665Y-95377619D01*
X151666665Y-95377619D02*
X151523808Y-95425238D01*
X151523808Y-95425238D02*
X151428570Y-95520476D01*
X151428570Y-95520476D02*
X151380951Y-95615714D01*
X151380951Y-95615714D02*
X151333332Y-95806190D01*
X151333332Y-95806190D02*
X151333332Y-95949047D01*
X151333332Y-95949047D02*
X151380951Y-96139523D01*
X151380951Y-96139523D02*
X151428570Y-96234761D01*
X151428570Y-96234761D02*
X151523808Y-96330000D01*
X151523808Y-96330000D02*
X151666665Y-96377619D01*
X151666665Y-96377619D02*
X151904760Y-96377619D01*
X150476189Y-96377619D02*
X150476189Y-95853809D01*
X150476189Y-95853809D02*
X150523808Y-95758571D01*
X150523808Y-95758571D02*
X150619046Y-95710952D01*
X150619046Y-95710952D02*
X150809522Y-95710952D01*
X150809522Y-95710952D02*
X150904760Y-95758571D01*
X150476189Y-96330000D02*
X150571427Y-96377619D01*
X150571427Y-96377619D02*
X150809522Y-96377619D01*
X150809522Y-96377619D02*
X150904760Y-96330000D01*
X150904760Y-96330000D02*
X150952379Y-96234761D01*
X150952379Y-96234761D02*
X150952379Y-96139523D01*
X150952379Y-96139523D02*
X150904760Y-96044285D01*
X150904760Y-96044285D02*
X150809522Y-95996666D01*
X150809522Y-95996666D02*
X150571427Y-95996666D01*
X150571427Y-95996666D02*
X150476189Y-95949047D01*
X149999998Y-96377619D02*
X149999998Y-95710952D01*
X149999998Y-95901428D02*
X149952379Y-95806190D01*
X149952379Y-95806190D02*
X149904760Y-95758571D01*
X149904760Y-95758571D02*
X149809522Y-95710952D01*
X149809522Y-95710952D02*
X149714284Y-95710952D01*
X149523807Y-95710952D02*
X149142855Y-95710952D01*
X149380950Y-95377619D02*
X149380950Y-96234761D01*
X149380950Y-96234761D02*
X149333331Y-96330000D01*
X149333331Y-96330000D02*
X149238093Y-96377619D01*
X149238093Y-96377619D02*
X149142855Y-96377619D01*
X148809521Y-96377619D02*
X148809521Y-95710952D01*
X148809521Y-95806190D02*
X148761902Y-95758571D01*
X148761902Y-95758571D02*
X148666664Y-95710952D01*
X148666664Y-95710952D02*
X148523807Y-95710952D01*
X148523807Y-95710952D02*
X148428569Y-95758571D01*
X148428569Y-95758571D02*
X148380950Y-95853809D01*
X148380950Y-95853809D02*
X148380950Y-96377619D01*
X148380950Y-95853809D02*
X148333331Y-95758571D01*
X148333331Y-95758571D02*
X148238093Y-95710952D01*
X148238093Y-95710952D02*
X148095236Y-95710952D01*
X148095236Y-95710952D02*
X147999997Y-95758571D01*
X147999997Y-95758571D02*
X147952378Y-95853809D01*
X147952378Y-95853809D02*
X147952378Y-96377619D01*
X147333331Y-96377619D02*
X147428569Y-96330000D01*
X147428569Y-96330000D02*
X147476188Y-96282380D01*
X147476188Y-96282380D02*
X147523807Y-96187142D01*
X147523807Y-96187142D02*
X147523807Y-95901428D01*
X147523807Y-95901428D02*
X147476188Y-95806190D01*
X147476188Y-95806190D02*
X147428569Y-95758571D01*
X147428569Y-95758571D02*
X147333331Y-95710952D01*
X147333331Y-95710952D02*
X147190474Y-95710952D01*
X147190474Y-95710952D02*
X147095236Y-95758571D01*
X147095236Y-95758571D02*
X147047617Y-95806190D01*
X147047617Y-95806190D02*
X146999998Y-95901428D01*
X146999998Y-95901428D02*
X146999998Y-96187142D01*
X146999998Y-96187142D02*
X147047617Y-96282380D01*
X147047617Y-96282380D02*
X147095236Y-96330000D01*
X147095236Y-96330000D02*
X147190474Y-96377619D01*
X147190474Y-96377619D02*
X147333331Y-96377619D01*
X146142855Y-95710952D02*
X146142855Y-96377619D01*
X146571426Y-95710952D02*
X146571426Y-96234761D01*
X146571426Y-96234761D02*
X146523807Y-96330000D01*
X146523807Y-96330000D02*
X146428569Y-96377619D01*
X146428569Y-96377619D02*
X146285712Y-96377619D01*
X146285712Y-96377619D02*
X146190474Y-96330000D01*
X146190474Y-96330000D02*
X146142855Y-96282380D01*
X145809521Y-95710952D02*
X145428569Y-95710952D01*
X145666664Y-95377619D02*
X145666664Y-96234761D01*
X145666664Y-96234761D02*
X145619045Y-96330000D01*
X145619045Y-96330000D02*
X145523807Y-96377619D01*
X145523807Y-96377619D02*
X145428569Y-96377619D01*
X145095235Y-96377619D02*
X145095235Y-95377619D01*
X144666664Y-96377619D02*
X144666664Y-95853809D01*
X144666664Y-95853809D02*
X144714283Y-95758571D01*
X144714283Y-95758571D02*
X144809521Y-95710952D01*
X144809521Y-95710952D02*
X144952378Y-95710952D01*
X144952378Y-95710952D02*
X145047616Y-95758571D01*
X145047616Y-95758571D02*
X145095235Y-95806190D01*
X142857140Y-96282380D02*
X142904759Y-96330000D01*
X142904759Y-96330000D02*
X143047616Y-96377619D01*
X143047616Y-96377619D02*
X143142854Y-96377619D01*
X143142854Y-96377619D02*
X143285711Y-96330000D01*
X143285711Y-96330000D02*
X143380949Y-96234761D01*
X143380949Y-96234761D02*
X143428568Y-96139523D01*
X143428568Y-96139523D02*
X143476187Y-95949047D01*
X143476187Y-95949047D02*
X143476187Y-95806190D01*
X143476187Y-95806190D02*
X143428568Y-95615714D01*
X143428568Y-95615714D02*
X143380949Y-95520476D01*
X143380949Y-95520476D02*
X143285711Y-95425238D01*
X143285711Y-95425238D02*
X143142854Y-95377619D01*
X143142854Y-95377619D02*
X143047616Y-95377619D01*
X143047616Y-95377619D02*
X142904759Y-95425238D01*
X142904759Y-95425238D02*
X142857140Y-95472857D01*
X142285711Y-96377619D02*
X142380949Y-96330000D01*
X142380949Y-96330000D02*
X142428568Y-96282380D01*
X142428568Y-96282380D02*
X142476187Y-96187142D01*
X142476187Y-96187142D02*
X142476187Y-95901428D01*
X142476187Y-95901428D02*
X142428568Y-95806190D01*
X142428568Y-95806190D02*
X142380949Y-95758571D01*
X142380949Y-95758571D02*
X142285711Y-95710952D01*
X142285711Y-95710952D02*
X142142854Y-95710952D01*
X142142854Y-95710952D02*
X142047616Y-95758571D01*
X142047616Y-95758571D02*
X141999997Y-95806190D01*
X141999997Y-95806190D02*
X141952378Y-95901428D01*
X141952378Y-95901428D02*
X141952378Y-96187142D01*
X141952378Y-96187142D02*
X141999997Y-96282380D01*
X141999997Y-96282380D02*
X142047616Y-96330000D01*
X142047616Y-96330000D02*
X142142854Y-96377619D01*
X142142854Y-96377619D02*
X142285711Y-96377619D01*
X141380949Y-96377619D02*
X141476187Y-96330000D01*
X141476187Y-96330000D02*
X141523806Y-96234761D01*
X141523806Y-96234761D02*
X141523806Y-95377619D01*
X140857139Y-96377619D02*
X140952377Y-96330000D01*
X140952377Y-96330000D02*
X140999996Y-96234761D01*
X140999996Y-96234761D02*
X140999996Y-95377619D01*
X140095234Y-96330000D02*
X140190472Y-96377619D01*
X140190472Y-96377619D02*
X140380948Y-96377619D01*
X140380948Y-96377619D02*
X140476186Y-96330000D01*
X140476186Y-96330000D02*
X140523805Y-96234761D01*
X140523805Y-96234761D02*
X140523805Y-95853809D01*
X140523805Y-95853809D02*
X140476186Y-95758571D01*
X140476186Y-95758571D02*
X140380948Y-95710952D01*
X140380948Y-95710952D02*
X140190472Y-95710952D01*
X140190472Y-95710952D02*
X140095234Y-95758571D01*
X140095234Y-95758571D02*
X140047615Y-95853809D01*
X140047615Y-95853809D02*
X140047615Y-95949047D01*
X140047615Y-95949047D02*
X140523805Y-96044285D01*
X139190472Y-95710952D02*
X139190472Y-96520476D01*
X139190472Y-96520476D02*
X139238091Y-96615714D01*
X139238091Y-96615714D02*
X139285710Y-96663333D01*
X139285710Y-96663333D02*
X139380948Y-96710952D01*
X139380948Y-96710952D02*
X139523805Y-96710952D01*
X139523805Y-96710952D02*
X139619043Y-96663333D01*
X139190472Y-96330000D02*
X139285710Y-96377619D01*
X139285710Y-96377619D02*
X139476186Y-96377619D01*
X139476186Y-96377619D02*
X139571424Y-96330000D01*
X139571424Y-96330000D02*
X139619043Y-96282380D01*
X139619043Y-96282380D02*
X139666662Y-96187142D01*
X139666662Y-96187142D02*
X139666662Y-95901428D01*
X139666662Y-95901428D02*
X139619043Y-95806190D01*
X139619043Y-95806190D02*
X139571424Y-95758571D01*
X139571424Y-95758571D02*
X139476186Y-95710952D01*
X139476186Y-95710952D02*
X139285710Y-95710952D01*
X139285710Y-95710952D02*
X139190472Y-95758571D01*
X138333329Y-96330000D02*
X138428567Y-96377619D01*
X138428567Y-96377619D02*
X138619043Y-96377619D01*
X138619043Y-96377619D02*
X138714281Y-96330000D01*
X138714281Y-96330000D02*
X138761900Y-96234761D01*
X138761900Y-96234761D02*
X138761900Y-95853809D01*
X138761900Y-95853809D02*
X138714281Y-95758571D01*
X138714281Y-95758571D02*
X138619043Y-95710952D01*
X138619043Y-95710952D02*
X138428567Y-95710952D01*
X138428567Y-95710952D02*
X138333329Y-95758571D01*
X138333329Y-95758571D02*
X138285710Y-95853809D01*
X138285710Y-95853809D02*
X138285710Y-95949047D01*
X138285710Y-95949047D02*
X138761900Y-96044285D01*
%TO.C,JP3*%
X164833333Y-77312619D02*
X164833333Y-78026904D01*
X164833333Y-78026904D02*
X164880952Y-78169761D01*
X164880952Y-78169761D02*
X164976190Y-78265000D01*
X164976190Y-78265000D02*
X165119047Y-78312619D01*
X165119047Y-78312619D02*
X165214285Y-78312619D01*
X164357142Y-78312619D02*
X164357142Y-77312619D01*
X164357142Y-77312619D02*
X163976190Y-77312619D01*
X163976190Y-77312619D02*
X163880952Y-77360238D01*
X163880952Y-77360238D02*
X163833333Y-77407857D01*
X163833333Y-77407857D02*
X163785714Y-77503095D01*
X163785714Y-77503095D02*
X163785714Y-77645952D01*
X163785714Y-77645952D02*
X163833333Y-77741190D01*
X163833333Y-77741190D02*
X163880952Y-77788809D01*
X163880952Y-77788809D02*
X163976190Y-77836428D01*
X163976190Y-77836428D02*
X164357142Y-77836428D01*
X163452380Y-77312619D02*
X162833333Y-77312619D01*
X162833333Y-77312619D02*
X163166666Y-77693571D01*
X163166666Y-77693571D02*
X163023809Y-77693571D01*
X163023809Y-77693571D02*
X162928571Y-77741190D01*
X162928571Y-77741190D02*
X162880952Y-77788809D01*
X162880952Y-77788809D02*
X162833333Y-77884047D01*
X162833333Y-77884047D02*
X162833333Y-78122142D01*
X162833333Y-78122142D02*
X162880952Y-78217380D01*
X162880952Y-78217380D02*
X162928571Y-78265000D01*
X162928571Y-78265000D02*
X163023809Y-78312619D01*
X163023809Y-78312619D02*
X163309523Y-78312619D01*
X163309523Y-78312619D02*
X163404761Y-78265000D01*
X163404761Y-78265000D02*
X163452380Y-78217380D01*
%TO.C,JP1*%
X164633333Y-80462619D02*
X164633333Y-81176904D01*
X164633333Y-81176904D02*
X164680952Y-81319761D01*
X164680952Y-81319761D02*
X164776190Y-81415000D01*
X164776190Y-81415000D02*
X164919047Y-81462619D01*
X164919047Y-81462619D02*
X165014285Y-81462619D01*
X164157142Y-81462619D02*
X164157142Y-80462619D01*
X164157142Y-80462619D02*
X163776190Y-80462619D01*
X163776190Y-80462619D02*
X163680952Y-80510238D01*
X163680952Y-80510238D02*
X163633333Y-80557857D01*
X163633333Y-80557857D02*
X163585714Y-80653095D01*
X163585714Y-80653095D02*
X163585714Y-80795952D01*
X163585714Y-80795952D02*
X163633333Y-80891190D01*
X163633333Y-80891190D02*
X163680952Y-80938809D01*
X163680952Y-80938809D02*
X163776190Y-80986428D01*
X163776190Y-80986428D02*
X164157142Y-80986428D01*
X162633333Y-81462619D02*
X163204761Y-81462619D01*
X162919047Y-81462619D02*
X162919047Y-80462619D01*
X162919047Y-80462619D02*
X163014285Y-80605476D01*
X163014285Y-80605476D02*
X163109523Y-80700714D01*
X163109523Y-80700714D02*
X163204761Y-80748333D01*
%TO.C,JP2*%
X164683333Y-83862619D02*
X164683333Y-84576904D01*
X164683333Y-84576904D02*
X164730952Y-84719761D01*
X164730952Y-84719761D02*
X164826190Y-84815000D01*
X164826190Y-84815000D02*
X164969047Y-84862619D01*
X164969047Y-84862619D02*
X165064285Y-84862619D01*
X164207142Y-84862619D02*
X164207142Y-83862619D01*
X164207142Y-83862619D02*
X163826190Y-83862619D01*
X163826190Y-83862619D02*
X163730952Y-83910238D01*
X163730952Y-83910238D02*
X163683333Y-83957857D01*
X163683333Y-83957857D02*
X163635714Y-84053095D01*
X163635714Y-84053095D02*
X163635714Y-84195952D01*
X163635714Y-84195952D02*
X163683333Y-84291190D01*
X163683333Y-84291190D02*
X163730952Y-84338809D01*
X163730952Y-84338809D02*
X163826190Y-84386428D01*
X163826190Y-84386428D02*
X164207142Y-84386428D01*
X163254761Y-83957857D02*
X163207142Y-83910238D01*
X163207142Y-83910238D02*
X163111904Y-83862619D01*
X163111904Y-83862619D02*
X162873809Y-83862619D01*
X162873809Y-83862619D02*
X162778571Y-83910238D01*
X162778571Y-83910238D02*
X162730952Y-83957857D01*
X162730952Y-83957857D02*
X162683333Y-84053095D01*
X162683333Y-84053095D02*
X162683333Y-84148333D01*
X162683333Y-84148333D02*
X162730952Y-84291190D01*
X162730952Y-84291190D02*
X163302380Y-84862619D01*
X163302380Y-84862619D02*
X162683333Y-84862619D01*
%TO.C,G\u002A\u002A\u002A*%
G36*
X146013620Y-88263619D02*
G01*
X145159692Y-88263619D01*
X144305764Y-88263619D01*
X144305764Y-88006569D01*
X144562813Y-88006569D01*
X145157764Y-88008808D01*
X145270492Y-88009180D01*
X145376097Y-88009394D01*
X145466277Y-88009399D01*
X145542068Y-88009179D01*
X145604509Y-88008720D01*
X145654637Y-88008006D01*
X145693490Y-88007023D01*
X145722105Y-88005756D01*
X145741519Y-88004189D01*
X145752771Y-88002306D01*
X145756898Y-88000094D01*
X145757266Y-87996718D01*
X145757891Y-87977764D01*
X145758414Y-87943604D01*
X145758830Y-87895694D01*
X145759135Y-87835489D01*
X145759324Y-87764445D01*
X145759392Y-87684016D01*
X145759335Y-87595658D01*
X145759148Y-87500827D01*
X145758826Y-87400977D01*
X145756570Y-86812813D01*
X145159692Y-86812813D01*
X144562813Y-86812813D01*
X144562813Y-87409691D01*
X144562813Y-88006569D01*
X144305764Y-88006569D01*
X144305764Y-87409691D01*
X144305764Y-86555763D01*
X145159692Y-86555763D01*
X146013620Y-86555763D01*
X146013620Y-87409691D01*
X146013620Y-87684016D01*
X146013620Y-88263619D01*
G37*
G36*
X144061784Y-88141629D02*
G01*
X144061784Y-88263619D01*
X143939795Y-88263619D01*
X143817805Y-88263619D01*
X143817805Y-88141629D01*
X143817805Y-88019639D01*
X143939795Y-88019639D01*
X144061784Y-88019639D01*
X144061784Y-88141629D01*
G37*
G36*
X145037702Y-83993979D02*
G01*
X145037702Y-84115969D01*
X145159692Y-84115969D01*
X145281681Y-84115969D01*
X145281681Y-83993979D01*
X145281681Y-83871989D01*
X145647651Y-83871989D01*
X146013620Y-83871989D01*
X146013620Y-83993979D01*
X146013620Y-84115969D01*
X145647651Y-84115969D01*
X145281681Y-84115969D01*
X145281681Y-84237958D01*
X145281681Y-84359948D01*
X145159692Y-84359948D01*
X145037702Y-84359948D01*
X145037702Y-84237958D01*
X145037702Y-84115969D01*
X144915712Y-84115969D01*
X144793723Y-84115969D01*
X144793723Y-83993979D01*
X144793723Y-83871989D01*
X144915712Y-83871989D01*
X145037702Y-83871989D01*
X145037702Y-83993979D01*
G37*
G36*
X143573825Y-82164133D02*
G01*
X143695815Y-82164133D01*
X143817805Y-82164133D01*
X143817805Y-82286123D01*
X143817805Y-82408113D01*
X143939795Y-82408113D01*
X144061784Y-82408113D01*
X144061784Y-82286123D01*
X144061784Y-82164133D01*
X144305764Y-82164133D01*
X144549743Y-82164133D01*
X144549743Y-82286123D01*
X144549743Y-82408113D01*
X144305764Y-82408113D01*
X144061784Y-82408113D01*
X144061784Y-82530102D01*
X144061784Y-82652092D01*
X144305764Y-82652092D01*
X144549743Y-82652092D01*
X144549743Y-82774082D01*
X144549743Y-82896072D01*
X144427753Y-82896072D01*
X144305764Y-82896072D01*
X144305764Y-83018061D01*
X144305764Y-83140051D01*
X144427753Y-83140051D01*
X144549743Y-83140051D01*
X144549743Y-83262041D01*
X144549743Y-83384030D01*
X144671733Y-83384030D01*
X144793723Y-83384030D01*
X144793723Y-82774082D01*
X144793723Y-82164133D01*
X144671733Y-82164133D01*
X144549743Y-82164133D01*
X144549743Y-82042144D01*
X144549743Y-81920154D01*
X144183774Y-81920154D01*
X143817805Y-81920154D01*
X143817805Y-81676175D01*
X143817805Y-81432195D01*
X143939795Y-81432195D01*
X144061784Y-81432195D01*
X144061784Y-81554185D01*
X144061784Y-81676175D01*
X144305764Y-81676175D01*
X144549743Y-81676175D01*
X144549743Y-81554185D01*
X144549743Y-81432195D01*
X144427753Y-81432195D01*
X144305764Y-81432195D01*
X144305764Y-81310205D01*
X144305764Y-81188216D01*
X144427753Y-81188216D01*
X144549743Y-81188216D01*
X144549743Y-81310205D01*
X144549743Y-81432195D01*
X144671733Y-81432195D01*
X144793723Y-81432195D01*
X144793723Y-81310205D01*
X144793723Y-81188216D01*
X144915712Y-81188216D01*
X145037702Y-81188216D01*
X145037702Y-81310205D01*
X145037702Y-81432195D01*
X144915712Y-81432195D01*
X144793723Y-81432195D01*
X144793723Y-81798164D01*
X144793723Y-82164133D01*
X144915712Y-82164133D01*
X145037702Y-82164133D01*
X145037702Y-82042144D01*
X145037702Y-81920154D01*
X145159692Y-81920154D01*
X145281681Y-81920154D01*
X145281681Y-82042144D01*
X145281681Y-82164133D01*
X145159692Y-82164133D01*
X145037702Y-82164133D01*
X145037702Y-82286123D01*
X145037702Y-82408113D01*
X145281681Y-82408113D01*
X145525661Y-82408113D01*
X145525661Y-82286123D01*
X145525661Y-82164133D01*
X145769640Y-82164133D01*
X146013620Y-82164133D01*
X146013620Y-82286123D01*
X146013620Y-82408113D01*
X145769640Y-82408113D01*
X145525661Y-82408113D01*
X145525661Y-82530102D01*
X145525661Y-82652092D01*
X145281681Y-82652092D01*
X145037702Y-82652092D01*
X145037702Y-83018061D01*
X145037702Y-83384030D01*
X145159692Y-83384030D01*
X145281681Y-83384030D01*
X145281681Y-83628010D01*
X145281681Y-83871989D01*
X145159692Y-83871989D01*
X145037702Y-83871989D01*
X145037702Y-83750000D01*
X145037702Y-83628010D01*
X144793723Y-83628010D01*
X144549743Y-83628010D01*
X144549743Y-83506020D01*
X144549743Y-83384030D01*
X144305764Y-83384030D01*
X144061784Y-83384030D01*
X144061784Y-83506020D01*
X144061784Y-83628010D01*
X143939795Y-83628010D01*
X143817805Y-83628010D01*
X143817805Y-83018061D01*
X143817805Y-82408113D01*
X143573825Y-82408113D01*
X143329846Y-82408113D01*
X143329846Y-82774082D01*
X143329846Y-83140051D01*
X143451836Y-83140051D01*
X143573825Y-83140051D01*
X143573825Y-83384030D01*
X143573825Y-83628010D01*
X143451836Y-83628010D01*
X143329846Y-83628010D01*
X143329846Y-83506020D01*
X143329846Y-83384030D01*
X143207856Y-83384030D01*
X143085867Y-83384030D01*
X143085867Y-83262041D01*
X143085867Y-83140051D01*
X142963877Y-83140051D01*
X142841887Y-83140051D01*
X142841887Y-83018061D01*
X142841887Y-82896072D01*
X142963877Y-82896072D01*
X143085867Y-82896072D01*
X143085867Y-82774082D01*
X143085867Y-82652092D01*
X142963877Y-82652092D01*
X142841887Y-82652092D01*
X142841887Y-82408113D01*
X142841887Y-82164133D01*
X143085867Y-82164133D01*
X143207856Y-82164133D01*
X143329846Y-82164133D01*
X143329846Y-82042144D01*
X143329846Y-81920154D01*
X143207856Y-81920154D01*
X143085867Y-81920154D01*
X143085867Y-82042144D01*
X143085867Y-82164133D01*
X142841887Y-82164133D01*
X142597908Y-82164133D01*
X142353928Y-82164133D01*
X142353928Y-82286123D01*
X142353928Y-82408113D01*
X142231939Y-82408113D01*
X142109949Y-82408113D01*
X142109949Y-82530102D01*
X142109949Y-82652092D01*
X141987959Y-82652092D01*
X141865970Y-82652092D01*
X141865970Y-82408113D01*
X141865970Y-82164133D01*
X141500000Y-82164133D01*
X141134031Y-82164133D01*
X141134031Y-82042144D01*
X141134031Y-81920154D01*
X141500000Y-81920154D01*
X141865970Y-81920154D01*
X142109949Y-81920154D01*
X142109949Y-82042144D01*
X142109949Y-82164133D01*
X142231939Y-82164133D01*
X142353928Y-82164133D01*
X142353928Y-82042144D01*
X142353928Y-81920154D01*
X142231939Y-81920154D01*
X142109949Y-81920154D01*
X141865970Y-81920154D01*
X141865970Y-81798164D01*
X141865970Y-81676175D01*
X141500000Y-81676175D01*
X141134031Y-81676175D01*
X141134031Y-81554185D01*
X141134031Y-81432195D01*
X141256021Y-81432195D01*
X141378011Y-81432195D01*
X141378011Y-81310205D01*
X141378011Y-81188216D01*
X141256021Y-81188216D01*
X141134031Y-81188216D01*
X141134031Y-81066226D01*
X141134031Y-80944236D01*
X141256021Y-80944236D01*
X141378011Y-80944236D01*
X141378011Y-80822247D01*
X141378011Y-80700257D01*
X141500000Y-80700257D01*
X141621990Y-80700257D01*
X141621990Y-80822247D01*
X141621990Y-80944236D01*
X141743980Y-80944236D01*
X141865970Y-80944236D01*
X141865970Y-81066226D01*
X141865970Y-81188216D01*
X141743980Y-81188216D01*
X141621990Y-81188216D01*
X141621990Y-81310205D01*
X141621990Y-81432195D01*
X141743980Y-81432195D01*
X141865970Y-81432195D01*
X141865970Y-81310205D01*
X141865970Y-81188216D01*
X142231939Y-81188216D01*
X142597908Y-81188216D01*
X142597908Y-81066226D01*
X142597908Y-80944236D01*
X142719898Y-80944236D01*
X142841887Y-80944236D01*
X142841887Y-80822247D01*
X142841887Y-80700257D01*
X142963877Y-80700257D01*
X143085867Y-80700257D01*
X143085867Y-80822247D01*
X143085867Y-80944236D01*
X143207856Y-80944236D01*
X143329846Y-80944236D01*
X143329846Y-80700257D01*
X143329846Y-80456277D01*
X143451836Y-80456277D01*
X143573825Y-80456277D01*
X143573825Y-80700257D01*
X143573825Y-80944236D01*
X143695815Y-80944236D01*
X143817805Y-80944236D01*
X143817805Y-80822247D01*
X143817805Y-80700257D01*
X143939795Y-80700257D01*
X144061784Y-80700257D01*
X144061784Y-80822247D01*
X144061784Y-80944236D01*
X143939795Y-80944236D01*
X143817805Y-80944236D01*
X143817805Y-81066226D01*
X143817805Y-81188216D01*
X143695815Y-81188216D01*
X143573825Y-81188216D01*
X143573825Y-81066226D01*
X143573825Y-80944236D01*
X143451836Y-80944236D01*
X143329846Y-80944236D01*
X143329846Y-81066226D01*
X143329846Y-81188216D01*
X143207856Y-81188216D01*
X143085867Y-81188216D01*
X143085867Y-81310205D01*
X143085867Y-81432195D01*
X142963877Y-81432195D01*
X142841887Y-81432195D01*
X142841887Y-81310205D01*
X142841887Y-81188216D01*
X142719898Y-81188216D01*
X142597908Y-81188216D01*
X142597908Y-81310205D01*
X142597908Y-81432195D01*
X142475918Y-81432195D01*
X142353928Y-81432195D01*
X142353928Y-81676175D01*
X142353928Y-81920154D01*
X142475918Y-81920154D01*
X142597908Y-81920154D01*
X142597908Y-81798164D01*
X142597908Y-81676175D01*
X142719898Y-81676175D01*
X142841887Y-81676175D01*
X142841887Y-81798164D01*
X142841887Y-81920154D01*
X142963877Y-81920154D01*
X143085867Y-81920154D01*
X143085867Y-81798164D01*
X143085867Y-81676175D01*
X143329846Y-81676175D01*
X143573825Y-81676175D01*
X143573825Y-81920154D01*
X143573825Y-82164133D01*
G37*
G36*
X140646072Y-79968319D02*
G01*
X140646072Y-80212298D01*
X140768062Y-80212298D01*
X140890052Y-80212298D01*
X140890052Y-80090308D01*
X140890052Y-79968319D01*
X141012042Y-79968319D01*
X141134031Y-79968319D01*
X141134031Y-80090308D01*
X141134031Y-80212298D01*
X141012042Y-80212298D01*
X140890052Y-80212298D01*
X140890052Y-80334288D01*
X140890052Y-80456277D01*
X141012042Y-80456277D01*
X141134031Y-80456277D01*
X141134031Y-80334288D01*
X141134031Y-80212298D01*
X141256021Y-80212298D01*
X141378011Y-80212298D01*
X141378011Y-80090308D01*
X141378011Y-79968319D01*
X141256021Y-79968319D01*
X141134031Y-79968319D01*
X141134031Y-79846329D01*
X141134031Y-79724339D01*
X141378011Y-79724339D01*
X141621990Y-79724339D01*
X141621990Y-80090308D01*
X141621990Y-80456277D01*
X141743980Y-80456277D01*
X141865970Y-80456277D01*
X141865970Y-80334288D01*
X141865970Y-80212298D01*
X142109949Y-80212298D01*
X142353928Y-80212298D01*
X142353928Y-80090308D01*
X142353928Y-79968319D01*
X142475918Y-79968319D01*
X142597908Y-79968319D01*
X142597908Y-79846329D01*
X142597908Y-79724339D01*
X142475918Y-79724339D01*
X142353928Y-79724339D01*
X142353928Y-79602349D01*
X142353928Y-79480360D01*
X142597908Y-79480360D01*
X142841887Y-79480360D01*
X142841887Y-79724339D01*
X142841887Y-79968319D01*
X142963877Y-79968319D01*
X143085867Y-79968319D01*
X143085867Y-79724339D01*
X143085867Y-79480360D01*
X143207856Y-79480360D01*
X143329846Y-79480360D01*
X143329846Y-79358370D01*
X143329846Y-79236380D01*
X143451836Y-79236380D01*
X143573825Y-79236380D01*
X143573825Y-79358370D01*
X143573825Y-79480360D01*
X143817805Y-79480360D01*
X144061784Y-79480360D01*
X144061784Y-79602349D01*
X144061784Y-79724339D01*
X143939795Y-79724339D01*
X143817805Y-79724339D01*
X143817805Y-79846329D01*
X143817805Y-79968319D01*
X143695815Y-79968319D01*
X143573825Y-79968319D01*
X143573825Y-80090308D01*
X143573825Y-80212298D01*
X143451836Y-80212298D01*
X143329846Y-80212298D01*
X143329846Y-80334288D01*
X143329846Y-80456277D01*
X143085867Y-80456277D01*
X142841887Y-80456277D01*
X142841887Y-80334288D01*
X142841887Y-80212298D01*
X143085867Y-80212298D01*
X143207856Y-80212298D01*
X143329846Y-80212298D01*
X143329846Y-80090308D01*
X143329846Y-79968319D01*
X143207856Y-79968319D01*
X143085867Y-79968319D01*
X143085867Y-80090308D01*
X143085867Y-80212298D01*
X142841887Y-80212298D01*
X142719898Y-80212298D01*
X142597908Y-80212298D01*
X142597908Y-80334288D01*
X142597908Y-80456277D01*
X142475918Y-80456277D01*
X142353928Y-80456277D01*
X142353928Y-80578267D01*
X142353928Y-80700257D01*
X142231939Y-80700257D01*
X142109949Y-80700257D01*
X142109949Y-80578267D01*
X142109949Y-80456277D01*
X141987959Y-80456277D01*
X141865970Y-80456277D01*
X141865970Y-80578267D01*
X141865970Y-80700257D01*
X141743980Y-80700257D01*
X141621990Y-80700257D01*
X141621990Y-80578267D01*
X141621990Y-80456277D01*
X141500000Y-80456277D01*
X141378011Y-80456277D01*
X141378011Y-80578267D01*
X141378011Y-80700257D01*
X141256021Y-80700257D01*
X141134031Y-80700257D01*
X141134031Y-80822247D01*
X141134031Y-80944236D01*
X141012042Y-80944236D01*
X140890052Y-80944236D01*
X140890052Y-80700257D01*
X140890052Y-80456277D01*
X140768062Y-80456277D01*
X140646072Y-80456277D01*
X140646072Y-80700257D01*
X140646072Y-80944236D01*
X140524083Y-80944236D01*
X140402093Y-80944236D01*
X140402093Y-80822247D01*
X140402093Y-80700257D01*
X140280103Y-80700257D01*
X140158114Y-80700257D01*
X140158114Y-80578267D01*
X140158114Y-80456277D01*
X140280103Y-80456277D01*
X140402093Y-80456277D01*
X140402093Y-80334288D01*
X140402093Y-80212298D01*
X140158114Y-80212298D01*
X139914134Y-80212298D01*
X139914134Y-80334288D01*
X139914134Y-80456277D01*
X139792145Y-80456277D01*
X139670155Y-80456277D01*
X139670155Y-80700257D01*
X139670155Y-80944236D01*
X139792145Y-80944236D01*
X139914134Y-80944236D01*
X139914134Y-80822247D01*
X139914134Y-80700257D01*
X140036124Y-80700257D01*
X140158114Y-80700257D01*
X140158114Y-80822247D01*
X140158114Y-80944236D01*
X140280103Y-80944236D01*
X140402093Y-80944236D01*
X140402093Y-81066226D01*
X140402093Y-81188216D01*
X140280103Y-81188216D01*
X140158114Y-81188216D01*
X140158114Y-81310205D01*
X140158114Y-81432195D01*
X140280103Y-81432195D01*
X140402093Y-81432195D01*
X140402093Y-81554185D01*
X140402093Y-81676175D01*
X140524083Y-81676175D01*
X140646072Y-81676175D01*
X140646072Y-81798164D01*
X140646072Y-81920154D01*
X140402093Y-81920154D01*
X140158114Y-81920154D01*
X140158114Y-82042144D01*
X140158114Y-82164133D01*
X140036124Y-82164133D01*
X139914134Y-82164133D01*
X139914134Y-82286123D01*
X139914134Y-82408113D01*
X140036124Y-82408113D01*
X140158114Y-82408113D01*
X140158114Y-82530102D01*
X140158114Y-82652092D01*
X140036124Y-82652092D01*
X139914134Y-82652092D01*
X139914134Y-83018061D01*
X139914134Y-83384030D01*
X139792145Y-83384030D01*
X139670155Y-83384030D01*
X139670155Y-83506020D01*
X139670155Y-83628010D01*
X139548165Y-83628010D01*
X139426175Y-83628010D01*
X139426175Y-83384030D01*
X139426175Y-83140051D01*
X139548165Y-83140051D01*
X139670155Y-83140051D01*
X139670155Y-82652092D01*
X139670155Y-82164133D01*
X139426175Y-82164133D01*
X139182196Y-82164133D01*
X139182196Y-82042144D01*
X139182196Y-81920154D01*
X139426175Y-81920154D01*
X139670155Y-81920154D01*
X139670155Y-81798164D01*
X139670155Y-81676175D01*
X139792145Y-81676175D01*
X139914134Y-81676175D01*
X139914134Y-81554185D01*
X139914134Y-81432195D01*
X139792145Y-81432195D01*
X139670155Y-81432195D01*
X139670155Y-81310205D01*
X139670155Y-81188216D01*
X139548165Y-81188216D01*
X139426175Y-81188216D01*
X139426175Y-80944236D01*
X139426175Y-80700257D01*
X139304186Y-80700257D01*
X139182196Y-80700257D01*
X139182196Y-80212298D01*
X139182196Y-79724339D01*
X139060206Y-79724339D01*
X138938217Y-79724339D01*
X138938217Y-79480360D01*
X138938217Y-79236380D01*
X139304186Y-79236380D01*
X139670155Y-79236380D01*
X139670155Y-79358370D01*
X139670155Y-79480360D01*
X139548165Y-79480360D01*
X139426175Y-79480360D01*
X139426175Y-79724339D01*
X139426175Y-79968319D01*
X139548165Y-79968319D01*
X139670155Y-79968319D01*
X139670155Y-80090308D01*
X139670155Y-80212298D01*
X139792145Y-80212298D01*
X139914134Y-80212298D01*
X139914134Y-79968319D01*
X140158114Y-79968319D01*
X140280103Y-79968319D01*
X140402093Y-79968319D01*
X140402093Y-79846329D01*
X140402093Y-79724339D01*
X140280103Y-79724339D01*
X140158114Y-79724339D01*
X140158114Y-79846329D01*
X140158114Y-79968319D01*
X139914134Y-79968319D01*
X139914134Y-79724339D01*
X139914134Y-79236380D01*
X140036124Y-79236380D01*
X140158114Y-79236380D01*
X140158114Y-79358370D01*
X140158114Y-79480360D01*
X140524083Y-79480360D01*
X140890052Y-79480360D01*
X140890052Y-79602349D01*
X140890052Y-79724339D01*
X140768062Y-79724339D01*
X140646072Y-79724339D01*
X140646072Y-79968319D01*
G37*
G36*
X141865970Y-79358370D02*
G01*
X141865970Y-79480360D01*
X141987959Y-79480360D01*
X142109949Y-79480360D01*
X142109949Y-79358370D01*
X142109949Y-79236380D01*
X142231939Y-79236380D01*
X142353928Y-79236380D01*
X142353928Y-79358370D01*
X142353928Y-79480360D01*
X142231939Y-79480360D01*
X142109949Y-79480360D01*
X142109949Y-79602349D01*
X142109949Y-79724339D01*
X141987959Y-79724339D01*
X141865970Y-79724339D01*
X141865970Y-79602349D01*
X141865970Y-79480360D01*
X141621990Y-79480360D01*
X141378011Y-79480360D01*
X141378011Y-79358370D01*
X141378011Y-79236380D01*
X141621990Y-79236380D01*
X141865970Y-79236380D01*
X141865970Y-79358370D01*
G37*
G36*
X140280103Y-84847907D02*
G01*
X140402093Y-84847907D01*
X140402093Y-84969897D01*
X140402093Y-85091886D01*
X140280103Y-85091886D01*
X140158114Y-85091886D01*
X140158114Y-85213876D01*
X140158114Y-85335866D01*
X140280103Y-85335866D01*
X140402093Y-85335866D01*
X140402093Y-85457855D01*
X140402093Y-85579845D01*
X140524083Y-85579845D01*
X140646072Y-85579845D01*
X140646072Y-85701835D01*
X140646072Y-85823825D01*
X140768062Y-85823825D01*
X140890052Y-85823825D01*
X140890052Y-85945814D01*
X140890052Y-86067804D01*
X141012042Y-86067804D01*
X141134031Y-86067804D01*
X141134031Y-85945814D01*
X141134031Y-85823825D01*
X141378011Y-85823825D01*
X141621990Y-85823825D01*
X141621990Y-85701835D01*
X141621990Y-85579845D01*
X141743980Y-85579845D01*
X141865970Y-85579845D01*
X141865970Y-85335866D01*
X141865970Y-85091886D01*
X141987959Y-85091886D01*
X142109949Y-85091886D01*
X142109949Y-85213876D01*
X142109949Y-85335866D01*
X142231939Y-85335866D01*
X142353928Y-85335866D01*
X142353928Y-85579845D01*
X142353928Y-85823825D01*
X142231939Y-85823825D01*
X142109949Y-85823825D01*
X142109949Y-85945814D01*
X142109949Y-86067804D01*
X141987959Y-86067804D01*
X141865970Y-86067804D01*
X141865970Y-86189794D01*
X141865970Y-86311783D01*
X141743980Y-86311783D01*
X141621990Y-86311783D01*
X141621990Y-86189794D01*
X141621990Y-86067804D01*
X141378011Y-86067804D01*
X141134031Y-86067804D01*
X141134031Y-86189794D01*
X141134031Y-86311783D01*
X141012042Y-86311783D01*
X140890052Y-86311783D01*
X140890052Y-86433773D01*
X140890052Y-86555763D01*
X140768062Y-86555763D01*
X140646072Y-86555763D01*
X140646072Y-86311783D01*
X140646072Y-86067804D01*
X140524083Y-86067804D01*
X140402093Y-86067804D01*
X140402093Y-86189794D01*
X140402093Y-86311783D01*
X140280103Y-86311783D01*
X140158114Y-86311783D01*
X140158114Y-86433773D01*
X140158114Y-86555763D01*
X140036124Y-86555763D01*
X139914134Y-86555763D01*
X139914134Y-86311783D01*
X139914134Y-86067804D01*
X139670155Y-86067804D01*
X139426175Y-86067804D01*
X139426175Y-86189794D01*
X139426175Y-86311783D01*
X139304186Y-86311783D01*
X139182196Y-86311783D01*
X139182196Y-86433773D01*
X139182196Y-86555763D01*
X139304186Y-86555763D01*
X139426175Y-86555763D01*
X139426175Y-86677753D01*
X139426175Y-86799742D01*
X139304186Y-86799742D01*
X139182196Y-86799742D01*
X139182196Y-87043722D01*
X139182196Y-87287701D01*
X139304186Y-87287701D01*
X139426175Y-87287701D01*
X139426175Y-87165711D01*
X139426175Y-87043722D01*
X139548165Y-87043722D01*
X139670155Y-87043722D01*
X139670155Y-86799742D01*
X139670155Y-86555763D01*
X139792145Y-86555763D01*
X139914134Y-86555763D01*
X139914134Y-86799742D01*
X139914134Y-87043722D01*
X140036124Y-87043722D01*
X140158114Y-87043722D01*
X140158114Y-87165711D01*
X140158114Y-87287701D01*
X140280103Y-87287701D01*
X140402093Y-87287701D01*
X140402093Y-87165711D01*
X140402093Y-87043722D01*
X140280103Y-87043722D01*
X140158114Y-87043722D01*
X140158114Y-86921732D01*
X140158114Y-86799742D01*
X140280103Y-86799742D01*
X140402093Y-86799742D01*
X140402093Y-86677753D01*
X140402093Y-86555763D01*
X140524083Y-86555763D01*
X140646072Y-86555763D01*
X140646072Y-86677753D01*
X140646072Y-86799742D01*
X140768062Y-86799742D01*
X140890052Y-86799742D01*
X140890052Y-86677753D01*
X140890052Y-86555763D01*
X141012042Y-86555763D01*
X141134031Y-86555763D01*
X141134031Y-86677753D01*
X141134031Y-86799742D01*
X141012042Y-86799742D01*
X140890052Y-86799742D01*
X140890052Y-86921732D01*
X140890052Y-87043722D01*
X140768062Y-87043722D01*
X140646072Y-87043722D01*
X140646072Y-87165711D01*
X140646072Y-87287701D01*
X140768062Y-87287701D01*
X140890052Y-87287701D01*
X140890052Y-87165711D01*
X140890052Y-87043722D01*
X141012042Y-87043722D01*
X141134031Y-87043722D01*
X141134031Y-87165711D01*
X141134031Y-87287701D01*
X141256021Y-87287701D01*
X141378011Y-87287701D01*
X141378011Y-87531681D01*
X141378011Y-87775660D01*
X141256021Y-87775660D01*
X141134031Y-87775660D01*
X141134031Y-87897650D01*
X141134031Y-88019639D01*
X141012042Y-88019639D01*
X140890052Y-88019639D01*
X140890052Y-88141629D01*
X140890052Y-88263619D01*
X140768062Y-88263619D01*
X140646072Y-88263619D01*
X140646072Y-88141629D01*
X140646072Y-88019639D01*
X140402093Y-88019639D01*
X140158114Y-88019639D01*
X140158114Y-88141629D01*
X140158114Y-88263619D01*
X139914134Y-88263619D01*
X139670155Y-88263619D01*
X139670155Y-88019639D01*
X139670155Y-87775660D01*
X139792145Y-87775660D01*
X139914134Y-87775660D01*
X139914134Y-87897650D01*
X139914134Y-88019639D01*
X140036124Y-88019639D01*
X140158114Y-88019639D01*
X140158114Y-87897650D01*
X140158114Y-87775660D01*
X140524083Y-87775660D01*
X140890052Y-87775660D01*
X140890052Y-87653670D01*
X140890052Y-87531681D01*
X140524083Y-87531681D01*
X140158114Y-87531681D01*
X140158114Y-87653670D01*
X140158114Y-87775660D01*
X140036124Y-87775660D01*
X139914134Y-87775660D01*
X139914134Y-87653670D01*
X139914134Y-87531681D01*
X140036124Y-87531681D01*
X140158114Y-87531681D01*
X140158114Y-87409691D01*
X140158114Y-87287701D01*
X140036124Y-87287701D01*
X139914134Y-87287701D01*
X139914134Y-87409691D01*
X139914134Y-87531681D01*
X139548165Y-87531681D01*
X139182196Y-87531681D01*
X139182196Y-87409691D01*
X139182196Y-87287701D01*
X138816227Y-87287701D01*
X138450258Y-87287701D01*
X138450258Y-87409691D01*
X138450258Y-87531681D01*
X138328268Y-87531681D01*
X138206278Y-87531681D01*
X138206278Y-87653670D01*
X138206278Y-87775660D01*
X138328268Y-87775660D01*
X138450258Y-87775660D01*
X138450258Y-87897650D01*
X138450258Y-88019639D01*
X138206278Y-88019639D01*
X137962299Y-88019639D01*
X137962299Y-87897650D01*
X137962299Y-87775660D01*
X137718319Y-87775660D01*
X137474340Y-87775660D01*
X137474340Y-88019639D01*
X137474340Y-88263619D01*
X137230361Y-88263619D01*
X136986381Y-88263619D01*
X136986381Y-88141629D01*
X136986381Y-88019639D01*
X137108371Y-88019639D01*
X137230361Y-88019639D01*
X137230361Y-87897650D01*
X137230361Y-87775660D01*
X137108371Y-87775660D01*
X136986381Y-87775660D01*
X136986381Y-87531681D01*
X136986381Y-87287701D01*
X137108371Y-87287701D01*
X137230361Y-87287701D01*
X137230361Y-87531681D01*
X137230361Y-87775660D01*
X137352350Y-87775660D01*
X137474340Y-87775660D01*
X137474340Y-87653670D01*
X137474340Y-87531681D01*
X137718319Y-87531681D01*
X137962299Y-87531681D01*
X137962299Y-87409691D01*
X137962299Y-87287701D01*
X137840309Y-87287701D01*
X137718319Y-87287701D01*
X137718319Y-87043722D01*
X138206278Y-87043722D01*
X138572247Y-87043722D01*
X138938217Y-87043722D01*
X138938217Y-86677753D01*
X138938217Y-86311783D01*
X138572247Y-86311783D01*
X138206278Y-86311783D01*
X138206278Y-86677753D01*
X138206278Y-87043722D01*
X137718319Y-87043722D01*
X137718319Y-86799742D01*
X137718319Y-86311783D01*
X137840309Y-86311783D01*
X137962299Y-86311783D01*
X137962299Y-85945814D01*
X137962299Y-85579845D01*
X138084289Y-85579845D01*
X138206278Y-85579845D01*
X138206278Y-85823825D01*
X138206278Y-86067804D01*
X138450258Y-86067804D01*
X138694237Y-86067804D01*
X138694237Y-85945814D01*
X138694237Y-85823825D01*
X138572247Y-85823825D01*
X138450258Y-85823825D01*
X138450258Y-85457855D01*
X138450258Y-85091886D01*
X138694237Y-85091886D01*
X138938217Y-85091886D01*
X138938217Y-85213876D01*
X138938217Y-85335866D01*
X138816227Y-85335866D01*
X138694237Y-85335866D01*
X138694237Y-85457855D01*
X138694237Y-85579845D01*
X138816227Y-85579845D01*
X138938217Y-85579845D01*
X138938217Y-85701835D01*
X138938217Y-85823825D01*
X139060206Y-85823825D01*
X139182196Y-85823825D01*
X139182196Y-85945814D01*
X139182196Y-86067804D01*
X139304186Y-86067804D01*
X139426175Y-86067804D01*
X139426175Y-85945814D01*
X139426175Y-85823825D01*
X139548165Y-85823825D01*
X139670155Y-85823825D01*
X140158114Y-85823825D01*
X140158114Y-85945814D01*
X140158114Y-86067804D01*
X140280103Y-86067804D01*
X140402093Y-86067804D01*
X140402093Y-85945814D01*
X140402093Y-85823825D01*
X140280103Y-85823825D01*
X140158114Y-85823825D01*
X139670155Y-85823825D01*
X139670155Y-85701835D01*
X139670155Y-85579845D01*
X139792145Y-85579845D01*
X139914134Y-85579845D01*
X139914134Y-85457855D01*
X139914134Y-85335866D01*
X139670155Y-85335866D01*
X139426175Y-85335866D01*
X139426175Y-85213876D01*
X139426175Y-85091886D01*
X139182196Y-85091886D01*
X138938217Y-85091886D01*
X138938217Y-84969897D01*
X138938217Y-84847907D01*
X138572247Y-84847907D01*
X138206278Y-84847907D01*
X138206278Y-84603928D01*
X138694237Y-84603928D01*
X138816227Y-84603928D01*
X138938217Y-84603928D01*
X138938217Y-84725917D01*
X138938217Y-84847907D01*
X139182196Y-84847907D01*
X139426175Y-84847907D01*
X139426175Y-84725917D01*
X139426175Y-84603928D01*
X139548165Y-84603928D01*
X139670155Y-84603928D01*
X139670155Y-84725917D01*
X139670155Y-84847907D01*
X139792145Y-84847907D01*
X139914134Y-84847907D01*
X139914134Y-84725917D01*
X139914134Y-84603928D01*
X139792145Y-84603928D01*
X139670155Y-84603928D01*
X139670155Y-84481938D01*
X139670155Y-84359948D01*
X139548165Y-84359948D01*
X139426175Y-84359948D01*
X139426175Y-84237958D01*
X139426175Y-84115969D01*
X139304186Y-84115969D01*
X139182196Y-84115969D01*
X139182196Y-84359948D01*
X139182196Y-84603928D01*
X139060206Y-84603928D01*
X138938217Y-84603928D01*
X138938217Y-84481938D01*
X138938217Y-84359948D01*
X138816227Y-84359948D01*
X138694237Y-84359948D01*
X138694237Y-84481938D01*
X138694237Y-84603928D01*
X138206278Y-84603928D01*
X138206278Y-84359948D01*
X138328268Y-84359948D01*
X138450258Y-84359948D01*
X138450258Y-84237958D01*
X138450258Y-84115969D01*
X138694237Y-84115969D01*
X138938217Y-84115969D01*
X138938217Y-83871989D01*
X138938217Y-83628010D01*
X138694237Y-83628010D01*
X138450258Y-83628010D01*
X138450258Y-83750000D01*
X138450258Y-83871989D01*
X138084289Y-83871989D01*
X137718319Y-83871989D01*
X137718319Y-83750000D01*
X137718319Y-83628010D01*
X137596330Y-83628010D01*
X137474340Y-83628010D01*
X137474340Y-83871989D01*
X137474340Y-84115969D01*
X137352350Y-84115969D01*
X137230361Y-84115969D01*
X137230361Y-83993979D01*
X137230361Y-83871989D01*
X137108371Y-83871989D01*
X136986381Y-83871989D01*
X136986381Y-83506020D01*
X136986381Y-83140051D01*
X137230361Y-83140051D01*
X137474340Y-83140051D01*
X137474340Y-83262041D01*
X137474340Y-83384030D01*
X137352350Y-83384030D01*
X137230361Y-83384030D01*
X137230361Y-83506020D01*
X137230361Y-83628010D01*
X137352350Y-83628010D01*
X137474340Y-83628010D01*
X137474340Y-83506020D01*
X137474340Y-83384030D01*
X137596330Y-83384030D01*
X137718319Y-83384030D01*
X137718319Y-83262041D01*
X137718319Y-83140051D01*
X137840309Y-83140051D01*
X137962299Y-83140051D01*
X137962299Y-83262041D01*
X137962299Y-83384030D01*
X137840309Y-83384030D01*
X137718319Y-83384030D01*
X137718319Y-83506020D01*
X137718319Y-83628010D01*
X138084289Y-83628010D01*
X138450258Y-83628010D01*
X138450258Y-83262041D01*
X138450258Y-82896072D01*
X138328268Y-82896072D01*
X138206278Y-82896072D01*
X138206278Y-82774082D01*
X138206278Y-82652092D01*
X138328268Y-82652092D01*
X138450258Y-82652092D01*
X138450258Y-82408113D01*
X138450258Y-82164133D01*
X138328268Y-82164133D01*
X138206278Y-82164133D01*
X138206278Y-82042144D01*
X138206278Y-81920154D01*
X138084289Y-81920154D01*
X137962299Y-81920154D01*
X137962299Y-81798164D01*
X137962299Y-81676175D01*
X137840309Y-81676175D01*
X137718319Y-81676175D01*
X137718319Y-81554185D01*
X137718319Y-81432195D01*
X137840309Y-81432195D01*
X137962299Y-81432195D01*
X137962299Y-81554185D01*
X137962299Y-81676175D01*
X138206278Y-81676175D01*
X138450258Y-81676175D01*
X138450258Y-81554185D01*
X138450258Y-81432195D01*
X138572247Y-81432195D01*
X138694237Y-81432195D01*
X138694237Y-81554185D01*
X138694237Y-81676175D01*
X138816227Y-81676175D01*
X138938217Y-81676175D01*
X138938217Y-81188216D01*
X138938217Y-80700257D01*
X139060206Y-80700257D01*
X139182196Y-80700257D01*
X139182196Y-80944236D01*
X139182196Y-81188216D01*
X139304186Y-81188216D01*
X139426175Y-81188216D01*
X139426175Y-81310205D01*
X139426175Y-81432195D01*
X139304186Y-81432195D01*
X139182196Y-81432195D01*
X139182196Y-81554185D01*
X139182196Y-81676175D01*
X139060206Y-81676175D01*
X138938217Y-81676175D01*
X138938217Y-81798164D01*
X138938217Y-81920154D01*
X138816227Y-81920154D01*
X138694237Y-81920154D01*
X138694237Y-82042144D01*
X138694237Y-82164133D01*
X138938217Y-82164133D01*
X139182196Y-82164133D01*
X139182196Y-82286123D01*
X139182196Y-82408113D01*
X139060206Y-82408113D01*
X138938217Y-82408113D01*
X138938217Y-82530102D01*
X138938217Y-82652092D01*
X138816227Y-82652092D01*
X138694237Y-82652092D01*
X138694237Y-82896072D01*
X138694237Y-83140051D01*
X138938217Y-83140051D01*
X139182196Y-83140051D01*
X139182196Y-83506020D01*
X139182196Y-83871989D01*
X139548165Y-83871989D01*
X139914134Y-83871989D01*
X139914134Y-83993979D01*
X139914134Y-84115969D01*
X140036124Y-84115969D01*
X140158114Y-84115969D01*
X140158114Y-84237958D01*
X140158114Y-84359948D01*
X140402093Y-84359948D01*
X140646072Y-84359948D01*
X140646072Y-84481938D01*
X140646072Y-84603928D01*
X140402093Y-84603928D01*
X140158114Y-84603928D01*
X140158114Y-84725917D01*
X140158114Y-84847907D01*
X140280103Y-84847907D01*
G37*
G36*
X141256021Y-88019639D02*
G01*
X141378011Y-88019639D01*
X141378011Y-88141629D01*
X141378011Y-88263619D01*
X141256021Y-88263619D01*
X141134031Y-88263619D01*
X141134031Y-88141629D01*
X141134031Y-88019639D01*
X141256021Y-88019639D01*
G37*
G36*
X143573825Y-87775660D02*
G01*
X143573825Y-88263619D01*
X143451836Y-88263619D01*
X143329846Y-88263619D01*
X143329846Y-87897650D01*
X143329846Y-87531681D01*
X143207856Y-87531681D01*
X143085867Y-87531681D01*
X143085867Y-87653670D01*
X143085867Y-87775660D01*
X142963877Y-87775660D01*
X142841887Y-87775660D01*
X142841887Y-87653670D01*
X142841887Y-87531681D01*
X142963877Y-87531681D01*
X143085867Y-87531681D01*
X143085867Y-87409691D01*
X143085867Y-87287701D01*
X142963877Y-87287701D01*
X142841887Y-87287701D01*
X142841887Y-87409691D01*
X142841887Y-87531681D01*
X142475918Y-87531681D01*
X142109949Y-87531681D01*
X142109949Y-87409691D01*
X142109949Y-87287701D01*
X142353928Y-87287701D01*
X142597908Y-87287701D01*
X142597908Y-87165711D01*
X142597908Y-87043722D01*
X142231939Y-87043722D01*
X141865970Y-87043722D01*
X141865970Y-86921732D01*
X141865970Y-86799742D01*
X141743980Y-86799742D01*
X141621990Y-86799742D01*
X141621990Y-86677753D01*
X141621990Y-86555763D01*
X141743980Y-86555763D01*
X141865970Y-86555763D01*
X141865970Y-86433773D01*
X141865970Y-86311783D01*
X141987959Y-86311783D01*
X142109949Y-86311783D01*
X142109949Y-86555763D01*
X142109949Y-86799742D01*
X142353928Y-86799742D01*
X142597908Y-86799742D01*
X142597908Y-86921732D01*
X142597908Y-87043722D01*
X142841887Y-87043722D01*
X143085867Y-87043722D01*
X143085867Y-86921732D01*
X143085867Y-86799742D01*
X143207856Y-86799742D01*
X143329846Y-86799742D01*
X143329846Y-86921732D01*
X143329846Y-87043722D01*
X143451836Y-87043722D01*
X143573825Y-87043722D01*
X143573825Y-86921732D01*
X143573825Y-86799742D01*
X143451836Y-86799742D01*
X143329846Y-86799742D01*
X143329846Y-86555763D01*
X143329846Y-86311783D01*
X143695815Y-86311783D01*
X144061784Y-86311783D01*
X144061784Y-86433773D01*
X144061784Y-86555763D01*
X143939795Y-86555763D01*
X143817805Y-86555763D01*
X143817805Y-86799742D01*
X143817805Y-87043722D01*
X143939795Y-87043722D01*
X144061784Y-87043722D01*
X144061784Y-87165711D01*
X144061784Y-87287701D01*
X143817805Y-87287701D01*
X143573825Y-87287701D01*
X143573825Y-87775660D01*
G37*
G36*
X137962299Y-85335866D02*
G01*
X137962299Y-85579845D01*
X137840309Y-85579845D01*
X137718319Y-85579845D01*
X137718319Y-85335866D01*
X137718319Y-85091886D01*
X137840309Y-85091886D01*
X137962299Y-85091886D01*
X137962299Y-85335866D01*
G37*
G36*
X137352350Y-86067804D02*
G01*
X137474340Y-86067804D01*
X137474340Y-86677753D01*
X137474340Y-87287701D01*
X137352350Y-87287701D01*
X137230361Y-87287701D01*
X137230361Y-87043722D01*
X137230361Y-86799742D01*
X137108371Y-86799742D01*
X136986381Y-86799742D01*
X136986381Y-86555763D01*
X136986381Y-86311783D01*
X137108371Y-86311783D01*
X137230361Y-86311783D01*
X137230361Y-86189794D01*
X137230361Y-86067804D01*
X137352350Y-86067804D01*
G37*
G36*
X137962299Y-84359948D02*
G01*
X137962299Y-84603928D01*
X137840309Y-84603928D01*
X137718319Y-84603928D01*
X137718319Y-84725917D01*
X137718319Y-84847907D01*
X137596330Y-84847907D01*
X137474340Y-84847907D01*
X137474340Y-85335866D01*
X137474340Y-85823825D01*
X137352350Y-85823825D01*
X137230361Y-85823825D01*
X137230361Y-85945814D01*
X137230361Y-86067804D01*
X137108371Y-86067804D01*
X136986381Y-86067804D01*
X136986381Y-85701835D01*
X136986381Y-85335866D01*
X137108371Y-85335866D01*
X137230361Y-85335866D01*
X137230361Y-85091886D01*
X137230361Y-84847907D01*
X137108371Y-84847907D01*
X136986381Y-84847907D01*
X136986381Y-84603928D01*
X136986381Y-84359948D01*
X137230361Y-84359948D01*
X137474340Y-84359948D01*
X137474340Y-84481938D01*
X137474340Y-84603928D01*
X137596330Y-84603928D01*
X137718319Y-84603928D01*
X137718319Y-84359948D01*
X137718319Y-84115969D01*
X137840309Y-84115969D01*
X137962299Y-84115969D01*
X137962299Y-84359948D01*
G37*
G36*
X145159692Y-85823825D02*
G01*
X145281681Y-85823825D01*
X145281681Y-85945814D01*
X145281681Y-86067804D01*
X144915712Y-86067804D01*
X144549743Y-86067804D01*
X144549743Y-86189794D01*
X144549743Y-86311783D01*
X144305764Y-86311783D01*
X144061784Y-86311783D01*
X144061784Y-86067804D01*
X144305764Y-86067804D01*
X144427753Y-86067804D01*
X144549743Y-86067804D01*
X144549743Y-85945814D01*
X144549743Y-85823825D01*
X144427753Y-85823825D01*
X144305764Y-85823825D01*
X144305764Y-85945814D01*
X144305764Y-86067804D01*
X144061784Y-86067804D01*
X144061784Y-85945814D01*
X144061784Y-85579845D01*
X144305764Y-85579845D01*
X144549743Y-85579845D01*
X144549743Y-85457855D01*
X144549743Y-85335866D01*
X144793723Y-85335866D01*
X144793723Y-85457855D01*
X144793723Y-85579845D01*
X144915712Y-85579845D01*
X145037702Y-85579845D01*
X145037702Y-85457855D01*
X145037702Y-85335866D01*
X144915712Y-85335866D01*
X144793723Y-85335866D01*
X144549743Y-85335866D01*
X144427753Y-85335866D01*
X144305764Y-85335866D01*
X144305764Y-85213876D01*
X144305764Y-85091886D01*
X144427753Y-85091886D01*
X144549743Y-85091886D01*
X144549743Y-84969897D01*
X144549743Y-84847907D01*
X144671733Y-84847907D01*
X144793723Y-84847907D01*
X144793723Y-84725917D01*
X144793723Y-84603928D01*
X144915712Y-84603928D01*
X145037702Y-84603928D01*
X145037702Y-84725917D01*
X145037702Y-84847907D01*
X145159692Y-84847907D01*
X145281681Y-84847907D01*
X145281681Y-84969897D01*
X145281681Y-85091886D01*
X145403671Y-85091886D01*
X145525661Y-85091886D01*
X145525661Y-85457855D01*
X145525661Y-85823825D01*
X145647651Y-85823825D01*
X145769640Y-85823825D01*
X145769640Y-85701835D01*
X145769640Y-85579845D01*
X145891630Y-85579845D01*
X146013620Y-85579845D01*
X146013620Y-85701835D01*
X146013620Y-85823825D01*
X145891630Y-85823825D01*
X145769640Y-85823825D01*
X145769640Y-85945814D01*
X145769640Y-86067804D01*
X145647651Y-86067804D01*
X145525661Y-86067804D01*
X145525661Y-86189794D01*
X145525661Y-86311783D01*
X145403671Y-86311783D01*
X145281681Y-86311783D01*
X145281681Y-86189794D01*
X145281681Y-86067804D01*
X145403671Y-86067804D01*
X145525661Y-86067804D01*
X145525661Y-85945814D01*
X145525661Y-85823825D01*
X145403671Y-85823825D01*
X145281681Y-85823825D01*
X145281681Y-85701835D01*
X145281681Y-85579845D01*
X145159692Y-85579845D01*
X145037702Y-85579845D01*
X145037702Y-85701835D01*
X145037702Y-85823825D01*
X145159692Y-85823825D01*
G37*
G36*
X145891630Y-86067804D02*
G01*
X146013620Y-86067804D01*
X146013620Y-86189794D01*
X146013620Y-86311783D01*
X145891630Y-86311783D01*
X145769640Y-86311783D01*
X145769640Y-86189794D01*
X145769640Y-86067804D01*
X145891630Y-86067804D01*
G37*
G36*
X144793723Y-84359948D02*
G01*
X144793723Y-84603928D01*
X144671733Y-84603928D01*
X144549743Y-84603928D01*
X144549743Y-84481938D01*
X144549743Y-84359948D01*
X144427753Y-84359948D01*
X144305764Y-84359948D01*
X144305764Y-84237958D01*
X144305764Y-84115969D01*
X144549743Y-84115969D01*
X144793723Y-84115969D01*
X144793723Y-84359948D01*
G37*
G36*
X138206278Y-84969897D02*
G01*
X138206278Y-85091886D01*
X138084289Y-85091886D01*
X137962299Y-85091886D01*
X137962299Y-84969897D01*
X137962299Y-84847907D01*
X138084289Y-84847907D01*
X138206278Y-84847907D01*
X138206278Y-84969897D01*
G37*
G36*
X138206278Y-83018061D02*
G01*
X138206278Y-83140051D01*
X138084289Y-83140051D01*
X137962299Y-83140051D01*
X137962299Y-83018061D01*
X137962299Y-82896072D01*
X138084289Y-82896072D01*
X138206278Y-82896072D01*
X138206278Y-83018061D01*
G37*
G36*
X137962299Y-82042144D02*
G01*
X137962299Y-82164133D01*
X137840309Y-82164133D01*
X137718319Y-82164133D01*
X137718319Y-82042144D01*
X137718319Y-81920154D01*
X137840309Y-81920154D01*
X137962299Y-81920154D01*
X137962299Y-82042144D01*
G37*
G36*
X145525661Y-81554185D02*
G01*
X145525661Y-81920154D01*
X145403671Y-81920154D01*
X145281681Y-81920154D01*
X145281681Y-81554185D01*
X145281681Y-81188216D01*
X145403671Y-81188216D01*
X145525661Y-81188216D01*
X145525661Y-81554185D01*
G37*
G36*
X138206278Y-81310205D02*
G01*
X138206278Y-81432195D01*
X138084289Y-81432195D01*
X137962299Y-81432195D01*
X137962299Y-81310205D01*
X137962299Y-81188216D01*
X138084289Y-81188216D01*
X138206278Y-81188216D01*
X138206278Y-81310205D01*
G37*
G36*
X142597908Y-88019639D02*
G01*
X142597908Y-88263619D01*
X142475918Y-88263619D01*
X142353928Y-88263619D01*
X142353928Y-88141629D01*
X142353928Y-88019639D01*
X142231939Y-88019639D01*
X142109949Y-88019639D01*
X142109949Y-87897650D01*
X142109949Y-87775660D01*
X142353928Y-87775660D01*
X142597908Y-87775660D01*
X142597908Y-88019639D01*
G37*
G36*
X141865970Y-87897650D02*
G01*
X141865970Y-88263619D01*
X141743980Y-88263619D01*
X141621990Y-88263619D01*
X141621990Y-87897650D01*
X141621990Y-87531681D01*
X141743980Y-87531681D01*
X141865970Y-87531681D01*
X141865970Y-87897650D01*
G37*
G36*
X139426175Y-87897650D02*
G01*
X139426175Y-88019639D01*
X139304186Y-88019639D01*
X139182196Y-88019639D01*
X139182196Y-88141629D01*
X139182196Y-88263619D01*
X138938217Y-88263619D01*
X138694237Y-88263619D01*
X138694237Y-88019639D01*
X138694237Y-87775660D01*
X139060206Y-87775660D01*
X139426175Y-87775660D01*
X139426175Y-87897650D01*
G37*
G36*
X144061784Y-87653670D02*
G01*
X144061784Y-87775660D01*
X143939795Y-87775660D01*
X143817805Y-87775660D01*
X143817805Y-87653670D01*
X143817805Y-87531681D01*
X143939795Y-87531681D01*
X144061784Y-87531681D01*
X144061784Y-87653670D01*
G37*
G36*
X146013620Y-84847907D02*
G01*
X146013620Y-85335866D01*
X145891630Y-85335866D01*
X145769640Y-85335866D01*
X145769640Y-85091886D01*
X145769640Y-84847907D01*
X145647651Y-84847907D01*
X145525661Y-84847907D01*
X145525661Y-84725917D01*
X145525661Y-84603928D01*
X145647651Y-84603928D01*
X145769640Y-84603928D01*
X145769640Y-84481938D01*
X145769640Y-84359948D01*
X145891630Y-84359948D01*
X146013620Y-84359948D01*
X146013620Y-84847907D01*
G37*
G36*
X145647651Y-83140051D02*
G01*
X145769640Y-83140051D01*
X145769640Y-83262041D01*
X145769640Y-83384030D01*
X145647651Y-83384030D01*
X145525661Y-83384030D01*
X145525661Y-83262041D01*
X145525661Y-83140051D01*
X145647651Y-83140051D01*
G37*
G36*
X145525661Y-83018061D02*
G01*
X145525661Y-83140051D01*
X145403671Y-83140051D01*
X145281681Y-83140051D01*
X145281681Y-83018061D01*
X145281681Y-82896072D01*
X145403671Y-82896072D01*
X145525661Y-82896072D01*
X145525661Y-83018061D01*
G37*
G36*
X146013620Y-82774082D02*
G01*
X146013620Y-82896072D01*
X145891630Y-82896072D01*
X145769640Y-82896072D01*
X145769640Y-82774082D01*
X145769640Y-82652092D01*
X145891630Y-82652092D01*
X146013620Y-82652092D01*
X146013620Y-82774082D01*
G37*
G36*
X137230361Y-81554185D02*
G01*
X137230361Y-81676175D01*
X137352350Y-81676175D01*
X137474340Y-81676175D01*
X137474340Y-82042144D01*
X137474340Y-82408113D01*
X137352350Y-82408113D01*
X137230361Y-82408113D01*
X137230361Y-82530102D01*
X137230361Y-82652092D01*
X137474340Y-82652092D01*
X137718319Y-82652092D01*
X137718319Y-82774082D01*
X137718319Y-82896072D01*
X137352350Y-82896072D01*
X136986381Y-82896072D01*
X136986381Y-82530102D01*
X136986381Y-82164133D01*
X137108371Y-82164133D01*
X137230361Y-82164133D01*
X137230361Y-82042144D01*
X137230361Y-81920154D01*
X137108371Y-81920154D01*
X136986381Y-81920154D01*
X136986381Y-81676175D01*
X136986381Y-81432195D01*
X137108371Y-81432195D01*
X137230361Y-81432195D01*
X137230361Y-81554185D01*
G37*
G36*
X137474340Y-81310205D02*
G01*
X137474340Y-81432195D01*
X137352350Y-81432195D01*
X137230361Y-81432195D01*
X137230361Y-81310205D01*
X137230361Y-81188216D01*
X137352350Y-81188216D01*
X137474340Y-81188216D01*
X137474340Y-81310205D01*
G37*
G36*
X146013620Y-81554185D02*
G01*
X146013620Y-81920154D01*
X145891630Y-81920154D01*
X145769640Y-81920154D01*
X145769640Y-81554185D01*
X145769640Y-81188216D01*
X145891630Y-81188216D01*
X146013620Y-81188216D01*
X146013620Y-81554185D01*
G37*
G36*
X146013620Y-80944236D02*
G01*
X145159692Y-80944236D01*
X144305764Y-80944236D01*
X144305764Y-80687187D01*
X144562813Y-80687187D01*
X145157764Y-80689425D01*
X145270492Y-80689798D01*
X145376097Y-80690012D01*
X145466277Y-80690016D01*
X145542068Y-80689796D01*
X145604509Y-80689337D01*
X145654637Y-80688624D01*
X145693490Y-80687641D01*
X145722105Y-80686373D01*
X145741519Y-80684806D01*
X145752771Y-80682924D01*
X145756898Y-80680712D01*
X145757266Y-80677336D01*
X145757891Y-80658382D01*
X145758414Y-80624222D01*
X145758830Y-80576312D01*
X145759135Y-80516107D01*
X145759324Y-80445062D01*
X145759392Y-80364633D01*
X145759335Y-80276276D01*
X145759148Y-80181444D01*
X145758826Y-80081595D01*
X145756570Y-79493430D01*
X145159692Y-79493430D01*
X144562813Y-79493430D01*
X144562813Y-80090308D01*
X144562813Y-80687187D01*
X144305764Y-80687187D01*
X144305764Y-80090308D01*
X144305764Y-79236380D01*
X145159692Y-79236380D01*
X146013620Y-79236380D01*
X146013620Y-80090308D01*
X146013620Y-80364633D01*
X146013620Y-80944236D01*
G37*
G36*
X138694237Y-80944236D02*
G01*
X137840309Y-80944236D01*
X136986381Y-80944236D01*
X136986381Y-80687187D01*
X137243431Y-80687187D01*
X137838381Y-80689425D01*
X137951110Y-80689798D01*
X138056715Y-80690012D01*
X138146894Y-80690016D01*
X138222686Y-80689796D01*
X138285127Y-80689337D01*
X138335255Y-80688624D01*
X138374107Y-80687641D01*
X138402722Y-80686373D01*
X138422137Y-80684806D01*
X138433389Y-80682924D01*
X138437516Y-80680712D01*
X138437884Y-80677336D01*
X138438509Y-80658382D01*
X138439032Y-80624222D01*
X138439448Y-80576312D01*
X138439753Y-80516107D01*
X138439942Y-80445062D01*
X138440010Y-80364633D01*
X138439953Y-80276276D01*
X138439766Y-80181444D01*
X138439444Y-80081595D01*
X138437187Y-79493430D01*
X137840309Y-79493430D01*
X137243431Y-79493430D01*
X137243431Y-80090308D01*
X137243431Y-80687187D01*
X136986381Y-80687187D01*
X136986381Y-80090308D01*
X136986381Y-79236380D01*
X137840309Y-79236380D01*
X138694237Y-79236380D01*
X138694237Y-80090308D01*
X138694237Y-80364633D01*
X138694237Y-80944236D01*
G37*
G36*
X144061784Y-80334288D02*
G01*
X144061784Y-80456277D01*
X143939795Y-80456277D01*
X143817805Y-80456277D01*
X143817805Y-80334288D01*
X143817805Y-80212298D01*
X143939795Y-80212298D01*
X144061784Y-80212298D01*
X144061784Y-80334288D01*
G37*
G36*
X145525661Y-87409691D02*
G01*
X145525661Y-87775660D01*
X145159692Y-87775660D01*
X144793723Y-87775660D01*
X144793723Y-87409691D01*
X144793723Y-87043722D01*
X145159692Y-87043722D01*
X145525661Y-87043722D01*
X145525661Y-87409691D01*
G37*
G36*
X139670155Y-86433773D02*
G01*
X139670155Y-86555763D01*
X139548165Y-86555763D01*
X139426175Y-86555763D01*
X139426175Y-86433773D01*
X139426175Y-86311783D01*
X139548165Y-86311783D01*
X139670155Y-86311783D01*
X139670155Y-86433773D01*
G37*
G36*
X139182196Y-85457855D02*
G01*
X139182196Y-85579845D01*
X139060206Y-85579845D01*
X138938217Y-85579845D01*
X138938217Y-85457855D01*
X138938217Y-85335866D01*
X139060206Y-85335866D01*
X139182196Y-85335866D01*
X139182196Y-85457855D01*
G37*
G36*
X142719898Y-86311783D02*
G01*
X142841887Y-86311783D01*
X142841887Y-86433773D01*
X142841887Y-86555763D01*
X142963877Y-86555763D01*
X143085867Y-86555763D01*
X143085867Y-86677753D01*
X143085867Y-86799742D01*
X142841887Y-86799742D01*
X142597908Y-86799742D01*
X142597908Y-86555763D01*
X142597908Y-86311783D01*
X142719898Y-86311783D01*
G37*
G36*
X142841887Y-85945814D02*
G01*
X142841887Y-86067804D01*
X142719898Y-86067804D01*
X142597908Y-86067804D01*
X142597908Y-86189794D01*
X142597908Y-86311783D01*
X142353928Y-86311783D01*
X142109949Y-86311783D01*
X142109949Y-86189794D01*
X142109949Y-86067804D01*
X142231939Y-86067804D01*
X142353928Y-86067804D01*
X142353928Y-85945814D01*
X142353928Y-85823825D01*
X142597908Y-85823825D01*
X142841887Y-85823825D01*
X142841887Y-85945814D01*
G37*
G36*
X143329846Y-86189794D02*
G01*
X143329846Y-86311783D01*
X143207856Y-86311783D01*
X143085867Y-86311783D01*
X143085867Y-86189794D01*
X143085867Y-86067804D01*
X143207856Y-86067804D01*
X143329846Y-86067804D01*
X143329846Y-86189794D01*
G37*
G36*
X141378011Y-83262041D02*
G01*
X141378011Y-83628010D01*
X141500000Y-83628010D01*
X141621990Y-83628010D01*
X141621990Y-83506020D01*
X141621990Y-83384030D01*
X141743980Y-83384030D01*
X141865970Y-83384030D01*
X141865970Y-83750000D01*
X141865970Y-84115969D01*
X141987959Y-84115969D01*
X142109949Y-84115969D01*
X142109949Y-83993979D01*
X142109949Y-83871989D01*
X142475918Y-83871989D01*
X142841887Y-83871989D01*
X142841887Y-84237958D01*
X142841887Y-84603928D01*
X142963877Y-84603928D01*
X143085867Y-84603928D01*
X143085867Y-84359948D01*
X143085867Y-84115969D01*
X143207856Y-84115969D01*
X143329846Y-84115969D01*
X143329846Y-84359948D01*
X143329846Y-84603928D01*
X143573825Y-84603928D01*
X143817805Y-84603928D01*
X143817805Y-84481938D01*
X143817805Y-84359948D01*
X143939795Y-84359948D01*
X144061784Y-84359948D01*
X144061784Y-84481938D01*
X144061784Y-84603928D01*
X144305764Y-84603928D01*
X144549743Y-84603928D01*
X144549743Y-84725917D01*
X144549743Y-84847907D01*
X144305764Y-84847907D01*
X144061784Y-84847907D01*
X144061784Y-84969897D01*
X144061784Y-85091886D01*
X143939795Y-85091886D01*
X143817805Y-85091886D01*
X143817805Y-84969897D01*
X143817805Y-84847907D01*
X143695815Y-84847907D01*
X143573825Y-84847907D01*
X143573825Y-85091886D01*
X143573825Y-85335866D01*
X143817805Y-85335866D01*
X144061784Y-85335866D01*
X144061784Y-85457855D01*
X144061784Y-85579845D01*
X143939795Y-85579845D01*
X143817805Y-85579845D01*
X143817805Y-85823825D01*
X143817805Y-86067804D01*
X143573825Y-86067804D01*
X143329846Y-86067804D01*
X143329846Y-85945814D01*
X143329846Y-85823825D01*
X143451836Y-85823825D01*
X143573825Y-85823825D01*
X143573825Y-85701835D01*
X143573825Y-85579845D01*
X143451836Y-85579845D01*
X143329846Y-85579845D01*
X143329846Y-85091886D01*
X143329846Y-84603928D01*
X143207856Y-84603928D01*
X143085867Y-84603928D01*
X143085867Y-84725917D01*
X143085867Y-84847907D01*
X142841887Y-84847907D01*
X142597908Y-84847907D01*
X142597908Y-84725917D01*
X142597908Y-84603928D01*
X142475918Y-84603928D01*
X142353928Y-84603928D01*
X142353928Y-84481938D01*
X142353928Y-84359948D01*
X142475918Y-84359948D01*
X142597908Y-84359948D01*
X142597908Y-84237958D01*
X142597908Y-84115969D01*
X142353928Y-84115969D01*
X142109949Y-84115969D01*
X142109949Y-84481938D01*
X142109949Y-84847907D01*
X141987959Y-84847907D01*
X141865970Y-84847907D01*
X141865970Y-84725917D01*
X141865970Y-84603928D01*
X141743980Y-84603928D01*
X141621990Y-84603928D01*
X141621990Y-84725917D01*
X141621990Y-84847907D01*
X141743980Y-84847907D01*
X141865970Y-84847907D01*
X141865970Y-84969897D01*
X141865970Y-85091886D01*
X141743980Y-85091886D01*
X141621990Y-85091886D01*
X141621990Y-85335866D01*
X141621990Y-85579845D01*
X141378011Y-85579845D01*
X141134031Y-85579845D01*
X141134031Y-85335866D01*
X141134031Y-85091886D01*
X141012042Y-85091886D01*
X140890052Y-85091886D01*
X140890052Y-84969897D01*
X140890052Y-84847907D01*
X141012042Y-84847907D01*
X141134031Y-84847907D01*
X141134031Y-84969897D01*
X141134031Y-85091886D01*
X141256021Y-85091886D01*
X141378011Y-85091886D01*
X141378011Y-84847907D01*
X141378011Y-84603928D01*
X141500000Y-84603928D01*
X141621990Y-84603928D01*
X141621990Y-84359948D01*
X141621990Y-84115969D01*
X141500000Y-84115969D01*
X141378011Y-84115969D01*
X141378011Y-84359948D01*
X141378011Y-84603928D01*
X141134031Y-84603928D01*
X140890052Y-84603928D01*
X140890052Y-84481938D01*
X140890052Y-84359948D01*
X140768062Y-84359948D01*
X140646072Y-84359948D01*
X140646072Y-84237958D01*
X140646072Y-84115969D01*
X140402093Y-84115969D01*
X140158114Y-84115969D01*
X140158114Y-83993979D01*
X140158114Y-83871989D01*
X140280103Y-83871989D01*
X140402093Y-83871989D01*
X140646072Y-83871989D01*
X140768062Y-83871989D01*
X140890052Y-83871989D01*
X141134031Y-83871989D01*
X141134031Y-83993979D01*
X141134031Y-84115969D01*
X141256021Y-84115969D01*
X141378011Y-84115969D01*
X141378011Y-83993979D01*
X141378011Y-83871989D01*
X141256021Y-83871989D01*
X141134031Y-83871989D01*
X140890052Y-83871989D01*
X140890052Y-83750000D01*
X140890052Y-83628010D01*
X140768062Y-83628010D01*
X140646072Y-83628010D01*
X140646072Y-83750000D01*
X140646072Y-83871989D01*
X140402093Y-83871989D01*
X140402093Y-83750000D01*
X140402093Y-83628010D01*
X140280103Y-83628010D01*
X140158114Y-83628010D01*
X140158114Y-83506020D01*
X140158114Y-83384030D01*
X140280103Y-83384030D01*
X140402093Y-83384030D01*
X140646072Y-83384030D01*
X140768062Y-83384030D01*
X140890052Y-83384030D01*
X140890052Y-83262041D01*
X140890052Y-83140051D01*
X140768062Y-83140051D01*
X140646072Y-83140051D01*
X140646072Y-83262041D01*
X140646072Y-83384030D01*
X140402093Y-83384030D01*
X140402093Y-83262041D01*
X140402093Y-83140051D01*
X140280103Y-83140051D01*
X140158114Y-83140051D01*
X140158114Y-83018061D01*
X140158114Y-82896072D01*
X140280103Y-82896072D01*
X140402093Y-82896072D01*
X140402093Y-82774082D01*
X140402093Y-82652092D01*
X140524083Y-82652092D01*
X140646072Y-82652092D01*
X140646072Y-82774082D01*
X140646072Y-82896072D01*
X141012042Y-82896072D01*
X141378011Y-82896072D01*
X141378011Y-83140051D01*
X141378011Y-83262041D01*
G37*
G36*
X140890052Y-84725917D02*
G01*
X140890052Y-84847907D01*
X140768062Y-84847907D01*
X140646072Y-84847907D01*
X140646072Y-84725917D01*
X140646072Y-84603928D01*
X140768062Y-84603928D01*
X140890052Y-84603928D01*
X140890052Y-84725917D01*
G37*
G36*
X142597908Y-84969897D02*
G01*
X142597908Y-85091886D01*
X142475918Y-85091886D01*
X142353928Y-85091886D01*
X142353928Y-84969897D01*
X142353928Y-84847907D01*
X142475918Y-84847907D01*
X142597908Y-84847907D01*
X142597908Y-84969897D01*
G37*
G36*
X140890052Y-82042144D02*
G01*
X140890052Y-82164133D01*
X141012042Y-82164133D01*
X141134031Y-82164133D01*
X141134031Y-82408113D01*
X141134031Y-82652092D01*
X140890052Y-82652092D01*
X140646072Y-82652092D01*
X140646072Y-82286123D01*
X140646072Y-81920154D01*
X140768062Y-81920154D01*
X140890052Y-81920154D01*
X140890052Y-82042144D01*
G37*
G36*
X143085867Y-85457855D02*
G01*
X143085867Y-85579845D01*
X142841887Y-85579845D01*
X142597908Y-85579845D01*
X142597908Y-85457855D01*
X142597908Y-85335866D01*
X142841887Y-85335866D01*
X143085867Y-85335866D01*
X143085867Y-85457855D01*
G37*
G36*
X144061784Y-83993979D02*
G01*
X144061784Y-84115969D01*
X143817805Y-84115969D01*
X143573825Y-84115969D01*
X143573825Y-83993979D01*
X143573825Y-83871989D01*
X143817805Y-83871989D01*
X144061784Y-83871989D01*
X144061784Y-83993979D01*
G37*
G36*
X144549743Y-83750000D02*
G01*
X144549743Y-83871989D01*
X144427753Y-83871989D01*
X144305764Y-83871989D01*
X144305764Y-83750000D01*
X144305764Y-83628010D01*
X144427753Y-83628010D01*
X144549743Y-83628010D01*
X144549743Y-83750000D01*
G37*
G36*
X142475918Y-83140051D02*
G01*
X142841887Y-83140051D01*
X142841887Y-83384030D01*
X142841887Y-83628010D01*
X142719898Y-83628010D01*
X142597908Y-83628010D01*
X142597908Y-83506020D01*
X142597908Y-83384030D01*
X142475918Y-83384030D01*
X142353928Y-83384030D01*
X142353928Y-83506020D01*
X142353928Y-83628010D01*
X142231939Y-83628010D01*
X142109949Y-83628010D01*
X142109949Y-83384030D01*
X142109949Y-83140051D01*
X142475918Y-83140051D01*
G37*
G36*
X141987959Y-82896072D02*
G01*
X142109949Y-82896072D01*
X142109949Y-83018061D01*
X142109949Y-83140051D01*
X141987959Y-83140051D01*
X141865970Y-83140051D01*
X141865970Y-83018061D01*
X141865970Y-82896072D01*
X141987959Y-82896072D01*
G37*
G36*
X141865970Y-82774082D02*
G01*
X141865970Y-82896072D01*
X141743980Y-82896072D01*
X141621990Y-82896072D01*
X141621990Y-82774082D01*
X141621990Y-82652092D01*
X141743980Y-82652092D01*
X141865970Y-82652092D01*
X141865970Y-82774082D01*
G37*
G36*
X139182196Y-82774082D02*
G01*
X139182196Y-82896072D01*
X139060206Y-82896072D01*
X138938217Y-82896072D01*
X138938217Y-82774082D01*
X138938217Y-82652092D01*
X139060206Y-82652092D01*
X139182196Y-82652092D01*
X139182196Y-82774082D01*
G37*
G36*
X140402093Y-82286123D02*
G01*
X140402093Y-82408113D01*
X140280103Y-82408113D01*
X140158114Y-82408113D01*
X140158114Y-82286123D01*
X140158114Y-82164133D01*
X140280103Y-82164133D01*
X140402093Y-82164133D01*
X140402093Y-82286123D01*
G37*
G36*
X139670155Y-81554185D02*
G01*
X139670155Y-81676175D01*
X139548165Y-81676175D01*
X139426175Y-81676175D01*
X139426175Y-81554185D01*
X139426175Y-81432195D01*
X139548165Y-81432195D01*
X139670155Y-81432195D01*
X139670155Y-81554185D01*
G37*
G36*
X142597908Y-80822247D02*
G01*
X142597908Y-80944236D01*
X142475918Y-80944236D01*
X142353928Y-80944236D01*
X142353928Y-80822247D01*
X142353928Y-80700257D01*
X142475918Y-80700257D01*
X142597908Y-80700257D01*
X142597908Y-80822247D01*
G37*
G36*
X142841887Y-80578267D02*
G01*
X142841887Y-80700257D01*
X142719898Y-80700257D01*
X142597908Y-80700257D01*
X142597908Y-80578267D01*
X142597908Y-80456277D01*
X142719898Y-80456277D01*
X142841887Y-80456277D01*
X142841887Y-80578267D01*
G37*
G36*
X142109949Y-80822247D02*
G01*
X142109949Y-80944236D01*
X141987959Y-80944236D01*
X141865970Y-80944236D01*
X141865970Y-80822247D01*
X141865970Y-80700257D01*
X141987959Y-80700257D01*
X142109949Y-80700257D01*
X142109949Y-80822247D01*
G37*
G36*
X138694237Y-86677753D02*
G01*
X138694237Y-86799742D01*
X138572247Y-86799742D01*
X138450258Y-86799742D01*
X138450258Y-86677753D01*
X138450258Y-86555763D01*
X138572247Y-86555763D01*
X138694237Y-86555763D01*
X138694237Y-86677753D01*
G37*
G36*
X145525661Y-80090308D02*
G01*
X145525661Y-80456277D01*
X145159692Y-80456277D01*
X144793723Y-80456277D01*
X144793723Y-80090308D01*
X144793723Y-79724339D01*
X145159692Y-79724339D01*
X145525661Y-79724339D01*
X145525661Y-80090308D01*
G37*
G36*
X138206278Y-80090308D02*
G01*
X138206278Y-80456277D01*
X137840309Y-80456277D01*
X137474340Y-80456277D01*
X137474340Y-80090308D01*
X137474340Y-79724339D01*
X137840309Y-79724339D01*
X138206278Y-79724339D01*
X138206278Y-80090308D01*
G37*
D11*
%TO.C,JP3*%
X159163800Y-77347800D02*
X159163800Y-77947800D01*
X159863800Y-78647800D02*
X161263800Y-78647800D01*
X161263800Y-76647800D02*
X159863800Y-76647800D01*
X161963800Y-77947800D02*
X161963800Y-77347800D01*
X159863800Y-76647800D02*
G75*
G03*
X159163800Y-77347800I-1J-699999D01*
G01*
X159163800Y-77947800D02*
G75*
G03*
X159863800Y-78647800I699999J-1D01*
G01*
X161963800Y-77347800D02*
G75*
G03*
X161263800Y-76647800I-700000J0D01*
G01*
X161263800Y-78647800D02*
G75*
G03*
X161963800Y-77947800I0J700000D01*
G01*
%TO.C,JP1*%
X159150000Y-80850000D02*
X159150000Y-81450000D01*
X159850000Y-82150000D02*
X161250000Y-82150000D01*
X161250000Y-80150000D02*
X159850000Y-80150000D01*
X161950000Y-81450000D02*
X161950000Y-80850000D01*
X159850000Y-80150000D02*
G75*
G03*
X159150000Y-80850000I-1J-699999D01*
G01*
X159150000Y-81450000D02*
G75*
G03*
X159850000Y-82150000I699999J-1D01*
G01*
X161950000Y-80850000D02*
G75*
G03*
X161250000Y-80150000I-700000J0D01*
G01*
X161250000Y-82150000D02*
G75*
G03*
X161950000Y-81450000I0J700000D01*
G01*
%TO.C,JP2*%
X159150000Y-84100000D02*
X159150000Y-84700000D01*
X159850000Y-85400000D02*
X161250000Y-85400000D01*
X161250000Y-83400000D02*
X159850000Y-83400000D01*
X161950000Y-84700000D02*
X161950000Y-84100000D01*
X159850000Y-83400000D02*
G75*
G03*
X159150000Y-84100000I-1J-699999D01*
G01*
X159150000Y-84700000D02*
G75*
G03*
X159850000Y-85400000I699999J-1D01*
G01*
X161950000Y-84100000D02*
G75*
G03*
X161250000Y-83400000I-700000J0D01*
G01*
X161250000Y-85400000D02*
G75*
G03*
X161950000Y-84700000I0J700000D01*
G01*
%TD*%
M02*
