%TF.GenerationSoftware,KiCad,Pcbnew,7.0.2-0*%
%TF.CreationDate,2024-01-05T15:47:56-05:00*%
%TF.ProjectId,WiringHarness,57697269-6e67-4486-9172-6e6573732e6b,rev?*%
%TF.SameCoordinates,Original*%
%TF.FileFunction,Copper,L3,Inr*%
%TF.FilePolarity,Positive*%
%FSLAX46Y46*%
G04 Gerber Fmt 4.6, Leading zero omitted, Abs format (unit mm)*
G04 Created by KiCad (PCBNEW 7.0.2-0) date 2024-01-05 15:47:56*
%MOMM*%
%LPD*%
G01*
G04 APERTURE LIST*
G04 Aperture macros list*
%AMRoundRect*
0 Rectangle with rounded corners*
0 $1 Rounding radius*
0 $2 $3 $4 $5 $6 $7 $8 $9 X,Y pos of 4 corners*
0 Add a 4 corners polygon primitive as box body*
4,1,4,$2,$3,$4,$5,$6,$7,$8,$9,$2,$3,0*
0 Add four circle primitives for the rounded corners*
1,1,$1+$1,$2,$3*
1,1,$1+$1,$4,$5*
1,1,$1+$1,$6,$7*
1,1,$1+$1,$8,$9*
0 Add four rect primitives between the rounded corners*
20,1,$1+$1,$2,$3,$4,$5,0*
20,1,$1+$1,$4,$5,$6,$7,0*
20,1,$1+$1,$6,$7,$8,$9,0*
20,1,$1+$1,$8,$9,$2,$3,0*%
G04 Aperture macros list end*
%TA.AperFunction,ComponentPad*%
%ADD10R,1.700000X1.700000*%
%TD*%
%TA.AperFunction,ComponentPad*%
%ADD11O,1.700000X1.700000*%
%TD*%
%TA.AperFunction,ComponentPad*%
%ADD12C,4.400000*%
%TD*%
%TA.AperFunction,ComponentPad*%
%ADD13R,1.600000X1.600000*%
%TD*%
%TA.AperFunction,ComponentPad*%
%ADD14C,1.600000*%
%TD*%
%TA.AperFunction,ComponentPad*%
%ADD15R,3.500000X3.500000*%
%TD*%
%TA.AperFunction,ComponentPad*%
%ADD16RoundRect,0.750000X-0.750000X-1.000000X0.750000X-1.000000X0.750000X1.000000X-0.750000X1.000000X0*%
%TD*%
%TA.AperFunction,ComponentPad*%
%ADD17RoundRect,0.875000X-0.875000X-0.875000X0.875000X-0.875000X0.875000X0.875000X-0.875000X0.875000X0*%
%TD*%
%TA.AperFunction,ViaPad*%
%ADD18C,0.420000*%
%TD*%
%TA.AperFunction,Conductor*%
%ADD19C,0.635000*%
%TD*%
G04 APERTURE END LIST*
D10*
%TO.N,/StepX*%
%TO.C,J4*%
X159370000Y-110000000D03*
D11*
%TO.N,/DirX*%
X159370000Y-112540000D03*
%TO.N,/SCL*%
X156830000Y-110000000D03*
%TO.N,/SDA*%
X156830000Y-112540000D03*
%TO.N,/D0*%
X154290000Y-110000000D03*
%TO.N,/D1*%
X154290000Y-112540000D03*
%TO.N,/StepY*%
X151750000Y-110000000D03*
%TO.N,/DirY*%
X151750000Y-112540000D03*
%TO.N,/Vsys*%
X149210000Y-110000000D03*
%TO.N,GND*%
X149210000Y-112540000D03*
%TD*%
D10*
%TO.N,/SCL*%
%TO.C,J5*%
X157800000Y-80750000D03*
D11*
%TO.N,/SDA*%
X155260000Y-80750000D03*
%TO.N,GND*%
X152720000Y-80750000D03*
%TO.N,+5V*%
X150180000Y-80750000D03*
%TD*%
D12*
%TO.N,GND*%
%TO.C,H2*%
X177000000Y-110750000D03*
%TD*%
D10*
%TO.N,/Y0_0*%
%TO.C,J7*%
X181864000Y-81661000D03*
D11*
%TO.N,/Y1_0*%
X184404000Y-81661000D03*
%TO.N,/Y0_1*%
X181864000Y-84201000D03*
%TO.N,/Y1_1*%
X184404000Y-84201000D03*
%TO.N,/Y0_2*%
X181864000Y-86741000D03*
%TO.N,/Y1_2*%
X184404000Y-86741000D03*
%TO.N,/Y0_3*%
X181864000Y-89281000D03*
%TO.N,/Y1_3*%
X184404000Y-89281000D03*
%TO.N,GND*%
X181864000Y-91821000D03*
X184404000Y-91821000D03*
%TO.N,+5VP*%
X181864000Y-94361000D03*
X184404000Y-94361000D03*
%TO.N,unconnected-(J7-Pin_13-Pad13)*%
X181864000Y-96901000D03*
%TO.N,/X_0*%
X184404000Y-96901000D03*
%TO.N,unconnected-(J7-Pin_15-Pad15)*%
X181864000Y-99441000D03*
%TO.N,/X_1*%
X184404000Y-99441000D03*
%TO.N,/D1*%
X181864000Y-101981000D03*
%TO.N,/X_2*%
X184404000Y-101981000D03*
%TO.N,/D0*%
X181864000Y-104521000D03*
%TO.N,/X_3*%
X184404000Y-104521000D03*
%TO.N,GND*%
X181864000Y-107061000D03*
X184404000Y-107061000D03*
%TO.N,Net-(J7-Pin_23)*%
X181864000Y-109601000D03*
%TO.N,+5VP*%
X184404000Y-109601000D03*
%TD*%
D12*
%TO.N,GND*%
%TO.C,H5*%
X132000000Y-80750000D03*
%TD*%
%TO.N,GND*%
%TO.C,H3*%
X132000000Y-110750000D03*
%TD*%
D13*
%TO.N,+5VP*%
%TO.C,C3*%
X167934000Y-111836200D03*
D14*
%TO.N,GND*%
X170434000Y-111836200D03*
%TD*%
D15*
%TO.N,Net-(D1-A)*%
%TO.C,J1*%
X137512000Y-100592500D03*
D16*
%TO.N,GND*%
X131512000Y-100592500D03*
D17*
%TO.N,N/C*%
X134512000Y-105292500D03*
%TD*%
D13*
%TO.N,Net-(D1-A)*%
%TO.C,C10*%
X140200000Y-109250000D03*
D14*
%TO.N,GND*%
X140200000Y-111750000D03*
%TD*%
D12*
%TO.N,GND*%
%TO.C,H1*%
X177000000Y-80750000D03*
%TD*%
D18*
%TO.N,GND*%
X145415000Y-84074000D03*
X146050000Y-87122000D03*
X146850000Y-91270000D03*
X146860000Y-91810000D03*
X156550000Y-92000000D03*
X156972000Y-105130600D03*
X175006000Y-92710000D03*
X160274000Y-90678000D03*
X169150000Y-81500000D03*
X184785000Y-79502000D03*
X146050000Y-86360000D03*
X145415000Y-82042000D03*
X160020000Y-86614000D03*
X169150000Y-80800000D03*
X146050000Y-87884000D03*
X170942000Y-92710000D03*
X187071000Y-112649000D03*
X153289000Y-98958400D03*
X178435000Y-99568000D03*
X164211000Y-91821000D03*
X160274000Y-91440000D03*
%TO.N,/Vsys*%
X154940000Y-91440000D03*
X154940000Y-92710000D03*
X142240000Y-87630000D03*
X146685000Y-108585000D03*
X145415000Y-109855000D03*
X140970000Y-88900000D03*
X147955000Y-107315000D03*
X142240000Y-86360000D03*
X140970000Y-86360000D03*
X142240000Y-91440000D03*
X145415000Y-107315000D03*
X146685000Y-107315000D03*
X142240000Y-88900000D03*
X140970000Y-90170000D03*
X146685000Y-109855000D03*
X140970000Y-87630000D03*
X145415000Y-108585000D03*
X142240000Y-90170000D03*
X140970000Y-91440000D03*
X154940000Y-90170000D03*
%TO.N,/SDA3*%
X165735000Y-90678000D03*
X165468800Y-85674200D03*
X163576000Y-83515200D03*
%TO.N,/D0*%
X179628800Y-107950000D03*
%TO.N,/D1*%
X178917600Y-108356400D03*
%TO.N,/SCL3*%
X165481000Y-83769200D03*
X165222000Y-89154000D03*
X161200000Y-81150000D03*
%TO.N,/RstN*%
X180213000Y-79375000D03*
X179959000Y-90551000D03*
%TO.N,/StepX*%
X172466000Y-90805000D03*
X171958000Y-108839000D03*
%TO.N,/DirX*%
X173228000Y-113030000D03*
X173355000Y-90932000D03*
%TO.N,/StepY*%
X151257000Y-87807800D03*
%TO.N,/DirY*%
X173990000Y-114046000D03*
X174498000Y-89535000D03*
%TO.N,+3.3V*%
X162941000Y-77597000D03*
X173228000Y-79629000D03*
X162941000Y-78359000D03*
X162687000Y-89662000D03*
X173228000Y-77978000D03*
X169291000Y-92710000D03*
X162687000Y-92837000D03*
X173228000Y-78740000D03*
X162941000Y-79248000D03*
X163449000Y-85979000D03*
X173228000Y-80518000D03*
X162941000Y-76835000D03*
X161798000Y-88900000D03*
X162687000Y-91821000D03*
X179750000Y-78150000D03*
X162687000Y-88900000D03*
%TO.N,+5V*%
X149150000Y-86650000D03*
X158369000Y-77724000D03*
X146850000Y-84050000D03*
X149150000Y-88550000D03*
X149150000Y-87650000D03*
X149150000Y-85750000D03*
%TO.N,/X_0*%
X167900000Y-87000000D03*
X168150000Y-93900000D03*
%TO.N,/X_1*%
X167327000Y-87550000D03*
X167550000Y-94350000D03*
%TO.N,/X_2*%
X166800000Y-88100000D03*
X166900000Y-94900000D03*
%TO.N,/X_3*%
X166300000Y-88700000D03*
X166400000Y-107289600D03*
%TO.N,+5VP*%
X161925000Y-111760000D03*
X172720000Y-101600000D03*
X151765000Y-98425000D03*
X175260000Y-99060000D03*
X179197000Y-114681000D03*
X164465000Y-110490000D03*
X170180000Y-104140000D03*
X167640000Y-104140000D03*
X175260000Y-104140000D03*
X151765000Y-100965000D03*
X182245000Y-114681000D03*
X153035000Y-100965000D03*
X167640000Y-96520000D03*
X172720000Y-104140000D03*
X151765000Y-99695000D03*
X175260000Y-96520000D03*
X167640000Y-101600000D03*
X163195000Y-111760000D03*
X172720000Y-96520000D03*
X170180000Y-101600000D03*
X170180000Y-96520000D03*
X172720000Y-99060000D03*
X163195000Y-110490000D03*
X154305000Y-100965000D03*
X175260000Y-101600000D03*
X178054000Y-114681000D03*
X167640000Y-99060000D03*
X181229000Y-114681000D03*
X170180000Y-99060000D03*
X164465000Y-111760000D03*
X183261000Y-114681000D03*
X161925000Y-110490000D03*
X180213000Y-114681000D03*
%TD*%
D19*
%TO.N,+5VP*%
X181864000Y-94361000D02*
X178562000Y-94361000D01*
X181864000Y-94361000D02*
X187325000Y-94361000D01*
%TD*%
%TA.AperFunction,Conductor*%
%TO.N,+3.3V*%
G36*
X180283039Y-75845185D02*
G01*
X180328794Y-75897989D01*
X180340000Y-75949500D01*
X180340000Y-78540500D01*
X180320315Y-78607539D01*
X180267511Y-78653294D01*
X180216000Y-78664500D01*
X180126730Y-78664500D01*
X179959203Y-78705792D01*
X179959201Y-78705792D01*
X179959201Y-78705793D01*
X179806427Y-78785975D01*
X179677276Y-78900392D01*
X179579262Y-79042388D01*
X179518079Y-79203716D01*
X179511675Y-79256457D01*
X179484053Y-79320635D01*
X179426118Y-79359691D01*
X179356265Y-79361226D01*
X179296672Y-79324751D01*
X179282462Y-79305660D01*
X179226530Y-79213137D01*
X179025048Y-78955964D01*
X178794036Y-78724952D01*
X178536863Y-78523470D01*
X178533663Y-78521536D01*
X178533658Y-78521532D01*
X178260484Y-78356392D01*
X178260477Y-78356388D01*
X178257279Y-78354455D01*
X177959361Y-78220373D01*
X177647453Y-78123179D01*
X177643771Y-78122504D01*
X177643762Y-78122502D01*
X177329792Y-78064965D01*
X177329778Y-78064963D01*
X177326104Y-78064290D01*
X177322372Y-78064064D01*
X177322362Y-78064063D01*
X177003736Y-78044790D01*
X177000000Y-78044564D01*
X176996264Y-78044790D01*
X176677637Y-78064063D01*
X176677625Y-78064064D01*
X176673896Y-78064290D01*
X176670223Y-78064962D01*
X176670207Y-78064965D01*
X176356237Y-78122502D01*
X176356224Y-78122505D01*
X176352547Y-78123179D01*
X176348967Y-78124294D01*
X176348961Y-78124296D01*
X176044216Y-78219258D01*
X176044210Y-78219260D01*
X176040639Y-78220373D01*
X176037230Y-78221907D01*
X176037228Y-78221908D01*
X175746135Y-78352918D01*
X175746128Y-78352921D01*
X175742721Y-78354455D01*
X175739528Y-78356384D01*
X175739515Y-78356392D01*
X175466341Y-78521532D01*
X175466328Y-78521540D01*
X175463137Y-78523470D01*
X175460195Y-78525774D01*
X175460189Y-78525779D01*
X175283125Y-78664500D01*
X175205964Y-78724952D01*
X175203318Y-78727597D01*
X175203310Y-78727605D01*
X174977605Y-78953310D01*
X174977597Y-78953318D01*
X174974952Y-78955964D01*
X174972640Y-78958914D01*
X174972640Y-78958915D01*
X174775779Y-79210189D01*
X174775774Y-79210195D01*
X174773470Y-79213137D01*
X174771540Y-79216328D01*
X174771532Y-79216341D01*
X174606392Y-79489515D01*
X174606384Y-79489528D01*
X174604455Y-79492721D01*
X174602921Y-79496128D01*
X174602918Y-79496135D01*
X174507741Y-79707611D01*
X174470373Y-79790639D01*
X174469260Y-79794210D01*
X174469258Y-79794216D01*
X174377245Y-80089500D01*
X174373179Y-80102547D01*
X174372505Y-80106224D01*
X174372502Y-80106237D01*
X174314965Y-80420207D01*
X174314962Y-80420223D01*
X174314290Y-80423896D01*
X174314064Y-80427625D01*
X174314063Y-80427637D01*
X174310848Y-80480792D01*
X174294564Y-80750000D01*
X174294790Y-80753736D01*
X174314063Y-81072362D01*
X174314064Y-81072372D01*
X174314290Y-81076104D01*
X174314963Y-81079778D01*
X174314965Y-81079792D01*
X174372502Y-81393762D01*
X174372504Y-81393771D01*
X174373179Y-81397453D01*
X174470373Y-81709361D01*
X174604455Y-82007279D01*
X174606388Y-82010477D01*
X174606392Y-82010484D01*
X174771532Y-82283658D01*
X174771536Y-82283663D01*
X174773470Y-82286863D01*
X174974952Y-82544036D01*
X175205964Y-82775048D01*
X175463137Y-82976530D01*
X175742721Y-83145545D01*
X176040639Y-83279627D01*
X176352547Y-83376821D01*
X176673896Y-83435710D01*
X177000000Y-83455436D01*
X177326104Y-83435710D01*
X177647453Y-83376821D01*
X177959361Y-83279627D01*
X178257279Y-83145545D01*
X178536863Y-82976530D01*
X178794036Y-82775048D01*
X179025048Y-82544036D01*
X179226530Y-82286863D01*
X179395545Y-82007279D01*
X179529627Y-81709361D01*
X179626821Y-81397453D01*
X179685710Y-81076104D01*
X179705436Y-80750000D01*
X179685710Y-80423896D01*
X179626821Y-80102547D01*
X179626616Y-80101892D01*
X179629652Y-80032748D01*
X179669968Y-79975683D01*
X179734735Y-79949473D01*
X179803391Y-79962440D01*
X179804608Y-79963070D01*
X179806426Y-79964024D01*
X179959203Y-80044208D01*
X180126730Y-80085500D01*
X180126732Y-80085500D01*
X180216000Y-80085500D01*
X180283039Y-80105185D01*
X180328794Y-80157989D01*
X180340000Y-80209500D01*
X180340000Y-89754870D01*
X180320315Y-89821909D01*
X180267511Y-89867664D01*
X180198353Y-89877608D01*
X180186325Y-89875267D01*
X180086113Y-89850567D01*
X180045270Y-89840500D01*
X179872730Y-89840500D01*
X179705203Y-89881792D01*
X179705201Y-89881792D01*
X179705201Y-89881793D01*
X179552427Y-89961975D01*
X179423276Y-90076392D01*
X179325262Y-90218388D01*
X179264079Y-90379716D01*
X179243281Y-90551000D01*
X179264079Y-90722283D01*
X179325262Y-90883611D01*
X179358663Y-90932000D01*
X179423277Y-91025609D01*
X179552426Y-91140024D01*
X179705203Y-91220208D01*
X179872730Y-91261500D01*
X179872732Y-91261500D01*
X180045268Y-91261500D01*
X180045270Y-91261500D01*
X180186327Y-91226732D01*
X180256127Y-91229801D01*
X180313189Y-91270120D01*
X180339394Y-91334890D01*
X180340000Y-91347129D01*
X180340000Y-93419000D01*
X180320315Y-93486039D01*
X180267511Y-93531794D01*
X180216000Y-93543000D01*
X178516062Y-93543000D01*
X178512604Y-93543389D01*
X178512597Y-93543390D01*
X178378828Y-93558462D01*
X178204836Y-93619344D01*
X178048758Y-93717414D01*
X177933908Y-93832264D01*
X177872585Y-93865748D01*
X177847002Y-93868580D01*
X168979262Y-93924004D01*
X168912101Y-93904738D01*
X168866017Y-93852221D01*
X168855391Y-93814955D01*
X168844921Y-93728717D01*
X168783737Y-93567389D01*
X168783737Y-93567388D01*
X168727585Y-93486039D01*
X168685723Y-93425391D01*
X168556574Y-93310976D01*
X168403797Y-93230792D01*
X168236270Y-93189500D01*
X168063730Y-93189500D01*
X167896203Y-93230792D01*
X167896201Y-93230792D01*
X167896201Y-93230793D01*
X167743427Y-93310975D01*
X167614276Y-93425392D01*
X167516262Y-93567388D01*
X167514588Y-93571805D01*
X167472408Y-93627506D01*
X167428322Y-93648227D01*
X167296203Y-93680792D01*
X167226426Y-93717414D01*
X167143427Y-93760975D01*
X167014274Y-93875392D01*
X167008748Y-93883399D01*
X166954463Y-93927386D01*
X166907476Y-93936952D01*
X160144775Y-93979220D01*
X160077614Y-93959954D01*
X160031530Y-93907437D01*
X160020000Y-93855222D01*
X160020000Y-92710000D01*
X170226281Y-92710000D01*
X170247079Y-92881283D01*
X170308262Y-93042611D01*
X170379260Y-93145469D01*
X170406277Y-93184609D01*
X170535426Y-93299024D01*
X170688203Y-93379208D01*
X170855730Y-93420500D01*
X170855732Y-93420500D01*
X171028268Y-93420500D01*
X171028270Y-93420500D01*
X171195797Y-93379208D01*
X171348574Y-93299024D01*
X171477723Y-93184609D01*
X171575737Y-93042611D01*
X171636921Y-92881283D01*
X171657718Y-92710000D01*
X174290281Y-92710000D01*
X174311079Y-92881283D01*
X174372262Y-93042611D01*
X174443260Y-93145469D01*
X174470277Y-93184609D01*
X174599426Y-93299024D01*
X174752203Y-93379208D01*
X174919730Y-93420500D01*
X174919732Y-93420500D01*
X175092268Y-93420500D01*
X175092270Y-93420500D01*
X175259797Y-93379208D01*
X175412574Y-93299024D01*
X175541723Y-93184609D01*
X175639737Y-93042611D01*
X175700921Y-92881283D01*
X175721718Y-92710000D01*
X175700921Y-92538717D01*
X175639737Y-92377389D01*
X175639737Y-92377388D01*
X175563839Y-92267432D01*
X175541723Y-92235391D01*
X175412574Y-92120976D01*
X175259797Y-92040792D01*
X175092270Y-91999500D01*
X174919730Y-91999500D01*
X174752203Y-92040792D01*
X174752201Y-92040792D01*
X174752201Y-92040793D01*
X174599427Y-92120975D01*
X174470276Y-92235392D01*
X174372262Y-92377388D01*
X174311079Y-92538716D01*
X174290281Y-92710000D01*
X171657718Y-92710000D01*
X171636921Y-92538717D01*
X171575737Y-92377389D01*
X171575737Y-92377388D01*
X171499839Y-92267432D01*
X171477723Y-92235391D01*
X171348574Y-92120976D01*
X171195797Y-92040792D01*
X171028270Y-91999500D01*
X170855730Y-91999500D01*
X170688203Y-92040792D01*
X170688201Y-92040792D01*
X170688201Y-92040793D01*
X170535427Y-92120975D01*
X170406276Y-92235392D01*
X170308262Y-92377388D01*
X170247079Y-92538716D01*
X170226281Y-92710000D01*
X160020000Y-92710000D01*
X160020000Y-92267432D01*
X160039685Y-92200393D01*
X160092489Y-92154638D01*
X160161647Y-92144694D01*
X160173672Y-92147035D01*
X160187730Y-92150500D01*
X160360268Y-92150500D01*
X160360270Y-92150500D01*
X160527797Y-92109208D01*
X160680574Y-92029024D01*
X160809723Y-91914609D01*
X160874337Y-91820999D01*
X163495281Y-91820999D01*
X163516079Y-91992283D01*
X163577262Y-92153611D01*
X163633712Y-92235392D01*
X163675277Y-92295609D01*
X163804426Y-92410024D01*
X163957203Y-92490208D01*
X164124730Y-92531500D01*
X164124732Y-92531500D01*
X164297268Y-92531500D01*
X164297270Y-92531500D01*
X164464797Y-92490208D01*
X164617574Y-92410024D01*
X164746723Y-92295609D01*
X164844737Y-92153611D01*
X164905921Y-91992283D01*
X164926718Y-91821000D01*
X164905921Y-91649717D01*
X164844737Y-91488389D01*
X164844737Y-91488388D01*
X164788287Y-91406607D01*
X164746723Y-91346391D01*
X164617574Y-91231976D01*
X164464797Y-91151792D01*
X164297270Y-91110500D01*
X164124730Y-91110500D01*
X163957203Y-91151792D01*
X163957201Y-91151792D01*
X163957201Y-91151793D01*
X163804427Y-91231975D01*
X163675276Y-91346392D01*
X163577262Y-91488388D01*
X163516079Y-91649716D01*
X163495281Y-91820999D01*
X160874337Y-91820999D01*
X160907737Y-91772611D01*
X160968921Y-91611283D01*
X160989718Y-91440000D01*
X160968921Y-91268717D01*
X160907737Y-91107389D01*
X160907736Y-91107388D01*
X160906061Y-91102970D01*
X160900694Y-91033307D01*
X160906061Y-91015027D01*
X160907734Y-91010614D01*
X160907737Y-91010611D01*
X160968921Y-90849283D01*
X160989718Y-90678000D01*
X160968921Y-90506717D01*
X160907737Y-90345389D01*
X160907737Y-90345388D01*
X160850724Y-90262792D01*
X160809723Y-90203391D01*
X160680574Y-90088976D01*
X160527797Y-90008792D01*
X160360270Y-89967500D01*
X160187730Y-89967500D01*
X160187728Y-89967500D01*
X160173673Y-89970964D01*
X160103871Y-89967894D01*
X160046809Y-89927573D01*
X160020605Y-89862804D01*
X160020000Y-89850567D01*
X160020000Y-89154000D01*
X164506281Y-89154000D01*
X164527079Y-89325283D01*
X164588262Y-89486611D01*
X164621663Y-89535000D01*
X164686277Y-89628609D01*
X164815426Y-89743024D01*
X164968203Y-89823208D01*
X165135730Y-89864500D01*
X165135732Y-89864500D01*
X165254846Y-89864500D01*
X165321885Y-89884185D01*
X165367640Y-89936989D01*
X165377584Y-90006147D01*
X165348559Y-90069703D01*
X165337073Y-90081316D01*
X165199275Y-90203392D01*
X165101262Y-90345388D01*
X165040079Y-90506716D01*
X165019281Y-90677999D01*
X165040079Y-90849283D01*
X165101262Y-91010611D01*
X165134663Y-91059000D01*
X165199277Y-91152609D01*
X165328426Y-91267024D01*
X165481203Y-91347208D01*
X165648730Y-91388500D01*
X165648732Y-91388500D01*
X165821268Y-91388500D01*
X165821270Y-91388500D01*
X165988797Y-91347208D01*
X166141574Y-91267024D01*
X166270723Y-91152609D01*
X166368737Y-91010611D01*
X166429921Y-90849283D01*
X166435298Y-90804999D01*
X171750281Y-90804999D01*
X171771079Y-90976283D01*
X171832262Y-91137611D01*
X171893779Y-91226732D01*
X171930277Y-91279609D01*
X172059426Y-91394024D01*
X172212203Y-91474208D01*
X172379730Y-91515500D01*
X172379732Y-91515500D01*
X172552269Y-91515500D01*
X172552270Y-91515500D01*
X172719797Y-91474208D01*
X172754399Y-91456046D01*
X172822902Y-91442321D01*
X172887956Y-91467811D01*
X172894243Y-91473022D01*
X172948426Y-91521024D01*
X173101203Y-91601208D01*
X173268730Y-91642500D01*
X173268732Y-91642500D01*
X173441268Y-91642500D01*
X173441270Y-91642500D01*
X173608797Y-91601208D01*
X173761574Y-91521024D01*
X173890723Y-91406609D01*
X173988737Y-91264611D01*
X174049921Y-91103283D01*
X174070718Y-90932000D01*
X174049921Y-90760717D01*
X173988737Y-90599389D01*
X173988737Y-90599388D01*
X173924770Y-90506717D01*
X173890723Y-90457391D01*
X173761574Y-90342976D01*
X173608797Y-90262792D01*
X173441270Y-90221500D01*
X173268730Y-90221500D01*
X173226848Y-90231822D01*
X173101200Y-90262792D01*
X173066599Y-90280952D01*
X172998091Y-90294676D01*
X172933038Y-90269183D01*
X172926768Y-90263988D01*
X172872574Y-90215976D01*
X172872572Y-90215975D01*
X172872571Y-90215974D01*
X172719799Y-90135793D01*
X172719798Y-90135792D01*
X172719797Y-90135792D01*
X172552270Y-90094500D01*
X172379730Y-90094500D01*
X172212203Y-90135792D01*
X172212201Y-90135792D01*
X172212201Y-90135793D01*
X172059427Y-90215975D01*
X171930276Y-90330392D01*
X171832262Y-90472388D01*
X171771079Y-90633716D01*
X171750281Y-90804999D01*
X166435298Y-90804999D01*
X166450718Y-90678000D01*
X166429921Y-90506717D01*
X166368737Y-90345389D01*
X166368737Y-90345388D01*
X166311724Y-90262792D01*
X166270723Y-90203391D01*
X166141574Y-90088976D01*
X165988797Y-90008792D01*
X165821270Y-89967500D01*
X165702154Y-89967500D01*
X165635115Y-89947815D01*
X165589360Y-89895011D01*
X165579416Y-89825853D01*
X165608441Y-89762297D01*
X165619927Y-89750684D01*
X165628572Y-89743024D01*
X165628574Y-89743024D01*
X165757723Y-89628609D01*
X165822337Y-89535000D01*
X173782281Y-89535000D01*
X173803079Y-89706283D01*
X173864262Y-89867611D01*
X173912151Y-89936989D01*
X173962277Y-90009609D01*
X174091426Y-90124024D01*
X174244203Y-90204208D01*
X174411730Y-90245500D01*
X174411732Y-90245500D01*
X174584268Y-90245500D01*
X174584270Y-90245500D01*
X174751797Y-90204208D01*
X174904574Y-90124024D01*
X175033723Y-90009609D01*
X175131737Y-89867611D01*
X175192921Y-89706283D01*
X175213718Y-89535000D01*
X175192921Y-89363717D01*
X175131737Y-89202389D01*
X175131737Y-89202388D01*
X175082729Y-89131389D01*
X175033723Y-89060391D01*
X174904574Y-88945976D01*
X174751797Y-88865792D01*
X174584270Y-88824500D01*
X174411730Y-88824500D01*
X174244203Y-88865792D01*
X174244201Y-88865792D01*
X174244201Y-88865793D01*
X174091427Y-88945975D01*
X173962276Y-89060392D01*
X173864262Y-89202388D01*
X173803079Y-89363716D01*
X173782281Y-89535000D01*
X165822337Y-89535000D01*
X165855737Y-89486611D01*
X165874856Y-89436196D01*
X165917031Y-89380496D01*
X165982628Y-89356438D01*
X166031303Y-89366746D01*
X166031585Y-89365604D01*
X166046199Y-89369206D01*
X166046203Y-89369208D01*
X166213730Y-89410500D01*
X166213732Y-89410500D01*
X166386268Y-89410500D01*
X166386270Y-89410500D01*
X166553797Y-89369208D01*
X166706574Y-89289024D01*
X166835723Y-89174609D01*
X166933737Y-89032611D01*
X166994921Y-88871283D01*
X166996306Y-88859870D01*
X167023926Y-88795694D01*
X167061774Y-88765021D01*
X167206574Y-88689024D01*
X167335723Y-88574609D01*
X167433737Y-88432611D01*
X167484774Y-88298037D01*
X167526952Y-88242335D01*
X167571042Y-88221612D01*
X167580797Y-88219208D01*
X167657185Y-88179115D01*
X167733571Y-88139026D01*
X167733572Y-88139024D01*
X167733574Y-88139024D01*
X167862723Y-88024609D01*
X167960737Y-87882611D01*
X168007031Y-87760542D01*
X168049208Y-87704843D01*
X168093299Y-87684119D01*
X168153797Y-87669208D01*
X168306571Y-87589026D01*
X168306572Y-87589024D01*
X168306574Y-87589024D01*
X168435723Y-87474609D01*
X168533737Y-87332611D01*
X168594921Y-87171283D01*
X168615718Y-87000000D01*
X168594921Y-86828717D01*
X168533737Y-86667389D01*
X168533737Y-86667388D01*
X168484730Y-86596390D01*
X168435723Y-86525391D01*
X168306574Y-86410976D01*
X168153797Y-86330792D01*
X167986270Y-86289500D01*
X167813730Y-86289500D01*
X167646203Y-86330792D01*
X167646201Y-86330792D01*
X167646201Y-86330793D01*
X167493427Y-86410975D01*
X167364276Y-86525392D01*
X167266263Y-86667387D01*
X167219969Y-86789455D01*
X167177791Y-86845157D01*
X167133704Y-86865879D01*
X167073205Y-86880791D01*
X166920427Y-86960975D01*
X166791276Y-87075392D01*
X166693263Y-87217388D01*
X166642225Y-87351962D01*
X166600046Y-87407664D01*
X166555963Y-87428386D01*
X166546205Y-87430791D01*
X166393425Y-87510976D01*
X166264276Y-87625392D01*
X166166262Y-87767388D01*
X166105079Y-87928716D01*
X166103693Y-87940132D01*
X166076070Y-88004309D01*
X166038223Y-88034979D01*
X165893428Y-88110973D01*
X165775253Y-88215666D01*
X165771259Y-88219206D01*
X165764276Y-88225392D01*
X165666261Y-88367390D01*
X165647142Y-88417803D01*
X165604964Y-88473505D01*
X165539366Y-88497561D01*
X165490696Y-88487252D01*
X165490415Y-88488396D01*
X165475800Y-88484793D01*
X165475797Y-88484792D01*
X165308270Y-88443500D01*
X165135730Y-88443500D01*
X164968203Y-88484792D01*
X164968201Y-88484792D01*
X164968201Y-88484793D01*
X164815427Y-88564975D01*
X164686276Y-88679392D01*
X164588262Y-88821388D01*
X164527079Y-88982716D01*
X164506281Y-89154000D01*
X160020000Y-89154000D01*
X160020000Y-87442911D01*
X160039685Y-87375872D01*
X160092489Y-87330117D01*
X160114319Y-87322516D01*
X160273797Y-87283208D01*
X160426574Y-87203024D01*
X160555723Y-87088609D01*
X160653737Y-86946611D01*
X160714921Y-86785283D01*
X160735718Y-86614000D01*
X160714921Y-86442717D01*
X160653737Y-86281389D01*
X160653737Y-86281388D01*
X160604729Y-86210389D01*
X160555723Y-86139391D01*
X160426574Y-86024976D01*
X160273797Y-85944792D01*
X160134795Y-85910531D01*
X160114324Y-85905485D01*
X160053944Y-85870328D01*
X160022156Y-85808108D01*
X160020000Y-85785088D01*
X160020000Y-85674199D01*
X164753081Y-85674199D01*
X164773879Y-85845483D01*
X164835062Y-86006811D01*
X164847601Y-86024976D01*
X164933077Y-86148809D01*
X165062226Y-86263224D01*
X165215003Y-86343408D01*
X165382530Y-86384700D01*
X165382532Y-86384700D01*
X165555068Y-86384700D01*
X165555070Y-86384700D01*
X165722597Y-86343408D01*
X165875374Y-86263224D01*
X166004523Y-86148809D01*
X166102537Y-86006811D01*
X166163721Y-85845483D01*
X166184518Y-85674200D01*
X166163721Y-85502917D01*
X166102537Y-85341589D01*
X166102537Y-85341588D01*
X166053529Y-85270590D01*
X166004523Y-85199591D01*
X165875374Y-85085176D01*
X165722597Y-85004992D01*
X165555070Y-84963700D01*
X165382530Y-84963700D01*
X165215003Y-85004992D01*
X165215001Y-85004992D01*
X165215001Y-85004993D01*
X165062227Y-85085175D01*
X164933076Y-85199592D01*
X164835062Y-85341588D01*
X164773879Y-85502916D01*
X164753081Y-85674199D01*
X160020000Y-85674199D01*
X160020000Y-83515200D01*
X162860281Y-83515200D01*
X162881079Y-83686483D01*
X162942262Y-83847811D01*
X163006230Y-83940483D01*
X163040277Y-83989809D01*
X163169426Y-84104224D01*
X163322203Y-84184408D01*
X163489730Y-84225700D01*
X163489732Y-84225700D01*
X163662268Y-84225700D01*
X163662270Y-84225700D01*
X163829797Y-84184408D01*
X163982574Y-84104224D01*
X164111723Y-83989809D01*
X164209737Y-83847811D01*
X164239551Y-83769199D01*
X164765281Y-83769199D01*
X164786079Y-83940483D01*
X164847262Y-84101811D01*
X164918261Y-84204669D01*
X164945277Y-84243809D01*
X165074426Y-84358224D01*
X165227203Y-84438408D01*
X165394730Y-84479700D01*
X165394732Y-84479700D01*
X165567268Y-84479700D01*
X165567270Y-84479700D01*
X165734797Y-84438408D01*
X165887574Y-84358224D01*
X166016723Y-84243809D01*
X166114737Y-84101811D01*
X166175921Y-83940483D01*
X166196718Y-83769200D01*
X166175921Y-83597917D01*
X166114737Y-83436589D01*
X166114737Y-83436588D01*
X166050770Y-83343917D01*
X166016723Y-83294591D01*
X165887574Y-83180176D01*
X165734797Y-83099992D01*
X165567270Y-83058700D01*
X165394730Y-83058700D01*
X165227203Y-83099992D01*
X165227201Y-83099992D01*
X165227201Y-83099993D01*
X165074427Y-83180175D01*
X164945276Y-83294592D01*
X164847262Y-83436588D01*
X164786079Y-83597916D01*
X164765281Y-83769199D01*
X164239551Y-83769199D01*
X164270921Y-83686483D01*
X164291718Y-83515200D01*
X164270921Y-83343917D01*
X164209737Y-83182589D01*
X164209737Y-83182588D01*
X164152724Y-83099992D01*
X164111723Y-83040591D01*
X163982574Y-82926176D01*
X163829797Y-82845992D01*
X163662270Y-82804700D01*
X163489730Y-82804700D01*
X163322203Y-82845992D01*
X163322201Y-82845992D01*
X163322201Y-82845993D01*
X163169427Y-82926175D01*
X163040276Y-83040592D01*
X162942262Y-83182588D01*
X162881079Y-83343916D01*
X162860281Y-83515200D01*
X160020000Y-83515200D01*
X160020000Y-81149999D01*
X160484281Y-81149999D01*
X160505079Y-81321283D01*
X160566262Y-81482611D01*
X160637261Y-81585469D01*
X160664277Y-81624609D01*
X160793426Y-81739024D01*
X160946203Y-81819208D01*
X161113730Y-81860500D01*
X161113732Y-81860500D01*
X161286268Y-81860500D01*
X161286270Y-81860500D01*
X161453797Y-81819208D01*
X161606574Y-81739024D01*
X161735723Y-81624609D01*
X161821734Y-81500000D01*
X168434281Y-81500000D01*
X168455079Y-81671283D01*
X168516262Y-81832611D01*
X168535513Y-81860500D01*
X168614277Y-81974609D01*
X168743426Y-82089024D01*
X168896203Y-82169208D01*
X169063730Y-82210500D01*
X169063732Y-82210500D01*
X169236268Y-82210500D01*
X169236270Y-82210500D01*
X169403797Y-82169208D01*
X169556574Y-82089024D01*
X169685723Y-81974609D01*
X169783737Y-81832611D01*
X169844921Y-81671283D01*
X169865718Y-81500000D01*
X169844921Y-81328717D01*
X169793818Y-81193969D01*
X169788451Y-81124307D01*
X169793814Y-81106039D01*
X169844921Y-80971283D01*
X169865718Y-80800000D01*
X169844921Y-80628717D01*
X169806940Y-80528572D01*
X169783737Y-80467388D01*
X169734729Y-80396390D01*
X169685723Y-80325391D01*
X169556574Y-80210976D01*
X169403797Y-80130792D01*
X169236270Y-80089500D01*
X169063730Y-80089500D01*
X168896203Y-80130792D01*
X168896201Y-80130792D01*
X168896201Y-80130793D01*
X168743427Y-80210975D01*
X168614276Y-80325392D01*
X168516262Y-80467388D01*
X168455079Y-80628716D01*
X168434281Y-80800000D01*
X168455079Y-80971283D01*
X168506181Y-81106028D01*
X168511548Y-81175691D01*
X168506181Y-81193969D01*
X168455079Y-81328715D01*
X168434281Y-81500000D01*
X161821734Y-81500000D01*
X161833737Y-81482611D01*
X161894921Y-81321283D01*
X161915718Y-81150000D01*
X161894921Y-80978717D01*
X161833737Y-80817389D01*
X161833737Y-80817388D01*
X161784642Y-80746263D01*
X161735723Y-80675391D01*
X161606574Y-80560976D01*
X161453797Y-80480792D01*
X161286270Y-80439500D01*
X161113730Y-80439500D01*
X160946203Y-80480792D01*
X160946201Y-80480792D01*
X160946201Y-80480793D01*
X160793427Y-80560975D01*
X160664276Y-80675392D01*
X160566262Y-80817388D01*
X160505079Y-80978716D01*
X160484281Y-81149999D01*
X160020000Y-81149999D01*
X160020000Y-75949500D01*
X160039685Y-75882461D01*
X160092489Y-75836706D01*
X160144000Y-75825500D01*
X180216000Y-75825500D01*
X180283039Y-75845185D01*
G37*
%TD.AperFunction*%
%TD*%
%TA.AperFunction,Conductor*%
%TO.N,+5V*%
G36*
X159457539Y-75845185D02*
G01*
X159503294Y-75897989D01*
X159514500Y-75949500D01*
X159514500Y-81149999D01*
X159514500Y-81499999D01*
X159514500Y-83515199D01*
X159514500Y-83769199D01*
X159514500Y-85674199D01*
X159514500Y-85785088D01*
X159514565Y-85786485D01*
X159514566Y-85786515D01*
X159515717Y-85811134D01*
X159516703Y-85832226D01*
X159516834Y-85833634D01*
X159516836Y-85833650D01*
X159518723Y-85853800D01*
X159518725Y-85853824D01*
X159518859Y-85855246D01*
X159519059Y-85856671D01*
X159519062Y-85856689D01*
X159525443Y-85901953D01*
X159551460Y-85978027D01*
X159554528Y-86047829D01*
X159519371Y-86108209D01*
X159516361Y-86110966D01*
X159484277Y-86139390D01*
X159386262Y-86281388D01*
X159325079Y-86442716D01*
X159304281Y-86614000D01*
X159325079Y-86785283D01*
X159386262Y-86946611D01*
X159484277Y-87088610D01*
X159514951Y-87115784D01*
X159552078Y-87174973D01*
X159551701Y-87243534D01*
X159535474Y-87298794D01*
X159535471Y-87298807D01*
X159534977Y-87300491D01*
X159534976Y-87300495D01*
X159534527Y-87303617D01*
X159534524Y-87303633D01*
X159514500Y-87442911D01*
X159514500Y-89411000D01*
X159494815Y-89478039D01*
X159442011Y-89523794D01*
X159390500Y-89535000D01*
X155289539Y-89535000D01*
X155231913Y-89520797D01*
X155193795Y-89500791D01*
X155081067Y-89473006D01*
X155026270Y-89459500D01*
X154853730Y-89459500D01*
X154812439Y-89469677D01*
X154686204Y-89500791D01*
X154648087Y-89520797D01*
X154590461Y-89535000D01*
X146174000Y-89535000D01*
X146106961Y-89515315D01*
X146061206Y-89462511D01*
X146050000Y-89411000D01*
X146050000Y-88712911D01*
X146069685Y-88645872D01*
X146122489Y-88600117D01*
X146144319Y-88592516D01*
X146303797Y-88553208D01*
X146456574Y-88473024D01*
X146585723Y-88358609D01*
X146683737Y-88216611D01*
X146744921Y-88055283D01*
X146765718Y-87884000D01*
X146756466Y-87807800D01*
X150541281Y-87807800D01*
X150562079Y-87979083D01*
X150623262Y-88140411D01*
X150689889Y-88236936D01*
X150721277Y-88282409D01*
X150850426Y-88396824D01*
X151003203Y-88477008D01*
X151170730Y-88518300D01*
X151170732Y-88518300D01*
X151343268Y-88518300D01*
X151343270Y-88518300D01*
X151510797Y-88477008D01*
X151663574Y-88396824D01*
X151792723Y-88282409D01*
X151890737Y-88140411D01*
X151951921Y-87979083D01*
X151972718Y-87807800D01*
X151951921Y-87636517D01*
X151911986Y-87531217D01*
X151890737Y-87475188D01*
X151838618Y-87399681D01*
X151792723Y-87333191D01*
X151663574Y-87218776D01*
X151510797Y-87138592D01*
X151343270Y-87097300D01*
X151170730Y-87097300D01*
X151003203Y-87138592D01*
X151003201Y-87138592D01*
X151003201Y-87138593D01*
X150850427Y-87218775D01*
X150850425Y-87218776D01*
X150850426Y-87218776D01*
X150732370Y-87323364D01*
X150721276Y-87333192D01*
X150623262Y-87475188D01*
X150562079Y-87636516D01*
X150541281Y-87807800D01*
X146756466Y-87807800D01*
X146744921Y-87712717D01*
X146683737Y-87551389D01*
X146683735Y-87551387D01*
X146682061Y-87546971D01*
X146676694Y-87477308D01*
X146682061Y-87459029D01*
X146683737Y-87454611D01*
X146744921Y-87293283D01*
X146765718Y-87122000D01*
X146744921Y-86950717D01*
X146683737Y-86789389D01*
X146683735Y-86789387D01*
X146682061Y-86784971D01*
X146676694Y-86715308D01*
X146682061Y-86697029D01*
X146685000Y-86689280D01*
X146744921Y-86531283D01*
X146765718Y-86360000D01*
X146744921Y-86188717D01*
X146691489Y-86047829D01*
X146683737Y-86027388D01*
X146634730Y-85956390D01*
X146585723Y-85885391D01*
X146456574Y-85770976D01*
X146303797Y-85690792D01*
X146164795Y-85656531D01*
X146144324Y-85651485D01*
X146083944Y-85616328D01*
X146052156Y-85554108D01*
X146050000Y-85531088D01*
X146050000Y-85064600D01*
X146049999Y-85064599D01*
X127199663Y-85089401D01*
X127132598Y-85069805D01*
X127086774Y-85017061D01*
X127075500Y-84965401D01*
X127075500Y-84074000D01*
X144699281Y-84074000D01*
X144720079Y-84245283D01*
X144781262Y-84406611D01*
X144852261Y-84509469D01*
X144879277Y-84548609D01*
X145008426Y-84663024D01*
X145161203Y-84743208D01*
X145328730Y-84784500D01*
X145328732Y-84784500D01*
X145501268Y-84784500D01*
X145501270Y-84784500D01*
X145668797Y-84743208D01*
X145821574Y-84663024D01*
X145950723Y-84548609D01*
X146048737Y-84406611D01*
X146109921Y-84245283D01*
X146130718Y-84074000D01*
X146109921Y-83902717D01*
X146048737Y-83741389D01*
X146048737Y-83741388D01*
X145973412Y-83632262D01*
X145950723Y-83599391D01*
X145821574Y-83484976D01*
X145668797Y-83404792D01*
X145501270Y-83363500D01*
X145328730Y-83363500D01*
X145161203Y-83404792D01*
X145161201Y-83404792D01*
X145161201Y-83404793D01*
X145008427Y-83484975D01*
X145008425Y-83484976D01*
X145008426Y-83484976D01*
X144879439Y-83599248D01*
X144879276Y-83599392D01*
X144781262Y-83741388D01*
X144720079Y-83902716D01*
X144699281Y-84074000D01*
X127075500Y-84074000D01*
X127075500Y-80750000D01*
X129294564Y-80750000D01*
X129294790Y-80753736D01*
X129314063Y-81072362D01*
X129314064Y-81072372D01*
X129314290Y-81076104D01*
X129314963Y-81079778D01*
X129314965Y-81079792D01*
X129372502Y-81393762D01*
X129372504Y-81393771D01*
X129373179Y-81397453D01*
X129374295Y-81401036D01*
X129374296Y-81401038D01*
X129458092Y-81669951D01*
X129470373Y-81709361D01*
X129604455Y-82007279D01*
X129606388Y-82010477D01*
X129606392Y-82010484D01*
X129771532Y-82283658D01*
X129771536Y-82283663D01*
X129773470Y-82286863D01*
X129974952Y-82544036D01*
X130205964Y-82775048D01*
X130463137Y-82976530D01*
X130742721Y-83145545D01*
X131040639Y-83279627D01*
X131352547Y-83376821D01*
X131673896Y-83435710D01*
X132000000Y-83455436D01*
X132326104Y-83435710D01*
X132647453Y-83376821D01*
X132959361Y-83279627D01*
X133257279Y-83145545D01*
X133536863Y-82976530D01*
X133794036Y-82775048D01*
X134025048Y-82544036D01*
X134226530Y-82286863D01*
X134374555Y-82042000D01*
X144699281Y-82042000D01*
X144720079Y-82213283D01*
X144781262Y-82374611D01*
X144852261Y-82477469D01*
X144879277Y-82516609D01*
X145008426Y-82631024D01*
X145161203Y-82711208D01*
X145328730Y-82752500D01*
X145328732Y-82752500D01*
X145501268Y-82752500D01*
X145501270Y-82752500D01*
X145668797Y-82711208D01*
X145821574Y-82631024D01*
X145950723Y-82516609D01*
X146048737Y-82374611D01*
X146109921Y-82213283D01*
X146130718Y-82042000D01*
X146109921Y-81870717D01*
X146048737Y-81709389D01*
X146048737Y-81709388D01*
X145998725Y-81636934D01*
X145950723Y-81567391D01*
X145821574Y-81452976D01*
X145668797Y-81372792D01*
X145501270Y-81331500D01*
X145328730Y-81331500D01*
X145161203Y-81372792D01*
X145161201Y-81372792D01*
X145161201Y-81372793D01*
X145008427Y-81452975D01*
X144879276Y-81567392D01*
X144781262Y-81709388D01*
X144720079Y-81870716D01*
X144699281Y-82042000D01*
X134374555Y-82042000D01*
X134395545Y-82007279D01*
X134529627Y-81709361D01*
X134626821Y-81397453D01*
X134676750Y-81125000D01*
X148882858Y-81125000D01*
X148906569Y-81213491D01*
X149006399Y-81427576D01*
X149141893Y-81621081D01*
X149308918Y-81788106D01*
X149502423Y-81923600D01*
X149716508Y-82023430D01*
X149804999Y-82047141D01*
X149805000Y-82047141D01*
X149805000Y-81125000D01*
X148882858Y-81125000D01*
X134676750Y-81125000D01*
X134685710Y-81076104D01*
X134701087Y-80821889D01*
X149680000Y-80821889D01*
X149720507Y-80959844D01*
X149798239Y-81080798D01*
X149906900Y-81174952D01*
X150037685Y-81234680D01*
X150144237Y-81250000D01*
X150215763Y-81250000D01*
X150322315Y-81234680D01*
X150453100Y-81174952D01*
X150555000Y-81086656D01*
X150555000Y-82047141D01*
X150643491Y-82023430D01*
X150857576Y-81923600D01*
X151051081Y-81788106D01*
X151218109Y-81621078D01*
X151348119Y-81435405D01*
X151402696Y-81391780D01*
X151472194Y-81384586D01*
X151534549Y-81416109D01*
X151551265Y-81435400D01*
X151681505Y-81621401D01*
X151848599Y-81788495D01*
X152042170Y-81924035D01*
X152256337Y-82023903D01*
X152484592Y-82085062D01*
X152484592Y-82085063D01*
X152719999Y-82105659D01*
X152719999Y-82105658D01*
X152720000Y-82105659D01*
X152955408Y-82085063D01*
X153183663Y-82023903D01*
X153397830Y-81924035D01*
X153591401Y-81788495D01*
X153758495Y-81621401D01*
X153888426Y-81435839D01*
X153943002Y-81392216D01*
X154012500Y-81385022D01*
X154074855Y-81416545D01*
X154091571Y-81435837D01*
X154221505Y-81621401D01*
X154388599Y-81788495D01*
X154582170Y-81924035D01*
X154796337Y-82023903D01*
X155024592Y-82085062D01*
X155024592Y-82085063D01*
X155259999Y-82105659D01*
X155259999Y-82105658D01*
X155260000Y-82105659D01*
X155495408Y-82085063D01*
X155723663Y-82023903D01*
X155937830Y-81924035D01*
X156131401Y-81788495D01*
X156253329Y-81666566D01*
X156314648Y-81633084D01*
X156384340Y-81638068D01*
X156440274Y-81679939D01*
X156457189Y-81710916D01*
X156506204Y-81842331D01*
X156592454Y-81957546D01*
X156707669Y-82043796D01*
X156842517Y-82094091D01*
X156902127Y-82100500D01*
X158697872Y-82100499D01*
X158757483Y-82094091D01*
X158892331Y-82043796D01*
X159007546Y-81957546D01*
X159093796Y-81842331D01*
X159144091Y-81707483D01*
X159150500Y-81647873D01*
X159150499Y-79852128D01*
X159144091Y-79792517D01*
X159093796Y-79657669D01*
X159007546Y-79542454D01*
X158892331Y-79456204D01*
X158757483Y-79405909D01*
X158697873Y-79399500D01*
X158694550Y-79399500D01*
X156905439Y-79399500D01*
X156905420Y-79399500D01*
X156902128Y-79399501D01*
X156898848Y-79399853D01*
X156898840Y-79399854D01*
X156842515Y-79405909D01*
X156707669Y-79456204D01*
X156592454Y-79542454D01*
X156506204Y-79657669D01*
X156457189Y-79789083D01*
X156415317Y-79845016D01*
X156349852Y-79869433D01*
X156281580Y-79854581D01*
X156253326Y-79833430D01*
X156131404Y-79711508D01*
X156131401Y-79711505D01*
X155937830Y-79575965D01*
X155723663Y-79476097D01*
X155649771Y-79456298D01*
X155495407Y-79414936D01*
X155259999Y-79394340D01*
X155024592Y-79414936D01*
X154796336Y-79476097D01*
X154582170Y-79575965D01*
X154388598Y-79711505D01*
X154221505Y-79878598D01*
X154091575Y-80064159D01*
X154036998Y-80107784D01*
X153967500Y-80114978D01*
X153905145Y-80083455D01*
X153888425Y-80064159D01*
X153758494Y-79878598D01*
X153591404Y-79711508D01*
X153591401Y-79711505D01*
X153397830Y-79575965D01*
X153183663Y-79476097D01*
X153109771Y-79456298D01*
X152955407Y-79414936D01*
X152720000Y-79394340D01*
X152484592Y-79414936D01*
X152256336Y-79476097D01*
X152042170Y-79575965D01*
X151848598Y-79711505D01*
X151681508Y-79878595D01*
X151551269Y-80064596D01*
X151496692Y-80108220D01*
X151427193Y-80115413D01*
X151364839Y-80083891D01*
X151348119Y-80064595D01*
X151218109Y-79878921D01*
X151051081Y-79711893D01*
X150857576Y-79576399D01*
X150643493Y-79476570D01*
X150555000Y-79452857D01*
X150555000Y-80413343D01*
X150453100Y-80325048D01*
X150322315Y-80265320D01*
X150215763Y-80250000D01*
X150144237Y-80250000D01*
X150037685Y-80265320D01*
X149906900Y-80325048D01*
X149798239Y-80419202D01*
X149720507Y-80540156D01*
X149680000Y-80678111D01*
X149680000Y-80821889D01*
X134701087Y-80821889D01*
X134705436Y-80750000D01*
X134685710Y-80423896D01*
X134676750Y-80375000D01*
X148882858Y-80375000D01*
X149805000Y-80375000D01*
X149805000Y-79452857D01*
X149716506Y-79476570D01*
X149502421Y-79576400D01*
X149308921Y-79711890D01*
X149141890Y-79878921D01*
X149006400Y-80072421D01*
X148906569Y-80286507D01*
X148882858Y-80374999D01*
X148882858Y-80375000D01*
X134676750Y-80375000D01*
X134626821Y-80102547D01*
X134529627Y-79790639D01*
X134395545Y-79492721D01*
X134385781Y-79476570D01*
X134228467Y-79216341D01*
X134228466Y-79216339D01*
X134226530Y-79213137D01*
X134025048Y-78955964D01*
X133794036Y-78724952D01*
X133536863Y-78523470D01*
X133533663Y-78521536D01*
X133533658Y-78521532D01*
X133260484Y-78356392D01*
X133260477Y-78356388D01*
X133257279Y-78354455D01*
X132959361Y-78220373D01*
X132647453Y-78123179D01*
X132643771Y-78122504D01*
X132643762Y-78122502D01*
X132329792Y-78064965D01*
X132329778Y-78064963D01*
X132326104Y-78064290D01*
X132322372Y-78064064D01*
X132322362Y-78064063D01*
X132003736Y-78044790D01*
X132000000Y-78044564D01*
X131996264Y-78044790D01*
X131677637Y-78064063D01*
X131677625Y-78064064D01*
X131673896Y-78064290D01*
X131670223Y-78064962D01*
X131670207Y-78064965D01*
X131356237Y-78122502D01*
X131356224Y-78122505D01*
X131352547Y-78123179D01*
X131348967Y-78124294D01*
X131348961Y-78124296D01*
X131044216Y-78219258D01*
X131044210Y-78219260D01*
X131040639Y-78220373D01*
X131037230Y-78221907D01*
X131037228Y-78221908D01*
X130746135Y-78352918D01*
X130746128Y-78352921D01*
X130742721Y-78354455D01*
X130739528Y-78356384D01*
X130739515Y-78356392D01*
X130466341Y-78521532D01*
X130466328Y-78521540D01*
X130463137Y-78523470D01*
X130460195Y-78525774D01*
X130460189Y-78525779D01*
X130346453Y-78614886D01*
X130205964Y-78724952D01*
X130203318Y-78727597D01*
X130203310Y-78727605D01*
X129977605Y-78953310D01*
X129977597Y-78953318D01*
X129974952Y-78955964D01*
X129972640Y-78958914D01*
X129972640Y-78958915D01*
X129775779Y-79210189D01*
X129775774Y-79210195D01*
X129773470Y-79213137D01*
X129771540Y-79216328D01*
X129771532Y-79216341D01*
X129606392Y-79489515D01*
X129606384Y-79489528D01*
X129604455Y-79492721D01*
X129602921Y-79496128D01*
X129602918Y-79496135D01*
X129498533Y-79728069D01*
X129470373Y-79790639D01*
X129469260Y-79794210D01*
X129469258Y-79794216D01*
X129380293Y-80079718D01*
X129373179Y-80102547D01*
X129372505Y-80106224D01*
X129372502Y-80106237D01*
X129314965Y-80420207D01*
X129314962Y-80420223D01*
X129314290Y-80423896D01*
X129314064Y-80427625D01*
X129314063Y-80427637D01*
X129294790Y-80746263D01*
X129294564Y-80750000D01*
X127075500Y-80750000D01*
X127075500Y-78753479D01*
X127075695Y-78746526D01*
X127083088Y-78614886D01*
X127093499Y-78429499D01*
X127095053Y-78415705D01*
X127147657Y-78106100D01*
X127150750Y-78092548D01*
X127158957Y-78064063D01*
X127237687Y-77790783D01*
X127242279Y-77777662D01*
X127296680Y-77646327D01*
X127362457Y-77487527D01*
X127368477Y-77475027D01*
X127520399Y-77200142D01*
X127527776Y-77188403D01*
X127709510Y-76932274D01*
X127718156Y-76921431D01*
X127927435Y-76687247D01*
X127937247Y-76677435D01*
X128171431Y-76468156D01*
X128182274Y-76459510D01*
X128438403Y-76277776D01*
X128450142Y-76270399D01*
X128725027Y-76118477D01*
X128737527Y-76112457D01*
X129027666Y-75992277D01*
X129040783Y-75987687D01*
X129342553Y-75900748D01*
X129356100Y-75897657D01*
X129665705Y-75845053D01*
X129679499Y-75843499D01*
X129996527Y-75825695D01*
X130003481Y-75825500D01*
X130024531Y-75825500D01*
X159390500Y-75825500D01*
X159457539Y-75845185D01*
G37*
%TD.AperFunction*%
%TD*%
%TA.AperFunction,Conductor*%
%TO.N,/Vsys*%
G36*
X145507350Y-85590497D02*
G01*
X145553174Y-85643241D01*
X145557776Y-85654775D01*
X145581460Y-85724026D01*
X145584529Y-85793828D01*
X145549372Y-85854208D01*
X145546361Y-85856966D01*
X145514277Y-85885390D01*
X145416262Y-86027388D01*
X145355079Y-86188716D01*
X145334281Y-86360000D01*
X145355079Y-86531283D01*
X145417938Y-86697029D01*
X145423305Y-86766692D01*
X145417938Y-86784971D01*
X145355079Y-86950716D01*
X145334281Y-87122000D01*
X145355079Y-87293283D01*
X145417938Y-87459029D01*
X145423305Y-87528692D01*
X145417938Y-87546971D01*
X145355079Y-87712716D01*
X145334281Y-87884000D01*
X145355079Y-88055283D01*
X145416262Y-88216611D01*
X145514277Y-88358610D01*
X145544951Y-88385784D01*
X145582078Y-88444973D01*
X145581701Y-88513534D01*
X145565474Y-88568794D01*
X145565471Y-88568807D01*
X145564977Y-88570491D01*
X145564976Y-88570495D01*
X145564527Y-88573617D01*
X145564524Y-88573633D01*
X145544500Y-88712911D01*
X145544499Y-89407676D01*
X145544500Y-89407694D01*
X145544500Y-89411000D01*
X145544854Y-89414294D01*
X145544855Y-89414309D01*
X145552518Y-89485577D01*
X145556053Y-89518456D01*
X145556757Y-89521693D01*
X145556759Y-89521704D01*
X145566553Y-89566722D01*
X145567259Y-89569967D01*
X145568305Y-89573110D01*
X145568309Y-89573124D01*
X145601385Y-89672503D01*
X145679173Y-89793541D01*
X145679175Y-89793543D01*
X145724930Y-89846347D01*
X145833664Y-89940567D01*
X145964541Y-90000338D01*
X146031580Y-90020023D01*
X146031584Y-90020024D01*
X146174000Y-90040500D01*
X154586711Y-90040500D01*
X154590461Y-90040500D01*
X154711431Y-90025812D01*
X154769057Y-90011609D01*
X154841973Y-89983955D01*
X154856244Y-89979507D01*
X154900493Y-89968601D01*
X154930163Y-89965000D01*
X154949835Y-89965000D01*
X154979509Y-89968603D01*
X155023742Y-89979505D01*
X155038037Y-89983959D01*
X155110943Y-90011609D01*
X155168569Y-90025812D01*
X155289539Y-90040500D01*
X155293289Y-90040500D01*
X159387176Y-90040500D01*
X159390500Y-90040500D01*
X159447571Y-90034364D01*
X159516330Y-90046769D01*
X159567468Y-90094379D01*
X159575775Y-90111147D01*
X159578208Y-90117162D01*
X159639068Y-90221692D01*
X159655788Y-90289532D01*
X159642192Y-90330018D01*
X159645602Y-90331312D01*
X159640263Y-90345388D01*
X159640263Y-90345389D01*
X159614219Y-90414062D01*
X159579079Y-90506717D01*
X159558281Y-90678000D01*
X159579079Y-90849283D01*
X159641938Y-91015028D01*
X159647305Y-91084691D01*
X159641938Y-91102970D01*
X159579079Y-91268716D01*
X159558281Y-91440000D01*
X159579079Y-91611283D01*
X159645602Y-91786689D01*
X159641890Y-91788096D01*
X159655481Y-91829327D01*
X159638007Y-91896976D01*
X159625263Y-91914597D01*
X159614432Y-91927096D01*
X159554662Y-92057971D01*
X159535474Y-92123318D01*
X159534977Y-92125012D01*
X159534976Y-92125016D01*
X159534527Y-92128138D01*
X159534524Y-92128154D01*
X159514499Y-92267431D01*
X159514500Y-92267432D01*
X159514500Y-92709999D01*
X159514500Y-93855222D01*
X159514343Y-93849396D01*
X159498320Y-93917319D01*
X159448059Y-93965854D01*
X159390542Y-93980000D01*
X150495000Y-93980000D01*
X150495000Y-102235000D01*
X164976000Y-102235000D01*
X165043039Y-102254685D01*
X165088794Y-102307489D01*
X165100000Y-102359000D01*
X165100000Y-107826000D01*
X165080315Y-107893039D01*
X165027511Y-107938794D01*
X164976000Y-107950000D01*
X151765000Y-107950000D01*
X151765000Y-108529403D01*
X151745315Y-108596442D01*
X151692511Y-108642197D01*
X151651808Y-108652931D01*
X151514592Y-108664936D01*
X151286336Y-108726097D01*
X151072170Y-108825965D01*
X150878598Y-108961505D01*
X150711508Y-109128595D01*
X150581269Y-109314596D01*
X150526692Y-109358220D01*
X150457193Y-109365413D01*
X150394839Y-109333891D01*
X150378119Y-109314595D01*
X150248109Y-109128921D01*
X150081081Y-108961893D01*
X149887576Y-108826399D01*
X149673493Y-108726570D01*
X149585000Y-108702857D01*
X149585000Y-109663343D01*
X149483100Y-109575048D01*
X149352315Y-109515320D01*
X149245763Y-109500000D01*
X149174237Y-109500000D01*
X149067685Y-109515320D01*
X148936900Y-109575048D01*
X148828239Y-109669202D01*
X148750507Y-109790156D01*
X148710000Y-109928111D01*
X148710000Y-110071889D01*
X148750507Y-110209844D01*
X148828239Y-110330798D01*
X148879252Y-110375000D01*
X147912858Y-110375000D01*
X147936569Y-110463491D01*
X148036399Y-110677576D01*
X148171893Y-110871081D01*
X148338918Y-111038106D01*
X148524595Y-111168119D01*
X148568219Y-111222696D01*
X148575412Y-111292195D01*
X148543890Y-111354549D01*
X148524595Y-111371269D01*
X148338595Y-111501508D01*
X148171505Y-111668598D01*
X148035965Y-111862170D01*
X147936097Y-112076336D01*
X147874936Y-112304592D01*
X147854340Y-112539999D01*
X147874936Y-112775407D01*
X147919709Y-112942501D01*
X147936097Y-113003663D01*
X148035965Y-113217830D01*
X148171505Y-113411401D01*
X148338599Y-113578495D01*
X148532170Y-113714035D01*
X148746337Y-113813903D01*
X148974592Y-113875063D01*
X149210000Y-113895659D01*
X149445408Y-113875063D01*
X149673663Y-113813903D01*
X149887830Y-113714035D01*
X150081401Y-113578495D01*
X150248495Y-113411401D01*
X150378426Y-113225839D01*
X150433002Y-113182216D01*
X150502500Y-113175022D01*
X150564855Y-113206545D01*
X150581571Y-113225837D01*
X150711505Y-113411401D01*
X150878599Y-113578495D01*
X151072170Y-113714035D01*
X151286337Y-113813903D01*
X151514591Y-113875063D01*
X151514592Y-113875063D01*
X151651807Y-113887068D01*
X151716876Y-113912520D01*
X151757855Y-113969111D01*
X151765000Y-114010596D01*
X151765000Y-115550500D01*
X151745315Y-115617539D01*
X151692511Y-115663294D01*
X151641000Y-115674500D01*
X130003481Y-115674500D01*
X129996528Y-115674305D01*
X129679511Y-115656501D01*
X129665693Y-115654944D01*
X129356105Y-115602343D01*
X129342548Y-115599249D01*
X129040787Y-115512313D01*
X129027662Y-115507720D01*
X128737541Y-115387548D01*
X128725013Y-115381515D01*
X128636998Y-115332871D01*
X128450156Y-115229607D01*
X128438391Y-115222214D01*
X128182285Y-115040497D01*
X128171417Y-115031831D01*
X128054885Y-114927692D01*
X127937256Y-114822572D01*
X127927425Y-114812741D01*
X127718168Y-114578582D01*
X127709504Y-114567716D01*
X127527782Y-114311604D01*
X127520395Y-114299848D01*
X127368480Y-114024979D01*
X127362454Y-114012465D01*
X127242279Y-113722337D01*
X127237686Y-113709212D01*
X127150750Y-113407451D01*
X127147656Y-113393894D01*
X127128431Y-113280741D01*
X127095053Y-113084296D01*
X127093499Y-113070498D01*
X127075693Y-112753436D01*
X127075500Y-112746548D01*
X127075500Y-112725469D01*
X127075500Y-112725468D01*
X127075500Y-110750000D01*
X129294564Y-110750000D01*
X129294790Y-110753736D01*
X129314063Y-111072362D01*
X129314064Y-111072372D01*
X129314290Y-111076104D01*
X129314963Y-111079778D01*
X129314965Y-111079792D01*
X129372502Y-111393762D01*
X129372504Y-111393771D01*
X129373179Y-111397453D01*
X129470373Y-111709361D01*
X129604455Y-112007279D01*
X129606388Y-112010477D01*
X129606392Y-112010484D01*
X129771532Y-112283658D01*
X129771536Y-112283663D01*
X129773470Y-112286863D01*
X129974952Y-112544036D01*
X130205964Y-112775048D01*
X130463137Y-112976530D01*
X130466339Y-112978466D01*
X130466341Y-112978467D01*
X130739515Y-113143607D01*
X130742721Y-113145545D01*
X131040639Y-113279627D01*
X131352547Y-113376821D01*
X131673896Y-113435710D01*
X132000000Y-113455436D01*
X132326104Y-113435710D01*
X132647453Y-113376821D01*
X132959361Y-113279627D01*
X133257279Y-113145545D01*
X133536863Y-112976530D01*
X133794036Y-112775048D01*
X134025048Y-112544036D01*
X134226530Y-112286863D01*
X134395545Y-112007279D01*
X134511337Y-111750000D01*
X138894531Y-111750000D01*
X138914364Y-111976689D01*
X138973261Y-112196497D01*
X139069432Y-112402735D01*
X139199953Y-112589140D01*
X139360859Y-112750046D01*
X139547264Y-112880567D01*
X139547265Y-112880567D01*
X139547266Y-112880568D01*
X139753504Y-112976739D01*
X139973308Y-113035635D01*
X140124436Y-113048857D01*
X140199999Y-113055468D01*
X140199999Y-113055467D01*
X140200000Y-113055468D01*
X140426692Y-113035635D01*
X140646496Y-112976739D01*
X140852734Y-112880568D01*
X141039139Y-112750047D01*
X141200047Y-112589139D01*
X141330568Y-112402734D01*
X141426739Y-112196496D01*
X141485635Y-111976692D01*
X141505468Y-111750000D01*
X141485635Y-111523308D01*
X141426739Y-111303504D01*
X141330568Y-111097266D01*
X141315751Y-111076104D01*
X141200046Y-110910859D01*
X141043162Y-110753975D01*
X141009677Y-110692652D01*
X141014661Y-110622960D01*
X141056533Y-110567027D01*
X141093927Y-110552315D01*
X141092890Y-110549534D01*
X141109229Y-110543439D01*
X141242331Y-110493796D01*
X141357546Y-110407546D01*
X141443796Y-110292331D01*
X141494091Y-110157483D01*
X141500500Y-110097873D01*
X141500500Y-109625000D01*
X147912858Y-109625000D01*
X148835000Y-109625000D01*
X148835000Y-108702857D01*
X148746506Y-108726570D01*
X148532421Y-108826400D01*
X148338921Y-108961890D01*
X148171890Y-109128921D01*
X148036400Y-109322421D01*
X147936569Y-109536507D01*
X147912858Y-109624999D01*
X147912858Y-109625000D01*
X141500500Y-109625000D01*
X141500499Y-108402128D01*
X141494091Y-108342517D01*
X141443796Y-108207669D01*
X141357546Y-108092454D01*
X141242331Y-108006204D01*
X141107483Y-107955909D01*
X141107482Y-107955908D01*
X141051166Y-107949854D01*
X141051165Y-107949853D01*
X141047873Y-107949500D01*
X141044550Y-107949500D01*
X139355439Y-107949500D01*
X139355420Y-107949500D01*
X139352128Y-107949501D01*
X139348848Y-107949853D01*
X139348840Y-107949854D01*
X139292515Y-107955909D01*
X139157669Y-108006204D01*
X139042454Y-108092454D01*
X138956204Y-108207668D01*
X138905910Y-108342515D01*
X138905909Y-108342517D01*
X138899500Y-108402127D01*
X138899500Y-108405448D01*
X138899500Y-108405449D01*
X138899500Y-110094560D01*
X138899500Y-110094578D01*
X138899501Y-110097872D01*
X138899853Y-110101152D01*
X138899854Y-110101159D01*
X138900400Y-110106237D01*
X138905909Y-110157483D01*
X138956204Y-110292331D01*
X139042454Y-110407546D01*
X139157669Y-110493796D01*
X139275448Y-110537725D01*
X139307110Y-110549534D01*
X139305914Y-110552740D01*
X139346955Y-110569737D01*
X139386807Y-110627126D01*
X139389307Y-110696951D01*
X139356838Y-110753975D01*
X139199950Y-110910863D01*
X139069432Y-111097264D01*
X138973261Y-111303502D01*
X138914364Y-111523310D01*
X138894531Y-111750000D01*
X134511337Y-111750000D01*
X134529627Y-111709361D01*
X134626821Y-111397453D01*
X134685710Y-111076104D01*
X134705436Y-110750000D01*
X134685710Y-110423896D01*
X134626821Y-110102547D01*
X134529627Y-109790639D01*
X134395545Y-109492721D01*
X134226530Y-109213137D01*
X134025048Y-108955964D01*
X133794036Y-108724952D01*
X133536863Y-108523470D01*
X133533663Y-108521536D01*
X133533658Y-108521532D01*
X133260484Y-108356392D01*
X133260477Y-108356388D01*
X133257279Y-108354455D01*
X132959361Y-108220373D01*
X132647453Y-108123179D01*
X132643771Y-108122504D01*
X132643762Y-108122502D01*
X132329792Y-108064965D01*
X132329778Y-108064963D01*
X132326104Y-108064290D01*
X132322372Y-108064064D01*
X132322362Y-108064063D01*
X132003736Y-108044790D01*
X132000000Y-108044564D01*
X131996264Y-108044790D01*
X131677637Y-108064063D01*
X131677625Y-108064064D01*
X131673896Y-108064290D01*
X131670223Y-108064962D01*
X131670207Y-108064965D01*
X131356237Y-108122502D01*
X131356224Y-108122505D01*
X131352547Y-108123179D01*
X131348967Y-108124294D01*
X131348961Y-108124296D01*
X131044216Y-108219258D01*
X131044210Y-108219260D01*
X131040639Y-108220373D01*
X131037230Y-108221907D01*
X131037228Y-108221908D01*
X130746135Y-108352918D01*
X130746128Y-108352921D01*
X130742721Y-108354455D01*
X130739528Y-108356384D01*
X130739515Y-108356392D01*
X130466341Y-108521532D01*
X130466328Y-108521540D01*
X130463137Y-108523470D01*
X130460195Y-108525774D01*
X130460189Y-108525779D01*
X130234166Y-108702857D01*
X130205964Y-108724952D01*
X130203318Y-108727597D01*
X130203310Y-108727605D01*
X129977605Y-108953310D01*
X129977597Y-108953318D01*
X129974952Y-108955964D01*
X129972640Y-108958914D01*
X129972640Y-108958915D01*
X129775779Y-109210189D01*
X129775774Y-109210195D01*
X129773470Y-109213137D01*
X129771540Y-109216328D01*
X129771532Y-109216341D01*
X129606392Y-109489515D01*
X129606384Y-109489528D01*
X129604455Y-109492721D01*
X129602921Y-109496128D01*
X129602918Y-109496135D01*
X129544921Y-109625000D01*
X129470373Y-109790639D01*
X129469260Y-109794210D01*
X129469258Y-109794216D01*
X129374636Y-110097872D01*
X129373179Y-110102547D01*
X129372505Y-110106224D01*
X129372502Y-110106237D01*
X129314965Y-110420207D01*
X129314962Y-110420223D01*
X129314290Y-110423896D01*
X129314064Y-110427625D01*
X129314063Y-110427637D01*
X129298471Y-110685404D01*
X129294564Y-110750000D01*
X127075500Y-110750000D01*
X127075500Y-106261122D01*
X132261500Y-106261122D01*
X132261586Y-106262747D01*
X132261587Y-106262772D01*
X132264067Y-106309459D01*
X132264067Y-106309466D01*
X132264295Y-106313741D01*
X132308755Y-106543626D01*
X132391426Y-106762690D01*
X132509930Y-106964632D01*
X132660858Y-107143642D01*
X132839868Y-107294570D01*
X133041810Y-107413074D01*
X133260874Y-107495745D01*
X133490759Y-107540205D01*
X133543378Y-107543000D01*
X133545022Y-107543000D01*
X135478978Y-107543000D01*
X135480622Y-107543000D01*
X135533241Y-107540205D01*
X135763126Y-107495745D01*
X135982190Y-107413074D01*
X136184132Y-107294570D01*
X136363142Y-107143642D01*
X136514070Y-106964632D01*
X136632574Y-106762690D01*
X136715245Y-106543626D01*
X136759705Y-106313741D01*
X136762500Y-106261122D01*
X136762500Y-105130599D01*
X156256281Y-105130599D01*
X156277079Y-105301883D01*
X156338262Y-105463211D01*
X156409260Y-105566069D01*
X156436277Y-105605209D01*
X156565426Y-105719624D01*
X156718203Y-105799808D01*
X156885730Y-105841100D01*
X156885732Y-105841100D01*
X157058268Y-105841100D01*
X157058270Y-105841100D01*
X157225797Y-105799808D01*
X157378574Y-105719624D01*
X157507723Y-105605209D01*
X157605737Y-105463211D01*
X157666921Y-105301883D01*
X157687718Y-105130600D01*
X157666921Y-104959317D01*
X157605737Y-104797989D01*
X157605737Y-104797988D01*
X157556729Y-104726989D01*
X157507723Y-104655991D01*
X157378574Y-104541576D01*
X157225797Y-104461392D01*
X157058270Y-104420100D01*
X156885730Y-104420100D01*
X156718203Y-104461392D01*
X156718201Y-104461392D01*
X156718201Y-104461393D01*
X156565427Y-104541575D01*
X156436276Y-104655992D01*
X156338262Y-104797988D01*
X156277079Y-104959316D01*
X156256281Y-105130599D01*
X136762500Y-105130599D01*
X136762500Y-104323878D01*
X136759705Y-104271259D01*
X136715245Y-104041374D01*
X136632574Y-103822310D01*
X136514070Y-103620368D01*
X136363142Y-103441358D01*
X136184132Y-103290430D01*
X135982190Y-103171926D01*
X135763126Y-103089255D01*
X135763121Y-103089254D01*
X135760475Y-103088742D01*
X135756974Y-103086934D01*
X135753251Y-103085529D01*
X135753414Y-103085095D01*
X135698395Y-103056682D01*
X135663503Y-102996148D01*
X135666876Y-102926360D01*
X135707445Y-102869475D01*
X135772328Y-102843552D01*
X135784007Y-102842999D01*
X139309872Y-102842999D01*
X139369483Y-102836591D01*
X139504331Y-102786296D01*
X139619546Y-102700046D01*
X139705796Y-102584831D01*
X139756091Y-102449983D01*
X139762500Y-102390373D01*
X139762499Y-98794628D01*
X139756091Y-98735017D01*
X139705796Y-98600169D01*
X139619546Y-98484954D01*
X139504331Y-98398704D01*
X139369483Y-98348409D01*
X139309873Y-98342000D01*
X139306550Y-98342000D01*
X135717439Y-98342000D01*
X135717420Y-98342000D01*
X135714128Y-98342001D01*
X135710848Y-98342353D01*
X135710840Y-98342354D01*
X135654515Y-98348409D01*
X135519669Y-98398704D01*
X135404454Y-98484954D01*
X135318204Y-98600168D01*
X135267910Y-98735015D01*
X135267909Y-98735017D01*
X135261500Y-98794627D01*
X135261500Y-98797948D01*
X135261500Y-98797949D01*
X135261500Y-102387060D01*
X135261500Y-102387078D01*
X135261501Y-102390372D01*
X135267909Y-102449983D01*
X135318204Y-102584831D01*
X135404454Y-102700046D01*
X135519669Y-102786296D01*
X135566940Y-102803927D01*
X135622873Y-102845796D01*
X135647291Y-102911261D01*
X135632440Y-102979534D01*
X135583035Y-103028940D01*
X135517033Y-103043934D01*
X135482242Y-103042086D01*
X135482240Y-103042085D01*
X135480622Y-103042000D01*
X133543378Y-103042000D01*
X133541753Y-103042086D01*
X133541727Y-103042087D01*
X133495040Y-103044567D01*
X133495031Y-103044568D01*
X133490759Y-103044795D01*
X133486561Y-103045606D01*
X133486552Y-103045608D01*
X133260877Y-103089254D01*
X133041807Y-103171927D01*
X132839868Y-103290430D01*
X132660858Y-103441358D01*
X132509930Y-103620368D01*
X132391427Y-103822307D01*
X132308754Y-104041377D01*
X132265108Y-104267052D01*
X132265106Y-104267061D01*
X132264295Y-104271259D01*
X132264068Y-104275531D01*
X132264067Y-104275540D01*
X132261587Y-104322227D01*
X132261586Y-104322253D01*
X132261500Y-104323878D01*
X132261500Y-106261122D01*
X127075500Y-106261122D01*
X127075500Y-101654295D01*
X129511500Y-101654295D01*
X129511501Y-101656716D01*
X129511691Y-101659135D01*
X129511692Y-101659151D01*
X129521904Y-101788916D01*
X129576902Y-102007181D01*
X129669992Y-102212125D01*
X129798180Y-102397154D01*
X129957345Y-102556319D01*
X130142374Y-102684507D01*
X130347318Y-102777597D01*
X130565583Y-102832595D01*
X130565584Y-102832595D01*
X130565588Y-102832596D01*
X130697783Y-102843000D01*
X132326216Y-102842999D01*
X132458412Y-102832596D01*
X132458416Y-102832595D01*
X132676681Y-102777597D01*
X132711063Y-102761979D01*
X132881626Y-102684507D01*
X133066654Y-102556319D01*
X133225819Y-102397154D01*
X133354007Y-102212126D01*
X133447096Y-102007183D01*
X133502096Y-101788912D01*
X133512500Y-101656717D01*
X133512499Y-99528284D01*
X133502096Y-99396088D01*
X133457824Y-99220391D01*
X133447097Y-99177818D01*
X133354007Y-98972874D01*
X133225819Y-98787845D01*
X133066654Y-98628680D01*
X132881625Y-98500492D01*
X132676681Y-98407402D01*
X132458416Y-98352404D01*
X132328651Y-98342191D01*
X132328636Y-98342190D01*
X132326217Y-98342000D01*
X132323771Y-98342000D01*
X130700229Y-98342000D01*
X130700203Y-98342000D01*
X130697784Y-98342001D01*
X130695365Y-98342191D01*
X130695348Y-98342192D01*
X130565583Y-98352404D01*
X130347318Y-98407402D01*
X130142374Y-98500492D01*
X129957345Y-98628680D01*
X129798180Y-98787845D01*
X129669992Y-98972874D01*
X129576902Y-99177818D01*
X129521904Y-99396083D01*
X129511691Y-99525848D01*
X129511690Y-99525864D01*
X129511500Y-99528283D01*
X129511500Y-99530727D01*
X129511500Y-99530728D01*
X129511500Y-101654270D01*
X129511500Y-101654295D01*
X127075500Y-101654295D01*
X127075500Y-91270000D01*
X146134281Y-91270000D01*
X146155079Y-91441283D01*
X146180841Y-91509212D01*
X146186208Y-91578875D01*
X146180842Y-91597152D01*
X146165079Y-91638717D01*
X146144281Y-91810000D01*
X146165079Y-91981283D01*
X146226262Y-92142611D01*
X146297260Y-92245469D01*
X146324277Y-92284609D01*
X146453426Y-92399024D01*
X146606203Y-92479208D01*
X146773730Y-92520500D01*
X146773732Y-92520500D01*
X146946268Y-92520500D01*
X146946270Y-92520500D01*
X147113797Y-92479208D01*
X147266574Y-92399024D01*
X147395723Y-92284609D01*
X147493737Y-92142611D01*
X147547823Y-92000000D01*
X155834281Y-92000000D01*
X155855079Y-92171283D01*
X155916262Y-92332611D01*
X155987261Y-92435469D01*
X156014277Y-92474609D01*
X156143426Y-92589024D01*
X156296203Y-92669208D01*
X156463730Y-92710500D01*
X156463732Y-92710500D01*
X156636268Y-92710500D01*
X156636270Y-92710500D01*
X156803797Y-92669208D01*
X156956574Y-92589024D01*
X157085723Y-92474609D01*
X157183737Y-92332611D01*
X157244921Y-92171283D01*
X157265718Y-92000000D01*
X157244921Y-91828717D01*
X157183737Y-91667389D01*
X157183737Y-91667388D01*
X157104906Y-91553183D01*
X157085723Y-91525391D01*
X156956574Y-91410976D01*
X156803797Y-91330792D01*
X156636270Y-91289500D01*
X156463730Y-91289500D01*
X156296203Y-91330792D01*
X156296201Y-91330792D01*
X156296201Y-91330793D01*
X156143427Y-91410975D01*
X156143425Y-91410976D01*
X156143426Y-91410976D01*
X156032540Y-91509212D01*
X156014276Y-91525392D01*
X155916262Y-91667388D01*
X155855079Y-91828716D01*
X155834281Y-92000000D01*
X147547823Y-92000000D01*
X147554921Y-91981283D01*
X147575718Y-91810000D01*
X147554921Y-91638717D01*
X147529157Y-91570786D01*
X147523791Y-91501124D01*
X147529155Y-91482852D01*
X147544921Y-91441283D01*
X147565718Y-91270000D01*
X147544921Y-91098717D01*
X147500437Y-90981423D01*
X147483737Y-90937388D01*
X147400611Y-90816960D01*
X147385723Y-90795391D01*
X147256574Y-90680976D01*
X147103797Y-90600792D01*
X146936270Y-90559500D01*
X146763730Y-90559500D01*
X146596203Y-90600792D01*
X146596201Y-90600792D01*
X146596201Y-90600793D01*
X146443427Y-90680975D01*
X146443425Y-90680976D01*
X146443426Y-90680976D01*
X146335485Y-90776603D01*
X146314276Y-90795392D01*
X146216262Y-90937388D01*
X146155079Y-91098716D01*
X146134281Y-91270000D01*
X127075500Y-91270000D01*
X127075500Y-85718902D01*
X127095185Y-85651863D01*
X127147989Y-85606108D01*
X127199337Y-85594902D01*
X127200325Y-85594900D01*
X127200328Y-85594901D01*
X145440286Y-85570901D01*
X145507350Y-85590497D01*
G37*
%TD.AperFunction*%
%TD*%
%TA.AperFunction,Conductor*%
%TO.N,+5VP*%
G36*
X188001153Y-75825694D02*
G01*
X188318180Y-75843497D01*
X188331978Y-75845051D01*
X188641580Y-75897653D01*
X188655135Y-75900747D01*
X188956898Y-75987681D01*
X188970025Y-75992274D01*
X189260153Y-76112448D01*
X189272660Y-76118471D01*
X189547518Y-76270377D01*
X189559292Y-76277775D01*
X189632622Y-76329805D01*
X189815416Y-76459503D01*
X189826270Y-76468159D01*
X190060436Y-76677420D01*
X190070262Y-76687247D01*
X190279521Y-76921407D01*
X190288191Y-76932278D01*
X190469909Y-77188384D01*
X190477307Y-77200158D01*
X190629212Y-77475007D01*
X190635246Y-77487536D01*
X190701017Y-77646322D01*
X190755419Y-77777658D01*
X190760012Y-77790784D01*
X190846948Y-78092547D01*
X190850042Y-78106103D01*
X190902644Y-78415693D01*
X190904201Y-78429511D01*
X190921985Y-78746170D01*
X190922180Y-78753123D01*
X190922180Y-112746519D01*
X190921985Y-112753472D01*
X190904181Y-113070487D01*
X190902624Y-113084305D01*
X190850023Y-113393893D01*
X190846929Y-113407450D01*
X190759994Y-113709209D01*
X190755401Y-113722334D01*
X190635228Y-114012454D01*
X190629194Y-114024983D01*
X190477290Y-114299830D01*
X190469892Y-114311603D01*
X190288175Y-114567708D01*
X190279506Y-114578580D01*
X190070249Y-114812738D01*
X190060416Y-114822571D01*
X189826272Y-115031813D01*
X189815400Y-115040483D01*
X189559282Y-115222207D01*
X189547508Y-115229605D01*
X189387353Y-115318118D01*
X189272659Y-115381506D01*
X189260138Y-115387536D01*
X188970016Y-115507706D01*
X188956891Y-115512299D01*
X188655131Y-115599233D01*
X188641574Y-115602327D01*
X188331986Y-115654927D01*
X188318168Y-115656484D01*
X188057497Y-115671121D01*
X188000796Y-115674305D01*
X187993847Y-115674500D01*
X152394500Y-115674500D01*
X152327461Y-115654815D01*
X152281706Y-115602011D01*
X152270500Y-115550500D01*
X152270500Y-114013239D01*
X152270500Y-114010596D01*
X152263165Y-113924797D01*
X152257888Y-113894163D01*
X152265908Y-113824755D01*
X152310178Y-113770701D01*
X152327669Y-113760740D01*
X152427830Y-113714035D01*
X152621401Y-113578495D01*
X152788495Y-113411401D01*
X152918427Y-113225838D01*
X152973001Y-113182216D01*
X153042499Y-113175022D01*
X153104854Y-113206545D01*
X153121572Y-113225838D01*
X153251505Y-113411401D01*
X153418599Y-113578495D01*
X153612170Y-113714035D01*
X153826337Y-113813903D01*
X154054592Y-113875063D01*
X154290000Y-113895659D01*
X154525408Y-113875063D01*
X154753663Y-113813903D01*
X154967830Y-113714035D01*
X155161401Y-113578495D01*
X155328495Y-113411401D01*
X155458426Y-113225839D01*
X155513002Y-113182216D01*
X155582500Y-113175022D01*
X155644855Y-113206545D01*
X155661571Y-113225837D01*
X155791505Y-113411401D01*
X155958599Y-113578495D01*
X156152170Y-113714035D01*
X156366337Y-113813903D01*
X156594592Y-113875063D01*
X156830000Y-113895659D01*
X157065408Y-113875063D01*
X157293663Y-113813903D01*
X157507830Y-113714035D01*
X157701401Y-113578495D01*
X157868495Y-113411401D01*
X157998427Y-113225838D01*
X158053001Y-113182216D01*
X158122499Y-113175022D01*
X158184854Y-113206545D01*
X158201572Y-113225838D01*
X158331505Y-113411401D01*
X158498599Y-113578495D01*
X158692170Y-113714035D01*
X158906337Y-113813903D01*
X159134592Y-113875063D01*
X159370000Y-113895659D01*
X159605408Y-113875063D01*
X159833663Y-113813903D01*
X160047830Y-113714035D01*
X160241401Y-113578495D01*
X160408495Y-113411401D01*
X160544035Y-113217830D01*
X160643903Y-113003663D01*
X160705063Y-112775408D01*
X160725659Y-112540000D01*
X160705063Y-112304592D01*
X160680039Y-112211200D01*
X166634000Y-112211200D01*
X166634000Y-112680718D01*
X166634354Y-112687332D01*
X166640400Y-112743571D01*
X166690647Y-112878289D01*
X166776811Y-112993388D01*
X166891910Y-113079552D01*
X167026628Y-113129799D01*
X167082867Y-113135845D01*
X167089482Y-113136200D01*
X167559000Y-113136200D01*
X167559000Y-112211200D01*
X166634000Y-112211200D01*
X160680039Y-112211200D01*
X160643903Y-112076337D01*
X160544035Y-111862171D01*
X160525850Y-111836200D01*
X167529014Y-111836200D01*
X167548835Y-111961348D01*
X167606359Y-112074245D01*
X167695955Y-112163841D01*
X167808852Y-112221365D01*
X167902519Y-112236200D01*
X167965481Y-112236200D01*
X168059148Y-112221365D01*
X168172045Y-112163841D01*
X168261641Y-112074245D01*
X168309000Y-111981297D01*
X168309000Y-113136200D01*
X168778518Y-113136200D01*
X168785132Y-113135845D01*
X168841371Y-113129799D01*
X168976089Y-113079552D01*
X169091188Y-112993388D01*
X169177352Y-112878289D01*
X169233041Y-112728982D01*
X169236154Y-112730143D01*
X169253274Y-112688796D01*
X169310660Y-112648939D01*
X169380485Y-112646434D01*
X169437519Y-112678906D01*
X169594859Y-112836246D01*
X169781264Y-112966767D01*
X169781265Y-112966767D01*
X169781266Y-112966768D01*
X169987504Y-113062939D01*
X170207308Y-113121835D01*
X170434000Y-113141668D01*
X170660692Y-113121835D01*
X170880496Y-113062939D01*
X170951133Y-113030000D01*
X172512281Y-113030000D01*
X172533079Y-113201283D01*
X172594262Y-113362611D01*
X172658179Y-113455210D01*
X172692277Y-113504609D01*
X172821426Y-113619024D01*
X172974203Y-113699208D01*
X173141730Y-113740500D01*
X173141732Y-113740500D01*
X173171409Y-113740500D01*
X173238448Y-113760185D01*
X173284203Y-113812989D01*
X173294504Y-113879445D01*
X173293308Y-113889305D01*
X173274281Y-114046000D01*
X173295079Y-114217283D01*
X173356262Y-114378611D01*
X173427260Y-114481469D01*
X173454277Y-114520609D01*
X173583426Y-114635024D01*
X173736203Y-114715208D01*
X173903730Y-114756500D01*
X173903732Y-114756500D01*
X174076268Y-114756500D01*
X174076270Y-114756500D01*
X174243797Y-114715208D01*
X174396574Y-114635024D01*
X174525723Y-114520609D01*
X174623737Y-114378611D01*
X174684921Y-114217283D01*
X174705718Y-114046000D01*
X174684921Y-113874717D01*
X174641692Y-113760731D01*
X174623737Y-113713388D01*
X174574730Y-113642390D01*
X174525723Y-113571391D01*
X174396574Y-113456976D01*
X174243797Y-113376792D01*
X174076270Y-113335500D01*
X174046591Y-113335500D01*
X173979552Y-113315815D01*
X173933797Y-113263011D01*
X173923495Y-113196554D01*
X173926110Y-113175022D01*
X173943718Y-113030000D01*
X173922921Y-112858717D01*
X173873719Y-112728982D01*
X173861737Y-112697388D01*
X173812729Y-112626389D01*
X173763723Y-112555391D01*
X173634574Y-112440976D01*
X173481797Y-112360792D01*
X173314270Y-112319500D01*
X173141730Y-112319500D01*
X172974203Y-112360792D01*
X172974201Y-112360792D01*
X172974201Y-112360793D01*
X172821427Y-112440975D01*
X172821425Y-112440976D01*
X172821426Y-112440976D01*
X172708427Y-112541084D01*
X172692276Y-112555392D01*
X172594262Y-112697388D01*
X172533079Y-112858716D01*
X172512281Y-113030000D01*
X170951133Y-113030000D01*
X171086734Y-112966768D01*
X171273139Y-112836247D01*
X171434047Y-112675339D01*
X171564568Y-112488934D01*
X171660739Y-112282696D01*
X171719635Y-112062892D01*
X171739468Y-111836200D01*
X171719635Y-111609508D01*
X171660739Y-111389704D01*
X171564568Y-111183466D01*
X171557965Y-111174035D01*
X171434046Y-110997059D01*
X171273140Y-110836153D01*
X171150100Y-110750000D01*
X174294564Y-110750000D01*
X174294790Y-110753736D01*
X174314063Y-111072362D01*
X174314064Y-111072372D01*
X174314290Y-111076104D01*
X174314963Y-111079778D01*
X174314965Y-111079792D01*
X174372502Y-111393762D01*
X174372504Y-111393771D01*
X174373179Y-111397453D01*
X174470373Y-111709361D01*
X174604455Y-112007279D01*
X174606388Y-112010477D01*
X174606392Y-112010484D01*
X174771532Y-112283658D01*
X174771536Y-112283663D01*
X174773470Y-112286863D01*
X174974952Y-112544036D01*
X175205964Y-112775048D01*
X175463137Y-112976530D01*
X175466339Y-112978466D01*
X175466341Y-112978467D01*
X175736308Y-113141668D01*
X175742721Y-113145545D01*
X176040639Y-113279627D01*
X176352547Y-113376821D01*
X176673896Y-113435710D01*
X177000000Y-113455436D01*
X177326104Y-113435710D01*
X177647453Y-113376821D01*
X177959361Y-113279627D01*
X178257279Y-113145545D01*
X178536863Y-112976530D01*
X178794036Y-112775048D01*
X178920085Y-112648999D01*
X186355281Y-112648999D01*
X186376079Y-112820283D01*
X186437262Y-112981611D01*
X186503408Y-113077439D01*
X186535277Y-113123609D01*
X186664426Y-113238024D01*
X186817203Y-113318208D01*
X186984730Y-113359500D01*
X186984732Y-113359500D01*
X187157268Y-113359500D01*
X187157270Y-113359500D01*
X187324797Y-113318208D01*
X187477574Y-113238024D01*
X187606723Y-113123609D01*
X187704737Y-112981611D01*
X187765921Y-112820283D01*
X187786718Y-112649000D01*
X187786406Y-112646434D01*
X187775352Y-112555391D01*
X187765921Y-112477717D01*
X187704737Y-112316389D01*
X187704737Y-112316388D01*
X187632130Y-112211200D01*
X187606723Y-112174391D01*
X187477574Y-112059976D01*
X187324797Y-111979792D01*
X187157270Y-111938500D01*
X186984730Y-111938500D01*
X186817203Y-111979792D01*
X186817201Y-111979792D01*
X186817201Y-111979793D01*
X186664427Y-112059975D01*
X186535276Y-112174392D01*
X186437262Y-112316388D01*
X186376079Y-112477716D01*
X186355281Y-112648999D01*
X178920085Y-112648999D01*
X179025048Y-112544036D01*
X179226530Y-112286863D01*
X179395545Y-112007279D01*
X179529627Y-111709361D01*
X179626821Y-111397453D01*
X179685710Y-111076104D01*
X179705436Y-110750000D01*
X179685710Y-110423896D01*
X179626821Y-110102547D01*
X179529627Y-109790639D01*
X179395545Y-109492721D01*
X179318693Y-109365592D01*
X179228467Y-109216341D01*
X179228466Y-109216339D01*
X179226530Y-109213137D01*
X179198114Y-109176867D01*
X179172266Y-109111956D01*
X179185615Y-109043373D01*
X179233923Y-108992895D01*
X179238067Y-108990616D01*
X179324174Y-108945424D01*
X179453323Y-108831009D01*
X179534046Y-108714060D01*
X179588330Y-108670070D01*
X179636097Y-108660500D01*
X179715068Y-108660500D01*
X179715070Y-108660500D01*
X179882597Y-108619208D01*
X180035374Y-108539024D01*
X180164523Y-108424609D01*
X180262537Y-108282611D01*
X180323721Y-108121283D01*
X180344518Y-107950000D01*
X180323721Y-107778717D01*
X180273350Y-107645900D01*
X180262537Y-107617388D01*
X180198532Y-107524662D01*
X180164523Y-107475391D01*
X180035374Y-107360976D01*
X179882597Y-107280792D01*
X179715070Y-107239500D01*
X179542530Y-107239500D01*
X179375003Y-107280792D01*
X179375001Y-107280792D01*
X179375001Y-107280793D01*
X179222227Y-107360975D01*
X179093076Y-107475392D01*
X179012353Y-107592340D01*
X178958070Y-107636330D01*
X178910303Y-107645900D01*
X178831330Y-107645900D01*
X178663803Y-107687192D01*
X178663801Y-107687192D01*
X178663801Y-107687193D01*
X178511027Y-107767375D01*
X178381876Y-107881792D01*
X178283862Y-108023789D01*
X178219577Y-108193296D01*
X178177399Y-108248999D01*
X178111801Y-108273056D01*
X178052744Y-108262401D01*
X177962772Y-108221908D01*
X177962769Y-108221907D01*
X177959361Y-108220373D01*
X177955783Y-108219258D01*
X177651038Y-108124296D01*
X177651036Y-108124295D01*
X177647453Y-108123179D01*
X177643771Y-108122504D01*
X177643762Y-108122502D01*
X177329792Y-108064965D01*
X177329778Y-108064963D01*
X177326104Y-108064290D01*
X177322372Y-108064064D01*
X177322362Y-108064063D01*
X177003736Y-108044790D01*
X177000000Y-108044564D01*
X176996264Y-108044790D01*
X176677637Y-108064063D01*
X176677625Y-108064064D01*
X176673896Y-108064290D01*
X176670223Y-108064962D01*
X176670207Y-108064965D01*
X176356237Y-108122502D01*
X176356224Y-108122505D01*
X176352547Y-108123179D01*
X176348967Y-108124294D01*
X176348961Y-108124296D01*
X176044216Y-108219258D01*
X176044210Y-108219260D01*
X176040639Y-108220373D01*
X176037230Y-108221907D01*
X176037228Y-108221908D01*
X175746135Y-108352918D01*
X175746128Y-108352921D01*
X175742721Y-108354455D01*
X175739528Y-108356384D01*
X175739515Y-108356392D01*
X175466341Y-108521532D01*
X175466328Y-108521540D01*
X175463137Y-108523470D01*
X175460195Y-108525774D01*
X175460189Y-108525779D01*
X175279020Y-108667716D01*
X175205964Y-108724952D01*
X175203318Y-108727597D01*
X175203310Y-108727605D01*
X174977605Y-108953310D01*
X174977597Y-108953318D01*
X174974952Y-108955964D01*
X174972640Y-108958914D01*
X174972640Y-108958915D01*
X174775779Y-109210189D01*
X174775774Y-109210195D01*
X174773470Y-109213137D01*
X174771540Y-109216328D01*
X174771532Y-109216341D01*
X174606392Y-109489515D01*
X174606384Y-109489528D01*
X174604455Y-109492721D01*
X174602921Y-109496128D01*
X174602918Y-109496135D01*
X174523368Y-109672889D01*
X174470373Y-109790639D01*
X174469260Y-109794210D01*
X174469258Y-109794216D01*
X174385038Y-110064491D01*
X174373179Y-110102547D01*
X174372505Y-110106224D01*
X174372502Y-110106237D01*
X174314965Y-110420207D01*
X174314962Y-110420223D01*
X174314290Y-110423896D01*
X174314064Y-110427625D01*
X174314063Y-110427637D01*
X174298858Y-110679011D01*
X174294564Y-110750000D01*
X171150100Y-110750000D01*
X171086735Y-110705632D01*
X170880497Y-110609461D01*
X170660689Y-110550564D01*
X170434000Y-110530731D01*
X170207310Y-110550564D01*
X169987502Y-110609461D01*
X169781264Y-110705632D01*
X169594863Y-110836150D01*
X169437519Y-110993494D01*
X169376196Y-111026978D01*
X169306504Y-111021994D01*
X169250571Y-110980122D01*
X169235737Y-110942412D01*
X169233041Y-110943418D01*
X169177352Y-110794110D01*
X169091188Y-110679011D01*
X168976089Y-110592847D01*
X168841371Y-110542600D01*
X168785132Y-110536554D01*
X168778518Y-110536200D01*
X168309000Y-110536200D01*
X168309000Y-111691102D01*
X168261641Y-111598155D01*
X168172045Y-111508559D01*
X168059148Y-111451035D01*
X167965481Y-111436200D01*
X167902519Y-111436200D01*
X167808852Y-111451035D01*
X167695955Y-111508559D01*
X167606359Y-111598155D01*
X167548835Y-111711052D01*
X167529014Y-111836200D01*
X160525850Y-111836200D01*
X160408495Y-111668599D01*
X160286569Y-111546673D01*
X160253084Y-111485350D01*
X160254811Y-111461200D01*
X166634000Y-111461200D01*
X167559000Y-111461200D01*
X167559000Y-110536200D01*
X167089482Y-110536200D01*
X167082867Y-110536554D01*
X167026628Y-110542600D01*
X166891910Y-110592847D01*
X166776811Y-110679011D01*
X166690647Y-110794110D01*
X166640400Y-110928828D01*
X166634354Y-110985067D01*
X166634000Y-110991681D01*
X166634000Y-111461200D01*
X160254811Y-111461200D01*
X160258068Y-111415658D01*
X160299940Y-111359725D01*
X160330915Y-111342810D01*
X160462331Y-111293796D01*
X160577546Y-111207546D01*
X160663796Y-111092331D01*
X160714091Y-110957483D01*
X160720500Y-110897873D01*
X160720499Y-109102128D01*
X160714091Y-109042517D01*
X160663796Y-108907669D01*
X160612390Y-108838999D01*
X171242281Y-108838999D01*
X171263079Y-109010283D01*
X171324262Y-109171611D01*
X171369540Y-109237206D01*
X171422277Y-109313609D01*
X171551426Y-109428024D01*
X171704203Y-109508208D01*
X171871730Y-109549500D01*
X171871732Y-109549500D01*
X172044268Y-109549500D01*
X172044270Y-109549500D01*
X172211797Y-109508208D01*
X172364574Y-109428024D01*
X172493723Y-109313609D01*
X172591737Y-109171611D01*
X172652921Y-109010283D01*
X172673718Y-108839000D01*
X172672747Y-108831007D01*
X172668066Y-108792454D01*
X172652921Y-108667717D01*
X172591737Y-108506389D01*
X172591737Y-108506388D01*
X172529801Y-108416659D01*
X172493723Y-108364391D01*
X172364574Y-108249976D01*
X172211797Y-108169792D01*
X172044270Y-108128500D01*
X171871730Y-108128500D01*
X171704203Y-108169792D01*
X171704201Y-108169792D01*
X171704201Y-108169793D01*
X171551427Y-108249975D01*
X171551425Y-108249976D01*
X171551426Y-108249976D01*
X171435228Y-108352918D01*
X171422276Y-108364392D01*
X171324262Y-108506388D01*
X171263079Y-108667716D01*
X171242281Y-108838999D01*
X160612390Y-108838999D01*
X160577546Y-108792454D01*
X160462331Y-108706204D01*
X160434117Y-108695681D01*
X160378186Y-108653810D01*
X160353769Y-108588346D01*
X160368621Y-108520073D01*
X160418027Y-108470668D01*
X160477453Y-108455500D01*
X164972676Y-108455500D01*
X164976000Y-108455500D01*
X165083456Y-108443947D01*
X165134967Y-108432741D01*
X165164165Y-108423022D01*
X165237503Y-108398614D01*
X165336637Y-108334903D01*
X165358543Y-108320825D01*
X165411347Y-108275070D01*
X165505567Y-108166336D01*
X165565338Y-108035459D01*
X165585023Y-107968420D01*
X165585024Y-107968416D01*
X165605500Y-107826000D01*
X165605500Y-107787235D01*
X165625185Y-107720196D01*
X165677989Y-107674441D01*
X165747147Y-107664497D01*
X165810703Y-107693522D01*
X165831547Y-107716792D01*
X165864277Y-107764209D01*
X165993426Y-107878624D01*
X166146203Y-107958808D01*
X166313730Y-108000100D01*
X166313732Y-108000100D01*
X166486268Y-108000100D01*
X166486270Y-108000100D01*
X166653797Y-107958808D01*
X166806574Y-107878624D01*
X166935723Y-107764209D01*
X167033737Y-107622211D01*
X167094921Y-107460883D01*
X167115718Y-107289600D01*
X167094921Y-107118317D01*
X167033737Y-106956989D01*
X167033737Y-106956988D01*
X166943040Y-106825592D01*
X166935723Y-106814991D01*
X166806574Y-106700576D01*
X166653797Y-106620392D01*
X166486270Y-106579100D01*
X166313730Y-106579100D01*
X166146203Y-106620392D01*
X166146201Y-106620392D01*
X166146201Y-106620393D01*
X165993427Y-106700575D01*
X165864275Y-106814992D01*
X165831550Y-106862404D01*
X165777267Y-106906394D01*
X165707818Y-106914054D01*
X165645253Y-106882950D01*
X165609436Y-106822959D01*
X165605500Y-106791964D01*
X165605500Y-102362323D01*
X165605500Y-102359000D01*
X165593947Y-102251544D01*
X165582741Y-102200033D01*
X165581690Y-102196875D01*
X165548614Y-102097496D01*
X165470826Y-101976458D01*
X165466004Y-101970894D01*
X165425070Y-101923653D01*
X165316336Y-101829433D01*
X165316335Y-101829432D01*
X165185460Y-101769662D01*
X165120113Y-101750474D01*
X165120111Y-101750473D01*
X165118420Y-101749977D01*
X165118416Y-101749976D01*
X165115290Y-101749526D01*
X165115277Y-101749524D01*
X164976000Y-101729500D01*
X151124500Y-101729500D01*
X151057461Y-101709815D01*
X151011706Y-101657011D01*
X151000500Y-101605500D01*
X151000500Y-98958400D01*
X152573281Y-98958400D01*
X152594079Y-99129683D01*
X152655262Y-99291011D01*
X152726261Y-99393869D01*
X152753277Y-99433009D01*
X152882426Y-99547424D01*
X153035203Y-99627608D01*
X153202730Y-99668900D01*
X153202732Y-99668900D01*
X153375268Y-99668900D01*
X153375270Y-99668900D01*
X153542797Y-99627608D01*
X153656370Y-99568000D01*
X177719281Y-99568000D01*
X177740079Y-99739283D01*
X177801262Y-99900611D01*
X177872260Y-100003469D01*
X177899277Y-100042609D01*
X178028426Y-100157024D01*
X178181203Y-100237208D01*
X178348730Y-100278500D01*
X178348732Y-100278500D01*
X178521268Y-100278500D01*
X178521270Y-100278500D01*
X178688797Y-100237208D01*
X178841574Y-100157024D01*
X178970723Y-100042609D01*
X179068737Y-99900611D01*
X179129921Y-99739283D01*
X179150718Y-99568000D01*
X179129921Y-99396717D01*
X179068737Y-99235389D01*
X179068737Y-99235388D01*
X179019729Y-99164390D01*
X178970723Y-99093391D01*
X178841574Y-98978976D01*
X178688797Y-98898792D01*
X178521270Y-98857500D01*
X178348730Y-98857500D01*
X178181203Y-98898792D01*
X178181201Y-98898792D01*
X178181201Y-98898793D01*
X178028427Y-98978975D01*
X177899276Y-99093392D01*
X177801262Y-99235388D01*
X177740079Y-99396716D01*
X177719281Y-99568000D01*
X153656370Y-99568000D01*
X153695574Y-99547424D01*
X153824723Y-99433009D01*
X153922737Y-99291011D01*
X153983921Y-99129683D01*
X154004718Y-98958400D01*
X153983921Y-98787117D01*
X153922737Y-98625789D01*
X153922737Y-98625788D01*
X153873729Y-98554790D01*
X153824723Y-98483791D01*
X153695574Y-98369376D01*
X153542797Y-98289192D01*
X153375270Y-98247900D01*
X153202730Y-98247900D01*
X153035203Y-98289192D01*
X153035201Y-98289192D01*
X153035201Y-98289193D01*
X152882427Y-98369375D01*
X152753276Y-98483792D01*
X152655262Y-98625788D01*
X152594079Y-98787116D01*
X152573281Y-98958400D01*
X151000500Y-98958400D01*
X151000500Y-94609500D01*
X151020185Y-94542461D01*
X151072989Y-94496706D01*
X151124500Y-94485500D01*
X159386802Y-94485500D01*
X159390542Y-94485500D01*
X159511269Y-94470872D01*
X159568786Y-94456726D01*
X159682533Y-94413685D01*
X159695085Y-94404626D01*
X159760963Y-94381355D01*
X159818459Y-94392061D01*
X159938227Y-94445857D01*
X160005388Y-94465123D01*
X160005393Y-94465124D01*
X160147934Y-94484710D01*
X166131385Y-94447311D01*
X166198543Y-94466577D01*
X166244627Y-94519094D01*
X166255003Y-94588189D01*
X166248099Y-94615279D01*
X166205079Y-94728714D01*
X166184281Y-94899999D01*
X166205079Y-95071283D01*
X166266262Y-95232611D01*
X166337260Y-95335469D01*
X166364277Y-95374609D01*
X166493426Y-95489024D01*
X166646203Y-95569208D01*
X166813730Y-95610500D01*
X166813732Y-95610500D01*
X166986268Y-95610500D01*
X166986270Y-95610500D01*
X167153797Y-95569208D01*
X167306574Y-95489024D01*
X167435723Y-95374609D01*
X167533737Y-95232611D01*
X167572090Y-95131480D01*
X167614267Y-95075779D01*
X167658352Y-95055057D01*
X167803797Y-95019208D01*
X167956574Y-94939024D01*
X168085723Y-94824609D01*
X168183737Y-94682611D01*
X168185409Y-94678201D01*
X168227585Y-94622498D01*
X168271673Y-94601773D01*
X168403797Y-94569208D01*
X168556574Y-94489024D01*
X168643024Y-94412436D01*
X168706252Y-94382718D01*
X168763581Y-94390317D01*
X168764190Y-94388195D01*
X168772709Y-94390638D01*
X168772714Y-94390641D01*
X168839875Y-94409907D01*
X168839880Y-94409908D01*
X168982421Y-94429494D01*
X177850161Y-94374070D01*
X177902620Y-94371011D01*
X177928203Y-94368179D01*
X177980031Y-94359697D01*
X178114840Y-94309417D01*
X178169673Y-94279476D01*
X178174411Y-94277244D01*
X178176160Y-94275934D01*
X178176163Y-94275933D01*
X178176168Y-94275931D01*
X178291350Y-94189706D01*
X178356045Y-94125009D01*
X178377754Y-94107698D01*
X178389738Y-94100167D01*
X178413722Y-94085097D01*
X178438732Y-94073052D01*
X178478838Y-94059018D01*
X178505897Y-94052843D01*
X178537542Y-94049278D01*
X178551410Y-94048500D01*
X180212676Y-94048500D01*
X180216000Y-94048500D01*
X180323456Y-94036947D01*
X180374967Y-94025741D01*
X180475302Y-93992345D01*
X180514461Y-93986000D01*
X181533252Y-93986000D01*
X181482239Y-94030202D01*
X181404507Y-94151156D01*
X181364000Y-94289111D01*
X181364000Y-94432889D01*
X181404507Y-94570844D01*
X181482239Y-94691798D01*
X181533252Y-94736000D01*
X180566858Y-94736000D01*
X180590569Y-94824491D01*
X180690399Y-95038576D01*
X180825893Y-95232081D01*
X180992918Y-95399106D01*
X181178595Y-95529119D01*
X181222219Y-95583696D01*
X181229412Y-95653195D01*
X181197890Y-95715549D01*
X181178595Y-95732269D01*
X180992595Y-95862508D01*
X180825505Y-96029598D01*
X180689965Y-96223170D01*
X180590097Y-96437336D01*
X180528936Y-96665592D01*
X180508340Y-96900999D01*
X180528936Y-97136407D01*
X180573709Y-97303502D01*
X180590097Y-97364663D01*
X180689965Y-97578830D01*
X180825505Y-97772401D01*
X180992599Y-97939495D01*
X181178160Y-98069426D01*
X181221783Y-98124002D01*
X181228976Y-98193501D01*
X181197454Y-98255855D01*
X181178160Y-98272574D01*
X181039913Y-98369376D01*
X180992595Y-98402508D01*
X180825505Y-98569598D01*
X180689965Y-98763170D01*
X180590097Y-98977336D01*
X180528936Y-99205592D01*
X180508340Y-99440999D01*
X180528936Y-99676407D01*
X180545784Y-99739283D01*
X180590097Y-99904663D01*
X180689965Y-100118830D01*
X180825505Y-100312401D01*
X180992599Y-100479495D01*
X181178160Y-100609426D01*
X181221783Y-100664002D01*
X181228976Y-100733501D01*
X181197454Y-100795855D01*
X181178159Y-100812575D01*
X180992595Y-100942508D01*
X180825505Y-101109598D01*
X180689965Y-101303170D01*
X180590097Y-101517336D01*
X180528936Y-101745592D01*
X180508340Y-101981000D01*
X180528936Y-102216407D01*
X180539238Y-102254854D01*
X180590097Y-102444663D01*
X180689965Y-102658830D01*
X180825505Y-102852401D01*
X180992599Y-103019495D01*
X181178160Y-103149426D01*
X181221783Y-103204002D01*
X181228976Y-103273501D01*
X181197454Y-103335855D01*
X181178159Y-103352575D01*
X180992595Y-103482508D01*
X180825505Y-103649598D01*
X180689965Y-103843170D01*
X180590097Y-104057336D01*
X180528936Y-104285592D01*
X180508340Y-104521000D01*
X180528936Y-104756407D01*
X180573709Y-104923501D01*
X180590097Y-104984663D01*
X180689965Y-105198830D01*
X180825505Y-105392401D01*
X180992599Y-105559495D01*
X181178160Y-105689426D01*
X181221783Y-105744002D01*
X181228976Y-105813501D01*
X181197454Y-105875855D01*
X181178159Y-105892575D01*
X180992595Y-106022508D01*
X180825505Y-106189598D01*
X180689965Y-106383170D01*
X180590097Y-106597336D01*
X180528936Y-106825592D01*
X180508340Y-107060999D01*
X180528936Y-107296407D01*
X180573007Y-107460883D01*
X180590097Y-107524663D01*
X180689965Y-107738830D01*
X180825505Y-107932401D01*
X180992599Y-108099495D01*
X181178160Y-108229426D01*
X181221783Y-108284002D01*
X181228976Y-108353501D01*
X181197454Y-108415855D01*
X181178158Y-108432575D01*
X181026134Y-108539024D01*
X180992595Y-108562508D01*
X180825505Y-108729598D01*
X180689965Y-108923170D01*
X180590097Y-109137336D01*
X180528936Y-109365592D01*
X180508340Y-109600999D01*
X180528936Y-109836407D01*
X180554496Y-109931798D01*
X180590097Y-110064663D01*
X180689965Y-110278830D01*
X180825505Y-110472401D01*
X180992599Y-110639495D01*
X181186170Y-110775035D01*
X181400337Y-110874903D01*
X181628592Y-110936063D01*
X181864000Y-110956659D01*
X182099408Y-110936063D01*
X182327663Y-110874903D01*
X182541830Y-110775035D01*
X182735401Y-110639495D01*
X182902495Y-110472401D01*
X183032732Y-110286403D01*
X183087307Y-110242780D01*
X183156805Y-110235586D01*
X183219160Y-110267109D01*
X183235880Y-110286404D01*
X183365893Y-110472081D01*
X183532918Y-110639106D01*
X183726423Y-110774600D01*
X183940507Y-110874430D01*
X184028998Y-110898141D01*
X184028999Y-110898141D01*
X184028999Y-109937656D01*
X184130900Y-110025952D01*
X184261685Y-110085680D01*
X184368237Y-110101000D01*
X184439763Y-110101000D01*
X184546315Y-110085680D01*
X184677100Y-110025952D01*
X184734748Y-109976000D01*
X184779000Y-109976000D01*
X184779000Y-110898141D01*
X184867491Y-110874430D01*
X185081576Y-110774600D01*
X185275081Y-110639106D01*
X185442106Y-110472081D01*
X185577600Y-110278576D01*
X185677430Y-110064491D01*
X185701142Y-109976000D01*
X184779000Y-109976000D01*
X184734748Y-109976000D01*
X184785761Y-109931798D01*
X184863493Y-109810844D01*
X184904000Y-109672889D01*
X184904000Y-109529111D01*
X184863493Y-109391156D01*
X184785761Y-109270202D01*
X184734748Y-109226000D01*
X185701142Y-109226000D01*
X185701141Y-109225999D01*
X185677430Y-109137507D01*
X185577599Y-108923421D01*
X185442109Y-108729921D01*
X185275081Y-108562893D01*
X185089404Y-108432880D01*
X185045780Y-108378303D01*
X185038587Y-108308804D01*
X185070109Y-108246450D01*
X185089399Y-108229734D01*
X185275401Y-108099495D01*
X185442495Y-107932401D01*
X185578035Y-107738830D01*
X185677903Y-107524663D01*
X185739063Y-107296408D01*
X185759659Y-107061000D01*
X185739063Y-106825592D01*
X185677903Y-106597337D01*
X185578035Y-106383171D01*
X185442495Y-106189599D01*
X185275401Y-106022505D01*
X185089839Y-105892573D01*
X185046216Y-105837998D01*
X185039022Y-105768500D01*
X185070545Y-105706145D01*
X185089837Y-105689428D01*
X185275401Y-105559495D01*
X185442495Y-105392401D01*
X185578035Y-105198830D01*
X185677903Y-104984663D01*
X185739063Y-104756408D01*
X185759659Y-104521000D01*
X185739063Y-104285592D01*
X185677903Y-104057337D01*
X185578035Y-103843171D01*
X185442495Y-103649599D01*
X185275401Y-103482505D01*
X185089839Y-103352573D01*
X185046215Y-103297997D01*
X185039023Y-103228498D01*
X185070545Y-103166144D01*
X185089831Y-103149432D01*
X185275401Y-103019495D01*
X185442495Y-102852401D01*
X185578035Y-102658830D01*
X185677903Y-102444663D01*
X185739063Y-102216408D01*
X185759659Y-101981000D01*
X185739063Y-101745592D01*
X185677903Y-101517337D01*
X185578035Y-101303171D01*
X185442495Y-101109599D01*
X185275401Y-100942505D01*
X185089839Y-100812573D01*
X185046216Y-100757998D01*
X185039022Y-100688500D01*
X185070545Y-100626145D01*
X185089837Y-100609428D01*
X185275401Y-100479495D01*
X185442495Y-100312401D01*
X185578035Y-100118830D01*
X185677903Y-99904663D01*
X185739063Y-99676408D01*
X185759659Y-99441000D01*
X185739063Y-99205592D01*
X185677903Y-98977337D01*
X185578035Y-98763171D01*
X185442495Y-98569599D01*
X185275401Y-98402505D01*
X185089839Y-98272573D01*
X185046215Y-98217997D01*
X185039023Y-98148498D01*
X185070545Y-98086144D01*
X185089831Y-98069432D01*
X185275401Y-97939495D01*
X185442495Y-97772401D01*
X185578035Y-97578830D01*
X185677903Y-97364663D01*
X185739063Y-97136408D01*
X185759659Y-96901000D01*
X185739063Y-96665592D01*
X185677903Y-96437337D01*
X185578035Y-96223171D01*
X185442495Y-96029599D01*
X185275401Y-95862505D01*
X185089402Y-95732267D01*
X185045780Y-95677692D01*
X185038587Y-95608193D01*
X185070109Y-95545839D01*
X185089405Y-95529119D01*
X185275078Y-95399109D01*
X185442106Y-95232081D01*
X185577600Y-95038576D01*
X185677430Y-94824491D01*
X185701142Y-94736000D01*
X184734748Y-94736000D01*
X184785761Y-94691798D01*
X184863493Y-94570844D01*
X184904000Y-94432889D01*
X184904000Y-94289111D01*
X184863493Y-94151156D01*
X184785761Y-94030202D01*
X184734748Y-93986000D01*
X185701142Y-93986000D01*
X185701141Y-93985999D01*
X185677430Y-93897507D01*
X185577599Y-93683421D01*
X185442109Y-93489921D01*
X185275081Y-93322893D01*
X185089404Y-93192880D01*
X185045780Y-93138303D01*
X185038587Y-93068804D01*
X185070109Y-93006450D01*
X185089399Y-92989734D01*
X185275401Y-92859495D01*
X185442495Y-92692401D01*
X185578035Y-92498830D01*
X185677903Y-92284663D01*
X185739063Y-92056408D01*
X185759659Y-91821000D01*
X185739063Y-91585592D01*
X185677903Y-91357337D01*
X185578035Y-91143171D01*
X185442495Y-90949599D01*
X185275401Y-90782505D01*
X185089839Y-90652573D01*
X185046216Y-90597998D01*
X185039022Y-90528500D01*
X185070545Y-90466145D01*
X185089837Y-90449428D01*
X185275401Y-90319495D01*
X185442495Y-90152401D01*
X185578035Y-89958830D01*
X185677903Y-89744663D01*
X185739063Y-89516408D01*
X185759659Y-89281000D01*
X185739063Y-89045592D01*
X185677903Y-88817337D01*
X185578035Y-88603171D01*
X185442495Y-88409599D01*
X185275401Y-88242505D01*
X185089839Y-88112573D01*
X185046216Y-88057998D01*
X185039022Y-87988500D01*
X185070545Y-87926145D01*
X185089837Y-87909428D01*
X185275401Y-87779495D01*
X185442495Y-87612401D01*
X185578035Y-87418830D01*
X185677903Y-87204663D01*
X185739063Y-86976408D01*
X185759659Y-86741000D01*
X185739063Y-86505592D01*
X185677903Y-86277337D01*
X185578035Y-86063171D01*
X185442495Y-85869599D01*
X185275401Y-85702505D01*
X185089839Y-85572573D01*
X185046216Y-85517998D01*
X185039022Y-85448500D01*
X185070545Y-85386145D01*
X185089837Y-85369428D01*
X185275401Y-85239495D01*
X185442495Y-85072401D01*
X185578035Y-84878830D01*
X185677903Y-84664663D01*
X185739063Y-84436408D01*
X185759659Y-84201000D01*
X185739063Y-83965592D01*
X185677903Y-83737337D01*
X185578035Y-83523171D01*
X185442495Y-83329599D01*
X185275401Y-83162505D01*
X185089839Y-83032573D01*
X185046216Y-82977998D01*
X185039022Y-82908500D01*
X185070545Y-82846145D01*
X185089837Y-82829428D01*
X185275401Y-82699495D01*
X185442495Y-82532401D01*
X185578035Y-82338830D01*
X185677903Y-82124663D01*
X185739063Y-81896408D01*
X185759659Y-81661000D01*
X185739063Y-81425592D01*
X185677903Y-81197337D01*
X185578035Y-80983171D01*
X185442495Y-80789599D01*
X185275401Y-80622505D01*
X185081830Y-80486965D01*
X184942674Y-80422075D01*
X184890236Y-80375904D01*
X184871084Y-80308710D01*
X184891300Y-80241829D01*
X184944465Y-80196494D01*
X184965398Y-80189299D01*
X185038797Y-80171208D01*
X185191574Y-80091024D01*
X185320723Y-79976609D01*
X185418737Y-79834611D01*
X185479921Y-79673283D01*
X185500718Y-79502000D01*
X185479921Y-79330717D01*
X185418737Y-79169389D01*
X185418737Y-79169388D01*
X185331075Y-79042389D01*
X185320723Y-79027391D01*
X185191574Y-78912976D01*
X185038797Y-78832792D01*
X184871270Y-78791500D01*
X184698730Y-78791500D01*
X184531203Y-78832792D01*
X184531201Y-78832792D01*
X184531201Y-78832793D01*
X184378427Y-78912975D01*
X184249276Y-79027392D01*
X184151262Y-79169388D01*
X184090079Y-79330716D01*
X184069281Y-79502000D01*
X184090079Y-79673283D01*
X184151262Y-79834611D01*
X184249277Y-79976610D01*
X184385061Y-80096903D01*
X184422188Y-80156092D01*
X184421420Y-80225957D01*
X184383003Y-80284317D01*
X184319132Y-80312642D01*
X184313642Y-80313246D01*
X184168592Y-80325936D01*
X183940336Y-80387097D01*
X183726170Y-80486965D01*
X183532601Y-80622503D01*
X183410673Y-80744431D01*
X183349350Y-80777915D01*
X183279658Y-80772931D01*
X183223725Y-80731059D01*
X183206810Y-80700082D01*
X183199658Y-80680907D01*
X183157796Y-80568669D01*
X183071546Y-80453454D01*
X182956331Y-80367204D01*
X182821483Y-80316909D01*
X182821483Y-80316908D01*
X182765166Y-80310854D01*
X182765165Y-80310853D01*
X182761873Y-80310500D01*
X182758551Y-80310500D01*
X180967741Y-80310500D01*
X180900702Y-80290815D01*
X180854947Y-80238011D01*
X180844453Y-80199762D01*
X180833947Y-80102044D01*
X180822741Y-80050533D01*
X180788613Y-79947996D01*
X180781297Y-79936612D01*
X180761613Y-79869576D01*
X180781297Y-79802536D01*
X180783563Y-79799134D01*
X180846737Y-79707611D01*
X180907921Y-79546283D01*
X180928718Y-79375000D01*
X180907921Y-79203717D01*
X180846737Y-79042389D01*
X180846737Y-79042388D01*
X180781433Y-78947779D01*
X180759550Y-78881424D01*
X180770688Y-78825829D01*
X180805338Y-78749959D01*
X180825023Y-78682920D01*
X180825024Y-78682916D01*
X180845500Y-78540500D01*
X180845500Y-75949500D01*
X180845500Y-75949499D01*
X180865185Y-75882461D01*
X180917989Y-75836706D01*
X180969500Y-75825500D01*
X187973149Y-75825500D01*
X187994202Y-75825500D01*
X188001153Y-75825694D01*
G37*
%TD.AperFunction*%
%TA.AperFunction,Conductor*%
G36*
X184022239Y-94030202D02*
G01*
X183944507Y-94151156D01*
X183904000Y-94289111D01*
X183904000Y-94432889D01*
X183944507Y-94570844D01*
X184022239Y-94691798D01*
X184073252Y-94736000D01*
X182194748Y-94736000D01*
X182245761Y-94691798D01*
X182323493Y-94570844D01*
X182364000Y-94432889D01*
X182364000Y-94289111D01*
X182323493Y-94151156D01*
X182245761Y-94030202D01*
X182194748Y-93986000D01*
X184073252Y-93986000D01*
X184022239Y-94030202D01*
G37*
%TD.AperFunction*%
%TD*%
M02*
