%TF.GenerationSoftware,KiCad,Pcbnew,7.0.2-0*%
%TF.CreationDate,2024-01-05T15:47:56-05:00*%
%TF.ProjectId,WiringHarness,57697269-6e67-4486-9172-6e6573732e6b,rev?*%
%TF.SameCoordinates,Original*%
%TF.FileFunction,Paste,Top*%
%TF.FilePolarity,Positive*%
%FSLAX46Y46*%
G04 Gerber Fmt 4.6, Leading zero omitted, Abs format (unit mm)*
G04 Created by KiCad (PCBNEW 7.0.2-0) date 2024-01-05 15:47:56*
%MOMM*%
%LPD*%
G01*
G04 APERTURE LIST*
G04 Aperture macros list*
%AMRoundRect*
0 Rectangle with rounded corners*
0 $1 Rounding radius*
0 $2 $3 $4 $5 $6 $7 $8 $9 X,Y pos of 4 corners*
0 Add a 4 corners polygon primitive as box body*
4,1,4,$2,$3,$4,$5,$6,$7,$8,$9,$2,$3,0*
0 Add four circle primitives for the rounded corners*
1,1,$1+$1,$2,$3*
1,1,$1+$1,$4,$5*
1,1,$1+$1,$6,$7*
1,1,$1+$1,$8,$9*
0 Add four rect primitives between the rounded corners*
20,1,$1+$1,$2,$3,$4,$5,0*
20,1,$1+$1,$4,$5,$6,$7,0*
20,1,$1+$1,$6,$7,$8,$9,0*
20,1,$1+$1,$8,$9,$2,$3,0*%
%AMFreePoly0*
4,1,14,0.230680,0.111820,0.364320,-0.021821,0.377500,-0.053642,0.377500,-0.080000,0.364320,-0.111820,0.332500,-0.125000,-0.332500,-0.125000,-0.364320,-0.111820,-0.377500,-0.080000,-0.377500,0.080000,-0.364320,0.111820,-0.332500,0.125000,0.198860,0.125000,0.230680,0.111820,0.230680,0.111820,$1*%
%AMFreePoly1*
4,1,14,0.364320,0.111820,0.377500,0.080000,0.377501,0.053640,0.364318,0.021819,0.230680,-0.111820,0.198860,-0.125000,-0.332500,-0.125000,-0.364320,-0.111820,-0.377500,-0.080000,-0.377500,0.080000,-0.364320,0.111820,-0.332500,0.125000,0.332500,0.125000,0.364320,0.111820,0.364320,0.111820,$1*%
%AMFreePoly2*
4,1,15,0.053642,0.377500,0.080000,0.377500,0.111820,0.364320,0.125000,0.332500,0.125000,-0.332500,0.111820,-0.364320,0.080000,-0.377500,-0.080000,-0.377500,-0.111820,-0.364320,-0.125000,-0.332500,-0.125000,0.198860,-0.111820,0.230680,0.021820,0.364320,0.053640,0.377501,0.053642,0.377500,0.053642,0.377500,$1*%
%AMFreePoly3*
4,1,14,-0.021820,0.364320,0.111820,0.230679,0.125001,0.198860,0.125000,-0.332500,0.111820,-0.364320,0.080000,-0.377500,-0.080000,-0.377500,-0.111820,-0.364320,-0.125000,-0.332500,-0.125000,0.332500,-0.111820,0.364320,-0.080000,0.377500,-0.053640,0.377500,-0.021820,0.364320,-0.021820,0.364320,$1*%
%AMFreePoly4*
4,1,14,0.364320,0.111820,0.377500,0.080000,0.377500,-0.080000,0.364320,-0.111820,0.332500,-0.125000,-0.198860,-0.125001,-0.230680,-0.111818,-0.364320,0.021820,-0.377500,0.053640,-0.377500,0.080000,-0.364320,0.111820,-0.332500,0.125000,0.332500,0.125000,0.364320,0.111820,0.364320,0.111820,$1*%
%AMFreePoly5*
4,1,15,-0.198858,0.125000,0.332500,0.125000,0.364320,0.111820,0.377500,0.080000,0.377500,-0.080000,0.364320,-0.111820,0.332500,-0.125000,-0.332500,-0.125000,-0.364320,-0.111820,-0.377500,-0.080000,-0.377500,-0.053640,-0.364320,-0.021820,-0.230680,0.111820,-0.198860,0.125001,-0.198858,0.125000,-0.198858,0.125000,$1*%
%AMFreePoly6*
4,1,14,0.111820,0.364320,0.125000,0.332500,0.125001,-0.198860,0.111818,-0.230680,-0.021820,-0.364320,-0.053640,-0.377500,-0.080000,-0.377500,-0.111820,-0.364320,-0.125000,-0.332500,-0.125000,0.332500,-0.111820,0.364320,-0.080000,0.377500,0.080000,0.377500,0.111820,0.364320,0.111820,0.364320,$1*%
%AMFreePoly7*
4,1,14,0.111820,0.364320,0.125000,0.332500,0.125000,-0.332500,0.111820,-0.364320,0.080000,-0.377500,0.053640,-0.377501,0.021819,-0.364318,-0.111820,-0.230680,-0.125000,-0.198860,-0.125000,0.332500,-0.111820,0.364320,-0.080000,0.377500,0.080000,0.377500,0.111820,0.364320,0.111820,0.364320,$1*%
G04 Aperture macros list end*
%ADD10RoundRect,0.250000X0.475000X-0.250000X0.475000X0.250000X-0.475000X0.250000X-0.475000X-0.250000X0*%
%ADD11RoundRect,0.225000X0.225000X0.250000X-0.225000X0.250000X-0.225000X-0.250000X0.225000X-0.250000X0*%
%ADD12RoundRect,0.225000X-0.225000X-0.250000X0.225000X-0.250000X0.225000X0.250000X-0.225000X0.250000X0*%
%ADD13RoundRect,0.225000X-0.250000X0.225000X-0.250000X-0.225000X0.250000X-0.225000X0.250000X0.225000X0*%
%ADD14RoundRect,0.250000X-2.050000X-0.300000X2.050000X-0.300000X2.050000X0.300000X-2.050000X0.300000X0*%
%ADD15RoundRect,0.250000X-2.025000X-2.375000X2.025000X-2.375000X2.025000X2.375000X-2.025000X2.375000X0*%
%ADD16RoundRect,0.250000X-0.250000X-0.475000X0.250000X-0.475000X0.250000X0.475000X-0.250000X0.475000X0*%
%ADD17RoundRect,0.075000X0.350000X0.075000X-0.350000X0.075000X-0.350000X-0.075000X0.350000X-0.075000X0*%
%ADD18RoundRect,0.045000X0.225000X0.435000X-0.225000X0.435000X-0.225000X-0.435000X0.225000X-0.435000X0*%
%ADD19RoundRect,0.250000X1.000000X0.650000X-1.000000X0.650000X-1.000000X-0.650000X1.000000X-0.650000X0*%
%ADD20RoundRect,0.150000X0.150000X0.625000X-0.150000X0.625000X-0.150000X-0.625000X0.150000X-0.625000X0*%
%ADD21RoundRect,0.250000X0.350000X0.650000X-0.350000X0.650000X-0.350000X-0.650000X0.350000X-0.650000X0*%
%ADD22RoundRect,0.218750X-0.218750X-0.256250X0.218750X-0.256250X0.218750X0.256250X-0.218750X0.256250X0*%
%ADD23RoundRect,0.100000X0.712500X0.100000X-0.712500X0.100000X-0.712500X-0.100000X0.712500X-0.100000X0*%
%ADD24RoundRect,0.200000X-0.200000X-0.275000X0.200000X-0.275000X0.200000X0.275000X-0.200000X0.275000X0*%
%ADD25R,1.200000X1.200000*%
%ADD26R,1.600000X1.500000*%
%ADD27RoundRect,0.200000X0.200000X0.275000X-0.200000X0.275000X-0.200000X-0.275000X0.200000X-0.275000X0*%
%ADD28RoundRect,0.112500X0.387500X0.112500X-0.387500X0.112500X-0.387500X-0.112500X0.387500X-0.112500X0*%
%ADD29RoundRect,0.075000X0.375000X0.675000X-0.375000X0.675000X-0.375000X-0.675000X0.375000X-0.675000X0*%
%ADD30FreePoly0,90.000000*%
%ADD31RoundRect,0.062500X0.062500X-0.375000X0.062500X0.375000X-0.062500X0.375000X-0.062500X-0.375000X0*%
%ADD32FreePoly1,90.000000*%
%ADD33FreePoly2,90.000000*%
%ADD34RoundRect,0.062500X0.375000X-0.062500X0.375000X0.062500X-0.375000X0.062500X-0.375000X-0.062500X0*%
%ADD35FreePoly3,90.000000*%
%ADD36FreePoly4,90.000000*%
%ADD37FreePoly5,90.000000*%
%ADD38FreePoly6,90.000000*%
%ADD39FreePoly7,90.000000*%
G04 APERTURE END LIST*
D10*
%TO.C,C4*%
X178422000Y-101407000D03*
X178422000Y-99507000D03*
%TD*%
D11*
%TO.C,C15*%
X146888200Y-82016600D03*
X145338200Y-82016600D03*
%TD*%
D12*
%TO.C,C5*%
X173355000Y-92659200D03*
X174905000Y-92659200D03*
%TD*%
%TO.C,C12*%
X169328800Y-92659200D03*
X170878800Y-92659200D03*
%TD*%
D13*
%TO.C,C13*%
X156950000Y-103575000D03*
X156950000Y-105125000D03*
%TD*%
D14*
%TO.C,U8*%
X161931000Y-98533000D03*
X161931000Y-101073000D03*
D15*
X168656000Y-98298000D03*
X168656000Y-103848000D03*
X173506000Y-98298000D03*
X173506000Y-103848000D03*
D14*
X161931000Y-103613000D03*
%TD*%
D16*
%TO.C,C2*%
X144930000Y-91520000D03*
X146830000Y-91520000D03*
%TD*%
D17*
%TO.C,U3*%
X161290000Y-91592400D03*
X161290000Y-91092400D03*
X161290000Y-90592400D03*
X159140000Y-90592400D03*
X159140000Y-91092400D03*
X159140000Y-91592400D03*
D18*
X160215000Y-91092400D03*
%TD*%
D19*
%TO.C,D1*%
X150844000Y-104394000D03*
X146844000Y-104394000D03*
%TD*%
D20*
%TO.C,J6*%
X169116000Y-81153000D03*
X168116000Y-81153000D03*
X167116000Y-81153000D03*
X166116000Y-81153000D03*
D21*
X170416000Y-77278000D03*
X164816000Y-77278000D03*
%TD*%
D22*
%TO.C,FB1*%
X181686000Y-112649000D03*
X183261000Y-112649000D03*
%TD*%
D12*
%TO.C,C6*%
X185420000Y-112649000D03*
X186970000Y-112649000D03*
%TD*%
D13*
%TO.C,C11*%
X164250000Y-90250000D03*
X164250000Y-91800000D03*
%TD*%
D23*
%TO.C,U1*%
X161882800Y-86827000D03*
X161882800Y-86177000D03*
X161882800Y-85527000D03*
X161882800Y-84877000D03*
X157657800Y-84877000D03*
X157657800Y-85527000D03*
X157657800Y-86177000D03*
X157657800Y-86827000D03*
%TD*%
D24*
%TO.C,R6*%
X152489400Y-86029800D03*
X154139400Y-86029800D03*
%TD*%
D25*
%TO.C,R7*%
X153305000Y-98980665D03*
D26*
X154305000Y-95730665D03*
D25*
X155305000Y-98980665D03*
%TD*%
D11*
%TO.C,C14*%
X146850400Y-84048600D03*
X145300400Y-84048600D03*
%TD*%
D27*
%TO.C,R2*%
X167118800Y-85674200D03*
X165468800Y-85674200D03*
%TD*%
%TO.C,R1*%
X167131000Y-83769200D03*
X165481000Y-83769200D03*
%TD*%
D13*
%TO.C,C1*%
X156550000Y-90425000D03*
X156550000Y-91975000D03*
%TD*%
D28*
%TO.C,U7*%
X147574000Y-88006000D03*
X147574000Y-87056000D03*
X147574000Y-86106000D03*
X144474000Y-86106000D03*
X144474000Y-87056000D03*
X144474000Y-88006000D03*
D29*
X146024000Y-87056000D03*
%TD*%
D30*
%TO.C,U6*%
X169797600Y-89881500D03*
D31*
X170297600Y-89821500D03*
X170797600Y-89821500D03*
X171297600Y-89821500D03*
X171797600Y-89821500D03*
X172297600Y-89821500D03*
D32*
X172797600Y-89881500D03*
D33*
X173295100Y-89384000D03*
D34*
X173235100Y-88884000D03*
X173235100Y-88384000D03*
X173235100Y-87884000D03*
X173235100Y-87384000D03*
X173235100Y-86884000D03*
D35*
X173295100Y-86384000D03*
D36*
X172797600Y-85886500D03*
D31*
X172297600Y-85946500D03*
X171797600Y-85946500D03*
X171297600Y-85946500D03*
X170797600Y-85946500D03*
X170297600Y-85946500D03*
D37*
X169797600Y-85886500D03*
D38*
X169300100Y-86384000D03*
D34*
X169360100Y-86884000D03*
X169360100Y-87384000D03*
X169360100Y-87884000D03*
X169360100Y-88384000D03*
X169360100Y-88884000D03*
D39*
X169300100Y-89384000D03*
%TD*%
M02*
