%TF.GenerationSoftware,KiCad,Pcbnew,7.0.2-0*%
%TF.CreationDate,2024-01-05T15:47:56-05:00*%
%TF.ProjectId,WiringHarness,57697269-6e67-4486-9172-6e6573732e6b,rev?*%
%TF.SameCoordinates,Original*%
%TF.FileFunction,Copper,L4,Bot*%
%TF.FilePolarity,Positive*%
%FSLAX46Y46*%
G04 Gerber Fmt 4.6, Leading zero omitted, Abs format (unit mm)*
G04 Created by KiCad (PCBNEW 7.0.2-0) date 2024-01-05 15:47:56*
%MOMM*%
%LPD*%
G01*
G04 APERTURE LIST*
G04 Aperture macros list*
%AMRoundRect*
0 Rectangle with rounded corners*
0 $1 Rounding radius*
0 $2 $3 $4 $5 $6 $7 $8 $9 X,Y pos of 4 corners*
0 Add a 4 corners polygon primitive as box body*
4,1,4,$2,$3,$4,$5,$6,$7,$8,$9,$2,$3,0*
0 Add four circle primitives for the rounded corners*
1,1,$1+$1,$2,$3*
1,1,$1+$1,$4,$5*
1,1,$1+$1,$6,$7*
1,1,$1+$1,$8,$9*
0 Add four rect primitives between the rounded corners*
20,1,$1+$1,$2,$3,$4,$5,0*
20,1,$1+$1,$4,$5,$6,$7,0*
20,1,$1+$1,$6,$7,$8,$9,0*
20,1,$1+$1,$8,$9,$2,$3,0*%
%AMFreePoly0*
4,1,19,0.500000,-0.750000,0.000000,-0.750000,0.000000,-0.744911,-0.071157,-0.744911,-0.207708,-0.704816,-0.327430,-0.627875,-0.420627,-0.520320,-0.479746,-0.390866,-0.500000,-0.250000,-0.500000,0.250000,-0.479746,0.390866,-0.420627,0.520320,-0.327430,0.627875,-0.207708,0.704816,-0.071157,0.744911,0.000000,0.744911,0.000000,0.750000,0.500000,0.750000,0.500000,-0.750000,0.500000,-0.750000,
$1*%
%AMFreePoly1*
4,1,19,0.000000,0.744911,0.071157,0.744911,0.207708,0.704816,0.327430,0.627875,0.420627,0.520320,0.479746,0.390866,0.500000,0.250000,0.500000,-0.250000,0.479746,-0.390866,0.420627,-0.520320,0.327430,-0.627875,0.207708,-0.704816,0.071157,-0.744911,0.000000,-0.744911,0.000000,-0.750000,-0.500000,-0.750000,-0.500000,0.750000,0.000000,0.750000,0.000000,0.744911,0.000000,0.744911,
$1*%
G04 Aperture macros list end*
%TA.AperFunction,ComponentPad*%
%ADD10R,1.700000X1.700000*%
%TD*%
%TA.AperFunction,ComponentPad*%
%ADD11O,1.700000X1.700000*%
%TD*%
%TA.AperFunction,ComponentPad*%
%ADD12C,4.400000*%
%TD*%
%TA.AperFunction,ComponentPad*%
%ADD13R,1.600000X1.600000*%
%TD*%
%TA.AperFunction,ComponentPad*%
%ADD14C,1.600000*%
%TD*%
%TA.AperFunction,ComponentPad*%
%ADD15R,3.500000X3.500000*%
%TD*%
%TA.AperFunction,ComponentPad*%
%ADD16RoundRect,0.750000X-0.750000X-1.000000X0.750000X-1.000000X0.750000X1.000000X-0.750000X1.000000X0*%
%TD*%
%TA.AperFunction,ComponentPad*%
%ADD17RoundRect,0.875000X-0.875000X-0.875000X0.875000X-0.875000X0.875000X0.875000X-0.875000X0.875000X0*%
%TD*%
%TA.AperFunction,SMDPad,CuDef*%
%ADD18FreePoly0,0.000000*%
%TD*%
%TA.AperFunction,SMDPad,CuDef*%
%ADD19FreePoly1,0.000000*%
%TD*%
%TA.AperFunction,ViaPad*%
%ADD20C,0.420000*%
%TD*%
%TA.AperFunction,Conductor*%
%ADD21C,0.127000*%
%TD*%
%TA.AperFunction,Conductor*%
%ADD22C,0.508000*%
%TD*%
%TA.AperFunction,Conductor*%
%ADD23C,0.254000*%
%TD*%
G04 APERTURE END LIST*
%TA.AperFunction,EtchedComponent*%
%TO.C,JP3*%
G36*
X160813800Y-77947800D02*
G01*
X160313800Y-77947800D01*
X160313800Y-77347800D01*
X160813800Y-77347800D01*
X160813800Y-77947800D01*
G37*
%TD.AperFunction*%
%TA.AperFunction,EtchedComponent*%
%TO.C,JP1*%
G36*
X160800000Y-81450000D02*
G01*
X160300000Y-81450000D01*
X160300000Y-80850000D01*
X160800000Y-80850000D01*
X160800000Y-81450000D01*
G37*
%TD.AperFunction*%
%TA.AperFunction,EtchedComponent*%
%TO.C,JP2*%
G36*
X160800000Y-84700000D02*
G01*
X160300000Y-84700000D01*
X160300000Y-84100000D01*
X160800000Y-84100000D01*
X160800000Y-84700000D01*
G37*
%TD.AperFunction*%
%TD*%
D10*
%TO.P,J4,1,Pin_1*%
%TO.N,/StepX*%
X159370000Y-110000000D03*
D11*
%TO.P,J4,2,Pin_2*%
%TO.N,/DirX*%
X159370000Y-112540000D03*
%TO.P,J4,3,Pin_3*%
%TO.N,/SCL*%
X156830000Y-110000000D03*
%TO.P,J4,4,Pin_4*%
%TO.N,/SDA*%
X156830000Y-112540000D03*
%TO.P,J4,5,Pin_5*%
%TO.N,/D0*%
X154290000Y-110000000D03*
%TO.P,J4,6,Pin_6*%
%TO.N,/D1*%
X154290000Y-112540000D03*
%TO.P,J4,7,Pin_7*%
%TO.N,/StepY*%
X151750000Y-110000000D03*
%TO.P,J4,8,Pin_8*%
%TO.N,/DirY*%
X151750000Y-112540000D03*
%TO.P,J4,9,Pin_9*%
%TO.N,/Vsys*%
X149210000Y-110000000D03*
%TO.P,J4,10,Pin_10*%
%TO.N,GND*%
X149210000Y-112540000D03*
%TD*%
D10*
%TO.P,J5,1,Pin_1*%
%TO.N,/SCL*%
X157800000Y-80750000D03*
D11*
%TO.P,J5,2,Pin_2*%
%TO.N,/SDA*%
X155260000Y-80750000D03*
%TO.P,J5,3,Pin_3*%
%TO.N,GND*%
X152720000Y-80750000D03*
%TO.P,J5,4,Pin_4*%
%TO.N,+5V*%
X150180000Y-80750000D03*
%TD*%
D12*
%TO.P,H2,1,1*%
%TO.N,GND*%
X177000000Y-110750000D03*
%TD*%
D10*
%TO.P,J7,1,Pin_1*%
%TO.N,/Y0_0*%
X181864000Y-81661000D03*
D11*
%TO.P,J7,2,Pin_2*%
%TO.N,/Y1_0*%
X184404000Y-81661000D03*
%TO.P,J7,3,Pin_3*%
%TO.N,/Y0_1*%
X181864000Y-84201000D03*
%TO.P,J7,4,Pin_4*%
%TO.N,/Y1_1*%
X184404000Y-84201000D03*
%TO.P,J7,5,Pin_5*%
%TO.N,/Y0_2*%
X181864000Y-86741000D03*
%TO.P,J7,6,Pin_6*%
%TO.N,/Y1_2*%
X184404000Y-86741000D03*
%TO.P,J7,7,Pin_7*%
%TO.N,/Y0_3*%
X181864000Y-89281000D03*
%TO.P,J7,8,Pin_8*%
%TO.N,/Y1_3*%
X184404000Y-89281000D03*
%TO.P,J7,9,Pin_9*%
%TO.N,GND*%
X181864000Y-91821000D03*
%TO.P,J7,10,Pin_10*%
X184404000Y-91821000D03*
%TO.P,J7,11,Pin_11*%
%TO.N,+5VP*%
X181864000Y-94361000D03*
%TO.P,J7,12,Pin_12*%
X184404000Y-94361000D03*
%TO.P,J7,13,Pin_13*%
%TO.N,unconnected-(J7-Pin_13-Pad13)*%
X181864000Y-96901000D03*
%TO.P,J7,14,Pin_14*%
%TO.N,/X_0*%
X184404000Y-96901000D03*
%TO.P,J7,15,Pin_15*%
%TO.N,unconnected-(J7-Pin_15-Pad15)*%
X181864000Y-99441000D03*
%TO.P,J7,16,Pin_16*%
%TO.N,/X_1*%
X184404000Y-99441000D03*
%TO.P,J7,17,Pin_17*%
%TO.N,/D1*%
X181864000Y-101981000D03*
%TO.P,J7,18,Pin_18*%
%TO.N,/X_2*%
X184404000Y-101981000D03*
%TO.P,J7,19,Pin_19*%
%TO.N,/D0*%
X181864000Y-104521000D03*
%TO.P,J7,20,Pin_20*%
%TO.N,/X_3*%
X184404000Y-104521000D03*
%TO.P,J7,21,Pin_21*%
%TO.N,GND*%
X181864000Y-107061000D03*
%TO.P,J7,22,Pin_22*%
X184404000Y-107061000D03*
%TO.P,J7,23,Pin_23*%
%TO.N,Net-(J7-Pin_23)*%
X181864000Y-109601000D03*
%TO.P,J7,24,Pin_24*%
%TO.N,+5VP*%
X184404000Y-109601000D03*
%TD*%
D12*
%TO.P,H5,1,1*%
%TO.N,GND*%
X132000000Y-80750000D03*
%TD*%
%TO.P,H3,1,1*%
%TO.N,GND*%
X132000000Y-110750000D03*
%TD*%
D13*
%TO.P,C3,1*%
%TO.N,+5VP*%
X167934000Y-111836200D03*
D14*
%TO.P,C3,2*%
%TO.N,GND*%
X170434000Y-111836200D03*
%TD*%
D15*
%TO.P,J1,1*%
%TO.N,Net-(D1-A)*%
X137512000Y-100592500D03*
D16*
%TO.P,J1,2*%
%TO.N,GND*%
X131512000Y-100592500D03*
D17*
%TO.P,J1,3*%
%TO.N,N/C*%
X134512000Y-105292500D03*
%TD*%
D13*
%TO.P,C10,1*%
%TO.N,Net-(D1-A)*%
X140200000Y-109250000D03*
D14*
%TO.P,C10,2*%
%TO.N,GND*%
X140200000Y-111750000D03*
%TD*%
D12*
%TO.P,H1,1,1*%
%TO.N,GND*%
X177000000Y-80750000D03*
%TD*%
D18*
%TO.P,JP3,1,A*%
%TO.N,+5V*%
X159913800Y-77647800D03*
D19*
%TO.P,JP3,2,B*%
%TO.N,+3.3V*%
X161213800Y-77647800D03*
%TD*%
D18*
%TO.P,JP1,1,A*%
%TO.N,/SCL*%
X159900000Y-81150000D03*
D19*
%TO.P,JP1,2,B*%
%TO.N,/SCL3*%
X161200000Y-81150000D03*
%TD*%
D18*
%TO.P,JP2,1,A*%
%TO.N,/SDA*%
X159900000Y-84400000D03*
D19*
%TO.P,JP2,2,B*%
%TO.N,/SDA3*%
X161200000Y-84400000D03*
%TD*%
D20*
%TO.N,GND*%
X145415000Y-84074000D03*
X146050000Y-87122000D03*
X146850000Y-91270000D03*
X146860000Y-91810000D03*
X156550000Y-92000000D03*
X156972000Y-105130600D03*
X175006000Y-92710000D03*
X160274000Y-90678000D03*
X169150000Y-81500000D03*
X184785000Y-79502000D03*
X146050000Y-86360000D03*
X145415000Y-82042000D03*
X160020000Y-86614000D03*
X169150000Y-80800000D03*
X146050000Y-87884000D03*
X170942000Y-92710000D03*
X187071000Y-112649000D03*
X153289000Y-98958400D03*
X178435000Y-99568000D03*
X164211000Y-91821000D03*
X160274000Y-91440000D03*
%TO.N,/Vsys*%
X154940000Y-91440000D03*
X154940000Y-92710000D03*
X142240000Y-87630000D03*
X146685000Y-108585000D03*
X145415000Y-109855000D03*
X140970000Y-88900000D03*
X147955000Y-107315000D03*
X142240000Y-86360000D03*
X140970000Y-86360000D03*
X142240000Y-91440000D03*
X145415000Y-107315000D03*
X146685000Y-107315000D03*
X142240000Y-88900000D03*
X140970000Y-90170000D03*
X146685000Y-109855000D03*
X140970000Y-87630000D03*
X145415000Y-108585000D03*
X142240000Y-90170000D03*
X140970000Y-91440000D03*
X154940000Y-90170000D03*
%TO.N,/SDA3*%
X165735000Y-90678000D03*
X165468800Y-85674200D03*
X163576000Y-83515200D03*
%TO.N,/D0*%
X179628800Y-107950000D03*
%TO.N,/D1*%
X178917600Y-108356400D03*
%TO.N,/SCL3*%
X165481000Y-83769200D03*
X165222000Y-89154000D03*
X161200000Y-81150000D03*
%TO.N,/RstN*%
X180213000Y-79375000D03*
X179959000Y-90551000D03*
%TO.N,/StepX*%
X172466000Y-90805000D03*
X171958000Y-108839000D03*
%TO.N,/DirX*%
X173228000Y-113030000D03*
X173355000Y-90932000D03*
%TO.N,/StepY*%
X151257000Y-87807800D03*
%TO.N,/DirY*%
X173990000Y-114046000D03*
X174498000Y-89535000D03*
%TO.N,+3.3V*%
X162941000Y-77597000D03*
X173228000Y-79629000D03*
X162941000Y-78359000D03*
X162687000Y-89662000D03*
X173228000Y-77978000D03*
X169291000Y-92710000D03*
X162687000Y-92837000D03*
X173228000Y-78740000D03*
X162941000Y-79248000D03*
X163449000Y-85979000D03*
X173228000Y-80518000D03*
X162941000Y-76835000D03*
X161798000Y-88900000D03*
X162687000Y-91821000D03*
X179750000Y-78150000D03*
X162687000Y-88900000D03*
%TO.N,+5V*%
X149150000Y-86650000D03*
X158369000Y-77724000D03*
X146850000Y-84050000D03*
X149150000Y-88550000D03*
X149150000Y-87650000D03*
X149150000Y-85750000D03*
%TO.N,/X_0*%
X167900000Y-87000000D03*
X168150000Y-93900000D03*
%TO.N,/X_1*%
X167327000Y-87550000D03*
X167550000Y-94350000D03*
%TO.N,/X_2*%
X166800000Y-88100000D03*
X166900000Y-94900000D03*
%TO.N,/X_3*%
X166300000Y-88700000D03*
X166400000Y-107289600D03*
%TO.N,+5VP*%
X161925000Y-111760000D03*
X172720000Y-101600000D03*
X151765000Y-98425000D03*
X175260000Y-99060000D03*
X179197000Y-114681000D03*
X164465000Y-110490000D03*
X170180000Y-104140000D03*
X167640000Y-104140000D03*
X175260000Y-104140000D03*
X151765000Y-100965000D03*
X182245000Y-114681000D03*
X153035000Y-100965000D03*
X167640000Y-96520000D03*
X172720000Y-104140000D03*
X151765000Y-99695000D03*
X175260000Y-96520000D03*
X167640000Y-101600000D03*
X163195000Y-111760000D03*
X172720000Y-96520000D03*
X170180000Y-101600000D03*
X170180000Y-96520000D03*
X172720000Y-99060000D03*
X163195000Y-110490000D03*
X154305000Y-100965000D03*
X175260000Y-101600000D03*
X178054000Y-114681000D03*
X167640000Y-99060000D03*
X181229000Y-114681000D03*
X170180000Y-99060000D03*
X164465000Y-111760000D03*
X183261000Y-114681000D03*
X161925000Y-110490000D03*
X180213000Y-114681000D03*
%TD*%
D21*
%TO.N,/X_2*%
X166900000Y-88200000D02*
X166800000Y-88100000D01*
X166900000Y-94900000D02*
X166900000Y-88200000D01*
%TO.N,/X_3*%
X166400000Y-107289600D02*
X166400000Y-88800000D01*
X166400000Y-88800000D02*
X166300000Y-88700000D01*
%TO.N,/X_1*%
X167373000Y-87596000D02*
X167373000Y-94173000D01*
X167373000Y-94173000D02*
X167550000Y-94350000D01*
X167327000Y-87550000D02*
X167373000Y-87596000D01*
%TO.N,/X_0*%
X167800000Y-93550000D02*
X168150000Y-93900000D01*
X167800000Y-87100000D02*
X167800000Y-93550000D01*
X167900000Y-87000000D02*
X167800000Y-87100000D01*
D22*
%TO.N,GND*%
X177000000Y-110750000D02*
X177000000Y-106150000D01*
X177000000Y-106150000D02*
X177050000Y-106100000D01*
D21*
%TO.N,/SCL*%
X157800000Y-109030000D02*
X157800000Y-80750000D01*
X159500000Y-80750000D02*
X159900000Y-81150000D01*
X156830000Y-110000000D02*
X157800000Y-109030000D01*
X157800000Y-80750000D02*
X159500000Y-80750000D01*
%TO.N,/SDA*%
X156373500Y-79636500D02*
X155260000Y-80750000D01*
X159900000Y-84400000D02*
X159900000Y-83877354D01*
X155716500Y-111426500D02*
X156830000Y-112540000D01*
X162382200Y-81395154D02*
X162382200Y-80416400D01*
X155716500Y-81206500D02*
X155716500Y-111426500D01*
X159900000Y-83877354D02*
X162382200Y-81395154D01*
X161602300Y-79636500D02*
X156373500Y-79636500D01*
X155260000Y-80750000D02*
X155716500Y-81206500D01*
X162382200Y-80416400D02*
X161602300Y-79636500D01*
%TO.N,/SDA3*%
X165735000Y-90678000D02*
X165735000Y-85940400D01*
X162084800Y-83515200D02*
X163576000Y-83515200D01*
X161200000Y-84400000D02*
X162084800Y-83515200D01*
X165735000Y-85940400D02*
X165468800Y-85674200D01*
%TO.N,/D0*%
X179628800Y-107950000D02*
X179628800Y-106756200D01*
X179628800Y-106756200D02*
X181864000Y-104521000D01*
%TO.N,/D1*%
X179037900Y-104807100D02*
X181864000Y-101981000D01*
X179037900Y-108236100D02*
X179037900Y-104807100D01*
X178917600Y-108356400D02*
X179037900Y-108236100D01*
%TO.N,/SCL3*%
X165222000Y-89154000D02*
X164955300Y-88887300D01*
X164955300Y-84294900D02*
X165481000Y-83769200D01*
X164955300Y-88887300D02*
X164955300Y-84294900D01*
%TO.N,/RstN*%
X179959000Y-90551000D02*
X180213000Y-90297000D01*
X180213000Y-90297000D02*
X180213000Y-79375000D01*
%TO.N,/StepX*%
X172206500Y-108590500D02*
X171958000Y-108839000D01*
X172466000Y-90805000D02*
X172206500Y-91064500D01*
X172206500Y-91064500D02*
X172206500Y-108590500D01*
%TO.N,/DirX*%
X173355000Y-90932000D02*
X173355000Y-112903000D01*
X173355000Y-112903000D02*
X173228000Y-113030000D01*
%TO.N,/StepY*%
X151251500Y-109501500D02*
X151750000Y-110000000D01*
X151257000Y-87807800D02*
X151251500Y-87813300D01*
X151251500Y-87813300D02*
X151251500Y-109501500D01*
%TO.N,/DirY*%
X174492500Y-113543500D02*
X173990000Y-114046000D01*
X174498000Y-89535000D02*
X174492500Y-89540500D01*
X174492500Y-89540500D02*
X174492500Y-113543500D01*
D23*
%TO.N,+3.3V*%
X162890200Y-77647800D02*
X162941000Y-77597000D01*
X161213800Y-77647800D02*
X162890200Y-77647800D01*
%TO.N,+5V*%
X158445200Y-77647800D02*
X158369000Y-77724000D01*
X159913800Y-77647800D02*
X158445200Y-77647800D01*
%TD*%
%TA.AperFunction,Conductor*%
%TO.N,GND*%
G36*
X156485703Y-81819672D02*
G01*
X156503767Y-81839075D01*
X156592452Y-81957544D01*
X156592453Y-81957544D01*
X156592454Y-81957546D01*
X156707669Y-82043796D01*
X156842517Y-82094091D01*
X156902127Y-82100500D01*
X157112000Y-82100499D01*
X157179039Y-82120183D01*
X157224794Y-82172987D01*
X157236000Y-82224499D01*
X157236000Y-108549046D01*
X157216315Y-108616085D01*
X157163511Y-108661840D01*
X157094353Y-108671784D01*
X157079910Y-108668822D01*
X157065407Y-108664936D01*
X156829999Y-108644340D01*
X156594592Y-108664936D01*
X156436593Y-108707272D01*
X156366743Y-108705609D01*
X156308881Y-108666446D01*
X156281377Y-108602218D01*
X156280500Y-108587497D01*
X156280500Y-81913385D01*
X156300185Y-81846346D01*
X156352989Y-81800591D01*
X156422147Y-81790647D01*
X156485703Y-81819672D01*
G37*
%TD.AperFunction*%
%TA.AperFunction,Conductor*%
G36*
X184022239Y-106730202D02*
G01*
X183944507Y-106851156D01*
X183904000Y-106989111D01*
X183904000Y-107132889D01*
X183944507Y-107270844D01*
X184022239Y-107391798D01*
X184073252Y-107436000D01*
X182194748Y-107436000D01*
X182245761Y-107391798D01*
X182323493Y-107270844D01*
X182364000Y-107132889D01*
X182364000Y-106989111D01*
X182323493Y-106851156D01*
X182245761Y-106730202D01*
X182194748Y-106686000D01*
X184073252Y-106686000D01*
X184022239Y-106730202D01*
G37*
%TD.AperFunction*%
%TA.AperFunction,Conductor*%
G36*
X184022239Y-91490202D02*
G01*
X183944507Y-91611156D01*
X183904000Y-91749111D01*
X183904000Y-91892889D01*
X183944507Y-92030844D01*
X184022239Y-92151798D01*
X184073252Y-92196000D01*
X182194748Y-92196000D01*
X182245761Y-92151798D01*
X182323493Y-92030844D01*
X182364000Y-91892889D01*
X182364000Y-91749111D01*
X182323493Y-91611156D01*
X182245761Y-91490202D01*
X182194748Y-91446000D01*
X184073252Y-91446000D01*
X184022239Y-91490202D01*
G37*
%TD.AperFunction*%
%TA.AperFunction,Conductor*%
G36*
X188001153Y-75825694D02*
G01*
X188318180Y-75843497D01*
X188331978Y-75845051D01*
X188641580Y-75897653D01*
X188655135Y-75900747D01*
X188956898Y-75987681D01*
X188970023Y-75992274D01*
X189028209Y-76016375D01*
X189260153Y-76112448D01*
X189272660Y-76118471D01*
X189547518Y-76270377D01*
X189559292Y-76277775D01*
X189670387Y-76356600D01*
X189815416Y-76459503D01*
X189826270Y-76468159D01*
X190060436Y-76677420D01*
X190070262Y-76687247D01*
X190279521Y-76921407D01*
X190288191Y-76932278D01*
X190469909Y-77188384D01*
X190477307Y-77200158D01*
X190629212Y-77475007D01*
X190635246Y-77487536D01*
X190751535Y-77768283D01*
X190755419Y-77777658D01*
X190760012Y-77790784D01*
X190846948Y-78092547D01*
X190850042Y-78106103D01*
X190902644Y-78415693D01*
X190904201Y-78429511D01*
X190921985Y-78746170D01*
X190922180Y-78753123D01*
X190922180Y-112746519D01*
X190921985Y-112753472D01*
X190904181Y-113070487D01*
X190902624Y-113084305D01*
X190850023Y-113393893D01*
X190846929Y-113407450D01*
X190759994Y-113709209D01*
X190755401Y-113722334D01*
X190635228Y-114012454D01*
X190629194Y-114024983D01*
X190477290Y-114299830D01*
X190469892Y-114311603D01*
X190288175Y-114567708D01*
X190279506Y-114578580D01*
X190070249Y-114812738D01*
X190060416Y-114822571D01*
X189826272Y-115031813D01*
X189815400Y-115040483D01*
X189559282Y-115222207D01*
X189547508Y-115229605D01*
X189474377Y-115270023D01*
X189272659Y-115381506D01*
X189260138Y-115387536D01*
X188970016Y-115507706D01*
X188956891Y-115512299D01*
X188655131Y-115599233D01*
X188641574Y-115602327D01*
X188331986Y-115654927D01*
X188318168Y-115656484D01*
X188057497Y-115671121D01*
X188000796Y-115674305D01*
X187993847Y-115674500D01*
X130003481Y-115674500D01*
X129996528Y-115674305D01*
X129679511Y-115656501D01*
X129665693Y-115654944D01*
X129356105Y-115602343D01*
X129342548Y-115599249D01*
X129040787Y-115512313D01*
X129027662Y-115507720D01*
X128737541Y-115387548D01*
X128725013Y-115381515D01*
X128523284Y-115270024D01*
X128450156Y-115229607D01*
X128438391Y-115222214D01*
X128182285Y-115040497D01*
X128171417Y-115031831D01*
X128054885Y-114927692D01*
X127937255Y-114822571D01*
X127927425Y-114812741D01*
X127718164Y-114578576D01*
X127709504Y-114567716D01*
X127527782Y-114311603D01*
X127520395Y-114299848D01*
X127368480Y-114024979D01*
X127362454Y-114012465D01*
X127242278Y-113722334D01*
X127237686Y-113709212D01*
X127150750Y-113407451D01*
X127147656Y-113393894D01*
X127142341Y-113362611D01*
X127095053Y-113084296D01*
X127093499Y-113070498D01*
X127075693Y-112753436D01*
X127075500Y-112746548D01*
X127075500Y-112725469D01*
X127075500Y-112725468D01*
X127075500Y-110753736D01*
X129295290Y-110753736D01*
X129314560Y-111072302D01*
X129315462Y-111079732D01*
X129372990Y-111393651D01*
X129374778Y-111400907D01*
X129469729Y-111705613D01*
X129472374Y-111712589D01*
X129603362Y-112003631D01*
X129606836Y-112010251D01*
X129771945Y-112283373D01*
X129776191Y-112289525D01*
X129843820Y-112375847D01*
X129843821Y-112375847D01*
X131003576Y-111216092D01*
X131043038Y-111302502D01*
X131164894Y-111473624D01*
X131316932Y-111618592D01*
X131493658Y-111732167D01*
X131532580Y-111747749D01*
X130374151Y-112906177D01*
X130374151Y-112906178D01*
X130460470Y-112973805D01*
X130466631Y-112978058D01*
X130739748Y-113143163D01*
X130746368Y-113146637D01*
X131037410Y-113277625D01*
X131044386Y-113280270D01*
X131349092Y-113375221D01*
X131356348Y-113377009D01*
X131670267Y-113434537D01*
X131677697Y-113435439D01*
X131996264Y-113454709D01*
X132003736Y-113454709D01*
X132322302Y-113435439D01*
X132329732Y-113434537D01*
X132643651Y-113377009D01*
X132650907Y-113375221D01*
X132955613Y-113280270D01*
X132962589Y-113277625D01*
X133253631Y-113146637D01*
X133260251Y-113143163D01*
X133533368Y-112978058D01*
X133539531Y-112973803D01*
X133625848Y-112906178D01*
X133616556Y-112896886D01*
X139583442Y-112896886D01*
X139753673Y-112976266D01*
X139973397Y-113035141D01*
X140200000Y-113054966D01*
X140426602Y-113035141D01*
X140646326Y-112976266D01*
X140777711Y-112915000D01*
X147912858Y-112915000D01*
X147936569Y-113003491D01*
X148036399Y-113217576D01*
X148171893Y-113411081D01*
X148338918Y-113578106D01*
X148532423Y-113713600D01*
X148746508Y-113813430D01*
X148834999Y-113837141D01*
X148835000Y-113837141D01*
X148835000Y-112915000D01*
X147912858Y-112915000D01*
X140777711Y-112915000D01*
X140816556Y-112896886D01*
X140200001Y-112280330D01*
X140200000Y-112280330D01*
X139583442Y-112896886D01*
X133616556Y-112896886D01*
X132466663Y-111746993D01*
X132597410Y-111679589D01*
X132762540Y-111549729D01*
X132900110Y-111390965D01*
X132999369Y-111219041D01*
X134156177Y-112375847D01*
X134156178Y-112375847D01*
X134223804Y-112289531D01*
X134228058Y-112283368D01*
X134393163Y-112010251D01*
X134396637Y-112003631D01*
X134510788Y-111750000D01*
X138895033Y-111750000D01*
X138914858Y-111976602D01*
X138973733Y-112196326D01*
X139053113Y-112366556D01*
X139669670Y-111750000D01*
X139795014Y-111750000D01*
X139814835Y-111875148D01*
X139872359Y-111988045D01*
X139961955Y-112077641D01*
X140074852Y-112135165D01*
X140168519Y-112150000D01*
X140231481Y-112150000D01*
X140325148Y-112135165D01*
X140438045Y-112077641D01*
X140527641Y-111988045D01*
X140585165Y-111875148D01*
X140604986Y-111750000D01*
X140730330Y-111750000D01*
X141346886Y-112366556D01*
X141426266Y-112196326D01*
X141485141Y-111976602D01*
X141504966Y-111750000D01*
X141485141Y-111523397D01*
X141426266Y-111303673D01*
X141346886Y-111133442D01*
X140730330Y-111749999D01*
X140730330Y-111750000D01*
X140604986Y-111750000D01*
X140585165Y-111624852D01*
X140527641Y-111511955D01*
X140438045Y-111422359D01*
X140325148Y-111364835D01*
X140231481Y-111350000D01*
X140168519Y-111350000D01*
X140074852Y-111364835D01*
X139961955Y-111422359D01*
X139872359Y-111511955D01*
X139814835Y-111624852D01*
X139795014Y-111750000D01*
X139669670Y-111750000D01*
X139053112Y-111133442D01*
X138973734Y-111303671D01*
X138914858Y-111523397D01*
X138895033Y-111750000D01*
X134510788Y-111750000D01*
X134527625Y-111712589D01*
X134530270Y-111705613D01*
X134625221Y-111400907D01*
X134627009Y-111393651D01*
X134684537Y-111079732D01*
X134685439Y-111072302D01*
X134704709Y-110753736D01*
X134704709Y-110746263D01*
X134685439Y-110427697D01*
X134684537Y-110420267D01*
X134627009Y-110106348D01*
X134625221Y-110099092D01*
X134623814Y-110094578D01*
X138899500Y-110094578D01*
X138899501Y-110097872D01*
X138899853Y-110101152D01*
X138899854Y-110101159D01*
X138905909Y-110157484D01*
X138929103Y-110219670D01*
X138956204Y-110292331D01*
X139042454Y-110407546D01*
X139157669Y-110493796D01*
X139292517Y-110544091D01*
X139352127Y-110550500D01*
X139479469Y-110550499D01*
X139546506Y-110570183D01*
X139567148Y-110586818D01*
X140200000Y-111219670D01*
X140200001Y-111219670D01*
X140832851Y-110586818D01*
X140894174Y-110553333D01*
X140920531Y-110550499D01*
X141047872Y-110550499D01*
X141107483Y-110544091D01*
X141242331Y-110493796D01*
X141357546Y-110407546D01*
X141443796Y-110292331D01*
X141494091Y-110157483D01*
X141500500Y-110097873D01*
X141500500Y-109854999D01*
X144699281Y-109854999D01*
X144720079Y-110026283D01*
X144781262Y-110187611D01*
X144819644Y-110243216D01*
X144879277Y-110329609D01*
X145008426Y-110444024D01*
X145161203Y-110524208D01*
X145328730Y-110565500D01*
X145328732Y-110565500D01*
X145501268Y-110565500D01*
X145501270Y-110565500D01*
X145668797Y-110524208D01*
X145821574Y-110444024D01*
X145950723Y-110329609D01*
X145950724Y-110329606D01*
X145961993Y-110319624D01*
X145963344Y-110321149D01*
X146002231Y-110289636D01*
X146071680Y-110281976D01*
X146134245Y-110313078D01*
X146146228Y-110326907D01*
X146149275Y-110329606D01*
X146149277Y-110329609D01*
X146278426Y-110444024D01*
X146431203Y-110524208D01*
X146598730Y-110565500D01*
X146598732Y-110565500D01*
X146771268Y-110565500D01*
X146771270Y-110565500D01*
X146938797Y-110524208D01*
X147091574Y-110444024D01*
X147220723Y-110329609D01*
X147318737Y-110187611D01*
X147379921Y-110026283D01*
X147383112Y-110000000D01*
X147854340Y-110000000D01*
X147874936Y-110235407D01*
X147915981Y-110388589D01*
X147936097Y-110463663D01*
X148035965Y-110677830D01*
X148171505Y-110871401D01*
X148338599Y-111038495D01*
X148524596Y-111168732D01*
X148568219Y-111223307D01*
X148575412Y-111292806D01*
X148543890Y-111355160D01*
X148524595Y-111371880D01*
X148338919Y-111501892D01*
X148171890Y-111668921D01*
X148036400Y-111862421D01*
X147936569Y-112076507D01*
X147912858Y-112164999D01*
X147912858Y-112165000D01*
X148879252Y-112165000D01*
X148828239Y-112209202D01*
X148750507Y-112330156D01*
X148710000Y-112468111D01*
X148710000Y-112611889D01*
X148750507Y-112749844D01*
X148828239Y-112870798D01*
X148936900Y-112964952D01*
X149067685Y-113024680D01*
X149174237Y-113040000D01*
X149245763Y-113040000D01*
X149352315Y-113024680D01*
X149483100Y-112964952D01*
X149585000Y-112876656D01*
X149585000Y-113837141D01*
X149673491Y-113813430D01*
X149887576Y-113713600D01*
X150081081Y-113578106D01*
X150248109Y-113411078D01*
X150378119Y-113225405D01*
X150432696Y-113181780D01*
X150502194Y-113174586D01*
X150564549Y-113206109D01*
X150581265Y-113225400D01*
X150711505Y-113411401D01*
X150878599Y-113578495D01*
X151072170Y-113714035D01*
X151286337Y-113813903D01*
X151513301Y-113874717D01*
X151514592Y-113875063D01*
X151749999Y-113895659D01*
X151749999Y-113895658D01*
X151750000Y-113895659D01*
X151985408Y-113875063D01*
X152213663Y-113813903D01*
X152427830Y-113714035D01*
X152621401Y-113578495D01*
X152788495Y-113411401D01*
X152918427Y-113225838D01*
X152973001Y-113182216D01*
X153042499Y-113175022D01*
X153104854Y-113206545D01*
X153121572Y-113225838D01*
X153251505Y-113411401D01*
X153418599Y-113578495D01*
X153612170Y-113714035D01*
X153826337Y-113813903D01*
X154054592Y-113875063D01*
X154290000Y-113895659D01*
X154525408Y-113875063D01*
X154753663Y-113813903D01*
X154967830Y-113714035D01*
X155161401Y-113578495D01*
X155328495Y-113411401D01*
X155458426Y-113225839D01*
X155513002Y-113182216D01*
X155582500Y-113175022D01*
X155644855Y-113206545D01*
X155661571Y-113225837D01*
X155791505Y-113411401D01*
X155958599Y-113578495D01*
X156152170Y-113714035D01*
X156366337Y-113813903D01*
X156594592Y-113875063D01*
X156830000Y-113895659D01*
X157065408Y-113875063D01*
X157293663Y-113813903D01*
X157507830Y-113714035D01*
X157701401Y-113578495D01*
X157868495Y-113411401D01*
X157998427Y-113225838D01*
X158053001Y-113182216D01*
X158122499Y-113175022D01*
X158184854Y-113206545D01*
X158201572Y-113225838D01*
X158331505Y-113411401D01*
X158498599Y-113578495D01*
X158692170Y-113714035D01*
X158906337Y-113813903D01*
X159134592Y-113875063D01*
X159370000Y-113895659D01*
X159605408Y-113875063D01*
X159833663Y-113813903D01*
X160047830Y-113714035D01*
X160241401Y-113578495D01*
X160408495Y-113411401D01*
X160544035Y-113217830D01*
X160643903Y-113003663D01*
X160705063Y-112775408D01*
X160713342Y-112680778D01*
X166633500Y-112680778D01*
X166633501Y-112684072D01*
X166633853Y-112687352D01*
X166633854Y-112687359D01*
X166639909Y-112743684D01*
X166656904Y-112789248D01*
X166690204Y-112878531D01*
X166776454Y-112993746D01*
X166891669Y-113079996D01*
X167026517Y-113130291D01*
X167086127Y-113136700D01*
X168781872Y-113136699D01*
X168841483Y-113130291D01*
X168976331Y-113079996D01*
X169091546Y-112993746D01*
X169099526Y-112983086D01*
X169817442Y-112983086D01*
X169987673Y-113062466D01*
X170207397Y-113121341D01*
X170434000Y-113141166D01*
X170660602Y-113121341D01*
X170880326Y-113062466D01*
X171050556Y-112983086D01*
X170434001Y-112366530D01*
X170434000Y-112366530D01*
X169817442Y-112983086D01*
X169099526Y-112983086D01*
X169177796Y-112878531D01*
X169228091Y-112743683D01*
X169234500Y-112684073D01*
X169234499Y-112556728D01*
X169254183Y-112489692D01*
X169270818Y-112469050D01*
X169903670Y-111836200D01*
X170029014Y-111836200D01*
X170048835Y-111961348D01*
X170106359Y-112074245D01*
X170195955Y-112163841D01*
X170308852Y-112221365D01*
X170402519Y-112236200D01*
X170465481Y-112236200D01*
X170559148Y-112221365D01*
X170672045Y-112163841D01*
X170761641Y-112074245D01*
X170819165Y-111961348D01*
X170838986Y-111836200D01*
X170964330Y-111836200D01*
X171580886Y-112452756D01*
X171660266Y-112282526D01*
X171719141Y-112062802D01*
X171738966Y-111836200D01*
X171719141Y-111609597D01*
X171660266Y-111389873D01*
X171580886Y-111219642D01*
X170964330Y-111836199D01*
X170964330Y-111836200D01*
X170838986Y-111836200D01*
X170819165Y-111711052D01*
X170761641Y-111598155D01*
X170672045Y-111508559D01*
X170559148Y-111451035D01*
X170465481Y-111436200D01*
X170402519Y-111436200D01*
X170308852Y-111451035D01*
X170195955Y-111508559D01*
X170106359Y-111598155D01*
X170048835Y-111711052D01*
X170029014Y-111836200D01*
X169903670Y-111836200D01*
X169270818Y-111203348D01*
X169237333Y-111142025D01*
X169234499Y-111115667D01*
X169234499Y-110991639D01*
X169234499Y-110988328D01*
X169228091Y-110928717D01*
X169177796Y-110793869D01*
X169099525Y-110689312D01*
X169817442Y-110689312D01*
X170434000Y-111305869D01*
X170434001Y-111305869D01*
X171050556Y-110689313D01*
X170880326Y-110609933D01*
X170660602Y-110551058D01*
X170434000Y-110531233D01*
X170207397Y-110551058D01*
X169987671Y-110609934D01*
X169817442Y-110689312D01*
X169099525Y-110689312D01*
X169091546Y-110678654D01*
X168976331Y-110592404D01*
X168841483Y-110542109D01*
X168781873Y-110535700D01*
X168778550Y-110535700D01*
X167089439Y-110535700D01*
X167089420Y-110535700D01*
X167086128Y-110535701D01*
X167082848Y-110536053D01*
X167082840Y-110536054D01*
X167026515Y-110542109D01*
X166891669Y-110592404D01*
X166776454Y-110678654D01*
X166690204Y-110793868D01*
X166639909Y-110928716D01*
X166636341Y-110961907D01*
X166633500Y-110988327D01*
X166633500Y-110991648D01*
X166633500Y-110991649D01*
X166633500Y-112680760D01*
X166633500Y-112680778D01*
X160713342Y-112680778D01*
X160725659Y-112540000D01*
X160705063Y-112304592D01*
X160643903Y-112076337D01*
X160544035Y-111862171D01*
X160472494Y-111760000D01*
X161209281Y-111760000D01*
X161230079Y-111931283D01*
X161291262Y-112092611D01*
X161341229Y-112165000D01*
X161389277Y-112234609D01*
X161518426Y-112349024D01*
X161671203Y-112429208D01*
X161838730Y-112470500D01*
X161838732Y-112470500D01*
X162011268Y-112470500D01*
X162011270Y-112470500D01*
X162178797Y-112429208D01*
X162331574Y-112349024D01*
X162460723Y-112234609D01*
X162460724Y-112234606D01*
X162471993Y-112224624D01*
X162473344Y-112226149D01*
X162512231Y-112194636D01*
X162581680Y-112186976D01*
X162644245Y-112218078D01*
X162656228Y-112231907D01*
X162659275Y-112234606D01*
X162659277Y-112234609D01*
X162788426Y-112349024D01*
X162941203Y-112429208D01*
X163108730Y-112470500D01*
X163108732Y-112470500D01*
X163281268Y-112470500D01*
X163281270Y-112470500D01*
X163448797Y-112429208D01*
X163601574Y-112349024D01*
X163730723Y-112234609D01*
X163730724Y-112234606D01*
X163741993Y-112224624D01*
X163743344Y-112226149D01*
X163782231Y-112194636D01*
X163851680Y-112186976D01*
X163914245Y-112218078D01*
X163926228Y-112231907D01*
X163929275Y-112234606D01*
X163929277Y-112234609D01*
X164058426Y-112349024D01*
X164211203Y-112429208D01*
X164378730Y-112470500D01*
X164378732Y-112470500D01*
X164551268Y-112470500D01*
X164551270Y-112470500D01*
X164718797Y-112429208D01*
X164871574Y-112349024D01*
X165000723Y-112234609D01*
X165098737Y-112092611D01*
X165159921Y-111931283D01*
X165180718Y-111760000D01*
X165159921Y-111588717D01*
X165098737Y-111427389D01*
X165098737Y-111427388D01*
X165000724Y-111285392D01*
X164995010Y-111280330D01*
X164924443Y-111217814D01*
X164887318Y-111158626D01*
X164888086Y-111088761D01*
X164924443Y-111032185D01*
X165000723Y-110964609D01*
X165098737Y-110822611D01*
X165159921Y-110661283D01*
X165180718Y-110490000D01*
X165159921Y-110318717D01*
X165121940Y-110218572D01*
X165098737Y-110157388D01*
X165006561Y-110023849D01*
X165000723Y-110015391D01*
X164871574Y-109900976D01*
X164718797Y-109820792D01*
X164551270Y-109779500D01*
X164378730Y-109779500D01*
X164211203Y-109820792D01*
X164211201Y-109820792D01*
X164211201Y-109820793D01*
X164058427Y-109900975D01*
X164058425Y-109900976D01*
X164058426Y-109900976D01*
X163929277Y-110015391D01*
X163929275Y-110015392D01*
X163918007Y-110025376D01*
X163916654Y-110023849D01*
X163877762Y-110055365D01*
X163808313Y-110063022D01*
X163745750Y-110031916D01*
X163733773Y-110018093D01*
X163657217Y-109950271D01*
X163601574Y-109900976D01*
X163448797Y-109820792D01*
X163281270Y-109779500D01*
X163108730Y-109779500D01*
X162941203Y-109820792D01*
X162941201Y-109820792D01*
X162941201Y-109820793D01*
X162788427Y-109900975D01*
X162788425Y-109900976D01*
X162788426Y-109900976D01*
X162659277Y-110015391D01*
X162659275Y-110015392D01*
X162648007Y-110025376D01*
X162646654Y-110023849D01*
X162607762Y-110055365D01*
X162538313Y-110063022D01*
X162475750Y-110031916D01*
X162463773Y-110018093D01*
X162387217Y-109950271D01*
X162331574Y-109900976D01*
X162178797Y-109820792D01*
X162011270Y-109779500D01*
X161838730Y-109779500D01*
X161671203Y-109820792D01*
X161671201Y-109820792D01*
X161671201Y-109820793D01*
X161518427Y-109900975D01*
X161389276Y-110015392D01*
X161291262Y-110157388D01*
X161230079Y-110318716D01*
X161209281Y-110490000D01*
X161230079Y-110661283D01*
X161291262Y-110822611D01*
X161389275Y-110964607D01*
X161389276Y-110964608D01*
X161389277Y-110964609D01*
X161465556Y-111032185D01*
X161502682Y-111091374D01*
X161501914Y-111161239D01*
X161465556Y-111217814D01*
X161431704Y-111247804D01*
X161389275Y-111285392D01*
X161291262Y-111427388D01*
X161230079Y-111588716D01*
X161209281Y-111760000D01*
X160472494Y-111760000D01*
X160408495Y-111668599D01*
X160286569Y-111546673D01*
X160253084Y-111485350D01*
X160258068Y-111415658D01*
X160299940Y-111359725D01*
X160330915Y-111342810D01*
X160462331Y-111293796D01*
X160577546Y-111207546D01*
X160663796Y-111092331D01*
X160714091Y-110957483D01*
X160720500Y-110897873D01*
X160720499Y-109102128D01*
X160714091Y-109042517D01*
X160663796Y-108907669D01*
X160612390Y-108838999D01*
X171242281Y-108838999D01*
X171263079Y-109010283D01*
X171324262Y-109171611D01*
X171380873Y-109253625D01*
X171422277Y-109313609D01*
X171551426Y-109428024D01*
X171704203Y-109508208D01*
X171871730Y-109549500D01*
X171871732Y-109549500D01*
X172044268Y-109549500D01*
X172044270Y-109549500D01*
X172211797Y-109508208D01*
X172364574Y-109428024D01*
X172493723Y-109313609D01*
X172564951Y-109210417D01*
X172619233Y-109166428D01*
X172688681Y-109158768D01*
X172751246Y-109189871D01*
X172787063Y-109249862D01*
X172791000Y-109280858D01*
X172791000Y-112412122D01*
X172771315Y-112479161D01*
X172749227Y-112504937D01*
X172692277Y-112555389D01*
X172594262Y-112697388D01*
X172533079Y-112858716D01*
X172512281Y-113030000D01*
X172533079Y-113201283D01*
X172594262Y-113362611D01*
X172665260Y-113465469D01*
X172692277Y-113504609D01*
X172821426Y-113619024D01*
X172974203Y-113699208D01*
X173141730Y-113740500D01*
X173141732Y-113740500D01*
X173171409Y-113740500D01*
X173238448Y-113760185D01*
X173284203Y-113812989D01*
X173294505Y-113879446D01*
X173274281Y-114046000D01*
X173295079Y-114217283D01*
X173356262Y-114378611D01*
X173389895Y-114427336D01*
X173454277Y-114520609D01*
X173583426Y-114635024D01*
X173736203Y-114715208D01*
X173903730Y-114756500D01*
X173903732Y-114756500D01*
X174076268Y-114756500D01*
X174076270Y-114756500D01*
X174243797Y-114715208D01*
X174308975Y-114681000D01*
X177338281Y-114681000D01*
X177359079Y-114852283D01*
X177420262Y-115013611D01*
X177482499Y-115103776D01*
X177518277Y-115155609D01*
X177647426Y-115270024D01*
X177800203Y-115350208D01*
X177967730Y-115391500D01*
X177967732Y-115391500D01*
X178140268Y-115391500D01*
X178140270Y-115391500D01*
X178307797Y-115350208D01*
X178460574Y-115270024D01*
X178543272Y-115196760D01*
X178606506Y-115167038D01*
X178675770Y-115176222D01*
X178707727Y-115196760D01*
X178790424Y-115270023D01*
X178790426Y-115270024D01*
X178943203Y-115350208D01*
X179110730Y-115391500D01*
X179110732Y-115391500D01*
X179283268Y-115391500D01*
X179283270Y-115391500D01*
X179450797Y-115350208D01*
X179603574Y-115270024D01*
X179622773Y-115253014D01*
X179686006Y-115223294D01*
X179755270Y-115232478D01*
X179787225Y-115253014D01*
X179806426Y-115270024D01*
X179959203Y-115350208D01*
X180126730Y-115391500D01*
X180126732Y-115391500D01*
X180299268Y-115391500D01*
X180299270Y-115391500D01*
X180466797Y-115350208D01*
X180619574Y-115270024D01*
X180638773Y-115253014D01*
X180702006Y-115223294D01*
X180771270Y-115232478D01*
X180803225Y-115253014D01*
X180822426Y-115270024D01*
X180975203Y-115350208D01*
X181142730Y-115391500D01*
X181142732Y-115391500D01*
X181315268Y-115391500D01*
X181315270Y-115391500D01*
X181482797Y-115350208D01*
X181635574Y-115270024D01*
X181654773Y-115253014D01*
X181718006Y-115223294D01*
X181787270Y-115232478D01*
X181819225Y-115253014D01*
X181838426Y-115270024D01*
X181991203Y-115350208D01*
X182158730Y-115391500D01*
X182158732Y-115391500D01*
X182331268Y-115391500D01*
X182331270Y-115391500D01*
X182498797Y-115350208D01*
X182651574Y-115270024D01*
X182670773Y-115253014D01*
X182734006Y-115223294D01*
X182803270Y-115232478D01*
X182835225Y-115253014D01*
X182854426Y-115270024D01*
X183007203Y-115350208D01*
X183174730Y-115391500D01*
X183174732Y-115391500D01*
X183347268Y-115391500D01*
X183347270Y-115391500D01*
X183514797Y-115350208D01*
X183667574Y-115270024D01*
X183796723Y-115155609D01*
X183894737Y-115013611D01*
X183955921Y-114852283D01*
X183976718Y-114681000D01*
X183955921Y-114509717D01*
X183894737Y-114348389D01*
X183894737Y-114348388D01*
X183804241Y-114217283D01*
X183796723Y-114206391D01*
X183667574Y-114091976D01*
X183514797Y-114011792D01*
X183347270Y-113970500D01*
X183174730Y-113970500D01*
X183007203Y-114011792D01*
X183007201Y-114011792D01*
X183007201Y-114011793D01*
X182854424Y-114091976D01*
X182835225Y-114108985D01*
X182771992Y-114138705D01*
X182702728Y-114129520D01*
X182670775Y-114108985D01*
X182651575Y-114091976D01*
X182571391Y-114049892D01*
X182498797Y-114011792D01*
X182331270Y-113970500D01*
X182158730Y-113970500D01*
X181991203Y-114011792D01*
X181991201Y-114011792D01*
X181991201Y-114011793D01*
X181838423Y-114091977D01*
X181819223Y-114108986D01*
X181755989Y-114138705D01*
X181686725Y-114129519D01*
X181654772Y-114108984D01*
X181654742Y-114108957D01*
X181635574Y-114091976D01*
X181482797Y-114011792D01*
X181315270Y-113970500D01*
X181142730Y-113970500D01*
X180975203Y-114011792D01*
X180975201Y-114011792D01*
X180975201Y-114011793D01*
X180822424Y-114091976D01*
X180803225Y-114108985D01*
X180739992Y-114138705D01*
X180670728Y-114129520D01*
X180638775Y-114108985D01*
X180619575Y-114091976D01*
X180539391Y-114049892D01*
X180466797Y-114011792D01*
X180299270Y-113970500D01*
X180126730Y-113970500D01*
X179959203Y-114011792D01*
X179959201Y-114011792D01*
X179959201Y-114011793D01*
X179806424Y-114091976D01*
X179787225Y-114108985D01*
X179723992Y-114138705D01*
X179654728Y-114129520D01*
X179622775Y-114108985D01*
X179603575Y-114091976D01*
X179523391Y-114049892D01*
X179450797Y-114011792D01*
X179283270Y-113970500D01*
X179110730Y-113970500D01*
X178943203Y-114011792D01*
X178943201Y-114011792D01*
X178943201Y-114011793D01*
X178790426Y-114091975D01*
X178707727Y-114165240D01*
X178644493Y-114194961D01*
X178575230Y-114185777D01*
X178543273Y-114165240D01*
X178460573Y-114091975D01*
X178384185Y-114051884D01*
X178307797Y-114011792D01*
X178140270Y-113970500D01*
X177967730Y-113970500D01*
X177800203Y-114011792D01*
X177800201Y-114011792D01*
X177800201Y-114011793D01*
X177647427Y-114091975D01*
X177518276Y-114206392D01*
X177420262Y-114348388D01*
X177359079Y-114509716D01*
X177338281Y-114681000D01*
X174308975Y-114681000D01*
X174396574Y-114635024D01*
X174525723Y-114520609D01*
X174623737Y-114378611D01*
X174684921Y-114217283D01*
X174689241Y-114181692D01*
X174716861Y-114117517D01*
X174724633Y-114108981D01*
X174859431Y-113974183D01*
X174871600Y-113963512D01*
X174894750Y-113945750D01*
X174985153Y-113827933D01*
X175041983Y-113690734D01*
X175056500Y-113580468D01*
X175061367Y-113543500D01*
X175057560Y-113514590D01*
X175056500Y-113498405D01*
X175056500Y-112911986D01*
X175076185Y-112844947D01*
X175128989Y-112799192D01*
X175198147Y-112789248D01*
X175256973Y-112814375D01*
X175460474Y-112973808D01*
X175466626Y-112978054D01*
X175739748Y-113143163D01*
X175746368Y-113146637D01*
X176037410Y-113277625D01*
X176044386Y-113280270D01*
X176349092Y-113375221D01*
X176356348Y-113377009D01*
X176670267Y-113434537D01*
X176677697Y-113435439D01*
X176996264Y-113454709D01*
X177003736Y-113454709D01*
X177322302Y-113435439D01*
X177329732Y-113434537D01*
X177643651Y-113377009D01*
X177650907Y-113375221D01*
X177955613Y-113280270D01*
X177962589Y-113277625D01*
X178253631Y-113146637D01*
X178260251Y-113143163D01*
X178533368Y-112978058D01*
X178539531Y-112973803D01*
X178625848Y-112906178D01*
X177466663Y-111746993D01*
X177597410Y-111679589D01*
X177762540Y-111549729D01*
X177900110Y-111390965D01*
X177999370Y-111219040D01*
X179156178Y-112375848D01*
X179223803Y-112289531D01*
X179228058Y-112283368D01*
X179393163Y-112010251D01*
X179396637Y-112003631D01*
X179527625Y-111712589D01*
X179530270Y-111705613D01*
X179625221Y-111400907D01*
X179627009Y-111393651D01*
X179684537Y-111079732D01*
X179685439Y-111072302D01*
X179704709Y-110753736D01*
X179704709Y-110746263D01*
X179685439Y-110427697D01*
X179684537Y-110420267D01*
X179627009Y-110106348D01*
X179625221Y-110099092D01*
X179530270Y-109794386D01*
X179527625Y-109787410D01*
X179396637Y-109496368D01*
X179393163Y-109489748D01*
X179228054Y-109216626D01*
X179223807Y-109210472D01*
X179197666Y-109177106D01*
X179171816Y-109112194D01*
X179185164Y-109043611D01*
X179233472Y-108993132D01*
X179237627Y-108990847D01*
X179324174Y-108945424D01*
X179453323Y-108831009D01*
X179534046Y-108714060D01*
X179588330Y-108670070D01*
X179636097Y-108660500D01*
X179715068Y-108660500D01*
X179715070Y-108660500D01*
X179882597Y-108619208D01*
X180035374Y-108539024D01*
X180164523Y-108424609D01*
X180262537Y-108282611D01*
X180323721Y-108121283D01*
X180344518Y-107950000D01*
X180344457Y-107949501D01*
X180340118Y-107913761D01*
X180323721Y-107778717D01*
X180273999Y-107647611D01*
X180262537Y-107617388D01*
X180214750Y-107548157D01*
X180192867Y-107481802D01*
X180192800Y-107477717D01*
X180192800Y-107041177D01*
X180212485Y-106974138D01*
X180229114Y-106953500D01*
X180460297Y-106722318D01*
X180521619Y-106688834D01*
X180547977Y-106686000D01*
X181533252Y-106686000D01*
X181482239Y-106730202D01*
X181404507Y-106851156D01*
X181364000Y-106989111D01*
X181364000Y-107132889D01*
X181404507Y-107270844D01*
X181482239Y-107391798D01*
X181533252Y-107436000D01*
X180566858Y-107436000D01*
X180590569Y-107524491D01*
X180690399Y-107738576D01*
X180825893Y-107932081D01*
X180992918Y-108099106D01*
X181178595Y-108229119D01*
X181222219Y-108283696D01*
X181229412Y-108353195D01*
X181197890Y-108415549D01*
X181178595Y-108432269D01*
X181072741Y-108506389D01*
X181026134Y-108539024D01*
X180992595Y-108562508D01*
X180825505Y-108729598D01*
X180689965Y-108923170D01*
X180590097Y-109137336D01*
X180528936Y-109365592D01*
X180508340Y-109600999D01*
X180528936Y-109836407D01*
X180559446Y-109950271D01*
X180590097Y-110064663D01*
X180689965Y-110278830D01*
X180825505Y-110472401D01*
X180992599Y-110639495D01*
X181186170Y-110775035D01*
X181400337Y-110874903D01*
X181628592Y-110936063D01*
X181864000Y-110956659D01*
X182099408Y-110936063D01*
X182327663Y-110874903D01*
X182541830Y-110775035D01*
X182735401Y-110639495D01*
X182902495Y-110472401D01*
X183032426Y-110286839D01*
X183087002Y-110243216D01*
X183156500Y-110236022D01*
X183218855Y-110267545D01*
X183235571Y-110286837D01*
X183365505Y-110472401D01*
X183532599Y-110639495D01*
X183726170Y-110775035D01*
X183940337Y-110874903D01*
X184168592Y-110936063D01*
X184404000Y-110956659D01*
X184639408Y-110936063D01*
X184867663Y-110874903D01*
X185081830Y-110775035D01*
X185275401Y-110639495D01*
X185442495Y-110472401D01*
X185578035Y-110278830D01*
X185677903Y-110064663D01*
X185739063Y-109836408D01*
X185759659Y-109601000D01*
X185739063Y-109365592D01*
X185677903Y-109137337D01*
X185578035Y-108923171D01*
X185442495Y-108729599D01*
X185275401Y-108562505D01*
X185089402Y-108432267D01*
X185045780Y-108377692D01*
X185038587Y-108308193D01*
X185070109Y-108245839D01*
X185089405Y-108229119D01*
X185275078Y-108099109D01*
X185442106Y-107932081D01*
X185577600Y-107738576D01*
X185677430Y-107524491D01*
X185701142Y-107436000D01*
X184734748Y-107436000D01*
X184785761Y-107391798D01*
X184863493Y-107270844D01*
X184904000Y-107132889D01*
X184904000Y-106989111D01*
X184863493Y-106851156D01*
X184785761Y-106730202D01*
X184734748Y-106686000D01*
X185701142Y-106686000D01*
X185701141Y-106685999D01*
X185677430Y-106597507D01*
X185577599Y-106383421D01*
X185442109Y-106189921D01*
X185275081Y-106022893D01*
X185089404Y-105892880D01*
X185045780Y-105838303D01*
X185038587Y-105768804D01*
X185070109Y-105706450D01*
X185089399Y-105689734D01*
X185275401Y-105559495D01*
X185442495Y-105392401D01*
X185578035Y-105198830D01*
X185677903Y-104984663D01*
X185739063Y-104756408D01*
X185759659Y-104521000D01*
X185747943Y-104387094D01*
X185739063Y-104285592D01*
X185736370Y-104275540D01*
X185677903Y-104057337D01*
X185578035Y-103843171D01*
X185442495Y-103649599D01*
X185275401Y-103482505D01*
X185089839Y-103352573D01*
X185046215Y-103297997D01*
X185039023Y-103228498D01*
X185070545Y-103166144D01*
X185089831Y-103149432D01*
X185275401Y-103019495D01*
X185442495Y-102852401D01*
X185578035Y-102658830D01*
X185677903Y-102444663D01*
X185739063Y-102216408D01*
X185759659Y-101981000D01*
X185739063Y-101745592D01*
X185677903Y-101517337D01*
X185578035Y-101303171D01*
X185442495Y-101109599D01*
X185275401Y-100942505D01*
X185089839Y-100812573D01*
X185046216Y-100757998D01*
X185039022Y-100688500D01*
X185070545Y-100626145D01*
X185089837Y-100609428D01*
X185275401Y-100479495D01*
X185442495Y-100312401D01*
X185578035Y-100118830D01*
X185677903Y-99904663D01*
X185739063Y-99676408D01*
X185759659Y-99441000D01*
X185739063Y-99205592D01*
X185677903Y-98977337D01*
X185578035Y-98763171D01*
X185442495Y-98569599D01*
X185275401Y-98402505D01*
X185089839Y-98272573D01*
X185046215Y-98217997D01*
X185039023Y-98148498D01*
X185070545Y-98086144D01*
X185089831Y-98069432D01*
X185275401Y-97939495D01*
X185442495Y-97772401D01*
X185578035Y-97578830D01*
X185677903Y-97364663D01*
X185739063Y-97136408D01*
X185759659Y-96901000D01*
X185739063Y-96665592D01*
X185677903Y-96437337D01*
X185578035Y-96223171D01*
X185442495Y-96029599D01*
X185275401Y-95862505D01*
X185089839Y-95732573D01*
X185046216Y-95677998D01*
X185039022Y-95608500D01*
X185070545Y-95546145D01*
X185089837Y-95529428D01*
X185275401Y-95399495D01*
X185442495Y-95232401D01*
X185578035Y-95038830D01*
X185677903Y-94824663D01*
X185739063Y-94596408D01*
X185759659Y-94361000D01*
X185739063Y-94125592D01*
X185677903Y-93897337D01*
X185578035Y-93683171D01*
X185442495Y-93489599D01*
X185275401Y-93322505D01*
X185089402Y-93192267D01*
X185045780Y-93137692D01*
X185038587Y-93068193D01*
X185070109Y-93005839D01*
X185089405Y-92989119D01*
X185275078Y-92859109D01*
X185442106Y-92692081D01*
X185577600Y-92498576D01*
X185677430Y-92284491D01*
X185701142Y-92196000D01*
X184734748Y-92196000D01*
X184785761Y-92151798D01*
X184863493Y-92030844D01*
X184904000Y-91892889D01*
X184904000Y-91749111D01*
X184863493Y-91611156D01*
X184785761Y-91490202D01*
X184734748Y-91446000D01*
X185701142Y-91446000D01*
X185701141Y-91445999D01*
X185677430Y-91357507D01*
X185577599Y-91143421D01*
X185442109Y-90949921D01*
X185275081Y-90782893D01*
X185089404Y-90652880D01*
X185045780Y-90598303D01*
X185038587Y-90528804D01*
X185070109Y-90466450D01*
X185089399Y-90449734D01*
X185275401Y-90319495D01*
X185442495Y-90152401D01*
X185578035Y-89958830D01*
X185677903Y-89744663D01*
X185739063Y-89516408D01*
X185759659Y-89281000D01*
X185739063Y-89045592D01*
X185677903Y-88817337D01*
X185578035Y-88603171D01*
X185442495Y-88409599D01*
X185275401Y-88242505D01*
X185089839Y-88112573D01*
X185046216Y-88057998D01*
X185039022Y-87988500D01*
X185070545Y-87926145D01*
X185089837Y-87909428D01*
X185275401Y-87779495D01*
X185442495Y-87612401D01*
X185578035Y-87418830D01*
X185677903Y-87204663D01*
X185739063Y-86976408D01*
X185759659Y-86741000D01*
X185739063Y-86505592D01*
X185677903Y-86277337D01*
X185578035Y-86063171D01*
X185442495Y-85869599D01*
X185275401Y-85702505D01*
X185089839Y-85572573D01*
X185046216Y-85517998D01*
X185039022Y-85448500D01*
X185070545Y-85386145D01*
X185089837Y-85369428D01*
X185275401Y-85239495D01*
X185442495Y-85072401D01*
X185578035Y-84878830D01*
X185677903Y-84664663D01*
X185739063Y-84436408D01*
X185759659Y-84201000D01*
X185739063Y-83965592D01*
X185677903Y-83737337D01*
X185578035Y-83523171D01*
X185442495Y-83329599D01*
X185275401Y-83162505D01*
X185089839Y-83032573D01*
X185046216Y-82977998D01*
X185039022Y-82908500D01*
X185070545Y-82846145D01*
X185089837Y-82829428D01*
X185275401Y-82699495D01*
X185442495Y-82532401D01*
X185578035Y-82338830D01*
X185677903Y-82124663D01*
X185739063Y-81896408D01*
X185759659Y-81661000D01*
X185739063Y-81425592D01*
X185677903Y-81197337D01*
X185578035Y-80983171D01*
X185442495Y-80789599D01*
X185275401Y-80622505D01*
X185081830Y-80486965D01*
X184867663Y-80387097D01*
X184806501Y-80370709D01*
X184639407Y-80325936D01*
X184404000Y-80305340D01*
X184168592Y-80325936D01*
X183940336Y-80387097D01*
X183726170Y-80486965D01*
X183532601Y-80622503D01*
X183410673Y-80744431D01*
X183349350Y-80777915D01*
X183279658Y-80772931D01*
X183223725Y-80731059D01*
X183206810Y-80700082D01*
X183198615Y-80678111D01*
X183157796Y-80568669D01*
X183071546Y-80453454D01*
X182956331Y-80367204D01*
X182821483Y-80316909D01*
X182761873Y-80310500D01*
X182758550Y-80310500D01*
X180969439Y-80310500D01*
X180969420Y-80310500D01*
X180966128Y-80310501D01*
X180962853Y-80310853D01*
X180962835Y-80310854D01*
X180914252Y-80316077D01*
X180845493Y-80303670D01*
X180794357Y-80256058D01*
X180777000Y-80192787D01*
X180777000Y-79847282D01*
X180796685Y-79780243D01*
X180798950Y-79776842D01*
X180846737Y-79707611D01*
X180907921Y-79546283D01*
X180928718Y-79375000D01*
X180907921Y-79203717D01*
X180858199Y-79072611D01*
X180846737Y-79042388D01*
X180759075Y-78915389D01*
X180748723Y-78900391D01*
X180619574Y-78785976D01*
X180466797Y-78705792D01*
X180438582Y-78698837D01*
X180378204Y-78663682D01*
X180346416Y-78601463D01*
X180353312Y-78531934D01*
X180366206Y-78508008D01*
X180383737Y-78482611D01*
X180444921Y-78321283D01*
X180465718Y-78150000D01*
X180444921Y-77978717D01*
X180383737Y-77817389D01*
X180383737Y-77817388D01*
X180319275Y-77724000D01*
X180285723Y-77675391D01*
X180156574Y-77560976D01*
X180003797Y-77480792D01*
X179836270Y-77439500D01*
X179663730Y-77439500D01*
X179496203Y-77480792D01*
X179496201Y-77480792D01*
X179496201Y-77480793D01*
X179343427Y-77560975D01*
X179214276Y-77675392D01*
X179116262Y-77817388D01*
X179055079Y-77978716D01*
X179034281Y-78150000D01*
X179055079Y-78321283D01*
X179116262Y-78482611D01*
X179187260Y-78585469D01*
X179214277Y-78624609D01*
X179343426Y-78739024D01*
X179496203Y-78819208D01*
X179524414Y-78826161D01*
X179584794Y-78861315D01*
X179616583Y-78923534D01*
X179609688Y-78993063D01*
X179596790Y-79016996D01*
X179579262Y-79042389D01*
X179518079Y-79203716D01*
X179511577Y-79257263D01*
X179483954Y-79321440D01*
X179426020Y-79360496D01*
X179356167Y-79362031D01*
X179296574Y-79325556D01*
X179282364Y-79306465D01*
X179228058Y-79216631D01*
X179223805Y-79210470D01*
X179156177Y-79124151D01*
X177996422Y-80283905D01*
X177956962Y-80197498D01*
X177835106Y-80026376D01*
X177683068Y-79881408D01*
X177506342Y-79767833D01*
X177467419Y-79752250D01*
X178625847Y-78593821D01*
X178625847Y-78593820D01*
X178539525Y-78526191D01*
X178533373Y-78521945D01*
X178260251Y-78356836D01*
X178253631Y-78353362D01*
X177962589Y-78222374D01*
X177955613Y-78219729D01*
X177650907Y-78124778D01*
X177643651Y-78122990D01*
X177329732Y-78065462D01*
X177322302Y-78064560D01*
X177003736Y-78045291D01*
X176996264Y-78045291D01*
X176677697Y-78064560D01*
X176670267Y-78065462D01*
X176356348Y-78122990D01*
X176349092Y-78124778D01*
X176044386Y-78219729D01*
X176037410Y-78222374D01*
X175746368Y-78353362D01*
X175739748Y-78356836D01*
X175466626Y-78521945D01*
X175460474Y-78526191D01*
X175374151Y-78593820D01*
X175374151Y-78593821D01*
X176533336Y-79753006D01*
X176402590Y-79820411D01*
X176237460Y-79950271D01*
X176099890Y-80109035D01*
X176000629Y-80280959D01*
X174843821Y-79124151D01*
X174843820Y-79124151D01*
X174776191Y-79210474D01*
X174771945Y-79216626D01*
X174606836Y-79489748D01*
X174603362Y-79496368D01*
X174472374Y-79787410D01*
X174469729Y-79794386D01*
X174374778Y-80099092D01*
X174372990Y-80106348D01*
X174315462Y-80420267D01*
X174314560Y-80427697D01*
X174295291Y-80746263D01*
X174295291Y-80753736D01*
X174314560Y-81072302D01*
X174315462Y-81079732D01*
X174372990Y-81393651D01*
X174374778Y-81400907D01*
X174469729Y-81705613D01*
X174472374Y-81712589D01*
X174603362Y-82003631D01*
X174606836Y-82010251D01*
X174771945Y-82283373D01*
X174776191Y-82289525D01*
X174843820Y-82375847D01*
X174843821Y-82375847D01*
X176003576Y-81216092D01*
X176043038Y-81302502D01*
X176164894Y-81473624D01*
X176316932Y-81618592D01*
X176493658Y-81732167D01*
X176532580Y-81747749D01*
X175374151Y-82906177D01*
X175374151Y-82906178D01*
X175460470Y-82973805D01*
X175466631Y-82978058D01*
X175739748Y-83143163D01*
X175746368Y-83146637D01*
X176037410Y-83277625D01*
X176044386Y-83280270D01*
X176349092Y-83375221D01*
X176356348Y-83377009D01*
X176670267Y-83434537D01*
X176677697Y-83435439D01*
X176996264Y-83454709D01*
X177003736Y-83454709D01*
X177322302Y-83435439D01*
X177329732Y-83434537D01*
X177643651Y-83377009D01*
X177650907Y-83375221D01*
X177955613Y-83280270D01*
X177962589Y-83277625D01*
X178253631Y-83146637D01*
X178260251Y-83143163D01*
X178533368Y-82978058D01*
X178539531Y-82973803D01*
X178625848Y-82906178D01*
X177466663Y-81746993D01*
X177597410Y-81679589D01*
X177762540Y-81549729D01*
X177900110Y-81390965D01*
X177999370Y-81219040D01*
X179156178Y-82375848D01*
X179223803Y-82289531D01*
X179228058Y-82283368D01*
X179393163Y-82010251D01*
X179396640Y-82003625D01*
X179411924Y-81969667D01*
X179457388Y-81916612D01*
X179524318Y-81896559D01*
X179591465Y-81915874D01*
X179637509Y-81968426D01*
X179649000Y-82020557D01*
X179649000Y-89836329D01*
X179629315Y-89903368D01*
X179582627Y-89946125D01*
X179552426Y-89961975D01*
X179423276Y-90076392D01*
X179325262Y-90218388D01*
X179264079Y-90379716D01*
X179243281Y-90551000D01*
X179264079Y-90722283D01*
X179325262Y-90883611D01*
X179381712Y-90965392D01*
X179423277Y-91025609D01*
X179552426Y-91140024D01*
X179705203Y-91220208D01*
X179872730Y-91261500D01*
X179872732Y-91261500D01*
X180045268Y-91261500D01*
X180045270Y-91261500D01*
X180212797Y-91220208D01*
X180365574Y-91140024D01*
X180474766Y-91043288D01*
X180537999Y-91013567D01*
X180607262Y-91022751D01*
X180660566Y-91067923D01*
X180680986Y-91134742D01*
X180669375Y-91188509D01*
X180590569Y-91357506D01*
X180566858Y-91445999D01*
X180566858Y-91446000D01*
X181533252Y-91446000D01*
X181482239Y-91490202D01*
X181404507Y-91611156D01*
X181364000Y-91749111D01*
X181364000Y-91892889D01*
X181404507Y-92030844D01*
X181482239Y-92151798D01*
X181533252Y-92196000D01*
X180566858Y-92196000D01*
X180590569Y-92284491D01*
X180690399Y-92498576D01*
X180825893Y-92692081D01*
X180992918Y-92859106D01*
X181178595Y-92989119D01*
X181222219Y-93043696D01*
X181229412Y-93113195D01*
X181197890Y-93175549D01*
X181178595Y-93192269D01*
X181047519Y-93284050D01*
X181026134Y-93299024D01*
X180992595Y-93322508D01*
X180825505Y-93489598D01*
X180689965Y-93683170D01*
X180590097Y-93897336D01*
X180528936Y-94125592D01*
X180508340Y-94361000D01*
X180528936Y-94596407D01*
X180573709Y-94763501D01*
X180590097Y-94824663D01*
X180689965Y-95038830D01*
X180825505Y-95232401D01*
X180992599Y-95399495D01*
X181178160Y-95529426D01*
X181221783Y-95584002D01*
X181228976Y-95653501D01*
X181197454Y-95715855D01*
X181178159Y-95732575D01*
X180992595Y-95862508D01*
X180825505Y-96029598D01*
X180689965Y-96223170D01*
X180590097Y-96437336D01*
X180528936Y-96665592D01*
X180508340Y-96900999D01*
X180528936Y-97136407D01*
X180557151Y-97241706D01*
X180590097Y-97364663D01*
X180689965Y-97578830D01*
X180825505Y-97772401D01*
X180992599Y-97939495D01*
X181178160Y-98069426D01*
X181221783Y-98124002D01*
X181228976Y-98193501D01*
X181197454Y-98255855D01*
X181178160Y-98272574D01*
X180998028Y-98398704D01*
X180992595Y-98402508D01*
X180825505Y-98569598D01*
X180689965Y-98763170D01*
X180590097Y-98977336D01*
X180528936Y-99205592D01*
X180508340Y-99440999D01*
X180528936Y-99676407D01*
X180557151Y-99781706D01*
X180590097Y-99904663D01*
X180689965Y-100118830D01*
X180825505Y-100312401D01*
X180992599Y-100479495D01*
X181178160Y-100609426D01*
X181221783Y-100664002D01*
X181228976Y-100733501D01*
X181197454Y-100795855D01*
X181178159Y-100812575D01*
X180992595Y-100942508D01*
X180825505Y-101109598D01*
X180689965Y-101303170D01*
X180590097Y-101517336D01*
X180528936Y-101745592D01*
X180508340Y-101981000D01*
X180528936Y-102216407D01*
X180574235Y-102385466D01*
X180572572Y-102455316D01*
X180542141Y-102505240D01*
X178670980Y-104376401D01*
X178658788Y-104387094D01*
X178635649Y-104404850D01*
X178600498Y-104450658D01*
X178600488Y-104450673D01*
X178545247Y-104522666D01*
X178488417Y-104659866D01*
X178469032Y-104807099D01*
X178472839Y-104836008D01*
X178473900Y-104852194D01*
X178473900Y-107744458D01*
X178454215Y-107811497D01*
X178432127Y-107837273D01*
X178381877Y-107881789D01*
X178283862Y-108023789D01*
X178219399Y-108193765D01*
X178177221Y-108249468D01*
X178111623Y-108273525D01*
X178052566Y-108262870D01*
X177962589Y-108222375D01*
X177955613Y-108219729D01*
X177650907Y-108124778D01*
X177643651Y-108122990D01*
X177329732Y-108065462D01*
X177322302Y-108064560D01*
X177003736Y-108045291D01*
X176996264Y-108045291D01*
X176677697Y-108064560D01*
X176670267Y-108065462D01*
X176356348Y-108122990D01*
X176349092Y-108124778D01*
X176044386Y-108219729D01*
X176037410Y-108222374D01*
X175746368Y-108353362D01*
X175739748Y-108356836D01*
X175466626Y-108521945D01*
X175460474Y-108526191D01*
X175256973Y-108685624D01*
X175192061Y-108711473D01*
X175123478Y-108698124D01*
X175072999Y-108649816D01*
X175056500Y-108588013D01*
X175056500Y-104974500D01*
X175076185Y-104907461D01*
X175128989Y-104861706D01*
X175180500Y-104850500D01*
X175346268Y-104850500D01*
X175346270Y-104850500D01*
X175513797Y-104809208D01*
X175666574Y-104729024D01*
X175795723Y-104614609D01*
X175893737Y-104472611D01*
X175954921Y-104311283D01*
X175975718Y-104140000D01*
X175954921Y-103968717D01*
X175911587Y-103854455D01*
X175893737Y-103807388D01*
X175844730Y-103736390D01*
X175795723Y-103665391D01*
X175666574Y-103550976D01*
X175513797Y-103470792D01*
X175346270Y-103429500D01*
X175180500Y-103429500D01*
X175113461Y-103409815D01*
X175067706Y-103357011D01*
X175056500Y-103305500D01*
X175056500Y-102434500D01*
X175076185Y-102367461D01*
X175128989Y-102321706D01*
X175180500Y-102310500D01*
X175346268Y-102310500D01*
X175346270Y-102310500D01*
X175513797Y-102269208D01*
X175666574Y-102189024D01*
X175795723Y-102074609D01*
X175893737Y-101932611D01*
X175954921Y-101771283D01*
X175975718Y-101600000D01*
X175954921Y-101428717D01*
X175916940Y-101328572D01*
X175893737Y-101267388D01*
X175803241Y-101136283D01*
X175795723Y-101125391D01*
X175666574Y-101010976D01*
X175513797Y-100930792D01*
X175346270Y-100889500D01*
X175180500Y-100889500D01*
X175113461Y-100869815D01*
X175067706Y-100817011D01*
X175056500Y-100765500D01*
X175056500Y-99894500D01*
X175076185Y-99827461D01*
X175128989Y-99781706D01*
X175180500Y-99770500D01*
X175346268Y-99770500D01*
X175346270Y-99770500D01*
X175513797Y-99729208D01*
X175666574Y-99649024D01*
X175795723Y-99534609D01*
X175893737Y-99392611D01*
X175954921Y-99231283D01*
X175975718Y-99060000D01*
X175954921Y-98888717D01*
X175911587Y-98774455D01*
X175893737Y-98727388D01*
X175825869Y-98629065D01*
X175795723Y-98585391D01*
X175666574Y-98470976D01*
X175513797Y-98390792D01*
X175346270Y-98349500D01*
X175180500Y-98349500D01*
X175113461Y-98329815D01*
X175067706Y-98277011D01*
X175056500Y-98225500D01*
X175056500Y-97354500D01*
X175076185Y-97287461D01*
X175128989Y-97241706D01*
X175180500Y-97230500D01*
X175346268Y-97230500D01*
X175346270Y-97230500D01*
X175513797Y-97189208D01*
X175666574Y-97109024D01*
X175795723Y-96994609D01*
X175893737Y-96852611D01*
X175954921Y-96691283D01*
X175975718Y-96520000D01*
X175954921Y-96348717D01*
X175911587Y-96234455D01*
X175893737Y-96187388D01*
X175844730Y-96116390D01*
X175795723Y-96045391D01*
X175666574Y-95930976D01*
X175513797Y-95850792D01*
X175346270Y-95809500D01*
X175180500Y-95809500D01*
X175113461Y-95789815D01*
X175067706Y-95737011D01*
X175056500Y-95685500D01*
X175056500Y-90015250D01*
X175076185Y-89948211D01*
X175078450Y-89944810D01*
X175101588Y-89911289D01*
X175131737Y-89867611D01*
X175192921Y-89706283D01*
X175213718Y-89535000D01*
X175192921Y-89363717D01*
X175143199Y-89232611D01*
X175131737Y-89202388D01*
X175041241Y-89071283D01*
X175033723Y-89060391D01*
X174904574Y-88945976D01*
X174751797Y-88865792D01*
X174584270Y-88824500D01*
X174411730Y-88824500D01*
X174244203Y-88865792D01*
X174244201Y-88865792D01*
X174244201Y-88865793D01*
X174091427Y-88945975D01*
X173962276Y-89060392D01*
X173864262Y-89202388D01*
X173803079Y-89363716D01*
X173782281Y-89535000D01*
X173803079Y-89706283D01*
X173864262Y-89867610D01*
X173906550Y-89928874D01*
X173928433Y-89995228D01*
X173928500Y-89999314D01*
X173928500Y-90225464D01*
X173908815Y-90292503D01*
X173856011Y-90338258D01*
X173786853Y-90348202D01*
X173746875Y-90335261D01*
X173690600Y-90305726D01*
X173608797Y-90262792D01*
X173441270Y-90221500D01*
X173268730Y-90221500D01*
X173252648Y-90225464D01*
X173101200Y-90262792D01*
X173066599Y-90280952D01*
X172998091Y-90294676D01*
X172933038Y-90269183D01*
X172926768Y-90263988D01*
X172872574Y-90215976D01*
X172872572Y-90215975D01*
X172872571Y-90215974D01*
X172719799Y-90135793D01*
X172719798Y-90135792D01*
X172719797Y-90135792D01*
X172552270Y-90094500D01*
X172379730Y-90094500D01*
X172212203Y-90135792D01*
X172212201Y-90135792D01*
X172212201Y-90135793D01*
X172059427Y-90215975D01*
X171930276Y-90330392D01*
X171832262Y-90472389D01*
X171771079Y-90633715D01*
X171764812Y-90685324D01*
X171740094Y-90745858D01*
X171713848Y-90780064D01*
X171657017Y-90917266D01*
X171637632Y-91064499D01*
X171641439Y-91093408D01*
X171642500Y-91109594D01*
X171642500Y-108127216D01*
X171622815Y-108194255D01*
X171576127Y-108237011D01*
X171567206Y-108241693D01*
X171551427Y-108249975D01*
X171422275Y-108364392D01*
X171324262Y-108506388D01*
X171263079Y-108667716D01*
X171242281Y-108838999D01*
X160612390Y-108838999D01*
X160577546Y-108792454D01*
X160462331Y-108706204D01*
X160327483Y-108655909D01*
X160267873Y-108649500D01*
X160264551Y-108649500D01*
X158488000Y-108649500D01*
X158420961Y-108629815D01*
X158375206Y-108577011D01*
X158364000Y-108525500D01*
X158364000Y-92836999D01*
X161971281Y-92836999D01*
X161992079Y-93008283D01*
X162053262Y-93169611D01*
X162119976Y-93266262D01*
X162151277Y-93311609D01*
X162280426Y-93426024D01*
X162433203Y-93506208D01*
X162600730Y-93547500D01*
X162600732Y-93547500D01*
X162773268Y-93547500D01*
X162773270Y-93547500D01*
X162940797Y-93506208D01*
X163093574Y-93426024D01*
X163222723Y-93311609D01*
X163320737Y-93169611D01*
X163381921Y-93008283D01*
X163402718Y-92837000D01*
X163381921Y-92665717D01*
X163320737Y-92504389D01*
X163248294Y-92399438D01*
X163226412Y-92333085D01*
X163243877Y-92265433D01*
X163248276Y-92258587D01*
X163320737Y-92153611D01*
X163381921Y-91992283D01*
X163402718Y-91821000D01*
X163381921Y-91649717D01*
X163320737Y-91488389D01*
X163320737Y-91488388D01*
X163265376Y-91408185D01*
X163222723Y-91346391D01*
X163093574Y-91231976D01*
X162940797Y-91151792D01*
X162773270Y-91110500D01*
X162600730Y-91110500D01*
X162433203Y-91151792D01*
X162433201Y-91151792D01*
X162433201Y-91151793D01*
X162280427Y-91231975D01*
X162151276Y-91346392D01*
X162053262Y-91488388D01*
X161992079Y-91649716D01*
X161971281Y-91820999D01*
X161992079Y-91992283D01*
X162053262Y-92153610D01*
X162053263Y-92153611D01*
X162125704Y-92258561D01*
X162147587Y-92324913D01*
X162130122Y-92392565D01*
X162125704Y-92399439D01*
X162053263Y-92504388D01*
X161992079Y-92665716D01*
X161971281Y-92836999D01*
X158364000Y-92836999D01*
X158364000Y-88899999D01*
X161082281Y-88899999D01*
X161103079Y-89071283D01*
X161164262Y-89232611D01*
X161197663Y-89281000D01*
X161262277Y-89374609D01*
X161391426Y-89489024D01*
X161544203Y-89569208D01*
X161711730Y-89610500D01*
X161711732Y-89610500D01*
X161855174Y-89610500D01*
X161922213Y-89630185D01*
X161967968Y-89682989D01*
X161978270Y-89719554D01*
X161992079Y-89833283D01*
X162053262Y-89994611D01*
X162109712Y-90076392D01*
X162151277Y-90136609D01*
X162280426Y-90251024D01*
X162433203Y-90331208D01*
X162600730Y-90372500D01*
X162600732Y-90372500D01*
X162773268Y-90372500D01*
X162773270Y-90372500D01*
X162940797Y-90331208D01*
X163093574Y-90251024D01*
X163222723Y-90136609D01*
X163320737Y-89994611D01*
X163381921Y-89833283D01*
X163402718Y-89662000D01*
X163381921Y-89490717D01*
X163320737Y-89329389D01*
X163320735Y-89329387D01*
X163319061Y-89324971D01*
X163313694Y-89255308D01*
X163319061Y-89237029D01*
X163325820Y-89219208D01*
X163381921Y-89071283D01*
X163402718Y-88900000D01*
X163381921Y-88728717D01*
X163338587Y-88614455D01*
X163320737Y-88567388D01*
X163271729Y-88496389D01*
X163222723Y-88425391D01*
X163093574Y-88310976D01*
X162940797Y-88230792D01*
X162773270Y-88189500D01*
X162600730Y-88189500D01*
X162433203Y-88230792D01*
X162433201Y-88230792D01*
X162433201Y-88230793D01*
X162300125Y-88300637D01*
X162231617Y-88314362D01*
X162184875Y-88300637D01*
X162122744Y-88268028D01*
X162051797Y-88230792D01*
X161884270Y-88189500D01*
X161711730Y-88189500D01*
X161544203Y-88230792D01*
X161544201Y-88230792D01*
X161544201Y-88230793D01*
X161391427Y-88310975D01*
X161262276Y-88425392D01*
X161164262Y-88567388D01*
X161103079Y-88728716D01*
X161082281Y-88899999D01*
X158364000Y-88899999D01*
X158364000Y-85979000D01*
X162733281Y-85979000D01*
X162754079Y-86150283D01*
X162815262Y-86311611D01*
X162828503Y-86330793D01*
X162913277Y-86453609D01*
X163042426Y-86568024D01*
X163195203Y-86648208D01*
X163362730Y-86689500D01*
X163362732Y-86689500D01*
X163535268Y-86689500D01*
X163535270Y-86689500D01*
X163702797Y-86648208D01*
X163855574Y-86568024D01*
X163984723Y-86453609D01*
X164082737Y-86311611D01*
X164143921Y-86150283D01*
X164144204Y-86147950D01*
X164171826Y-86083773D01*
X164229760Y-86044716D01*
X164299612Y-86043181D01*
X164359206Y-86079655D01*
X164389621Y-86142558D01*
X164391300Y-86162897D01*
X164391300Y-88842204D01*
X164390239Y-88858389D01*
X164386432Y-88887299D01*
X164403264Y-89015148D01*
X164405817Y-89034534D01*
X164462646Y-89171733D01*
X164462647Y-89171733D01*
X164496407Y-89215731D01*
X164521127Y-89276269D01*
X164527079Y-89325283D01*
X164588262Y-89486611D01*
X164646677Y-89571239D01*
X164686277Y-89628609D01*
X164815426Y-89743024D01*
X164968203Y-89823208D01*
X165076678Y-89849944D01*
X165137056Y-89885099D01*
X165168844Y-89947319D01*
X165171000Y-89970340D01*
X165171000Y-90205717D01*
X165151315Y-90272756D01*
X165149050Y-90276157D01*
X165101262Y-90345388D01*
X165040079Y-90506716D01*
X165019281Y-90677999D01*
X165040079Y-90849283D01*
X165101262Y-91010611D01*
X165163976Y-91101467D01*
X165199277Y-91152609D01*
X165328426Y-91267024D01*
X165481203Y-91347208D01*
X165648730Y-91388500D01*
X165648732Y-91388500D01*
X165712000Y-91388500D01*
X165779039Y-91408185D01*
X165824794Y-91460989D01*
X165836000Y-91512500D01*
X165836000Y-106817317D01*
X165816315Y-106884356D01*
X165814050Y-106887757D01*
X165766262Y-106956988D01*
X165705079Y-107118316D01*
X165684281Y-107289600D01*
X165705079Y-107460883D01*
X165766262Y-107622211D01*
X165783795Y-107647611D01*
X165864277Y-107764209D01*
X165993426Y-107878624D01*
X166146203Y-107958808D01*
X166313730Y-108000100D01*
X166313732Y-108000100D01*
X166486268Y-108000100D01*
X166486270Y-108000100D01*
X166653797Y-107958808D01*
X166806574Y-107878624D01*
X166935723Y-107764209D01*
X167033737Y-107622211D01*
X167094921Y-107460883D01*
X167115718Y-107289600D01*
X167094921Y-107118317D01*
X167046187Y-106989816D01*
X167033737Y-106956988D01*
X166985949Y-106887756D01*
X166964066Y-106821402D01*
X166963999Y-106817316D01*
X166963999Y-105686121D01*
X166963999Y-104765847D01*
X166983684Y-104698811D01*
X167036488Y-104653056D01*
X167105646Y-104643112D01*
X167169202Y-104672137D01*
X167170206Y-104673017D01*
X167233426Y-104729024D01*
X167386203Y-104809208D01*
X167553730Y-104850500D01*
X167553732Y-104850500D01*
X167726268Y-104850500D01*
X167726270Y-104850500D01*
X167893797Y-104809208D01*
X168046574Y-104729024D01*
X168175723Y-104614609D01*
X168273737Y-104472611D01*
X168334921Y-104311283D01*
X168355718Y-104140000D01*
X169464281Y-104140000D01*
X169485079Y-104311283D01*
X169546262Y-104472611D01*
X169579663Y-104521000D01*
X169644277Y-104614609D01*
X169773426Y-104729024D01*
X169926203Y-104809208D01*
X170093730Y-104850500D01*
X170093732Y-104850500D01*
X170266268Y-104850500D01*
X170266270Y-104850500D01*
X170433797Y-104809208D01*
X170586574Y-104729024D01*
X170715723Y-104614609D01*
X170813737Y-104472611D01*
X170874921Y-104311283D01*
X170895718Y-104140000D01*
X170874921Y-103968717D01*
X170831587Y-103854455D01*
X170813737Y-103807388D01*
X170764730Y-103736390D01*
X170715723Y-103665391D01*
X170586574Y-103550976D01*
X170433797Y-103470792D01*
X170266270Y-103429500D01*
X170093730Y-103429500D01*
X169926203Y-103470792D01*
X169926201Y-103470792D01*
X169926201Y-103470793D01*
X169773427Y-103550975D01*
X169644276Y-103665392D01*
X169546262Y-103807388D01*
X169485079Y-103968716D01*
X169464281Y-104140000D01*
X168355718Y-104140000D01*
X168334921Y-103968717D01*
X168291587Y-103854455D01*
X168273737Y-103807388D01*
X168224729Y-103736390D01*
X168175723Y-103665391D01*
X168046574Y-103550976D01*
X167893797Y-103470792D01*
X167726270Y-103429500D01*
X167553730Y-103429500D01*
X167386203Y-103470792D01*
X167386201Y-103470792D01*
X167386201Y-103470793D01*
X167233427Y-103550975D01*
X167170227Y-103606965D01*
X167106993Y-103636686D01*
X167037730Y-103627502D01*
X166984427Y-103582330D01*
X166964007Y-103515510D01*
X166964000Y-103514149D01*
X166964000Y-102225850D01*
X166983685Y-102158811D01*
X167036489Y-102113056D01*
X167105647Y-102103112D01*
X167169203Y-102132137D01*
X167170227Y-102133035D01*
X167233424Y-102189023D01*
X167233426Y-102189024D01*
X167386203Y-102269208D01*
X167553730Y-102310500D01*
X167553732Y-102310500D01*
X167726268Y-102310500D01*
X167726270Y-102310500D01*
X167893797Y-102269208D01*
X168046574Y-102189024D01*
X168175723Y-102074609D01*
X168273737Y-101932611D01*
X168334921Y-101771283D01*
X168355718Y-101600000D01*
X169464281Y-101600000D01*
X169485079Y-101771283D01*
X169546262Y-101932611D01*
X169579663Y-101981000D01*
X169644277Y-102074609D01*
X169773426Y-102189024D01*
X169926203Y-102269208D01*
X170093730Y-102310500D01*
X170093732Y-102310500D01*
X170266268Y-102310500D01*
X170266270Y-102310500D01*
X170433797Y-102269208D01*
X170586574Y-102189024D01*
X170715723Y-102074609D01*
X170813737Y-101932611D01*
X170874921Y-101771283D01*
X170895718Y-101600000D01*
X170874921Y-101428717D01*
X170836940Y-101328572D01*
X170813737Y-101267388D01*
X170723241Y-101136283D01*
X170715723Y-101125391D01*
X170586574Y-101010976D01*
X170433797Y-100930792D01*
X170266270Y-100889500D01*
X170093730Y-100889500D01*
X169926203Y-100930792D01*
X169926201Y-100930792D01*
X169926201Y-100930793D01*
X169773427Y-101010975D01*
X169644276Y-101125392D01*
X169546262Y-101267388D01*
X169485079Y-101428716D01*
X169464281Y-101600000D01*
X168355718Y-101600000D01*
X168334921Y-101428717D01*
X168296940Y-101328572D01*
X168273737Y-101267388D01*
X168183241Y-101136283D01*
X168175723Y-101125391D01*
X168046574Y-101010976D01*
X167893797Y-100930792D01*
X167726270Y-100889500D01*
X167553730Y-100889500D01*
X167386203Y-100930792D01*
X167386201Y-100930792D01*
X167386201Y-100930793D01*
X167233427Y-101010975D01*
X167170227Y-101066965D01*
X167106993Y-101096686D01*
X167037730Y-101087502D01*
X166984427Y-101042330D01*
X166964007Y-100975510D01*
X166964000Y-100974149D01*
X166964000Y-99685850D01*
X166983685Y-99618811D01*
X167036489Y-99573056D01*
X167105647Y-99563112D01*
X167169203Y-99592137D01*
X167170227Y-99593035D01*
X167233424Y-99649023D01*
X167233426Y-99649024D01*
X167386203Y-99729208D01*
X167553730Y-99770500D01*
X167553732Y-99770500D01*
X167726268Y-99770500D01*
X167726270Y-99770500D01*
X167893797Y-99729208D01*
X168046574Y-99649024D01*
X168175723Y-99534609D01*
X168273737Y-99392611D01*
X168334921Y-99231283D01*
X168355718Y-99060000D01*
X168355718Y-99059999D01*
X169464281Y-99059999D01*
X169485079Y-99231283D01*
X169546262Y-99392611D01*
X169579663Y-99441000D01*
X169644277Y-99534609D01*
X169773426Y-99649024D01*
X169926203Y-99729208D01*
X170093730Y-99770500D01*
X170093732Y-99770500D01*
X170266268Y-99770500D01*
X170266270Y-99770500D01*
X170433797Y-99729208D01*
X170586574Y-99649024D01*
X170715723Y-99534609D01*
X170813737Y-99392611D01*
X170874921Y-99231283D01*
X170895718Y-99060000D01*
X170874921Y-98888717D01*
X170831587Y-98774455D01*
X170813737Y-98727388D01*
X170745869Y-98629065D01*
X170715723Y-98585391D01*
X170586574Y-98470976D01*
X170433797Y-98390792D01*
X170266270Y-98349500D01*
X170093730Y-98349500D01*
X169926203Y-98390792D01*
X169926201Y-98390792D01*
X169926201Y-98390793D01*
X169773427Y-98470975D01*
X169644276Y-98585392D01*
X169546262Y-98727388D01*
X169485079Y-98888716D01*
X169464281Y-99059999D01*
X168355718Y-99059999D01*
X168334921Y-98888717D01*
X168291587Y-98774455D01*
X168273737Y-98727388D01*
X168205869Y-98629065D01*
X168175723Y-98585391D01*
X168046574Y-98470976D01*
X167893797Y-98390792D01*
X167726270Y-98349500D01*
X167553730Y-98349500D01*
X167386203Y-98390792D01*
X167386201Y-98390792D01*
X167386201Y-98390793D01*
X167233427Y-98470975D01*
X167170227Y-98526965D01*
X167106993Y-98556686D01*
X167037730Y-98547502D01*
X166984427Y-98502330D01*
X166964007Y-98435510D01*
X166964000Y-98434149D01*
X166964000Y-97145850D01*
X166983685Y-97078811D01*
X167036489Y-97033056D01*
X167105647Y-97023112D01*
X167169203Y-97052137D01*
X167170227Y-97053035D01*
X167233424Y-97109023D01*
X167233426Y-97109024D01*
X167386203Y-97189208D01*
X167553730Y-97230500D01*
X167553732Y-97230500D01*
X167726268Y-97230500D01*
X167726270Y-97230500D01*
X167893797Y-97189208D01*
X168046574Y-97109024D01*
X168175723Y-96994609D01*
X168273737Y-96852611D01*
X168334921Y-96691283D01*
X168355718Y-96520000D01*
X169464281Y-96520000D01*
X169485079Y-96691283D01*
X169546262Y-96852611D01*
X169579663Y-96901000D01*
X169644277Y-96994609D01*
X169773426Y-97109024D01*
X169926203Y-97189208D01*
X170093730Y-97230500D01*
X170093732Y-97230500D01*
X170266268Y-97230500D01*
X170266270Y-97230500D01*
X170433797Y-97189208D01*
X170586574Y-97109024D01*
X170715723Y-96994609D01*
X170813737Y-96852611D01*
X170874921Y-96691283D01*
X170895718Y-96520000D01*
X170874921Y-96348717D01*
X170831587Y-96234455D01*
X170813737Y-96187388D01*
X170764730Y-96116390D01*
X170715723Y-96045391D01*
X170586574Y-95930976D01*
X170433797Y-95850792D01*
X170266270Y-95809500D01*
X170093730Y-95809500D01*
X169926203Y-95850792D01*
X169926201Y-95850792D01*
X169926201Y-95850793D01*
X169773427Y-95930975D01*
X169644276Y-96045392D01*
X169546262Y-96187388D01*
X169485079Y-96348716D01*
X169464281Y-96520000D01*
X168355718Y-96520000D01*
X168334921Y-96348717D01*
X168291587Y-96234455D01*
X168273737Y-96187388D01*
X168224730Y-96116390D01*
X168175723Y-96045391D01*
X168046574Y-95930976D01*
X167893797Y-95850792D01*
X167726270Y-95809500D01*
X167553730Y-95809500D01*
X167386203Y-95850792D01*
X167386201Y-95850792D01*
X167386201Y-95850793D01*
X167233427Y-95930975D01*
X167170227Y-95986965D01*
X167106993Y-96016686D01*
X167037730Y-96007502D01*
X166984427Y-95962330D01*
X166964007Y-95895510D01*
X166964000Y-95894149D01*
X166964000Y-95713136D01*
X166983685Y-95646097D01*
X167036489Y-95600342D01*
X167058316Y-95592742D01*
X167153797Y-95569208D01*
X167306574Y-95489024D01*
X167435723Y-95374609D01*
X167533737Y-95232611D01*
X167572090Y-95131480D01*
X167614267Y-95075779D01*
X167658352Y-95055057D01*
X167803797Y-95019208D01*
X167956574Y-94939024D01*
X168085723Y-94824609D01*
X168183737Y-94682611D01*
X168185409Y-94678201D01*
X168227585Y-94622498D01*
X168271673Y-94601773D01*
X168403797Y-94569208D01*
X168556574Y-94489024D01*
X168685723Y-94374609D01*
X168783737Y-94232611D01*
X168844921Y-94071283D01*
X168865718Y-93900000D01*
X168844921Y-93728717D01*
X168783737Y-93567389D01*
X168783737Y-93567388D01*
X168721859Y-93477743D01*
X168699976Y-93411388D01*
X168717441Y-93343737D01*
X168768709Y-93296267D01*
X168837503Y-93284050D01*
X168881535Y-93297506D01*
X168884424Y-93299022D01*
X168884426Y-93299024D01*
X169037203Y-93379208D01*
X169204730Y-93420500D01*
X169204732Y-93420500D01*
X169377268Y-93420500D01*
X169377270Y-93420500D01*
X169544797Y-93379208D01*
X169697574Y-93299024D01*
X169826723Y-93184609D01*
X169924737Y-93042611D01*
X169985921Y-92881283D01*
X170006718Y-92710000D01*
X169985921Y-92538717D01*
X169924737Y-92377389D01*
X169924737Y-92377388D01*
X169847459Y-92265433D01*
X169826723Y-92235391D01*
X169697574Y-92120976D01*
X169544797Y-92040792D01*
X169377270Y-91999500D01*
X169204730Y-91999500D01*
X169037203Y-92040792D01*
X169037201Y-92040792D01*
X169037201Y-92040793D01*
X168884427Y-92120975D01*
X168755276Y-92235392D01*
X168657262Y-92377389D01*
X168603942Y-92517984D01*
X168561764Y-92573687D01*
X168496166Y-92597744D01*
X168427976Y-92582517D01*
X168378843Y-92532841D01*
X168364000Y-92474013D01*
X168364000Y-87593957D01*
X168383685Y-87526918D01*
X168405775Y-87501140D01*
X168435723Y-87474609D01*
X168533737Y-87332611D01*
X168547095Y-87297388D01*
X168594921Y-87171283D01*
X168615718Y-87000000D01*
X168594921Y-86828717D01*
X168556940Y-86728572D01*
X168533737Y-86667388D01*
X168465150Y-86568024D01*
X168435723Y-86525391D01*
X168306574Y-86410976D01*
X168153797Y-86330792D01*
X167986270Y-86289500D01*
X167813730Y-86289500D01*
X167646203Y-86330792D01*
X167646201Y-86330792D01*
X167646201Y-86330793D01*
X167493427Y-86410975D01*
X167364276Y-86525392D01*
X167266263Y-86667387D01*
X167219969Y-86789455D01*
X167177791Y-86845157D01*
X167133704Y-86865879D01*
X167073205Y-86880791D01*
X166920427Y-86960975D01*
X166791276Y-87075392D01*
X166693263Y-87217388D01*
X166642225Y-87351962D01*
X166600046Y-87407664D01*
X166555963Y-87428386D01*
X166546205Y-87430791D01*
X166546203Y-87430791D01*
X166546203Y-87430792D01*
X166480624Y-87465210D01*
X166412117Y-87478935D01*
X166347064Y-87453442D01*
X166306120Y-87396826D01*
X166299000Y-87355413D01*
X166299000Y-85985501D01*
X166300061Y-85969315D01*
X166300257Y-85967824D01*
X166303868Y-85940400D01*
X166284483Y-85793166D01*
X166227654Y-85655967D01*
X166194413Y-85612646D01*
X166169693Y-85552106D01*
X166163721Y-85502917D01*
X166120888Y-85389976D01*
X166102537Y-85341588D01*
X166042234Y-85254225D01*
X166004523Y-85199591D01*
X165875374Y-85085176D01*
X165722597Y-85004992D01*
X165613622Y-84978131D01*
X165553244Y-84942976D01*
X165521456Y-84880757D01*
X165519300Y-84857736D01*
X165519300Y-84588671D01*
X165538985Y-84521632D01*
X165591789Y-84475877D01*
X165613622Y-84468274D01*
X165734797Y-84438408D01*
X165841109Y-84382611D01*
X165887571Y-84358226D01*
X165887572Y-84358224D01*
X165887574Y-84358224D01*
X166016723Y-84243809D01*
X166114737Y-84101811D01*
X166175921Y-83940483D01*
X166196718Y-83769200D01*
X166175921Y-83597917D01*
X166123986Y-83460976D01*
X166114737Y-83436588D01*
X166050770Y-83343917D01*
X166016723Y-83294591D01*
X165887574Y-83180176D01*
X165734797Y-83099992D01*
X165567270Y-83058700D01*
X165394730Y-83058700D01*
X165227203Y-83099992D01*
X165227201Y-83099992D01*
X165227201Y-83099993D01*
X165074427Y-83180175D01*
X164945276Y-83294592D01*
X164847262Y-83436588D01*
X164786079Y-83597916D01*
X164781757Y-83633508D01*
X164754134Y-83697685D01*
X164746342Y-83706241D01*
X164588381Y-83864201D01*
X164576189Y-83874893D01*
X164553049Y-83892649D01*
X164517898Y-83938458D01*
X164517888Y-83938473D01*
X164462647Y-84010466D01*
X164405817Y-84147666D01*
X164386432Y-84294899D01*
X164390239Y-84323808D01*
X164391300Y-84339994D01*
X164391300Y-85795102D01*
X164371615Y-85862141D01*
X164318811Y-85907896D01*
X164249653Y-85917840D01*
X164186097Y-85888815D01*
X164148323Y-85830037D01*
X164144204Y-85810049D01*
X164143921Y-85807717D01*
X164099577Y-85690792D01*
X164082737Y-85646388D01*
X164017658Y-85552106D01*
X163984723Y-85504391D01*
X163855574Y-85389976D01*
X163702797Y-85309792D01*
X163535270Y-85268500D01*
X163362730Y-85268500D01*
X163195203Y-85309792D01*
X163195201Y-85309792D01*
X163195201Y-85309793D01*
X163042427Y-85389975D01*
X162913276Y-85504392D01*
X162815262Y-85646388D01*
X162754079Y-85807716D01*
X162733281Y-85979000D01*
X158364000Y-85979000D01*
X158364000Y-82224499D01*
X158383685Y-82157460D01*
X158436489Y-82111705D01*
X158488000Y-82100499D01*
X158694561Y-82100499D01*
X158697872Y-82100499D01*
X158757483Y-82094091D01*
X158892331Y-82043796D01*
X158942366Y-82006339D01*
X159007826Y-81981923D01*
X159076099Y-81996774D01*
X159110387Y-82024404D01*
X159187057Y-82112887D01*
X159187060Y-82112890D01*
X159295830Y-82207139D01*
X159416784Y-82284871D01*
X159547700Y-82344658D01*
X159685655Y-82385165D01*
X159828111Y-82405647D01*
X159828112Y-82405647D01*
X160274727Y-82405647D01*
X160341766Y-82425332D01*
X160387521Y-82478136D01*
X160397465Y-82547294D01*
X160368440Y-82610850D01*
X160362408Y-82617328D01*
X159865788Y-83113948D01*
X159804465Y-83147433D01*
X159795754Y-83149005D01*
X159685653Y-83164835D01*
X159547700Y-83205341D01*
X159416786Y-83265128D01*
X159297715Y-83341649D01*
X159297703Y-83341656D01*
X159295830Y-83342861D01*
X159295826Y-83342864D01*
X159294206Y-83344266D01*
X159294187Y-83344283D01*
X159187057Y-83437112D01*
X159092902Y-83545774D01*
X159015095Y-83666846D01*
X158951627Y-83805820D01*
X158950345Y-83814738D01*
X158914819Y-83935723D01*
X158894358Y-84078038D01*
X158894358Y-84134397D01*
X158894353Y-84134414D01*
X158894353Y-84665556D01*
X158894358Y-84665603D01*
X158894358Y-84721961D01*
X158913558Y-84855499D01*
X158913981Y-84861422D01*
X158921445Y-84886841D01*
X158955368Y-85002370D01*
X159015096Y-85133155D01*
X159083435Y-85239493D01*
X159092905Y-85254229D01*
X159168602Y-85341589D01*
X159187057Y-85362887D01*
X159187060Y-85362890D01*
X159295830Y-85457139D01*
X159416784Y-85534871D01*
X159547700Y-85594658D01*
X159685655Y-85635165D01*
X159828111Y-85655647D01*
X159828112Y-85655647D01*
X160397785Y-85655647D01*
X160400000Y-85655647D01*
X160471961Y-85650500D01*
X160509269Y-85639544D01*
X160561849Y-85635784D01*
X160700000Y-85655647D01*
X160700001Y-85655647D01*
X161271888Y-85655647D01*
X161271889Y-85655647D01*
X161414345Y-85635165D01*
X161552300Y-85594658D01*
X161683216Y-85534871D01*
X161804170Y-85457139D01*
X161804174Y-85457136D01*
X161912943Y-85362887D01*
X162007097Y-85254226D01*
X162084904Y-85133155D01*
X162144632Y-85002370D01*
X162144632Y-85002369D01*
X162144632Y-85002367D01*
X162148372Y-84994179D01*
X162149655Y-84985261D01*
X162162072Y-84942976D01*
X162185180Y-84864277D01*
X162205642Y-84721962D01*
X162205642Y-84665603D01*
X162205647Y-84665585D01*
X162205647Y-84243331D01*
X162225332Y-84176292D01*
X162241966Y-84155650D01*
X162282097Y-84115519D01*
X162343420Y-84082034D01*
X162369778Y-84079200D01*
X163094153Y-84079200D01*
X163156020Y-84097366D01*
X163156094Y-84097227D01*
X163156790Y-84097592D01*
X163161192Y-84098885D01*
X163165572Y-84102201D01*
X163169425Y-84104223D01*
X163169426Y-84104224D01*
X163322203Y-84184408D01*
X163489730Y-84225700D01*
X163489732Y-84225700D01*
X163662268Y-84225700D01*
X163662270Y-84225700D01*
X163829797Y-84184408D01*
X163982574Y-84104224D01*
X164111723Y-83989809D01*
X164209737Y-83847811D01*
X164270921Y-83686483D01*
X164291718Y-83515200D01*
X164270921Y-83343917D01*
X164209737Y-83182589D01*
X164209737Y-83182588D01*
X164136618Y-83076658D01*
X164111723Y-83040591D01*
X163982574Y-82926176D01*
X163829797Y-82845992D01*
X163662270Y-82804700D01*
X163489730Y-82804700D01*
X163322203Y-82845992D01*
X163322201Y-82845992D01*
X163322201Y-82845993D01*
X163156094Y-82933173D01*
X163154568Y-82930267D01*
X163113153Y-82949736D01*
X163094153Y-82951200D01*
X162129894Y-82951200D01*
X162113710Y-82950139D01*
X162084800Y-82946333D01*
X162084799Y-82946333D01*
X162066316Y-82948766D01*
X162047832Y-82951200D01*
X162020526Y-82954795D01*
X161921642Y-82967813D01*
X161852607Y-82957047D01*
X161800351Y-82910667D01*
X161781466Y-82843398D01*
X161801947Y-82776598D01*
X161817771Y-82757198D01*
X162749124Y-81825845D01*
X162761314Y-81815156D01*
X162784450Y-81797404D01*
X162800989Y-81775850D01*
X162819007Y-81752370D01*
X162854883Y-81705613D01*
X162874853Y-81679587D01*
X162931683Y-81542388D01*
X162951067Y-81395154D01*
X162947261Y-81366243D01*
X162946200Y-81350058D01*
X162946200Y-80518000D01*
X172512281Y-80518000D01*
X172533079Y-80689283D01*
X172594262Y-80850611D01*
X172665260Y-80953469D01*
X172692277Y-80992609D01*
X172821426Y-81107024D01*
X172974203Y-81187208D01*
X173141730Y-81228500D01*
X173141732Y-81228500D01*
X173314268Y-81228500D01*
X173314270Y-81228500D01*
X173481797Y-81187208D01*
X173634574Y-81107024D01*
X173763723Y-80992609D01*
X173861737Y-80850611D01*
X173922921Y-80689283D01*
X173943718Y-80518000D01*
X173922921Y-80346717D01*
X173861737Y-80185389D01*
X173833125Y-80143938D01*
X173811243Y-80077585D01*
X173828708Y-80009933D01*
X173833107Y-80003086D01*
X173861737Y-79961611D01*
X173922921Y-79800283D01*
X173943718Y-79629000D01*
X173922921Y-79457717D01*
X173861737Y-79296389D01*
X173833126Y-79254939D01*
X173811243Y-79188585D01*
X173828708Y-79120933D01*
X173833104Y-79114092D01*
X173861737Y-79072611D01*
X173922921Y-78911283D01*
X173943718Y-78740000D01*
X173943599Y-78739024D01*
X173939608Y-78706150D01*
X173922921Y-78568717D01*
X173861737Y-78407389D01*
X173861735Y-78407387D01*
X173860061Y-78402971D01*
X173854694Y-78333308D01*
X173860061Y-78315029D01*
X173867663Y-78294985D01*
X173922921Y-78149283D01*
X173943718Y-77978000D01*
X173922921Y-77806717D01*
X173873116Y-77675392D01*
X173861737Y-77645388D01*
X173797770Y-77552717D01*
X173763723Y-77503391D01*
X173634574Y-77388976D01*
X173481797Y-77308792D01*
X173314270Y-77267500D01*
X173141730Y-77267500D01*
X172974203Y-77308792D01*
X172974201Y-77308792D01*
X172974201Y-77308793D01*
X172821427Y-77388975D01*
X172692276Y-77503392D01*
X172594262Y-77645388D01*
X172533079Y-77806716D01*
X172512281Y-77977999D01*
X172533079Y-78149283D01*
X172595938Y-78315029D01*
X172601305Y-78384692D01*
X172595938Y-78402971D01*
X172533079Y-78568716D01*
X172512281Y-78739999D01*
X172533079Y-78911283D01*
X172594262Y-79072610D01*
X172622873Y-79114061D01*
X172644755Y-79180416D01*
X172627289Y-79248068D01*
X172622873Y-79254939D01*
X172594262Y-79296389D01*
X172533079Y-79457716D01*
X172512281Y-79628999D01*
X172533079Y-79800283D01*
X172594262Y-79961610D01*
X172622873Y-80003061D01*
X172644755Y-80069416D01*
X172627289Y-80137068D01*
X172622873Y-80143939D01*
X172594262Y-80185389D01*
X172533079Y-80346716D01*
X172512281Y-80518000D01*
X162946200Y-80518000D01*
X162946200Y-80461494D01*
X162947261Y-80445308D01*
X162951067Y-80416399D01*
X162948811Y-80399270D01*
X162931683Y-80269166D01*
X162874853Y-80131967D01*
X162874019Y-80129953D01*
X162866550Y-80060483D01*
X162897825Y-79998004D01*
X162957914Y-79962352D01*
X162988580Y-79958500D01*
X163027268Y-79958500D01*
X163027270Y-79958500D01*
X163194797Y-79917208D01*
X163347574Y-79837024D01*
X163476723Y-79722609D01*
X163574737Y-79580611D01*
X163635921Y-79419283D01*
X163656718Y-79248000D01*
X163635921Y-79076717D01*
X163574737Y-78915389D01*
X163546126Y-78873939D01*
X163524243Y-78807587D01*
X163541708Y-78739935D01*
X163546127Y-78733059D01*
X163574737Y-78691611D01*
X163635921Y-78530283D01*
X163656718Y-78359000D01*
X163635921Y-78187717D01*
X163574737Y-78026389D01*
X163574736Y-78026388D01*
X163573061Y-78021970D01*
X163567694Y-77952307D01*
X163573061Y-77934027D01*
X163574734Y-77929614D01*
X163574737Y-77929611D01*
X163635921Y-77768283D01*
X163656718Y-77597000D01*
X163635921Y-77425717D01*
X163574737Y-77264389D01*
X163574735Y-77264387D01*
X163573061Y-77259971D01*
X163567694Y-77190308D01*
X163573061Y-77172029D01*
X163574737Y-77167611D01*
X163635921Y-77006283D01*
X163656718Y-76835000D01*
X163635921Y-76663717D01*
X163597940Y-76563572D01*
X163574737Y-76502388D01*
X163502199Y-76397300D01*
X163476723Y-76360391D01*
X163347574Y-76245976D01*
X163194797Y-76165792D01*
X163027270Y-76124500D01*
X162854730Y-76124500D01*
X162687203Y-76165792D01*
X162687201Y-76165792D01*
X162687201Y-76165793D01*
X162534427Y-76245975D01*
X162405276Y-76360392D01*
X162307262Y-76502388D01*
X162246079Y-76663716D01*
X162238276Y-76727977D01*
X162210653Y-76792154D01*
X162152719Y-76831210D01*
X162082866Y-76832745D01*
X162023273Y-76796270D01*
X162021467Y-76794231D01*
X161928204Y-76686599D01*
X161928202Y-76686597D01*
X161926743Y-76684913D01*
X161926740Y-76684910D01*
X161817970Y-76590661D01*
X161697016Y-76512929D01*
X161643973Y-76488705D01*
X161566099Y-76453141D01*
X161428146Y-76412635D01*
X161321480Y-76397299D01*
X161285689Y-76392153D01*
X160713800Y-76392153D01*
X160711592Y-76392310D01*
X160711589Y-76392311D01*
X160641840Y-76397299D01*
X160604529Y-76408255D01*
X160551950Y-76412015D01*
X160413801Y-76392153D01*
X160413800Y-76392153D01*
X159841911Y-76392153D01*
X159806120Y-76397299D01*
X159699453Y-76412635D01*
X159561500Y-76453141D01*
X159430586Y-76512928D01*
X159311515Y-76589449D01*
X159311503Y-76589456D01*
X159309630Y-76590661D01*
X159309626Y-76590664D01*
X159308006Y-76592066D01*
X159307987Y-76592083D01*
X159200860Y-76684910D01*
X159200857Y-76684913D01*
X159107933Y-76792154D01*
X159106703Y-76793574D01*
X159028895Y-76914646D01*
X159025808Y-76921407D01*
X159013749Y-76947812D01*
X158967996Y-77000615D01*
X158900957Y-77020300D01*
X158528165Y-77020300D01*
X158507599Y-77018029D01*
X158494505Y-77018440D01*
X158460950Y-77014899D01*
X158455273Y-77013500D01*
X158455270Y-77013500D01*
X158282730Y-77013500D01*
X158115203Y-77054792D01*
X158115201Y-77054792D01*
X158115201Y-77054793D01*
X157962427Y-77134975D01*
X157833276Y-77249392D01*
X157735262Y-77391388D01*
X157674079Y-77552716D01*
X157653281Y-77723999D01*
X157674079Y-77895283D01*
X157735262Y-78056611D01*
X157769426Y-78106105D01*
X157833277Y-78198609D01*
X157962426Y-78313024D01*
X158115203Y-78393208D01*
X158282730Y-78434500D01*
X158282732Y-78434500D01*
X158455268Y-78434500D01*
X158455270Y-78434500D01*
X158622797Y-78393208D01*
X158775574Y-78313024D01*
X158782956Y-78306483D01*
X158846190Y-78276763D01*
X158865183Y-78275300D01*
X158900956Y-78275300D01*
X158967995Y-78294985D01*
X159013749Y-78347788D01*
X159028896Y-78380955D01*
X159043045Y-78402971D01*
X159106705Y-78502030D01*
X159192864Y-78601463D01*
X159200857Y-78610687D01*
X159200860Y-78610690D01*
X159309630Y-78704939D01*
X159430584Y-78782671D01*
X159485143Y-78807587D01*
X159546714Y-78835706D01*
X159599518Y-78881461D01*
X159619202Y-78948500D01*
X159599517Y-79015540D01*
X159546713Y-79061295D01*
X159495202Y-79072500D01*
X156418601Y-79072500D01*
X156402415Y-79071439D01*
X156373500Y-79067632D01*
X156226266Y-79087017D01*
X156089066Y-79143847D01*
X155971249Y-79234249D01*
X155953494Y-79257388D01*
X155942801Y-79269580D01*
X155784240Y-79428141D01*
X155722917Y-79461626D01*
X155664466Y-79460235D01*
X155495407Y-79414936D01*
X155259999Y-79394340D01*
X155024592Y-79414936D01*
X154796336Y-79476097D01*
X154582170Y-79575965D01*
X154388598Y-79711505D01*
X154221508Y-79878595D01*
X154091269Y-80064596D01*
X154036692Y-80108220D01*
X153967193Y-80115413D01*
X153904839Y-80083891D01*
X153888119Y-80064595D01*
X153758109Y-79878921D01*
X153591081Y-79711893D01*
X153397576Y-79576399D01*
X153183493Y-79476570D01*
X153095000Y-79452857D01*
X153095000Y-80413343D01*
X152993100Y-80325048D01*
X152862315Y-80265320D01*
X152755763Y-80250000D01*
X152684237Y-80250000D01*
X152577685Y-80265320D01*
X152446900Y-80325048D01*
X152345000Y-80413343D01*
X152345000Y-79452857D01*
X152256506Y-79476570D01*
X152042421Y-79576400D01*
X151848921Y-79711890D01*
X151681893Y-79878918D01*
X151551880Y-80064596D01*
X151497303Y-80108220D01*
X151427804Y-80115413D01*
X151365450Y-80083891D01*
X151348730Y-80064595D01*
X151313408Y-80014150D01*
X151218495Y-79878599D01*
X151051401Y-79711505D01*
X150857830Y-79575965D01*
X150643663Y-79476097D01*
X150575063Y-79457716D01*
X150415407Y-79414936D01*
X150180000Y-79394340D01*
X149944592Y-79414936D01*
X149716336Y-79476097D01*
X149502170Y-79575965D01*
X149308598Y-79711505D01*
X149141505Y-79878598D01*
X149005965Y-80072170D01*
X148906097Y-80286336D01*
X148844936Y-80514592D01*
X148824340Y-80749999D01*
X148844936Y-80985407D01*
X148878699Y-81111411D01*
X148906097Y-81213663D01*
X149005965Y-81427830D01*
X149141505Y-81621401D01*
X149308599Y-81788495D01*
X149502170Y-81924035D01*
X149716337Y-82023903D01*
X149944592Y-82085063D01*
X150180000Y-82105659D01*
X150415408Y-82085063D01*
X150643663Y-82023903D01*
X150857830Y-81924035D01*
X151051401Y-81788495D01*
X151218495Y-81621401D01*
X151348732Y-81435403D01*
X151403307Y-81391780D01*
X151472805Y-81384586D01*
X151535160Y-81416109D01*
X151551880Y-81435404D01*
X151681893Y-81621081D01*
X151848918Y-81788106D01*
X152042423Y-81923600D01*
X152256508Y-82023430D01*
X152345000Y-82047141D01*
X152345000Y-81086656D01*
X152446900Y-81174952D01*
X152577685Y-81234680D01*
X152684237Y-81250000D01*
X152755763Y-81250000D01*
X152862315Y-81234680D01*
X152993100Y-81174952D01*
X153095000Y-81086656D01*
X153095000Y-82047141D01*
X153183491Y-82023430D01*
X153397576Y-81923600D01*
X153591081Y-81788106D01*
X153758109Y-81621078D01*
X153888119Y-81435405D01*
X153942696Y-81391780D01*
X154012194Y-81384586D01*
X154074549Y-81416109D01*
X154091265Y-81435400D01*
X154221505Y-81621401D01*
X154388599Y-81788495D01*
X154582170Y-81924035D01*
X154796337Y-82023903D01*
X155024592Y-82085063D01*
X155039306Y-82086350D01*
X155104373Y-82111800D01*
X155145353Y-82168389D01*
X155152500Y-82209878D01*
X155152500Y-89335500D01*
X155132815Y-89402539D01*
X155080011Y-89448294D01*
X155028500Y-89459500D01*
X155026270Y-89459500D01*
X154853730Y-89459500D01*
X154686203Y-89500792D01*
X154686201Y-89500792D01*
X154686201Y-89500793D01*
X154533427Y-89580975D01*
X154404276Y-89695392D01*
X154306262Y-89837388D01*
X154245079Y-89998716D01*
X154224281Y-90169999D01*
X154245079Y-90341283D01*
X154306262Y-90502611D01*
X154402412Y-90641907D01*
X154404277Y-90644609D01*
X154480555Y-90712185D01*
X154517681Y-90771372D01*
X154516915Y-90841237D01*
X154480555Y-90897814D01*
X154404277Y-90965389D01*
X154306262Y-91107388D01*
X154245079Y-91268716D01*
X154224281Y-91440000D01*
X154245079Y-91611283D01*
X154306262Y-91772611D01*
X154404275Y-91914607D01*
X154404276Y-91914608D01*
X154404277Y-91914609D01*
X154480556Y-91982185D01*
X154517682Y-92041374D01*
X154516914Y-92111239D01*
X154480556Y-92167814D01*
X154448741Y-92196000D01*
X154404275Y-92235392D01*
X154306262Y-92377388D01*
X154245079Y-92538716D01*
X154224281Y-92710000D01*
X154245079Y-92881283D01*
X154306262Y-93042611D01*
X154368140Y-93132256D01*
X154404277Y-93184609D01*
X154533426Y-93299024D01*
X154686203Y-93379208D01*
X154853730Y-93420500D01*
X154853732Y-93420500D01*
X155028500Y-93420500D01*
X155095539Y-93440185D01*
X155141294Y-93492989D01*
X155152500Y-93544500D01*
X155152500Y-100544148D01*
X155132815Y-100611187D01*
X155080011Y-100656942D01*
X155010853Y-100666886D01*
X154947297Y-100637861D01*
X154926450Y-100614588D01*
X154913281Y-100595510D01*
X154840723Y-100490391D01*
X154711574Y-100375976D01*
X154558797Y-100295792D01*
X154391270Y-100254500D01*
X154218730Y-100254500D01*
X154051203Y-100295792D01*
X154051201Y-100295792D01*
X154051201Y-100295793D01*
X153898427Y-100375975D01*
X153898425Y-100375976D01*
X153898426Y-100375976D01*
X153769277Y-100490391D01*
X153769275Y-100490392D01*
X153758007Y-100500376D01*
X153756654Y-100498849D01*
X153717762Y-100530365D01*
X153648313Y-100538022D01*
X153585750Y-100506916D01*
X153573773Y-100493093D01*
X153558419Y-100479491D01*
X153441574Y-100375976D01*
X153288797Y-100295792D01*
X153121270Y-100254500D01*
X152948730Y-100254500D01*
X152781203Y-100295792D01*
X152781201Y-100295792D01*
X152781201Y-100295793D01*
X152628427Y-100375975D01*
X152628425Y-100375976D01*
X152628426Y-100375976D01*
X152499277Y-100490391D01*
X152499275Y-100490392D01*
X152488007Y-100500376D01*
X152486654Y-100498849D01*
X152447762Y-100530365D01*
X152378313Y-100538022D01*
X152315750Y-100506916D01*
X152303773Y-100493094D01*
X152300724Y-100490393D01*
X152300723Y-100490391D01*
X152224443Y-100422814D01*
X152187318Y-100363626D01*
X152188086Y-100293761D01*
X152224443Y-100237185D01*
X152300723Y-100169609D01*
X152398737Y-100027611D01*
X152459921Y-99866283D01*
X152480718Y-99695000D01*
X152459921Y-99523717D01*
X152398737Y-99362389D01*
X152398737Y-99362388D01*
X152300722Y-99220389D01*
X152224445Y-99152814D01*
X152187318Y-99093625D01*
X152188086Y-99023759D01*
X152224444Y-98967185D01*
X152300723Y-98899609D01*
X152398737Y-98757611D01*
X152459921Y-98596283D01*
X152480718Y-98425000D01*
X152459921Y-98253717D01*
X152398737Y-98092389D01*
X152398737Y-98092388D01*
X152349730Y-98021390D01*
X152300723Y-97950391D01*
X152171574Y-97835976D01*
X152018797Y-97755792D01*
X151909822Y-97728931D01*
X151849444Y-97693776D01*
X151817656Y-97631557D01*
X151815500Y-97608536D01*
X151815500Y-88288050D01*
X151835185Y-88221011D01*
X151837450Y-88217610D01*
X151856853Y-88189500D01*
X151890737Y-88140411D01*
X151951921Y-87979083D01*
X151972718Y-87807800D01*
X151951921Y-87636517D01*
X151890737Y-87475189D01*
X151890737Y-87475188D01*
X151822287Y-87376022D01*
X151792723Y-87333191D01*
X151663574Y-87218776D01*
X151510797Y-87138592D01*
X151343270Y-87097300D01*
X151170730Y-87097300D01*
X151003203Y-87138592D01*
X151003201Y-87138592D01*
X151003201Y-87138593D01*
X150850427Y-87218775D01*
X150850425Y-87218776D01*
X150850426Y-87218776D01*
X150761690Y-87297389D01*
X150721276Y-87333192D01*
X150623262Y-87475188D01*
X150562079Y-87636516D01*
X150541281Y-87807800D01*
X150562079Y-87979083D01*
X150623262Y-88140410D01*
X150665550Y-88201674D01*
X150687433Y-88268028D01*
X150687500Y-88272114D01*
X150687500Y-109123784D01*
X150667815Y-109190823D01*
X150665075Y-109194907D01*
X150581574Y-109314159D01*
X150526997Y-109357784D01*
X150457499Y-109364978D01*
X150395144Y-109333455D01*
X150378429Y-109314164D01*
X150248495Y-109128599D01*
X150081401Y-108961505D01*
X149887830Y-108825965D01*
X149673663Y-108726097D01*
X149603406Y-108707272D01*
X149445407Y-108664936D01*
X149210000Y-108644340D01*
X148974592Y-108664936D01*
X148746336Y-108726097D01*
X148532170Y-108825965D01*
X148338598Y-108961505D01*
X148171505Y-109128598D01*
X148035965Y-109322170D01*
X147936097Y-109536336D01*
X147874936Y-109764592D01*
X147854340Y-110000000D01*
X147383112Y-110000000D01*
X147400718Y-109855000D01*
X147379921Y-109683717D01*
X147324027Y-109536337D01*
X147318737Y-109522388D01*
X147220722Y-109380389D01*
X147144445Y-109312814D01*
X147107318Y-109253625D01*
X147108086Y-109183759D01*
X147144444Y-109127185D01*
X147220723Y-109059609D01*
X147318737Y-108917611D01*
X147379921Y-108756283D01*
X147400718Y-108585000D01*
X147379921Y-108413717D01*
X147318737Y-108252389D01*
X147318737Y-108252388D01*
X147220724Y-108110392D01*
X147207988Y-108099109D01*
X147144443Y-108042814D01*
X147107318Y-107983626D01*
X147108086Y-107913761D01*
X147144443Y-107857185D01*
X147220723Y-107789609D01*
X147220724Y-107789607D01*
X147231993Y-107779624D01*
X147233344Y-107781149D01*
X147272231Y-107749636D01*
X147341680Y-107741976D01*
X147404245Y-107773078D01*
X147416228Y-107786907D01*
X147419275Y-107789606D01*
X147419277Y-107789609D01*
X147548426Y-107904024D01*
X147701203Y-107984208D01*
X147868730Y-108025500D01*
X147868732Y-108025500D01*
X148041268Y-108025500D01*
X148041270Y-108025500D01*
X148208797Y-107984208D01*
X148361574Y-107904024D01*
X148490723Y-107789609D01*
X148588737Y-107647611D01*
X148649921Y-107486283D01*
X148670718Y-107315000D01*
X148649921Y-107143717D01*
X148591554Y-106989816D01*
X148588737Y-106982388D01*
X148523417Y-106887757D01*
X148490723Y-106840391D01*
X148361574Y-106725976D01*
X148208797Y-106645792D01*
X148041270Y-106604500D01*
X147868730Y-106604500D01*
X147701203Y-106645792D01*
X147701201Y-106645792D01*
X147701201Y-106645793D01*
X147548427Y-106725975D01*
X147548425Y-106725976D01*
X147548426Y-106725976D01*
X147419277Y-106840391D01*
X147419275Y-106840392D01*
X147408007Y-106850376D01*
X147406654Y-106848849D01*
X147367762Y-106880365D01*
X147298313Y-106888022D01*
X147235750Y-106856916D01*
X147223773Y-106843093D01*
X147199289Y-106821402D01*
X147091574Y-106725976D01*
X146938797Y-106645792D01*
X146771270Y-106604500D01*
X146598730Y-106604500D01*
X146431203Y-106645792D01*
X146431201Y-106645792D01*
X146431201Y-106645793D01*
X146278427Y-106725975D01*
X146278425Y-106725976D01*
X146278426Y-106725976D01*
X146149277Y-106840391D01*
X146149275Y-106840392D01*
X146138007Y-106850376D01*
X146136654Y-106848849D01*
X146097762Y-106880365D01*
X146028313Y-106888022D01*
X145965750Y-106856916D01*
X145953773Y-106843093D01*
X145929289Y-106821402D01*
X145821574Y-106725976D01*
X145668797Y-106645792D01*
X145501270Y-106604500D01*
X145328730Y-106604500D01*
X145161203Y-106645792D01*
X145161201Y-106645792D01*
X145161201Y-106645793D01*
X145008427Y-106725975D01*
X144879276Y-106840392D01*
X144781262Y-106982388D01*
X144720079Y-107143716D01*
X144699281Y-107315000D01*
X144720079Y-107486283D01*
X144781262Y-107647611D01*
X144879277Y-107789610D01*
X144955554Y-107857185D01*
X144992681Y-107916374D01*
X144991913Y-107986240D01*
X144955554Y-108042815D01*
X144879277Y-108110389D01*
X144781262Y-108252388D01*
X144720079Y-108413716D01*
X144699281Y-108584999D01*
X144720079Y-108756283D01*
X144781262Y-108917611D01*
X144879275Y-109059607D01*
X144879276Y-109059608D01*
X144879277Y-109059609D01*
X144955556Y-109127185D01*
X144992682Y-109186374D01*
X144991914Y-109256239D01*
X144955556Y-109312814D01*
X144916662Y-109347270D01*
X144879275Y-109380392D01*
X144781262Y-109522388D01*
X144720079Y-109683716D01*
X144699281Y-109854999D01*
X141500500Y-109854999D01*
X141500499Y-108402128D01*
X141494091Y-108342517D01*
X141443796Y-108207669D01*
X141357546Y-108092454D01*
X141242331Y-108006204D01*
X141107483Y-107955909D01*
X141107482Y-107955908D01*
X141051166Y-107949854D01*
X141051165Y-107949853D01*
X141047873Y-107949500D01*
X141044550Y-107949500D01*
X139355439Y-107949500D01*
X139355420Y-107949500D01*
X139352128Y-107949501D01*
X139348848Y-107949853D01*
X139348840Y-107949854D01*
X139292515Y-107955909D01*
X139157669Y-108006204D01*
X139042454Y-108092454D01*
X138956204Y-108207668D01*
X138905910Y-108342515D01*
X138905909Y-108342517D01*
X138899500Y-108402127D01*
X138899500Y-108405448D01*
X138899500Y-108405449D01*
X138899500Y-110094560D01*
X138899500Y-110094578D01*
X134623814Y-110094578D01*
X134530270Y-109794386D01*
X134527625Y-109787410D01*
X134396637Y-109496368D01*
X134393163Y-109489748D01*
X134228058Y-109216631D01*
X134223805Y-109210470D01*
X134156177Y-109124151D01*
X132996422Y-110283905D01*
X132956962Y-110197498D01*
X132835106Y-110026376D01*
X132683068Y-109881408D01*
X132506342Y-109767833D01*
X132467419Y-109752250D01*
X133625847Y-108593821D01*
X133625847Y-108593820D01*
X133539525Y-108526191D01*
X133533373Y-108521945D01*
X133260251Y-108356836D01*
X133253631Y-108353362D01*
X132962589Y-108222374D01*
X132955613Y-108219729D01*
X132650907Y-108124778D01*
X132643651Y-108122990D01*
X132329732Y-108065462D01*
X132322302Y-108064560D01*
X132003736Y-108045291D01*
X131996264Y-108045291D01*
X131677697Y-108064560D01*
X131670267Y-108065462D01*
X131356348Y-108122990D01*
X131349092Y-108124778D01*
X131044386Y-108219729D01*
X131037410Y-108222374D01*
X130746368Y-108353362D01*
X130739748Y-108356836D01*
X130466626Y-108521945D01*
X130460474Y-108526191D01*
X130374151Y-108593820D01*
X130374151Y-108593821D01*
X131533336Y-109753006D01*
X131402590Y-109820411D01*
X131237460Y-109950271D01*
X131099890Y-110109035D01*
X131000629Y-110280959D01*
X129843821Y-109124151D01*
X129843820Y-109124151D01*
X129776191Y-109210474D01*
X129771945Y-109216626D01*
X129606836Y-109489748D01*
X129603362Y-109496368D01*
X129472374Y-109787410D01*
X129469729Y-109794386D01*
X129374778Y-110099092D01*
X129372990Y-110106348D01*
X129315462Y-110420267D01*
X129314560Y-110427697D01*
X129295290Y-110746263D01*
X129295290Y-110753736D01*
X127075500Y-110753736D01*
X127075500Y-106261122D01*
X132261500Y-106261122D01*
X132261586Y-106262747D01*
X132261587Y-106262772D01*
X132264067Y-106309459D01*
X132264067Y-106309466D01*
X132264295Y-106313741D01*
X132265107Y-106317940D01*
X132265108Y-106317947D01*
X132284779Y-106419656D01*
X132308755Y-106543626D01*
X132391426Y-106762690D01*
X132509930Y-106964632D01*
X132660858Y-107143642D01*
X132839868Y-107294570D01*
X133041810Y-107413074D01*
X133260874Y-107495745D01*
X133490759Y-107540205D01*
X133543378Y-107543000D01*
X133545022Y-107543000D01*
X135478978Y-107543000D01*
X135480622Y-107543000D01*
X135533241Y-107540205D01*
X135763126Y-107495745D01*
X135982190Y-107413074D01*
X136184132Y-107294570D01*
X136363142Y-107143642D01*
X136514070Y-106964632D01*
X136632574Y-106762690D01*
X136715245Y-106543626D01*
X136759705Y-106313741D01*
X136762500Y-106261122D01*
X136762500Y-104323878D01*
X136759705Y-104271259D01*
X136715245Y-104041374D01*
X136632574Y-103822310D01*
X136514070Y-103620368D01*
X136363142Y-103441358D01*
X136184132Y-103290430D01*
X135982190Y-103171926D01*
X135763126Y-103089255D01*
X135763121Y-103089254D01*
X135760475Y-103088742D01*
X135756974Y-103086934D01*
X135753251Y-103085529D01*
X135753414Y-103085095D01*
X135698395Y-103056682D01*
X135663503Y-102996148D01*
X135666876Y-102926360D01*
X135707445Y-102869475D01*
X135772328Y-102843552D01*
X135784007Y-102842999D01*
X139309872Y-102842999D01*
X139369483Y-102836591D01*
X139504331Y-102786296D01*
X139619546Y-102700046D01*
X139705796Y-102584831D01*
X139756091Y-102449983D01*
X139762500Y-102390373D01*
X139762499Y-98794628D01*
X139756091Y-98735017D01*
X139705796Y-98600169D01*
X139619546Y-98484954D01*
X139504331Y-98398704D01*
X139369483Y-98348409D01*
X139369483Y-98348408D01*
X139313166Y-98342354D01*
X139313165Y-98342353D01*
X139309873Y-98342000D01*
X139306550Y-98342000D01*
X135717439Y-98342000D01*
X135717420Y-98342000D01*
X135714128Y-98342001D01*
X135710848Y-98342353D01*
X135710840Y-98342354D01*
X135654515Y-98348409D01*
X135519669Y-98398704D01*
X135404454Y-98484954D01*
X135318204Y-98600168D01*
X135267909Y-98735016D01*
X135262195Y-98788167D01*
X135261500Y-98794627D01*
X135261500Y-98797948D01*
X135261500Y-98797949D01*
X135261500Y-102387060D01*
X135261500Y-102387078D01*
X135261501Y-102390372D01*
X135261853Y-102393652D01*
X135261854Y-102393659D01*
X135267909Y-102449984D01*
X135293056Y-102517407D01*
X135318204Y-102584831D01*
X135404454Y-102700046D01*
X135519669Y-102786296D01*
X135566940Y-102803927D01*
X135622873Y-102845796D01*
X135647291Y-102911261D01*
X135632440Y-102979534D01*
X135583035Y-103028940D01*
X135517033Y-103043934D01*
X135482242Y-103042086D01*
X135482240Y-103042085D01*
X135480622Y-103042000D01*
X133543378Y-103042000D01*
X133541753Y-103042086D01*
X133541727Y-103042087D01*
X133495040Y-103044567D01*
X133495031Y-103044568D01*
X133490759Y-103044795D01*
X133486561Y-103045606D01*
X133486552Y-103045608D01*
X133260877Y-103089254D01*
X133041807Y-103171927D01*
X132839868Y-103290430D01*
X132660858Y-103441358D01*
X132509930Y-103620368D01*
X132391427Y-103822307D01*
X132308754Y-104041377D01*
X132265108Y-104267052D01*
X132265106Y-104267061D01*
X132264295Y-104271259D01*
X132264068Y-104275531D01*
X132264067Y-104275540D01*
X132261587Y-104322227D01*
X132261586Y-104322253D01*
X132261500Y-104323878D01*
X132261500Y-106261122D01*
X127075500Y-106261122D01*
X127075500Y-100217500D01*
X129512000Y-100217500D01*
X131012000Y-100217500D01*
X131012000Y-100967500D01*
X129512001Y-100967500D01*
X129512001Y-101654244D01*
X129512192Y-101659125D01*
X129522400Y-101788831D01*
X129577377Y-102007018D01*
X129670430Y-102211879D01*
X129798565Y-102396832D01*
X129957667Y-102555934D01*
X130142620Y-102684069D01*
X130347481Y-102777122D01*
X130565668Y-102832099D01*
X130695374Y-102842308D01*
X130700254Y-102842499D01*
X131136999Y-102842499D01*
X131137000Y-102842498D01*
X131137000Y-101923248D01*
X131181202Y-101974261D01*
X131302156Y-102051993D01*
X131440111Y-102092500D01*
X131583889Y-102092500D01*
X131721844Y-102051993D01*
X131842798Y-101974261D01*
X131886999Y-101923248D01*
X131887000Y-102842499D01*
X132323744Y-102842499D01*
X132328625Y-102842307D01*
X132458331Y-102832099D01*
X132676518Y-102777122D01*
X132881379Y-102684069D01*
X133066332Y-102555934D01*
X133225434Y-102396832D01*
X133353569Y-102211879D01*
X133446622Y-102007018D01*
X133501599Y-101788831D01*
X133511808Y-101659125D01*
X133512000Y-101654245D01*
X133512000Y-100967500D01*
X132012000Y-100967500D01*
X132012000Y-100217500D01*
X133511999Y-100217500D01*
X133511999Y-99530755D01*
X133511807Y-99525874D01*
X133501599Y-99396168D01*
X133446622Y-99177981D01*
X133353569Y-98973120D01*
X133225434Y-98788167D01*
X133066332Y-98629065D01*
X132881379Y-98500930D01*
X132676518Y-98407877D01*
X132458331Y-98352900D01*
X132328625Y-98342691D01*
X132323746Y-98342500D01*
X131887000Y-98342500D01*
X131887000Y-99261751D01*
X131842798Y-99210739D01*
X131721844Y-99133007D01*
X131583889Y-99092500D01*
X131440111Y-99092500D01*
X131302156Y-99133007D01*
X131181202Y-99210739D01*
X131136999Y-99261752D01*
X131136999Y-98342500D01*
X130700255Y-98342500D01*
X130695374Y-98342692D01*
X130565668Y-98352900D01*
X130347481Y-98407877D01*
X130142620Y-98500930D01*
X129957667Y-98629065D01*
X129798565Y-98788167D01*
X129670430Y-98973120D01*
X129577377Y-99177981D01*
X129522400Y-99396168D01*
X129512191Y-99525874D01*
X129512000Y-99530754D01*
X129512000Y-100217500D01*
X127075500Y-100217500D01*
X127075500Y-91440000D01*
X140254281Y-91440000D01*
X140275079Y-91611283D01*
X140336262Y-91772611D01*
X140369663Y-91821000D01*
X140434277Y-91914609D01*
X140563426Y-92029024D01*
X140716203Y-92109208D01*
X140883730Y-92150500D01*
X140883732Y-92150500D01*
X141056268Y-92150500D01*
X141056270Y-92150500D01*
X141223797Y-92109208D01*
X141376574Y-92029024D01*
X141505723Y-91914609D01*
X141505724Y-91914606D01*
X141516993Y-91904624D01*
X141518344Y-91906149D01*
X141557231Y-91874636D01*
X141626680Y-91866976D01*
X141689245Y-91898078D01*
X141701228Y-91911907D01*
X141704275Y-91914606D01*
X141704277Y-91914609D01*
X141833426Y-92029024D01*
X141986203Y-92109208D01*
X142153730Y-92150500D01*
X142153732Y-92150500D01*
X142326268Y-92150500D01*
X142326270Y-92150500D01*
X142493797Y-92109208D01*
X142646574Y-92029024D01*
X142775723Y-91914609D01*
X142873737Y-91772611D01*
X142934921Y-91611283D01*
X142955718Y-91440000D01*
X142934921Y-91268717D01*
X142874917Y-91110500D01*
X142873737Y-91107388D01*
X142775724Y-90965392D01*
X142751805Y-90944202D01*
X142699443Y-90897814D01*
X142662318Y-90838626D01*
X142663086Y-90768761D01*
X142699443Y-90712185D01*
X142775723Y-90644609D01*
X142873737Y-90502611D01*
X142934921Y-90341283D01*
X142955718Y-90170000D01*
X142934921Y-89998717D01*
X142885199Y-89867611D01*
X142873737Y-89837388D01*
X142775724Y-89695392D01*
X142738032Y-89662000D01*
X142699443Y-89627814D01*
X142662318Y-89568626D01*
X142663086Y-89498761D01*
X142699443Y-89442185D01*
X142775723Y-89374609D01*
X142873737Y-89232611D01*
X142934921Y-89071283D01*
X142955718Y-88900000D01*
X142934921Y-88728717D01*
X142891587Y-88614455D01*
X142873737Y-88567388D01*
X142861735Y-88550000D01*
X148434281Y-88550000D01*
X148455079Y-88721283D01*
X148516262Y-88882611D01*
X148587260Y-88985469D01*
X148614277Y-89024609D01*
X148743426Y-89139024D01*
X148896203Y-89219208D01*
X149063730Y-89260500D01*
X149063732Y-89260500D01*
X149236268Y-89260500D01*
X149236270Y-89260500D01*
X149403797Y-89219208D01*
X149556574Y-89139024D01*
X149685723Y-89024609D01*
X149783737Y-88882611D01*
X149844921Y-88721283D01*
X149865718Y-88550000D01*
X149844921Y-88378717D01*
X149795881Y-88249410D01*
X149783737Y-88217388D01*
X149751330Y-88170439D01*
X149729447Y-88104084D01*
X149746912Y-88036433D01*
X149751324Y-88029567D01*
X149783737Y-87982611D01*
X149844921Y-87821283D01*
X149865718Y-87650000D01*
X149844921Y-87478717D01*
X149783737Y-87317389D01*
X149762271Y-87286290D01*
X149716818Y-87220439D01*
X149694935Y-87154084D01*
X149712401Y-87086432D01*
X149716808Y-87079574D01*
X149783737Y-86982611D01*
X149844921Y-86821283D01*
X149865718Y-86650000D01*
X149865500Y-86648208D01*
X149863192Y-86629201D01*
X149844921Y-86478717D01*
X149799897Y-86360000D01*
X149783737Y-86317388D01*
X149751330Y-86270439D01*
X149729447Y-86204084D01*
X149746912Y-86136433D01*
X149751324Y-86129567D01*
X149783737Y-86082611D01*
X149844921Y-85921283D01*
X149865718Y-85750000D01*
X149844921Y-85578717D01*
X149783737Y-85417389D01*
X149783737Y-85417388D01*
X149709468Y-85309792D01*
X149685723Y-85275391D01*
X149556574Y-85160976D01*
X149403797Y-85080792D01*
X149236270Y-85039500D01*
X149063730Y-85039500D01*
X148896203Y-85080792D01*
X148896201Y-85080792D01*
X148896201Y-85080793D01*
X148743427Y-85160975D01*
X148743425Y-85160976D01*
X148743426Y-85160976D01*
X148622056Y-85268500D01*
X148614276Y-85275392D01*
X148516262Y-85417388D01*
X148455079Y-85578716D01*
X148434281Y-85750000D01*
X148455079Y-85921283D01*
X148516262Y-86082610D01*
X148548669Y-86129559D01*
X148570552Y-86195913D01*
X148553087Y-86263565D01*
X148548670Y-86270438D01*
X148516262Y-86317389D01*
X148455079Y-86478716D01*
X148434281Y-86649999D01*
X148455079Y-86821283D01*
X148516262Y-86982611D01*
X148583182Y-87079560D01*
X148605065Y-87145914D01*
X148587600Y-87213566D01*
X148583182Y-87220440D01*
X148516262Y-87317388D01*
X148455079Y-87478716D01*
X148434281Y-87650000D01*
X148455079Y-87821283D01*
X148516262Y-87982610D01*
X148548669Y-88029559D01*
X148570552Y-88095913D01*
X148553087Y-88163565D01*
X148548670Y-88170438D01*
X148516262Y-88217389D01*
X148455079Y-88378716D01*
X148434281Y-88550000D01*
X142861735Y-88550000D01*
X142775724Y-88425392D01*
X142723037Y-88378716D01*
X142699443Y-88357814D01*
X142662318Y-88298626D01*
X142663086Y-88228761D01*
X142699443Y-88172185D01*
X142775723Y-88104609D01*
X142873737Y-87962611D01*
X142934921Y-87801283D01*
X142955718Y-87630000D01*
X142934921Y-87458717D01*
X142894434Y-87351962D01*
X142873737Y-87297388D01*
X142775724Y-87155392D01*
X142769638Y-87150000D01*
X142699443Y-87087814D01*
X142662318Y-87028626D01*
X142663086Y-86958761D01*
X142699443Y-86902185D01*
X142775723Y-86834609D01*
X142873737Y-86692611D01*
X142934921Y-86531283D01*
X142955718Y-86360000D01*
X142934921Y-86188717D01*
X142891587Y-86074455D01*
X142873737Y-86027388D01*
X142813693Y-85940400D01*
X142775723Y-85885391D01*
X142646574Y-85770976D01*
X142493797Y-85690792D01*
X142326270Y-85649500D01*
X142153730Y-85649500D01*
X141986203Y-85690792D01*
X141986201Y-85690792D01*
X141986201Y-85690793D01*
X141833427Y-85770975D01*
X141833425Y-85770976D01*
X141833426Y-85770976D01*
X141704277Y-85885391D01*
X141704275Y-85885392D01*
X141693007Y-85895376D01*
X141691654Y-85893849D01*
X141652762Y-85925365D01*
X141583313Y-85933022D01*
X141520750Y-85901916D01*
X141508773Y-85888093D01*
X141479479Y-85862141D01*
X141376574Y-85770976D01*
X141223797Y-85690792D01*
X141056270Y-85649500D01*
X140883730Y-85649500D01*
X140716203Y-85690792D01*
X140716201Y-85690792D01*
X140716201Y-85690793D01*
X140563427Y-85770975D01*
X140434276Y-85885392D01*
X140336262Y-86027388D01*
X140275079Y-86188716D01*
X140254281Y-86360000D01*
X140275079Y-86531283D01*
X140336262Y-86692611D01*
X140434275Y-86834607D01*
X140434276Y-86834608D01*
X140434277Y-86834609D01*
X140510556Y-86902185D01*
X140547682Y-86961374D01*
X140546914Y-87031239D01*
X140510556Y-87087814D01*
X140499849Y-87097300D01*
X140434275Y-87155392D01*
X140336262Y-87297388D01*
X140275079Y-87458716D01*
X140254281Y-87629999D01*
X140275079Y-87801283D01*
X140336262Y-87962611D01*
X140434275Y-88104607D01*
X140434276Y-88104608D01*
X140434277Y-88104609D01*
X140510556Y-88172185D01*
X140547682Y-88231374D01*
X140546914Y-88301239D01*
X140510556Y-88357814D01*
X140486963Y-88378716D01*
X140434275Y-88425392D01*
X140336262Y-88567388D01*
X140275079Y-88728716D01*
X140254281Y-88899999D01*
X140275079Y-89071283D01*
X140336262Y-89232611D01*
X140434275Y-89374607D01*
X140434276Y-89374608D01*
X140434277Y-89374609D01*
X140510556Y-89442185D01*
X140547682Y-89501374D01*
X140546914Y-89571239D01*
X140510556Y-89627814D01*
X140471968Y-89662000D01*
X140434275Y-89695392D01*
X140336262Y-89837388D01*
X140275079Y-89998716D01*
X140254281Y-90169999D01*
X140275079Y-90341283D01*
X140336262Y-90502611D01*
X140434275Y-90644607D01*
X140434276Y-90644608D01*
X140434277Y-90644609D01*
X140510556Y-90712185D01*
X140547682Y-90771374D01*
X140546914Y-90841239D01*
X140510556Y-90897814D01*
X140471662Y-90932270D01*
X140434275Y-90965392D01*
X140336262Y-91107388D01*
X140275079Y-91268716D01*
X140254281Y-91440000D01*
X127075500Y-91440000D01*
X127075499Y-84050000D01*
X146134281Y-84050000D01*
X146155079Y-84221283D01*
X146216262Y-84382611D01*
X146275392Y-84468274D01*
X146314277Y-84524609D01*
X146443426Y-84639024D01*
X146596203Y-84719208D01*
X146763730Y-84760500D01*
X146763732Y-84760500D01*
X146936268Y-84760500D01*
X146936270Y-84760500D01*
X147103797Y-84719208D01*
X147256574Y-84639024D01*
X147385723Y-84524609D01*
X147483737Y-84382611D01*
X147544921Y-84221283D01*
X147565718Y-84050000D01*
X147544921Y-83878717D01*
X147503386Y-83769199D01*
X147483737Y-83717388D01*
X147425838Y-83633508D01*
X147385723Y-83575391D01*
X147256574Y-83460976D01*
X147103797Y-83380792D01*
X146936270Y-83339500D01*
X146763730Y-83339500D01*
X146596203Y-83380792D01*
X146596201Y-83380792D01*
X146596201Y-83380793D01*
X146443427Y-83460975D01*
X146314276Y-83575392D01*
X146216262Y-83717388D01*
X146155079Y-83878716D01*
X146134281Y-84050000D01*
X127075499Y-84050000D01*
X127075499Y-80753736D01*
X129295290Y-80753736D01*
X129314560Y-81072302D01*
X129315462Y-81079732D01*
X129372990Y-81393651D01*
X129374778Y-81400907D01*
X129469729Y-81705613D01*
X129472374Y-81712589D01*
X129603362Y-82003631D01*
X129606836Y-82010251D01*
X129771945Y-82283373D01*
X129776191Y-82289525D01*
X129843820Y-82375847D01*
X129843821Y-82375847D01*
X131003576Y-81216092D01*
X131043038Y-81302502D01*
X131164894Y-81473624D01*
X131316932Y-81618592D01*
X131493658Y-81732167D01*
X131532580Y-81747749D01*
X130374151Y-82906177D01*
X130374151Y-82906178D01*
X130460470Y-82973805D01*
X130466631Y-82978058D01*
X130739748Y-83143163D01*
X130746368Y-83146637D01*
X131037410Y-83277625D01*
X131044386Y-83280270D01*
X131349092Y-83375221D01*
X131356348Y-83377009D01*
X131670267Y-83434537D01*
X131677697Y-83435439D01*
X131996264Y-83454709D01*
X132003736Y-83454709D01*
X132322302Y-83435439D01*
X132329732Y-83434537D01*
X132643651Y-83377009D01*
X132650907Y-83375221D01*
X132955613Y-83280270D01*
X132962589Y-83277625D01*
X133253631Y-83146637D01*
X133260251Y-83143163D01*
X133533368Y-82978058D01*
X133539531Y-82973803D01*
X133625848Y-82906178D01*
X132466663Y-81746993D01*
X132597410Y-81679589D01*
X132762540Y-81549729D01*
X132900110Y-81390965D01*
X132999369Y-81219041D01*
X134156177Y-82375847D01*
X134156178Y-82375847D01*
X134223804Y-82289531D01*
X134228058Y-82283368D01*
X134393163Y-82010251D01*
X134396637Y-82003631D01*
X134527625Y-81712589D01*
X134530270Y-81705613D01*
X134625221Y-81400907D01*
X134627009Y-81393651D01*
X134684537Y-81079732D01*
X134685439Y-81072302D01*
X134704709Y-80753736D01*
X134704709Y-80746263D01*
X134685439Y-80427697D01*
X134684537Y-80420267D01*
X134627009Y-80106348D01*
X134625221Y-80099092D01*
X134530270Y-79794386D01*
X134527625Y-79787410D01*
X134396637Y-79496368D01*
X134393163Y-79489748D01*
X134228058Y-79216631D01*
X134223805Y-79210470D01*
X134156177Y-79124151D01*
X132996422Y-80283905D01*
X132956962Y-80197498D01*
X132835106Y-80026376D01*
X132683068Y-79881408D01*
X132506342Y-79767833D01*
X132467419Y-79752250D01*
X133625847Y-78593821D01*
X133625847Y-78593820D01*
X133539525Y-78526191D01*
X133533373Y-78521945D01*
X133260251Y-78356836D01*
X133253631Y-78353362D01*
X132962589Y-78222374D01*
X132955613Y-78219729D01*
X132650907Y-78124778D01*
X132643651Y-78122990D01*
X132329732Y-78065462D01*
X132322302Y-78064560D01*
X132003736Y-78045291D01*
X131996264Y-78045291D01*
X131677697Y-78064560D01*
X131670267Y-78065462D01*
X131356348Y-78122990D01*
X131349092Y-78124778D01*
X131044386Y-78219729D01*
X131037410Y-78222374D01*
X130746368Y-78353362D01*
X130739748Y-78356836D01*
X130466626Y-78521945D01*
X130460474Y-78526191D01*
X130374151Y-78593820D01*
X130374151Y-78593821D01*
X131533336Y-79753006D01*
X131402590Y-79820411D01*
X131237460Y-79950271D01*
X131099890Y-80109035D01*
X131000629Y-80280959D01*
X129843821Y-79124151D01*
X129843820Y-79124151D01*
X129776191Y-79210474D01*
X129771945Y-79216626D01*
X129606836Y-79489748D01*
X129603362Y-79496368D01*
X129472374Y-79787410D01*
X129469729Y-79794386D01*
X129374778Y-80099092D01*
X129372990Y-80106348D01*
X129315462Y-80420267D01*
X129314560Y-80427697D01*
X129295290Y-80746263D01*
X129295290Y-80753736D01*
X127075499Y-80753736D01*
X127075499Y-78753479D01*
X127075695Y-78746526D01*
X127075715Y-78746170D01*
X127093499Y-78429499D01*
X127095053Y-78415705D01*
X127147657Y-78106100D01*
X127150750Y-78092548D01*
X127150751Y-78092547D01*
X127237687Y-77790783D01*
X127242279Y-77777662D01*
X127284641Y-77675392D01*
X127362457Y-77487527D01*
X127368477Y-77475027D01*
X127520399Y-77200142D01*
X127527776Y-77188403D01*
X127709510Y-76932274D01*
X127718156Y-76921431D01*
X127927435Y-76687247D01*
X127937247Y-76677435D01*
X128171431Y-76468156D01*
X128182274Y-76459510D01*
X128438403Y-76277776D01*
X128450142Y-76270399D01*
X128725027Y-76118477D01*
X128737527Y-76112457D01*
X129027666Y-75992277D01*
X129040783Y-75987687D01*
X129342553Y-75900748D01*
X129356100Y-75897657D01*
X129665705Y-75845053D01*
X129679499Y-75843499D01*
X129996527Y-75825695D01*
X130003481Y-75825500D01*
X130024531Y-75825500D01*
X187973149Y-75825500D01*
X187994202Y-75825500D01*
X188001153Y-75825694D01*
G37*
%TD.AperFunction*%
%TD*%
M02*
