M48
; DRILL file {KiCad 7.0.2-0} date 2024 January 05, Friday 15:48:00
; FORMAT={-:-/ absolute / inch / decimal}
; #@! TF.CreationDate,2024-01-05T15:48:00-05:00
; #@! TF.GenerationSoftware,Kicad,Pcbnew,7.0.2-0
; #@! TF.FileFunction,Plated,1,4,PTH
FMAT,2
INCH
; #@! TA.AperFunction,Plated,PTH,ViaDrill
T1C0.0079
; #@! TA.AperFunction,Plated,PTH,ComponentDrill
T2C0.0315
; #@! TA.AperFunction,Plated,PTH,ComponentDrill
T3C0.0394
; #@! TA.AperFunction,Plated,PTH,ComponentDrill
T4C0.0866
%
G90
G05
T1
X5.55Y-3.4
X5.55Y-3.45
X5.55Y-3.5
X5.55Y-3.55
X5.55Y-3.6
X5.6Y-3.4
X5.6Y-3.45
X5.6Y-3.5
X5.6Y-3.55
X5.6Y-3.6
X5.725Y-3.23
X5.725Y-3.31
X5.725Y-4.225
X5.725Y-4.275
X5.725Y-4.325
X5.75Y-3.4
X5.75Y-3.43
X5.75Y-3.46
X5.775Y-4.225
X5.775Y-4.275
X5.775Y-4.325
X5.7815Y-3.3091
X5.7815Y-3.5933
X5.7819Y-3.6146
X5.825Y-4.225
X5.872Y-3.376
X5.872Y-3.4114
X5.872Y-3.4508
X5.872Y-3.4862
X5.955Y-3.457
X5.975Y-3.875
X5.975Y-3.925
X5.975Y-3.975
X6.025Y-3.975
X6.035Y-3.896
X6.075Y-3.975
X6.1Y-3.55
X6.1Y-3.6
X6.1Y-3.65
X6.1634Y-3.622
X6.18Y-4.139
X6.235Y-3.06
X6.3Y-3.41
X6.31Y-3.57
X6.31Y-3.6
X6.3465Y-3.1949
X6.37Y-3.5
X6.375Y-4.35
X6.375Y-4.4
X6.405Y-3.5
X6.405Y-3.53
X6.405Y-3.615
X6.405Y-3.655
X6.415Y-3.025
X6.415Y-3.055
X6.415Y-3.085
X6.415Y-3.12
X6.425Y-4.35
X6.425Y-4.4
X6.435Y-3.385
X6.44Y-3.288
X6.465Y-3.615
X6.475Y-4.35
X6.475Y-4.4
X6.5048Y-3.51
X6.5145Y-3.373
X6.515Y-3.298
X6.525Y-3.57
X6.5472Y-3.4921
X6.5512Y-4.224
X6.5669Y-3.4685
X6.5709Y-3.7362
X6.5877Y-3.4469
X6.5965Y-3.7146
X6.6Y-3.8
X6.6Y-3.9
X6.6Y-4.0
X6.6Y-4.1
X6.6102Y-3.4252
X6.6201Y-3.6969
X6.6594Y-3.1811
X6.6594Y-3.2087
X6.665Y-3.65
X6.7Y-3.8
X6.7Y-3.9
X6.7Y-4.0
X6.7Y-4.1
X6.73Y-3.65
X6.77Y-4.285
X6.79Y-3.575
X6.8Y-3.8
X6.8Y-3.9
X6.8Y-4.0
X6.8Y-4.1
X6.82Y-3.07
X6.82Y-3.1
X6.82Y-3.135
X6.82Y-3.17
X6.82Y-4.45
X6.825Y-3.58
X6.85Y-4.49
X6.87Y-3.525
X6.89Y-3.65
X6.9Y-3.8
X6.9Y-3.9
X6.9Y-4.0
X6.9Y-4.1
X7.01Y-4.515
X7.025Y-3.92
X7.044Y-4.266
X7.055Y-4.515
X7.072Y-4.25
X7.0768Y-3.0768
X7.085Y-3.565
X7.095Y-3.125
X7.095Y-4.515
X7.135Y-4.515
X7.175Y-4.515
X7.215Y-4.515
X7.275Y-3.13
X7.365Y-4.435
T2
X5.5197Y-4.3012
X5.5197Y-4.3996
X6.6116Y-4.403
X6.71Y-4.403
T3
X5.8744Y-4.3307
X5.8744Y-4.4307
X5.9126Y-3.1791
X5.9744Y-4.3307
X5.9744Y-4.4307
X6.0126Y-3.1791
X6.0744Y-4.3307
X6.0744Y-4.4307
X6.1126Y-3.1791
X6.1744Y-4.3307
X6.1744Y-4.4307
X6.2126Y-3.1791
X6.2744Y-4.3307
X6.2744Y-4.4307
X7.16Y-3.215
X7.16Y-3.315
X7.16Y-3.415
X7.16Y-3.515
X7.16Y-3.615
X7.16Y-3.715
X7.16Y-3.815
X7.16Y-3.915
X7.16Y-4.015
X7.16Y-4.115
X7.16Y-4.215
X7.16Y-4.315
X7.26Y-3.215
X7.26Y-3.315
X7.26Y-3.415
X7.26Y-3.515
X7.26Y-3.615
X7.26Y-3.715
X7.26Y-3.815
X7.26Y-3.915
X7.26Y-4.015
X7.26Y-4.115
X7.26Y-4.215
X7.26Y-4.315
T4
X5.1969Y-3.1791
X5.1969Y-4.3602
X6.9685Y-3.1791
X6.9685Y-4.3602
T3
G00X5.1776Y-3.921
M15
G01X5.1776Y-3.9997
M16
G05
G00X5.2564Y-4.1454
M15
G01X5.3351Y-4.1454
M16
G05
G00X5.4139Y-3.921
M15
G01X5.4139Y-3.9997
M16
G05
T0
M30
