%TF.GenerationSoftware,KiCad,Pcbnew,7.0.2-0*%
%TF.CreationDate,2023-10-31T17:00:16-04:00*%
%TF.ProjectId,ControllerShield,436f6e74-726f-46c6-9c65-72536869656c,rev?*%
%TF.SameCoordinates,Original*%
%TF.FileFunction,Soldermask,Top*%
%TF.FilePolarity,Negative*%
%FSLAX46Y46*%
G04 Gerber Fmt 4.6, Leading zero omitted, Abs format (unit mm)*
G04 Created by KiCad (PCBNEW 7.0.2-0) date 2023-10-31 17:00:16*
%MOMM*%
%LPD*%
G01*
G04 APERTURE LIST*
G04 Aperture macros list*
%AMRoundRect*
0 Rectangle with rounded corners*
0 $1 Rounding radius*
0 $2 $3 $4 $5 $6 $7 $8 $9 X,Y pos of 4 corners*
0 Add a 4 corners polygon primitive as box body*
4,1,4,$2,$3,$4,$5,$6,$7,$8,$9,$2,$3,0*
0 Add four circle primitives for the rounded corners*
1,1,$1+$1,$2,$3*
1,1,$1+$1,$4,$5*
1,1,$1+$1,$6,$7*
1,1,$1+$1,$8,$9*
0 Add four rect primitives between the rounded corners*
20,1,$1+$1,$2,$3,$4,$5,0*
20,1,$1+$1,$4,$5,$6,$7,0*
20,1,$1+$1,$6,$7,$8,$9,0*
20,1,$1+$1,$8,$9,$2,$3,0*%
G04 Aperture macros list end*
%ADD10R,1.700000X1.700000*%
%ADD11O,1.700000X1.700000*%
%ADD12R,1.800000X1.800000*%
%ADD13C,1.800000*%
%ADD14R,1.498600X1.498600*%
%ADD15C,1.498600*%
%ADD16RoundRect,0.200000X-0.200000X-0.275000X0.200000X-0.275000X0.200000X0.275000X-0.200000X0.275000X0*%
%ADD17RoundRect,0.200000X-0.275000X0.200000X-0.275000X-0.200000X0.275000X-0.200000X0.275000X0.200000X0*%
%ADD18C,1.982000*%
%ADD19C,2.490000*%
%ADD20RoundRect,0.225000X0.225000X0.250000X-0.225000X0.250000X-0.225000X-0.250000X0.225000X-0.250000X0*%
%ADD21C,3.200000*%
%ADD22RoundRect,0.150000X0.512500X0.150000X-0.512500X0.150000X-0.512500X-0.150000X0.512500X-0.150000X0*%
%ADD23RoundRect,0.087500X-0.087500X0.187500X-0.087500X-0.187500X0.087500X-0.187500X0.087500X0.187500X0*%
%ADD24RoundRect,0.087500X-0.187500X0.087500X-0.187500X-0.087500X0.187500X-0.087500X0.187500X0.087500X0*%
G04 APERTURE END LIST*
D10*
%TO.C,J1*%
X149890000Y-138655000D03*
D11*
X152430000Y-138655000D03*
X154970000Y-138655000D03*
X157510000Y-138655000D03*
X160050000Y-138655000D03*
X162590000Y-138655000D03*
X165130000Y-138655000D03*
X167670000Y-138655000D03*
%TD*%
D10*
%TO.C,J3*%
X172750000Y-138655000D03*
D11*
X175290000Y-138655000D03*
X177830000Y-138655000D03*
X180370000Y-138655000D03*
X182910000Y-138655000D03*
X185450000Y-138655000D03*
%TD*%
D10*
%TO.C,J2*%
X140746000Y-90395000D03*
D11*
X143286000Y-90395000D03*
X145826000Y-90395000D03*
X148366000Y-90395000D03*
X150906000Y-90395000D03*
X153446000Y-90395000D03*
X155986000Y-90395000D03*
X158526000Y-90395000D03*
X161066000Y-90395000D03*
X163606000Y-90395000D03*
%TD*%
D10*
%TO.C,J4*%
X167670000Y-90395000D03*
D11*
X170210000Y-90395000D03*
X172750000Y-90395000D03*
X175290000Y-90395000D03*
X177830000Y-90395000D03*
X180370000Y-90395000D03*
X182910000Y-90395000D03*
X185450000Y-90395000D03*
%TD*%
D12*
%TO.C,D1*%
X128000000Y-131750000D03*
D13*
X130540000Y-131750000D03*
%TD*%
D14*
%TO.C,SW1*%
X175999998Y-129249999D03*
D15*
X182500000Y-129249999D03*
X175999998Y-133750000D03*
X182500000Y-133750000D03*
%TD*%
D16*
%TO.C,R2*%
X137150000Y-98720000D03*
X138800000Y-98720000D03*
%TD*%
D17*
%TO.C,R4*%
X134000000Y-96000000D03*
X134000000Y-97650000D03*
%TD*%
D18*
%TO.C,U1*%
X172650000Y-111020000D03*
X172650000Y-117370000D03*
X167570000Y-111020000D03*
X167570000Y-117370000D03*
X149790000Y-111655000D03*
X149790000Y-114195000D03*
X149790000Y-116735000D03*
D19*
X166617500Y-106575000D03*
X153282500Y-106575000D03*
X153282500Y-121815000D03*
X166617500Y-121815000D03*
D18*
X162490000Y-104035000D03*
X159950000Y-104035000D03*
X157410000Y-104035000D03*
%TD*%
D12*
%TO.C,D2*%
X128000000Y-96750000D03*
D13*
X130540000Y-96750000D03*
%TD*%
D20*
%TO.C,C1*%
X148300000Y-96500000D03*
X146750000Y-96500000D03*
%TD*%
D21*
%TO.C,MH1*%
X137190000Y-90395000D03*
%TD*%
D17*
%TO.C,R3*%
X134000000Y-100675000D03*
X134000000Y-102325000D03*
%TD*%
D22*
%TO.C,U3*%
X153387500Y-98400000D03*
X153387500Y-97450000D03*
X153387500Y-96500000D03*
X151112500Y-96500000D03*
X151112500Y-98400000D03*
%TD*%
D20*
%TO.C,C2*%
X149000000Y-101445000D03*
X147450000Y-101445000D03*
%TD*%
D16*
%TO.C,R1*%
X137125000Y-101195000D03*
X138775000Y-101195000D03*
%TD*%
D10*
%TO.C,J5*%
X127210000Y-109920000D03*
D11*
X129750000Y-109920000D03*
X127210000Y-112460000D03*
X129750000Y-112460000D03*
X127210000Y-115000000D03*
X129750000Y-115000000D03*
X127210000Y-117540000D03*
X129750000Y-117540000D03*
X127210000Y-120080000D03*
X129750000Y-120080000D03*
%TD*%
D23*
%TO.C,U2*%
X144495000Y-97790000D03*
X143995000Y-97790000D03*
X143495000Y-97790000D03*
X142995000Y-97790000D03*
X142495000Y-97790000D03*
D24*
X142270000Y-98515000D03*
X142270000Y-99015000D03*
X142270000Y-99515000D03*
D23*
X142495000Y-100240000D03*
X142995000Y-100240000D03*
X143495000Y-100240000D03*
X143995000Y-100240000D03*
X144495000Y-100240000D03*
D24*
X144720000Y-99515000D03*
X144720000Y-99015000D03*
X144720000Y-98515000D03*
%TD*%
D10*
%TO.C,J6*%
X167580000Y-97000000D03*
D11*
X165040000Y-97000000D03*
X162500000Y-97000000D03*
%TD*%
D21*
%TO.C,MH2*%
X135920000Y-138655000D03*
%TD*%
%TO.C,MH3*%
X187990000Y-105635000D03*
%TD*%
%TO.C,MH4*%
X187990000Y-133575000D03*
%TD*%
M02*
