%TF.GenerationSoftware,KiCad,Pcbnew,7.0.2-0*%
%TF.CreationDate,2023-10-31T17:00:16-04:00*%
%TF.ProjectId,ControllerShield,436f6e74-726f-46c6-9c65-72536869656c,rev?*%
%TF.SameCoordinates,Original*%
%TF.FileFunction,Legend,Top*%
%TF.FilePolarity,Positive*%
%FSLAX46Y46*%
G04 Gerber Fmt 4.6, Leading zero omitted, Abs format (unit mm)*
G04 Created by KiCad (PCBNEW 7.0.2-0) date 2023-10-31 17:00:16*
%MOMM*%
%LPD*%
G01*
G04 APERTURE LIST*
%ADD10C,0.300000*%
%ADD11C,0.150000*%
%ADD12C,0.120000*%
%ADD13C,0.152400*%
%ADD14C,0.127000*%
%ADD15C,0.200000*%
G04 APERTURE END LIST*
D10*
X144000000Y-110125000D02*
X143250000Y-108875000D01*
X143250000Y-113125000D02*
X143250000Y-108875000D01*
X143250000Y-108875000D02*
X142500000Y-109875000D01*
X141632857Y-116321428D02*
X144632857Y-114321428D01*
X141632857Y-114321428D02*
X144632857Y-116321428D01*
X133750000Y-117500000D02*
X134750000Y-118250000D01*
X135000000Y-116750000D02*
X133750000Y-117500000D01*
D11*
X133750000Y-117500000D02*
X135000000Y-116750000D01*
D10*
X138000000Y-117500000D02*
X133750000Y-117500000D01*
X139954285Y-117464285D02*
X141382857Y-117464285D01*
X138382857Y-118464285D02*
X139954285Y-117464285D01*
X139954285Y-117464285D02*
X138382857Y-116464285D01*
D11*
X162428571Y-99401428D02*
X162428571Y-99877619D01*
X162095238Y-98877619D02*
X162428571Y-99401428D01*
X162428571Y-99401428D02*
X162761904Y-98877619D01*
X164511904Y-98925238D02*
X164416666Y-98877619D01*
X164416666Y-98877619D02*
X164273809Y-98877619D01*
X164273809Y-98877619D02*
X164130952Y-98925238D01*
X164130952Y-98925238D02*
X164035714Y-99020476D01*
X164035714Y-99020476D02*
X163988095Y-99115714D01*
X163988095Y-99115714D02*
X163940476Y-99306190D01*
X163940476Y-99306190D02*
X163940476Y-99449047D01*
X163940476Y-99449047D02*
X163988095Y-99639523D01*
X163988095Y-99639523D02*
X164035714Y-99734761D01*
X164035714Y-99734761D02*
X164130952Y-99830000D01*
X164130952Y-99830000D02*
X164273809Y-99877619D01*
X164273809Y-99877619D02*
X164369047Y-99877619D01*
X164369047Y-99877619D02*
X164511904Y-99830000D01*
X164511904Y-99830000D02*
X164559523Y-99782380D01*
X164559523Y-99782380D02*
X164559523Y-99449047D01*
X164559523Y-99449047D02*
X164369047Y-99449047D01*
X164988095Y-99210952D02*
X164988095Y-99877619D01*
X164988095Y-99306190D02*
X165035714Y-99258571D01*
X165035714Y-99258571D02*
X165130952Y-99210952D01*
X165130952Y-99210952D02*
X165273809Y-99210952D01*
X165273809Y-99210952D02*
X165369047Y-99258571D01*
X165369047Y-99258571D02*
X165416666Y-99353809D01*
X165416666Y-99353809D02*
X165416666Y-99877619D01*
X166321428Y-99877619D02*
X166321428Y-98877619D01*
X166321428Y-99830000D02*
X166226190Y-99877619D01*
X166226190Y-99877619D02*
X166035714Y-99877619D01*
X166035714Y-99877619D02*
X165940476Y-99830000D01*
X165940476Y-99830000D02*
X165892857Y-99782380D01*
X165892857Y-99782380D02*
X165845238Y-99687142D01*
X165845238Y-99687142D02*
X165845238Y-99401428D01*
X165845238Y-99401428D02*
X165892857Y-99306190D01*
X165892857Y-99306190D02*
X165940476Y-99258571D01*
X165940476Y-99258571D02*
X166035714Y-99210952D01*
X166035714Y-99210952D02*
X166226190Y-99210952D01*
X166226190Y-99210952D02*
X166321428Y-99258571D01*
X161738095Y-94377619D02*
X161738095Y-93377619D01*
X161738095Y-93377619D02*
X162119047Y-93377619D01*
X162119047Y-93377619D02*
X162214285Y-93425238D01*
X162214285Y-93425238D02*
X162261904Y-93472857D01*
X162261904Y-93472857D02*
X162309523Y-93568095D01*
X162309523Y-93568095D02*
X162309523Y-93710952D01*
X162309523Y-93710952D02*
X162261904Y-93806190D01*
X162261904Y-93806190D02*
X162214285Y-93853809D01*
X162214285Y-93853809D02*
X162119047Y-93901428D01*
X162119047Y-93901428D02*
X161738095Y-93901428D01*
X162642857Y-93377619D02*
X162880952Y-94377619D01*
X162880952Y-94377619D02*
X163071428Y-93663333D01*
X163071428Y-93663333D02*
X163261904Y-94377619D01*
X163261904Y-94377619D02*
X163500000Y-93377619D01*
X163880952Y-94377619D02*
X163880952Y-93377619D01*
X163880952Y-93377619D02*
X164214285Y-94091904D01*
X164214285Y-94091904D02*
X164547618Y-93377619D01*
X164547618Y-93377619D02*
X164547618Y-94377619D01*
X165785714Y-94377619D02*
X165785714Y-93377619D01*
X165785714Y-93377619D02*
X166166666Y-93377619D01*
X166166666Y-93377619D02*
X166261904Y-93425238D01*
X166261904Y-93425238D02*
X166309523Y-93472857D01*
X166309523Y-93472857D02*
X166357142Y-93568095D01*
X166357142Y-93568095D02*
X166357142Y-93710952D01*
X166357142Y-93710952D02*
X166309523Y-93806190D01*
X166309523Y-93806190D02*
X166261904Y-93853809D01*
X166261904Y-93853809D02*
X166166666Y-93901428D01*
X166166666Y-93901428D02*
X165785714Y-93901428D01*
X166785714Y-94377619D02*
X166785714Y-93710952D01*
X166785714Y-93901428D02*
X166833333Y-93806190D01*
X166833333Y-93806190D02*
X166880952Y-93758571D01*
X166880952Y-93758571D02*
X166976190Y-93710952D01*
X166976190Y-93710952D02*
X167071428Y-93710952D01*
X167547619Y-94377619D02*
X167452381Y-94330000D01*
X167452381Y-94330000D02*
X167404762Y-94282380D01*
X167404762Y-94282380D02*
X167357143Y-94187142D01*
X167357143Y-94187142D02*
X167357143Y-93901428D01*
X167357143Y-93901428D02*
X167404762Y-93806190D01*
X167404762Y-93806190D02*
X167452381Y-93758571D01*
X167452381Y-93758571D02*
X167547619Y-93710952D01*
X167547619Y-93710952D02*
X167690476Y-93710952D01*
X167690476Y-93710952D02*
X167785714Y-93758571D01*
X167785714Y-93758571D02*
X167833333Y-93806190D01*
X167833333Y-93806190D02*
X167880952Y-93901428D01*
X167880952Y-93901428D02*
X167880952Y-94187142D01*
X167880952Y-94187142D02*
X167833333Y-94282380D01*
X167833333Y-94282380D02*
X167785714Y-94330000D01*
X167785714Y-94330000D02*
X167690476Y-94377619D01*
X167690476Y-94377619D02*
X167547619Y-94377619D01*
X168309524Y-94377619D02*
X168309524Y-93377619D01*
X168309524Y-93758571D02*
X168404762Y-93710952D01*
X168404762Y-93710952D02*
X168595238Y-93710952D01*
X168595238Y-93710952D02*
X168690476Y-93758571D01*
X168690476Y-93758571D02*
X168738095Y-93806190D01*
X168738095Y-93806190D02*
X168785714Y-93901428D01*
X168785714Y-93901428D02*
X168785714Y-94187142D01*
X168785714Y-94187142D02*
X168738095Y-94282380D01*
X168738095Y-94282380D02*
X168690476Y-94330000D01*
X168690476Y-94330000D02*
X168595238Y-94377619D01*
X168595238Y-94377619D02*
X168404762Y-94377619D01*
X168404762Y-94377619D02*
X168309524Y-94330000D01*
X169595238Y-94330000D02*
X169500000Y-94377619D01*
X169500000Y-94377619D02*
X169309524Y-94377619D01*
X169309524Y-94377619D02*
X169214286Y-94330000D01*
X169214286Y-94330000D02*
X169166667Y-94234761D01*
X169166667Y-94234761D02*
X169166667Y-93853809D01*
X169166667Y-93853809D02*
X169214286Y-93758571D01*
X169214286Y-93758571D02*
X169309524Y-93710952D01*
X169309524Y-93710952D02*
X169500000Y-93710952D01*
X169500000Y-93710952D02*
X169595238Y-93758571D01*
X169595238Y-93758571D02*
X169642857Y-93853809D01*
X169642857Y-93853809D02*
X169642857Y-93949047D01*
X169642857Y-93949047D02*
X169166667Y-94044285D01*
X167392857Y-98877619D02*
X168059523Y-99877619D01*
X168059523Y-98877619D02*
X167392857Y-99877619D01*
%TO.C,D1*%
X128531905Y-128252619D02*
X128531905Y-127252619D01*
X128531905Y-127252619D02*
X128770000Y-127252619D01*
X128770000Y-127252619D02*
X128912857Y-127300238D01*
X128912857Y-127300238D02*
X129008095Y-127395476D01*
X129008095Y-127395476D02*
X129055714Y-127490714D01*
X129055714Y-127490714D02*
X129103333Y-127681190D01*
X129103333Y-127681190D02*
X129103333Y-127824047D01*
X129103333Y-127824047D02*
X129055714Y-128014523D01*
X129055714Y-128014523D02*
X129008095Y-128109761D01*
X129008095Y-128109761D02*
X128912857Y-128205000D01*
X128912857Y-128205000D02*
X128770000Y-128252619D01*
X128770000Y-128252619D02*
X128531905Y-128252619D01*
X130055714Y-128252619D02*
X129484286Y-128252619D01*
X129770000Y-128252619D02*
X129770000Y-127252619D01*
X129770000Y-127252619D02*
X129674762Y-127395476D01*
X129674762Y-127395476D02*
X129579524Y-127490714D01*
X129579524Y-127490714D02*
X129484286Y-127538333D01*
%TO.C,SW1*%
X177666667Y-127415000D02*
X177809524Y-127462619D01*
X177809524Y-127462619D02*
X178047619Y-127462619D01*
X178047619Y-127462619D02*
X178142857Y-127415000D01*
X178142857Y-127415000D02*
X178190476Y-127367380D01*
X178190476Y-127367380D02*
X178238095Y-127272142D01*
X178238095Y-127272142D02*
X178238095Y-127176904D01*
X178238095Y-127176904D02*
X178190476Y-127081666D01*
X178190476Y-127081666D02*
X178142857Y-127034047D01*
X178142857Y-127034047D02*
X178047619Y-126986428D01*
X178047619Y-126986428D02*
X177857143Y-126938809D01*
X177857143Y-126938809D02*
X177761905Y-126891190D01*
X177761905Y-126891190D02*
X177714286Y-126843571D01*
X177714286Y-126843571D02*
X177666667Y-126748333D01*
X177666667Y-126748333D02*
X177666667Y-126653095D01*
X177666667Y-126653095D02*
X177714286Y-126557857D01*
X177714286Y-126557857D02*
X177761905Y-126510238D01*
X177761905Y-126510238D02*
X177857143Y-126462619D01*
X177857143Y-126462619D02*
X178095238Y-126462619D01*
X178095238Y-126462619D02*
X178238095Y-126510238D01*
X178571429Y-126462619D02*
X178809524Y-127462619D01*
X178809524Y-127462619D02*
X179000000Y-126748333D01*
X179000000Y-126748333D02*
X179190476Y-127462619D01*
X179190476Y-127462619D02*
X179428572Y-126462619D01*
X180333333Y-127462619D02*
X179761905Y-127462619D01*
X180047619Y-127462619D02*
X180047619Y-126462619D01*
X180047619Y-126462619D02*
X179952381Y-126605476D01*
X179952381Y-126605476D02*
X179857143Y-126700714D01*
X179857143Y-126700714D02*
X179761905Y-126748333D01*
%TO.C,R2*%
X137833333Y-97657619D02*
X137500000Y-97181428D01*
X137261905Y-97657619D02*
X137261905Y-96657619D01*
X137261905Y-96657619D02*
X137642857Y-96657619D01*
X137642857Y-96657619D02*
X137738095Y-96705238D01*
X137738095Y-96705238D02*
X137785714Y-96752857D01*
X137785714Y-96752857D02*
X137833333Y-96848095D01*
X137833333Y-96848095D02*
X137833333Y-96990952D01*
X137833333Y-96990952D02*
X137785714Y-97086190D01*
X137785714Y-97086190D02*
X137738095Y-97133809D01*
X137738095Y-97133809D02*
X137642857Y-97181428D01*
X137642857Y-97181428D02*
X137261905Y-97181428D01*
X138214286Y-96752857D02*
X138261905Y-96705238D01*
X138261905Y-96705238D02*
X138357143Y-96657619D01*
X138357143Y-96657619D02*
X138595238Y-96657619D01*
X138595238Y-96657619D02*
X138690476Y-96705238D01*
X138690476Y-96705238D02*
X138738095Y-96752857D01*
X138738095Y-96752857D02*
X138785714Y-96848095D01*
X138785714Y-96848095D02*
X138785714Y-96943333D01*
X138785714Y-96943333D02*
X138738095Y-97086190D01*
X138738095Y-97086190D02*
X138166667Y-97657619D01*
X138166667Y-97657619D02*
X138785714Y-97657619D01*
%TO.C,R4*%
X135892619Y-96991666D02*
X135416428Y-97324999D01*
X135892619Y-97563094D02*
X134892619Y-97563094D01*
X134892619Y-97563094D02*
X134892619Y-97182142D01*
X134892619Y-97182142D02*
X134940238Y-97086904D01*
X134940238Y-97086904D02*
X134987857Y-97039285D01*
X134987857Y-97039285D02*
X135083095Y-96991666D01*
X135083095Y-96991666D02*
X135225952Y-96991666D01*
X135225952Y-96991666D02*
X135321190Y-97039285D01*
X135321190Y-97039285D02*
X135368809Y-97086904D01*
X135368809Y-97086904D02*
X135416428Y-97182142D01*
X135416428Y-97182142D02*
X135416428Y-97563094D01*
X135225952Y-96134523D02*
X135892619Y-96134523D01*
X134845000Y-96372618D02*
X135559285Y-96610713D01*
X135559285Y-96610713D02*
X135559285Y-95991666D01*
%TO.C,U1*%
X174647619Y-112331904D02*
X175457142Y-112331904D01*
X175457142Y-112331904D02*
X175552380Y-112284285D01*
X175552380Y-112284285D02*
X175600000Y-112236666D01*
X175600000Y-112236666D02*
X175647619Y-112141428D01*
X175647619Y-112141428D02*
X175647619Y-111950952D01*
X175647619Y-111950952D02*
X175600000Y-111855714D01*
X175600000Y-111855714D02*
X175552380Y-111808095D01*
X175552380Y-111808095D02*
X175457142Y-111760476D01*
X175457142Y-111760476D02*
X174647619Y-111760476D01*
X175647619Y-110760476D02*
X175647619Y-111331904D01*
X175647619Y-111046190D02*
X174647619Y-111046190D01*
X174647619Y-111046190D02*
X174790476Y-111141428D01*
X174790476Y-111141428D02*
X174885714Y-111236666D01*
X174885714Y-111236666D02*
X174933333Y-111331904D01*
%TO.C,D2*%
X128531905Y-93252619D02*
X128531905Y-92252619D01*
X128531905Y-92252619D02*
X128770000Y-92252619D01*
X128770000Y-92252619D02*
X128912857Y-92300238D01*
X128912857Y-92300238D02*
X129008095Y-92395476D01*
X129008095Y-92395476D02*
X129055714Y-92490714D01*
X129055714Y-92490714D02*
X129103333Y-92681190D01*
X129103333Y-92681190D02*
X129103333Y-92824047D01*
X129103333Y-92824047D02*
X129055714Y-93014523D01*
X129055714Y-93014523D02*
X129008095Y-93109761D01*
X129008095Y-93109761D02*
X128912857Y-93205000D01*
X128912857Y-93205000D02*
X128770000Y-93252619D01*
X128770000Y-93252619D02*
X128531905Y-93252619D01*
X129484286Y-92347857D02*
X129531905Y-92300238D01*
X129531905Y-92300238D02*
X129627143Y-92252619D01*
X129627143Y-92252619D02*
X129865238Y-92252619D01*
X129865238Y-92252619D02*
X129960476Y-92300238D01*
X129960476Y-92300238D02*
X130008095Y-92347857D01*
X130008095Y-92347857D02*
X130055714Y-92443095D01*
X130055714Y-92443095D02*
X130055714Y-92538333D01*
X130055714Y-92538333D02*
X130008095Y-92681190D01*
X130008095Y-92681190D02*
X129436667Y-93252619D01*
X129436667Y-93252619D02*
X130055714Y-93252619D01*
%TO.C,C1*%
X147358333Y-98297380D02*
X147310714Y-98345000D01*
X147310714Y-98345000D02*
X147167857Y-98392619D01*
X147167857Y-98392619D02*
X147072619Y-98392619D01*
X147072619Y-98392619D02*
X146929762Y-98345000D01*
X146929762Y-98345000D02*
X146834524Y-98249761D01*
X146834524Y-98249761D02*
X146786905Y-98154523D01*
X146786905Y-98154523D02*
X146739286Y-97964047D01*
X146739286Y-97964047D02*
X146739286Y-97821190D01*
X146739286Y-97821190D02*
X146786905Y-97630714D01*
X146786905Y-97630714D02*
X146834524Y-97535476D01*
X146834524Y-97535476D02*
X146929762Y-97440238D01*
X146929762Y-97440238D02*
X147072619Y-97392619D01*
X147072619Y-97392619D02*
X147167857Y-97392619D01*
X147167857Y-97392619D02*
X147310714Y-97440238D01*
X147310714Y-97440238D02*
X147358333Y-97487857D01*
X148310714Y-98392619D02*
X147739286Y-98392619D01*
X148025000Y-98392619D02*
X148025000Y-97392619D01*
X148025000Y-97392619D02*
X147929762Y-97535476D01*
X147929762Y-97535476D02*
X147834524Y-97630714D01*
X147834524Y-97630714D02*
X147739286Y-97678333D01*
%TO.C,R3*%
X135892619Y-101666666D02*
X135416428Y-101999999D01*
X135892619Y-102238094D02*
X134892619Y-102238094D01*
X134892619Y-102238094D02*
X134892619Y-101857142D01*
X134892619Y-101857142D02*
X134940238Y-101761904D01*
X134940238Y-101761904D02*
X134987857Y-101714285D01*
X134987857Y-101714285D02*
X135083095Y-101666666D01*
X135083095Y-101666666D02*
X135225952Y-101666666D01*
X135225952Y-101666666D02*
X135321190Y-101714285D01*
X135321190Y-101714285D02*
X135368809Y-101761904D01*
X135368809Y-101761904D02*
X135416428Y-101857142D01*
X135416428Y-101857142D02*
X135416428Y-102238094D01*
X134892619Y-101333332D02*
X134892619Y-100714285D01*
X134892619Y-100714285D02*
X135273571Y-101047618D01*
X135273571Y-101047618D02*
X135273571Y-100904761D01*
X135273571Y-100904761D02*
X135321190Y-100809523D01*
X135321190Y-100809523D02*
X135368809Y-100761904D01*
X135368809Y-100761904D02*
X135464047Y-100714285D01*
X135464047Y-100714285D02*
X135702142Y-100714285D01*
X135702142Y-100714285D02*
X135797380Y-100761904D01*
X135797380Y-100761904D02*
X135845000Y-100809523D01*
X135845000Y-100809523D02*
X135892619Y-100904761D01*
X135892619Y-100904761D02*
X135892619Y-101190475D01*
X135892619Y-101190475D02*
X135845000Y-101285713D01*
X135845000Y-101285713D02*
X135797380Y-101333332D01*
%TO.C,U3*%
X151488095Y-99312619D02*
X151488095Y-100122142D01*
X151488095Y-100122142D02*
X151535714Y-100217380D01*
X151535714Y-100217380D02*
X151583333Y-100265000D01*
X151583333Y-100265000D02*
X151678571Y-100312619D01*
X151678571Y-100312619D02*
X151869047Y-100312619D01*
X151869047Y-100312619D02*
X151964285Y-100265000D01*
X151964285Y-100265000D02*
X152011904Y-100217380D01*
X152011904Y-100217380D02*
X152059523Y-100122142D01*
X152059523Y-100122142D02*
X152059523Y-99312619D01*
X152440476Y-99312619D02*
X153059523Y-99312619D01*
X153059523Y-99312619D02*
X152726190Y-99693571D01*
X152726190Y-99693571D02*
X152869047Y-99693571D01*
X152869047Y-99693571D02*
X152964285Y-99741190D01*
X152964285Y-99741190D02*
X153011904Y-99788809D01*
X153011904Y-99788809D02*
X153059523Y-99884047D01*
X153059523Y-99884047D02*
X153059523Y-100122142D01*
X153059523Y-100122142D02*
X153011904Y-100217380D01*
X153011904Y-100217380D02*
X152964285Y-100265000D01*
X152964285Y-100265000D02*
X152869047Y-100312619D01*
X152869047Y-100312619D02*
X152583333Y-100312619D01*
X152583333Y-100312619D02*
X152488095Y-100265000D01*
X152488095Y-100265000D02*
X152440476Y-100217380D01*
%TO.C,C2*%
X148058333Y-103242380D02*
X148010714Y-103290000D01*
X148010714Y-103290000D02*
X147867857Y-103337619D01*
X147867857Y-103337619D02*
X147772619Y-103337619D01*
X147772619Y-103337619D02*
X147629762Y-103290000D01*
X147629762Y-103290000D02*
X147534524Y-103194761D01*
X147534524Y-103194761D02*
X147486905Y-103099523D01*
X147486905Y-103099523D02*
X147439286Y-102909047D01*
X147439286Y-102909047D02*
X147439286Y-102766190D01*
X147439286Y-102766190D02*
X147486905Y-102575714D01*
X147486905Y-102575714D02*
X147534524Y-102480476D01*
X147534524Y-102480476D02*
X147629762Y-102385238D01*
X147629762Y-102385238D02*
X147772619Y-102337619D01*
X147772619Y-102337619D02*
X147867857Y-102337619D01*
X147867857Y-102337619D02*
X148010714Y-102385238D01*
X148010714Y-102385238D02*
X148058333Y-102432857D01*
X148439286Y-102432857D02*
X148486905Y-102385238D01*
X148486905Y-102385238D02*
X148582143Y-102337619D01*
X148582143Y-102337619D02*
X148820238Y-102337619D01*
X148820238Y-102337619D02*
X148915476Y-102385238D01*
X148915476Y-102385238D02*
X148963095Y-102432857D01*
X148963095Y-102432857D02*
X149010714Y-102528095D01*
X149010714Y-102528095D02*
X149010714Y-102623333D01*
X149010714Y-102623333D02*
X148963095Y-102766190D01*
X148963095Y-102766190D02*
X148391667Y-103337619D01*
X148391667Y-103337619D02*
X149010714Y-103337619D01*
%TO.C,R1*%
X137783333Y-103657619D02*
X137450000Y-103181428D01*
X137211905Y-103657619D02*
X137211905Y-102657619D01*
X137211905Y-102657619D02*
X137592857Y-102657619D01*
X137592857Y-102657619D02*
X137688095Y-102705238D01*
X137688095Y-102705238D02*
X137735714Y-102752857D01*
X137735714Y-102752857D02*
X137783333Y-102848095D01*
X137783333Y-102848095D02*
X137783333Y-102990952D01*
X137783333Y-102990952D02*
X137735714Y-103086190D01*
X137735714Y-103086190D02*
X137688095Y-103133809D01*
X137688095Y-103133809D02*
X137592857Y-103181428D01*
X137592857Y-103181428D02*
X137211905Y-103181428D01*
X138735714Y-103657619D02*
X138164286Y-103657619D01*
X138450000Y-103657619D02*
X138450000Y-102657619D01*
X138450000Y-102657619D02*
X138354762Y-102800476D01*
X138354762Y-102800476D02*
X138259524Y-102895714D01*
X138259524Y-102895714D02*
X138164286Y-102943333D01*
%TO.C,J5*%
X128146666Y-107052619D02*
X128146666Y-107766904D01*
X128146666Y-107766904D02*
X128099047Y-107909761D01*
X128099047Y-107909761D02*
X128003809Y-108005000D01*
X128003809Y-108005000D02*
X127860952Y-108052619D01*
X127860952Y-108052619D02*
X127765714Y-108052619D01*
X129099047Y-107052619D02*
X128622857Y-107052619D01*
X128622857Y-107052619D02*
X128575238Y-107528809D01*
X128575238Y-107528809D02*
X128622857Y-107481190D01*
X128622857Y-107481190D02*
X128718095Y-107433571D01*
X128718095Y-107433571D02*
X128956190Y-107433571D01*
X128956190Y-107433571D02*
X129051428Y-107481190D01*
X129051428Y-107481190D02*
X129099047Y-107528809D01*
X129099047Y-107528809D02*
X129146666Y-107624047D01*
X129146666Y-107624047D02*
X129146666Y-107862142D01*
X129146666Y-107862142D02*
X129099047Y-107957380D01*
X129099047Y-107957380D02*
X129051428Y-108005000D01*
X129051428Y-108005000D02*
X128956190Y-108052619D01*
X128956190Y-108052619D02*
X128718095Y-108052619D01*
X128718095Y-108052619D02*
X128622857Y-108005000D01*
X128622857Y-108005000D02*
X128575238Y-107957380D01*
%TO.C,U2*%
X142738095Y-95962619D02*
X142738095Y-96772142D01*
X142738095Y-96772142D02*
X142785714Y-96867380D01*
X142785714Y-96867380D02*
X142833333Y-96915000D01*
X142833333Y-96915000D02*
X142928571Y-96962619D01*
X142928571Y-96962619D02*
X143119047Y-96962619D01*
X143119047Y-96962619D02*
X143214285Y-96915000D01*
X143214285Y-96915000D02*
X143261904Y-96867380D01*
X143261904Y-96867380D02*
X143309523Y-96772142D01*
X143309523Y-96772142D02*
X143309523Y-95962619D01*
X143738095Y-96057857D02*
X143785714Y-96010238D01*
X143785714Y-96010238D02*
X143880952Y-95962619D01*
X143880952Y-95962619D02*
X144119047Y-95962619D01*
X144119047Y-95962619D02*
X144214285Y-96010238D01*
X144214285Y-96010238D02*
X144261904Y-96057857D01*
X144261904Y-96057857D02*
X144309523Y-96153095D01*
X144309523Y-96153095D02*
X144309523Y-96248333D01*
X144309523Y-96248333D02*
X144261904Y-96391190D01*
X144261904Y-96391190D02*
X143690476Y-96962619D01*
X143690476Y-96962619D02*
X144309523Y-96962619D01*
%TO.C,J6*%
X169372619Y-97333333D02*
X170086904Y-97333333D01*
X170086904Y-97333333D02*
X170229761Y-97380952D01*
X170229761Y-97380952D02*
X170325000Y-97476190D01*
X170325000Y-97476190D02*
X170372619Y-97619047D01*
X170372619Y-97619047D02*
X170372619Y-97714285D01*
X169372619Y-96428571D02*
X169372619Y-96619047D01*
X169372619Y-96619047D02*
X169420238Y-96714285D01*
X169420238Y-96714285D02*
X169467857Y-96761904D01*
X169467857Y-96761904D02*
X169610714Y-96857142D01*
X169610714Y-96857142D02*
X169801190Y-96904761D01*
X169801190Y-96904761D02*
X170182142Y-96904761D01*
X170182142Y-96904761D02*
X170277380Y-96857142D01*
X170277380Y-96857142D02*
X170325000Y-96809523D01*
X170325000Y-96809523D02*
X170372619Y-96714285D01*
X170372619Y-96714285D02*
X170372619Y-96523809D01*
X170372619Y-96523809D02*
X170325000Y-96428571D01*
X170325000Y-96428571D02*
X170277380Y-96380952D01*
X170277380Y-96380952D02*
X170182142Y-96333333D01*
X170182142Y-96333333D02*
X169944047Y-96333333D01*
X169944047Y-96333333D02*
X169848809Y-96380952D01*
X169848809Y-96380952D02*
X169801190Y-96428571D01*
X169801190Y-96428571D02*
X169753571Y-96523809D01*
X169753571Y-96523809D02*
X169753571Y-96714285D01*
X169753571Y-96714285D02*
X169801190Y-96809523D01*
X169801190Y-96809523D02*
X169848809Y-96857142D01*
X169848809Y-96857142D02*
X169944047Y-96904761D01*
%TO.C,G\u002A\u002A\u002A*%
G36*
X136952885Y-122086539D02*
G01*
X136952885Y-122452885D01*
X136586539Y-122452885D01*
X136220193Y-122452885D01*
X136220193Y-122086539D01*
X136220193Y-121720193D01*
X136586539Y-121720193D01*
X136952885Y-121720193D01*
X136952885Y-122086539D01*
G37*
G36*
X136952885Y-129413462D02*
G01*
X136952885Y-129779808D01*
X136586539Y-129779808D01*
X136220193Y-129779808D01*
X136220193Y-129413462D01*
X136220193Y-129047116D01*
X136586539Y-129047116D01*
X136952885Y-129047116D01*
X136952885Y-129413462D01*
G37*
G36*
X139639423Y-121353846D02*
G01*
X139639423Y-121475962D01*
X139395193Y-121475962D01*
X139150962Y-121475962D01*
X139150962Y-121353846D01*
X139150962Y-121231731D01*
X139395193Y-121231731D01*
X139639423Y-121231731D01*
X139639423Y-121353846D01*
G37*
G36*
X141837500Y-130024039D02*
G01*
X141837500Y-130268270D01*
X141715385Y-130268270D01*
X141593270Y-130268270D01*
X141593270Y-130024039D01*
X141593270Y-129779808D01*
X141715385Y-129779808D01*
X141837500Y-129779808D01*
X141837500Y-130024039D01*
G37*
G36*
X142081731Y-128192308D02*
G01*
X142081731Y-128314423D01*
X141837500Y-128314423D01*
X141593270Y-128314423D01*
X141593270Y-128192308D01*
X141593270Y-128070193D01*
X141837500Y-128070193D01*
X142081731Y-128070193D01*
X142081731Y-128192308D01*
G37*
G36*
X142325962Y-122941346D02*
G01*
X142325962Y-123185577D01*
X142203846Y-123185577D01*
X142081731Y-123185577D01*
X142081731Y-122941346D01*
X142081731Y-122697116D01*
X142203846Y-122697116D01*
X142325962Y-122697116D01*
X142325962Y-122941346D01*
G37*
G36*
X144279808Y-122086539D02*
G01*
X144279808Y-122452885D01*
X143913462Y-122452885D01*
X143547116Y-122452885D01*
X143547116Y-122086539D01*
X143547116Y-121720193D01*
X143913462Y-121720193D01*
X144279808Y-121720193D01*
X144279808Y-122086539D01*
G37*
G36*
X144732648Y-129301433D02*
G01*
X144764528Y-129349010D01*
X144768270Y-129413462D01*
X144758183Y-129499956D01*
X144710606Y-129531836D01*
X144646154Y-129535577D01*
X144559660Y-129525491D01*
X144527780Y-129477914D01*
X144524039Y-129413462D01*
X144524039Y-129291346D01*
X144646154Y-129291346D01*
X144732648Y-129301433D01*
G37*
G36*
X135940341Y-127347586D02*
G01*
X135972221Y-127395164D01*
X135975962Y-127459616D01*
X135965876Y-127546110D01*
X135918298Y-127577990D01*
X135853846Y-127581731D01*
X135767352Y-127571645D01*
X135735472Y-127524068D01*
X135731731Y-127459616D01*
X135741817Y-127373121D01*
X135789394Y-127341241D01*
X135853846Y-127337500D01*
X135940341Y-127347586D01*
G37*
G36*
X136184571Y-126126433D02*
G01*
X136216452Y-126174010D01*
X136220193Y-126238462D01*
X136210106Y-126324956D01*
X136162529Y-126356836D01*
X136098077Y-126360577D01*
X136011583Y-126350491D01*
X135979703Y-126302914D01*
X135975962Y-126238462D01*
X135986048Y-126151968D01*
X136033625Y-126120087D01*
X136098077Y-126116346D01*
X136184571Y-126126433D01*
G37*
G36*
X137405725Y-128080279D02*
G01*
X137437605Y-128127856D01*
X137441346Y-128192308D01*
X137431260Y-128278802D01*
X137383683Y-128310682D01*
X137319231Y-128314423D01*
X137232737Y-128304337D01*
X137200857Y-128256760D01*
X137197116Y-128192308D01*
X137207202Y-128105814D01*
X137254779Y-128073934D01*
X137319231Y-128070193D01*
X137405725Y-128080279D01*
G37*
G36*
X137894187Y-121241817D02*
G01*
X137926067Y-121289394D01*
X137929808Y-121353846D01*
X137919722Y-121440341D01*
X137872145Y-121472221D01*
X137807693Y-121475962D01*
X137721198Y-121465876D01*
X137689318Y-121418298D01*
X137685577Y-121353846D01*
X137695663Y-121267352D01*
X137743241Y-121235472D01*
X137807693Y-121231731D01*
X137894187Y-121241817D01*
G37*
G36*
X137894187Y-130034125D02*
G01*
X137926067Y-130081702D01*
X137929808Y-130146154D01*
X137919722Y-130232648D01*
X137872145Y-130264528D01*
X137807693Y-130268270D01*
X137721198Y-130258183D01*
X137689318Y-130210606D01*
X137685577Y-130146154D01*
X137695663Y-130059660D01*
X137743241Y-130027780D01*
X137807693Y-130024039D01*
X137894187Y-130034125D01*
G37*
G36*
X139848033Y-129057202D02*
G01*
X139879913Y-129104779D01*
X139883654Y-129169231D01*
X139873568Y-129255725D01*
X139825991Y-129287605D01*
X139761539Y-129291346D01*
X139675044Y-129281260D01*
X139643164Y-129233683D01*
X139639423Y-129169231D01*
X139649510Y-129082737D01*
X139697087Y-129050857D01*
X139761539Y-129047116D01*
X139848033Y-129057202D01*
G37*
G36*
X140824956Y-122707202D02*
G01*
X140856836Y-122754779D01*
X140860577Y-122819231D01*
X140850491Y-122905725D01*
X140802914Y-122937605D01*
X140738462Y-122941346D01*
X140651968Y-122931260D01*
X140620087Y-122883683D01*
X140616346Y-122819231D01*
X140626433Y-122732737D01*
X140674010Y-122700857D01*
X140738462Y-122697116D01*
X140824956Y-122707202D01*
G37*
G36*
X141801879Y-126126433D02*
G01*
X141833759Y-126174010D01*
X141837500Y-126238462D01*
X141827414Y-126324956D01*
X141779837Y-126356836D01*
X141715385Y-126360577D01*
X141628891Y-126350491D01*
X141597011Y-126302914D01*
X141593270Y-126238462D01*
X141603356Y-126151968D01*
X141650933Y-126120087D01*
X141715385Y-126116346D01*
X141801879Y-126126433D01*
G37*
G36*
X142290341Y-125149510D02*
G01*
X142322221Y-125197087D01*
X142325962Y-125261539D01*
X142315876Y-125348033D01*
X142268298Y-125379913D01*
X142203846Y-125383654D01*
X142117352Y-125373568D01*
X142085472Y-125325991D01*
X142081731Y-125261539D01*
X142091817Y-125175044D01*
X142139394Y-125143164D01*
X142203846Y-125139423D01*
X142290341Y-125149510D01*
G37*
G36*
X142778802Y-122707202D02*
G01*
X142810682Y-122754779D01*
X142814423Y-122819231D01*
X142804337Y-122905725D01*
X142756760Y-122937605D01*
X142692308Y-122941346D01*
X142605814Y-122931260D01*
X142573934Y-122883683D01*
X142570193Y-122819231D01*
X142580279Y-122732737D01*
X142627856Y-122700857D01*
X142692308Y-122697116D01*
X142778802Y-122707202D01*
G37*
G36*
X143267264Y-128568740D02*
G01*
X143299144Y-128616318D01*
X143302885Y-128680770D01*
X143292799Y-128767264D01*
X143245221Y-128799144D01*
X143180770Y-128802885D01*
X143094275Y-128792799D01*
X143062395Y-128745221D01*
X143058654Y-128680770D01*
X143068740Y-128594275D01*
X143116318Y-128562395D01*
X143180770Y-128558654D01*
X143267264Y-128568740D01*
G37*
G36*
X144732648Y-128080279D02*
G01*
X144764528Y-128127856D01*
X144768270Y-128192308D01*
X144758183Y-128278802D01*
X144710606Y-128310682D01*
X144646154Y-128314423D01*
X144559660Y-128304337D01*
X144527780Y-128256760D01*
X144524039Y-128192308D01*
X144534125Y-128105814D01*
X144581702Y-128073934D01*
X144646154Y-128070193D01*
X144732648Y-128080279D01*
G37*
G36*
X136220193Y-126726923D02*
G01*
X136210106Y-126813418D01*
X136162529Y-126845298D01*
X136098077Y-126849039D01*
X136011583Y-126859125D01*
X135979703Y-126906702D01*
X135975962Y-126971154D01*
X135965876Y-127057648D01*
X135918298Y-127089528D01*
X135853846Y-127093270D01*
X135731731Y-127093270D01*
X135731731Y-126849039D01*
X135731731Y-126604808D01*
X135975962Y-126604808D01*
X136220193Y-126604808D01*
X136220193Y-126726923D01*
G37*
G36*
X137894187Y-126614894D02*
G01*
X137926067Y-126662471D01*
X137929808Y-126726923D01*
X137939894Y-126813418D01*
X137987471Y-126845298D01*
X138051923Y-126849039D01*
X138138418Y-126859125D01*
X138170298Y-126906702D01*
X138174039Y-126971154D01*
X138174039Y-127093270D01*
X137929808Y-127093270D01*
X137685577Y-127093270D01*
X137685577Y-126849039D01*
X137685577Y-126604808D01*
X137807693Y-126604808D01*
X137894187Y-126614894D01*
G37*
G36*
X139848033Y-123439894D02*
G01*
X139879913Y-123487471D01*
X139883654Y-123551923D01*
X139883654Y-123674039D01*
X140127885Y-123674039D01*
X140372116Y-123674039D01*
X140372116Y-123918270D01*
X140372116Y-124162500D01*
X140127885Y-124162500D01*
X139883654Y-124162500D01*
X139883654Y-124040385D01*
X139873568Y-123953891D01*
X139825991Y-123922011D01*
X139761539Y-123918270D01*
X139639423Y-123918270D01*
X139639423Y-123674039D01*
X139639423Y-123429808D01*
X139761539Y-123429808D01*
X139848033Y-123439894D01*
G37*
G36*
X139603802Y-124172586D02*
G01*
X139635682Y-124220164D01*
X139639423Y-124284616D01*
X139639423Y-124406731D01*
X140005770Y-124406731D01*
X140372116Y-124406731D01*
X140372116Y-124650962D01*
X140372116Y-124895193D01*
X140250000Y-124895193D01*
X140163506Y-124885106D01*
X140131626Y-124837529D01*
X140127885Y-124773077D01*
X140127885Y-124650962D01*
X139883654Y-124650962D01*
X139639423Y-124650962D01*
X139639423Y-124773077D01*
X139629337Y-124859571D01*
X139581760Y-124891452D01*
X139517308Y-124895193D01*
X139395193Y-124895193D01*
X139395193Y-124528846D01*
X139395193Y-124162500D01*
X139517308Y-124162500D01*
X139603802Y-124172586D01*
G37*
G36*
X143755725Y-129789894D02*
G01*
X143787605Y-129837471D01*
X143791346Y-129901923D01*
X143781260Y-129988418D01*
X143733683Y-130020298D01*
X143669231Y-130024039D01*
X143582737Y-130034125D01*
X143550857Y-130081702D01*
X143547116Y-130146154D01*
X143537029Y-130232648D01*
X143489452Y-130264528D01*
X143425000Y-130268270D01*
X143338506Y-130258183D01*
X143306626Y-130210606D01*
X143302885Y-130146154D01*
X143312971Y-130059660D01*
X143360548Y-130027780D01*
X143425000Y-130024039D01*
X143511495Y-130013953D01*
X143543375Y-129966375D01*
X143547116Y-129901923D01*
X143557202Y-129815429D01*
X143604779Y-129783549D01*
X143669231Y-129779808D01*
X143755725Y-129789894D01*
G37*
G36*
X144732648Y-123195663D02*
G01*
X144764528Y-123243241D01*
X144768270Y-123307693D01*
X144758183Y-123394187D01*
X144710606Y-123426067D01*
X144646154Y-123429808D01*
X144559660Y-123439894D01*
X144527780Y-123487471D01*
X144524039Y-123551923D01*
X144513953Y-123638418D01*
X144466375Y-123670298D01*
X144401923Y-123674039D01*
X144315429Y-123663953D01*
X144283549Y-123616375D01*
X144279808Y-123551923D01*
X144289894Y-123465429D01*
X144337471Y-123433549D01*
X144401923Y-123429808D01*
X144488418Y-123419722D01*
X144520298Y-123372145D01*
X144524039Y-123307693D01*
X144534125Y-123221198D01*
X144581702Y-123189318D01*
X144646154Y-123185577D01*
X144732648Y-123195663D01*
G37*
G36*
X138418270Y-123796154D02*
G01*
X138418270Y-123918270D01*
X138662500Y-123918270D01*
X138906731Y-123918270D01*
X138906731Y-123796154D01*
X138916817Y-123709660D01*
X138964394Y-123677780D01*
X139028846Y-123674039D01*
X139150962Y-123674039D01*
X139150962Y-123918270D01*
X139150962Y-124162500D01*
X139028846Y-124162500D01*
X138942352Y-124172586D01*
X138910472Y-124220164D01*
X138906731Y-124284616D01*
X138906731Y-124406731D01*
X138662500Y-124406731D01*
X138418270Y-124406731D01*
X138418270Y-124162500D01*
X138418270Y-123918270D01*
X138174039Y-123918270D01*
X137929808Y-123918270D01*
X137929808Y-123796154D01*
X137929808Y-123674039D01*
X138174039Y-123674039D01*
X138418270Y-123674039D01*
X138418270Y-123796154D01*
G37*
G36*
X137441346Y-122086539D02*
G01*
X137441346Y-122941346D01*
X136586539Y-122941346D01*
X135731731Y-122941346D01*
X135731731Y-122250141D01*
X135982157Y-122250141D01*
X135982691Y-122429360D01*
X135986239Y-122564569D01*
X135992540Y-122638900D01*
X135994230Y-122645303D01*
X136020624Y-122667269D01*
X136086979Y-122681695D01*
X136203967Y-122689341D01*
X136382264Y-122690964D01*
X136595868Y-122688062D01*
X137176763Y-122676763D01*
X137176763Y-122086539D01*
X137176763Y-121496314D01*
X136586539Y-121496314D01*
X135996314Y-121496314D01*
X135984900Y-122043780D01*
X135982157Y-122250141D01*
X135731731Y-122250141D01*
X135731731Y-122086539D01*
X135731731Y-121231731D01*
X136586539Y-121231731D01*
X137441346Y-121231731D01*
X137441346Y-122086539D01*
G37*
G36*
X137441346Y-129413462D02*
G01*
X137441346Y-130268270D01*
X136586539Y-130268270D01*
X135731731Y-130268270D01*
X135731731Y-129577064D01*
X135982157Y-129577064D01*
X135982691Y-129756283D01*
X135986239Y-129891492D01*
X135992540Y-129965823D01*
X135994230Y-129972226D01*
X136020624Y-129994192D01*
X136086979Y-130008618D01*
X136203967Y-130016264D01*
X136382264Y-130017887D01*
X136595868Y-130014985D01*
X137176763Y-130003686D01*
X137176763Y-129413462D01*
X137176763Y-128823237D01*
X136586539Y-128823237D01*
X135996314Y-128823237D01*
X135984900Y-129370703D01*
X135982157Y-129577064D01*
X135731731Y-129577064D01*
X135731731Y-129413462D01*
X135731731Y-128558654D01*
X136586539Y-128558654D01*
X137441346Y-128558654D01*
X137441346Y-129413462D01*
G37*
G36*
X144768270Y-122086539D02*
G01*
X144768270Y-122941346D01*
X143913462Y-122941346D01*
X143058654Y-122941346D01*
X143058654Y-122250141D01*
X143309080Y-122250141D01*
X143309614Y-122429360D01*
X143313162Y-122564569D01*
X143319463Y-122638900D01*
X143321153Y-122645303D01*
X143347547Y-122667269D01*
X143413902Y-122681695D01*
X143530890Y-122689341D01*
X143709187Y-122690964D01*
X143922791Y-122688062D01*
X144503686Y-122676763D01*
X144503686Y-122086539D01*
X144503686Y-121496314D01*
X143913462Y-121496314D01*
X143323237Y-121496314D01*
X143311823Y-122043780D01*
X143309080Y-122250141D01*
X143058654Y-122250141D01*
X143058654Y-122086539D01*
X143058654Y-121231731D01*
X143913462Y-121231731D01*
X144768270Y-121231731D01*
X144768270Y-122086539D01*
G37*
G36*
X141557648Y-126614894D02*
G01*
X141589528Y-126662471D01*
X141593270Y-126726923D01*
X141603356Y-126813418D01*
X141650933Y-126845298D01*
X141715385Y-126849039D01*
X141837500Y-126849039D01*
X141837500Y-127093270D01*
X141837500Y-127337500D01*
X141715385Y-127337500D01*
X141628891Y-127327414D01*
X141597011Y-127279837D01*
X141593270Y-127215385D01*
X141583183Y-127128891D01*
X141535606Y-127097011D01*
X141471154Y-127093270D01*
X141384660Y-127103356D01*
X141352780Y-127150933D01*
X141349039Y-127215385D01*
X141338953Y-127301879D01*
X141291375Y-127333759D01*
X141226923Y-127337500D01*
X141104808Y-127337500D01*
X141104808Y-127093270D01*
X141104808Y-126849039D01*
X141226923Y-126849039D01*
X141313418Y-126838953D01*
X141345298Y-126791375D01*
X141349039Y-126726923D01*
X141349039Y-126604808D01*
X141471154Y-126604808D01*
X141557648Y-126614894D01*
G37*
G36*
X136673033Y-127591817D02*
G01*
X136704913Y-127639394D01*
X136708654Y-127703846D01*
X136718740Y-127790341D01*
X136766318Y-127822221D01*
X136830770Y-127825962D01*
X136917264Y-127836048D01*
X136949144Y-127883625D01*
X136952885Y-127948077D01*
X136942799Y-128034571D01*
X136895221Y-128066452D01*
X136830770Y-128070193D01*
X136744275Y-128080279D01*
X136712395Y-128127856D01*
X136708654Y-128192308D01*
X136708654Y-128314423D01*
X136220193Y-128314423D01*
X135731731Y-128314423D01*
X135731731Y-128192308D01*
X135731731Y-128070193D01*
X136220193Y-128070193D01*
X136708654Y-128070193D01*
X136708654Y-127948077D01*
X136698568Y-127861583D01*
X136650991Y-127829703D01*
X136586539Y-127825962D01*
X136500044Y-127815876D01*
X136468164Y-127768298D01*
X136464423Y-127703846D01*
X136474510Y-127617352D01*
X136522087Y-127585472D01*
X136586539Y-127581731D01*
X136673033Y-127591817D01*
G37*
G36*
X143511495Y-123684125D02*
G01*
X143543375Y-123731702D01*
X143547116Y-123796154D01*
X143537029Y-123882648D01*
X143489452Y-123914528D01*
X143425000Y-123918270D01*
X143338506Y-123928356D01*
X143306626Y-123975933D01*
X143302885Y-124040385D01*
X143312971Y-124126879D01*
X143360548Y-124158759D01*
X143425000Y-124162500D01*
X143511495Y-124172586D01*
X143543375Y-124220164D01*
X143547116Y-124284616D01*
X143547116Y-124406731D01*
X143180770Y-124406731D01*
X142814423Y-124406731D01*
X142814423Y-124284616D01*
X142824510Y-124198121D01*
X142872087Y-124166241D01*
X142936539Y-124162500D01*
X143023033Y-124152414D01*
X143054913Y-124104837D01*
X143058654Y-124040385D01*
X143068740Y-123953891D01*
X143116318Y-123922011D01*
X143180770Y-123918270D01*
X143267264Y-123908183D01*
X143299144Y-123860606D01*
X143302885Y-123796154D01*
X143312971Y-123709660D01*
X143360548Y-123677780D01*
X143425000Y-123674039D01*
X143511495Y-123684125D01*
G37*
G36*
X137929808Y-124406731D02*
G01*
X137929808Y-124650962D01*
X138174039Y-124650962D01*
X138418270Y-124650962D01*
X138418270Y-124773077D01*
X138428356Y-124859571D01*
X138475933Y-124891452D01*
X138540385Y-124895193D01*
X138626879Y-124885106D01*
X138658759Y-124837529D01*
X138662500Y-124773077D01*
X138672586Y-124686583D01*
X138720164Y-124654703D01*
X138784616Y-124650962D01*
X138871110Y-124661048D01*
X138902990Y-124708625D01*
X138906731Y-124773077D01*
X138916817Y-124859571D01*
X138964394Y-124891452D01*
X139028846Y-124895193D01*
X139115341Y-124905279D01*
X139147221Y-124952856D01*
X139150962Y-125017308D01*
X139150962Y-125139423D01*
X139517308Y-125139423D01*
X139883654Y-125139423D01*
X139883654Y-125261539D01*
X139883654Y-125383654D01*
X139639423Y-125383654D01*
X139395193Y-125383654D01*
X139395193Y-125505770D01*
X139405279Y-125592264D01*
X139452856Y-125624144D01*
X139517308Y-125627885D01*
X139603802Y-125637971D01*
X139635682Y-125685548D01*
X139639423Y-125750000D01*
X139639423Y-125872116D01*
X140005770Y-125872116D01*
X140372116Y-125872116D01*
X140372116Y-125750000D01*
X140362029Y-125663506D01*
X140314452Y-125631626D01*
X140250000Y-125627885D01*
X140163506Y-125617799D01*
X140131626Y-125570221D01*
X140127885Y-125505770D01*
X140127885Y-125383654D01*
X140372116Y-125383654D01*
X140616346Y-125383654D01*
X140616346Y-125627885D01*
X140616346Y-125872116D01*
X140738462Y-125872116D01*
X140824956Y-125862029D01*
X140856836Y-125814452D01*
X140860577Y-125750000D01*
X140870663Y-125663506D01*
X140918241Y-125631626D01*
X140982693Y-125627885D01*
X141069187Y-125617799D01*
X141101067Y-125570221D01*
X141104808Y-125505770D01*
X141114894Y-125419275D01*
X141162471Y-125387395D01*
X141226923Y-125383654D01*
X141313418Y-125393740D01*
X141345298Y-125441318D01*
X141349039Y-125505770D01*
X141359125Y-125592264D01*
X141406702Y-125624144D01*
X141471154Y-125627885D01*
X141593270Y-125627885D01*
X141593270Y-125383654D01*
X141593270Y-125139423D01*
X141715385Y-125139423D01*
X141837500Y-125139423D01*
X141837500Y-125383654D01*
X141837500Y-125627885D01*
X141715385Y-125627885D01*
X141628891Y-125637971D01*
X141597011Y-125685548D01*
X141593270Y-125750000D01*
X141593270Y-125872116D01*
X141349039Y-125872116D01*
X141104808Y-125872116D01*
X141104808Y-125994231D01*
X141114894Y-126080725D01*
X141162471Y-126112605D01*
X141226923Y-126116346D01*
X141349039Y-126116346D01*
X141349039Y-126360577D01*
X141349039Y-126604808D01*
X141104808Y-126604808D01*
X140860577Y-126604808D01*
X140860577Y-126482693D01*
X140850491Y-126396198D01*
X140802914Y-126364318D01*
X140738462Y-126360577D01*
X140651968Y-126370663D01*
X140620087Y-126418241D01*
X140616346Y-126482693D01*
X140616346Y-126604808D01*
X140372116Y-126604808D01*
X140127885Y-126604808D01*
X140127885Y-126482693D01*
X140117799Y-126396198D01*
X140070221Y-126364318D01*
X140005770Y-126360577D01*
X139919275Y-126350491D01*
X139887395Y-126302914D01*
X139883654Y-126238462D01*
X139883654Y-126116346D01*
X140127885Y-126116346D01*
X140127885Y-126238462D01*
X140127885Y-126360577D01*
X140372116Y-126360577D01*
X140616346Y-126360577D01*
X140616346Y-126238462D01*
X140616346Y-126116346D01*
X140372116Y-126116346D01*
X140127885Y-126116346D01*
X139883654Y-126116346D01*
X139639423Y-126116346D01*
X139395193Y-126116346D01*
X139395193Y-126238462D01*
X139385106Y-126324956D01*
X139337529Y-126356836D01*
X139273077Y-126360577D01*
X139186583Y-126370663D01*
X139154703Y-126418241D01*
X139150962Y-126482693D01*
X139140876Y-126569187D01*
X139093298Y-126601067D01*
X139028846Y-126604808D01*
X138906731Y-126604808D01*
X138906731Y-126360577D01*
X138906731Y-126116346D01*
X139028846Y-126116346D01*
X139115341Y-126106260D01*
X139147221Y-126058683D01*
X139150962Y-125994231D01*
X139161048Y-125907737D01*
X139208625Y-125875857D01*
X139273077Y-125872116D01*
X139359571Y-125862029D01*
X139391452Y-125814452D01*
X139395193Y-125750000D01*
X139395193Y-125627885D01*
X139150962Y-125627885D01*
X138906731Y-125627885D01*
X138906731Y-125261539D01*
X138906731Y-124895193D01*
X138784616Y-124895193D01*
X138662500Y-124895193D01*
X138662500Y-125383654D01*
X138662500Y-125872116D01*
X138540385Y-125872116D01*
X138418270Y-125872116D01*
X138418270Y-125627885D01*
X138418270Y-125383654D01*
X138296154Y-125383654D01*
X138174039Y-125383654D01*
X138174039Y-125139423D01*
X138174039Y-124895193D01*
X138051923Y-124895193D01*
X137965429Y-124885106D01*
X137933549Y-124837529D01*
X137929808Y-124773077D01*
X137919722Y-124686583D01*
X137872145Y-124654703D01*
X137807693Y-124650962D01*
X137721198Y-124661048D01*
X137689318Y-124708625D01*
X137685577Y-124773077D01*
X137685577Y-124895193D01*
X137441346Y-124895193D01*
X137197116Y-124895193D01*
X137197116Y-124773077D01*
X137197116Y-124650962D01*
X137441346Y-124650962D01*
X137685577Y-124650962D01*
X137685577Y-124406731D01*
X137685577Y-124162500D01*
X137807693Y-124162500D01*
X137929808Y-124162500D01*
X137929808Y-124406731D01*
G37*
G36*
X136952885Y-124895193D02*
G01*
X136952885Y-125139423D01*
X137319231Y-125139423D01*
X137685577Y-125139423D01*
X137685577Y-125383654D01*
X137685577Y-125627885D01*
X137807693Y-125627885D01*
X137894187Y-125637971D01*
X137926067Y-125685548D01*
X137929808Y-125750000D01*
X137929808Y-125872116D01*
X137563462Y-125872116D01*
X137197116Y-125872116D01*
X137197116Y-125994231D01*
X137197116Y-126116346D01*
X137563462Y-126116346D01*
X137929808Y-126116346D01*
X137929808Y-125994231D01*
X137939894Y-125907737D01*
X137987471Y-125875857D01*
X138051923Y-125872116D01*
X138138418Y-125882202D01*
X138170298Y-125929779D01*
X138174039Y-125994231D01*
X138174039Y-126116346D01*
X138418270Y-126116346D01*
X138662500Y-126116346D01*
X138662500Y-126238462D01*
X138662500Y-126360577D01*
X138418270Y-126360577D01*
X138174039Y-126360577D01*
X138174039Y-126482693D01*
X138163953Y-126569187D01*
X138116375Y-126601067D01*
X138051923Y-126604808D01*
X137965429Y-126594722D01*
X137933549Y-126547145D01*
X137929808Y-126482693D01*
X137919722Y-126396198D01*
X137872145Y-126364318D01*
X137807693Y-126360577D01*
X137721198Y-126370663D01*
X137689318Y-126418241D01*
X137685577Y-126482693D01*
X137675491Y-126569187D01*
X137627914Y-126601067D01*
X137563462Y-126604808D01*
X137476968Y-126594722D01*
X137445087Y-126547145D01*
X137441346Y-126482693D01*
X137431260Y-126396198D01*
X137383683Y-126364318D01*
X137319231Y-126360577D01*
X137232737Y-126370663D01*
X137200857Y-126418241D01*
X137197116Y-126482693D01*
X137207202Y-126569187D01*
X137254779Y-126601067D01*
X137319231Y-126604808D01*
X137405725Y-126614894D01*
X137437605Y-126662471D01*
X137441346Y-126726923D01*
X137441346Y-126849039D01*
X137197116Y-126849039D01*
X136952885Y-126849039D01*
X136952885Y-126971154D01*
X136952885Y-127093270D01*
X137197116Y-127093270D01*
X137441346Y-127093270D01*
X137441346Y-127215385D01*
X137431260Y-127301879D01*
X137383683Y-127333759D01*
X137319231Y-127337500D01*
X137232737Y-127347586D01*
X137200857Y-127395164D01*
X137197116Y-127459616D01*
X137207202Y-127546110D01*
X137254779Y-127577990D01*
X137319231Y-127581731D01*
X137405725Y-127571645D01*
X137437605Y-127524068D01*
X137441346Y-127459616D01*
X137441346Y-127337500D01*
X137807693Y-127337500D01*
X138174039Y-127337500D01*
X138174039Y-127215385D01*
X138184125Y-127128891D01*
X138231702Y-127097011D01*
X138296154Y-127093270D01*
X138382648Y-127083183D01*
X138414528Y-127035606D01*
X138418270Y-126971154D01*
X138418270Y-126849039D01*
X138784616Y-126849039D01*
X139150962Y-126849039D01*
X139150962Y-126726923D01*
X139161048Y-126640429D01*
X139208625Y-126608549D01*
X139273077Y-126604808D01*
X139359571Y-126594722D01*
X139391452Y-126547145D01*
X139395193Y-126482693D01*
X139395193Y-126360577D01*
X139639423Y-126360577D01*
X139883654Y-126360577D01*
X139883654Y-126482693D01*
X139893740Y-126569187D01*
X139941318Y-126601067D01*
X140005770Y-126604808D01*
X140092264Y-126614894D01*
X140124144Y-126662471D01*
X140127885Y-126726923D01*
X140127885Y-126849039D01*
X140372116Y-126849039D01*
X140616346Y-126849039D01*
X140616346Y-126726923D01*
X140626433Y-126640429D01*
X140674010Y-126608549D01*
X140738462Y-126604808D01*
X140860577Y-126604808D01*
X140860577Y-126849039D01*
X140860577Y-127093270D01*
X140616346Y-127093270D01*
X140372116Y-127093270D01*
X140372116Y-127215385D01*
X140362029Y-127301879D01*
X140314452Y-127333759D01*
X140250000Y-127337500D01*
X140163506Y-127347586D01*
X140131626Y-127395164D01*
X140127885Y-127459616D01*
X140117799Y-127546110D01*
X140070221Y-127577990D01*
X140005770Y-127581731D01*
X139919275Y-127591817D01*
X139887395Y-127639394D01*
X139883654Y-127703846D01*
X139893740Y-127790341D01*
X139941318Y-127822221D01*
X140005770Y-127825962D01*
X140092264Y-127815876D01*
X140124144Y-127768298D01*
X140127885Y-127703846D01*
X140137971Y-127617352D01*
X140185548Y-127585472D01*
X140250000Y-127581731D01*
X140372116Y-127581731D01*
X140372116Y-127825962D01*
X140372116Y-128070193D01*
X140250000Y-128070193D01*
X140163506Y-128080279D01*
X140131626Y-128127856D01*
X140127885Y-128192308D01*
X140137971Y-128278802D01*
X140185548Y-128310682D01*
X140250000Y-128314423D01*
X140372116Y-128314423D01*
X140372116Y-128558654D01*
X140372116Y-128802885D01*
X140250000Y-128802885D01*
X140163506Y-128792799D01*
X140131626Y-128745221D01*
X140127885Y-128680770D01*
X140117799Y-128594275D01*
X140070221Y-128562395D01*
X140005770Y-128558654D01*
X139919275Y-128568740D01*
X139887395Y-128616318D01*
X139883654Y-128680770D01*
X139873568Y-128767264D01*
X139825991Y-128799144D01*
X139761539Y-128802885D01*
X139675044Y-128812971D01*
X139643164Y-128860548D01*
X139639423Y-128925000D01*
X139629337Y-129011495D01*
X139581760Y-129043375D01*
X139517308Y-129047116D01*
X139430814Y-129057202D01*
X139398934Y-129104779D01*
X139395193Y-129169231D01*
X139385106Y-129255725D01*
X139337529Y-129287605D01*
X139273077Y-129291346D01*
X139186583Y-129301433D01*
X139154703Y-129349010D01*
X139150962Y-129413462D01*
X139140876Y-129499956D01*
X139093298Y-129531836D01*
X139028846Y-129535577D01*
X138942352Y-129525491D01*
X138910472Y-129477914D01*
X138906731Y-129413462D01*
X138906731Y-129291346D01*
X138662500Y-129291346D01*
X138418270Y-129291346D01*
X138418270Y-129535577D01*
X138418270Y-129779808D01*
X138174039Y-129779808D01*
X137929808Y-129779808D01*
X137929808Y-129657693D01*
X137939894Y-129571198D01*
X137987471Y-129539318D01*
X138051923Y-129535577D01*
X138138418Y-129525491D01*
X138170298Y-129477914D01*
X138174039Y-129413462D01*
X138184125Y-129326968D01*
X138231702Y-129295087D01*
X138296154Y-129291346D01*
X138382648Y-129281260D01*
X138414528Y-129233683D01*
X138418270Y-129169231D01*
X138418270Y-129047116D01*
X138174039Y-129047116D01*
X137929808Y-129047116D01*
X137929808Y-129169231D01*
X137919722Y-129255725D01*
X137872145Y-129287605D01*
X137807693Y-129291346D01*
X137721198Y-129281260D01*
X137689318Y-129233683D01*
X137685577Y-129169231D01*
X137695663Y-129082737D01*
X137743241Y-129050857D01*
X137807693Y-129047116D01*
X137894187Y-129037029D01*
X137926067Y-128989452D01*
X137929808Y-128925000D01*
X137919722Y-128838506D01*
X137872145Y-128806626D01*
X137807693Y-128802885D01*
X137685577Y-128802885D01*
X137685577Y-128558654D01*
X137685577Y-128314423D01*
X137929808Y-128314423D01*
X138174039Y-128314423D01*
X138174039Y-128558654D01*
X138174039Y-128802885D01*
X138296154Y-128802885D01*
X138382648Y-128792799D01*
X138414528Y-128745221D01*
X138418270Y-128680770D01*
X138428356Y-128594275D01*
X138475933Y-128562395D01*
X138540385Y-128558654D01*
X138662500Y-128558654D01*
X138662500Y-128802885D01*
X138662500Y-129047116D01*
X138784616Y-129047116D01*
X138906731Y-129047116D01*
X138906731Y-128680770D01*
X138906731Y-128314423D01*
X139150962Y-128314423D01*
X139395193Y-128314423D01*
X139395193Y-128192308D01*
X139385106Y-128105814D01*
X139337529Y-128073934D01*
X139273077Y-128070193D01*
X139150962Y-128070193D01*
X139150962Y-127703846D01*
X139150962Y-127337500D01*
X139273077Y-127337500D01*
X139395193Y-127337500D01*
X139395193Y-127703846D01*
X139395193Y-128070193D01*
X139639423Y-128070193D01*
X139883654Y-128070193D01*
X139883654Y-127948077D01*
X139873568Y-127861583D01*
X139825991Y-127829703D01*
X139761539Y-127825962D01*
X139639423Y-127825962D01*
X139639423Y-127581731D01*
X139639423Y-127337500D01*
X139883654Y-127337500D01*
X140127885Y-127337500D01*
X140127885Y-127215385D01*
X140127885Y-127093270D01*
X139883654Y-127093270D01*
X139639423Y-127093270D01*
X139639423Y-126971154D01*
X139639423Y-126849039D01*
X139395193Y-126849039D01*
X139150962Y-126849039D01*
X139150962Y-126971154D01*
X139140876Y-127057648D01*
X139093298Y-127089528D01*
X139028846Y-127093270D01*
X138906731Y-127093270D01*
X138906731Y-127581731D01*
X138906731Y-128070193D01*
X138784616Y-128070193D01*
X138698121Y-128080279D01*
X138666241Y-128127856D01*
X138662500Y-128192308D01*
X138652414Y-128278802D01*
X138604837Y-128310682D01*
X138540385Y-128314423D01*
X138453891Y-128304337D01*
X138422011Y-128256760D01*
X138418270Y-128192308D01*
X138408183Y-128105814D01*
X138360606Y-128073934D01*
X138296154Y-128070193D01*
X138209660Y-128060106D01*
X138177780Y-128012529D01*
X138174039Y-127948077D01*
X138163953Y-127861583D01*
X138116375Y-127829703D01*
X138051923Y-127825962D01*
X137965429Y-127836048D01*
X137933549Y-127883625D01*
X137929808Y-127948077D01*
X137919722Y-128034571D01*
X137872145Y-128066452D01*
X137807693Y-128070193D01*
X137721198Y-128060106D01*
X137689318Y-128012529D01*
X137685577Y-127948077D01*
X137685577Y-127825962D01*
X137441346Y-127825962D01*
X137197116Y-127825962D01*
X137197116Y-127703846D01*
X137685577Y-127703846D01*
X137695663Y-127790341D01*
X137743241Y-127822221D01*
X137807693Y-127825962D01*
X137894187Y-127815876D01*
X137926067Y-127768298D01*
X137929808Y-127703846D01*
X137919722Y-127617352D01*
X137872145Y-127585472D01*
X137807693Y-127581731D01*
X138174039Y-127581731D01*
X138174039Y-127703846D01*
X138174039Y-127825962D01*
X138418270Y-127825962D01*
X138662500Y-127825962D01*
X138662500Y-127703846D01*
X138662500Y-127581731D01*
X138418270Y-127581731D01*
X138174039Y-127581731D01*
X137807693Y-127581731D01*
X137721198Y-127591817D01*
X137689318Y-127639394D01*
X137685577Y-127703846D01*
X137197116Y-127703846D01*
X137187029Y-127617352D01*
X137139452Y-127585472D01*
X137075000Y-127581731D01*
X136988506Y-127571645D01*
X136956626Y-127524068D01*
X136952885Y-127459616D01*
X136942799Y-127373121D01*
X136895221Y-127341241D01*
X136830770Y-127337500D01*
X136744275Y-127327414D01*
X136712395Y-127279837D01*
X136708654Y-127215385D01*
X136698568Y-127128891D01*
X136650991Y-127097011D01*
X136586539Y-127093270D01*
X136500044Y-127103356D01*
X136468164Y-127150933D01*
X136464423Y-127215385D01*
X136454337Y-127301879D01*
X136406760Y-127333759D01*
X136342308Y-127337500D01*
X136255814Y-127327414D01*
X136223934Y-127279837D01*
X136220193Y-127215385D01*
X136230279Y-127128891D01*
X136277856Y-127097011D01*
X136342308Y-127093270D01*
X136428802Y-127083183D01*
X136460682Y-127035606D01*
X136464423Y-126971154D01*
X136474510Y-126884660D01*
X136522087Y-126852780D01*
X136586539Y-126849039D01*
X136673033Y-126838953D01*
X136704913Y-126791375D01*
X136708654Y-126726923D01*
X136718740Y-126640429D01*
X136766318Y-126608549D01*
X136830770Y-126604808D01*
X136917264Y-126594722D01*
X136949144Y-126547145D01*
X136952885Y-126482693D01*
X136952885Y-126360577D01*
X136708654Y-126360577D01*
X136464423Y-126360577D01*
X136464423Y-126238462D01*
X136474510Y-126151968D01*
X136522087Y-126120087D01*
X136586539Y-126116346D01*
X136673033Y-126106260D01*
X136704913Y-126058683D01*
X136708654Y-125994231D01*
X136708654Y-125872116D01*
X136952885Y-125872116D01*
X137197116Y-125872116D01*
X137197116Y-125750000D01*
X137207202Y-125663506D01*
X137254779Y-125631626D01*
X137319231Y-125627885D01*
X137405725Y-125617799D01*
X137437605Y-125570221D01*
X137441346Y-125505770D01*
X137441346Y-125383654D01*
X137197116Y-125383654D01*
X136952885Y-125383654D01*
X136952885Y-125505770D01*
X136952885Y-125627885D01*
X136708654Y-125627885D01*
X136464423Y-125627885D01*
X136464423Y-125750000D01*
X136454337Y-125836495D01*
X136406760Y-125868375D01*
X136342308Y-125872116D01*
X136255814Y-125862029D01*
X136223934Y-125814452D01*
X136220193Y-125750000D01*
X136210106Y-125663506D01*
X136162529Y-125631626D01*
X136098077Y-125627885D01*
X136011583Y-125617799D01*
X135979703Y-125570221D01*
X135975962Y-125505770D01*
X135965876Y-125419275D01*
X135918298Y-125387395D01*
X135853846Y-125383654D01*
X135767352Y-125373568D01*
X135735472Y-125325991D01*
X135731731Y-125261539D01*
X135741817Y-125175044D01*
X135789394Y-125143164D01*
X135853846Y-125139423D01*
X135940341Y-125149510D01*
X135972221Y-125197087D01*
X135975962Y-125261539D01*
X135986048Y-125348033D01*
X136033625Y-125379913D01*
X136098077Y-125383654D01*
X136220193Y-125383654D01*
X136220193Y-125139423D01*
X136220193Y-124895193D01*
X136342308Y-124895193D01*
X136464423Y-124895193D01*
X136464423Y-125139423D01*
X136464423Y-125383654D01*
X136586539Y-125383654D01*
X136708654Y-125383654D01*
X136708654Y-125017308D01*
X136708654Y-124650962D01*
X136830770Y-124650962D01*
X136952885Y-124650962D01*
X136952885Y-124895193D01*
G37*
G36*
X138906731Y-121353846D02*
G01*
X138896645Y-121440341D01*
X138849068Y-121472221D01*
X138784616Y-121475962D01*
X138662500Y-121475962D01*
X138662500Y-121720193D01*
X138662500Y-121964423D01*
X138540385Y-121964423D01*
X138453891Y-121974510D01*
X138422011Y-122022087D01*
X138418270Y-122086539D01*
X138428356Y-122173033D01*
X138475933Y-122204913D01*
X138540385Y-122208654D01*
X138626879Y-122218740D01*
X138658759Y-122266318D01*
X138662500Y-122330770D01*
X138672586Y-122417264D01*
X138720164Y-122449144D01*
X138784616Y-122452885D01*
X138871110Y-122442799D01*
X138902990Y-122395221D01*
X138906731Y-122330770D01*
X138906731Y-122208654D01*
X139150962Y-122208654D01*
X139395193Y-122208654D01*
X139395193Y-122086539D01*
X139395193Y-121964423D01*
X139150962Y-121964423D01*
X138906731Y-121964423D01*
X138906731Y-121842308D01*
X138906731Y-121720193D01*
X139395193Y-121720193D01*
X139883654Y-121720193D01*
X139883654Y-121475962D01*
X139883654Y-121231731D01*
X140250000Y-121231731D01*
X140616346Y-121231731D01*
X140616346Y-121353846D01*
X140626433Y-121440341D01*
X140674010Y-121472221D01*
X140738462Y-121475962D01*
X140824956Y-121486048D01*
X140856836Y-121533625D01*
X140860577Y-121598077D01*
X140870663Y-121684571D01*
X140918241Y-121716452D01*
X140982693Y-121720193D01*
X141104808Y-121720193D01*
X141104808Y-121475962D01*
X141104808Y-121231731D01*
X141226923Y-121231731D01*
X141349039Y-121231731D01*
X141349039Y-121475962D01*
X141349039Y-121720193D01*
X141471154Y-121720193D01*
X141557648Y-121730279D01*
X141589528Y-121777856D01*
X141593270Y-121842308D01*
X141593270Y-121964423D01*
X141837500Y-121964423D01*
X142081731Y-121964423D01*
X142081731Y-121720193D01*
X142081731Y-121475962D01*
X141837500Y-121475962D01*
X141593270Y-121475962D01*
X141593270Y-121353846D01*
X141593270Y-121231731D01*
X142081731Y-121231731D01*
X142570193Y-121231731D01*
X142570193Y-121353846D01*
X142580279Y-121440341D01*
X142627856Y-121472221D01*
X142692308Y-121475962D01*
X142778802Y-121486048D01*
X142810682Y-121533625D01*
X142814423Y-121598077D01*
X142804337Y-121684571D01*
X142756760Y-121716452D01*
X142692308Y-121720193D01*
X142605814Y-121710106D01*
X142573934Y-121662529D01*
X142570193Y-121598077D01*
X142560106Y-121511583D01*
X142512529Y-121479703D01*
X142448077Y-121475962D01*
X142325962Y-121475962D01*
X142325962Y-121720193D01*
X142325962Y-121964423D01*
X142570193Y-121964423D01*
X142814423Y-121964423D01*
X142814423Y-122208654D01*
X142814423Y-122452885D01*
X142448077Y-122452885D01*
X142081731Y-122452885D01*
X142081731Y-122330770D01*
X142081731Y-122208654D01*
X141715385Y-122208654D01*
X141349039Y-122208654D01*
X141349039Y-122086539D01*
X141349039Y-121964423D01*
X141104808Y-121964423D01*
X140860577Y-121964423D01*
X140860577Y-122086539D01*
X140870663Y-122173033D01*
X140918241Y-122204913D01*
X140982693Y-122208654D01*
X141069187Y-122218740D01*
X141101067Y-122266318D01*
X141104808Y-122330770D01*
X141114894Y-122417264D01*
X141162471Y-122449144D01*
X141226923Y-122452885D01*
X141349039Y-122452885D01*
X141349039Y-122697116D01*
X141349039Y-122941346D01*
X141471154Y-122941346D01*
X141593270Y-122941346D01*
X141593270Y-122697116D01*
X141593270Y-122452885D01*
X141715385Y-122452885D01*
X141837500Y-122452885D01*
X141837500Y-122941346D01*
X141837500Y-123429808D01*
X141715385Y-123429808D01*
X141628891Y-123419722D01*
X141597011Y-123372145D01*
X141593270Y-123307693D01*
X141583183Y-123221198D01*
X141535606Y-123189318D01*
X141471154Y-123185577D01*
X141384660Y-123195663D01*
X141352780Y-123243241D01*
X141349039Y-123307693D01*
X141338953Y-123394187D01*
X141291375Y-123426067D01*
X141226923Y-123429808D01*
X141140429Y-123439894D01*
X141108549Y-123487471D01*
X141104808Y-123551923D01*
X141114894Y-123638418D01*
X141162471Y-123670298D01*
X141226923Y-123674039D01*
X141349039Y-123674039D01*
X141349039Y-123918270D01*
X141349039Y-124162500D01*
X141471154Y-124162500D01*
X141557648Y-124152414D01*
X141589528Y-124104837D01*
X141593270Y-124040385D01*
X141603356Y-123953891D01*
X141650933Y-123922011D01*
X141715385Y-123918270D01*
X141801879Y-123908183D01*
X141833759Y-123860606D01*
X141837500Y-123796154D01*
X141837500Y-123674039D01*
X142081731Y-123674039D01*
X142325962Y-123674039D01*
X142325962Y-123429808D01*
X142325962Y-123185577D01*
X142448077Y-123185577D01*
X142534571Y-123195663D01*
X142566452Y-123243241D01*
X142570193Y-123307693D01*
X142580279Y-123394187D01*
X142627856Y-123426067D01*
X142692308Y-123429808D01*
X142778802Y-123419722D01*
X142810682Y-123372145D01*
X142814423Y-123307693D01*
X142814423Y-123185577D01*
X143425000Y-123185577D01*
X144035577Y-123185577D01*
X144035577Y-123307693D01*
X144025491Y-123394187D01*
X143977914Y-123426067D01*
X143913462Y-123429808D01*
X143826968Y-123439894D01*
X143795087Y-123487471D01*
X143791346Y-123551923D01*
X143801433Y-123638418D01*
X143849010Y-123670298D01*
X143913462Y-123674039D01*
X143999956Y-123684125D01*
X144031836Y-123731702D01*
X144035577Y-123796154D01*
X144035577Y-123918270D01*
X144279808Y-123918270D01*
X144524039Y-123918270D01*
X144524039Y-124040385D01*
X144534125Y-124126879D01*
X144581702Y-124158759D01*
X144646154Y-124162500D01*
X144732648Y-124172586D01*
X144764528Y-124220164D01*
X144768270Y-124284616D01*
X144758183Y-124371110D01*
X144710606Y-124402990D01*
X144646154Y-124406731D01*
X144559660Y-124416817D01*
X144527780Y-124464394D01*
X144524039Y-124528846D01*
X144513953Y-124615341D01*
X144466375Y-124647221D01*
X144401923Y-124650962D01*
X144279808Y-124650962D01*
X144279808Y-124895193D01*
X144279808Y-125139423D01*
X144524039Y-125139423D01*
X144768270Y-125139423D01*
X144768270Y-125261539D01*
X144758183Y-125348033D01*
X144710606Y-125379913D01*
X144646154Y-125383654D01*
X144559660Y-125393740D01*
X144527780Y-125441318D01*
X144524039Y-125505770D01*
X144524039Y-125627885D01*
X144035577Y-125627885D01*
X143547116Y-125627885D01*
X143547116Y-125994231D01*
X143547116Y-126360577D01*
X143669231Y-126360577D01*
X143755725Y-126350491D01*
X143787605Y-126302914D01*
X143791346Y-126238462D01*
X143801433Y-126151968D01*
X143849010Y-126120087D01*
X143913462Y-126116346D01*
X143999956Y-126106260D01*
X144031836Y-126058683D01*
X144035577Y-125994231D01*
X144035577Y-125872116D01*
X144279808Y-125872116D01*
X144524039Y-125872116D01*
X144524039Y-125994231D01*
X144513953Y-126080725D01*
X144466375Y-126112605D01*
X144401923Y-126116346D01*
X144315429Y-126126433D01*
X144283549Y-126174010D01*
X144279808Y-126238462D01*
X144279808Y-126360577D01*
X144035577Y-126360577D01*
X143791346Y-126360577D01*
X143791346Y-126482693D01*
X143791346Y-126604808D01*
X144035577Y-126604808D01*
X144279808Y-126604808D01*
X144279808Y-126726923D01*
X144289894Y-126813418D01*
X144337471Y-126845298D01*
X144401923Y-126849039D01*
X144524039Y-126849039D01*
X144524039Y-127093270D01*
X144524039Y-127337500D01*
X144157693Y-127337500D01*
X143791346Y-127337500D01*
X143791346Y-127459616D01*
X143801433Y-127546110D01*
X143849010Y-127577990D01*
X143913462Y-127581731D01*
X143999956Y-127591817D01*
X144031836Y-127639394D01*
X144035577Y-127703846D01*
X144045663Y-127790341D01*
X144093241Y-127822221D01*
X144157693Y-127825962D01*
X144279808Y-127825962D01*
X144279808Y-128070193D01*
X144279808Y-128314423D01*
X144157693Y-128314423D01*
X144035577Y-128314423D01*
X144035577Y-128070193D01*
X144035577Y-127825962D01*
X143913462Y-127825962D01*
X143791346Y-127825962D01*
X143791346Y-128314423D01*
X143791346Y-128802885D01*
X144157693Y-128802885D01*
X144524039Y-128802885D01*
X144524039Y-129047116D01*
X144524039Y-129291346D01*
X144279808Y-129291346D01*
X144035577Y-129291346D01*
X144035577Y-129413462D01*
X144045663Y-129499956D01*
X144093241Y-129531836D01*
X144157693Y-129535577D01*
X144244187Y-129545663D01*
X144276067Y-129593241D01*
X144279808Y-129657693D01*
X144289894Y-129744187D01*
X144337471Y-129776067D01*
X144401923Y-129779808D01*
X144488418Y-129789894D01*
X144520298Y-129837471D01*
X144524039Y-129901923D01*
X144534125Y-129988418D01*
X144581702Y-130020298D01*
X144646154Y-130024039D01*
X144732648Y-130034125D01*
X144764528Y-130081702D01*
X144768270Y-130146154D01*
X144768270Y-130268270D01*
X144401923Y-130268270D01*
X144035577Y-130268270D01*
X144035577Y-129901923D01*
X144035577Y-129535577D01*
X143913462Y-129535577D01*
X143826968Y-129525491D01*
X143795087Y-129477914D01*
X143791346Y-129413462D01*
X143781260Y-129326968D01*
X143733683Y-129295087D01*
X143669231Y-129291346D01*
X143582737Y-129301433D01*
X143550857Y-129349010D01*
X143547116Y-129413462D01*
X143537029Y-129499956D01*
X143489452Y-129531836D01*
X143425000Y-129535577D01*
X143338506Y-129545663D01*
X143306626Y-129593241D01*
X143302885Y-129657693D01*
X143292799Y-129744187D01*
X143245221Y-129776067D01*
X143180770Y-129779808D01*
X143058654Y-129779808D01*
X143058654Y-130024039D01*
X143058654Y-130268270D01*
X142936539Y-130268270D01*
X142814423Y-130268270D01*
X142814423Y-129779808D01*
X142814423Y-129291346D01*
X142692308Y-129291346D01*
X142570193Y-129291346D01*
X142570193Y-128925000D01*
X142570193Y-128558654D01*
X142448077Y-128558654D01*
X142361583Y-128568740D01*
X142329703Y-128616318D01*
X142325962Y-128680770D01*
X142325962Y-128802885D01*
X141959616Y-128802885D01*
X141593270Y-128802885D01*
X141593270Y-128925000D01*
X141603356Y-129011495D01*
X141650933Y-129043375D01*
X141715385Y-129047116D01*
X141801879Y-129057202D01*
X141833759Y-129104779D01*
X141837500Y-129169231D01*
X141847586Y-129255725D01*
X141895164Y-129287605D01*
X141959616Y-129291346D01*
X142046110Y-129281260D01*
X142077990Y-129233683D01*
X142081731Y-129169231D01*
X142091817Y-129082737D01*
X142139394Y-129050857D01*
X142203846Y-129047116D01*
X142290341Y-129057202D01*
X142322221Y-129104779D01*
X142325962Y-129169231D01*
X142315876Y-129255725D01*
X142268298Y-129287605D01*
X142203846Y-129291346D01*
X142117352Y-129301433D01*
X142085472Y-129349010D01*
X142081731Y-129413462D01*
X142081731Y-129535577D01*
X142325962Y-129535577D01*
X142570193Y-129535577D01*
X142570193Y-129779808D01*
X142570193Y-130024039D01*
X142448077Y-130024039D01*
X142361583Y-130013953D01*
X142329703Y-129966375D01*
X142325962Y-129901923D01*
X142315876Y-129815429D01*
X142268298Y-129783549D01*
X142203846Y-129779808D01*
X142117352Y-129769722D01*
X142085472Y-129722145D01*
X142081731Y-129657693D01*
X142071645Y-129571198D01*
X142024068Y-129539318D01*
X141959616Y-129535577D01*
X141873121Y-129525491D01*
X141841241Y-129477914D01*
X141837500Y-129413462D01*
X141827414Y-129326968D01*
X141779837Y-129295087D01*
X141715385Y-129291346D01*
X141593270Y-129291346D01*
X141593270Y-129535577D01*
X141593270Y-129779808D01*
X141471154Y-129779808D01*
X141384660Y-129769722D01*
X141352780Y-129722145D01*
X141349039Y-129657693D01*
X141338953Y-129571198D01*
X141291375Y-129539318D01*
X141226923Y-129535577D01*
X141104808Y-129535577D01*
X141104808Y-129779808D01*
X141104808Y-130024039D01*
X141226923Y-130024039D01*
X141313418Y-130034125D01*
X141345298Y-130081702D01*
X141349039Y-130146154D01*
X141349039Y-130268270D01*
X141104808Y-130268270D01*
X140860577Y-130268270D01*
X140860577Y-130146154D01*
X140860577Y-130024039D01*
X140616346Y-130024039D01*
X140372116Y-130024039D01*
X140372116Y-129901923D01*
X140362029Y-129815429D01*
X140314452Y-129783549D01*
X140250000Y-129779808D01*
X140127885Y-129779808D01*
X140127885Y-130024039D01*
X140127885Y-130268270D01*
X139883654Y-130268270D01*
X139639423Y-130268270D01*
X139639423Y-130146154D01*
X139629337Y-130059660D01*
X139581760Y-130027780D01*
X139517308Y-130024039D01*
X139430814Y-130034125D01*
X139398934Y-130081702D01*
X139395193Y-130146154D01*
X139385106Y-130232648D01*
X139337529Y-130264528D01*
X139273077Y-130268270D01*
X139186583Y-130258183D01*
X139154703Y-130210606D01*
X139150962Y-130146154D01*
X139140876Y-130059660D01*
X139093298Y-130027780D01*
X139028846Y-130024039D01*
X138942352Y-130034125D01*
X138910472Y-130081702D01*
X138906731Y-130146154D01*
X138906731Y-130268270D01*
X138662500Y-130268270D01*
X138418270Y-130268270D01*
X138418270Y-130024039D01*
X138418270Y-129779808D01*
X138540385Y-129779808D01*
X138626879Y-129789894D01*
X138658759Y-129837471D01*
X138662500Y-129901923D01*
X138672586Y-129988418D01*
X138720164Y-130020298D01*
X138784616Y-130024039D01*
X138871110Y-130013953D01*
X138902990Y-129966375D01*
X138906731Y-129901923D01*
X138906731Y-129779808D01*
X139150962Y-129779808D01*
X139395193Y-129779808D01*
X139395193Y-129657693D01*
X139405279Y-129571198D01*
X139452856Y-129539318D01*
X139517308Y-129535577D01*
X139603802Y-129545663D01*
X139635682Y-129593241D01*
X139639423Y-129657693D01*
X139639423Y-129779808D01*
X139883654Y-129779808D01*
X140127885Y-129779808D01*
X140127885Y-129657693D01*
X140117799Y-129571198D01*
X140070221Y-129539318D01*
X140005770Y-129535577D01*
X139919275Y-129525491D01*
X139887395Y-129477914D01*
X139883654Y-129413462D01*
X139883654Y-129291346D01*
X140127885Y-129291346D01*
X140372116Y-129291346D01*
X140372116Y-129047116D01*
X140372116Y-128802885D01*
X140494231Y-128802885D01*
X140580725Y-128812971D01*
X140612605Y-128860548D01*
X140616346Y-128925000D01*
X140626433Y-129011495D01*
X140674010Y-129043375D01*
X140738462Y-129047116D01*
X140824956Y-129057202D01*
X140856836Y-129104779D01*
X140860577Y-129169231D01*
X140850491Y-129255725D01*
X140802914Y-129287605D01*
X140738462Y-129291346D01*
X140616346Y-129291346D01*
X140616346Y-129535577D01*
X140616346Y-129779808D01*
X140738462Y-129779808D01*
X140824956Y-129769722D01*
X140856836Y-129722145D01*
X140860577Y-129657693D01*
X140870663Y-129571198D01*
X140918241Y-129539318D01*
X140982693Y-129535577D01*
X141069187Y-129525491D01*
X141101067Y-129477914D01*
X141104808Y-129413462D01*
X141104808Y-129291346D01*
X141349039Y-129291346D01*
X141593270Y-129291346D01*
X141593270Y-129169231D01*
X141583183Y-129082737D01*
X141535606Y-129050857D01*
X141471154Y-129047116D01*
X141384660Y-129037029D01*
X141352780Y-128989452D01*
X141349039Y-128925000D01*
X141338953Y-128838506D01*
X141291375Y-128806626D01*
X141226923Y-128802885D01*
X141140429Y-128812971D01*
X141108549Y-128860548D01*
X141104808Y-128925000D01*
X141094722Y-129011495D01*
X141047145Y-129043375D01*
X140982693Y-129047116D01*
X140860577Y-129047116D01*
X140860577Y-128802885D01*
X140860577Y-128558654D01*
X141104808Y-128558654D01*
X141349039Y-128558654D01*
X141349039Y-128436539D01*
X141359125Y-128350044D01*
X141406702Y-128318164D01*
X141471154Y-128314423D01*
X141557648Y-128324510D01*
X141589528Y-128372087D01*
X141593270Y-128436539D01*
X141593270Y-128558654D01*
X141959616Y-128558654D01*
X142325962Y-128558654D01*
X142325962Y-128314423D01*
X142814423Y-128314423D01*
X142814423Y-128680770D01*
X142814423Y-129047116D01*
X143180770Y-129047116D01*
X143547116Y-129047116D01*
X143547116Y-128680770D01*
X143547116Y-128314423D01*
X143180770Y-128314423D01*
X142814423Y-128314423D01*
X142325962Y-128314423D01*
X142325962Y-128070193D01*
X142570193Y-128070193D01*
X142814423Y-128070193D01*
X142814423Y-127948077D01*
X142824510Y-127861583D01*
X142872087Y-127829703D01*
X142936539Y-127825962D01*
X143023033Y-127836048D01*
X143054913Y-127883625D01*
X143058654Y-127948077D01*
X143068740Y-128034571D01*
X143116318Y-128066452D01*
X143180770Y-128070193D01*
X143267264Y-128060106D01*
X143299144Y-128012529D01*
X143302885Y-127948077D01*
X143302885Y-127825962D01*
X143547116Y-127825962D01*
X143791346Y-127825962D01*
X143791346Y-127703846D01*
X143781260Y-127617352D01*
X143733683Y-127585472D01*
X143669231Y-127581731D01*
X143582737Y-127571645D01*
X143550857Y-127524068D01*
X143547116Y-127459616D01*
X143557202Y-127373121D01*
X143604779Y-127341241D01*
X143669231Y-127337500D01*
X143755725Y-127327414D01*
X143787605Y-127279837D01*
X143791346Y-127215385D01*
X143801433Y-127128891D01*
X143849010Y-127097011D01*
X143913462Y-127093270D01*
X143999956Y-127083183D01*
X144031836Y-127035606D01*
X144035577Y-126971154D01*
X144025491Y-126884660D01*
X143977914Y-126852780D01*
X143913462Y-126849039D01*
X143826968Y-126859125D01*
X143795087Y-126906702D01*
X143791346Y-126971154D01*
X143781260Y-127057648D01*
X143733683Y-127089528D01*
X143669231Y-127093270D01*
X143582737Y-127103356D01*
X143550857Y-127150933D01*
X143547116Y-127215385D01*
X143547116Y-127337500D01*
X143302885Y-127337500D01*
X143058654Y-127337500D01*
X143058654Y-127459616D01*
X143058654Y-127581731D01*
X142814423Y-127581731D01*
X142570193Y-127581731D01*
X142570193Y-127703846D01*
X142560106Y-127790341D01*
X142512529Y-127822221D01*
X142448077Y-127825962D01*
X142361583Y-127836048D01*
X142329703Y-127883625D01*
X142325962Y-127948077D01*
X142315876Y-128034571D01*
X142268298Y-128066452D01*
X142203846Y-128070193D01*
X142117352Y-128060106D01*
X142085472Y-128012529D01*
X142081731Y-127948077D01*
X142081731Y-127825962D01*
X141593270Y-127825962D01*
X141104808Y-127825962D01*
X141104808Y-127948077D01*
X141114894Y-128034571D01*
X141162471Y-128066452D01*
X141226923Y-128070193D01*
X141313418Y-128080279D01*
X141345298Y-128127856D01*
X141349039Y-128192308D01*
X141349039Y-128314423D01*
X141104808Y-128314423D01*
X140860577Y-128314423D01*
X140860577Y-128436539D01*
X140850491Y-128523033D01*
X140802914Y-128554913D01*
X140738462Y-128558654D01*
X140651968Y-128548568D01*
X140620087Y-128500991D01*
X140616346Y-128436539D01*
X140606260Y-128350044D01*
X140558683Y-128318164D01*
X140494231Y-128314423D01*
X140407737Y-128304337D01*
X140375857Y-128256760D01*
X140372116Y-128192308D01*
X140372116Y-128070193D01*
X140616346Y-128070193D01*
X140860577Y-128070193D01*
X140860577Y-127948077D01*
X140850491Y-127861583D01*
X140802914Y-127829703D01*
X140738462Y-127825962D01*
X140651968Y-127815876D01*
X140620087Y-127768298D01*
X140616346Y-127703846D01*
X140606260Y-127617352D01*
X140558683Y-127585472D01*
X140494231Y-127581731D01*
X140407737Y-127571645D01*
X140375857Y-127524068D01*
X140372116Y-127459616D01*
X140372116Y-127337500D01*
X140738462Y-127337500D01*
X141104808Y-127337500D01*
X141104808Y-127459616D01*
X141114894Y-127546110D01*
X141162471Y-127577990D01*
X141226923Y-127581731D01*
X141313418Y-127571645D01*
X141345298Y-127524068D01*
X141349039Y-127459616D01*
X141359125Y-127373121D01*
X141406702Y-127341241D01*
X141471154Y-127337500D01*
X141557648Y-127347586D01*
X141589528Y-127395164D01*
X141593270Y-127459616D01*
X141593270Y-127581731D01*
X141837500Y-127581731D01*
X142081731Y-127581731D01*
X142081731Y-127337500D01*
X142081731Y-127093270D01*
X142203846Y-127093270D01*
X142290341Y-127103356D01*
X142322221Y-127150933D01*
X142325962Y-127215385D01*
X142336048Y-127301879D01*
X142383625Y-127333759D01*
X142448077Y-127337500D01*
X142534571Y-127327414D01*
X142566452Y-127279837D01*
X142570193Y-127215385D01*
X142570193Y-127093270D01*
X142936539Y-127093270D01*
X143302885Y-127093270D01*
X143302885Y-126726923D01*
X143302885Y-126360577D01*
X143180770Y-126360577D01*
X143094275Y-126370663D01*
X143062395Y-126418241D01*
X143058654Y-126482693D01*
X143058654Y-126604808D01*
X142814423Y-126604808D01*
X142570193Y-126604808D01*
X142570193Y-126849039D01*
X142570193Y-127093270D01*
X142448077Y-127093270D01*
X142325962Y-127093270D01*
X142325962Y-126849039D01*
X142325962Y-126604808D01*
X142081731Y-126604808D01*
X141837500Y-126604808D01*
X141837500Y-126482693D01*
X141847586Y-126396198D01*
X141895164Y-126364318D01*
X141959616Y-126360577D01*
X142081731Y-126360577D01*
X142325962Y-126360577D01*
X142570193Y-126360577D01*
X142814423Y-126360577D01*
X142814423Y-126238462D01*
X142814423Y-126116346D01*
X143058654Y-126116346D01*
X143302885Y-126116346D01*
X143302885Y-125994231D01*
X143302885Y-125872116D01*
X142936539Y-125872116D01*
X142570193Y-125872116D01*
X142570193Y-125994231D01*
X142560106Y-126080725D01*
X142512529Y-126112605D01*
X142448077Y-126116346D01*
X142361583Y-126126433D01*
X142329703Y-126174010D01*
X142325962Y-126238462D01*
X142325962Y-126360577D01*
X142081731Y-126360577D01*
X142081731Y-125994231D01*
X142081731Y-125627885D01*
X142203846Y-125627885D01*
X142290341Y-125617799D01*
X142322221Y-125570221D01*
X142325962Y-125505770D01*
X142325962Y-125383654D01*
X142570193Y-125383654D01*
X142814423Y-125383654D01*
X142814423Y-125505770D01*
X142814423Y-125627885D01*
X143180770Y-125627885D01*
X143547116Y-125627885D01*
X143547116Y-125505770D01*
X143557202Y-125419275D01*
X143604779Y-125387395D01*
X143669231Y-125383654D01*
X143755725Y-125373568D01*
X143787605Y-125325991D01*
X143791346Y-125261539D01*
X143801433Y-125175044D01*
X143849010Y-125143164D01*
X143913462Y-125139423D01*
X143999956Y-125129337D01*
X144031836Y-125081760D01*
X144035577Y-125017308D01*
X144025491Y-124930814D01*
X143977914Y-124898934D01*
X143913462Y-124895193D01*
X143826968Y-124905279D01*
X143795087Y-124952856D01*
X143791346Y-125017308D01*
X143781260Y-125103802D01*
X143733683Y-125135682D01*
X143669231Y-125139423D01*
X143582737Y-125149510D01*
X143550857Y-125197087D01*
X143547116Y-125261539D01*
X143547116Y-125383654D01*
X143180770Y-125383654D01*
X142814423Y-125383654D01*
X142814423Y-125261539D01*
X142824510Y-125175044D01*
X142872087Y-125143164D01*
X142936539Y-125139423D01*
X143023033Y-125129337D01*
X143054913Y-125081760D01*
X143058654Y-125017308D01*
X143068740Y-124930814D01*
X143116318Y-124898934D01*
X143180770Y-124895193D01*
X143267264Y-124885106D01*
X143299144Y-124837529D01*
X143302885Y-124773077D01*
X143312971Y-124686583D01*
X143360548Y-124654703D01*
X143425000Y-124650962D01*
X143511495Y-124640876D01*
X143543375Y-124593298D01*
X143547116Y-124528846D01*
X143547116Y-124406731D01*
X143791346Y-124406731D01*
X144035577Y-124406731D01*
X144035577Y-124528846D01*
X144045663Y-124615341D01*
X144093241Y-124647221D01*
X144157693Y-124650962D01*
X144244187Y-124640876D01*
X144276067Y-124593298D01*
X144279808Y-124528846D01*
X144269722Y-124442352D01*
X144222145Y-124410472D01*
X144157693Y-124406731D01*
X144071198Y-124396645D01*
X144039318Y-124349068D01*
X144035577Y-124284616D01*
X144025491Y-124198121D01*
X143977914Y-124166241D01*
X143913462Y-124162500D01*
X143791346Y-124162500D01*
X143791346Y-123918270D01*
X143791346Y-123674039D01*
X143669231Y-123674039D01*
X143582737Y-123663953D01*
X143550857Y-123616375D01*
X143547116Y-123551923D01*
X143547116Y-123429808D01*
X143302885Y-123429808D01*
X143058654Y-123429808D01*
X143058654Y-123551923D01*
X143058654Y-123674039D01*
X142814423Y-123674039D01*
X142570193Y-123674039D01*
X142570193Y-123796154D01*
X142580279Y-123882648D01*
X142627856Y-123914528D01*
X142692308Y-123918270D01*
X142778802Y-123928356D01*
X142810682Y-123975933D01*
X142814423Y-124040385D01*
X142814423Y-124162500D01*
X142448077Y-124162500D01*
X142081731Y-124162500D01*
X142081731Y-124040385D01*
X142071645Y-123953891D01*
X142024068Y-123922011D01*
X141959616Y-123918270D01*
X141873121Y-123928356D01*
X141841241Y-123975933D01*
X141837500Y-124040385D01*
X141827414Y-124126879D01*
X141779837Y-124158759D01*
X141715385Y-124162500D01*
X141593270Y-124162500D01*
X141593270Y-124406731D01*
X141593270Y-124650962D01*
X141715385Y-124650962D01*
X141801879Y-124640876D01*
X141833759Y-124593298D01*
X141837500Y-124528846D01*
X141837500Y-124406731D01*
X142203846Y-124406731D01*
X142570193Y-124406731D01*
X142570193Y-124528846D01*
X142570193Y-124650962D01*
X142814423Y-124650962D01*
X143058654Y-124650962D01*
X143058654Y-124773077D01*
X143048568Y-124859571D01*
X143000991Y-124891452D01*
X142936539Y-124895193D01*
X142850044Y-124905279D01*
X142818164Y-124952856D01*
X142814423Y-125017308D01*
X142804337Y-125103802D01*
X142756760Y-125135682D01*
X142692308Y-125139423D01*
X142605814Y-125129337D01*
X142573934Y-125081760D01*
X142570193Y-125017308D01*
X142570193Y-124895193D01*
X142081731Y-124895193D01*
X141593270Y-124895193D01*
X141593270Y-125017308D01*
X141583183Y-125103802D01*
X141535606Y-125135682D01*
X141471154Y-125139423D01*
X141384660Y-125129337D01*
X141352780Y-125081760D01*
X141349039Y-125017308D01*
X141338953Y-124930814D01*
X141291375Y-124898934D01*
X141226923Y-124895193D01*
X141140429Y-124905279D01*
X141108549Y-124952856D01*
X141104808Y-125017308D01*
X141094722Y-125103802D01*
X141047145Y-125135682D01*
X140982693Y-125139423D01*
X140896198Y-125149510D01*
X140864318Y-125197087D01*
X140860577Y-125261539D01*
X140850491Y-125348033D01*
X140802914Y-125379913D01*
X140738462Y-125383654D01*
X140616346Y-125383654D01*
X140616346Y-125017308D01*
X140616346Y-124650962D01*
X140982693Y-124650962D01*
X141349039Y-124650962D01*
X141349039Y-124528846D01*
X141349039Y-124406731D01*
X140860577Y-124406731D01*
X140372116Y-124406731D01*
X140372116Y-124284616D01*
X140372116Y-124162500D01*
X140616346Y-124162500D01*
X140860577Y-124162500D01*
X140860577Y-124040385D01*
X140850491Y-123953891D01*
X140802914Y-123922011D01*
X140738462Y-123918270D01*
X140651968Y-123908183D01*
X140620087Y-123860606D01*
X140616346Y-123796154D01*
X140606260Y-123709660D01*
X140558683Y-123677780D01*
X140494231Y-123674039D01*
X140407737Y-123663953D01*
X140375857Y-123616375D01*
X140372116Y-123551923D01*
X140362029Y-123465429D01*
X140314452Y-123433549D01*
X140250000Y-123429808D01*
X140163506Y-123419722D01*
X140131626Y-123372145D01*
X140127885Y-123307693D01*
X140127885Y-123185577D01*
X139883654Y-123185577D01*
X139639423Y-123185577D01*
X139639423Y-122819231D01*
X139639423Y-122452885D01*
X139761539Y-122452885D01*
X139883654Y-122452885D01*
X139883654Y-122697116D01*
X139883654Y-122941346D01*
X140005770Y-122941346D01*
X140127885Y-122941346D01*
X140127885Y-122452885D01*
X140127885Y-122208654D01*
X140372116Y-122208654D01*
X140372116Y-122330770D01*
X140382202Y-122417264D01*
X140429779Y-122449144D01*
X140494231Y-122452885D01*
X140580725Y-122462971D01*
X140612605Y-122510548D01*
X140616346Y-122575000D01*
X140606260Y-122661495D01*
X140558683Y-122693375D01*
X140494231Y-122697116D01*
X140372116Y-122697116D01*
X140372116Y-122941346D01*
X140372116Y-123185577D01*
X140494231Y-123185577D01*
X140580725Y-123195663D01*
X140612605Y-123243241D01*
X140616346Y-123307693D01*
X140616346Y-123429808D01*
X140860577Y-123429808D01*
X141104808Y-123429808D01*
X141104808Y-123063462D01*
X141104808Y-122697116D01*
X140982693Y-122697116D01*
X140860577Y-122697116D01*
X140860577Y-122452885D01*
X140860577Y-122208654D01*
X140616346Y-122208654D01*
X140372116Y-122208654D01*
X140127885Y-122208654D01*
X140127885Y-121964423D01*
X140250000Y-121964423D01*
X140336495Y-121954337D01*
X140368375Y-121906760D01*
X140372116Y-121842308D01*
X140382202Y-121755814D01*
X140429779Y-121723934D01*
X140494231Y-121720193D01*
X140580725Y-121710106D01*
X140612605Y-121662529D01*
X140616346Y-121598077D01*
X140606260Y-121511583D01*
X140558683Y-121479703D01*
X140494231Y-121475962D01*
X140407737Y-121486048D01*
X140375857Y-121533625D01*
X140372116Y-121598077D01*
X140362029Y-121684571D01*
X140314452Y-121716452D01*
X140250000Y-121720193D01*
X140163506Y-121730279D01*
X140131626Y-121777856D01*
X140127885Y-121842308D01*
X140127885Y-121964423D01*
X139883654Y-121964423D01*
X139639423Y-121964423D01*
X139639423Y-122086539D01*
X139629337Y-122173033D01*
X139581760Y-122204913D01*
X139517308Y-122208654D01*
X139395193Y-122208654D01*
X139395193Y-122697116D01*
X139395193Y-123185577D01*
X139273077Y-123185577D01*
X139186583Y-123195663D01*
X139154703Y-123243241D01*
X139150962Y-123307693D01*
X139150962Y-123429808D01*
X138784616Y-123429808D01*
X138418270Y-123429808D01*
X138418270Y-123307693D01*
X138418270Y-123185577D01*
X138662500Y-123185577D01*
X138906731Y-123185577D01*
X138906731Y-123063462D01*
X138916817Y-122976968D01*
X138964394Y-122945087D01*
X139028846Y-122941346D01*
X139115341Y-122931260D01*
X139147221Y-122883683D01*
X139150962Y-122819231D01*
X139140876Y-122732737D01*
X139093298Y-122700857D01*
X139028846Y-122697116D01*
X138942352Y-122707202D01*
X138910472Y-122754779D01*
X138906731Y-122819231D01*
X138896645Y-122905725D01*
X138849068Y-122937605D01*
X138784616Y-122941346D01*
X138698121Y-122931260D01*
X138666241Y-122883683D01*
X138662500Y-122819231D01*
X138652414Y-122732737D01*
X138604837Y-122700857D01*
X138540385Y-122697116D01*
X138418270Y-122697116D01*
X138418270Y-122941346D01*
X138418270Y-123185577D01*
X138296154Y-123185577D01*
X138209660Y-123195663D01*
X138177780Y-123243241D01*
X138174039Y-123307693D01*
X138174039Y-123429808D01*
X137929808Y-123429808D01*
X137685577Y-123429808D01*
X137685577Y-123796154D01*
X137685577Y-124162500D01*
X137563462Y-124162500D01*
X137476968Y-124172586D01*
X137445087Y-124220164D01*
X137441346Y-124284616D01*
X137441346Y-124406731D01*
X137075000Y-124406731D01*
X136708654Y-124406731D01*
X136708654Y-124284616D01*
X136698568Y-124198121D01*
X136650991Y-124166241D01*
X136586539Y-124162500D01*
X136500044Y-124172586D01*
X136468164Y-124220164D01*
X136464423Y-124284616D01*
X136454337Y-124371110D01*
X136406760Y-124402990D01*
X136342308Y-124406731D01*
X136220193Y-124406731D01*
X136220193Y-124650962D01*
X136220193Y-124895193D01*
X136098077Y-124895193D01*
X135975962Y-124895193D01*
X135975962Y-124650962D01*
X135975962Y-124406731D01*
X136098077Y-124406731D01*
X136184571Y-124396645D01*
X136216452Y-124349068D01*
X136220193Y-124284616D01*
X136210106Y-124198121D01*
X136162529Y-124166241D01*
X136098077Y-124162500D01*
X136011583Y-124152414D01*
X135979703Y-124104837D01*
X135975962Y-124040385D01*
X135965876Y-123953891D01*
X135918298Y-123922011D01*
X135853846Y-123918270D01*
X135767352Y-123908183D01*
X135735472Y-123860606D01*
X135731731Y-123796154D01*
X135741817Y-123709660D01*
X135789394Y-123677780D01*
X135853846Y-123674039D01*
X135940341Y-123663953D01*
X135972221Y-123616375D01*
X135975962Y-123551923D01*
X135965876Y-123465429D01*
X135918298Y-123433549D01*
X135853846Y-123429808D01*
X135767352Y-123419722D01*
X135735472Y-123372145D01*
X135731731Y-123307693D01*
X135741817Y-123221198D01*
X135789394Y-123189318D01*
X135853846Y-123185577D01*
X135940341Y-123195663D01*
X135972221Y-123243241D01*
X135975962Y-123307693D01*
X135986048Y-123394187D01*
X136033625Y-123426067D01*
X136098077Y-123429808D01*
X136220193Y-123429808D01*
X136220193Y-123674039D01*
X136220193Y-123918270D01*
X136586539Y-123918270D01*
X136952885Y-123918270D01*
X136952885Y-124040385D01*
X136952885Y-124162500D01*
X137197116Y-124162500D01*
X137441346Y-124162500D01*
X137441346Y-124040385D01*
X137431260Y-123953891D01*
X137383683Y-123922011D01*
X137319231Y-123918270D01*
X137232737Y-123908183D01*
X137200857Y-123860606D01*
X137197116Y-123796154D01*
X137187029Y-123709660D01*
X137139452Y-123677780D01*
X137075000Y-123674039D01*
X136988506Y-123663953D01*
X136956626Y-123616375D01*
X136952885Y-123551923D01*
X137197116Y-123551923D01*
X137207202Y-123638418D01*
X137254779Y-123670298D01*
X137319231Y-123674039D01*
X137405725Y-123663953D01*
X137437605Y-123616375D01*
X137441346Y-123551923D01*
X137431260Y-123465429D01*
X137383683Y-123433549D01*
X137319231Y-123429808D01*
X137232737Y-123439894D01*
X137200857Y-123487471D01*
X137197116Y-123551923D01*
X136952885Y-123551923D01*
X136942799Y-123465429D01*
X136895221Y-123433549D01*
X136830770Y-123429808D01*
X136744275Y-123439894D01*
X136712395Y-123487471D01*
X136708654Y-123551923D01*
X136698568Y-123638418D01*
X136650991Y-123670298D01*
X136586539Y-123674039D01*
X136500044Y-123663953D01*
X136468164Y-123616375D01*
X136464423Y-123551923D01*
X136474510Y-123465429D01*
X136522087Y-123433549D01*
X136586539Y-123429808D01*
X136673033Y-123419722D01*
X136704913Y-123372145D01*
X136708654Y-123307693D01*
X136718740Y-123221198D01*
X136766318Y-123189318D01*
X136830770Y-123185577D01*
X136917264Y-123195663D01*
X136949144Y-123243241D01*
X136952885Y-123307693D01*
X136962971Y-123394187D01*
X137010548Y-123426067D01*
X137075000Y-123429808D01*
X137161495Y-123419722D01*
X137193375Y-123372145D01*
X137197116Y-123307693D01*
X137197116Y-123185577D01*
X137441346Y-123185577D01*
X137685577Y-123185577D01*
X137685577Y-122819231D01*
X137929808Y-122819231D01*
X137939894Y-122905725D01*
X137987471Y-122937605D01*
X138051923Y-122941346D01*
X138138418Y-122931260D01*
X138170298Y-122883683D01*
X138174039Y-122819231D01*
X138163953Y-122732737D01*
X138116375Y-122700857D01*
X138051923Y-122697116D01*
X137965429Y-122707202D01*
X137933549Y-122754779D01*
X137929808Y-122819231D01*
X137685577Y-122819231D01*
X137685577Y-122575000D01*
X137685577Y-121964423D01*
X137807693Y-121964423D01*
X137929808Y-121964423D01*
X137929808Y-122208654D01*
X137929808Y-122452885D01*
X138051923Y-122452885D01*
X138174039Y-122452885D01*
X138174039Y-122208654D01*
X138174039Y-121964423D01*
X138051923Y-121964423D01*
X137929808Y-121964423D01*
X137807693Y-121964423D01*
X137894187Y-121954337D01*
X137926067Y-121906760D01*
X137929808Y-121842308D01*
X137939894Y-121755814D01*
X137987471Y-121723934D01*
X138051923Y-121720193D01*
X138174039Y-121720193D01*
X138174039Y-121475962D01*
X138174039Y-121231731D01*
X138540385Y-121231731D01*
X138906731Y-121231731D01*
X138906731Y-121353846D01*
G37*
D12*
%TO.C,J1*%
X151160000Y-139985000D02*
X169000000Y-139985000D01*
X151160000Y-139985000D02*
X151160000Y-137325000D01*
X169000000Y-139985000D02*
X169000000Y-137325000D01*
X148560000Y-138655000D02*
X148560000Y-137325000D01*
X148560000Y-137325000D02*
X149890000Y-137325000D01*
X151160000Y-137325000D02*
X169000000Y-137325000D01*
%TO.C,J3*%
X174020000Y-139985000D02*
X186780000Y-139985000D01*
X174020000Y-139985000D02*
X174020000Y-137325000D01*
X186780000Y-139985000D02*
X186780000Y-137325000D01*
X171420000Y-138655000D02*
X171420000Y-137325000D01*
X171420000Y-137325000D02*
X172750000Y-137325000D01*
X174020000Y-137325000D02*
X186780000Y-137325000D01*
%TO.C,J2*%
X142016000Y-91725000D02*
X164936000Y-91725000D01*
X142016000Y-91725000D02*
X142016000Y-89065000D01*
X164936000Y-91725000D02*
X164936000Y-89065000D01*
X139416000Y-90395000D02*
X139416000Y-89065000D01*
X139416000Y-89065000D02*
X140746000Y-89065000D01*
X142016000Y-89065000D02*
X164936000Y-89065000D01*
%TO.C,J4*%
X168940000Y-91725000D02*
X186780000Y-91725000D01*
X168940000Y-91725000D02*
X168940000Y-89065000D01*
X186780000Y-91725000D02*
X186780000Y-89065000D01*
X166340000Y-90395000D02*
X166340000Y-89065000D01*
X166340000Y-89065000D02*
X167670000Y-89065000D01*
X168940000Y-89065000D02*
X186780000Y-89065000D01*
%TO.C,D1*%
X126710000Y-130205000D02*
X126710000Y-133295000D01*
X132259999Y-131750462D02*
G75*
G03*
X126710001Y-130205170I-2989999J462D01*
G01*
X126710000Y-133294830D02*
G75*
G03*
X132260000Y-131749538I2560000J1544830D01*
G01*
X131770000Y-131750000D02*
G75*
G03*
X131770000Y-131750000I-2500000J0D01*
G01*
D13*
%TO.C,SW1*%
X176125799Y-130332039D02*
X176125799Y-132675298D01*
X176637639Y-134624199D02*
X181862359Y-134624199D01*
X181862359Y-128375799D02*
X177057707Y-128375799D01*
X182374199Y-132675298D02*
X182374199Y-130324701D01*
D12*
%TO.C,R2*%
X137737742Y-98197500D02*
X138212258Y-98197500D01*
X137737742Y-99242500D02*
X138212258Y-99242500D01*
%TO.C,R4*%
X134522500Y-96587742D02*
X134522500Y-97062258D01*
X133477500Y-96587742D02*
X133477500Y-97062258D01*
D14*
%TO.C,U1*%
X164850000Y-103095000D02*
X164850000Y-106245000D01*
X155050000Y-103095000D02*
X164850000Y-103095000D01*
X155050000Y-106245000D02*
X155050000Y-103095000D01*
X154780000Y-106245000D02*
X155050000Y-106245000D01*
X167950000Y-108125000D02*
X167950000Y-108745000D01*
X174250000Y-108745000D02*
X174250000Y-119645000D01*
X167950000Y-108745000D02*
X174250000Y-108745000D01*
X152050000Y-109345000D02*
X152050000Y-108125000D01*
X148850000Y-109345000D02*
X152050000Y-109345000D01*
X152050000Y-119045000D02*
X148850000Y-119045000D01*
X174250000Y-119645000D02*
X167950000Y-119645000D01*
X167950000Y-119645000D02*
X167950000Y-120275000D01*
X152050000Y-120275000D02*
X152050000Y-119045000D01*
X164050000Y-122145000D02*
X164050000Y-123695000D01*
X155950000Y-122145000D02*
X154830000Y-122145000D01*
X164050000Y-123695000D02*
X155950000Y-123695000D01*
X155950000Y-123695000D02*
X155950000Y-122145000D01*
D15*
X173400000Y-108145000D02*
G75*
G03*
X173400000Y-108145000I-100000J0D01*
G01*
D12*
%TO.C,D2*%
X126710000Y-95205000D02*
X126710000Y-98295000D01*
X132259999Y-96750462D02*
G75*
G03*
X126710001Y-95205170I-2989999J462D01*
G01*
X126710000Y-98294830D02*
G75*
G03*
X132260000Y-96749538I2560000J1544830D01*
G01*
X131770000Y-96750000D02*
G75*
G03*
X131770000Y-96750000I-2500000J0D01*
G01*
%TO.C,C1*%
X147665580Y-97010000D02*
X147384420Y-97010000D01*
X147665580Y-95990000D02*
X147384420Y-95990000D01*
%TO.C,R3*%
X134522500Y-101262742D02*
X134522500Y-101737258D01*
X133477500Y-101262742D02*
X133477500Y-101737258D01*
%TO.C,U3*%
X152250000Y-99010000D02*
X154050000Y-99010000D01*
X152250000Y-99010000D02*
X151450000Y-99010000D01*
X152250000Y-95890000D02*
X153050000Y-95890000D01*
X152250000Y-95890000D02*
X151450000Y-95890000D01*
%TO.C,C2*%
X148365580Y-101955000D02*
X148084420Y-101955000D01*
X148365580Y-100935000D02*
X148084420Y-100935000D01*
%TO.C,R1*%
X137712742Y-100672500D02*
X138187258Y-100672500D01*
X137712742Y-101717500D02*
X138187258Y-101717500D01*
%TO.C,J5*%
X125880000Y-108590000D02*
X127210000Y-108590000D01*
X125880000Y-109920000D02*
X125880000Y-108590000D01*
X125880000Y-111190000D02*
X125880000Y-121410000D01*
X125880000Y-111190000D02*
X128480000Y-111190000D01*
X125880000Y-121410000D02*
X131080000Y-121410000D01*
X128480000Y-108590000D02*
X131080000Y-108590000D01*
X128480000Y-111190000D02*
X128480000Y-108590000D01*
X131080000Y-108590000D02*
X131080000Y-121410000D01*
%TO.C,U2*%
X141885000Y-97405000D02*
X142060000Y-97405000D01*
X145105000Y-98080000D02*
X145105000Y-97405000D01*
X141885000Y-98080000D02*
X141885000Y-97405000D01*
X145105000Y-99950000D02*
X145105000Y-100625000D01*
X141885000Y-99950000D02*
X141885000Y-100625000D01*
X145105000Y-100625000D02*
X144930000Y-100625000D01*
X141885000Y-100625000D02*
X142060000Y-100625000D01*
%TO.C,J6*%
X168910000Y-95670000D02*
X168910000Y-97000000D01*
X167580000Y-95670000D02*
X168910000Y-95670000D01*
X166310000Y-95670000D02*
X161170000Y-95670000D01*
X166310000Y-95670000D02*
X166310000Y-98330000D01*
X161170000Y-95670000D02*
X161170000Y-98330000D01*
X166310000Y-98330000D02*
X161170000Y-98330000D01*
%TD*%
M02*
