%TF.GenerationSoftware,KiCad,Pcbnew,7.0.2-0*%
%TF.CreationDate,2023-10-31T17:00:16-04:00*%
%TF.ProjectId,ControllerShield,436f6e74-726f-46c6-9c65-72536869656c,rev?*%
%TF.SameCoordinates,Original*%
%TF.FileFunction,Legend,Bot*%
%TF.FilePolarity,Positive*%
%FSLAX46Y46*%
G04 Gerber Fmt 4.6, Leading zero omitted, Abs format (unit mm)*
G04 Created by KiCad (PCBNEW 7.0.2-0) date 2023-10-31 17:00:16*
%MOMM*%
%LPD*%
G01*
G04 APERTURE LIST*
%ADD10C,0.150000*%
%ADD11C,0.120000*%
G04 APERTURE END LIST*
D10*
%TO.C,JP1*%
X144662619Y-103086666D02*
X145376904Y-103086666D01*
X145376904Y-103086666D02*
X145519761Y-103039047D01*
X145519761Y-103039047D02*
X145615000Y-102943809D01*
X145615000Y-102943809D02*
X145662619Y-102800952D01*
X145662619Y-102800952D02*
X145662619Y-102705714D01*
X145662619Y-103562857D02*
X144662619Y-103562857D01*
X144662619Y-103562857D02*
X144662619Y-103943809D01*
X144662619Y-103943809D02*
X144710238Y-104039047D01*
X144710238Y-104039047D02*
X144757857Y-104086666D01*
X144757857Y-104086666D02*
X144853095Y-104134285D01*
X144853095Y-104134285D02*
X144995952Y-104134285D01*
X144995952Y-104134285D02*
X145091190Y-104086666D01*
X145091190Y-104086666D02*
X145138809Y-104039047D01*
X145138809Y-104039047D02*
X145186428Y-103943809D01*
X145186428Y-103943809D02*
X145186428Y-103562857D01*
X145662619Y-105086666D02*
X145662619Y-104515238D01*
X145662619Y-104800952D02*
X144662619Y-104800952D01*
X144662619Y-104800952D02*
X144805476Y-104705714D01*
X144805476Y-104705714D02*
X144900714Y-104610476D01*
X144900714Y-104610476D02*
X144948333Y-104515238D01*
D11*
X143100000Y-105320000D02*
X143700000Y-105320000D01*
X144400000Y-104620000D02*
X144400000Y-103220000D01*
X142400000Y-103220000D02*
X142400000Y-104620000D01*
X143700000Y-102520000D02*
X143100000Y-102520000D01*
X142400000Y-104620000D02*
G75*
G03*
X143100000Y-105320000I699999J-1D01*
G01*
X143700000Y-105320000D02*
G75*
G03*
X144400000Y-104620000I1J699999D01*
G01*
X143100000Y-102520000D02*
G75*
G03*
X142400000Y-103220000I0J-700000D01*
G01*
X144400000Y-103220000D02*
G75*
G03*
X143700000Y-102520000I-700000J0D01*
G01*
%TD*%
M02*
