%TF.GenerationSoftware,KiCad,Pcbnew,7.0.2-0*%
%TF.CreationDate,2024-01-05T14:52:03-05:00*%
%TF.ProjectId,ControllerShield,436f6e74-726f-46c6-9c65-72536869656c,rev?*%
%TF.SameCoordinates,Original*%
%TF.FileFunction,Legend,Bot*%
%TF.FilePolarity,Positive*%
%FSLAX46Y46*%
G04 Gerber Fmt 4.6, Leading zero omitted, Abs format (unit mm)*
G04 Created by KiCad (PCBNEW 7.0.2-0) date 2024-01-05 14:52:03*
%MOMM*%
%LPD*%
G01*
G04 APERTURE LIST*
%ADD10C,0.150000*%
%ADD11C,0.120000*%
G04 APERTURE END LIST*
D10*
X145361904Y-123967619D02*
X145361904Y-122967619D01*
X145361904Y-122967619D02*
X145028571Y-123681904D01*
X145028571Y-123681904D02*
X144695238Y-122967619D01*
X144695238Y-122967619D02*
X144695238Y-123967619D01*
X143790476Y-123967619D02*
X143790476Y-123443809D01*
X143790476Y-123443809D02*
X143838095Y-123348571D01*
X143838095Y-123348571D02*
X143933333Y-123300952D01*
X143933333Y-123300952D02*
X144123809Y-123300952D01*
X144123809Y-123300952D02*
X144219047Y-123348571D01*
X143790476Y-123920000D02*
X143885714Y-123967619D01*
X143885714Y-123967619D02*
X144123809Y-123967619D01*
X144123809Y-123967619D02*
X144219047Y-123920000D01*
X144219047Y-123920000D02*
X144266666Y-123824761D01*
X144266666Y-123824761D02*
X144266666Y-123729523D01*
X144266666Y-123729523D02*
X144219047Y-123634285D01*
X144219047Y-123634285D02*
X144123809Y-123586666D01*
X144123809Y-123586666D02*
X143885714Y-123586666D01*
X143885714Y-123586666D02*
X143790476Y-123539047D01*
X143409523Y-123300952D02*
X142885714Y-123300952D01*
X142885714Y-123300952D02*
X143409523Y-123967619D01*
X143409523Y-123967619D02*
X142885714Y-123967619D01*
X142123809Y-123920000D02*
X142219047Y-123967619D01*
X142219047Y-123967619D02*
X142409523Y-123967619D01*
X142409523Y-123967619D02*
X142504761Y-123920000D01*
X142504761Y-123920000D02*
X142552380Y-123824761D01*
X142552380Y-123824761D02*
X142552380Y-123443809D01*
X142552380Y-123443809D02*
X142504761Y-123348571D01*
X142504761Y-123348571D02*
X142409523Y-123300952D01*
X142409523Y-123300952D02*
X142219047Y-123300952D01*
X142219047Y-123300952D02*
X142123809Y-123348571D01*
X142123809Y-123348571D02*
X142076190Y-123443809D01*
X142076190Y-123443809D02*
X142076190Y-123539047D01*
X142076190Y-123539047D02*
X142552380Y-123634285D01*
X140314285Y-123872380D02*
X140361904Y-123920000D01*
X140361904Y-123920000D02*
X140504761Y-123967619D01*
X140504761Y-123967619D02*
X140599999Y-123967619D01*
X140599999Y-123967619D02*
X140742856Y-123920000D01*
X140742856Y-123920000D02*
X140838094Y-123824761D01*
X140838094Y-123824761D02*
X140885713Y-123729523D01*
X140885713Y-123729523D02*
X140933332Y-123539047D01*
X140933332Y-123539047D02*
X140933332Y-123396190D01*
X140933332Y-123396190D02*
X140885713Y-123205714D01*
X140885713Y-123205714D02*
X140838094Y-123110476D01*
X140838094Y-123110476D02*
X140742856Y-123015238D01*
X140742856Y-123015238D02*
X140599999Y-122967619D01*
X140599999Y-122967619D02*
X140504761Y-122967619D01*
X140504761Y-122967619D02*
X140361904Y-123015238D01*
X140361904Y-123015238D02*
X140314285Y-123062857D01*
X139742856Y-123967619D02*
X139838094Y-123920000D01*
X139838094Y-123920000D02*
X139885713Y-123872380D01*
X139885713Y-123872380D02*
X139933332Y-123777142D01*
X139933332Y-123777142D02*
X139933332Y-123491428D01*
X139933332Y-123491428D02*
X139885713Y-123396190D01*
X139885713Y-123396190D02*
X139838094Y-123348571D01*
X139838094Y-123348571D02*
X139742856Y-123300952D01*
X139742856Y-123300952D02*
X139599999Y-123300952D01*
X139599999Y-123300952D02*
X139504761Y-123348571D01*
X139504761Y-123348571D02*
X139457142Y-123396190D01*
X139457142Y-123396190D02*
X139409523Y-123491428D01*
X139409523Y-123491428D02*
X139409523Y-123777142D01*
X139409523Y-123777142D02*
X139457142Y-123872380D01*
X139457142Y-123872380D02*
X139504761Y-123920000D01*
X139504761Y-123920000D02*
X139599999Y-123967619D01*
X139599999Y-123967619D02*
X139742856Y-123967619D01*
X138980951Y-123300952D02*
X138980951Y-123967619D01*
X138980951Y-123396190D02*
X138933332Y-123348571D01*
X138933332Y-123348571D02*
X138838094Y-123300952D01*
X138838094Y-123300952D02*
X138695237Y-123300952D01*
X138695237Y-123300952D02*
X138599999Y-123348571D01*
X138599999Y-123348571D02*
X138552380Y-123443809D01*
X138552380Y-123443809D02*
X138552380Y-123967619D01*
X138219046Y-123300952D02*
X137838094Y-123300952D01*
X138076189Y-122967619D02*
X138076189Y-123824761D01*
X138076189Y-123824761D02*
X138028570Y-123920000D01*
X138028570Y-123920000D02*
X137933332Y-123967619D01*
X137933332Y-123967619D02*
X137838094Y-123967619D01*
X137504760Y-123967619D02*
X137504760Y-123300952D01*
X137504760Y-123491428D02*
X137457141Y-123396190D01*
X137457141Y-123396190D02*
X137409522Y-123348571D01*
X137409522Y-123348571D02*
X137314284Y-123300952D01*
X137314284Y-123300952D02*
X137219046Y-123300952D01*
X136742855Y-123967619D02*
X136838093Y-123920000D01*
X136838093Y-123920000D02*
X136885712Y-123872380D01*
X136885712Y-123872380D02*
X136933331Y-123777142D01*
X136933331Y-123777142D02*
X136933331Y-123491428D01*
X136933331Y-123491428D02*
X136885712Y-123396190D01*
X136885712Y-123396190D02*
X136838093Y-123348571D01*
X136838093Y-123348571D02*
X136742855Y-123300952D01*
X136742855Y-123300952D02*
X136599998Y-123300952D01*
X136599998Y-123300952D02*
X136504760Y-123348571D01*
X136504760Y-123348571D02*
X136457141Y-123396190D01*
X136457141Y-123396190D02*
X136409522Y-123491428D01*
X136409522Y-123491428D02*
X136409522Y-123777142D01*
X136409522Y-123777142D02*
X136457141Y-123872380D01*
X136457141Y-123872380D02*
X136504760Y-123920000D01*
X136504760Y-123920000D02*
X136599998Y-123967619D01*
X136599998Y-123967619D02*
X136742855Y-123967619D01*
X135838093Y-123967619D02*
X135933331Y-123920000D01*
X135933331Y-123920000D02*
X135980950Y-123824761D01*
X135980950Y-123824761D02*
X135980950Y-122967619D01*
X135314283Y-123967619D02*
X135409521Y-123920000D01*
X135409521Y-123920000D02*
X135457140Y-123824761D01*
X135457140Y-123824761D02*
X135457140Y-122967619D01*
X134552378Y-123920000D02*
X134647616Y-123967619D01*
X134647616Y-123967619D02*
X134838092Y-123967619D01*
X134838092Y-123967619D02*
X134933330Y-123920000D01*
X134933330Y-123920000D02*
X134980949Y-123824761D01*
X134980949Y-123824761D02*
X134980949Y-123443809D01*
X134980949Y-123443809D02*
X134933330Y-123348571D01*
X134933330Y-123348571D02*
X134838092Y-123300952D01*
X134838092Y-123300952D02*
X134647616Y-123300952D01*
X134647616Y-123300952D02*
X134552378Y-123348571D01*
X134552378Y-123348571D02*
X134504759Y-123443809D01*
X134504759Y-123443809D02*
X134504759Y-123539047D01*
X134504759Y-123539047D02*
X134980949Y-123634285D01*
X134076187Y-123967619D02*
X134076187Y-123300952D01*
X134076187Y-123491428D02*
X134028568Y-123396190D01*
X134028568Y-123396190D02*
X133980949Y-123348571D01*
X133980949Y-123348571D02*
X133885711Y-123300952D01*
X133885711Y-123300952D02*
X133790473Y-123300952D01*
X132838091Y-122967619D02*
X132504758Y-123967619D01*
X132504758Y-123967619D02*
X132171425Y-122967619D01*
X131314282Y-123967619D02*
X131885710Y-123967619D01*
X131599996Y-123967619D02*
X131599996Y-122967619D01*
X131599996Y-122967619D02*
X131695234Y-123110476D01*
X131695234Y-123110476D02*
X131790472Y-123205714D01*
X131790472Y-123205714D02*
X131885710Y-123253333D01*
X130885710Y-123872380D02*
X130838091Y-123920000D01*
X130838091Y-123920000D02*
X130885710Y-123967619D01*
X130885710Y-123967619D02*
X130933329Y-123920000D01*
X130933329Y-123920000D02*
X130885710Y-123872380D01*
X130885710Y-123872380D02*
X130885710Y-123967619D01*
X130219044Y-122967619D02*
X130123806Y-122967619D01*
X130123806Y-122967619D02*
X130028568Y-123015238D01*
X130028568Y-123015238D02*
X129980949Y-123062857D01*
X129980949Y-123062857D02*
X129933330Y-123158095D01*
X129933330Y-123158095D02*
X129885711Y-123348571D01*
X129885711Y-123348571D02*
X129885711Y-123586666D01*
X129885711Y-123586666D02*
X129933330Y-123777142D01*
X129933330Y-123777142D02*
X129980949Y-123872380D01*
X129980949Y-123872380D02*
X130028568Y-123920000D01*
X130028568Y-123920000D02*
X130123806Y-123967619D01*
X130123806Y-123967619D02*
X130219044Y-123967619D01*
X130219044Y-123967619D02*
X130314282Y-123920000D01*
X130314282Y-123920000D02*
X130361901Y-123872380D01*
X130361901Y-123872380D02*
X130409520Y-123777142D01*
X130409520Y-123777142D02*
X130457139Y-123586666D01*
X130457139Y-123586666D02*
X130457139Y-123348571D01*
X130457139Y-123348571D02*
X130409520Y-123158095D01*
X130409520Y-123158095D02*
X130361901Y-123062857D01*
X130361901Y-123062857D02*
X130314282Y-123015238D01*
X130314282Y-123015238D02*
X130219044Y-122967619D01*
X144790476Y-125492380D02*
X144838095Y-125540000D01*
X144838095Y-125540000D02*
X144980952Y-125587619D01*
X144980952Y-125587619D02*
X145076190Y-125587619D01*
X145076190Y-125587619D02*
X145219047Y-125540000D01*
X145219047Y-125540000D02*
X145314285Y-125444761D01*
X145314285Y-125444761D02*
X145361904Y-125349523D01*
X145361904Y-125349523D02*
X145409523Y-125159047D01*
X145409523Y-125159047D02*
X145409523Y-125016190D01*
X145409523Y-125016190D02*
X145361904Y-124825714D01*
X145361904Y-124825714D02*
X145314285Y-124730476D01*
X145314285Y-124730476D02*
X145219047Y-124635238D01*
X145219047Y-124635238D02*
X145076190Y-124587619D01*
X145076190Y-124587619D02*
X144980952Y-124587619D01*
X144980952Y-124587619D02*
X144838095Y-124635238D01*
X144838095Y-124635238D02*
X144790476Y-124682857D01*
X144219047Y-125587619D02*
X144314285Y-125540000D01*
X144314285Y-125540000D02*
X144361904Y-125492380D01*
X144361904Y-125492380D02*
X144409523Y-125397142D01*
X144409523Y-125397142D02*
X144409523Y-125111428D01*
X144409523Y-125111428D02*
X144361904Y-125016190D01*
X144361904Y-125016190D02*
X144314285Y-124968571D01*
X144314285Y-124968571D02*
X144219047Y-124920952D01*
X144219047Y-124920952D02*
X144076190Y-124920952D01*
X144076190Y-124920952D02*
X143980952Y-124968571D01*
X143980952Y-124968571D02*
X143933333Y-125016190D01*
X143933333Y-125016190D02*
X143885714Y-125111428D01*
X143885714Y-125111428D02*
X143885714Y-125397142D01*
X143885714Y-125397142D02*
X143933333Y-125492380D01*
X143933333Y-125492380D02*
X143980952Y-125540000D01*
X143980952Y-125540000D02*
X144076190Y-125587619D01*
X144076190Y-125587619D02*
X144219047Y-125587619D01*
X143457142Y-124920952D02*
X143457142Y-125920952D01*
X143457142Y-124968571D02*
X143361904Y-124920952D01*
X143361904Y-124920952D02*
X143171428Y-124920952D01*
X143171428Y-124920952D02*
X143076190Y-124968571D01*
X143076190Y-124968571D02*
X143028571Y-125016190D01*
X143028571Y-125016190D02*
X142980952Y-125111428D01*
X142980952Y-125111428D02*
X142980952Y-125397142D01*
X142980952Y-125397142D02*
X143028571Y-125492380D01*
X143028571Y-125492380D02*
X143076190Y-125540000D01*
X143076190Y-125540000D02*
X143171428Y-125587619D01*
X143171428Y-125587619D02*
X143361904Y-125587619D01*
X143361904Y-125587619D02*
X143457142Y-125540000D01*
X142647618Y-124920952D02*
X142409523Y-125587619D01*
X142171428Y-124920952D02*
X142409523Y-125587619D01*
X142409523Y-125587619D02*
X142504761Y-125825714D01*
X142504761Y-125825714D02*
X142552380Y-125873333D01*
X142552380Y-125873333D02*
X142647618Y-125920952D01*
X141790475Y-125587619D02*
X141790475Y-124920952D01*
X141790475Y-125111428D02*
X141742856Y-125016190D01*
X141742856Y-125016190D02*
X141695237Y-124968571D01*
X141695237Y-124968571D02*
X141599999Y-124920952D01*
X141599999Y-124920952D02*
X141504761Y-124920952D01*
X141171427Y-125587619D02*
X141171427Y-124920952D01*
X141171427Y-124587619D02*
X141219046Y-124635238D01*
X141219046Y-124635238D02*
X141171427Y-124682857D01*
X141171427Y-124682857D02*
X141123808Y-124635238D01*
X141123808Y-124635238D02*
X141171427Y-124587619D01*
X141171427Y-124587619D02*
X141171427Y-124682857D01*
X140266666Y-124920952D02*
X140266666Y-125730476D01*
X140266666Y-125730476D02*
X140314285Y-125825714D01*
X140314285Y-125825714D02*
X140361904Y-125873333D01*
X140361904Y-125873333D02*
X140457142Y-125920952D01*
X140457142Y-125920952D02*
X140599999Y-125920952D01*
X140599999Y-125920952D02*
X140695237Y-125873333D01*
X140266666Y-125540000D02*
X140361904Y-125587619D01*
X140361904Y-125587619D02*
X140552380Y-125587619D01*
X140552380Y-125587619D02*
X140647618Y-125540000D01*
X140647618Y-125540000D02*
X140695237Y-125492380D01*
X140695237Y-125492380D02*
X140742856Y-125397142D01*
X140742856Y-125397142D02*
X140742856Y-125111428D01*
X140742856Y-125111428D02*
X140695237Y-125016190D01*
X140695237Y-125016190D02*
X140647618Y-124968571D01*
X140647618Y-124968571D02*
X140552380Y-124920952D01*
X140552380Y-124920952D02*
X140361904Y-124920952D01*
X140361904Y-124920952D02*
X140266666Y-124968571D01*
X139790475Y-125587619D02*
X139790475Y-124587619D01*
X139361904Y-125587619D02*
X139361904Y-125063809D01*
X139361904Y-125063809D02*
X139409523Y-124968571D01*
X139409523Y-124968571D02*
X139504761Y-124920952D01*
X139504761Y-124920952D02*
X139647618Y-124920952D01*
X139647618Y-124920952D02*
X139742856Y-124968571D01*
X139742856Y-124968571D02*
X139790475Y-125016190D01*
X139028570Y-124920952D02*
X138647618Y-124920952D01*
X138885713Y-124587619D02*
X138885713Y-125444761D01*
X138885713Y-125444761D02*
X138838094Y-125540000D01*
X138838094Y-125540000D02*
X138742856Y-125587619D01*
X138742856Y-125587619D02*
X138647618Y-125587619D01*
X137599998Y-124682857D02*
X137552379Y-124635238D01*
X137552379Y-124635238D02*
X137457141Y-124587619D01*
X137457141Y-124587619D02*
X137219046Y-124587619D01*
X137219046Y-124587619D02*
X137123808Y-124635238D01*
X137123808Y-124635238D02*
X137076189Y-124682857D01*
X137076189Y-124682857D02*
X137028570Y-124778095D01*
X137028570Y-124778095D02*
X137028570Y-124873333D01*
X137028570Y-124873333D02*
X137076189Y-125016190D01*
X137076189Y-125016190D02*
X137647617Y-125587619D01*
X137647617Y-125587619D02*
X137028570Y-125587619D01*
X136409522Y-124587619D02*
X136314284Y-124587619D01*
X136314284Y-124587619D02*
X136219046Y-124635238D01*
X136219046Y-124635238D02*
X136171427Y-124682857D01*
X136171427Y-124682857D02*
X136123808Y-124778095D01*
X136123808Y-124778095D02*
X136076189Y-124968571D01*
X136076189Y-124968571D02*
X136076189Y-125206666D01*
X136076189Y-125206666D02*
X136123808Y-125397142D01*
X136123808Y-125397142D02*
X136171427Y-125492380D01*
X136171427Y-125492380D02*
X136219046Y-125540000D01*
X136219046Y-125540000D02*
X136314284Y-125587619D01*
X136314284Y-125587619D02*
X136409522Y-125587619D01*
X136409522Y-125587619D02*
X136504760Y-125540000D01*
X136504760Y-125540000D02*
X136552379Y-125492380D01*
X136552379Y-125492380D02*
X136599998Y-125397142D01*
X136599998Y-125397142D02*
X136647617Y-125206666D01*
X136647617Y-125206666D02*
X136647617Y-124968571D01*
X136647617Y-124968571D02*
X136599998Y-124778095D01*
X136599998Y-124778095D02*
X136552379Y-124682857D01*
X136552379Y-124682857D02*
X136504760Y-124635238D01*
X136504760Y-124635238D02*
X136409522Y-124587619D01*
X135695236Y-124682857D02*
X135647617Y-124635238D01*
X135647617Y-124635238D02*
X135552379Y-124587619D01*
X135552379Y-124587619D02*
X135314284Y-124587619D01*
X135314284Y-124587619D02*
X135219046Y-124635238D01*
X135219046Y-124635238D02*
X135171427Y-124682857D01*
X135171427Y-124682857D02*
X135123808Y-124778095D01*
X135123808Y-124778095D02*
X135123808Y-124873333D01*
X135123808Y-124873333D02*
X135171427Y-125016190D01*
X135171427Y-125016190D02*
X135742855Y-125587619D01*
X135742855Y-125587619D02*
X135123808Y-125587619D01*
X134266665Y-124920952D02*
X134266665Y-125587619D01*
X134504760Y-124540000D02*
X134742855Y-125254285D01*
X134742855Y-125254285D02*
X134123808Y-125254285D01*
X145504761Y-126207619D02*
X144933333Y-126207619D01*
X145219047Y-127207619D02*
X145219047Y-126207619D01*
X144171428Y-127207619D02*
X144171428Y-126683809D01*
X144171428Y-126683809D02*
X144219047Y-126588571D01*
X144219047Y-126588571D02*
X144314285Y-126540952D01*
X144314285Y-126540952D02*
X144504761Y-126540952D01*
X144504761Y-126540952D02*
X144599999Y-126588571D01*
X144171428Y-127160000D02*
X144266666Y-127207619D01*
X144266666Y-127207619D02*
X144504761Y-127207619D01*
X144504761Y-127207619D02*
X144599999Y-127160000D01*
X144599999Y-127160000D02*
X144647618Y-127064761D01*
X144647618Y-127064761D02*
X144647618Y-126969523D01*
X144647618Y-126969523D02*
X144599999Y-126874285D01*
X144599999Y-126874285D02*
X144504761Y-126826666D01*
X144504761Y-126826666D02*
X144266666Y-126826666D01*
X144266666Y-126826666D02*
X144171428Y-126779047D01*
X143266666Y-127207619D02*
X143266666Y-126207619D01*
X143266666Y-127160000D02*
X143361904Y-127207619D01*
X143361904Y-127207619D02*
X143552380Y-127207619D01*
X143552380Y-127207619D02*
X143647618Y-127160000D01*
X143647618Y-127160000D02*
X143695237Y-127112380D01*
X143695237Y-127112380D02*
X143742856Y-127017142D01*
X143742856Y-127017142D02*
X143742856Y-126731428D01*
X143742856Y-126731428D02*
X143695237Y-126636190D01*
X143695237Y-126636190D02*
X143647618Y-126588571D01*
X143647618Y-126588571D02*
X143552380Y-126540952D01*
X143552380Y-126540952D02*
X143361904Y-126540952D01*
X143361904Y-126540952D02*
X143266666Y-126588571D01*
X142171427Y-126207619D02*
X141599999Y-126207619D01*
X141885713Y-127207619D02*
X141885713Y-126207619D01*
X141266665Y-127207619D02*
X141266665Y-126540952D01*
X141266665Y-126731428D02*
X141219046Y-126636190D01*
X141219046Y-126636190D02*
X141171427Y-126588571D01*
X141171427Y-126588571D02*
X141076189Y-126540952D01*
X141076189Y-126540952D02*
X140980951Y-126540952D01*
X140219046Y-126540952D02*
X140219046Y-127207619D01*
X140647617Y-126540952D02*
X140647617Y-127064761D01*
X140647617Y-127064761D02*
X140599998Y-127160000D01*
X140599998Y-127160000D02*
X140504760Y-127207619D01*
X140504760Y-127207619D02*
X140361903Y-127207619D01*
X140361903Y-127207619D02*
X140266665Y-127160000D01*
X140266665Y-127160000D02*
X140219046Y-127112380D01*
X139361903Y-127160000D02*
X139457141Y-127207619D01*
X139457141Y-127207619D02*
X139647617Y-127207619D01*
X139647617Y-127207619D02*
X139742855Y-127160000D01*
X139742855Y-127160000D02*
X139790474Y-127064761D01*
X139790474Y-127064761D02*
X139790474Y-126683809D01*
X139790474Y-126683809D02*
X139742855Y-126588571D01*
X139742855Y-126588571D02*
X139647617Y-126540952D01*
X139647617Y-126540952D02*
X139457141Y-126540952D01*
X139457141Y-126540952D02*
X139361903Y-126588571D01*
X139361903Y-126588571D02*
X139314284Y-126683809D01*
X139314284Y-126683809D02*
X139314284Y-126779047D01*
X139314284Y-126779047D02*
X139790474Y-126874285D01*
X138980950Y-127207619D02*
X138457141Y-126540952D01*
X138980950Y-126540952D02*
X138457141Y-127207619D01*
X145361904Y-128827619D02*
X145361904Y-127827619D01*
X145361904Y-127827619D02*
X145123809Y-127827619D01*
X145123809Y-127827619D02*
X144980952Y-127875238D01*
X144980952Y-127875238D02*
X144885714Y-127970476D01*
X144885714Y-127970476D02*
X144838095Y-128065714D01*
X144838095Y-128065714D02*
X144790476Y-128256190D01*
X144790476Y-128256190D02*
X144790476Y-128399047D01*
X144790476Y-128399047D02*
X144838095Y-128589523D01*
X144838095Y-128589523D02*
X144885714Y-128684761D01*
X144885714Y-128684761D02*
X144980952Y-128780000D01*
X144980952Y-128780000D02*
X145123809Y-128827619D01*
X145123809Y-128827619D02*
X145361904Y-128827619D01*
X143933333Y-128827619D02*
X143933333Y-128303809D01*
X143933333Y-128303809D02*
X143980952Y-128208571D01*
X143980952Y-128208571D02*
X144076190Y-128160952D01*
X144076190Y-128160952D02*
X144266666Y-128160952D01*
X144266666Y-128160952D02*
X144361904Y-128208571D01*
X143933333Y-128780000D02*
X144028571Y-128827619D01*
X144028571Y-128827619D02*
X144266666Y-128827619D01*
X144266666Y-128827619D02*
X144361904Y-128780000D01*
X144361904Y-128780000D02*
X144409523Y-128684761D01*
X144409523Y-128684761D02*
X144409523Y-128589523D01*
X144409523Y-128589523D02*
X144361904Y-128494285D01*
X144361904Y-128494285D02*
X144266666Y-128446666D01*
X144266666Y-128446666D02*
X144028571Y-128446666D01*
X144028571Y-128446666D02*
X143933333Y-128399047D01*
X143457142Y-128827619D02*
X143457142Y-128160952D01*
X143457142Y-128351428D02*
X143409523Y-128256190D01*
X143409523Y-128256190D02*
X143361904Y-128208571D01*
X143361904Y-128208571D02*
X143266666Y-128160952D01*
X143266666Y-128160952D02*
X143171428Y-128160952D01*
X142980951Y-128160952D02*
X142599999Y-128160952D01*
X142838094Y-127827619D02*
X142838094Y-128684761D01*
X142838094Y-128684761D02*
X142790475Y-128780000D01*
X142790475Y-128780000D02*
X142695237Y-128827619D01*
X142695237Y-128827619D02*
X142599999Y-128827619D01*
X142266665Y-128827619D02*
X142266665Y-128160952D01*
X142266665Y-128256190D02*
X142219046Y-128208571D01*
X142219046Y-128208571D02*
X142123808Y-128160952D01*
X142123808Y-128160952D02*
X141980951Y-128160952D01*
X141980951Y-128160952D02*
X141885713Y-128208571D01*
X141885713Y-128208571D02*
X141838094Y-128303809D01*
X141838094Y-128303809D02*
X141838094Y-128827619D01*
X141838094Y-128303809D02*
X141790475Y-128208571D01*
X141790475Y-128208571D02*
X141695237Y-128160952D01*
X141695237Y-128160952D02*
X141552380Y-128160952D01*
X141552380Y-128160952D02*
X141457141Y-128208571D01*
X141457141Y-128208571D02*
X141409522Y-128303809D01*
X141409522Y-128303809D02*
X141409522Y-128827619D01*
X140790475Y-128827619D02*
X140885713Y-128780000D01*
X140885713Y-128780000D02*
X140933332Y-128732380D01*
X140933332Y-128732380D02*
X140980951Y-128637142D01*
X140980951Y-128637142D02*
X140980951Y-128351428D01*
X140980951Y-128351428D02*
X140933332Y-128256190D01*
X140933332Y-128256190D02*
X140885713Y-128208571D01*
X140885713Y-128208571D02*
X140790475Y-128160952D01*
X140790475Y-128160952D02*
X140647618Y-128160952D01*
X140647618Y-128160952D02*
X140552380Y-128208571D01*
X140552380Y-128208571D02*
X140504761Y-128256190D01*
X140504761Y-128256190D02*
X140457142Y-128351428D01*
X140457142Y-128351428D02*
X140457142Y-128637142D01*
X140457142Y-128637142D02*
X140504761Y-128732380D01*
X140504761Y-128732380D02*
X140552380Y-128780000D01*
X140552380Y-128780000D02*
X140647618Y-128827619D01*
X140647618Y-128827619D02*
X140790475Y-128827619D01*
X139599999Y-128160952D02*
X139599999Y-128827619D01*
X140028570Y-128160952D02*
X140028570Y-128684761D01*
X140028570Y-128684761D02*
X139980951Y-128780000D01*
X139980951Y-128780000D02*
X139885713Y-128827619D01*
X139885713Y-128827619D02*
X139742856Y-128827619D01*
X139742856Y-128827619D02*
X139647618Y-128780000D01*
X139647618Y-128780000D02*
X139599999Y-128732380D01*
X139266665Y-128160952D02*
X138885713Y-128160952D01*
X139123808Y-127827619D02*
X139123808Y-128684761D01*
X139123808Y-128684761D02*
X139076189Y-128780000D01*
X139076189Y-128780000D02*
X138980951Y-128827619D01*
X138980951Y-128827619D02*
X138885713Y-128827619D01*
X138552379Y-128827619D02*
X138552379Y-127827619D01*
X138123808Y-128827619D02*
X138123808Y-128303809D01*
X138123808Y-128303809D02*
X138171427Y-128208571D01*
X138171427Y-128208571D02*
X138266665Y-128160952D01*
X138266665Y-128160952D02*
X138409522Y-128160952D01*
X138409522Y-128160952D02*
X138504760Y-128208571D01*
X138504760Y-128208571D02*
X138552379Y-128256190D01*
X136314284Y-128732380D02*
X136361903Y-128780000D01*
X136361903Y-128780000D02*
X136504760Y-128827619D01*
X136504760Y-128827619D02*
X136599998Y-128827619D01*
X136599998Y-128827619D02*
X136742855Y-128780000D01*
X136742855Y-128780000D02*
X136838093Y-128684761D01*
X136838093Y-128684761D02*
X136885712Y-128589523D01*
X136885712Y-128589523D02*
X136933331Y-128399047D01*
X136933331Y-128399047D02*
X136933331Y-128256190D01*
X136933331Y-128256190D02*
X136885712Y-128065714D01*
X136885712Y-128065714D02*
X136838093Y-127970476D01*
X136838093Y-127970476D02*
X136742855Y-127875238D01*
X136742855Y-127875238D02*
X136599998Y-127827619D01*
X136599998Y-127827619D02*
X136504760Y-127827619D01*
X136504760Y-127827619D02*
X136361903Y-127875238D01*
X136361903Y-127875238D02*
X136314284Y-127922857D01*
X135742855Y-128827619D02*
X135838093Y-128780000D01*
X135838093Y-128780000D02*
X135885712Y-128732380D01*
X135885712Y-128732380D02*
X135933331Y-128637142D01*
X135933331Y-128637142D02*
X135933331Y-128351428D01*
X135933331Y-128351428D02*
X135885712Y-128256190D01*
X135885712Y-128256190D02*
X135838093Y-128208571D01*
X135838093Y-128208571D02*
X135742855Y-128160952D01*
X135742855Y-128160952D02*
X135599998Y-128160952D01*
X135599998Y-128160952D02*
X135504760Y-128208571D01*
X135504760Y-128208571D02*
X135457141Y-128256190D01*
X135457141Y-128256190D02*
X135409522Y-128351428D01*
X135409522Y-128351428D02*
X135409522Y-128637142D01*
X135409522Y-128637142D02*
X135457141Y-128732380D01*
X135457141Y-128732380D02*
X135504760Y-128780000D01*
X135504760Y-128780000D02*
X135599998Y-128827619D01*
X135599998Y-128827619D02*
X135742855Y-128827619D01*
X134838093Y-128827619D02*
X134933331Y-128780000D01*
X134933331Y-128780000D02*
X134980950Y-128684761D01*
X134980950Y-128684761D02*
X134980950Y-127827619D01*
X134314283Y-128827619D02*
X134409521Y-128780000D01*
X134409521Y-128780000D02*
X134457140Y-128684761D01*
X134457140Y-128684761D02*
X134457140Y-127827619D01*
X133552378Y-128780000D02*
X133647616Y-128827619D01*
X133647616Y-128827619D02*
X133838092Y-128827619D01*
X133838092Y-128827619D02*
X133933330Y-128780000D01*
X133933330Y-128780000D02*
X133980949Y-128684761D01*
X133980949Y-128684761D02*
X133980949Y-128303809D01*
X133980949Y-128303809D02*
X133933330Y-128208571D01*
X133933330Y-128208571D02*
X133838092Y-128160952D01*
X133838092Y-128160952D02*
X133647616Y-128160952D01*
X133647616Y-128160952D02*
X133552378Y-128208571D01*
X133552378Y-128208571D02*
X133504759Y-128303809D01*
X133504759Y-128303809D02*
X133504759Y-128399047D01*
X133504759Y-128399047D02*
X133980949Y-128494285D01*
X132647616Y-128160952D02*
X132647616Y-128970476D01*
X132647616Y-128970476D02*
X132695235Y-129065714D01*
X132695235Y-129065714D02*
X132742854Y-129113333D01*
X132742854Y-129113333D02*
X132838092Y-129160952D01*
X132838092Y-129160952D02*
X132980949Y-129160952D01*
X132980949Y-129160952D02*
X133076187Y-129113333D01*
X132647616Y-128780000D02*
X132742854Y-128827619D01*
X132742854Y-128827619D02*
X132933330Y-128827619D01*
X132933330Y-128827619D02*
X133028568Y-128780000D01*
X133028568Y-128780000D02*
X133076187Y-128732380D01*
X133076187Y-128732380D02*
X133123806Y-128637142D01*
X133123806Y-128637142D02*
X133123806Y-128351428D01*
X133123806Y-128351428D02*
X133076187Y-128256190D01*
X133076187Y-128256190D02*
X133028568Y-128208571D01*
X133028568Y-128208571D02*
X132933330Y-128160952D01*
X132933330Y-128160952D02*
X132742854Y-128160952D01*
X132742854Y-128160952D02*
X132647616Y-128208571D01*
X131790473Y-128780000D02*
X131885711Y-128827619D01*
X131885711Y-128827619D02*
X132076187Y-128827619D01*
X132076187Y-128827619D02*
X132171425Y-128780000D01*
X132171425Y-128780000D02*
X132219044Y-128684761D01*
X132219044Y-128684761D02*
X132219044Y-128303809D01*
X132219044Y-128303809D02*
X132171425Y-128208571D01*
X132171425Y-128208571D02*
X132076187Y-128160952D01*
X132076187Y-128160952D02*
X131885711Y-128160952D01*
X131885711Y-128160952D02*
X131790473Y-128208571D01*
X131790473Y-128208571D02*
X131742854Y-128303809D01*
X131742854Y-128303809D02*
X131742854Y-128399047D01*
X131742854Y-128399047D02*
X132219044Y-128494285D01*
%TO.C,JP1*%
X144662619Y-103086666D02*
X145376904Y-103086666D01*
X145376904Y-103086666D02*
X145519761Y-103039047D01*
X145519761Y-103039047D02*
X145615000Y-102943809D01*
X145615000Y-102943809D02*
X145662619Y-102800952D01*
X145662619Y-102800952D02*
X145662619Y-102705714D01*
X145662619Y-103562857D02*
X144662619Y-103562857D01*
X144662619Y-103562857D02*
X144662619Y-103943809D01*
X144662619Y-103943809D02*
X144710238Y-104039047D01*
X144710238Y-104039047D02*
X144757857Y-104086666D01*
X144757857Y-104086666D02*
X144853095Y-104134285D01*
X144853095Y-104134285D02*
X144995952Y-104134285D01*
X144995952Y-104134285D02*
X145091190Y-104086666D01*
X145091190Y-104086666D02*
X145138809Y-104039047D01*
X145138809Y-104039047D02*
X145186428Y-103943809D01*
X145186428Y-103943809D02*
X145186428Y-103562857D01*
X145662619Y-105086666D02*
X145662619Y-104515238D01*
X145662619Y-104800952D02*
X144662619Y-104800952D01*
X144662619Y-104800952D02*
X144805476Y-104705714D01*
X144805476Y-104705714D02*
X144900714Y-104610476D01*
X144900714Y-104610476D02*
X144948333Y-104515238D01*
%TO.C,G\u002A\u002A\u002A*%
G36*
X144263620Y-114524082D02*
G01*
X144263620Y-114646072D01*
X144141630Y-114646072D01*
X144019640Y-114646072D01*
X144019640Y-114524082D01*
X144019640Y-114402092D01*
X144141630Y-114402092D01*
X144263620Y-114402092D01*
X144263620Y-114524082D01*
G37*
G36*
X144263620Y-113304185D02*
G01*
X144263620Y-113670154D01*
X144141630Y-113670154D01*
X144019640Y-113670154D01*
X144019640Y-113304185D01*
X144019640Y-112938216D01*
X144141630Y-112938216D01*
X144263620Y-112938216D01*
X144263620Y-113304185D01*
G37*
G36*
X143775661Y-113304185D02*
G01*
X143775661Y-113670154D01*
X143653671Y-113670154D01*
X143531681Y-113670154D01*
X143531681Y-113304185D01*
X143531681Y-112938216D01*
X143653671Y-112938216D01*
X143775661Y-112938216D01*
X143775661Y-113304185D01*
G37*
G36*
X143775661Y-119159691D02*
G01*
X143775661Y-119525660D01*
X143409692Y-119525660D01*
X143043723Y-119525660D01*
X143043723Y-119159691D01*
X143043723Y-118793722D01*
X143409692Y-118793722D01*
X143775661Y-118793722D01*
X143775661Y-119159691D01*
G37*
G36*
X143775661Y-111840308D02*
G01*
X143775661Y-112206277D01*
X143409692Y-112206277D01*
X143043723Y-112206277D01*
X143043723Y-111840308D01*
X143043723Y-111474339D01*
X143409692Y-111474339D01*
X143775661Y-111474339D01*
X143775661Y-111840308D01*
G37*
G36*
X142799743Y-115500000D02*
G01*
X142799743Y-115621989D01*
X142677753Y-115621989D01*
X142555764Y-115621989D01*
X142555764Y-115500000D01*
X142555764Y-115378010D01*
X142677753Y-115378010D01*
X142799743Y-115378010D01*
X142799743Y-115500000D01*
G37*
G36*
X142311784Y-119891629D02*
G01*
X142311784Y-120013619D01*
X142189795Y-120013619D01*
X142067805Y-120013619D01*
X142067805Y-119891629D01*
X142067805Y-119769639D01*
X142189795Y-119769639D01*
X142311784Y-119769639D01*
X142311784Y-119891629D01*
G37*
G36*
X142311784Y-119403670D02*
G01*
X142311784Y-119525660D01*
X142189795Y-119525660D01*
X142067805Y-119525660D01*
X142067805Y-119403670D01*
X142067805Y-119281681D01*
X142189795Y-119281681D01*
X142311784Y-119281681D01*
X142311784Y-119403670D01*
G37*
G36*
X142311784Y-112084288D02*
G01*
X142311784Y-112206277D01*
X142189795Y-112206277D01*
X142067805Y-112206277D01*
X142067805Y-112084288D01*
X142067805Y-111962298D01*
X142189795Y-111962298D01*
X142311784Y-111962298D01*
X142311784Y-112084288D01*
G37*
G36*
X142311784Y-115743979D02*
G01*
X142311784Y-115865969D01*
X142067805Y-115865969D01*
X141823825Y-115865969D01*
X141823825Y-115743979D01*
X141823825Y-115621989D01*
X142067805Y-115621989D01*
X142311784Y-115621989D01*
X142311784Y-115743979D01*
G37*
G36*
X141579846Y-117939794D02*
G01*
X141579846Y-118061783D01*
X141457856Y-118061783D01*
X141335867Y-118061783D01*
X141335867Y-117939794D01*
X141335867Y-117817804D01*
X141457856Y-117817804D01*
X141579846Y-117817804D01*
X141579846Y-117939794D01*
G37*
G36*
X141335867Y-117207855D02*
G01*
X141335867Y-117329845D01*
X141091887Y-117329845D01*
X140847908Y-117329845D01*
X140847908Y-117207855D01*
X140847908Y-117085866D01*
X141091887Y-117085866D01*
X141335867Y-117085866D01*
X141335867Y-117207855D01*
G37*
G36*
X141091887Y-112328267D02*
G01*
X141091887Y-112450257D01*
X140969898Y-112450257D01*
X140847908Y-112450257D01*
X140847908Y-112328267D01*
X140847908Y-112206277D01*
X140969898Y-112206277D01*
X141091887Y-112206277D01*
X141091887Y-112328267D01*
G37*
G36*
X140847908Y-116719897D02*
G01*
X140847908Y-116841886D01*
X140725918Y-116841886D01*
X140603928Y-116841886D01*
X140603928Y-116719897D01*
X140603928Y-116597907D01*
X140725918Y-116597907D01*
X140847908Y-116597907D01*
X140847908Y-116719897D01*
G37*
G36*
X140847908Y-112572247D02*
G01*
X140847908Y-112694236D01*
X140725918Y-112694236D01*
X140603928Y-112694236D01*
X140603928Y-112572247D01*
X140603928Y-112450257D01*
X140725918Y-112450257D01*
X140847908Y-112450257D01*
X140847908Y-112572247D01*
G37*
G36*
X140359949Y-112572247D02*
G01*
X140359949Y-112694236D01*
X140237959Y-112694236D01*
X140115970Y-112694236D01*
X140115970Y-112572247D01*
X140115970Y-112450257D01*
X140237959Y-112450257D01*
X140359949Y-112450257D01*
X140359949Y-112572247D01*
G37*
G36*
X140115970Y-119647650D02*
G01*
X140115970Y-120013619D01*
X139993980Y-120013619D01*
X139871990Y-120013619D01*
X139871990Y-119647650D01*
X139871990Y-119281681D01*
X139993980Y-119281681D01*
X140115970Y-119281681D01*
X140115970Y-119647650D01*
G37*
G36*
X138652093Y-114036123D02*
G01*
X138652093Y-114158113D01*
X138530103Y-114158113D01*
X138408114Y-114158113D01*
X138408114Y-114036123D01*
X138408114Y-113914133D01*
X138530103Y-113914133D01*
X138652093Y-113914133D01*
X138652093Y-114036123D01*
G37*
G36*
X137920155Y-118183773D02*
G01*
X137920155Y-118305763D01*
X137798165Y-118305763D01*
X137676175Y-118305763D01*
X137676175Y-118183773D01*
X137676175Y-118061783D01*
X137798165Y-118061783D01*
X137920155Y-118061783D01*
X137920155Y-118183773D01*
G37*
G36*
X137920155Y-113304185D02*
G01*
X137920155Y-113426175D01*
X137798165Y-113426175D01*
X137676175Y-113426175D01*
X137676175Y-113304185D01*
X137676175Y-113182195D01*
X137798165Y-113182195D01*
X137920155Y-113182195D01*
X137920155Y-113304185D01*
G37*
G36*
X137432196Y-117207855D02*
G01*
X137432196Y-117329845D01*
X137310206Y-117329845D01*
X137188217Y-117329845D01*
X137188217Y-117207855D01*
X137188217Y-117085866D01*
X137310206Y-117085866D01*
X137432196Y-117085866D01*
X137432196Y-117207855D01*
G37*
G36*
X137432196Y-114524082D02*
G01*
X137432196Y-114646072D01*
X137310206Y-114646072D01*
X137188217Y-114646072D01*
X137188217Y-114524082D01*
X137188217Y-114402092D01*
X137310206Y-114402092D01*
X137432196Y-114402092D01*
X137432196Y-114524082D01*
G37*
G36*
X136944237Y-118427753D02*
G01*
X136944237Y-118549742D01*
X136822247Y-118549742D01*
X136700258Y-118549742D01*
X136700258Y-118427753D01*
X136700258Y-118305763D01*
X136822247Y-118305763D01*
X136944237Y-118305763D01*
X136944237Y-118427753D01*
G37*
G36*
X136456278Y-116719897D02*
G01*
X136456278Y-116841886D01*
X136334289Y-116841886D01*
X136212299Y-116841886D01*
X136212299Y-116719897D01*
X136212299Y-116597907D01*
X136334289Y-116597907D01*
X136456278Y-116597907D01*
X136456278Y-116719897D01*
G37*
G36*
X136456278Y-114768061D02*
G01*
X136456278Y-114890051D01*
X136334289Y-114890051D01*
X136212299Y-114890051D01*
X136212299Y-114768061D01*
X136212299Y-114646072D01*
X136334289Y-114646072D01*
X136456278Y-114646072D01*
X136456278Y-114768061D01*
G37*
G36*
X136456278Y-113060205D02*
G01*
X136456278Y-113182195D01*
X136334289Y-113182195D01*
X136212299Y-113182195D01*
X136212299Y-113060205D01*
X136212299Y-112938216D01*
X136334289Y-112938216D01*
X136456278Y-112938216D01*
X136456278Y-113060205D01*
G37*
G36*
X136212299Y-113792144D02*
G01*
X136212299Y-113914133D01*
X136090309Y-113914133D01*
X135968319Y-113914133D01*
X135968319Y-113792144D01*
X135968319Y-113670154D01*
X136090309Y-113670154D01*
X136212299Y-113670154D01*
X136212299Y-113792144D01*
G37*
G36*
X136456278Y-111840308D02*
G01*
X136456278Y-112206277D01*
X136090309Y-112206277D01*
X135724340Y-112206277D01*
X135724340Y-111840308D01*
X135724340Y-111474339D01*
X136090309Y-111474339D01*
X136456278Y-111474339D01*
X136456278Y-111840308D01*
G37*
G36*
X135724340Y-113060205D02*
G01*
X135724340Y-113182195D01*
X135602350Y-113182195D01*
X135480361Y-113182195D01*
X135480361Y-113060205D01*
X135480361Y-112938216D01*
X135602350Y-112938216D01*
X135724340Y-112938216D01*
X135724340Y-113060205D01*
G37*
G36*
X140847908Y-119769639D02*
G01*
X140847908Y-120013619D01*
X140725918Y-120013619D01*
X140603928Y-120013619D01*
X140603928Y-119891629D01*
X140603928Y-119769639D01*
X140481939Y-119769639D01*
X140359949Y-119769639D01*
X140359949Y-119647650D01*
X140359949Y-119525660D01*
X140603928Y-119525660D01*
X140847908Y-119525660D01*
X140847908Y-119769639D01*
G37*
G36*
X139140052Y-113792144D02*
G01*
X139140052Y-113914133D01*
X139262042Y-113914133D01*
X139384031Y-113914133D01*
X139384031Y-114158113D01*
X139384031Y-114402092D01*
X139140052Y-114402092D01*
X138896072Y-114402092D01*
X138896072Y-114036123D01*
X138896072Y-113670154D01*
X139018062Y-113670154D01*
X139140052Y-113670154D01*
X139140052Y-113792144D01*
G37*
G36*
X137676175Y-119647650D02*
G01*
X137676175Y-119769639D01*
X137554186Y-119769639D01*
X137432196Y-119769639D01*
X137432196Y-119891629D01*
X137432196Y-120013619D01*
X137188217Y-120013619D01*
X136944237Y-120013619D01*
X136944237Y-119769639D01*
X136944237Y-119525660D01*
X137310206Y-119525660D01*
X137676175Y-119525660D01*
X137676175Y-119647650D01*
G37*
G36*
X144263620Y-116597907D02*
G01*
X144263620Y-117085866D01*
X144141630Y-117085866D01*
X144019640Y-117085866D01*
X144019640Y-116841886D01*
X144019640Y-116597907D01*
X143897651Y-116597907D01*
X143775661Y-116597907D01*
X143775661Y-116475917D01*
X143775661Y-116353928D01*
X143897651Y-116353928D01*
X144019640Y-116353928D01*
X144019640Y-116231938D01*
X144019640Y-116109948D01*
X144141630Y-116109948D01*
X144263620Y-116109948D01*
X144263620Y-116597907D01*
G37*
G36*
X143897651Y-114890051D02*
G01*
X144019640Y-114890051D01*
X144019640Y-115012041D01*
X144019640Y-115134030D01*
X143897651Y-115134030D01*
X143775661Y-115134030D01*
X143775661Y-115012041D01*
X143775661Y-114890051D01*
X143897651Y-114890051D01*
G37*
G36*
X143775661Y-114768061D02*
G01*
X143775661Y-114890051D01*
X143653671Y-114890051D01*
X143531681Y-114890051D01*
X143531681Y-114768061D01*
X143531681Y-114646072D01*
X143653671Y-114646072D01*
X143775661Y-114646072D01*
X143775661Y-114768061D01*
G37*
G36*
X140969898Y-118061783D02*
G01*
X141091887Y-118061783D01*
X141091887Y-118183773D01*
X141091887Y-118305763D01*
X141213877Y-118305763D01*
X141335867Y-118305763D01*
X141335867Y-118427753D01*
X141335867Y-118549742D01*
X141091887Y-118549742D01*
X140847908Y-118549742D01*
X140847908Y-118305763D01*
X140847908Y-118061783D01*
X140969898Y-118061783D01*
G37*
G36*
X141091887Y-117695814D02*
G01*
X141091887Y-117817804D01*
X140969898Y-117817804D01*
X140847908Y-117817804D01*
X140847908Y-117939794D01*
X140847908Y-118061783D01*
X140603928Y-118061783D01*
X140359949Y-118061783D01*
X140359949Y-117939794D01*
X140359949Y-117817804D01*
X140481939Y-117817804D01*
X140603928Y-117817804D01*
X140603928Y-117695814D01*
X140603928Y-117573825D01*
X140847908Y-117573825D01*
X141091887Y-117573825D01*
X141091887Y-117695814D01*
G37*
G36*
X135480361Y-113304185D02*
G01*
X135480361Y-113426175D01*
X135602350Y-113426175D01*
X135724340Y-113426175D01*
X135724340Y-113792144D01*
X135724340Y-114158113D01*
X135602350Y-114158113D01*
X135480361Y-114158113D01*
X135480361Y-114280102D01*
X135480361Y-114402092D01*
X135724340Y-114402092D01*
X135968319Y-114402092D01*
X135968319Y-114524082D01*
X135968319Y-114646072D01*
X135602350Y-114646072D01*
X135236381Y-114646072D01*
X135236381Y-114280102D01*
X135236381Y-113914133D01*
X135358371Y-113914133D01*
X135480361Y-113914133D01*
X135480361Y-113792144D01*
X135480361Y-113670154D01*
X135358371Y-113670154D01*
X135236381Y-113670154D01*
X135236381Y-113426175D01*
X135236381Y-113182195D01*
X135358371Y-113182195D01*
X135480361Y-113182195D01*
X135480361Y-113304185D01*
G37*
G36*
X140725918Y-114890051D02*
G01*
X141091887Y-114890051D01*
X141091887Y-115134030D01*
X141091887Y-115378010D01*
X140969898Y-115378010D01*
X140847908Y-115378010D01*
X140847908Y-115256020D01*
X140847908Y-115134030D01*
X140725918Y-115134030D01*
X140603928Y-115134030D01*
X140603928Y-115256020D01*
X140603928Y-115378010D01*
X140481939Y-115378010D01*
X140359949Y-115378010D01*
X140359949Y-115134030D01*
X140359949Y-114890051D01*
X140725918Y-114890051D01*
G37*
G36*
X140237959Y-114646072D02*
G01*
X140359949Y-114646072D01*
X140359949Y-114768061D01*
X140359949Y-114890051D01*
X140237959Y-114890051D01*
X140115970Y-114890051D01*
X140115970Y-114768061D01*
X140115970Y-114646072D01*
X140237959Y-114646072D01*
G37*
G36*
X140115970Y-114524082D02*
G01*
X140115970Y-114646072D01*
X139993980Y-114646072D01*
X139871990Y-114646072D01*
X139871990Y-114524082D01*
X139871990Y-114402092D01*
X139993980Y-114402092D01*
X140115970Y-114402092D01*
X140115970Y-114524082D01*
G37*
G36*
X144263620Y-120013619D02*
G01*
X143409692Y-120013619D01*
X142555764Y-120013619D01*
X142555764Y-119756569D01*
X142812813Y-119756569D01*
X143407764Y-119758808D01*
X143520492Y-119759180D01*
X143626097Y-119759394D01*
X143716277Y-119759399D01*
X143792068Y-119759179D01*
X143854509Y-119758720D01*
X143904637Y-119758006D01*
X143943490Y-119757023D01*
X143972105Y-119755756D01*
X143991519Y-119754189D01*
X144002771Y-119752306D01*
X144006898Y-119750094D01*
X144007266Y-119746718D01*
X144007891Y-119727764D01*
X144008414Y-119693604D01*
X144008830Y-119645694D01*
X144009135Y-119585489D01*
X144009324Y-119514445D01*
X144009392Y-119434016D01*
X144009335Y-119345658D01*
X144009148Y-119250827D01*
X144008826Y-119150977D01*
X144006570Y-118562813D01*
X143409692Y-118562813D01*
X142812813Y-118562813D01*
X142812813Y-119159691D01*
X142812813Y-119756569D01*
X142555764Y-119756569D01*
X142555764Y-119159691D01*
X142555764Y-118305763D01*
X143409692Y-118305763D01*
X144263620Y-118305763D01*
X144263620Y-119159691D01*
X144263620Y-119434016D01*
X144263620Y-120013619D01*
G37*
G36*
X144263620Y-112694236D02*
G01*
X143409692Y-112694236D01*
X142555764Y-112694236D01*
X142555764Y-112437187D01*
X142812813Y-112437187D01*
X143407764Y-112439425D01*
X143520492Y-112439798D01*
X143626097Y-112440012D01*
X143716277Y-112440016D01*
X143792068Y-112439796D01*
X143854509Y-112439337D01*
X143904637Y-112438624D01*
X143943490Y-112437641D01*
X143972105Y-112436373D01*
X143991519Y-112434806D01*
X144002771Y-112432924D01*
X144006898Y-112430712D01*
X144007266Y-112427336D01*
X144007891Y-112408382D01*
X144008414Y-112374222D01*
X144008830Y-112326312D01*
X144009135Y-112266107D01*
X144009324Y-112195062D01*
X144009392Y-112114633D01*
X144009335Y-112026276D01*
X144009148Y-111931444D01*
X144008826Y-111831595D01*
X144006570Y-111243430D01*
X143409692Y-111243430D01*
X142812813Y-111243430D01*
X142812813Y-111840308D01*
X142812813Y-112437187D01*
X142555764Y-112437187D01*
X142555764Y-111840308D01*
X142555764Y-110986380D01*
X143409692Y-110986380D01*
X144263620Y-110986380D01*
X144263620Y-111840308D01*
X144263620Y-112114633D01*
X144263620Y-112694236D01*
G37*
G36*
X136944237Y-112694236D02*
G01*
X136090309Y-112694236D01*
X135236381Y-112694236D01*
X135236381Y-112437187D01*
X135493431Y-112437187D01*
X136088381Y-112439425D01*
X136201110Y-112439798D01*
X136306715Y-112440012D01*
X136396894Y-112440016D01*
X136472686Y-112439796D01*
X136535127Y-112439337D01*
X136585255Y-112438624D01*
X136624107Y-112437641D01*
X136652722Y-112436373D01*
X136672137Y-112434806D01*
X136683389Y-112432924D01*
X136687516Y-112430712D01*
X136687884Y-112427336D01*
X136688509Y-112408382D01*
X136689032Y-112374222D01*
X136689448Y-112326312D01*
X136689753Y-112266107D01*
X136689942Y-112195062D01*
X136690010Y-112114633D01*
X136689953Y-112026276D01*
X136689766Y-111931444D01*
X136689444Y-111831595D01*
X136687187Y-111243430D01*
X136090309Y-111243430D01*
X135493431Y-111243430D01*
X135493431Y-111840308D01*
X135493431Y-112437187D01*
X135236381Y-112437187D01*
X135236381Y-111840308D01*
X135236381Y-110986380D01*
X136090309Y-110986380D01*
X136944237Y-110986380D01*
X136944237Y-111840308D01*
X136944237Y-112114633D01*
X136944237Y-112694236D01*
G37*
G36*
X135602350Y-117817804D02*
G01*
X135724340Y-117817804D01*
X135724340Y-118427753D01*
X135724340Y-119037701D01*
X135602350Y-119037701D01*
X135480361Y-119037701D01*
X135480361Y-118793722D01*
X135480361Y-118549742D01*
X135358371Y-118549742D01*
X135236381Y-118549742D01*
X135236381Y-118305763D01*
X135236381Y-118061783D01*
X135358371Y-118061783D01*
X135480361Y-118061783D01*
X135480361Y-117939794D01*
X135480361Y-117817804D01*
X135602350Y-117817804D01*
G37*
G36*
X136212299Y-116109948D02*
G01*
X136212299Y-116353928D01*
X136090309Y-116353928D01*
X135968319Y-116353928D01*
X135968319Y-116475917D01*
X135968319Y-116597907D01*
X135846330Y-116597907D01*
X135724340Y-116597907D01*
X135724340Y-117085866D01*
X135724340Y-117573825D01*
X135602350Y-117573825D01*
X135480361Y-117573825D01*
X135480361Y-117695814D01*
X135480361Y-117817804D01*
X135358371Y-117817804D01*
X135236381Y-117817804D01*
X135236381Y-117451835D01*
X135236381Y-117085866D01*
X135358371Y-117085866D01*
X135480361Y-117085866D01*
X135480361Y-116841886D01*
X135480361Y-116597907D01*
X135358371Y-116597907D01*
X135236381Y-116597907D01*
X135236381Y-116353928D01*
X135236381Y-116109948D01*
X135480361Y-116109948D01*
X135724340Y-116109948D01*
X135724340Y-116231938D01*
X135724340Y-116353928D01*
X135846330Y-116353928D01*
X135968319Y-116353928D01*
X135968319Y-116109948D01*
X135968319Y-115865969D01*
X136090309Y-115865969D01*
X136212299Y-115865969D01*
X136212299Y-116109948D01*
G37*
G36*
X143409692Y-117573825D02*
G01*
X143531681Y-117573825D01*
X143531681Y-117695814D01*
X143531681Y-117817804D01*
X143165712Y-117817804D01*
X142799743Y-117817804D01*
X142799743Y-117939794D01*
X142799743Y-118061783D01*
X142555764Y-118061783D01*
X142311784Y-118061783D01*
X142311784Y-117817804D01*
X142555764Y-117817804D01*
X142677753Y-117817804D01*
X142799743Y-117817804D01*
X142799743Y-117695814D01*
X142799743Y-117573825D01*
X142677753Y-117573825D01*
X142555764Y-117573825D01*
X142555764Y-117695814D01*
X142555764Y-117817804D01*
X142311784Y-117817804D01*
X142311784Y-117695814D01*
X142311784Y-117329845D01*
X142555764Y-117329845D01*
X142799743Y-117329845D01*
X142799743Y-117207855D01*
X142799743Y-117085866D01*
X143043723Y-117085866D01*
X143043723Y-117207855D01*
X143043723Y-117329845D01*
X143165712Y-117329845D01*
X143287702Y-117329845D01*
X143287702Y-117207855D01*
X143287702Y-117085866D01*
X143165712Y-117085866D01*
X143043723Y-117085866D01*
X142799743Y-117085866D01*
X142677753Y-117085866D01*
X142555764Y-117085866D01*
X142555764Y-116963876D01*
X142555764Y-116841886D01*
X142677753Y-116841886D01*
X142799743Y-116841886D01*
X142799743Y-116719897D01*
X142799743Y-116597907D01*
X142921733Y-116597907D01*
X143043723Y-116597907D01*
X143043723Y-116475917D01*
X143043723Y-116353928D01*
X143165712Y-116353928D01*
X143287702Y-116353928D01*
X143287702Y-116475917D01*
X143287702Y-116597907D01*
X143409692Y-116597907D01*
X143531681Y-116597907D01*
X143531681Y-116719897D01*
X143531681Y-116841886D01*
X143653671Y-116841886D01*
X143775661Y-116841886D01*
X143775661Y-117207855D01*
X143775661Y-117573825D01*
X143897651Y-117573825D01*
X144019640Y-117573825D01*
X144019640Y-117451835D01*
X144019640Y-117329845D01*
X144141630Y-117329845D01*
X144263620Y-117329845D01*
X144263620Y-117451835D01*
X144263620Y-117573825D01*
X144141630Y-117573825D01*
X144019640Y-117573825D01*
X144019640Y-117695814D01*
X144019640Y-117817804D01*
X143897651Y-117817804D01*
X143775661Y-117817804D01*
X143775661Y-117939794D01*
X143775661Y-118061783D01*
X143653671Y-118061783D01*
X143531681Y-118061783D01*
X143531681Y-117939794D01*
X143531681Y-117817804D01*
X143653671Y-117817804D01*
X143775661Y-117817804D01*
X143775661Y-117695814D01*
X143775661Y-117573825D01*
X143653671Y-117573825D01*
X143531681Y-117573825D01*
X143531681Y-117451835D01*
X143531681Y-117329845D01*
X143409692Y-117329845D01*
X143287702Y-117329845D01*
X143287702Y-117451835D01*
X143287702Y-117573825D01*
X143409692Y-117573825D01*
G37*
G36*
X144141630Y-117817804D02*
G01*
X144263620Y-117817804D01*
X144263620Y-117939794D01*
X144263620Y-118061783D01*
X144141630Y-118061783D01*
X144019640Y-118061783D01*
X144019640Y-117939794D01*
X144019640Y-117817804D01*
X144141630Y-117817804D01*
G37*
G36*
X143043723Y-116109948D02*
G01*
X143043723Y-116353928D01*
X142921733Y-116353928D01*
X142799743Y-116353928D01*
X142799743Y-116231938D01*
X142799743Y-116109948D01*
X142677753Y-116109948D01*
X142555764Y-116109948D01*
X142555764Y-115987958D01*
X142555764Y-115865969D01*
X142799743Y-115865969D01*
X143043723Y-115865969D01*
X143043723Y-116109948D01*
G37*
G36*
X139628011Y-115012041D02*
G01*
X139628011Y-115378010D01*
X139750000Y-115378010D01*
X139871990Y-115378010D01*
X139871990Y-115256020D01*
X139871990Y-115134030D01*
X139993980Y-115134030D01*
X140115970Y-115134030D01*
X140115970Y-115500000D01*
X140115970Y-115865969D01*
X140237959Y-115865969D01*
X140359949Y-115865969D01*
X140359949Y-115743979D01*
X140359949Y-115621989D01*
X140725918Y-115621989D01*
X141091887Y-115621989D01*
X141091887Y-115987958D01*
X141091887Y-116353928D01*
X141213877Y-116353928D01*
X141335867Y-116353928D01*
X141335867Y-116109948D01*
X141335867Y-115865969D01*
X141457856Y-115865969D01*
X141579846Y-115865969D01*
X141579846Y-116109948D01*
X141579846Y-116353928D01*
X141823825Y-116353928D01*
X142067805Y-116353928D01*
X142067805Y-116231938D01*
X142067805Y-116109948D01*
X142189795Y-116109948D01*
X142311784Y-116109948D01*
X142311784Y-116231938D01*
X142311784Y-116353928D01*
X142555764Y-116353928D01*
X142799743Y-116353928D01*
X142799743Y-116475917D01*
X142799743Y-116597907D01*
X142555764Y-116597907D01*
X142311784Y-116597907D01*
X142311784Y-116719897D01*
X142311784Y-116841886D01*
X142189795Y-116841886D01*
X142067805Y-116841886D01*
X142067805Y-116719897D01*
X142067805Y-116597907D01*
X141945815Y-116597907D01*
X141823825Y-116597907D01*
X141823825Y-116841886D01*
X141823825Y-117085866D01*
X142067805Y-117085866D01*
X142311784Y-117085866D01*
X142311784Y-117207855D01*
X142311784Y-117329845D01*
X142189795Y-117329845D01*
X142067805Y-117329845D01*
X142067805Y-117573825D01*
X142067805Y-117817804D01*
X141823825Y-117817804D01*
X141579846Y-117817804D01*
X141579846Y-117695814D01*
X141579846Y-117573825D01*
X141701836Y-117573825D01*
X141823825Y-117573825D01*
X141823825Y-117451835D01*
X141823825Y-117329845D01*
X141701836Y-117329845D01*
X141579846Y-117329845D01*
X141579846Y-116841886D01*
X141579846Y-116353928D01*
X141457856Y-116353928D01*
X141335867Y-116353928D01*
X141335867Y-116475917D01*
X141335867Y-116597907D01*
X141091887Y-116597907D01*
X140847908Y-116597907D01*
X140847908Y-116475917D01*
X140847908Y-116353928D01*
X140725918Y-116353928D01*
X140603928Y-116353928D01*
X140603928Y-116231938D01*
X140603928Y-116109948D01*
X140725918Y-116109948D01*
X140847908Y-116109948D01*
X140847908Y-115987958D01*
X140847908Y-115865969D01*
X140603928Y-115865969D01*
X140359949Y-115865969D01*
X140359949Y-116231938D01*
X140359949Y-116597907D01*
X140237959Y-116597907D01*
X140115970Y-116597907D01*
X140115970Y-116475917D01*
X140115970Y-116353928D01*
X139993980Y-116353928D01*
X139871990Y-116353928D01*
X139871990Y-116475917D01*
X139871990Y-116597907D01*
X139993980Y-116597907D01*
X140115970Y-116597907D01*
X140115970Y-116719897D01*
X140115970Y-116841886D01*
X139993980Y-116841886D01*
X139871990Y-116841886D01*
X139871990Y-117085866D01*
X139871990Y-117329845D01*
X139628011Y-117329845D01*
X139384031Y-117329845D01*
X139384031Y-117085866D01*
X139384031Y-116841886D01*
X139262042Y-116841886D01*
X139140052Y-116841886D01*
X139140052Y-116719897D01*
X139140052Y-116597907D01*
X139262042Y-116597907D01*
X139384031Y-116597907D01*
X139384031Y-116719897D01*
X139384031Y-116841886D01*
X139506021Y-116841886D01*
X139628011Y-116841886D01*
X139628011Y-116597907D01*
X139628011Y-116353928D01*
X139750000Y-116353928D01*
X139871990Y-116353928D01*
X139871990Y-116109948D01*
X139871990Y-115865969D01*
X139750000Y-115865969D01*
X139628011Y-115865969D01*
X139628011Y-116109948D01*
X139628011Y-116353928D01*
X139384031Y-116353928D01*
X139140052Y-116353928D01*
X139140052Y-116231938D01*
X139140052Y-116109948D01*
X139018062Y-116109948D01*
X138896072Y-116109948D01*
X138896072Y-115987958D01*
X138896072Y-115865969D01*
X138652093Y-115865969D01*
X138408114Y-115865969D01*
X138408114Y-115743979D01*
X138408114Y-115621989D01*
X138530103Y-115621989D01*
X138652093Y-115621989D01*
X138896072Y-115621989D01*
X139018062Y-115621989D01*
X139140052Y-115621989D01*
X139384031Y-115621989D01*
X139384031Y-115743979D01*
X139384031Y-115865969D01*
X139506021Y-115865969D01*
X139628011Y-115865969D01*
X139628011Y-115743979D01*
X139628011Y-115621989D01*
X139506021Y-115621989D01*
X139384031Y-115621989D01*
X139140052Y-115621989D01*
X139140052Y-115500000D01*
X139140052Y-115378010D01*
X139018062Y-115378010D01*
X138896072Y-115378010D01*
X138896072Y-115500000D01*
X138896072Y-115621989D01*
X138652093Y-115621989D01*
X138652093Y-115500000D01*
X138652093Y-115378010D01*
X138530103Y-115378010D01*
X138408114Y-115378010D01*
X138408114Y-115256020D01*
X138408114Y-115134030D01*
X138530103Y-115134030D01*
X138652093Y-115134030D01*
X138896072Y-115134030D01*
X139018062Y-115134030D01*
X139140052Y-115134030D01*
X139140052Y-115012041D01*
X139140052Y-114890051D01*
X139018062Y-114890051D01*
X138896072Y-114890051D01*
X138896072Y-115012041D01*
X138896072Y-115134030D01*
X138652093Y-115134030D01*
X138652093Y-115012041D01*
X138652093Y-114890051D01*
X138530103Y-114890051D01*
X138408114Y-114890051D01*
X138408114Y-114768061D01*
X138408114Y-114646072D01*
X138530103Y-114646072D01*
X138652093Y-114646072D01*
X138652093Y-114524082D01*
X138652093Y-114402092D01*
X138774083Y-114402092D01*
X138896072Y-114402092D01*
X138896072Y-114524082D01*
X138896072Y-114646072D01*
X139262042Y-114646072D01*
X139628011Y-114646072D01*
X139628011Y-114890051D01*
X139628011Y-115012041D01*
G37*
G36*
X139140052Y-116475917D02*
G01*
X139140052Y-116597907D01*
X139018062Y-116597907D01*
X138896072Y-116597907D01*
X138896072Y-116475917D01*
X138896072Y-116353928D01*
X139018062Y-116353928D01*
X139140052Y-116353928D01*
X139140052Y-116475917D01*
G37*
G36*
X143287702Y-115743979D02*
G01*
X143287702Y-115865969D01*
X143409692Y-115865969D01*
X143531681Y-115865969D01*
X143531681Y-115743979D01*
X143531681Y-115621989D01*
X143897651Y-115621989D01*
X144263620Y-115621989D01*
X144263620Y-115743979D01*
X144263620Y-115865969D01*
X143897651Y-115865969D01*
X143531681Y-115865969D01*
X143531681Y-115987958D01*
X143531681Y-116109948D01*
X143409692Y-116109948D01*
X143287702Y-116109948D01*
X143287702Y-115987958D01*
X143287702Y-115865969D01*
X143165712Y-115865969D01*
X143043723Y-115865969D01*
X143043723Y-115743979D01*
X143043723Y-115621989D01*
X143165712Y-115621989D01*
X143287702Y-115621989D01*
X143287702Y-115743979D01*
G37*
G36*
X141823825Y-113914133D02*
G01*
X141945815Y-113914133D01*
X142067805Y-113914133D01*
X142067805Y-114036123D01*
X142067805Y-114158113D01*
X142189795Y-114158113D01*
X142311784Y-114158113D01*
X142311784Y-114036123D01*
X142311784Y-113914133D01*
X142555764Y-113914133D01*
X142799743Y-113914133D01*
X142799743Y-114036123D01*
X142799743Y-114158113D01*
X142555764Y-114158113D01*
X142311784Y-114158113D01*
X142311784Y-114280102D01*
X142311784Y-114402092D01*
X142555764Y-114402092D01*
X142799743Y-114402092D01*
X142799743Y-114524082D01*
X142799743Y-114646072D01*
X142677753Y-114646072D01*
X142555764Y-114646072D01*
X142555764Y-114768061D01*
X142555764Y-114890051D01*
X142677753Y-114890051D01*
X142799743Y-114890051D01*
X142799743Y-115012041D01*
X142799743Y-115134030D01*
X142921733Y-115134030D01*
X143043723Y-115134030D01*
X143043723Y-114524082D01*
X143043723Y-113914133D01*
X142921733Y-113914133D01*
X142799743Y-113914133D01*
X142799743Y-113792144D01*
X142799743Y-113670154D01*
X142433774Y-113670154D01*
X142067805Y-113670154D01*
X142067805Y-113426175D01*
X142067805Y-113182195D01*
X142189795Y-113182195D01*
X142311784Y-113182195D01*
X142311784Y-113304185D01*
X142311784Y-113426175D01*
X142555764Y-113426175D01*
X142799743Y-113426175D01*
X142799743Y-113304185D01*
X142799743Y-113182195D01*
X142677753Y-113182195D01*
X142555764Y-113182195D01*
X142555764Y-113060205D01*
X142555764Y-112938216D01*
X142677753Y-112938216D01*
X142799743Y-112938216D01*
X142799743Y-113060205D01*
X142799743Y-113182195D01*
X142921733Y-113182195D01*
X143043723Y-113182195D01*
X143043723Y-113060205D01*
X143043723Y-112938216D01*
X143165712Y-112938216D01*
X143287702Y-112938216D01*
X143287702Y-113060205D01*
X143287702Y-113182195D01*
X143165712Y-113182195D01*
X143043723Y-113182195D01*
X143043723Y-113548164D01*
X143043723Y-113914133D01*
X143165712Y-113914133D01*
X143287702Y-113914133D01*
X143287702Y-113792144D01*
X143287702Y-113670154D01*
X143409692Y-113670154D01*
X143531681Y-113670154D01*
X143531681Y-113792144D01*
X143531681Y-113914133D01*
X143409692Y-113914133D01*
X143287702Y-113914133D01*
X143287702Y-114036123D01*
X143287702Y-114158113D01*
X143531681Y-114158113D01*
X143775661Y-114158113D01*
X143775661Y-114036123D01*
X143775661Y-113914133D01*
X144019640Y-113914133D01*
X144263620Y-113914133D01*
X144263620Y-114036123D01*
X144263620Y-114158113D01*
X144019640Y-114158113D01*
X143775661Y-114158113D01*
X143775661Y-114280102D01*
X143775661Y-114402092D01*
X143531681Y-114402092D01*
X143287702Y-114402092D01*
X143287702Y-114768061D01*
X143287702Y-115134030D01*
X143409692Y-115134030D01*
X143531681Y-115134030D01*
X143531681Y-115378010D01*
X143531681Y-115621989D01*
X143409692Y-115621989D01*
X143287702Y-115621989D01*
X143287702Y-115500000D01*
X143287702Y-115378010D01*
X143043723Y-115378010D01*
X142799743Y-115378010D01*
X142799743Y-115256020D01*
X142799743Y-115134030D01*
X142555764Y-115134030D01*
X142311784Y-115134030D01*
X142311784Y-115256020D01*
X142311784Y-115378010D01*
X142189795Y-115378010D01*
X142067805Y-115378010D01*
X142067805Y-114768061D01*
X142067805Y-114158113D01*
X141823825Y-114158113D01*
X141579846Y-114158113D01*
X141579846Y-114524082D01*
X141579846Y-114890051D01*
X141701836Y-114890051D01*
X141823825Y-114890051D01*
X141823825Y-115134030D01*
X141823825Y-115378010D01*
X141701836Y-115378010D01*
X141579846Y-115378010D01*
X141579846Y-115256020D01*
X141579846Y-115134030D01*
X141457856Y-115134030D01*
X141335867Y-115134030D01*
X141335867Y-115012041D01*
X141335867Y-114890051D01*
X141213877Y-114890051D01*
X141091887Y-114890051D01*
X141091887Y-114768061D01*
X141091887Y-114646072D01*
X141213877Y-114646072D01*
X141335867Y-114646072D01*
X141335867Y-114524082D01*
X141335867Y-114402092D01*
X141213877Y-114402092D01*
X141091887Y-114402092D01*
X141091887Y-114158113D01*
X141091887Y-113914133D01*
X141335867Y-113914133D01*
X141457856Y-113914133D01*
X141579846Y-113914133D01*
X141579846Y-113792144D01*
X141579846Y-113670154D01*
X141457856Y-113670154D01*
X141335867Y-113670154D01*
X141335867Y-113792144D01*
X141335867Y-113914133D01*
X141091887Y-113914133D01*
X140847908Y-113914133D01*
X140603928Y-113914133D01*
X140603928Y-114036123D01*
X140603928Y-114158113D01*
X140481939Y-114158113D01*
X140359949Y-114158113D01*
X140359949Y-114280102D01*
X140359949Y-114402092D01*
X140237959Y-114402092D01*
X140115970Y-114402092D01*
X140115970Y-114158113D01*
X140115970Y-113914133D01*
X139750000Y-113914133D01*
X139384031Y-113914133D01*
X139384031Y-113792144D01*
X139384031Y-113670154D01*
X139750000Y-113670154D01*
X140115970Y-113670154D01*
X140359949Y-113670154D01*
X140359949Y-113792144D01*
X140359949Y-113914133D01*
X140481939Y-113914133D01*
X140603928Y-113914133D01*
X140603928Y-113792144D01*
X140603928Y-113670154D01*
X140481939Y-113670154D01*
X140359949Y-113670154D01*
X140115970Y-113670154D01*
X140115970Y-113548164D01*
X140115970Y-113426175D01*
X139750000Y-113426175D01*
X139384031Y-113426175D01*
X139384031Y-113304185D01*
X139384031Y-113182195D01*
X139506021Y-113182195D01*
X139628011Y-113182195D01*
X139628011Y-113060205D01*
X139628011Y-112938216D01*
X139506021Y-112938216D01*
X139384031Y-112938216D01*
X139384031Y-112816226D01*
X139384031Y-112694236D01*
X139506021Y-112694236D01*
X139628011Y-112694236D01*
X139628011Y-112572247D01*
X139628011Y-112450257D01*
X139750000Y-112450257D01*
X139871990Y-112450257D01*
X139871990Y-112572247D01*
X139871990Y-112694236D01*
X139993980Y-112694236D01*
X140115970Y-112694236D01*
X140115970Y-112816226D01*
X140115970Y-112938216D01*
X139993980Y-112938216D01*
X139871990Y-112938216D01*
X139871990Y-113060205D01*
X139871990Y-113182195D01*
X139993980Y-113182195D01*
X140115970Y-113182195D01*
X140115970Y-113060205D01*
X140115970Y-112938216D01*
X140481939Y-112938216D01*
X140847908Y-112938216D01*
X140847908Y-112816226D01*
X140847908Y-112694236D01*
X140969898Y-112694236D01*
X141091887Y-112694236D01*
X141091887Y-112572247D01*
X141091887Y-112450257D01*
X141213877Y-112450257D01*
X141335867Y-112450257D01*
X141335867Y-112572247D01*
X141335867Y-112694236D01*
X141457856Y-112694236D01*
X141579846Y-112694236D01*
X141579846Y-112450257D01*
X141579846Y-112206277D01*
X141701836Y-112206277D01*
X141823825Y-112206277D01*
X141823825Y-112450257D01*
X141823825Y-112694236D01*
X141945815Y-112694236D01*
X142067805Y-112694236D01*
X142067805Y-112572247D01*
X142067805Y-112450257D01*
X142189795Y-112450257D01*
X142311784Y-112450257D01*
X142311784Y-112572247D01*
X142311784Y-112694236D01*
X142189795Y-112694236D01*
X142067805Y-112694236D01*
X142067805Y-112816226D01*
X142067805Y-112938216D01*
X141945815Y-112938216D01*
X141823825Y-112938216D01*
X141823825Y-112816226D01*
X141823825Y-112694236D01*
X141701836Y-112694236D01*
X141579846Y-112694236D01*
X141579846Y-112816226D01*
X141579846Y-112938216D01*
X141457856Y-112938216D01*
X141335867Y-112938216D01*
X141335867Y-113060205D01*
X141335867Y-113182195D01*
X141213877Y-113182195D01*
X141091887Y-113182195D01*
X141091887Y-113060205D01*
X141091887Y-112938216D01*
X140969898Y-112938216D01*
X140847908Y-112938216D01*
X140847908Y-113060205D01*
X140847908Y-113182195D01*
X140725918Y-113182195D01*
X140603928Y-113182195D01*
X140603928Y-113426175D01*
X140603928Y-113670154D01*
X140725918Y-113670154D01*
X140847908Y-113670154D01*
X140847908Y-113548164D01*
X140847908Y-113426175D01*
X140969898Y-113426175D01*
X141091887Y-113426175D01*
X141091887Y-113548164D01*
X141091887Y-113670154D01*
X141213877Y-113670154D01*
X141335867Y-113670154D01*
X141335867Y-113548164D01*
X141335867Y-113426175D01*
X141579846Y-113426175D01*
X141823825Y-113426175D01*
X141823825Y-113670154D01*
X141823825Y-113914133D01*
G37*
G36*
X138896072Y-111718319D02*
G01*
X138896072Y-111962298D01*
X139018062Y-111962298D01*
X139140052Y-111962298D01*
X139140052Y-111840308D01*
X139140052Y-111718319D01*
X139262042Y-111718319D01*
X139384031Y-111718319D01*
X139384031Y-111840308D01*
X139384031Y-111962298D01*
X139262042Y-111962298D01*
X139140052Y-111962298D01*
X139140052Y-112084288D01*
X139140052Y-112206277D01*
X139262042Y-112206277D01*
X139384031Y-112206277D01*
X139384031Y-112084288D01*
X139384031Y-111962298D01*
X139506021Y-111962298D01*
X139628011Y-111962298D01*
X139628011Y-111840308D01*
X139628011Y-111718319D01*
X139506021Y-111718319D01*
X139384031Y-111718319D01*
X139384031Y-111596329D01*
X139384031Y-111474339D01*
X139628011Y-111474339D01*
X139871990Y-111474339D01*
X139871990Y-111840308D01*
X139871990Y-112206277D01*
X139993980Y-112206277D01*
X140115970Y-112206277D01*
X140115970Y-112084288D01*
X140115970Y-111962298D01*
X140359949Y-111962298D01*
X140603928Y-111962298D01*
X140603928Y-111840308D01*
X140603928Y-111718319D01*
X140725918Y-111718319D01*
X140847908Y-111718319D01*
X140847908Y-111596329D01*
X140847908Y-111474339D01*
X140725918Y-111474339D01*
X140603928Y-111474339D01*
X140603928Y-111352349D01*
X140603928Y-111230360D01*
X140847908Y-111230360D01*
X141091887Y-111230360D01*
X141091887Y-111474339D01*
X141091887Y-111718319D01*
X141213877Y-111718319D01*
X141335867Y-111718319D01*
X141335867Y-111474339D01*
X141335867Y-111230360D01*
X141457856Y-111230360D01*
X141579846Y-111230360D01*
X141579846Y-111108370D01*
X141579846Y-110986380D01*
X141701836Y-110986380D01*
X141823825Y-110986380D01*
X141823825Y-111108370D01*
X141823825Y-111230360D01*
X142067805Y-111230360D01*
X142311784Y-111230360D01*
X142311784Y-111352349D01*
X142311784Y-111474339D01*
X142189795Y-111474339D01*
X142067805Y-111474339D01*
X142067805Y-111596329D01*
X142067805Y-111718319D01*
X141945815Y-111718319D01*
X141823825Y-111718319D01*
X141823825Y-111840308D01*
X141823825Y-111962298D01*
X141701836Y-111962298D01*
X141579846Y-111962298D01*
X141579846Y-112084288D01*
X141579846Y-112206277D01*
X141335867Y-112206277D01*
X141091887Y-112206277D01*
X141091887Y-112084288D01*
X141091887Y-111962298D01*
X141335867Y-111962298D01*
X141457856Y-111962298D01*
X141579846Y-111962298D01*
X141579846Y-111840308D01*
X141579846Y-111718319D01*
X141457856Y-111718319D01*
X141335867Y-111718319D01*
X141335867Y-111840308D01*
X141335867Y-111962298D01*
X141091887Y-111962298D01*
X140969898Y-111962298D01*
X140847908Y-111962298D01*
X140847908Y-112084288D01*
X140847908Y-112206277D01*
X140725918Y-112206277D01*
X140603928Y-112206277D01*
X140603928Y-112328267D01*
X140603928Y-112450257D01*
X140481939Y-112450257D01*
X140359949Y-112450257D01*
X140359949Y-112328267D01*
X140359949Y-112206277D01*
X140237959Y-112206277D01*
X140115970Y-112206277D01*
X140115970Y-112328267D01*
X140115970Y-112450257D01*
X139993980Y-112450257D01*
X139871990Y-112450257D01*
X139871990Y-112328267D01*
X139871990Y-112206277D01*
X139750000Y-112206277D01*
X139628011Y-112206277D01*
X139628011Y-112328267D01*
X139628011Y-112450257D01*
X139506021Y-112450257D01*
X139384031Y-112450257D01*
X139384031Y-112572247D01*
X139384031Y-112694236D01*
X139262042Y-112694236D01*
X139140052Y-112694236D01*
X139140052Y-112450257D01*
X139140052Y-112206277D01*
X139018062Y-112206277D01*
X138896072Y-112206277D01*
X138896072Y-112450257D01*
X138896072Y-112694236D01*
X138774083Y-112694236D01*
X138652093Y-112694236D01*
X138652093Y-112572247D01*
X138652093Y-112450257D01*
X138530103Y-112450257D01*
X138408114Y-112450257D01*
X138408114Y-112328267D01*
X138408114Y-112206277D01*
X138530103Y-112206277D01*
X138652093Y-112206277D01*
X138652093Y-112084288D01*
X138652093Y-111962298D01*
X138408114Y-111962298D01*
X138164134Y-111962298D01*
X138164134Y-112084288D01*
X138164134Y-112206277D01*
X138042145Y-112206277D01*
X137920155Y-112206277D01*
X137920155Y-112450257D01*
X137920155Y-112694236D01*
X138042145Y-112694236D01*
X138164134Y-112694236D01*
X138164134Y-112572247D01*
X138164134Y-112450257D01*
X138286124Y-112450257D01*
X138408114Y-112450257D01*
X138408114Y-112572247D01*
X138408114Y-112694236D01*
X138530103Y-112694236D01*
X138652093Y-112694236D01*
X138652093Y-112816226D01*
X138652093Y-112938216D01*
X138530103Y-112938216D01*
X138408114Y-112938216D01*
X138408114Y-113060205D01*
X138408114Y-113182195D01*
X138530103Y-113182195D01*
X138652093Y-113182195D01*
X138652093Y-113304185D01*
X138652093Y-113426175D01*
X138774083Y-113426175D01*
X138896072Y-113426175D01*
X138896072Y-113548164D01*
X138896072Y-113670154D01*
X138652093Y-113670154D01*
X138408114Y-113670154D01*
X138408114Y-113792144D01*
X138408114Y-113914133D01*
X138286124Y-113914133D01*
X138164134Y-113914133D01*
X138164134Y-114036123D01*
X138164134Y-114158113D01*
X138286124Y-114158113D01*
X138408114Y-114158113D01*
X138408114Y-114280102D01*
X138408114Y-114402092D01*
X138286124Y-114402092D01*
X138164134Y-114402092D01*
X138164134Y-114768061D01*
X138164134Y-115134030D01*
X138042145Y-115134030D01*
X137920155Y-115134030D01*
X137920155Y-115256020D01*
X137920155Y-115378010D01*
X137798165Y-115378010D01*
X137676175Y-115378010D01*
X137676175Y-115134030D01*
X137676175Y-114890051D01*
X137798165Y-114890051D01*
X137920155Y-114890051D01*
X137920155Y-114402092D01*
X137920155Y-113914133D01*
X137676175Y-113914133D01*
X137432196Y-113914133D01*
X137432196Y-113792144D01*
X137432196Y-113670154D01*
X137676175Y-113670154D01*
X137920155Y-113670154D01*
X137920155Y-113548164D01*
X137920155Y-113426175D01*
X138042145Y-113426175D01*
X138164134Y-113426175D01*
X138164134Y-113304185D01*
X138164134Y-113182195D01*
X138042145Y-113182195D01*
X137920155Y-113182195D01*
X137920155Y-113060205D01*
X137920155Y-112938216D01*
X137798165Y-112938216D01*
X137676175Y-112938216D01*
X137676175Y-112694236D01*
X137676175Y-112450257D01*
X137554186Y-112450257D01*
X137432196Y-112450257D01*
X137432196Y-111962298D01*
X137432196Y-111474339D01*
X137310206Y-111474339D01*
X137188217Y-111474339D01*
X137188217Y-111230360D01*
X137188217Y-110986380D01*
X137554186Y-110986380D01*
X137920155Y-110986380D01*
X137920155Y-111108370D01*
X137920155Y-111230360D01*
X137798165Y-111230360D01*
X137676175Y-111230360D01*
X137676175Y-111474339D01*
X137676175Y-111718319D01*
X137798165Y-111718319D01*
X137920155Y-111718319D01*
X137920155Y-111840308D01*
X137920155Y-111962298D01*
X138042145Y-111962298D01*
X138164134Y-111962298D01*
X138164134Y-111718319D01*
X138408114Y-111718319D01*
X138530103Y-111718319D01*
X138652093Y-111718319D01*
X138652093Y-111596329D01*
X138652093Y-111474339D01*
X138530103Y-111474339D01*
X138408114Y-111474339D01*
X138408114Y-111596329D01*
X138408114Y-111718319D01*
X138164134Y-111718319D01*
X138164134Y-111474339D01*
X138164134Y-110986380D01*
X138286124Y-110986380D01*
X138408114Y-110986380D01*
X138408114Y-111108370D01*
X138408114Y-111230360D01*
X138774083Y-111230360D01*
X139140052Y-111230360D01*
X139140052Y-111352349D01*
X139140052Y-111474339D01*
X139018062Y-111474339D01*
X138896072Y-111474339D01*
X138896072Y-111718319D01*
G37*
G36*
X140115970Y-111108370D02*
G01*
X140115970Y-111230360D01*
X140237959Y-111230360D01*
X140359949Y-111230360D01*
X140359949Y-111108370D01*
X140359949Y-110986380D01*
X140481939Y-110986380D01*
X140603928Y-110986380D01*
X140603928Y-111108370D01*
X140603928Y-111230360D01*
X140481939Y-111230360D01*
X140359949Y-111230360D01*
X140359949Y-111352349D01*
X140359949Y-111474339D01*
X140237959Y-111474339D01*
X140115970Y-111474339D01*
X140115970Y-111352349D01*
X140115970Y-111230360D01*
X139871990Y-111230360D01*
X139628011Y-111230360D01*
X139628011Y-111108370D01*
X139628011Y-110986380D01*
X139871990Y-110986380D01*
X140115970Y-110986380D01*
X140115970Y-111108370D01*
G37*
G36*
X138530103Y-116597907D02*
G01*
X138652093Y-116597907D01*
X138652093Y-116719897D01*
X138652093Y-116841886D01*
X138530103Y-116841886D01*
X138408114Y-116841886D01*
X138408114Y-116963876D01*
X138408114Y-117085866D01*
X138530103Y-117085866D01*
X138652093Y-117085866D01*
X138652093Y-117207855D01*
X138652093Y-117329845D01*
X138774083Y-117329845D01*
X138896072Y-117329845D01*
X138896072Y-117451835D01*
X138896072Y-117573825D01*
X139018062Y-117573825D01*
X139140052Y-117573825D01*
X139140052Y-117695814D01*
X139140052Y-117817804D01*
X139262042Y-117817804D01*
X139384031Y-117817804D01*
X139384031Y-117695814D01*
X139384031Y-117573825D01*
X139628011Y-117573825D01*
X139871990Y-117573825D01*
X139871990Y-117451835D01*
X139871990Y-117329845D01*
X139993980Y-117329845D01*
X140115970Y-117329845D01*
X140115970Y-117085866D01*
X140115970Y-116841886D01*
X140237959Y-116841886D01*
X140359949Y-116841886D01*
X140359949Y-116963876D01*
X140359949Y-117085866D01*
X140481939Y-117085866D01*
X140603928Y-117085866D01*
X140603928Y-117329845D01*
X140603928Y-117573825D01*
X140481939Y-117573825D01*
X140359949Y-117573825D01*
X140359949Y-117695814D01*
X140359949Y-117817804D01*
X140237959Y-117817804D01*
X140115970Y-117817804D01*
X140115970Y-117939794D01*
X140115970Y-118061783D01*
X139993980Y-118061783D01*
X139871990Y-118061783D01*
X139871990Y-117939794D01*
X139871990Y-117817804D01*
X139628011Y-117817804D01*
X139384031Y-117817804D01*
X139384031Y-117939794D01*
X139384031Y-118061783D01*
X139262042Y-118061783D01*
X139140052Y-118061783D01*
X139140052Y-118183773D01*
X139140052Y-118305763D01*
X139018062Y-118305763D01*
X138896072Y-118305763D01*
X138896072Y-118061783D01*
X138896072Y-117817804D01*
X138774083Y-117817804D01*
X138652093Y-117817804D01*
X138652093Y-117939794D01*
X138652093Y-118061783D01*
X138530103Y-118061783D01*
X138408114Y-118061783D01*
X138408114Y-118183773D01*
X138408114Y-118305763D01*
X138286124Y-118305763D01*
X138164134Y-118305763D01*
X138164134Y-118061783D01*
X138164134Y-117817804D01*
X137920155Y-117817804D01*
X137676175Y-117817804D01*
X137676175Y-117939794D01*
X137676175Y-118061783D01*
X137554186Y-118061783D01*
X137432196Y-118061783D01*
X137432196Y-118183773D01*
X137432196Y-118305763D01*
X137554186Y-118305763D01*
X137676175Y-118305763D01*
X137676175Y-118427753D01*
X137676175Y-118549742D01*
X137554186Y-118549742D01*
X137432196Y-118549742D01*
X137432196Y-118793722D01*
X137432196Y-119037701D01*
X137554186Y-119037701D01*
X137676175Y-119037701D01*
X137676175Y-118915711D01*
X137676175Y-118793722D01*
X137798165Y-118793722D01*
X137920155Y-118793722D01*
X137920155Y-118549742D01*
X137920155Y-118305763D01*
X138042145Y-118305763D01*
X138164134Y-118305763D01*
X138164134Y-118549742D01*
X138164134Y-118793722D01*
X138286124Y-118793722D01*
X138408114Y-118793722D01*
X138408114Y-118915711D01*
X138408114Y-119037701D01*
X138530103Y-119037701D01*
X138652093Y-119037701D01*
X138652093Y-118915711D01*
X138652093Y-118793722D01*
X138530103Y-118793722D01*
X138408114Y-118793722D01*
X138408114Y-118671732D01*
X138408114Y-118549742D01*
X138530103Y-118549742D01*
X138652093Y-118549742D01*
X138652093Y-118427753D01*
X138652093Y-118305763D01*
X138774083Y-118305763D01*
X138896072Y-118305763D01*
X138896072Y-118427753D01*
X138896072Y-118549742D01*
X139018062Y-118549742D01*
X139140052Y-118549742D01*
X139140052Y-118427753D01*
X139140052Y-118305763D01*
X139262042Y-118305763D01*
X139384031Y-118305763D01*
X139384031Y-118427753D01*
X139384031Y-118549742D01*
X139262042Y-118549742D01*
X139140052Y-118549742D01*
X139140052Y-118671732D01*
X139140052Y-118793722D01*
X139018062Y-118793722D01*
X138896072Y-118793722D01*
X138896072Y-118915711D01*
X138896072Y-119037701D01*
X139018062Y-119037701D01*
X139140052Y-119037701D01*
X139140052Y-118915711D01*
X139140052Y-118793722D01*
X139262042Y-118793722D01*
X139384031Y-118793722D01*
X139384031Y-118915711D01*
X139384031Y-119037701D01*
X139506021Y-119037701D01*
X139628011Y-119037701D01*
X139628011Y-119281681D01*
X139628011Y-119525660D01*
X139506021Y-119525660D01*
X139384031Y-119525660D01*
X139384031Y-119647650D01*
X139384031Y-119769639D01*
X139262042Y-119769639D01*
X139140052Y-119769639D01*
X139140052Y-119891629D01*
X139140052Y-120013619D01*
X139018062Y-120013619D01*
X138896072Y-120013619D01*
X138896072Y-119891629D01*
X138896072Y-119769639D01*
X138652093Y-119769639D01*
X138408114Y-119769639D01*
X138408114Y-119891629D01*
X138408114Y-120013619D01*
X138164134Y-120013619D01*
X137920155Y-120013619D01*
X137920155Y-119769639D01*
X137920155Y-119525660D01*
X138042145Y-119525660D01*
X138164134Y-119525660D01*
X138164134Y-119647650D01*
X138164134Y-119769639D01*
X138286124Y-119769639D01*
X138408114Y-119769639D01*
X138408114Y-119647650D01*
X138408114Y-119525660D01*
X138774083Y-119525660D01*
X139140052Y-119525660D01*
X139140052Y-119403670D01*
X139140052Y-119281681D01*
X138774083Y-119281681D01*
X138408114Y-119281681D01*
X138408114Y-119403670D01*
X138408114Y-119525660D01*
X138286124Y-119525660D01*
X138164134Y-119525660D01*
X138164134Y-119403670D01*
X138164134Y-119281681D01*
X138286124Y-119281681D01*
X138408114Y-119281681D01*
X138408114Y-119159691D01*
X138408114Y-119037701D01*
X138286124Y-119037701D01*
X138164134Y-119037701D01*
X138164134Y-119159691D01*
X138164134Y-119281681D01*
X137798165Y-119281681D01*
X137432196Y-119281681D01*
X137432196Y-119159691D01*
X137432196Y-119037701D01*
X137066227Y-119037701D01*
X136700258Y-119037701D01*
X136700258Y-119159691D01*
X136700258Y-119281681D01*
X136578268Y-119281681D01*
X136456278Y-119281681D01*
X136456278Y-119403670D01*
X136456278Y-119525660D01*
X136578268Y-119525660D01*
X136700258Y-119525660D01*
X136700258Y-119647650D01*
X136700258Y-119769639D01*
X136456278Y-119769639D01*
X136212299Y-119769639D01*
X136212299Y-119647650D01*
X136212299Y-119525660D01*
X135968319Y-119525660D01*
X135724340Y-119525660D01*
X135724340Y-119769639D01*
X135724340Y-120013619D01*
X135480361Y-120013619D01*
X135236381Y-120013619D01*
X135236381Y-119891629D01*
X135236381Y-119769639D01*
X135358371Y-119769639D01*
X135480361Y-119769639D01*
X135480361Y-119647650D01*
X135480361Y-119525660D01*
X135358371Y-119525660D01*
X135236381Y-119525660D01*
X135236381Y-119281681D01*
X135236381Y-119037701D01*
X135358371Y-119037701D01*
X135480361Y-119037701D01*
X135480361Y-119281681D01*
X135480361Y-119525660D01*
X135602350Y-119525660D01*
X135724340Y-119525660D01*
X135724340Y-119403670D01*
X135724340Y-119281681D01*
X135968319Y-119281681D01*
X136212299Y-119281681D01*
X136212299Y-119159691D01*
X136212299Y-119037701D01*
X136090309Y-119037701D01*
X135968319Y-119037701D01*
X135968319Y-118793722D01*
X136456278Y-118793722D01*
X136822247Y-118793722D01*
X137188217Y-118793722D01*
X137188217Y-118427753D01*
X137188217Y-118061783D01*
X136822247Y-118061783D01*
X136456278Y-118061783D01*
X136456278Y-118427753D01*
X136456278Y-118793722D01*
X135968319Y-118793722D01*
X135968319Y-118549742D01*
X135968319Y-118061783D01*
X136090309Y-118061783D01*
X136212299Y-118061783D01*
X136212299Y-117695814D01*
X136212299Y-117329845D01*
X136334289Y-117329845D01*
X136456278Y-117329845D01*
X136456278Y-117573825D01*
X136456278Y-117817804D01*
X136700258Y-117817804D01*
X136944237Y-117817804D01*
X136944237Y-117695814D01*
X136944237Y-117573825D01*
X136822247Y-117573825D01*
X136700258Y-117573825D01*
X136700258Y-117207855D01*
X136700258Y-116841886D01*
X136944237Y-116841886D01*
X137188217Y-116841886D01*
X137188217Y-116963876D01*
X137188217Y-117085866D01*
X137066227Y-117085866D01*
X136944237Y-117085866D01*
X136944237Y-117207855D01*
X136944237Y-117329845D01*
X137066227Y-117329845D01*
X137188217Y-117329845D01*
X137188217Y-117451835D01*
X137188217Y-117573825D01*
X137310206Y-117573825D01*
X137432196Y-117573825D01*
X137432196Y-117695814D01*
X137432196Y-117817804D01*
X137554186Y-117817804D01*
X137676175Y-117817804D01*
X137676175Y-117695814D01*
X137676175Y-117573825D01*
X137798165Y-117573825D01*
X137920155Y-117573825D01*
X138408114Y-117573825D01*
X138408114Y-117695814D01*
X138408114Y-117817804D01*
X138530103Y-117817804D01*
X138652093Y-117817804D01*
X138652093Y-117695814D01*
X138652093Y-117573825D01*
X138530103Y-117573825D01*
X138408114Y-117573825D01*
X137920155Y-117573825D01*
X137920155Y-117451835D01*
X137920155Y-117329845D01*
X138042145Y-117329845D01*
X138164134Y-117329845D01*
X138164134Y-117207855D01*
X138164134Y-117085866D01*
X137920155Y-117085866D01*
X137676175Y-117085866D01*
X137676175Y-116963876D01*
X137676175Y-116841886D01*
X137432196Y-116841886D01*
X137188217Y-116841886D01*
X137188217Y-116719897D01*
X137188217Y-116597907D01*
X136822247Y-116597907D01*
X136456278Y-116597907D01*
X136456278Y-116353928D01*
X136944237Y-116353928D01*
X137066227Y-116353928D01*
X137188217Y-116353928D01*
X137188217Y-116475917D01*
X137188217Y-116597907D01*
X137432196Y-116597907D01*
X137676175Y-116597907D01*
X137676175Y-116475917D01*
X137676175Y-116353928D01*
X137798165Y-116353928D01*
X137920155Y-116353928D01*
X137920155Y-116475917D01*
X137920155Y-116597907D01*
X138042145Y-116597907D01*
X138164134Y-116597907D01*
X138164134Y-116475917D01*
X138164134Y-116353928D01*
X138042145Y-116353928D01*
X137920155Y-116353928D01*
X137920155Y-116231938D01*
X137920155Y-116109948D01*
X137798165Y-116109948D01*
X137676175Y-116109948D01*
X137676175Y-115987958D01*
X137676175Y-115865969D01*
X137554186Y-115865969D01*
X137432196Y-115865969D01*
X137432196Y-116109948D01*
X137432196Y-116353928D01*
X137310206Y-116353928D01*
X137188217Y-116353928D01*
X137188217Y-116231938D01*
X137188217Y-116109948D01*
X137066227Y-116109948D01*
X136944237Y-116109948D01*
X136944237Y-116231938D01*
X136944237Y-116353928D01*
X136456278Y-116353928D01*
X136456278Y-116109948D01*
X136578268Y-116109948D01*
X136700258Y-116109948D01*
X136700258Y-115987958D01*
X136700258Y-115865969D01*
X136944237Y-115865969D01*
X137188217Y-115865969D01*
X137188217Y-115621989D01*
X137188217Y-115378010D01*
X136944237Y-115378010D01*
X136700258Y-115378010D01*
X136700258Y-115500000D01*
X136700258Y-115621989D01*
X136334289Y-115621989D01*
X135968319Y-115621989D01*
X135968319Y-115500000D01*
X135968319Y-115378010D01*
X135846330Y-115378010D01*
X135724340Y-115378010D01*
X135724340Y-115621989D01*
X135724340Y-115865969D01*
X135602350Y-115865969D01*
X135480361Y-115865969D01*
X135480361Y-115743979D01*
X135480361Y-115621989D01*
X135358371Y-115621989D01*
X135236381Y-115621989D01*
X135236381Y-115256020D01*
X135236381Y-114890051D01*
X135480361Y-114890051D01*
X135724340Y-114890051D01*
X135724340Y-115012041D01*
X135724340Y-115134030D01*
X135602350Y-115134030D01*
X135480361Y-115134030D01*
X135480361Y-115256020D01*
X135480361Y-115378010D01*
X135602350Y-115378010D01*
X135724340Y-115378010D01*
X135724340Y-115256020D01*
X135724340Y-115134030D01*
X135846330Y-115134030D01*
X135968319Y-115134030D01*
X135968319Y-115012041D01*
X135968319Y-114890051D01*
X136090309Y-114890051D01*
X136212299Y-114890051D01*
X136212299Y-115012041D01*
X136212299Y-115134030D01*
X136090309Y-115134030D01*
X135968319Y-115134030D01*
X135968319Y-115256020D01*
X135968319Y-115378010D01*
X136334289Y-115378010D01*
X136700258Y-115378010D01*
X136700258Y-115012041D01*
X136700258Y-114646072D01*
X136578268Y-114646072D01*
X136456278Y-114646072D01*
X136456278Y-114524082D01*
X136456278Y-114402092D01*
X136578268Y-114402092D01*
X136700258Y-114402092D01*
X136700258Y-114158113D01*
X136700258Y-113914133D01*
X136578268Y-113914133D01*
X136456278Y-113914133D01*
X136456278Y-113792144D01*
X136456278Y-113670154D01*
X136334289Y-113670154D01*
X136212299Y-113670154D01*
X136212299Y-113548164D01*
X136212299Y-113426175D01*
X136090309Y-113426175D01*
X135968319Y-113426175D01*
X135968319Y-113304185D01*
X135968319Y-113182195D01*
X136090309Y-113182195D01*
X136212299Y-113182195D01*
X136212299Y-113304185D01*
X136212299Y-113426175D01*
X136456278Y-113426175D01*
X136700258Y-113426175D01*
X136700258Y-113304185D01*
X136700258Y-113182195D01*
X136822247Y-113182195D01*
X136944237Y-113182195D01*
X136944237Y-113304185D01*
X136944237Y-113426175D01*
X137066227Y-113426175D01*
X137188217Y-113426175D01*
X137188217Y-112938216D01*
X137188217Y-112450257D01*
X137310206Y-112450257D01*
X137432196Y-112450257D01*
X137432196Y-112694236D01*
X137432196Y-112938216D01*
X137554186Y-112938216D01*
X137676175Y-112938216D01*
X137676175Y-113060205D01*
X137676175Y-113182195D01*
X137554186Y-113182195D01*
X137432196Y-113182195D01*
X137432196Y-113304185D01*
X137432196Y-113426175D01*
X137310206Y-113426175D01*
X137188217Y-113426175D01*
X137188217Y-113548164D01*
X137188217Y-113670154D01*
X137066227Y-113670154D01*
X136944237Y-113670154D01*
X136944237Y-113792144D01*
X136944237Y-113914133D01*
X137188217Y-113914133D01*
X137432196Y-113914133D01*
X137432196Y-114036123D01*
X137432196Y-114158113D01*
X137310206Y-114158113D01*
X137188217Y-114158113D01*
X137188217Y-114280102D01*
X137188217Y-114402092D01*
X137066227Y-114402092D01*
X136944237Y-114402092D01*
X136944237Y-114646072D01*
X136944237Y-114890051D01*
X137188217Y-114890051D01*
X137432196Y-114890051D01*
X137432196Y-115256020D01*
X137432196Y-115621989D01*
X137798165Y-115621989D01*
X138164134Y-115621989D01*
X138164134Y-115743979D01*
X138164134Y-115865969D01*
X138286124Y-115865969D01*
X138408114Y-115865969D01*
X138408114Y-115987958D01*
X138408114Y-116109948D01*
X138652093Y-116109948D01*
X138896072Y-116109948D01*
X138896072Y-116231938D01*
X138896072Y-116353928D01*
X138652093Y-116353928D01*
X138408114Y-116353928D01*
X138408114Y-116475917D01*
X138408114Y-116597907D01*
X138530103Y-116597907D01*
G37*
G36*
X139506021Y-119769639D02*
G01*
X139628011Y-119769639D01*
X139628011Y-119891629D01*
X139628011Y-120013619D01*
X139506021Y-120013619D01*
X139384031Y-120013619D01*
X139384031Y-119891629D01*
X139384031Y-119769639D01*
X139506021Y-119769639D01*
G37*
G36*
X141823825Y-119525660D02*
G01*
X141823825Y-120013619D01*
X141701836Y-120013619D01*
X141579846Y-120013619D01*
X141579846Y-119647650D01*
X141579846Y-119281681D01*
X141457856Y-119281681D01*
X141335867Y-119281681D01*
X141335867Y-119403670D01*
X141335867Y-119525660D01*
X141213877Y-119525660D01*
X141091887Y-119525660D01*
X141091887Y-119403670D01*
X141091887Y-119281681D01*
X141213877Y-119281681D01*
X141335867Y-119281681D01*
X141335867Y-119159691D01*
X141335867Y-119037701D01*
X141213877Y-119037701D01*
X141091887Y-119037701D01*
X141091887Y-119159691D01*
X141091887Y-119281681D01*
X140725918Y-119281681D01*
X140359949Y-119281681D01*
X140359949Y-119159691D01*
X140359949Y-119037701D01*
X140603928Y-119037701D01*
X140847908Y-119037701D01*
X140847908Y-118915711D01*
X140847908Y-118793722D01*
X140481939Y-118793722D01*
X140115970Y-118793722D01*
X140115970Y-118671732D01*
X140115970Y-118549742D01*
X139993980Y-118549742D01*
X139871990Y-118549742D01*
X139871990Y-118427753D01*
X139871990Y-118305763D01*
X139993980Y-118305763D01*
X140115970Y-118305763D01*
X140115970Y-118183773D01*
X140115970Y-118061783D01*
X140237959Y-118061783D01*
X140359949Y-118061783D01*
X140359949Y-118305763D01*
X140359949Y-118549742D01*
X140603928Y-118549742D01*
X140847908Y-118549742D01*
X140847908Y-118671732D01*
X140847908Y-118793722D01*
X141091887Y-118793722D01*
X141335867Y-118793722D01*
X141335867Y-118671732D01*
X141335867Y-118549742D01*
X141457856Y-118549742D01*
X141579846Y-118549742D01*
X141579846Y-118671732D01*
X141579846Y-118793722D01*
X141701836Y-118793722D01*
X141823825Y-118793722D01*
X141823825Y-118671732D01*
X141823825Y-118549742D01*
X141701836Y-118549742D01*
X141579846Y-118549742D01*
X141579846Y-118305763D01*
X141579846Y-118061783D01*
X141945815Y-118061783D01*
X142311784Y-118061783D01*
X142311784Y-118183773D01*
X142311784Y-118305763D01*
X142189795Y-118305763D01*
X142067805Y-118305763D01*
X142067805Y-118549742D01*
X142067805Y-118793722D01*
X142189795Y-118793722D01*
X142311784Y-118793722D01*
X142311784Y-118915711D01*
X142311784Y-119037701D01*
X142067805Y-119037701D01*
X141823825Y-119037701D01*
X141823825Y-119525660D01*
G37*
G36*
X136212299Y-117085866D02*
G01*
X136212299Y-117329845D01*
X136090309Y-117329845D01*
X135968319Y-117329845D01*
X135968319Y-117085866D01*
X135968319Y-116841886D01*
X136090309Y-116841886D01*
X136212299Y-116841886D01*
X136212299Y-117085866D01*
G37*
D11*
%TO.C,JP1*%
X143100000Y-105320000D02*
X143700000Y-105320000D01*
X144400000Y-104620000D02*
X144400000Y-103220000D01*
X142400000Y-103220000D02*
X142400000Y-104620000D01*
X143700000Y-102520000D02*
X143100000Y-102520000D01*
X142400000Y-104620000D02*
G75*
G03*
X143100000Y-105320000I699999J-1D01*
G01*
X143700000Y-105320000D02*
G75*
G03*
X144400000Y-104620000I1J699999D01*
G01*
X143100000Y-102520000D02*
G75*
G03*
X142400000Y-103220000I0J-700000D01*
G01*
X144400000Y-103220000D02*
G75*
G03*
X143700000Y-102520000I-700000J0D01*
G01*
%TD*%
M02*
