%TF.GenerationSoftware,KiCad,Pcbnew,7.0.2-0*%
%TF.CreationDate,2023-11-21T13:06:45-05:00*%
%TF.ProjectId,ControllerShield,436f6e74-726f-46c6-9c65-72536869656c,rev?*%
%TF.SameCoordinates,Original*%
%TF.FileFunction,Legend,Bot*%
%TF.FilePolarity,Positive*%
%FSLAX46Y46*%
G04 Gerber Fmt 4.6, Leading zero omitted, Abs format (unit mm)*
G04 Created by KiCad (PCBNEW 7.0.2-0) date 2023-11-21 13:06:45*
%MOMM*%
%LPD*%
G01*
G04 APERTURE LIST*
%ADD10C,0.150000*%
%ADD11C,0.120000*%
G04 APERTURE END LIST*
D10*
X145361904Y-123967619D02*
X145361904Y-122967619D01*
X145361904Y-122967619D02*
X145028571Y-123681904D01*
X145028571Y-123681904D02*
X144695238Y-122967619D01*
X144695238Y-122967619D02*
X144695238Y-123967619D01*
X143790476Y-123967619D02*
X143790476Y-123443809D01*
X143790476Y-123443809D02*
X143838095Y-123348571D01*
X143838095Y-123348571D02*
X143933333Y-123300952D01*
X143933333Y-123300952D02*
X144123809Y-123300952D01*
X144123809Y-123300952D02*
X144219047Y-123348571D01*
X143790476Y-123920000D02*
X143885714Y-123967619D01*
X143885714Y-123967619D02*
X144123809Y-123967619D01*
X144123809Y-123967619D02*
X144219047Y-123920000D01*
X144219047Y-123920000D02*
X144266666Y-123824761D01*
X144266666Y-123824761D02*
X144266666Y-123729523D01*
X144266666Y-123729523D02*
X144219047Y-123634285D01*
X144219047Y-123634285D02*
X144123809Y-123586666D01*
X144123809Y-123586666D02*
X143885714Y-123586666D01*
X143885714Y-123586666D02*
X143790476Y-123539047D01*
X143409523Y-123300952D02*
X142885714Y-123300952D01*
X142885714Y-123300952D02*
X143409523Y-123967619D01*
X143409523Y-123967619D02*
X142885714Y-123967619D01*
X142123809Y-123920000D02*
X142219047Y-123967619D01*
X142219047Y-123967619D02*
X142409523Y-123967619D01*
X142409523Y-123967619D02*
X142504761Y-123920000D01*
X142504761Y-123920000D02*
X142552380Y-123824761D01*
X142552380Y-123824761D02*
X142552380Y-123443809D01*
X142552380Y-123443809D02*
X142504761Y-123348571D01*
X142504761Y-123348571D02*
X142409523Y-123300952D01*
X142409523Y-123300952D02*
X142219047Y-123300952D01*
X142219047Y-123300952D02*
X142123809Y-123348571D01*
X142123809Y-123348571D02*
X142076190Y-123443809D01*
X142076190Y-123443809D02*
X142076190Y-123539047D01*
X142076190Y-123539047D02*
X142552380Y-123634285D01*
X140314285Y-123872380D02*
X140361904Y-123920000D01*
X140361904Y-123920000D02*
X140504761Y-123967619D01*
X140504761Y-123967619D02*
X140599999Y-123967619D01*
X140599999Y-123967619D02*
X140742856Y-123920000D01*
X140742856Y-123920000D02*
X140838094Y-123824761D01*
X140838094Y-123824761D02*
X140885713Y-123729523D01*
X140885713Y-123729523D02*
X140933332Y-123539047D01*
X140933332Y-123539047D02*
X140933332Y-123396190D01*
X140933332Y-123396190D02*
X140885713Y-123205714D01*
X140885713Y-123205714D02*
X140838094Y-123110476D01*
X140838094Y-123110476D02*
X140742856Y-123015238D01*
X140742856Y-123015238D02*
X140599999Y-122967619D01*
X140599999Y-122967619D02*
X140504761Y-122967619D01*
X140504761Y-122967619D02*
X140361904Y-123015238D01*
X140361904Y-123015238D02*
X140314285Y-123062857D01*
X139742856Y-123967619D02*
X139838094Y-123920000D01*
X139838094Y-123920000D02*
X139885713Y-123872380D01*
X139885713Y-123872380D02*
X139933332Y-123777142D01*
X139933332Y-123777142D02*
X139933332Y-123491428D01*
X139933332Y-123491428D02*
X139885713Y-123396190D01*
X139885713Y-123396190D02*
X139838094Y-123348571D01*
X139838094Y-123348571D02*
X139742856Y-123300952D01*
X139742856Y-123300952D02*
X139599999Y-123300952D01*
X139599999Y-123300952D02*
X139504761Y-123348571D01*
X139504761Y-123348571D02*
X139457142Y-123396190D01*
X139457142Y-123396190D02*
X139409523Y-123491428D01*
X139409523Y-123491428D02*
X139409523Y-123777142D01*
X139409523Y-123777142D02*
X139457142Y-123872380D01*
X139457142Y-123872380D02*
X139504761Y-123920000D01*
X139504761Y-123920000D02*
X139599999Y-123967619D01*
X139599999Y-123967619D02*
X139742856Y-123967619D01*
X138980951Y-123300952D02*
X138980951Y-123967619D01*
X138980951Y-123396190D02*
X138933332Y-123348571D01*
X138933332Y-123348571D02*
X138838094Y-123300952D01*
X138838094Y-123300952D02*
X138695237Y-123300952D01*
X138695237Y-123300952D02*
X138599999Y-123348571D01*
X138599999Y-123348571D02*
X138552380Y-123443809D01*
X138552380Y-123443809D02*
X138552380Y-123967619D01*
X138219046Y-123300952D02*
X137838094Y-123300952D01*
X138076189Y-122967619D02*
X138076189Y-123824761D01*
X138076189Y-123824761D02*
X138028570Y-123920000D01*
X138028570Y-123920000D02*
X137933332Y-123967619D01*
X137933332Y-123967619D02*
X137838094Y-123967619D01*
X137504760Y-123967619D02*
X137504760Y-123300952D01*
X137504760Y-123491428D02*
X137457141Y-123396190D01*
X137457141Y-123396190D02*
X137409522Y-123348571D01*
X137409522Y-123348571D02*
X137314284Y-123300952D01*
X137314284Y-123300952D02*
X137219046Y-123300952D01*
X136742855Y-123967619D02*
X136838093Y-123920000D01*
X136838093Y-123920000D02*
X136885712Y-123872380D01*
X136885712Y-123872380D02*
X136933331Y-123777142D01*
X136933331Y-123777142D02*
X136933331Y-123491428D01*
X136933331Y-123491428D02*
X136885712Y-123396190D01*
X136885712Y-123396190D02*
X136838093Y-123348571D01*
X136838093Y-123348571D02*
X136742855Y-123300952D01*
X136742855Y-123300952D02*
X136599998Y-123300952D01*
X136599998Y-123300952D02*
X136504760Y-123348571D01*
X136504760Y-123348571D02*
X136457141Y-123396190D01*
X136457141Y-123396190D02*
X136409522Y-123491428D01*
X136409522Y-123491428D02*
X136409522Y-123777142D01*
X136409522Y-123777142D02*
X136457141Y-123872380D01*
X136457141Y-123872380D02*
X136504760Y-123920000D01*
X136504760Y-123920000D02*
X136599998Y-123967619D01*
X136599998Y-123967619D02*
X136742855Y-123967619D01*
X135838093Y-123967619D02*
X135933331Y-123920000D01*
X135933331Y-123920000D02*
X135980950Y-123824761D01*
X135980950Y-123824761D02*
X135980950Y-122967619D01*
X135314283Y-123967619D02*
X135409521Y-123920000D01*
X135409521Y-123920000D02*
X135457140Y-123824761D01*
X135457140Y-123824761D02*
X135457140Y-122967619D01*
X134552378Y-123920000D02*
X134647616Y-123967619D01*
X134647616Y-123967619D02*
X134838092Y-123967619D01*
X134838092Y-123967619D02*
X134933330Y-123920000D01*
X134933330Y-123920000D02*
X134980949Y-123824761D01*
X134980949Y-123824761D02*
X134980949Y-123443809D01*
X134980949Y-123443809D02*
X134933330Y-123348571D01*
X134933330Y-123348571D02*
X134838092Y-123300952D01*
X134838092Y-123300952D02*
X134647616Y-123300952D01*
X134647616Y-123300952D02*
X134552378Y-123348571D01*
X134552378Y-123348571D02*
X134504759Y-123443809D01*
X134504759Y-123443809D02*
X134504759Y-123539047D01*
X134504759Y-123539047D02*
X134980949Y-123634285D01*
X134076187Y-123967619D02*
X134076187Y-123300952D01*
X134076187Y-123491428D02*
X134028568Y-123396190D01*
X134028568Y-123396190D02*
X133980949Y-123348571D01*
X133980949Y-123348571D02*
X133885711Y-123300952D01*
X133885711Y-123300952D02*
X133790473Y-123300952D01*
X132838091Y-122967619D02*
X132504758Y-123967619D01*
X132504758Y-123967619D02*
X132171425Y-122967619D01*
X131647615Y-122967619D02*
X131552377Y-122967619D01*
X131552377Y-122967619D02*
X131457139Y-123015238D01*
X131457139Y-123015238D02*
X131409520Y-123062857D01*
X131409520Y-123062857D02*
X131361901Y-123158095D01*
X131361901Y-123158095D02*
X131314282Y-123348571D01*
X131314282Y-123348571D02*
X131314282Y-123586666D01*
X131314282Y-123586666D02*
X131361901Y-123777142D01*
X131361901Y-123777142D02*
X131409520Y-123872380D01*
X131409520Y-123872380D02*
X131457139Y-123920000D01*
X131457139Y-123920000D02*
X131552377Y-123967619D01*
X131552377Y-123967619D02*
X131647615Y-123967619D01*
X131647615Y-123967619D02*
X131742853Y-123920000D01*
X131742853Y-123920000D02*
X131790472Y-123872380D01*
X131790472Y-123872380D02*
X131838091Y-123777142D01*
X131838091Y-123777142D02*
X131885710Y-123586666D01*
X131885710Y-123586666D02*
X131885710Y-123348571D01*
X131885710Y-123348571D02*
X131838091Y-123158095D01*
X131838091Y-123158095D02*
X131790472Y-123062857D01*
X131790472Y-123062857D02*
X131742853Y-123015238D01*
X131742853Y-123015238D02*
X131647615Y-122967619D01*
X130885710Y-123872380D02*
X130838091Y-123920000D01*
X130838091Y-123920000D02*
X130885710Y-123967619D01*
X130885710Y-123967619D02*
X130933329Y-123920000D01*
X130933329Y-123920000D02*
X130885710Y-123872380D01*
X130885710Y-123872380D02*
X130885710Y-123967619D01*
X130361901Y-123967619D02*
X130171425Y-123967619D01*
X130171425Y-123967619D02*
X130076187Y-123920000D01*
X130076187Y-123920000D02*
X130028568Y-123872380D01*
X130028568Y-123872380D02*
X129933330Y-123729523D01*
X129933330Y-123729523D02*
X129885711Y-123539047D01*
X129885711Y-123539047D02*
X129885711Y-123158095D01*
X129885711Y-123158095D02*
X129933330Y-123062857D01*
X129933330Y-123062857D02*
X129980949Y-123015238D01*
X129980949Y-123015238D02*
X130076187Y-122967619D01*
X130076187Y-122967619D02*
X130266663Y-122967619D01*
X130266663Y-122967619D02*
X130361901Y-123015238D01*
X130361901Y-123015238D02*
X130409520Y-123062857D01*
X130409520Y-123062857D02*
X130457139Y-123158095D01*
X130457139Y-123158095D02*
X130457139Y-123396190D01*
X130457139Y-123396190D02*
X130409520Y-123491428D01*
X130409520Y-123491428D02*
X130361901Y-123539047D01*
X130361901Y-123539047D02*
X130266663Y-123586666D01*
X130266663Y-123586666D02*
X130076187Y-123586666D01*
X130076187Y-123586666D02*
X129980949Y-123539047D01*
X129980949Y-123539047D02*
X129933330Y-123491428D01*
X129933330Y-123491428D02*
X129885711Y-123396190D01*
X144790476Y-125492380D02*
X144838095Y-125540000D01*
X144838095Y-125540000D02*
X144980952Y-125587619D01*
X144980952Y-125587619D02*
X145076190Y-125587619D01*
X145076190Y-125587619D02*
X145219047Y-125540000D01*
X145219047Y-125540000D02*
X145314285Y-125444761D01*
X145314285Y-125444761D02*
X145361904Y-125349523D01*
X145361904Y-125349523D02*
X145409523Y-125159047D01*
X145409523Y-125159047D02*
X145409523Y-125016190D01*
X145409523Y-125016190D02*
X145361904Y-124825714D01*
X145361904Y-124825714D02*
X145314285Y-124730476D01*
X145314285Y-124730476D02*
X145219047Y-124635238D01*
X145219047Y-124635238D02*
X145076190Y-124587619D01*
X145076190Y-124587619D02*
X144980952Y-124587619D01*
X144980952Y-124587619D02*
X144838095Y-124635238D01*
X144838095Y-124635238D02*
X144790476Y-124682857D01*
X144219047Y-125587619D02*
X144314285Y-125540000D01*
X144314285Y-125540000D02*
X144361904Y-125492380D01*
X144361904Y-125492380D02*
X144409523Y-125397142D01*
X144409523Y-125397142D02*
X144409523Y-125111428D01*
X144409523Y-125111428D02*
X144361904Y-125016190D01*
X144361904Y-125016190D02*
X144314285Y-124968571D01*
X144314285Y-124968571D02*
X144219047Y-124920952D01*
X144219047Y-124920952D02*
X144076190Y-124920952D01*
X144076190Y-124920952D02*
X143980952Y-124968571D01*
X143980952Y-124968571D02*
X143933333Y-125016190D01*
X143933333Y-125016190D02*
X143885714Y-125111428D01*
X143885714Y-125111428D02*
X143885714Y-125397142D01*
X143885714Y-125397142D02*
X143933333Y-125492380D01*
X143933333Y-125492380D02*
X143980952Y-125540000D01*
X143980952Y-125540000D02*
X144076190Y-125587619D01*
X144076190Y-125587619D02*
X144219047Y-125587619D01*
X143457142Y-124920952D02*
X143457142Y-125920952D01*
X143457142Y-124968571D02*
X143361904Y-124920952D01*
X143361904Y-124920952D02*
X143171428Y-124920952D01*
X143171428Y-124920952D02*
X143076190Y-124968571D01*
X143076190Y-124968571D02*
X143028571Y-125016190D01*
X143028571Y-125016190D02*
X142980952Y-125111428D01*
X142980952Y-125111428D02*
X142980952Y-125397142D01*
X142980952Y-125397142D02*
X143028571Y-125492380D01*
X143028571Y-125492380D02*
X143076190Y-125540000D01*
X143076190Y-125540000D02*
X143171428Y-125587619D01*
X143171428Y-125587619D02*
X143361904Y-125587619D01*
X143361904Y-125587619D02*
X143457142Y-125540000D01*
X142647618Y-124920952D02*
X142409523Y-125587619D01*
X142171428Y-124920952D02*
X142409523Y-125587619D01*
X142409523Y-125587619D02*
X142504761Y-125825714D01*
X142504761Y-125825714D02*
X142552380Y-125873333D01*
X142552380Y-125873333D02*
X142647618Y-125920952D01*
X141790475Y-125587619D02*
X141790475Y-124920952D01*
X141790475Y-125111428D02*
X141742856Y-125016190D01*
X141742856Y-125016190D02*
X141695237Y-124968571D01*
X141695237Y-124968571D02*
X141599999Y-124920952D01*
X141599999Y-124920952D02*
X141504761Y-124920952D01*
X141171427Y-125587619D02*
X141171427Y-124920952D01*
X141171427Y-124587619D02*
X141219046Y-124635238D01*
X141219046Y-124635238D02*
X141171427Y-124682857D01*
X141171427Y-124682857D02*
X141123808Y-124635238D01*
X141123808Y-124635238D02*
X141171427Y-124587619D01*
X141171427Y-124587619D02*
X141171427Y-124682857D01*
X140266666Y-124920952D02*
X140266666Y-125730476D01*
X140266666Y-125730476D02*
X140314285Y-125825714D01*
X140314285Y-125825714D02*
X140361904Y-125873333D01*
X140361904Y-125873333D02*
X140457142Y-125920952D01*
X140457142Y-125920952D02*
X140599999Y-125920952D01*
X140599999Y-125920952D02*
X140695237Y-125873333D01*
X140266666Y-125540000D02*
X140361904Y-125587619D01*
X140361904Y-125587619D02*
X140552380Y-125587619D01*
X140552380Y-125587619D02*
X140647618Y-125540000D01*
X140647618Y-125540000D02*
X140695237Y-125492380D01*
X140695237Y-125492380D02*
X140742856Y-125397142D01*
X140742856Y-125397142D02*
X140742856Y-125111428D01*
X140742856Y-125111428D02*
X140695237Y-125016190D01*
X140695237Y-125016190D02*
X140647618Y-124968571D01*
X140647618Y-124968571D02*
X140552380Y-124920952D01*
X140552380Y-124920952D02*
X140361904Y-124920952D01*
X140361904Y-124920952D02*
X140266666Y-124968571D01*
X139790475Y-125587619D02*
X139790475Y-124587619D01*
X139361904Y-125587619D02*
X139361904Y-125063809D01*
X139361904Y-125063809D02*
X139409523Y-124968571D01*
X139409523Y-124968571D02*
X139504761Y-124920952D01*
X139504761Y-124920952D02*
X139647618Y-124920952D01*
X139647618Y-124920952D02*
X139742856Y-124968571D01*
X139742856Y-124968571D02*
X139790475Y-125016190D01*
X139028570Y-124920952D02*
X138647618Y-124920952D01*
X138885713Y-124587619D02*
X138885713Y-125444761D01*
X138885713Y-125444761D02*
X138838094Y-125540000D01*
X138838094Y-125540000D02*
X138742856Y-125587619D01*
X138742856Y-125587619D02*
X138647618Y-125587619D01*
X137599998Y-124682857D02*
X137552379Y-124635238D01*
X137552379Y-124635238D02*
X137457141Y-124587619D01*
X137457141Y-124587619D02*
X137219046Y-124587619D01*
X137219046Y-124587619D02*
X137123808Y-124635238D01*
X137123808Y-124635238D02*
X137076189Y-124682857D01*
X137076189Y-124682857D02*
X137028570Y-124778095D01*
X137028570Y-124778095D02*
X137028570Y-124873333D01*
X137028570Y-124873333D02*
X137076189Y-125016190D01*
X137076189Y-125016190D02*
X137647617Y-125587619D01*
X137647617Y-125587619D02*
X137028570Y-125587619D01*
X136409522Y-124587619D02*
X136314284Y-124587619D01*
X136314284Y-124587619D02*
X136219046Y-124635238D01*
X136219046Y-124635238D02*
X136171427Y-124682857D01*
X136171427Y-124682857D02*
X136123808Y-124778095D01*
X136123808Y-124778095D02*
X136076189Y-124968571D01*
X136076189Y-124968571D02*
X136076189Y-125206666D01*
X136076189Y-125206666D02*
X136123808Y-125397142D01*
X136123808Y-125397142D02*
X136171427Y-125492380D01*
X136171427Y-125492380D02*
X136219046Y-125540000D01*
X136219046Y-125540000D02*
X136314284Y-125587619D01*
X136314284Y-125587619D02*
X136409522Y-125587619D01*
X136409522Y-125587619D02*
X136504760Y-125540000D01*
X136504760Y-125540000D02*
X136552379Y-125492380D01*
X136552379Y-125492380D02*
X136599998Y-125397142D01*
X136599998Y-125397142D02*
X136647617Y-125206666D01*
X136647617Y-125206666D02*
X136647617Y-124968571D01*
X136647617Y-124968571D02*
X136599998Y-124778095D01*
X136599998Y-124778095D02*
X136552379Y-124682857D01*
X136552379Y-124682857D02*
X136504760Y-124635238D01*
X136504760Y-124635238D02*
X136409522Y-124587619D01*
X135695236Y-124682857D02*
X135647617Y-124635238D01*
X135647617Y-124635238D02*
X135552379Y-124587619D01*
X135552379Y-124587619D02*
X135314284Y-124587619D01*
X135314284Y-124587619D02*
X135219046Y-124635238D01*
X135219046Y-124635238D02*
X135171427Y-124682857D01*
X135171427Y-124682857D02*
X135123808Y-124778095D01*
X135123808Y-124778095D02*
X135123808Y-124873333D01*
X135123808Y-124873333D02*
X135171427Y-125016190D01*
X135171427Y-125016190D02*
X135742855Y-125587619D01*
X135742855Y-125587619D02*
X135123808Y-125587619D01*
X134790474Y-124587619D02*
X134171427Y-124587619D01*
X134171427Y-124587619D02*
X134504760Y-124968571D01*
X134504760Y-124968571D02*
X134361903Y-124968571D01*
X134361903Y-124968571D02*
X134266665Y-125016190D01*
X134266665Y-125016190D02*
X134219046Y-125063809D01*
X134219046Y-125063809D02*
X134171427Y-125159047D01*
X134171427Y-125159047D02*
X134171427Y-125397142D01*
X134171427Y-125397142D02*
X134219046Y-125492380D01*
X134219046Y-125492380D02*
X134266665Y-125540000D01*
X134266665Y-125540000D02*
X134361903Y-125587619D01*
X134361903Y-125587619D02*
X134647617Y-125587619D01*
X134647617Y-125587619D02*
X134742855Y-125540000D01*
X134742855Y-125540000D02*
X134790474Y-125492380D01*
X145504761Y-126207619D02*
X144933333Y-126207619D01*
X145219047Y-127207619D02*
X145219047Y-126207619D01*
X144171428Y-127207619D02*
X144171428Y-126683809D01*
X144171428Y-126683809D02*
X144219047Y-126588571D01*
X144219047Y-126588571D02*
X144314285Y-126540952D01*
X144314285Y-126540952D02*
X144504761Y-126540952D01*
X144504761Y-126540952D02*
X144599999Y-126588571D01*
X144171428Y-127160000D02*
X144266666Y-127207619D01*
X144266666Y-127207619D02*
X144504761Y-127207619D01*
X144504761Y-127207619D02*
X144599999Y-127160000D01*
X144599999Y-127160000D02*
X144647618Y-127064761D01*
X144647618Y-127064761D02*
X144647618Y-126969523D01*
X144647618Y-126969523D02*
X144599999Y-126874285D01*
X144599999Y-126874285D02*
X144504761Y-126826666D01*
X144504761Y-126826666D02*
X144266666Y-126826666D01*
X144266666Y-126826666D02*
X144171428Y-126779047D01*
X143266666Y-127207619D02*
X143266666Y-126207619D01*
X143266666Y-127160000D02*
X143361904Y-127207619D01*
X143361904Y-127207619D02*
X143552380Y-127207619D01*
X143552380Y-127207619D02*
X143647618Y-127160000D01*
X143647618Y-127160000D02*
X143695237Y-127112380D01*
X143695237Y-127112380D02*
X143742856Y-127017142D01*
X143742856Y-127017142D02*
X143742856Y-126731428D01*
X143742856Y-126731428D02*
X143695237Y-126636190D01*
X143695237Y-126636190D02*
X143647618Y-126588571D01*
X143647618Y-126588571D02*
X143552380Y-126540952D01*
X143552380Y-126540952D02*
X143361904Y-126540952D01*
X143361904Y-126540952D02*
X143266666Y-126588571D01*
X142171427Y-126207619D02*
X141599999Y-126207619D01*
X141885713Y-127207619D02*
X141885713Y-126207619D01*
X141266665Y-127207619D02*
X141266665Y-126540952D01*
X141266665Y-126731428D02*
X141219046Y-126636190D01*
X141219046Y-126636190D02*
X141171427Y-126588571D01*
X141171427Y-126588571D02*
X141076189Y-126540952D01*
X141076189Y-126540952D02*
X140980951Y-126540952D01*
X140219046Y-126540952D02*
X140219046Y-127207619D01*
X140647617Y-126540952D02*
X140647617Y-127064761D01*
X140647617Y-127064761D02*
X140599998Y-127160000D01*
X140599998Y-127160000D02*
X140504760Y-127207619D01*
X140504760Y-127207619D02*
X140361903Y-127207619D01*
X140361903Y-127207619D02*
X140266665Y-127160000D01*
X140266665Y-127160000D02*
X140219046Y-127112380D01*
X139361903Y-127160000D02*
X139457141Y-127207619D01*
X139457141Y-127207619D02*
X139647617Y-127207619D01*
X139647617Y-127207619D02*
X139742855Y-127160000D01*
X139742855Y-127160000D02*
X139790474Y-127064761D01*
X139790474Y-127064761D02*
X139790474Y-126683809D01*
X139790474Y-126683809D02*
X139742855Y-126588571D01*
X139742855Y-126588571D02*
X139647617Y-126540952D01*
X139647617Y-126540952D02*
X139457141Y-126540952D01*
X139457141Y-126540952D02*
X139361903Y-126588571D01*
X139361903Y-126588571D02*
X139314284Y-126683809D01*
X139314284Y-126683809D02*
X139314284Y-126779047D01*
X139314284Y-126779047D02*
X139790474Y-126874285D01*
X138980950Y-127207619D02*
X138457141Y-126540952D01*
X138980950Y-126540952D02*
X138457141Y-127207619D01*
X145361904Y-128827619D02*
X145361904Y-127827619D01*
X145361904Y-127827619D02*
X145123809Y-127827619D01*
X145123809Y-127827619D02*
X144980952Y-127875238D01*
X144980952Y-127875238D02*
X144885714Y-127970476D01*
X144885714Y-127970476D02*
X144838095Y-128065714D01*
X144838095Y-128065714D02*
X144790476Y-128256190D01*
X144790476Y-128256190D02*
X144790476Y-128399047D01*
X144790476Y-128399047D02*
X144838095Y-128589523D01*
X144838095Y-128589523D02*
X144885714Y-128684761D01*
X144885714Y-128684761D02*
X144980952Y-128780000D01*
X144980952Y-128780000D02*
X145123809Y-128827619D01*
X145123809Y-128827619D02*
X145361904Y-128827619D01*
X143933333Y-128827619D02*
X143933333Y-128303809D01*
X143933333Y-128303809D02*
X143980952Y-128208571D01*
X143980952Y-128208571D02*
X144076190Y-128160952D01*
X144076190Y-128160952D02*
X144266666Y-128160952D01*
X144266666Y-128160952D02*
X144361904Y-128208571D01*
X143933333Y-128780000D02*
X144028571Y-128827619D01*
X144028571Y-128827619D02*
X144266666Y-128827619D01*
X144266666Y-128827619D02*
X144361904Y-128780000D01*
X144361904Y-128780000D02*
X144409523Y-128684761D01*
X144409523Y-128684761D02*
X144409523Y-128589523D01*
X144409523Y-128589523D02*
X144361904Y-128494285D01*
X144361904Y-128494285D02*
X144266666Y-128446666D01*
X144266666Y-128446666D02*
X144028571Y-128446666D01*
X144028571Y-128446666D02*
X143933333Y-128399047D01*
X143457142Y-128827619D02*
X143457142Y-128160952D01*
X143457142Y-128351428D02*
X143409523Y-128256190D01*
X143409523Y-128256190D02*
X143361904Y-128208571D01*
X143361904Y-128208571D02*
X143266666Y-128160952D01*
X143266666Y-128160952D02*
X143171428Y-128160952D01*
X142980951Y-128160952D02*
X142599999Y-128160952D01*
X142838094Y-127827619D02*
X142838094Y-128684761D01*
X142838094Y-128684761D02*
X142790475Y-128780000D01*
X142790475Y-128780000D02*
X142695237Y-128827619D01*
X142695237Y-128827619D02*
X142599999Y-128827619D01*
X142266665Y-128827619D02*
X142266665Y-128160952D01*
X142266665Y-128256190D02*
X142219046Y-128208571D01*
X142219046Y-128208571D02*
X142123808Y-128160952D01*
X142123808Y-128160952D02*
X141980951Y-128160952D01*
X141980951Y-128160952D02*
X141885713Y-128208571D01*
X141885713Y-128208571D02*
X141838094Y-128303809D01*
X141838094Y-128303809D02*
X141838094Y-128827619D01*
X141838094Y-128303809D02*
X141790475Y-128208571D01*
X141790475Y-128208571D02*
X141695237Y-128160952D01*
X141695237Y-128160952D02*
X141552380Y-128160952D01*
X141552380Y-128160952D02*
X141457141Y-128208571D01*
X141457141Y-128208571D02*
X141409522Y-128303809D01*
X141409522Y-128303809D02*
X141409522Y-128827619D01*
X140790475Y-128827619D02*
X140885713Y-128780000D01*
X140885713Y-128780000D02*
X140933332Y-128732380D01*
X140933332Y-128732380D02*
X140980951Y-128637142D01*
X140980951Y-128637142D02*
X140980951Y-128351428D01*
X140980951Y-128351428D02*
X140933332Y-128256190D01*
X140933332Y-128256190D02*
X140885713Y-128208571D01*
X140885713Y-128208571D02*
X140790475Y-128160952D01*
X140790475Y-128160952D02*
X140647618Y-128160952D01*
X140647618Y-128160952D02*
X140552380Y-128208571D01*
X140552380Y-128208571D02*
X140504761Y-128256190D01*
X140504761Y-128256190D02*
X140457142Y-128351428D01*
X140457142Y-128351428D02*
X140457142Y-128637142D01*
X140457142Y-128637142D02*
X140504761Y-128732380D01*
X140504761Y-128732380D02*
X140552380Y-128780000D01*
X140552380Y-128780000D02*
X140647618Y-128827619D01*
X140647618Y-128827619D02*
X140790475Y-128827619D01*
X139599999Y-128160952D02*
X139599999Y-128827619D01*
X140028570Y-128160952D02*
X140028570Y-128684761D01*
X140028570Y-128684761D02*
X139980951Y-128780000D01*
X139980951Y-128780000D02*
X139885713Y-128827619D01*
X139885713Y-128827619D02*
X139742856Y-128827619D01*
X139742856Y-128827619D02*
X139647618Y-128780000D01*
X139647618Y-128780000D02*
X139599999Y-128732380D01*
X139266665Y-128160952D02*
X138885713Y-128160952D01*
X139123808Y-127827619D02*
X139123808Y-128684761D01*
X139123808Y-128684761D02*
X139076189Y-128780000D01*
X139076189Y-128780000D02*
X138980951Y-128827619D01*
X138980951Y-128827619D02*
X138885713Y-128827619D01*
X138552379Y-128827619D02*
X138552379Y-127827619D01*
X138123808Y-128827619D02*
X138123808Y-128303809D01*
X138123808Y-128303809D02*
X138171427Y-128208571D01*
X138171427Y-128208571D02*
X138266665Y-128160952D01*
X138266665Y-128160952D02*
X138409522Y-128160952D01*
X138409522Y-128160952D02*
X138504760Y-128208571D01*
X138504760Y-128208571D02*
X138552379Y-128256190D01*
X136314284Y-128732380D02*
X136361903Y-128780000D01*
X136361903Y-128780000D02*
X136504760Y-128827619D01*
X136504760Y-128827619D02*
X136599998Y-128827619D01*
X136599998Y-128827619D02*
X136742855Y-128780000D01*
X136742855Y-128780000D02*
X136838093Y-128684761D01*
X136838093Y-128684761D02*
X136885712Y-128589523D01*
X136885712Y-128589523D02*
X136933331Y-128399047D01*
X136933331Y-128399047D02*
X136933331Y-128256190D01*
X136933331Y-128256190D02*
X136885712Y-128065714D01*
X136885712Y-128065714D02*
X136838093Y-127970476D01*
X136838093Y-127970476D02*
X136742855Y-127875238D01*
X136742855Y-127875238D02*
X136599998Y-127827619D01*
X136599998Y-127827619D02*
X136504760Y-127827619D01*
X136504760Y-127827619D02*
X136361903Y-127875238D01*
X136361903Y-127875238D02*
X136314284Y-127922857D01*
X135742855Y-128827619D02*
X135838093Y-128780000D01*
X135838093Y-128780000D02*
X135885712Y-128732380D01*
X135885712Y-128732380D02*
X135933331Y-128637142D01*
X135933331Y-128637142D02*
X135933331Y-128351428D01*
X135933331Y-128351428D02*
X135885712Y-128256190D01*
X135885712Y-128256190D02*
X135838093Y-128208571D01*
X135838093Y-128208571D02*
X135742855Y-128160952D01*
X135742855Y-128160952D02*
X135599998Y-128160952D01*
X135599998Y-128160952D02*
X135504760Y-128208571D01*
X135504760Y-128208571D02*
X135457141Y-128256190D01*
X135457141Y-128256190D02*
X135409522Y-128351428D01*
X135409522Y-128351428D02*
X135409522Y-128637142D01*
X135409522Y-128637142D02*
X135457141Y-128732380D01*
X135457141Y-128732380D02*
X135504760Y-128780000D01*
X135504760Y-128780000D02*
X135599998Y-128827619D01*
X135599998Y-128827619D02*
X135742855Y-128827619D01*
X134838093Y-128827619D02*
X134933331Y-128780000D01*
X134933331Y-128780000D02*
X134980950Y-128684761D01*
X134980950Y-128684761D02*
X134980950Y-127827619D01*
X134314283Y-128827619D02*
X134409521Y-128780000D01*
X134409521Y-128780000D02*
X134457140Y-128684761D01*
X134457140Y-128684761D02*
X134457140Y-127827619D01*
X133552378Y-128780000D02*
X133647616Y-128827619D01*
X133647616Y-128827619D02*
X133838092Y-128827619D01*
X133838092Y-128827619D02*
X133933330Y-128780000D01*
X133933330Y-128780000D02*
X133980949Y-128684761D01*
X133980949Y-128684761D02*
X133980949Y-128303809D01*
X133980949Y-128303809D02*
X133933330Y-128208571D01*
X133933330Y-128208571D02*
X133838092Y-128160952D01*
X133838092Y-128160952D02*
X133647616Y-128160952D01*
X133647616Y-128160952D02*
X133552378Y-128208571D01*
X133552378Y-128208571D02*
X133504759Y-128303809D01*
X133504759Y-128303809D02*
X133504759Y-128399047D01*
X133504759Y-128399047D02*
X133980949Y-128494285D01*
X132647616Y-128160952D02*
X132647616Y-128970476D01*
X132647616Y-128970476D02*
X132695235Y-129065714D01*
X132695235Y-129065714D02*
X132742854Y-129113333D01*
X132742854Y-129113333D02*
X132838092Y-129160952D01*
X132838092Y-129160952D02*
X132980949Y-129160952D01*
X132980949Y-129160952D02*
X133076187Y-129113333D01*
X132647616Y-128780000D02*
X132742854Y-128827619D01*
X132742854Y-128827619D02*
X132933330Y-128827619D01*
X132933330Y-128827619D02*
X133028568Y-128780000D01*
X133028568Y-128780000D02*
X133076187Y-128732380D01*
X133076187Y-128732380D02*
X133123806Y-128637142D01*
X133123806Y-128637142D02*
X133123806Y-128351428D01*
X133123806Y-128351428D02*
X133076187Y-128256190D01*
X133076187Y-128256190D02*
X133028568Y-128208571D01*
X133028568Y-128208571D02*
X132933330Y-128160952D01*
X132933330Y-128160952D02*
X132742854Y-128160952D01*
X132742854Y-128160952D02*
X132647616Y-128208571D01*
X131790473Y-128780000D02*
X131885711Y-128827619D01*
X131885711Y-128827619D02*
X132076187Y-128827619D01*
X132076187Y-128827619D02*
X132171425Y-128780000D01*
X132171425Y-128780000D02*
X132219044Y-128684761D01*
X132219044Y-128684761D02*
X132219044Y-128303809D01*
X132219044Y-128303809D02*
X132171425Y-128208571D01*
X132171425Y-128208571D02*
X132076187Y-128160952D01*
X132076187Y-128160952D02*
X131885711Y-128160952D01*
X131885711Y-128160952D02*
X131790473Y-128208571D01*
X131790473Y-128208571D02*
X131742854Y-128303809D01*
X131742854Y-128303809D02*
X131742854Y-128399047D01*
X131742854Y-128399047D02*
X132219044Y-128494285D01*
%TO.C,JP1*%
X144662619Y-103086666D02*
X145376904Y-103086666D01*
X145376904Y-103086666D02*
X145519761Y-103039047D01*
X145519761Y-103039047D02*
X145615000Y-102943809D01*
X145615000Y-102943809D02*
X145662619Y-102800952D01*
X145662619Y-102800952D02*
X145662619Y-102705714D01*
X145662619Y-103562857D02*
X144662619Y-103562857D01*
X144662619Y-103562857D02*
X144662619Y-103943809D01*
X144662619Y-103943809D02*
X144710238Y-104039047D01*
X144710238Y-104039047D02*
X144757857Y-104086666D01*
X144757857Y-104086666D02*
X144853095Y-104134285D01*
X144853095Y-104134285D02*
X144995952Y-104134285D01*
X144995952Y-104134285D02*
X145091190Y-104086666D01*
X145091190Y-104086666D02*
X145138809Y-104039047D01*
X145138809Y-104039047D02*
X145186428Y-103943809D01*
X145186428Y-103943809D02*
X145186428Y-103562857D01*
X145662619Y-105086666D02*
X145662619Y-104515238D01*
X145662619Y-104800952D02*
X144662619Y-104800952D01*
X144662619Y-104800952D02*
X144805476Y-104705714D01*
X144805476Y-104705714D02*
X144900714Y-104610476D01*
X144900714Y-104610476D02*
X144948333Y-104515238D01*
D11*
X143100000Y-105320000D02*
X143700000Y-105320000D01*
X144400000Y-104620000D02*
X144400000Y-103220000D01*
X142400000Y-103220000D02*
X142400000Y-104620000D01*
X143700000Y-102520000D02*
X143100000Y-102520000D01*
X142400000Y-104620000D02*
G75*
G03*
X143100000Y-105320000I699999J-1D01*
G01*
X143700000Y-105320000D02*
G75*
G03*
X144400000Y-104620000I1J699999D01*
G01*
X143100000Y-102520000D02*
G75*
G03*
X142400000Y-103220000I0J-700000D01*
G01*
X144400000Y-103220000D02*
G75*
G03*
X143700000Y-102520000I-700000J0D01*
G01*
%TD*%
M02*
