M48
; DRILL file {KiCad 7.0.2-0} date 2023 November 21, Tuesday 13:06:47
; FORMAT={-:-/ absolute / inch / decimal}
; #@! TF.CreationDate,2023-11-21T13:06:47-05:00
; #@! TF.GenerationSoftware,Kicad,Pcbnew,7.0.2-0
; #@! TF.FileFunction,Plated,1,2,PTH
FMAT,2
INCH
; #@! TA.AperFunction,Plated,PTH,ViaDrill
T1C0.0118
; #@! TA.AperFunction,Plated,PTH,ViaDrill
T2C0.0157
; #@! TA.AperFunction,Plated,PTH,ComponentDrill
T3C0.0315
; #@! TA.AperFunction,Plated,PTH,ComponentDrill
T4C0.0350
; #@! TA.AperFunction,Plated,PTH,ComponentDrill
T5C0.0354
; #@! TA.AperFunction,Plated,PTH,ComponentDrill
T6C0.0390
; #@! TA.AperFunction,Plated,PTH,ComponentDrill
T7C0.0394
; #@! TA.AperFunction,Plated,PTH,ComponentDrill
T8C0.0550
%
G90
G05
T1
X4.8917Y-3.6614
X4.9213Y-3.7008
X4.9508Y-3.7205
X4.9705Y-3.75
X5.2205Y-3.8327
X5.2756Y-4.0846
X5.3091Y-4.3425
X5.3091Y-4.3996
X5.3504Y-4.1024
X5.437Y-4.0217
X5.4409Y-4.1004
X5.4823Y-4.3602
X5.5413Y-4.3799
X5.6004Y-3.8091
X5.6102Y-3.9961
X5.6398Y-3.8976
X5.6791Y-3.9961
X5.7283Y-3.7992
X5.7579Y-3.9961
X6.122Y-3.8386
X6.2185Y-3.8976
X6.9252Y-4.5433
T2
X6.2992Y-5.2067
X6.2992Y-5.2559
X6.2992Y-5.3051
T3
X5.9338Y-5.1929
X6.0322Y-5.1929
T4
X5.8972Y-4.3959
X5.8972Y-4.4959
X5.8972Y-4.5959
X6.1972Y-4.0959
X6.2972Y-4.0959
X6.3972Y-4.0959
T5
X5.0404Y-5.3012
X5.0423Y-3.6102
X5.1404Y-5.3012
X5.1423Y-3.6102
X6.5972Y-4.3709
X6.5972Y-4.6209
X6.7972Y-4.3709
X6.7972Y-4.6209
T6
X6.9291Y-3.7504
X6.9291Y-3.9276
X6.9291Y-5.089
X6.9291Y-5.2662
X7.185Y-3.7504
X7.185Y-3.9276
X7.185Y-5.089
X7.185Y-5.2662
T7
X5.0083Y-4.3276
X5.0083Y-4.4276
X5.0083Y-4.5276
X5.0083Y-4.6276
X5.0083Y-4.7276
X5.1083Y-4.3276
X5.1083Y-4.4276
X5.1083Y-4.5276
X5.1083Y-4.6276
X5.1083Y-4.7276
X5.5412Y-3.5589
X5.6412Y-3.5589
X5.7412Y-3.5589
X5.8412Y-3.5589
X5.9012Y-5.4589
X5.9412Y-3.5589
X6.0012Y-5.4589
X6.0412Y-3.5589
X6.1012Y-5.4589
X6.1412Y-3.5589
X6.2012Y-5.4589
X6.2412Y-3.5589
X6.3012Y-5.4589
X6.3412Y-3.5589
X6.3976Y-3.8189
X6.4012Y-5.4589
X6.4412Y-3.5589
X6.4976Y-3.8189
X6.5012Y-5.4589
X6.5976Y-3.8189
X6.6012Y-3.5589
X6.6012Y-5.4589
X6.7012Y-3.5589
X6.8012Y-3.5589
X6.8012Y-5.4589
X6.9012Y-3.5589
X6.9012Y-5.4589
X7.0012Y-3.5589
X7.0012Y-5.4589
X7.1012Y-3.5589
X7.1012Y-5.4589
X7.2012Y-3.5589
X7.2012Y-5.4589
X7.3012Y-3.5589
X7.3012Y-5.4589
T8
X6.0347Y-4.1959
X6.0347Y-4.7959
X6.5597Y-4.1959
X6.5597Y-4.7959
T0
M30
