%TF.GenerationSoftware,KiCad,Pcbnew,7.0.2-0*%
%TF.CreationDate,2023-11-21T13:06:44-05:00*%
%TF.ProjectId,ControllerShield,436f6e74-726f-46c6-9c65-72536869656c,rev?*%
%TF.SameCoordinates,Original*%
%TF.FileFunction,Copper,L1,Top*%
%TF.FilePolarity,Positive*%
%FSLAX46Y46*%
G04 Gerber Fmt 4.6, Leading zero omitted, Abs format (unit mm)*
G04 Created by KiCad (PCBNEW 7.0.2-0) date 2023-11-21 13:06:44*
%MOMM*%
%LPD*%
G01*
G04 APERTURE LIST*
G04 Aperture macros list*
%AMRoundRect*
0 Rectangle with rounded corners*
0 $1 Rounding radius*
0 $2 $3 $4 $5 $6 $7 $8 $9 X,Y pos of 4 corners*
0 Add a 4 corners polygon primitive as box body*
4,1,4,$2,$3,$4,$5,$6,$7,$8,$9,$2,$3,0*
0 Add four circle primitives for the rounded corners*
1,1,$1+$1,$2,$3*
1,1,$1+$1,$4,$5*
1,1,$1+$1,$6,$7*
1,1,$1+$1,$8,$9*
0 Add four rect primitives between the rounded corners*
20,1,$1+$1,$2,$3,$4,$5,0*
20,1,$1+$1,$4,$5,$6,$7,0*
20,1,$1+$1,$6,$7,$8,$9,0*
20,1,$1+$1,$8,$9,$2,$3,0*%
G04 Aperture macros list end*
%TA.AperFunction,ComponentPad*%
%ADD10R,1.700000X1.700000*%
%TD*%
%TA.AperFunction,ComponentPad*%
%ADD11O,1.700000X1.700000*%
%TD*%
%TA.AperFunction,ComponentPad*%
%ADD12R,1.800000X1.800000*%
%TD*%
%TA.AperFunction,ComponentPad*%
%ADD13C,1.800000*%
%TD*%
%TA.AperFunction,SMDPad,CuDef*%
%ADD14RoundRect,0.225000X0.250000X-0.225000X0.250000X0.225000X-0.250000X0.225000X-0.250000X-0.225000X0*%
%TD*%
%TA.AperFunction,SMDPad,CuDef*%
%ADD15RoundRect,0.200000X-0.200000X-0.275000X0.200000X-0.275000X0.200000X0.275000X-0.200000X0.275000X0*%
%TD*%
%TA.AperFunction,SMDPad,CuDef*%
%ADD16RoundRect,0.200000X-0.275000X0.200000X-0.275000X-0.200000X0.275000X-0.200000X0.275000X0.200000X0*%
%TD*%
%TA.AperFunction,ComponentPad*%
%ADD17C,1.778000*%
%TD*%
%TA.AperFunction,ComponentPad*%
%ADD18C,2.286000*%
%TD*%
%TA.AperFunction,ComponentPad*%
%ADD19R,1.498600X1.498600*%
%TD*%
%TA.AperFunction,ComponentPad*%
%ADD20C,1.498600*%
%TD*%
%TA.AperFunction,SMDPad,CuDef*%
%ADD21RoundRect,0.225000X0.225000X0.250000X-0.225000X0.250000X-0.225000X-0.250000X0.225000X-0.250000X0*%
%TD*%
%TA.AperFunction,SMDPad,CuDef*%
%ADD22R,0.400000X1.100000*%
%TD*%
%TA.AperFunction,SMDPad,CuDef*%
%ADD23RoundRect,0.225000X-0.250000X0.225000X-0.250000X-0.225000X0.250000X-0.225000X0.250000X0.225000X0*%
%TD*%
%TA.AperFunction,SMDPad,CuDef*%
%ADD24RoundRect,0.150000X0.512500X0.150000X-0.512500X0.150000X-0.512500X-0.150000X0.512500X-0.150000X0*%
%TD*%
%TA.AperFunction,SMDPad,CuDef*%
%ADD25RoundRect,0.087500X-0.087500X0.187500X-0.087500X-0.187500X0.087500X-0.187500X0.087500X0.187500X0*%
%TD*%
%TA.AperFunction,SMDPad,CuDef*%
%ADD26RoundRect,0.087500X-0.187500X0.087500X-0.187500X-0.087500X0.187500X-0.087500X0.187500X0.087500X0*%
%TD*%
%TA.AperFunction,ComponentPad*%
%ADD27R,1.600000X1.600000*%
%TD*%
%TA.AperFunction,ComponentPad*%
%ADD28C,1.600000*%
%TD*%
%TA.AperFunction,ViaPad*%
%ADD29C,0.500000*%
%TD*%
%TA.AperFunction,ViaPad*%
%ADD30C,0.800000*%
%TD*%
%TA.AperFunction,Conductor*%
%ADD31C,0.180000*%
%TD*%
%TA.AperFunction,Conductor*%
%ADD32C,0.200000*%
%TD*%
%TA.AperFunction,Conductor*%
%ADD33C,0.127000*%
%TD*%
%TA.AperFunction,Conductor*%
%ADD34C,0.254000*%
%TD*%
%TA.AperFunction,Conductor*%
%ADD35C,1.270000*%
%TD*%
G04 APERTURE END LIST*
D10*
%TO.P,J1,1,Pin_1*%
%TO.N,unconnected-(J1-Pin_1-Pad1)*%
X149890000Y-138655000D03*
D11*
%TO.P,J1,2,Pin_2*%
%TO.N,/IOREF*%
X152430000Y-138655000D03*
%TO.P,J1,3,Pin_3*%
%TO.N,/RSTn*%
X154970000Y-138655000D03*
%TO.P,J1,4,Pin_4*%
%TO.N,unconnected-(J1-Pin_4-Pad4)*%
X157510000Y-138655000D03*
%TO.P,J1,5,Pin_5*%
%TO.N,+5V*%
X160050000Y-138655000D03*
%TO.P,J1,6,Pin_6*%
%TO.N,GND*%
X162590000Y-138655000D03*
%TO.P,J1,7,Pin_7*%
X165130000Y-138655000D03*
%TO.P,J1,8,Pin_8*%
%TO.N,/Vsys*%
X167670000Y-138655000D03*
%TD*%
D10*
%TO.P,J3,1,Pin_1*%
%TO.N,/Horiz*%
X172750000Y-138655000D03*
D11*
%TO.P,J3,2,Pin_2*%
%TO.N,/Vert*%
X175290000Y-138655000D03*
%TO.P,J3,3,Pin_3*%
%TO.N,/A2*%
X177830000Y-138655000D03*
%TO.P,J3,4,Pin_4*%
%TO.N,/A3*%
X180370000Y-138655000D03*
%TO.P,J3,5,Pin_5*%
%TO.N,unconnected-(J3-Pin_5-Pad5)*%
X182910000Y-138655000D03*
%TO.P,J3,6,Pin_6*%
%TO.N,unconnected-(J3-Pin_6-Pad6)*%
X185450000Y-138655000D03*
%TD*%
D10*
%TO.P,J2,1,Pin_1*%
%TO.N,/SCL*%
X140746000Y-90395000D03*
D11*
%TO.P,J2,2,Pin_2*%
%TO.N,/SDA*%
X143286000Y-90395000D03*
%TO.P,J2,3,Pin_3*%
%TO.N,/AREF*%
X145826000Y-90395000D03*
%TO.P,J2,4,Pin_4*%
%TO.N,GND*%
X148366000Y-90395000D03*
%TO.P,J2,5,Pin_5*%
%TO.N,/D0*%
X150906000Y-90395000D03*
%TO.P,J2,6,Pin_6*%
%TO.N,/D1*%
X153446000Y-90395000D03*
%TO.P,J2,7,Pin_7*%
%TO.N,/\u002A11*%
X155986000Y-90395000D03*
%TO.P,J2,8,Pin_8*%
%TO.N,/Y*%
X158526000Y-90395000D03*
%TO.P,J2,9,Pin_9*%
%TO.N,/X*%
X161066000Y-90395000D03*
%TO.P,J2,10,Pin_10*%
%TO.N,/8*%
X163606000Y-90395000D03*
%TD*%
D10*
%TO.P,J4,1,Pin_1*%
%TO.N,/7*%
X167670000Y-90395000D03*
D11*
%TO.P,J4,2,Pin_2*%
%TO.N,/\u002A6*%
X170210000Y-90395000D03*
%TO.P,J4,3,Pin_3*%
%TO.N,/ExtraBtn*%
X172750000Y-90395000D03*
%TO.P,J4,4,Pin_4*%
%TO.N,/Green*%
X175290000Y-90395000D03*
%TO.P,J4,5,Pin_5*%
%TO.N,/Red*%
X177830000Y-90395000D03*
%TO.P,J4,6,Pin_6*%
%TO.N,/GameBtn*%
X180370000Y-90395000D03*
%TO.P,J4,7,Pin_7*%
%TO.N,/TX{slash}1*%
X182910000Y-90395000D03*
%TO.P,J4,8,Pin_8*%
%TO.N,/RX{slash}0*%
X185450000Y-90395000D03*
%TD*%
D12*
%TO.P,D1,1,K*%
%TO.N,GND*%
X128025000Y-134650000D03*
D13*
%TO.P,D1,2,A*%
%TO.N,Net-(D1-A)*%
X130565000Y-134650000D03*
%TD*%
D14*
%TO.P,C3,1*%
%TO.N,GND*%
X173100000Y-132475000D03*
%TO.P,C3,2*%
%TO.N,/RSTn*%
X173100000Y-130925000D03*
%TD*%
D15*
%TO.P,R2,1*%
%TO.N,+3V3*%
X137150000Y-98720000D03*
%TO.P,R2,2*%
%TO.N,/SCL3p3*%
X138800000Y-98720000D03*
%TD*%
D16*
%TO.P,R4,1*%
%TO.N,/Green*%
X134000000Y-96000000D03*
%TO.P,R4,2*%
%TO.N,Net-(D2-A)*%
X134000000Y-97650000D03*
%TD*%
D17*
%TO.P,U1,B1A,SEL+*%
%TO.N,/GameBtn*%
X172650000Y-111020000D03*
%TO.P,U1,B1B*%
%TO.N,N/C*%
X172650000Y-117370000D03*
%TO.P,U1,B2A,SEL-*%
%TO.N,GND*%
X167570000Y-111020000D03*
%TO.P,U1,B2B*%
%TO.N,N/C*%
X167570000Y-117370000D03*
%TO.P,U1,H1,H+*%
%TO.N,+5V*%
X149790000Y-111655000D03*
%TO.P,U1,H2,H*%
%TO.N,/Vert*%
X149790000Y-114195000D03*
%TO.P,U1,H3,H-*%
%TO.N,GND*%
X149790000Y-116735000D03*
D18*
%TO.P,U1,S1,SHIELD*%
X166617500Y-106575000D03*
%TO.P,U1,S2,SHIELD__1*%
X153282500Y-106575000D03*
%TO.P,U1,S3,SHIELD__2*%
X153282500Y-121815000D03*
%TO.P,U1,S4,SHIELD__3*%
X166617500Y-121815000D03*
D17*
%TO.P,U1,V1,V+*%
%TO.N,+5V*%
X162490000Y-104035000D03*
%TO.P,U1,V2,V*%
%TO.N,/Horiz*%
X159950000Y-104035000D03*
%TO.P,U1,V3,V-*%
%TO.N,GND*%
X157410000Y-104035000D03*
%TD*%
D12*
%TO.P,D2,1,K*%
%TO.N,GND*%
X128075000Y-91700000D03*
D13*
%TO.P,D2,2,A*%
%TO.N,Net-(D2-A)*%
X130615000Y-91700000D03*
%TD*%
D19*
%TO.P,SW1,1,A*%
%TO.N,/RSTn*%
X175999999Y-129260599D03*
D20*
%TO.P,SW1,2,A*%
X182500001Y-129260599D03*
%TO.P,SW1,3,B*%
%TO.N,GND*%
X175999999Y-133760600D03*
%TO.P,SW1,4,B*%
X182500001Y-133760600D03*
%TD*%
D21*
%TO.P,C1,1*%
%TO.N,+3V3*%
X148300000Y-96500000D03*
%TO.P,C1,2*%
%TO.N,GND*%
X146750000Y-96500000D03*
%TD*%
D22*
%TO.P,U4,1,GND*%
%TO.N,GND*%
X137825000Y-105450000D03*
%TO.P,U4,2,VREF1*%
%TO.N,+3V3*%
X137175000Y-105450000D03*
%TO.P,U4,3,SCL1*%
%TO.N,/SCL3p3*%
X136525000Y-105450000D03*
%TO.P,U4,4,SDA1*%
%TO.N,/SDA3p3*%
X135875000Y-105450000D03*
%TO.P,U4,5,SDA2*%
%TO.N,/SDA*%
X135875000Y-109750000D03*
%TO.P,U4,6,SCL2*%
%TO.N,/SCL*%
X136525000Y-109750000D03*
%TO.P,U4,7,VREF2*%
%TO.N,Net-(U4-EN)*%
X137175000Y-109750000D03*
%TO.P,U4,8,EN*%
X137825000Y-109750000D03*
%TD*%
D14*
%TO.P,C6,1*%
%TO.N,GND*%
X173450000Y-98525000D03*
%TO.P,C6,2*%
%TO.N,/ExtraBtn*%
X173450000Y-96975000D03*
%TD*%
D15*
%TO.P,R5,1*%
%TO.N,+5V*%
X138825000Y-113250000D03*
%TO.P,R5,2*%
%TO.N,Net-(U4-EN)*%
X140475000Y-113250000D03*
%TD*%
D19*
%TO.P,SW2,1,A*%
%TO.N,/ExtraBtn*%
X175999999Y-95260599D03*
D20*
%TO.P,SW2,2,A*%
X182500001Y-95260599D03*
%TO.P,SW2,3,B*%
%TO.N,GND*%
X175999999Y-99760600D03*
%TO.P,SW2,4,B*%
X182500001Y-99760600D03*
%TD*%
D16*
%TO.P,R3,1*%
%TO.N,/Red*%
X134000000Y-100675000D03*
%TO.P,R3,2*%
%TO.N,Net-(D1-A)*%
X134000000Y-102325000D03*
%TD*%
D23*
%TO.P,C4,1*%
%TO.N,+5V*%
X157950000Y-97400000D03*
%TO.P,C4,2*%
%TO.N,GND*%
X157950000Y-98950000D03*
%TD*%
D24*
%TO.P,U3,1,IN*%
%TO.N,+5V*%
X153387500Y-98400000D03*
%TO.P,U3,2,GND*%
%TO.N,GND*%
X153387500Y-97450000D03*
%TO.P,U3,3,EN*%
%TO.N,+5V*%
X153387500Y-96500000D03*
%TO.P,U3,4,NC*%
%TO.N,unconnected-(U3-NC-Pad4)*%
X151112500Y-96500000D03*
%TO.P,U3,5,OUT*%
%TO.N,+3V3*%
X151112500Y-98400000D03*
%TD*%
D21*
%TO.P,C2,1*%
%TO.N,+3V3*%
X149000000Y-101445000D03*
%TO.P,C2,2*%
%TO.N,GND*%
X147450000Y-101445000D03*
%TD*%
D23*
%TO.P,C7,1*%
%TO.N,/GameBtn*%
X175900000Y-113775000D03*
%TO.P,C7,2*%
%TO.N,GND*%
X175900000Y-115325000D03*
%TD*%
D15*
%TO.P,R1,1*%
%TO.N,+3V3*%
X137125000Y-101195000D03*
%TO.P,R1,2*%
%TO.N,/SDA3p3*%
X138775000Y-101195000D03*
%TD*%
D10*
%TO.P,J5,1,Pin_1*%
%TO.N,/X*%
X127210000Y-109920000D03*
D11*
%TO.P,J5,2,Pin_2*%
%TO.N,/Y*%
X129750000Y-109920000D03*
%TO.P,J5,3,Pin_3*%
%TO.N,/SCL*%
X127210000Y-112460000D03*
%TO.P,J5,4,Pin_4*%
%TO.N,/SDA*%
X129750000Y-112460000D03*
%TO.P,J5,5,Pin_5*%
%TO.N,/D0*%
X127210000Y-115000000D03*
%TO.P,J5,6,Pin_6*%
%TO.N,/D1*%
X129750000Y-115000000D03*
%TO.P,J5,7,Pin_7*%
%TO.N,/Vsys*%
X127210000Y-117540000D03*
%TO.P,J5,8,Pin_8*%
%TO.N,unconnected-(J5-Pin_8-Pad8)*%
X129750000Y-117540000D03*
%TO.P,J5,9,Pin_9*%
%TO.N,GND*%
X127210000Y-120080000D03*
%TO.P,J5,10,Pin_10*%
%TO.N,unconnected-(J5-Pin_10-Pad10)*%
X129750000Y-120080000D03*
%TD*%
D25*
%TO.P,U2,1,VDD_IO*%
%TO.N,+3V3*%
X144495000Y-97790000D03*
%TO.P,U2,2,NC*%
%TO.N,unconnected-(U2-NC-Pad2)*%
X143995000Y-97790000D03*
%TO.P,U2,3,NC*%
%TO.N,unconnected-(U2-NC-Pad3)*%
X143495000Y-97790000D03*
%TO.P,U2,4,SCL/SPC*%
%TO.N,/SCL3p3*%
X142995000Y-97790000D03*
%TO.P,U2,5,GND*%
%TO.N,GND*%
X142495000Y-97790000D03*
D26*
%TO.P,U2,6,SDA/SDI/SDO*%
%TO.N,/SDA3p3*%
X142270000Y-98515000D03*
%TO.P,U2,7,SDO/SA0*%
%TO.N,Net-(JP1-B)*%
X142270000Y-99015000D03*
%TO.P,U2,8,CS*%
%TO.N,+3V3*%
X142270000Y-99515000D03*
D25*
%TO.P,U2,9,INT2*%
%TO.N,unconnected-(U2-INT2-Pad9)*%
X142495000Y-100240000D03*
%TO.P,U2,10,GND*%
%TO.N,GND*%
X142995000Y-100240000D03*
%TO.P,U2,11,INT1*%
%TO.N,unconnected-(U2-INT1-Pad11)*%
X143495000Y-100240000D03*
%TO.P,U2,12,GND*%
%TO.N,GND*%
X143995000Y-100240000D03*
%TO.P,U2,13,ADC3*%
%TO.N,unconnected-(U2-ADC3-Pad13)*%
X144495000Y-100240000D03*
D26*
%TO.P,U2,14,VDD*%
%TO.N,+3V3*%
X144720000Y-99515000D03*
%TO.P,U2,15,ADC2*%
%TO.N,unconnected-(U2-ADC2-Pad15)*%
X144720000Y-99015000D03*
%TO.P,U2,16,ADC1*%
%TO.N,unconnected-(U2-ADC1-Pad16)*%
X144720000Y-98515000D03*
%TD*%
D10*
%TO.P,J6,1,Pin_1*%
%TO.N,/X*%
X167580000Y-97000000D03*
D11*
%TO.P,J6,2,Pin_2*%
%TO.N,GND*%
X165040000Y-97000000D03*
%TO.P,J6,3,Pin_3*%
%TO.N,/Y*%
X162500000Y-97000000D03*
%TD*%
D27*
%TO.P,C5,1*%
%TO.N,+5V*%
X150717621Y-131900000D03*
D28*
%TO.P,C5,2*%
%TO.N,GND*%
X153217621Y-131900000D03*
%TD*%
D29*
%TO.N,GND*%
X146250000Y-101500000D03*
X145500000Y-96500000D03*
X155500000Y-97500000D03*
X144250000Y-101500000D03*
X142250000Y-96750000D03*
X138200000Y-104150000D03*
X175900000Y-115400000D03*
X142500000Y-101500000D03*
X157950000Y-99000000D03*
D30*
%TO.N,+5V*%
X160000000Y-133500000D03*
X160000000Y-134750000D03*
X160000000Y-132250000D03*
D29*
%TO.N,Net-(D1-A)*%
X134000000Y-103750000D03*
%TO.N,Net-(D2-A)*%
X132600000Y-97350000D03*
%TO.N,/SCL*%
X139250000Y-110750000D03*
%TO.N,/D0*%
X124250000Y-93000000D03*
%TO.N,/D1*%
X125000000Y-94000000D03*
%TO.N,/SDA*%
X134850000Y-110300000D03*
X140750000Y-111250000D03*
X134850000Y-111750000D03*
%TO.N,/Y*%
X125750000Y-94500000D03*
%TO.N,/X*%
X126250000Y-95250000D03*
%TO.N,Net-(JP1-B)*%
X143250000Y-99000000D03*
%TO.N,/SDA3p3*%
X138100000Y-102150000D03*
X135900000Y-104200000D03*
%TD*%
D31*
%TO.N,GND*%
X142495000Y-97790000D02*
X142495000Y-96995000D01*
X147450000Y-101445000D02*
X146305000Y-101445000D01*
X146750000Y-96500000D02*
X145500000Y-96500000D01*
X143995000Y-100240000D02*
X143995000Y-101245000D01*
D32*
X173450000Y-98525000D02*
X174764399Y-98525000D01*
D31*
X174774998Y-132525000D02*
X175999998Y-133750000D01*
X143995000Y-101245000D02*
X144250000Y-101500000D01*
X137825000Y-105450000D02*
X137825000Y-104525000D01*
X155450000Y-97450000D02*
X155500000Y-97500000D01*
X142495000Y-96995000D02*
X142250000Y-96750000D01*
X142750000Y-101500000D02*
X142500000Y-101500000D01*
D32*
X174764399Y-98525000D02*
X175999999Y-99760600D01*
D31*
X137825000Y-104525000D02*
X138200000Y-104150000D01*
X142995000Y-100240000D02*
X142995000Y-101255000D01*
X142995000Y-101255000D02*
X142750000Y-101500000D01*
X153387500Y-97450000D02*
X155450000Y-97450000D01*
X146305000Y-101445000D02*
X146250000Y-101500000D01*
X173250000Y-132525000D02*
X174774998Y-132525000D01*
D33*
%TO.N,+5V*%
X153387500Y-98400000D02*
X153387500Y-100112500D01*
X153387500Y-100112500D02*
X153250000Y-100250000D01*
D34*
X153387500Y-96500000D02*
X156250000Y-96500000D01*
D31*
%TO.N,Net-(D1-A)*%
X134000000Y-102325000D02*
X134000000Y-103750000D01*
D32*
%TO.N,Net-(D2-A)*%
X134000000Y-97650000D02*
X132900000Y-97650000D01*
X132900000Y-97650000D02*
X132600000Y-97350000D01*
D31*
%TO.N,/SCL*%
X136525000Y-110988000D02*
X136600000Y-111063000D01*
X136525000Y-109750000D02*
X136525000Y-110988000D01*
D33*
X138937000Y-111063000D02*
X136600000Y-111063000D01*
X136600000Y-111063000D02*
X128607000Y-111063000D01*
X128607000Y-111063000D02*
X127210000Y-112460000D01*
X139250000Y-110750000D02*
X138937000Y-111063000D01*
D35*
%TO.N,/Vsys*%
X127210000Y-117540000D02*
X124710000Y-117540000D01*
D31*
%TO.N,/D0*%
X147951000Y-93350000D02*
X124600000Y-93350000D01*
X124600000Y-93350000D02*
X124250000Y-93000000D01*
X150906000Y-90395000D02*
X147951000Y-93350000D01*
%TO.N,/D1*%
X125200000Y-93800000D02*
X125000000Y-94000000D01*
X150041000Y-93800000D02*
X125200000Y-93800000D01*
X153446000Y-90395000D02*
X150041000Y-93800000D01*
%TO.N,/Horiz*%
X172750000Y-136000000D02*
X159950000Y-123200000D01*
X172750000Y-138655000D02*
X172750000Y-136000000D01*
X159950000Y-123200000D02*
X159950000Y-104035000D01*
%TO.N,/Vert*%
X171250000Y-140000000D02*
X170750000Y-139500000D01*
X170750000Y-139500000D02*
X170750000Y-135155000D01*
X173945000Y-140000000D02*
X171250000Y-140000000D01*
X170750000Y-135155000D02*
X149790000Y-114195000D01*
X175290000Y-138655000D02*
X173945000Y-140000000D01*
%TO.N,/Green*%
X175290000Y-90395000D02*
X173185000Y-92500000D01*
X158750000Y-93750000D02*
X157500000Y-95000000D01*
X173185000Y-92500000D02*
X160250000Y-92500000D01*
X157500000Y-95000000D02*
X134250000Y-95000000D01*
X160250000Y-92500000D02*
X160000000Y-92500000D01*
X160000000Y-92500000D02*
X158750000Y-93750000D01*
X134000000Y-95250000D02*
X134250000Y-95000000D01*
X134000000Y-96000000D02*
X134000000Y-95250000D01*
D32*
%TO.N,/ExtraBtn*%
X173450000Y-96975000D02*
X174285598Y-96975000D01*
X178980000Y-92280598D02*
X178980000Y-89480000D01*
X178500000Y-89000000D02*
X174145000Y-89000000D01*
X174285598Y-96975000D02*
X175999999Y-95260599D01*
X174145000Y-89000000D02*
X172750000Y-90395000D01*
X175999999Y-95260599D02*
X178980000Y-92280598D01*
X178980000Y-89480000D02*
X178500000Y-89000000D01*
D31*
%TO.N,/Red*%
X134000000Y-99500000D02*
X134000000Y-100675000D01*
X160500000Y-93250000D02*
X158250000Y-95500000D01*
X174975000Y-93250000D02*
X160500000Y-93250000D01*
X135250000Y-98250000D02*
X134000000Y-99500000D01*
X177830000Y-90395000D02*
X174975000Y-93250000D01*
X158250000Y-95500000D02*
X135250000Y-95500000D01*
X135250000Y-95500000D02*
X135250000Y-98250000D01*
%TO.N,+3V3*%
X144495000Y-97790000D02*
X145290000Y-97790000D01*
X144500000Y-96750000D02*
X144495000Y-96755000D01*
X145290000Y-97790000D02*
X145500000Y-98000000D01*
X144495000Y-97790000D02*
X144495000Y-96755000D01*
%TO.N,/GameBtn*%
X175900000Y-113775000D02*
X175405000Y-113775000D01*
X175405000Y-113775000D02*
X172650000Y-111020000D01*
%TO.N,/SDA*%
X140250000Y-111750000D02*
X140750000Y-111250000D01*
X134850000Y-110300000D02*
X135325000Y-110300000D01*
X129750000Y-112460000D02*
X130540000Y-112460000D01*
X130540000Y-112460000D02*
X131250000Y-111750000D01*
X135325000Y-110300000D02*
X135875000Y-109750000D01*
X131250000Y-111750000D02*
X140250000Y-111750000D01*
%TO.N,/Y*%
X126000000Y-94250000D02*
X125750000Y-94500000D01*
X154671000Y-94250000D02*
X126000000Y-94250000D01*
X158526000Y-90395000D02*
X154671000Y-94250000D01*
%TO.N,/X*%
X161066000Y-90395000D02*
X156811000Y-94650000D01*
X126850000Y-94650000D02*
X126250000Y-95250000D01*
X156811000Y-94650000D02*
X126850000Y-94650000D01*
D32*
%TO.N,Net-(JP1-B)*%
X142270000Y-99015000D02*
X143235000Y-99015000D01*
X143235000Y-99015000D02*
X143250000Y-99000000D01*
D31*
%TO.N,/RSTn*%
X173250000Y-130975000D02*
X174975001Y-129249999D01*
X174975001Y-129249999D02*
X175999998Y-129249999D01*
D32*
X182500000Y-129249999D02*
X175999998Y-129249999D01*
D31*
%TO.N,/SDA3p3*%
X138100000Y-101870000D02*
X138775000Y-101195000D01*
X135875000Y-105450000D02*
X135875000Y-104225000D01*
X135875000Y-104225000D02*
X135900000Y-104200000D01*
D33*
X142270000Y-98515000D02*
X141335000Y-98515000D01*
D31*
X138100000Y-102150000D02*
X138100000Y-101870000D01*
D33*
X141335000Y-98515000D02*
X138775000Y-101075000D01*
D31*
%TO.N,/SCL3p3*%
X136525000Y-106180000D02*
X136305000Y-106400000D01*
X136305000Y-106400000D02*
X135421501Y-106400000D01*
X135071501Y-106050000D02*
X135071501Y-98928499D01*
X138000000Y-96000000D02*
X141600000Y-96000000D01*
D33*
X141600000Y-96000000D02*
X141250000Y-96000000D01*
X142995000Y-96245000D02*
X142750000Y-96000000D01*
D31*
X136525000Y-105450000D02*
X136525000Y-106180000D01*
X135071501Y-98928499D02*
X138000000Y-96000000D01*
D33*
X142750000Y-96000000D02*
X141600000Y-96000000D01*
X138800000Y-98450000D02*
X138800000Y-98720000D01*
X142995000Y-97790000D02*
X142995000Y-96245000D01*
X141250000Y-96000000D02*
X138800000Y-98450000D01*
D31*
X135421501Y-106400000D02*
X135071501Y-106050000D01*
D32*
%TO.N,Net-(U4-EN)*%
X140475000Y-113250000D02*
X141450000Y-113250000D01*
X141800000Y-112900000D02*
X141800000Y-110300000D01*
X141250000Y-109750000D02*
X137175000Y-109750000D01*
X141800000Y-110300000D02*
X141250000Y-109750000D01*
X141450000Y-113250000D02*
X141800000Y-112900000D01*
%TD*%
%TA.AperFunction,Conductor*%
%TO.N,/Vsys*%
G36*
X126372420Y-116269685D02*
G01*
X126418175Y-116322489D01*
X126428119Y-116391647D01*
X126399094Y-116455203D01*
X126376505Y-116475575D01*
X126338918Y-116501893D01*
X126171890Y-116668921D01*
X126036400Y-116862421D01*
X125936569Y-117076507D01*
X125879364Y-117289999D01*
X125879364Y-117290000D01*
X126776314Y-117290000D01*
X126750507Y-117330156D01*
X126710000Y-117468111D01*
X126710000Y-117611889D01*
X126750507Y-117749844D01*
X126776314Y-117790000D01*
X125879364Y-117790000D01*
X125936569Y-118003492D01*
X126036399Y-118217576D01*
X126171893Y-118411081D01*
X126338918Y-118578106D01*
X126532423Y-118713600D01*
X126746508Y-118813430D01*
X126785584Y-118823901D01*
X126845245Y-118860266D01*
X126875774Y-118923113D01*
X126867479Y-118992488D01*
X126822994Y-119046366D01*
X126798285Y-119059303D01*
X126717360Y-119090653D01*
X126543958Y-119198018D01*
X126393236Y-119335419D01*
X126270324Y-119498181D01*
X126179418Y-119680748D01*
X126123602Y-119876916D01*
X126104785Y-120080000D01*
X126123602Y-120283083D01*
X126179418Y-120479251D01*
X126270324Y-120661818D01*
X126393236Y-120824580D01*
X126543958Y-120961981D01*
X126717361Y-121069347D01*
X126717363Y-121069348D01*
X126907544Y-121143024D01*
X127108024Y-121180500D01*
X127108026Y-121180500D01*
X127311974Y-121180500D01*
X127311976Y-121180500D01*
X127512456Y-121143024D01*
X127702637Y-121069348D01*
X127876041Y-120961981D01*
X128026764Y-120824579D01*
X128149673Y-120661821D01*
X128149673Y-120661819D01*
X128149675Y-120661818D01*
X128213073Y-120534496D01*
X128240582Y-120479250D01*
X128296397Y-120283083D01*
X128315215Y-120080000D01*
X128644785Y-120080000D01*
X128663602Y-120283083D01*
X128719418Y-120479251D01*
X128810324Y-120661818D01*
X128933236Y-120824580D01*
X129083958Y-120961981D01*
X129257361Y-121069347D01*
X129257363Y-121069348D01*
X129447544Y-121143024D01*
X129648024Y-121180500D01*
X129648026Y-121180500D01*
X129851974Y-121180500D01*
X129851976Y-121180500D01*
X130052456Y-121143024D01*
X130242637Y-121069348D01*
X130416041Y-120961981D01*
X130566764Y-120824579D01*
X130689673Y-120661821D01*
X130689673Y-120661819D01*
X130689675Y-120661818D01*
X130753073Y-120534496D01*
X130780582Y-120479250D01*
X130836397Y-120283083D01*
X130855215Y-120080000D01*
X130836397Y-119876917D01*
X130780582Y-119680750D01*
X130780209Y-119680001D01*
X130689675Y-119498181D01*
X130566763Y-119335419D01*
X130416041Y-119198018D01*
X130242638Y-119090652D01*
X130052457Y-119016976D01*
X129985629Y-119004483D01*
X129851976Y-118979500D01*
X129648024Y-118979500D01*
X129547783Y-118998238D01*
X129447542Y-119016976D01*
X129257361Y-119090652D01*
X129083958Y-119198018D01*
X128933236Y-119335419D01*
X128810324Y-119498181D01*
X128719418Y-119680748D01*
X128663602Y-119876916D01*
X128644785Y-120080000D01*
X128315215Y-120080000D01*
X128296397Y-119876917D01*
X128240582Y-119680750D01*
X128240209Y-119680001D01*
X128149675Y-119498181D01*
X128026763Y-119335419D01*
X127876041Y-119198018D01*
X127702640Y-119090653D01*
X127683382Y-119083192D01*
X127621712Y-119059301D01*
X127566313Y-119016730D01*
X127542722Y-118950963D01*
X127558433Y-118882883D01*
X127608457Y-118834104D01*
X127634416Y-118823901D01*
X127673490Y-118813431D01*
X127887576Y-118713600D01*
X128081081Y-118578106D01*
X128248106Y-118411081D01*
X128383600Y-118217576D01*
X128483431Y-118003491D01*
X128492407Y-117969991D01*
X128528771Y-117910330D01*
X128591617Y-117879800D01*
X128660993Y-117888094D01*
X128714872Y-117932579D01*
X128723182Y-117946811D01*
X128810326Y-118121820D01*
X128933236Y-118284580D01*
X129083958Y-118421981D01*
X129225307Y-118509500D01*
X129257363Y-118529348D01*
X129447544Y-118603024D01*
X129648024Y-118640500D01*
X129648026Y-118640500D01*
X129851974Y-118640500D01*
X129851976Y-118640500D01*
X130052456Y-118603024D01*
X130242637Y-118529348D01*
X130416041Y-118421981D01*
X130566764Y-118284579D01*
X130689673Y-118121821D01*
X130689673Y-118121819D01*
X130689675Y-118121818D01*
X130776817Y-117946811D01*
X130780582Y-117939250D01*
X130836397Y-117743083D01*
X130855215Y-117540000D01*
X130836397Y-117336917D01*
X130834473Y-117330156D01*
X130814200Y-117258904D01*
X130780582Y-117140750D01*
X130748593Y-117076507D01*
X130689675Y-116958181D01*
X130566763Y-116795419D01*
X130416041Y-116658018D01*
X130242638Y-116550652D01*
X130171751Y-116523191D01*
X130085109Y-116489626D01*
X130029709Y-116447054D01*
X130006118Y-116381288D01*
X130021829Y-116313207D01*
X130071853Y-116264428D01*
X130129904Y-116250000D01*
X131688897Y-116250000D01*
X131755936Y-116269685D01*
X131787226Y-116298453D01*
X135264616Y-120824580D01*
X146597005Y-135574674D01*
X147500000Y-136750000D01*
X169876000Y-136750000D01*
X169943039Y-136769685D01*
X169988794Y-136822489D01*
X170000000Y-136874000D01*
X170000000Y-141070500D01*
X169980315Y-141137539D01*
X169927511Y-141183294D01*
X169876000Y-141194500D01*
X122718095Y-141194500D01*
X122705939Y-141193903D01*
X122676743Y-141191027D01*
X122634474Y-141186264D01*
X122566262Y-141178579D01*
X122544170Y-141174022D01*
X122493439Y-141158632D01*
X122488482Y-141157014D01*
X122411882Y-141130211D01*
X122394384Y-141122528D01*
X122368547Y-141108718D01*
X122343007Y-141095066D01*
X122335493Y-141090705D01*
X122271055Y-141050215D01*
X122258364Y-141041076D01*
X122212087Y-141003098D01*
X122203070Y-140994925D01*
X122150073Y-140941928D01*
X122141900Y-140932911D01*
X122103922Y-140886634D01*
X122094783Y-140873943D01*
X122080595Y-140851364D01*
X122054282Y-140809487D01*
X122049942Y-140802011D01*
X122022467Y-140750607D01*
X122014794Y-140733132D01*
X121987972Y-140656482D01*
X121986366Y-140651559D01*
X121970978Y-140600834D01*
X121966419Y-140578728D01*
X121953978Y-140468314D01*
X121951088Y-140438978D01*
X121950500Y-140426952D01*
X121950500Y-138722764D01*
X134065787Y-138722764D01*
X134095413Y-138992016D01*
X134129998Y-139124304D01*
X134163928Y-139254088D01*
X134269870Y-139503390D01*
X134269871Y-139503392D01*
X134410982Y-139734611D01*
X134584253Y-139942818D01*
X134584255Y-139942820D01*
X134785998Y-140123582D01*
X135011910Y-140273044D01*
X135118211Y-140322876D01*
X135257177Y-140388021D01*
X135516562Y-140466058D01*
X135516569Y-140466060D01*
X135784561Y-140505500D01*
X135784564Y-140505500D01*
X135985369Y-140505500D01*
X135987631Y-140505500D01*
X136190156Y-140490677D01*
X136454553Y-140431780D01*
X136707558Y-140335014D01*
X136943777Y-140202441D01*
X137158177Y-140036888D01*
X137346186Y-139841881D01*
X137503799Y-139621579D01*
X137551051Y-139529674D01*
X148789500Y-139529674D01*
X148804033Y-139602738D01*
X148804033Y-139602739D01*
X148804034Y-139602740D01*
X148859399Y-139685601D01*
X148942260Y-139740966D01*
X148978793Y-139748233D01*
X149015325Y-139755500D01*
X149015326Y-139755500D01*
X150764675Y-139755500D01*
X150789029Y-139750655D01*
X150837740Y-139740966D01*
X150920601Y-139685601D01*
X150975966Y-139602740D01*
X150990500Y-139529674D01*
X150990500Y-138654999D01*
X151324785Y-138654999D01*
X151343602Y-138858083D01*
X151399418Y-139054251D01*
X151490324Y-139236818D01*
X151613236Y-139399580D01*
X151763958Y-139536981D01*
X151937361Y-139644347D01*
X151937363Y-139644348D01*
X152127544Y-139718024D01*
X152328024Y-139755500D01*
X152328026Y-139755500D01*
X152531974Y-139755500D01*
X152531976Y-139755500D01*
X152732456Y-139718024D01*
X152922637Y-139644348D01*
X153096041Y-139536981D01*
X153246764Y-139399579D01*
X153369673Y-139236821D01*
X153369673Y-139236819D01*
X153369675Y-139236818D01*
X153447784Y-139079952D01*
X153460582Y-139054250D01*
X153516397Y-138858083D01*
X153535215Y-138655000D01*
X153535215Y-138654999D01*
X153864785Y-138654999D01*
X153883602Y-138858083D01*
X153939418Y-139054251D01*
X154030324Y-139236818D01*
X154153236Y-139399580D01*
X154303958Y-139536981D01*
X154477361Y-139644347D01*
X154477363Y-139644348D01*
X154667544Y-139718024D01*
X154868024Y-139755500D01*
X154868026Y-139755500D01*
X155071974Y-139755500D01*
X155071976Y-139755500D01*
X155272456Y-139718024D01*
X155462637Y-139644348D01*
X155636041Y-139536981D01*
X155786764Y-139399579D01*
X155909673Y-139236821D01*
X155909673Y-139236819D01*
X155909675Y-139236818D01*
X155987784Y-139079952D01*
X156000582Y-139054250D01*
X156056397Y-138858083D01*
X156075215Y-138655000D01*
X156404785Y-138655000D01*
X156423602Y-138858083D01*
X156479418Y-139054251D01*
X156570324Y-139236818D01*
X156693236Y-139399580D01*
X156843958Y-139536981D01*
X157017361Y-139644347D01*
X157017363Y-139644348D01*
X157207544Y-139718024D01*
X157408024Y-139755500D01*
X157408026Y-139755500D01*
X157611974Y-139755500D01*
X157611976Y-139755500D01*
X157812456Y-139718024D01*
X158002637Y-139644348D01*
X158176041Y-139536981D01*
X158326764Y-139399579D01*
X158449673Y-139236821D01*
X158449673Y-139236819D01*
X158449675Y-139236818D01*
X158527784Y-139079952D01*
X158540582Y-139054250D01*
X158596397Y-138858083D01*
X158615215Y-138655000D01*
X158944785Y-138655000D01*
X158963602Y-138858083D01*
X159019418Y-139054251D01*
X159110324Y-139236818D01*
X159233236Y-139399580D01*
X159383958Y-139536981D01*
X159557361Y-139644347D01*
X159557363Y-139644348D01*
X159747544Y-139718024D01*
X159948024Y-139755500D01*
X159948026Y-139755500D01*
X160151974Y-139755500D01*
X160151976Y-139755500D01*
X160352456Y-139718024D01*
X160542637Y-139644348D01*
X160716041Y-139536981D01*
X160866764Y-139399579D01*
X160989673Y-139236821D01*
X160989673Y-139236819D01*
X160989675Y-139236818D01*
X161067784Y-139079952D01*
X161080582Y-139054250D01*
X161136397Y-138858083D01*
X161155215Y-138655000D01*
X161484785Y-138655000D01*
X161503602Y-138858083D01*
X161559418Y-139054251D01*
X161650324Y-139236818D01*
X161773236Y-139399580D01*
X161923958Y-139536981D01*
X162097361Y-139644347D01*
X162097363Y-139644348D01*
X162287544Y-139718024D01*
X162488024Y-139755500D01*
X162488026Y-139755500D01*
X162691974Y-139755500D01*
X162691976Y-139755500D01*
X162892456Y-139718024D01*
X163082637Y-139644348D01*
X163256041Y-139536981D01*
X163406764Y-139399579D01*
X163529673Y-139236821D01*
X163529673Y-139236819D01*
X163529675Y-139236818D01*
X163607784Y-139079952D01*
X163620582Y-139054250D01*
X163676397Y-138858083D01*
X163695215Y-138655000D01*
X164024785Y-138655000D01*
X164043602Y-138858083D01*
X164099418Y-139054251D01*
X164190324Y-139236818D01*
X164313236Y-139399580D01*
X164463958Y-139536981D01*
X164637361Y-139644347D01*
X164637363Y-139644348D01*
X164827544Y-139718024D01*
X165028024Y-139755500D01*
X165028026Y-139755500D01*
X165231974Y-139755500D01*
X165231976Y-139755500D01*
X165432456Y-139718024D01*
X165622637Y-139644348D01*
X165796041Y-139536981D01*
X165946764Y-139399579D01*
X166069673Y-139236821D01*
X166125699Y-139124305D01*
X166156817Y-139061812D01*
X166204319Y-139010575D01*
X166271982Y-138993153D01*
X166338323Y-139015078D01*
X166382278Y-139069389D01*
X166387592Y-139084989D01*
X166396569Y-139118492D01*
X166496399Y-139332576D01*
X166631893Y-139526081D01*
X166798918Y-139693106D01*
X166992423Y-139828600D01*
X167206509Y-139928430D01*
X167420000Y-139985634D01*
X167420000Y-139090501D01*
X167527685Y-139139680D01*
X167634237Y-139155000D01*
X167705763Y-139155000D01*
X167812315Y-139139680D01*
X167920000Y-139090501D01*
X167920000Y-139985633D01*
X168133490Y-139928430D01*
X168347576Y-139828600D01*
X168541081Y-139693106D01*
X168708106Y-139526081D01*
X168843600Y-139332576D01*
X168943430Y-139118492D01*
X169000636Y-138905000D01*
X168103686Y-138905000D01*
X168129493Y-138864844D01*
X168170000Y-138726889D01*
X168170000Y-138583111D01*
X168129493Y-138445156D01*
X168103686Y-138405000D01*
X169000636Y-138405000D01*
X169000635Y-138404999D01*
X168943430Y-138191507D01*
X168843599Y-137977421D01*
X168708109Y-137783921D01*
X168541081Y-137616893D01*
X168347576Y-137481399D01*
X168133492Y-137381569D01*
X167920000Y-137324364D01*
X167920000Y-138219498D01*
X167812315Y-138170320D01*
X167705763Y-138155000D01*
X167634237Y-138155000D01*
X167527685Y-138170320D01*
X167420000Y-138219498D01*
X167420000Y-137324364D01*
X167419999Y-137324364D01*
X167206507Y-137381569D01*
X166992421Y-137481400D01*
X166798921Y-137616890D01*
X166631890Y-137783921D01*
X166496400Y-137977421D01*
X166396567Y-138191511D01*
X166387591Y-138225011D01*
X166351226Y-138284671D01*
X166288378Y-138315199D01*
X166219003Y-138306904D01*
X166165126Y-138262418D01*
X166156817Y-138248187D01*
X166069675Y-138073181D01*
X165946763Y-137910419D01*
X165796041Y-137773018D01*
X165622638Y-137665652D01*
X165432457Y-137591976D01*
X165343728Y-137575390D01*
X165231976Y-137554500D01*
X165028024Y-137554500D01*
X164950279Y-137569033D01*
X164827542Y-137591976D01*
X164637361Y-137665652D01*
X164463958Y-137773018D01*
X164313236Y-137910419D01*
X164190324Y-138073181D01*
X164099418Y-138255748D01*
X164043602Y-138451916D01*
X164024785Y-138655000D01*
X163695215Y-138655000D01*
X163676397Y-138451917D01*
X163674473Y-138445156D01*
X163654200Y-138373904D01*
X163620582Y-138255750D01*
X163585699Y-138185695D01*
X163529675Y-138073181D01*
X163406763Y-137910419D01*
X163256041Y-137773018D01*
X163082638Y-137665652D01*
X162892457Y-137591976D01*
X162803728Y-137575390D01*
X162691976Y-137554500D01*
X162488024Y-137554500D01*
X162410279Y-137569033D01*
X162287542Y-137591976D01*
X162097361Y-137665652D01*
X161923958Y-137773018D01*
X161773236Y-137910419D01*
X161650324Y-138073181D01*
X161559418Y-138255748D01*
X161503602Y-138451916D01*
X161484785Y-138655000D01*
X161155215Y-138655000D01*
X161136397Y-138451917D01*
X161134473Y-138445156D01*
X161114200Y-138373904D01*
X161080582Y-138255750D01*
X161045699Y-138185695D01*
X160989675Y-138073181D01*
X160866763Y-137910419D01*
X160716041Y-137773018D01*
X160542638Y-137665652D01*
X160352457Y-137591976D01*
X160263728Y-137575390D01*
X160151976Y-137554500D01*
X159948024Y-137554500D01*
X159870279Y-137569033D01*
X159747542Y-137591976D01*
X159557361Y-137665652D01*
X159383958Y-137773018D01*
X159233236Y-137910419D01*
X159110324Y-138073181D01*
X159019418Y-138255748D01*
X158963602Y-138451916D01*
X158944785Y-138655000D01*
X158615215Y-138655000D01*
X158596397Y-138451917D01*
X158594473Y-138445156D01*
X158574200Y-138373904D01*
X158540582Y-138255750D01*
X158505699Y-138185695D01*
X158449675Y-138073181D01*
X158326763Y-137910419D01*
X158176041Y-137773018D01*
X158002638Y-137665652D01*
X157812457Y-137591976D01*
X157723728Y-137575390D01*
X157611976Y-137554500D01*
X157408024Y-137554500D01*
X157330279Y-137569033D01*
X157207542Y-137591976D01*
X157017361Y-137665652D01*
X156843958Y-137773018D01*
X156693236Y-137910419D01*
X156570324Y-138073181D01*
X156479418Y-138255748D01*
X156423602Y-138451916D01*
X156404785Y-138655000D01*
X156075215Y-138655000D01*
X156056397Y-138451917D01*
X156054473Y-138445156D01*
X156034200Y-138373904D01*
X156000582Y-138255750D01*
X155965699Y-138185695D01*
X155909675Y-138073181D01*
X155786763Y-137910419D01*
X155636041Y-137773018D01*
X155462638Y-137665652D01*
X155272457Y-137591976D01*
X155183728Y-137575390D01*
X155071976Y-137554500D01*
X154868024Y-137554500D01*
X154790279Y-137569033D01*
X154667542Y-137591976D01*
X154477361Y-137665652D01*
X154303958Y-137773018D01*
X154153236Y-137910419D01*
X154030324Y-138073181D01*
X153939418Y-138255748D01*
X153883602Y-138451916D01*
X153864785Y-138654999D01*
X153535215Y-138654999D01*
X153516397Y-138451917D01*
X153514473Y-138445156D01*
X153494200Y-138373904D01*
X153460582Y-138255750D01*
X153425699Y-138185695D01*
X153369675Y-138073181D01*
X153246763Y-137910419D01*
X153096041Y-137773018D01*
X152922638Y-137665652D01*
X152732457Y-137591976D01*
X152643728Y-137575390D01*
X152531976Y-137554500D01*
X152328024Y-137554500D01*
X152250279Y-137569033D01*
X152127542Y-137591976D01*
X151937361Y-137665652D01*
X151763958Y-137773018D01*
X151613236Y-137910419D01*
X151490324Y-138073181D01*
X151399418Y-138255748D01*
X151343602Y-138451916D01*
X151324785Y-138654999D01*
X150990500Y-138654999D01*
X150990500Y-137780326D01*
X150975966Y-137707260D01*
X150920601Y-137624399D01*
X150837740Y-137569034D01*
X150837739Y-137569033D01*
X150837738Y-137569033D01*
X150764675Y-137554500D01*
X150764674Y-137554500D01*
X149015326Y-137554500D01*
X149015325Y-137554500D01*
X148942261Y-137569033D01*
X148859399Y-137624399D01*
X148804033Y-137707261D01*
X148789500Y-137780325D01*
X148789500Y-139529674D01*
X137551051Y-139529674D01*
X137627656Y-139380675D01*
X137715118Y-139124305D01*
X137764319Y-138857933D01*
X137774212Y-138587235D01*
X137744586Y-138317982D01*
X137676072Y-138055912D01*
X137570130Y-137806610D01*
X137454345Y-137616890D01*
X137429017Y-137575388D01*
X137255746Y-137367181D01*
X137150759Y-137273112D01*
X137054002Y-137186418D01*
X136828090Y-137036956D01*
X136828086Y-137036954D01*
X136582822Y-136921978D01*
X136323437Y-136843941D01*
X136323431Y-136843940D01*
X136055439Y-136804500D01*
X135852369Y-136804500D01*
X135850120Y-136804664D01*
X135850109Y-136804665D01*
X135649843Y-136819322D01*
X135385449Y-136878219D01*
X135132441Y-136974986D01*
X134896223Y-137107559D01*
X134681825Y-137273109D01*
X134493813Y-137468120D01*
X134336201Y-137688420D01*
X134212342Y-137929329D01*
X134124881Y-138185695D01*
X134075680Y-138452066D01*
X134065787Y-138722764D01*
X121950500Y-138722764D01*
X121950500Y-135574674D01*
X126874500Y-135574674D01*
X126889033Y-135647738D01*
X126889033Y-135647739D01*
X126889034Y-135647740D01*
X126944399Y-135730601D01*
X127027260Y-135785966D01*
X127063792Y-135793233D01*
X127100325Y-135800500D01*
X127100326Y-135800500D01*
X128949675Y-135800500D01*
X128974029Y-135795655D01*
X129022740Y-135785966D01*
X129105601Y-135730601D01*
X129160966Y-135647740D01*
X129175500Y-135574674D01*
X129175499Y-134806054D01*
X129195185Y-134739015D01*
X129247989Y-134693260D01*
X129317147Y-134683316D01*
X129380703Y-134712341D01*
X129418477Y-134771119D01*
X129422971Y-134794613D01*
X129429243Y-134862310D01*
X129487595Y-135067390D01*
X129582631Y-135258252D01*
X129711126Y-135428405D01*
X129711128Y-135428407D01*
X129868698Y-135572052D01*
X130049981Y-135684298D01*
X130248802Y-135761321D01*
X130458390Y-135800500D01*
X130458392Y-135800500D01*
X130671608Y-135800500D01*
X130671610Y-135800500D01*
X130881198Y-135761321D01*
X131080019Y-135684298D01*
X131261302Y-135572052D01*
X131418872Y-135428407D01*
X131547366Y-135258255D01*
X131547366Y-135258253D01*
X131547368Y-135258252D01*
X131613785Y-135124866D01*
X131642405Y-135067389D01*
X131700756Y-134862310D01*
X131720429Y-134650000D01*
X131700756Y-134437690D01*
X131642405Y-134232611D01*
X131631503Y-134210717D01*
X131547368Y-134041747D01*
X131418873Y-133871594D01*
X131261301Y-133727947D01*
X131080017Y-133615701D01*
X130881198Y-133538679D01*
X130671610Y-133499500D01*
X130458390Y-133499500D01*
X130318664Y-133525619D01*
X130248801Y-133538679D01*
X130049982Y-133615701D01*
X129868698Y-133727947D01*
X129711126Y-133871594D01*
X129582631Y-134041747D01*
X129487595Y-134232609D01*
X129429243Y-134437689D01*
X129422971Y-134505386D01*
X129397185Y-134570323D01*
X129340385Y-134611011D01*
X129270604Y-134614531D01*
X129209997Y-134579766D01*
X129177807Y-134517753D01*
X129175500Y-134493945D01*
X129175500Y-133725325D01*
X129168233Y-133688792D01*
X129160966Y-133652260D01*
X129105601Y-133569399D01*
X129022740Y-133514034D01*
X129022739Y-133514033D01*
X129022738Y-133514033D01*
X128949675Y-133499500D01*
X128949674Y-133499500D01*
X127100326Y-133499500D01*
X127100325Y-133499500D01*
X127027261Y-133514033D01*
X126944399Y-133569399D01*
X126889033Y-133652261D01*
X126874500Y-133725325D01*
X126874500Y-135574674D01*
X121950500Y-135574674D01*
X121950500Y-116373999D01*
X121970185Y-116306961D01*
X122022989Y-116261206D01*
X122074500Y-116250000D01*
X126305381Y-116250000D01*
X126372420Y-116269685D01*
G37*
%TD.AperFunction*%
%TD*%
%TA.AperFunction,Conductor*%
%TO.N,+3V3*%
G36*
X145245182Y-95860185D02*
G01*
X145290937Y-95912989D01*
X145300881Y-95982147D01*
X145271856Y-96045703D01*
X145245183Y-96068814D01*
X145241094Y-96071443D01*
X145168869Y-96117858D01*
X145074623Y-96226625D01*
X145014834Y-96357542D01*
X144994353Y-96500000D01*
X145014834Y-96642457D01*
X145074623Y-96773374D01*
X145168870Y-96882141D01*
X145168872Y-96882143D01*
X145289947Y-96959953D01*
X145428039Y-97000500D01*
X145571961Y-97000500D01*
X145710053Y-96959953D01*
X145831128Y-96882143D01*
X145831127Y-96882143D01*
X145846127Y-96872504D01*
X145846359Y-96872866D01*
X145888904Y-96845523D01*
X145923841Y-96840500D01*
X145965162Y-96840500D01*
X146032201Y-96860185D01*
X146077956Y-96912989D01*
X146081338Y-96921152D01*
X146103372Y-96980226D01*
X146103373Y-96980228D01*
X146185312Y-97089687D01*
X146258842Y-97144730D01*
X146294774Y-97171628D01*
X146422886Y-97219412D01*
X146479515Y-97225500D01*
X147020484Y-97225499D01*
X147077114Y-97219412D01*
X147205226Y-97171628D01*
X147286802Y-97110560D01*
X147352266Y-97086144D01*
X147420539Y-97100996D01*
X147466650Y-97144730D01*
X147502427Y-97202733D01*
X147622267Y-97322573D01*
X147766513Y-97411546D01*
X147927393Y-97464856D01*
X148023536Y-97474678D01*
X148029851Y-97474999D01*
X148050000Y-97474999D01*
X148050000Y-96750000D01*
X148550000Y-96750000D01*
X148550000Y-97474999D01*
X148570165Y-97474999D01*
X148576447Y-97474678D01*
X148672605Y-97464856D01*
X148833486Y-97411546D01*
X148977732Y-97322573D01*
X149097573Y-97202732D01*
X149186546Y-97058486D01*
X149239856Y-96897606D01*
X149249680Y-96801445D01*
X149250000Y-96795167D01*
X149250000Y-96750000D01*
X148550000Y-96750000D01*
X148050000Y-96750000D01*
X148050000Y-96374000D01*
X148069685Y-96306961D01*
X148122489Y-96261206D01*
X148174000Y-96250000D01*
X149249999Y-96250000D01*
X149249999Y-96204834D01*
X149249678Y-96198552D01*
X149239856Y-96102394D01*
X149207087Y-96003504D01*
X149204685Y-95933676D01*
X149240417Y-95873634D01*
X149302937Y-95842441D01*
X149324793Y-95840500D01*
X150243745Y-95840500D01*
X150310784Y-95860185D01*
X150356539Y-95912989D01*
X150366483Y-95982147D01*
X150337458Y-96045703D01*
X150331426Y-96052181D01*
X150271950Y-96111656D01*
X150214353Y-96224697D01*
X150199500Y-96318478D01*
X150199500Y-96681514D01*
X150199501Y-96681518D01*
X150214354Y-96775304D01*
X150214354Y-96775305D01*
X150214355Y-96775306D01*
X150271949Y-96888342D01*
X150361656Y-96978049D01*
X150361658Y-96978050D01*
X150474696Y-97035646D01*
X150568481Y-97050500D01*
X151656518Y-97050499D01*
X151750304Y-97035646D01*
X151863342Y-96978050D01*
X151953050Y-96888342D01*
X151960593Y-96873539D01*
X151965515Y-96863879D01*
X152013489Y-96813082D01*
X152081310Y-96796287D01*
X152147445Y-96818824D01*
X152190897Y-96873539D01*
X152200000Y-96920173D01*
X152200000Y-97617496D01*
X152180315Y-97684535D01*
X152127511Y-97730290D01*
X152058353Y-97740234D01*
X152012879Y-97724228D01*
X151885197Y-97648717D01*
X151727493Y-97602900D01*
X151693076Y-97600191D01*
X151688197Y-97600000D01*
X151362500Y-97600000D01*
X151362500Y-99200000D01*
X151688197Y-99200000D01*
X151693076Y-99199808D01*
X151727493Y-99197099D01*
X151885195Y-99151283D01*
X152012878Y-99075771D01*
X152080602Y-99058588D01*
X152146865Y-99080748D01*
X152190628Y-99135213D01*
X152200000Y-99182503D01*
X152200000Y-105647199D01*
X152180315Y-105714238D01*
X152179809Y-105715020D01*
X152052753Y-105909493D01*
X152030374Y-105960512D01*
X151959986Y-106120981D01*
X151937410Y-106210134D01*
X151903294Y-106344855D01*
X151884223Y-106574999D01*
X151903294Y-106805144D01*
X151903294Y-106805147D01*
X151903295Y-106805149D01*
X151959986Y-107029019D01*
X152052753Y-107240506D01*
X152179064Y-107433839D01*
X152179065Y-107433840D01*
X152179808Y-107434977D01*
X152199996Y-107501867D01*
X152200000Y-107502799D01*
X152200000Y-108271000D01*
X152180315Y-108338039D01*
X152127511Y-108383794D01*
X152076000Y-108395000D01*
X136074000Y-108395000D01*
X136006961Y-108375315D01*
X135961206Y-108322511D01*
X135950000Y-108271000D01*
X135950000Y-106864500D01*
X135969685Y-106797461D01*
X136022489Y-106751706D01*
X136074000Y-106740500D01*
X136284723Y-106740500D01*
X136295530Y-106740971D01*
X136335134Y-106744437D01*
X136373533Y-106734148D01*
X136384090Y-106731806D01*
X136423254Y-106724902D01*
X136423254Y-106724901D01*
X136423917Y-106724785D01*
X136450572Y-106713744D01*
X136483692Y-106690552D01*
X136492794Y-106684751D01*
X136527246Y-106664862D01*
X136552817Y-106634386D01*
X136560092Y-106626446D01*
X136684049Y-106502489D01*
X136745366Y-106469008D01*
X136815058Y-106473992D01*
X136815059Y-106473992D01*
X136867628Y-106493599D01*
X136923867Y-106499645D01*
X136930482Y-106500000D01*
X136975000Y-106500000D01*
X136975000Y-106039402D01*
X136975500Y-106034329D01*
X137374500Y-106034329D01*
X137375000Y-106039402D01*
X137375000Y-106500000D01*
X137419518Y-106500000D01*
X137426132Y-106499645D01*
X137482371Y-106493599D01*
X137617089Y-106443352D01*
X137732189Y-106357188D01*
X137774859Y-106300189D01*
X137830793Y-106258318D01*
X137874126Y-106250500D01*
X138049675Y-106250500D01*
X138074029Y-106245655D01*
X138122740Y-106235966D01*
X138205601Y-106180601D01*
X138260966Y-106097740D01*
X138275500Y-106024674D01*
X138275500Y-104875326D01*
X138260966Y-104802260D01*
X138260965Y-104802259D01*
X138256154Y-104778070D01*
X138258949Y-104777513D01*
X138250879Y-104751749D01*
X138269356Y-104684367D01*
X138321329Y-104637670D01*
X138339922Y-104630544D01*
X138410053Y-104609953D01*
X138531128Y-104532143D01*
X138625377Y-104423373D01*
X138685165Y-104292457D01*
X138705647Y-104150000D01*
X138685165Y-104007543D01*
X138648211Y-103926627D01*
X138625376Y-103876625D01*
X138531129Y-103767858D01*
X138531128Y-103767857D01*
X138410053Y-103690047D01*
X138271961Y-103649500D01*
X138128039Y-103649500D01*
X137989947Y-103690047D01*
X137868870Y-103767858D01*
X137774623Y-103876625D01*
X137714834Y-104007542D01*
X137696178Y-104137303D01*
X137667153Y-104200859D01*
X137661121Y-104207337D01*
X137598570Y-104269888D01*
X137590596Y-104277195D01*
X137560137Y-104302753D01*
X137540259Y-104337183D01*
X137534443Y-104346311D01*
X137533527Y-104347619D01*
X137478947Y-104391240D01*
X137425324Y-104400311D01*
X137419518Y-104400000D01*
X137375000Y-104400000D01*
X137375000Y-104860600D01*
X137374500Y-104865679D01*
X137374500Y-106034329D01*
X136975500Y-106034329D01*
X136975500Y-104865679D01*
X136975000Y-104860600D01*
X136975000Y-104400000D01*
X136930482Y-104400000D01*
X136923867Y-104400354D01*
X136867628Y-104406400D01*
X136732910Y-104456647D01*
X136617810Y-104542811D01*
X136575141Y-104599811D01*
X136519207Y-104641682D01*
X136475874Y-104649500D01*
X136437890Y-104649500D01*
X136370851Y-104629815D01*
X136325096Y-104577011D01*
X136315152Y-104507853D01*
X136325096Y-104473988D01*
X136333016Y-104456647D01*
X136385165Y-104342457D01*
X136405647Y-104200000D01*
X136385165Y-104057543D01*
X136325377Y-103926627D01*
X136325376Y-103926626D01*
X136325376Y-103926625D01*
X136231129Y-103817858D01*
X136231128Y-103817857D01*
X136153326Y-103767857D01*
X136110052Y-103740046D01*
X136039065Y-103719203D01*
X135980287Y-103681428D01*
X135951262Y-103617873D01*
X135950000Y-103600226D01*
X135950000Y-101445000D01*
X136225001Y-101445000D01*
X136225001Y-101523753D01*
X136225256Y-101529389D01*
X136231408Y-101597104D01*
X136281981Y-101759397D01*
X136369925Y-101904875D01*
X136490124Y-102025074D01*
X136635603Y-102113019D01*
X136797893Y-102163590D01*
X136865620Y-102169745D01*
X136871238Y-102169999D01*
X136874999Y-102169998D01*
X136875000Y-102169998D01*
X136875000Y-101445000D01*
X136225001Y-101445000D01*
X135950000Y-101445000D01*
X135950000Y-100945000D01*
X136225000Y-100945000D01*
X136875000Y-100945000D01*
X136875000Y-100220000D01*
X136874999Y-100219999D01*
X136871228Y-100220000D01*
X136865628Y-100220255D01*
X136797895Y-100226408D01*
X136635602Y-100276981D01*
X136490124Y-100364925D01*
X136369925Y-100485124D01*
X136281980Y-100630603D01*
X136231409Y-100792893D01*
X136225255Y-100860615D01*
X136225000Y-100866244D01*
X136225000Y-100945000D01*
X135950000Y-100945000D01*
X135950000Y-98970000D01*
X136250001Y-98970000D01*
X136250001Y-99048753D01*
X136250256Y-99054389D01*
X136256408Y-99122104D01*
X136306981Y-99284397D01*
X136394925Y-99429875D01*
X136515124Y-99550074D01*
X136660603Y-99638019D01*
X136822893Y-99688590D01*
X136890620Y-99694745D01*
X136896238Y-99694999D01*
X136899999Y-99694998D01*
X136900000Y-99694998D01*
X136900000Y-98970000D01*
X136250001Y-98970000D01*
X135950000Y-98970000D01*
X135950000Y-98582901D01*
X135969685Y-98515862D01*
X135986313Y-98495226D01*
X136043091Y-98438448D01*
X136104410Y-98404965D01*
X136174102Y-98409949D01*
X136218450Y-98438450D01*
X136250000Y-98470000D01*
X136900000Y-98470000D01*
X136900000Y-97740047D01*
X136872468Y-97689634D01*
X136877447Y-97619942D01*
X136905947Y-97575592D01*
X138104721Y-96376818D01*
X138166044Y-96343334D01*
X138192402Y-96340500D01*
X140166075Y-96340500D01*
X140233114Y-96360185D01*
X140278869Y-96412989D01*
X140288813Y-96482147D01*
X140259788Y-96545703D01*
X140253756Y-96552181D01*
X138847756Y-97958181D01*
X138786433Y-97991666D01*
X138760075Y-97994500D01*
X138545734Y-97994500D01*
X138542861Y-97994769D01*
X138542848Y-97994770D01*
X138515303Y-97997353D01*
X138387115Y-98042207D01*
X138277850Y-98122848D01*
X138215741Y-98207003D01*
X138160093Y-98249254D01*
X138090437Y-98254712D01*
X138028888Y-98221644D01*
X137997586Y-98170259D01*
X137993019Y-98155603D01*
X137905074Y-98010124D01*
X137784875Y-97889925D01*
X137639396Y-97801980D01*
X137477106Y-97751409D01*
X137409384Y-97745255D01*
X137403756Y-97745000D01*
X137400000Y-97745000D01*
X137400000Y-99694999D01*
X137403753Y-99694999D01*
X137409389Y-99694743D01*
X137477104Y-99688591D01*
X137639397Y-99638018D01*
X137784875Y-99550074D01*
X137905074Y-99429875D01*
X137993017Y-99284399D01*
X137997585Y-99269741D01*
X138036321Y-99211593D01*
X138100346Y-99183617D01*
X138169332Y-99194698D01*
X138215741Y-99232996D01*
X138277849Y-99317150D01*
X138387115Y-99397792D01*
X138387118Y-99397793D01*
X138515301Y-99442646D01*
X138545734Y-99445500D01*
X138548627Y-99445500D01*
X139051373Y-99445500D01*
X139054266Y-99445500D01*
X139084699Y-99442646D01*
X139212882Y-99397793D01*
X139212882Y-99397792D01*
X139212884Y-99397792D01*
X139322150Y-99317150D01*
X139402792Y-99207884D01*
X139407406Y-99194698D01*
X139447646Y-99079699D01*
X139450500Y-99049266D01*
X139450500Y-98390734D01*
X139447646Y-98360301D01*
X139443858Y-98349478D01*
X139440296Y-98279701D01*
X139473217Y-98220844D01*
X141317243Y-96376819D01*
X141378567Y-96343334D01*
X141404925Y-96340500D01*
X141629791Y-96340500D01*
X141629792Y-96340500D01*
X141676970Y-96332181D01*
X141746407Y-96339925D01*
X141800636Y-96383981D01*
X141822439Y-96450362D01*
X141811295Y-96505809D01*
X141764834Y-96607542D01*
X141744353Y-96749999D01*
X141764834Y-96892457D01*
X141824623Y-97023374D01*
X141891883Y-97100996D01*
X141918872Y-97132143D01*
X142039947Y-97209953D01*
X142057797Y-97215194D01*
X142116575Y-97252968D01*
X142145601Y-97316523D01*
X142135658Y-97385682D01*
X142135245Y-97386575D01*
X142075980Y-97513668D01*
X142070029Y-97558875D01*
X142070028Y-97558882D01*
X142069500Y-97562897D01*
X142069500Y-97566949D01*
X142069500Y-97566950D01*
X142069500Y-97981623D01*
X142049815Y-98048662D01*
X141997905Y-98094005D01*
X141885640Y-98146355D01*
X141867315Y-98164681D01*
X141805992Y-98198166D01*
X141779634Y-98201000D01*
X141354126Y-98201000D01*
X141343319Y-98200528D01*
X141340295Y-98200263D01*
X141307210Y-98197368D01*
X141272195Y-98206751D01*
X141261635Y-98209092D01*
X141224586Y-98215624D01*
X141201386Y-98225234D01*
X141170554Y-98246822D01*
X141161435Y-98252630D01*
X141130052Y-98270749D01*
X141106750Y-98298519D01*
X141099443Y-98306492D01*
X138972756Y-100433181D01*
X138911433Y-100466666D01*
X138885075Y-100469500D01*
X138520734Y-100469500D01*
X138517861Y-100469769D01*
X138517848Y-100469770D01*
X138490303Y-100472353D01*
X138362115Y-100517207D01*
X138252850Y-100597848D01*
X138190741Y-100682003D01*
X138135093Y-100724254D01*
X138065437Y-100729712D01*
X138003888Y-100696644D01*
X137972586Y-100645259D01*
X137968019Y-100630603D01*
X137880074Y-100485124D01*
X137759875Y-100364925D01*
X137614396Y-100276980D01*
X137452106Y-100226409D01*
X137384384Y-100220255D01*
X137378756Y-100220000D01*
X137375000Y-100220000D01*
X137375000Y-102169999D01*
X137378753Y-102169999D01*
X137384389Y-102169743D01*
X137465212Y-102162401D01*
X137465324Y-102163640D01*
X137521054Y-102162718D01*
X137580449Y-102199514D01*
X137610522Y-102262581D01*
X137610831Y-102264610D01*
X137614834Y-102292457D01*
X137674623Y-102423374D01*
X137768870Y-102532141D01*
X137768872Y-102532143D01*
X137889947Y-102609953D01*
X138028039Y-102650500D01*
X138171961Y-102650500D01*
X138310053Y-102609953D01*
X138431128Y-102532143D01*
X138525377Y-102423373D01*
X138585165Y-102292457D01*
X138605647Y-102150000D01*
X138593016Y-102062146D01*
X138602960Y-101992988D01*
X138648715Y-101940184D01*
X138715754Y-101920500D01*
X139026373Y-101920500D01*
X139029266Y-101920500D01*
X139059699Y-101917646D01*
X139187882Y-101872793D01*
X139187882Y-101872792D01*
X139187884Y-101872792D01*
X139297150Y-101792150D01*
X139377792Y-101682884D01*
X139377793Y-101682882D01*
X139422646Y-101554699D01*
X139425500Y-101524266D01*
X139425500Y-100919924D01*
X139445185Y-100852886D01*
X139461819Y-100832244D01*
X141428744Y-98865319D01*
X141490067Y-98831834D01*
X141516425Y-98829000D01*
X141549770Y-98829000D01*
X141616809Y-98848685D01*
X141662564Y-98901489D01*
X141672508Y-98970647D01*
X141648146Y-99028487D01*
X141569317Y-99131217D01*
X141510121Y-99274130D01*
X141501448Y-99339999D01*
X141501449Y-99340000D01*
X141790634Y-99340000D01*
X141857673Y-99359685D01*
X141878315Y-99376319D01*
X141885639Y-99383643D01*
X141885640Y-99383643D01*
X141885641Y-99383644D01*
X141993670Y-99434019D01*
X142042897Y-99440500D01*
X142321001Y-99440499D01*
X142388039Y-99460183D01*
X142433794Y-99512987D01*
X142445000Y-99564499D01*
X142445000Y-99566000D01*
X142425315Y-99633039D01*
X142372511Y-99678794D01*
X142321000Y-99690000D01*
X141501451Y-99690000D01*
X141501449Y-99690001D01*
X141510119Y-99755866D01*
X141569318Y-99898783D01*
X141663490Y-100021509D01*
X141786217Y-100115682D01*
X141929131Y-100174878D01*
X141961684Y-100179164D01*
X142025581Y-100207430D01*
X142064053Y-100265754D01*
X142069500Y-100302102D01*
X142069500Y-100463046D01*
X142069500Y-100463061D01*
X142069501Y-100467102D01*
X142070028Y-100471111D01*
X142070029Y-100471115D01*
X142075981Y-100516331D01*
X142126356Y-100624360D01*
X142210639Y-100708643D01*
X142318670Y-100759019D01*
X142363863Y-100764969D01*
X142363864Y-100764969D01*
X142367897Y-100765500D01*
X142371678Y-100765499D01*
X142437226Y-100789502D01*
X142479431Y-100845185D01*
X142484832Y-100914845D01*
X142451714Y-100976367D01*
X142398445Y-101008189D01*
X142289947Y-101040046D01*
X142168870Y-101117858D01*
X142074623Y-101226625D01*
X142014834Y-101357542D01*
X141994353Y-101500000D01*
X142014834Y-101642457D01*
X142074623Y-101773374D01*
X142134613Y-101842606D01*
X142168872Y-101882143D01*
X142289947Y-101959953D01*
X142428039Y-102000500D01*
X142571961Y-102000500D01*
X142710053Y-101959953D01*
X142831128Y-101882143D01*
X142872372Y-101834543D01*
X142894956Y-101814176D01*
X142928692Y-101790552D01*
X142937794Y-101784751D01*
X142972246Y-101764862D01*
X142997817Y-101734385D01*
X143005103Y-101726435D01*
X143221436Y-101510102D01*
X143229388Y-101502815D01*
X143259862Y-101477246D01*
X143279751Y-101442794D01*
X143285543Y-101433703D01*
X143308358Y-101401122D01*
X143308358Y-101401119D01*
X143308744Y-101400569D01*
X143319783Y-101373921D01*
X143319899Y-101373257D01*
X143319902Y-101373254D01*
X143326811Y-101334065D01*
X143329142Y-101323553D01*
X143339437Y-101285134D01*
X143335972Y-101245525D01*
X143335500Y-101234718D01*
X143335500Y-100889499D01*
X143355185Y-100822460D01*
X143407989Y-100776705D01*
X143459497Y-100765499D01*
X143530501Y-100765499D01*
X143597539Y-100785184D01*
X143643294Y-100837988D01*
X143654500Y-100889499D01*
X143654500Y-101224721D01*
X143654028Y-101235529D01*
X143650562Y-101275134D01*
X143660851Y-101313533D01*
X143663192Y-101324092D01*
X143670213Y-101363913D01*
X143681256Y-101390573D01*
X143704451Y-101423698D01*
X143710263Y-101432822D01*
X143730845Y-101468471D01*
X143746196Y-101512824D01*
X143764834Y-101642457D01*
X143824623Y-101773374D01*
X143884613Y-101842606D01*
X143918872Y-101882143D01*
X144039947Y-101959953D01*
X144178039Y-102000500D01*
X144321961Y-102000500D01*
X144460053Y-101959953D01*
X144581128Y-101882143D01*
X144675377Y-101773373D01*
X144735165Y-101642457D01*
X144755647Y-101500000D01*
X145744353Y-101500000D01*
X145764834Y-101642457D01*
X145824623Y-101773374D01*
X145884613Y-101842606D01*
X145918872Y-101882143D01*
X146039947Y-101959953D01*
X146178039Y-102000500D01*
X146321961Y-102000500D01*
X146460053Y-101959953D01*
X146581128Y-101882143D01*
X146588399Y-101873750D01*
X146647174Y-101835975D01*
X146717044Y-101835972D01*
X146775824Y-101873744D01*
X146798295Y-101911615D01*
X146803372Y-101925226D01*
X146885312Y-102034687D01*
X146921994Y-102062146D01*
X146994774Y-102116628D01*
X147122886Y-102164412D01*
X147179515Y-102170500D01*
X147720484Y-102170499D01*
X147777114Y-102164412D01*
X147905226Y-102116628D01*
X147986802Y-102055560D01*
X148052266Y-102031144D01*
X148120539Y-102045996D01*
X148166650Y-102089730D01*
X148202427Y-102147733D01*
X148322267Y-102267573D01*
X148466513Y-102356546D01*
X148627393Y-102409856D01*
X148723536Y-102419678D01*
X148729851Y-102419999D01*
X148750000Y-102419999D01*
X148750000Y-101695000D01*
X149250000Y-101695000D01*
X149250000Y-102419999D01*
X149270165Y-102419999D01*
X149276447Y-102419678D01*
X149372605Y-102409856D01*
X149533486Y-102356546D01*
X149677732Y-102267573D01*
X149797573Y-102147732D01*
X149886546Y-102003486D01*
X149939856Y-101842606D01*
X149949680Y-101746445D01*
X149950000Y-101740167D01*
X149950000Y-101695000D01*
X149250000Y-101695000D01*
X148750000Y-101695000D01*
X148750000Y-100470000D01*
X149250000Y-100470000D01*
X149250000Y-101195000D01*
X149949999Y-101195000D01*
X149949999Y-101149834D01*
X149949678Y-101143552D01*
X149939856Y-101047394D01*
X149886546Y-100886513D01*
X149797573Y-100742267D01*
X149677732Y-100622426D01*
X149533486Y-100533453D01*
X149372606Y-100480143D01*
X149276445Y-100470319D01*
X149270168Y-100470000D01*
X149250000Y-100470000D01*
X148750000Y-100470000D01*
X148729836Y-100470000D01*
X148723550Y-100470321D01*
X148627394Y-100480143D01*
X148466513Y-100533453D01*
X148322267Y-100622426D01*
X148202427Y-100742266D01*
X148166650Y-100800269D01*
X148114701Y-100846993D01*
X148045738Y-100858214D01*
X147986802Y-100834439D01*
X147970800Y-100822460D01*
X147905226Y-100773372D01*
X147882697Y-100764969D01*
X147777116Y-100725588D01*
X147723770Y-100719853D01*
X147723767Y-100719852D01*
X147720485Y-100719500D01*
X147717174Y-100719500D01*
X147182827Y-100719500D01*
X147182808Y-100719500D01*
X147179516Y-100719501D01*
X147176238Y-100719853D01*
X147176225Y-100719854D01*
X147122882Y-100725588D01*
X146994774Y-100773371D01*
X146885312Y-100855312D01*
X146803373Y-100964771D01*
X146803371Y-100964774D01*
X146803372Y-100964774D01*
X146781342Y-101023835D01*
X146739472Y-101079768D01*
X146674007Y-101104184D01*
X146665162Y-101104500D01*
X146596753Y-101104500D01*
X146529714Y-101084815D01*
X146460054Y-101040047D01*
X146321961Y-100999500D01*
X146178039Y-100999500D01*
X146039947Y-101040047D01*
X145918870Y-101117858D01*
X145824623Y-101226625D01*
X145764834Y-101357542D01*
X145744353Y-101500000D01*
X144755647Y-101500000D01*
X144735165Y-101357543D01*
X144719888Y-101324092D01*
X144675376Y-101226625D01*
X144581129Y-101117858D01*
X144581128Y-101117857D01*
X144460053Y-101040047D01*
X144439484Y-101034007D01*
X144424563Y-101029626D01*
X144365786Y-100991850D01*
X144336762Y-100928294D01*
X144335500Y-100910649D01*
X144335500Y-100889499D01*
X144355185Y-100822460D01*
X144407989Y-100776705D01*
X144459497Y-100765499D01*
X144622102Y-100765499D01*
X144671330Y-100759019D01*
X144779359Y-100708644D01*
X144863644Y-100624359D01*
X144914019Y-100516330D01*
X144920500Y-100467103D01*
X144920499Y-100302101D01*
X144940183Y-100235064D01*
X144992987Y-100189309D01*
X145028318Y-100179163D01*
X145060870Y-100174878D01*
X145203783Y-100115681D01*
X145326509Y-100021509D01*
X145420682Y-99898782D01*
X145479878Y-99755869D01*
X145488551Y-99690000D01*
X143939037Y-99690000D01*
X143908000Y-99709685D01*
X143875582Y-99714249D01*
X143876010Y-99714235D01*
X143875396Y-99714275D01*
X143873800Y-99714500D01*
X143871963Y-99714500D01*
X143871947Y-99714500D01*
X143867898Y-99714501D01*
X143844452Y-99717587D01*
X143818665Y-99720981D01*
X143797401Y-99730897D01*
X143728323Y-99741388D01*
X143692595Y-99730896D01*
X143671331Y-99720980D01*
X143626124Y-99715029D01*
X143626118Y-99715028D01*
X143622103Y-99714500D01*
X143618050Y-99714500D01*
X143455580Y-99714500D01*
X143388541Y-99694815D01*
X143342786Y-99642011D01*
X143332842Y-99572853D01*
X143361867Y-99509297D01*
X143420641Y-99471525D01*
X143460053Y-99459953D01*
X143581128Y-99382143D01*
X143675377Y-99273373D01*
X143735165Y-99142457D01*
X143755647Y-99000000D01*
X143735165Y-98857543D01*
X143726546Y-98838671D01*
X143675376Y-98726625D01*
X143581130Y-98617858D01*
X143526735Y-98582901D01*
X143465913Y-98543813D01*
X143420160Y-98491011D01*
X143410216Y-98421853D01*
X143439241Y-98358297D01*
X143498018Y-98320522D01*
X143532951Y-98315499D01*
X143622102Y-98315499D01*
X143671330Y-98309019D01*
X143692595Y-98299102D01*
X143761669Y-98288610D01*
X143797405Y-98299102D01*
X143818670Y-98309019D01*
X143867897Y-98315500D01*
X143871968Y-98315499D01*
X143873142Y-98315577D01*
X143938751Y-98339603D01*
X143963410Y-98363825D01*
X143988490Y-98396509D01*
X144111217Y-98490682D01*
X144117952Y-98493472D01*
X144172356Y-98537312D01*
X144194421Y-98603606D01*
X144194500Y-98608029D01*
X144194500Y-98638045D01*
X144194500Y-98638059D01*
X144194501Y-98642102D01*
X144199222Y-98677968D01*
X144200981Y-98691332D01*
X144210897Y-98712597D01*
X144221388Y-98781675D01*
X144210897Y-98817403D01*
X144200980Y-98838669D01*
X144195029Y-98883872D01*
X144195028Y-98883885D01*
X144194500Y-98887897D01*
X144194500Y-98891945D01*
X144194421Y-98893151D01*
X144170390Y-98958758D01*
X144146175Y-98983409D01*
X144113491Y-99008489D01*
X144019317Y-99131217D01*
X143960121Y-99274130D01*
X143951448Y-99339999D01*
X143951449Y-99340000D01*
X144240634Y-99340000D01*
X144307673Y-99359685D01*
X144328315Y-99376319D01*
X144335639Y-99383643D01*
X144335640Y-99383643D01*
X144335641Y-99383644D01*
X144443670Y-99434019D01*
X144492897Y-99440500D01*
X144947102Y-99440499D01*
X144996330Y-99434019D01*
X145104359Y-99383644D01*
X145105862Y-99382141D01*
X145111685Y-99376319D01*
X145173008Y-99342834D01*
X145199366Y-99340000D01*
X145488549Y-99340000D01*
X145488550Y-99339998D01*
X145479880Y-99274133D01*
X145420681Y-99131216D01*
X145326507Y-99008487D01*
X145293824Y-98983408D01*
X145252622Y-98926980D01*
X145245577Y-98893144D01*
X145245499Y-98891954D01*
X145245499Y-98887898D01*
X145239019Y-98838670D01*
X145229102Y-98817403D01*
X145218610Y-98748329D01*
X145229102Y-98712597D01*
X145239019Y-98691330D01*
X145244460Y-98650000D01*
X149952704Y-98650000D01*
X149952900Y-98652488D01*
X149998719Y-98810200D01*
X150082317Y-98951557D01*
X150198442Y-99067682D01*
X150339802Y-99151282D01*
X150497506Y-99197099D01*
X150531923Y-99199808D01*
X150536803Y-99200000D01*
X150862500Y-99200000D01*
X150862500Y-98650000D01*
X149952704Y-98650000D01*
X145244460Y-98650000D01*
X145245500Y-98642103D01*
X145245499Y-98387898D01*
X145239019Y-98338670D01*
X145188644Y-98230641D01*
X145188643Y-98230640D01*
X145183877Y-98220419D01*
X145156954Y-98171112D01*
X145156074Y-98149999D01*
X149952704Y-98149999D01*
X149952705Y-98150000D01*
X150862500Y-98150000D01*
X150862500Y-97600000D01*
X150536803Y-97600000D01*
X150531923Y-97600191D01*
X150497506Y-97602900D01*
X150339802Y-97648717D01*
X150198442Y-97732317D01*
X150082317Y-97848442D01*
X149998719Y-97989799D01*
X149952900Y-98147511D01*
X149952704Y-98149999D01*
X145156074Y-98149999D01*
X145155181Y-98128568D01*
X145169470Y-98020028D01*
X145170000Y-98011957D01*
X145170000Y-97965000D01*
X144544500Y-97965000D01*
X144477461Y-97945315D01*
X144431706Y-97892511D01*
X144420500Y-97841000D01*
X144420499Y-97566953D01*
X144420499Y-97566950D01*
X144420499Y-97562898D01*
X144414019Y-97513670D01*
X144363644Y-97405641D01*
X144363643Y-97405640D01*
X144363643Y-97405639D01*
X144356319Y-97398315D01*
X144322834Y-97336992D01*
X144320000Y-97310634D01*
X144320000Y-97021450D01*
X144319998Y-97021449D01*
X144254133Y-97030119D01*
X144111214Y-97089319D01*
X143988488Y-97183491D01*
X143963406Y-97216177D01*
X143906977Y-97257379D01*
X143873153Y-97264422D01*
X143871948Y-97264500D01*
X143867898Y-97264501D01*
X143857864Y-97265821D01*
X143818665Y-97270981D01*
X143797401Y-97280897D01*
X143728323Y-97291388D01*
X143692595Y-97280896D01*
X143671331Y-97270980D01*
X143626124Y-97265029D01*
X143626118Y-97265028D01*
X143622103Y-97264500D01*
X143618050Y-97264500D01*
X143433000Y-97264500D01*
X143365961Y-97244815D01*
X143320206Y-97192011D01*
X143309000Y-97140500D01*
X143309000Y-97021448D01*
X144670000Y-97021448D01*
X144670000Y-97615000D01*
X145169999Y-97615000D01*
X145169999Y-97568044D01*
X145169469Y-97559965D01*
X145154879Y-97449133D01*
X145095681Y-97306216D01*
X145001509Y-97183490D01*
X144878782Y-97089317D01*
X144735869Y-97030121D01*
X144670000Y-97021448D01*
X143309000Y-97021448D01*
X143309000Y-96264121D01*
X143309472Y-96253312D01*
X143309762Y-96250000D01*
X143312631Y-96217210D01*
X143303248Y-96182194D01*
X143300907Y-96171635D01*
X143294615Y-96135949D01*
X143294614Y-96135948D01*
X143294374Y-96134584D01*
X143284766Y-96111388D01*
X143278468Y-96102394D01*
X143263181Y-96080562D01*
X143257372Y-96071443D01*
X143255855Y-96068816D01*
X143239249Y-96040051D01*
X143239248Y-96040050D01*
X143231424Y-96026497D01*
X143214954Y-95958597D01*
X143237807Y-95892570D01*
X143292730Y-95849381D01*
X143338813Y-95840500D01*
X145178143Y-95840500D01*
X145245182Y-95860185D01*
G37*
%TD.AperFunction*%
%TD*%
%TA.AperFunction,Conductor*%
%TO.N,+5V*%
G36*
X185465469Y-87750185D02*
G01*
X185486111Y-87766819D01*
X187953181Y-90233888D01*
X187986666Y-90295211D01*
X187989500Y-90321569D01*
X187989500Y-100530368D01*
X187989419Y-100530774D01*
X187989457Y-100554999D01*
X187989576Y-100555283D01*
X187989617Y-100555383D01*
X188000962Y-100566670D01*
X190493181Y-103058888D01*
X190526666Y-103120211D01*
X190529500Y-103146569D01*
X190529500Y-137333429D01*
X190509815Y-137400468D01*
X190493181Y-137421110D01*
X188006995Y-139907295D01*
X188006819Y-139907413D01*
X187989617Y-139924615D01*
X187989457Y-139924997D01*
X187989461Y-139949665D01*
X187989500Y-139949855D01*
X187989500Y-140426904D01*
X187988903Y-140439060D01*
X187986027Y-140468256D01*
X187979883Y-140522787D01*
X187973579Y-140578732D01*
X187969022Y-140600828D01*
X187953632Y-140651559D01*
X187952014Y-140656516D01*
X187925211Y-140733116D01*
X187917528Y-140750614D01*
X187890071Y-140801984D01*
X187885705Y-140809505D01*
X187845215Y-140873943D01*
X187836076Y-140886634D01*
X187798098Y-140932911D01*
X187789925Y-140941928D01*
X187736928Y-140994925D01*
X187727911Y-141003098D01*
X187681634Y-141041076D01*
X187668943Y-141050215D01*
X187604505Y-141090705D01*
X187596984Y-141095071D01*
X187545614Y-141122528D01*
X187528116Y-141130211D01*
X187451516Y-141157014D01*
X187446559Y-141158632D01*
X187395834Y-141174020D01*
X187373721Y-141178580D01*
X187263256Y-141191027D01*
X187255771Y-141191764D01*
X187234003Y-141193908D01*
X187221928Y-141194500D01*
X170637500Y-141194500D01*
X170570461Y-141174815D01*
X170524706Y-141122011D01*
X170513500Y-141070500D01*
X170513500Y-140409269D01*
X170533185Y-140342230D01*
X170585989Y-140296475D01*
X170655147Y-140286531D01*
X170718703Y-140315556D01*
X170725181Y-140321588D01*
X170793312Y-140389719D01*
X170804007Y-140401914D01*
X170823144Y-140426855D01*
X170854520Y-140450930D01*
X170854544Y-140450949D01*
X170929025Y-140508100D01*
X170948168Y-140522789D01*
X171051117Y-140565431D01*
X171093760Y-140583095D01*
X171210774Y-140598499D01*
X171210775Y-140598500D01*
X171249999Y-140603664D01*
X171249999Y-140603663D01*
X171250000Y-140603664D01*
X171281166Y-140599560D01*
X171297351Y-140598500D01*
X173897650Y-140598500D01*
X173913835Y-140599560D01*
X173945000Y-140603664D01*
X173984223Y-140598500D01*
X173984225Y-140598500D01*
X174101240Y-140583095D01*
X174167204Y-140555770D01*
X174186526Y-140547768D01*
X174206627Y-140539441D01*
X174246832Y-140522789D01*
X174339048Y-140452029D01*
X174351648Y-140442361D01*
X174351651Y-140442356D01*
X174371855Y-140426855D01*
X174390996Y-140401908D01*
X174401677Y-140389728D01*
X174796112Y-139995293D01*
X174857433Y-139961810D01*
X174924053Y-139965694D01*
X174955365Y-139976444D01*
X175177431Y-140013500D01*
X175402569Y-140013500D01*
X175624635Y-139976444D01*
X175837574Y-139903342D01*
X176035576Y-139796189D01*
X176213240Y-139657906D01*
X176365722Y-139492268D01*
X176456190Y-139353795D01*
X176509337Y-139308438D01*
X176578569Y-139299014D01*
X176641905Y-139328516D01*
X176663809Y-139353795D01*
X176754278Y-139492268D01*
X176906760Y-139657906D01*
X177084424Y-139796189D01*
X177282426Y-139903342D01*
X177495365Y-139976444D01*
X177717431Y-140013500D01*
X177942569Y-140013500D01*
X178164635Y-139976444D01*
X178377574Y-139903342D01*
X178575576Y-139796189D01*
X178753240Y-139657906D01*
X178905722Y-139492268D01*
X178996190Y-139353795D01*
X179049337Y-139308438D01*
X179118569Y-139299014D01*
X179181905Y-139328516D01*
X179203809Y-139353795D01*
X179294278Y-139492268D01*
X179446760Y-139657906D01*
X179624424Y-139796189D01*
X179822426Y-139903342D01*
X180035365Y-139976444D01*
X180257431Y-140013500D01*
X180482569Y-140013500D01*
X180704635Y-139976444D01*
X180917574Y-139903342D01*
X181115576Y-139796189D01*
X181293240Y-139657906D01*
X181445722Y-139492268D01*
X181536190Y-139353795D01*
X181589337Y-139308438D01*
X181658569Y-139299014D01*
X181721905Y-139328516D01*
X181743809Y-139353795D01*
X181834278Y-139492268D01*
X181986760Y-139657906D01*
X182164424Y-139796189D01*
X182362426Y-139903342D01*
X182575365Y-139976444D01*
X182797431Y-140013500D01*
X183022569Y-140013500D01*
X183244635Y-139976444D01*
X183457574Y-139903342D01*
X183655576Y-139796189D01*
X183833240Y-139657906D01*
X183985722Y-139492268D01*
X184076191Y-139353793D01*
X184129336Y-139308438D01*
X184198567Y-139299014D01*
X184261903Y-139328515D01*
X184283807Y-139353794D01*
X184374275Y-139492265D01*
X184374277Y-139492267D01*
X184374278Y-139492268D01*
X184526760Y-139657906D01*
X184704424Y-139796189D01*
X184902426Y-139903342D01*
X185115365Y-139976444D01*
X185337431Y-140013500D01*
X185562569Y-140013500D01*
X185784635Y-139976444D01*
X185997574Y-139903342D01*
X186195576Y-139796189D01*
X186373240Y-139657906D01*
X186525722Y-139492268D01*
X186648860Y-139303791D01*
X186739296Y-139097616D01*
X186794564Y-138879368D01*
X186813156Y-138655000D01*
X186794564Y-138430632D01*
X186739296Y-138212384D01*
X186648860Y-138006209D01*
X186525722Y-137817732D01*
X186373240Y-137652094D01*
X186195576Y-137513811D01*
X185997574Y-137406658D01*
X185997573Y-137406657D01*
X185997572Y-137406657D01*
X185784636Y-137333556D01*
X185562569Y-137296500D01*
X185337431Y-137296500D01*
X185115363Y-137333556D01*
X184902427Y-137406657D01*
X184704424Y-137513811D01*
X184526760Y-137652094D01*
X184374279Y-137817730D01*
X184283809Y-137956205D01*
X184230662Y-138001561D01*
X184161431Y-138010985D01*
X184098095Y-137981483D01*
X184076191Y-137956205D01*
X184056043Y-137925367D01*
X183985722Y-137817732D01*
X183833240Y-137652094D01*
X183655576Y-137513811D01*
X183457574Y-137406658D01*
X183457573Y-137406657D01*
X183457572Y-137406657D01*
X183244636Y-137333556D01*
X183022569Y-137296500D01*
X182797431Y-137296500D01*
X182575363Y-137333556D01*
X182362427Y-137406657D01*
X182164424Y-137513811D01*
X181986760Y-137652094D01*
X181834279Y-137817730D01*
X181743809Y-137956205D01*
X181690662Y-138001561D01*
X181621431Y-138010985D01*
X181558095Y-137981483D01*
X181536191Y-137956205D01*
X181516043Y-137925367D01*
X181445722Y-137817732D01*
X181293240Y-137652094D01*
X181115576Y-137513811D01*
X180917574Y-137406658D01*
X180917573Y-137406657D01*
X180917572Y-137406657D01*
X180704636Y-137333556D01*
X180482569Y-137296500D01*
X180257431Y-137296500D01*
X180035363Y-137333556D01*
X179822427Y-137406657D01*
X179624424Y-137513811D01*
X179446760Y-137652094D01*
X179294279Y-137817730D01*
X179203809Y-137956205D01*
X179150662Y-138001561D01*
X179081431Y-138010985D01*
X179018095Y-137981483D01*
X178996191Y-137956205D01*
X178976043Y-137925367D01*
X178905722Y-137817732D01*
X178753240Y-137652094D01*
X178575576Y-137513811D01*
X178377574Y-137406658D01*
X178377573Y-137406657D01*
X178377572Y-137406657D01*
X178164636Y-137333556D01*
X177942569Y-137296500D01*
X177717431Y-137296500D01*
X177495363Y-137333556D01*
X177282427Y-137406657D01*
X177084424Y-137513811D01*
X176906760Y-137652094D01*
X176754279Y-137817730D01*
X176663809Y-137956205D01*
X176610662Y-138001561D01*
X176541431Y-138010985D01*
X176478095Y-137981483D01*
X176456191Y-137956205D01*
X176436043Y-137925367D01*
X176365722Y-137817732D01*
X176213240Y-137652094D01*
X176035576Y-137513811D01*
X175837574Y-137406658D01*
X175837573Y-137406657D01*
X175837572Y-137406657D01*
X175624636Y-137333556D01*
X175402569Y-137296500D01*
X175177431Y-137296500D01*
X174955363Y-137333556D01*
X174742427Y-137406657D01*
X174544424Y-137513811D01*
X174366759Y-137652094D01*
X174303548Y-137720759D01*
X174243660Y-137756749D01*
X174173822Y-137754648D01*
X174116207Y-137715123D01*
X174096138Y-137680110D01*
X174071427Y-137613861D01*
X174050889Y-137558796D01*
X174017214Y-137513811D01*
X173963261Y-137441738D01*
X173846203Y-137354110D01*
X173709205Y-137303011D01*
X173651924Y-137296853D01*
X173651918Y-137296852D01*
X173648638Y-137296500D01*
X173645328Y-137296500D01*
X173472500Y-137296500D01*
X173405461Y-137276815D01*
X173359706Y-137224011D01*
X173348500Y-137172500D01*
X173348500Y-136047351D01*
X173349561Y-136031165D01*
X173353664Y-135999999D01*
X173333095Y-135843762D01*
X173328715Y-135833188D01*
X173297847Y-135758665D01*
X173291884Y-135744269D01*
X173272789Y-135698168D01*
X173256723Y-135677230D01*
X173200940Y-135604532D01*
X173200930Y-135604520D01*
X173176855Y-135573144D01*
X173151914Y-135554007D01*
X173139719Y-135543312D01*
X170345279Y-132748872D01*
X172116500Y-132748872D01*
X172116818Y-132751986D01*
X172116819Y-132752002D01*
X172126763Y-132849336D01*
X172180697Y-133012099D01*
X172270716Y-133158042D01*
X172391957Y-133279283D01*
X172391959Y-133279284D01*
X172391960Y-133279285D01*
X172537899Y-133369302D01*
X172619281Y-133396268D01*
X172700663Y-133423236D01*
X172745745Y-133427841D01*
X172801128Y-133433500D01*
X172804275Y-133433500D01*
X173395725Y-133433500D01*
X173398872Y-133433500D01*
X173499336Y-133423236D01*
X173662101Y-133369302D01*
X173808040Y-133279285D01*
X173927507Y-133159817D01*
X173988828Y-133126334D01*
X174015187Y-133123500D01*
X174475729Y-133123500D01*
X174542768Y-133143185D01*
X174563410Y-133159819D01*
X174745759Y-133342168D01*
X174779244Y-133403491D01*
X174777853Y-133461942D01*
X174756575Y-133541352D01*
X174737393Y-133760600D01*
X174756575Y-133979846D01*
X174813538Y-134192437D01*
X174906551Y-134391902D01*
X174906551Y-134391903D01*
X175032787Y-134572187D01*
X175188412Y-134727812D01*
X175368696Y-134854048D01*
X175568163Y-134947061D01*
X175780750Y-135004023D01*
X175999999Y-135023205D01*
X176219248Y-135004023D01*
X176431835Y-134947061D01*
X176631302Y-134854048D01*
X176811586Y-134727812D01*
X176967211Y-134572187D01*
X177093447Y-134391903D01*
X177186460Y-134192436D01*
X177243422Y-133979849D01*
X177262604Y-133760600D01*
X177262604Y-133760599D01*
X181237395Y-133760599D01*
X181256577Y-133979846D01*
X181313540Y-134192437D01*
X181406553Y-134391902D01*
X181406553Y-134391903D01*
X181532789Y-134572187D01*
X181688414Y-134727812D01*
X181868698Y-134854048D01*
X182068165Y-134947061D01*
X182280752Y-135004023D01*
X182426918Y-135016811D01*
X182500000Y-135023205D01*
X182500000Y-135023204D01*
X182500001Y-135023205D01*
X182719250Y-135004023D01*
X182931837Y-134947061D01*
X183131304Y-134854048D01*
X183311588Y-134727812D01*
X183467213Y-134572187D01*
X183593449Y-134391903D01*
X183686462Y-134192436D01*
X183743424Y-133979849D01*
X183762606Y-133760600D01*
X183752297Y-133642764D01*
X186135787Y-133642764D01*
X186165413Y-133912016D01*
X186183147Y-133979849D01*
X186233928Y-134174088D01*
X186339870Y-134423390D01*
X186339871Y-134423392D01*
X186480982Y-134654611D01*
X186570253Y-134761881D01*
X186654255Y-134862820D01*
X186855998Y-135043582D01*
X187081910Y-135193044D01*
X187188211Y-135242876D01*
X187327177Y-135308021D01*
X187586562Y-135386058D01*
X187586569Y-135386060D01*
X187854561Y-135425500D01*
X187854564Y-135425500D01*
X188055369Y-135425500D01*
X188057631Y-135425500D01*
X188260156Y-135410677D01*
X188524553Y-135351780D01*
X188777558Y-135255014D01*
X189013777Y-135122441D01*
X189228177Y-134956888D01*
X189416186Y-134761881D01*
X189573799Y-134541579D01*
X189697656Y-134300675D01*
X189785118Y-134044305D01*
X189834319Y-133777933D01*
X189844212Y-133507235D01*
X189814586Y-133237982D01*
X189746072Y-132975912D01*
X189640130Y-132726610D01*
X189521551Y-132532311D01*
X189499017Y-132495388D01*
X189325746Y-132287181D01*
X189226211Y-132197997D01*
X189124002Y-132106418D01*
X188898090Y-131956956D01*
X188898086Y-131956954D01*
X188652822Y-131841978D01*
X188393437Y-131763941D01*
X188393431Y-131763940D01*
X188125439Y-131724500D01*
X187922369Y-131724500D01*
X187920120Y-131724664D01*
X187920109Y-131724665D01*
X187719843Y-131739322D01*
X187455449Y-131798219D01*
X187202441Y-131894986D01*
X186966223Y-132027559D01*
X186751825Y-132193109D01*
X186563813Y-132388120D01*
X186406201Y-132608420D01*
X186282342Y-132849329D01*
X186194881Y-133105695D01*
X186145680Y-133372066D01*
X186135787Y-133642764D01*
X183752297Y-133642764D01*
X183743424Y-133541351D01*
X183686462Y-133328764D01*
X183593449Y-133129298D01*
X183589389Y-133123500D01*
X183467212Y-132949012D01*
X183311589Y-132793388D01*
X183131304Y-132667152D01*
X182931838Y-132574139D01*
X182719247Y-132517176D01*
X182500000Y-132497994D01*
X182280754Y-132517176D01*
X182068164Y-132574139D01*
X181868697Y-132667152D01*
X181688412Y-132793388D01*
X181532789Y-132949011D01*
X181406553Y-133129296D01*
X181313540Y-133328763D01*
X181256577Y-133541353D01*
X181237395Y-133760599D01*
X177262604Y-133760599D01*
X177243422Y-133541351D01*
X177186460Y-133328764D01*
X177093447Y-133129298D01*
X177089387Y-133123500D01*
X176967210Y-132949012D01*
X176811587Y-132793388D01*
X176631302Y-132667152D01*
X176431836Y-132574139D01*
X176219245Y-132517176D01*
X175999999Y-132497994D01*
X175780749Y-132517176D01*
X175718058Y-132533974D01*
X175648208Y-132532311D01*
X175598285Y-132501880D01*
X175231684Y-132135279D01*
X175220989Y-132123084D01*
X175201853Y-132098145D01*
X175201851Y-132098144D01*
X175201851Y-132098143D01*
X175170464Y-132074058D01*
X175076830Y-132002211D01*
X175016523Y-131977231D01*
X174931238Y-131941905D01*
X174814223Y-131926500D01*
X174814218Y-131926498D01*
X174774999Y-131921335D01*
X174743834Y-131925439D01*
X174727648Y-131926500D01*
X174081477Y-131926500D01*
X174014438Y-131906815D01*
X173975940Y-131867599D01*
X173929285Y-131791960D01*
X173929284Y-131791958D01*
X173925009Y-131787684D01*
X173891522Y-131726362D01*
X173896504Y-131656670D01*
X173925009Y-131612316D01*
X173929285Y-131608040D01*
X174019302Y-131462101D01*
X174073236Y-131299336D01*
X174083500Y-131198872D01*
X174083500Y-131039267D01*
X174103185Y-130972228D01*
X174119814Y-130951591D01*
X174705255Y-130366150D01*
X174766576Y-130332667D01*
X174836268Y-130337651D01*
X174871823Y-130364268D01*
X174873165Y-130362476D01*
X175004495Y-130460788D01*
X175141493Y-130511887D01*
X175141496Y-130511887D01*
X175141498Y-130511888D01*
X175202061Y-130518399D01*
X175205371Y-130518399D01*
X176794627Y-130518399D01*
X176797937Y-130518399D01*
X176858500Y-130511888D01*
X176858502Y-130511887D01*
X176858504Y-130511887D01*
X176936423Y-130482823D01*
X176995503Y-130460788D01*
X177112560Y-130373160D01*
X177200188Y-130256103D01*
X177222223Y-130197023D01*
X177251287Y-130119104D01*
X177251287Y-130119102D01*
X177251288Y-130119100D01*
X177257799Y-130058537D01*
X177257799Y-129982498D01*
X177277484Y-129915460D01*
X177330288Y-129869705D01*
X177381799Y-129858499D01*
X181318614Y-129858499D01*
X181385653Y-129878184D01*
X181420188Y-129911375D01*
X181532789Y-130072186D01*
X181688414Y-130227811D01*
X181868698Y-130354047D01*
X182068165Y-130447060D01*
X182280752Y-130504022D01*
X182426918Y-130516810D01*
X182500000Y-130523204D01*
X182500000Y-130523203D01*
X182500001Y-130523204D01*
X182719250Y-130504022D01*
X182931837Y-130447060D01*
X183131304Y-130354047D01*
X183311588Y-130227811D01*
X183467213Y-130072186D01*
X183593449Y-129891902D01*
X183686462Y-129692435D01*
X183743424Y-129479848D01*
X183762606Y-129260599D01*
X183743424Y-129041350D01*
X183686462Y-128828763D01*
X183593449Y-128629297D01*
X183588209Y-128621814D01*
X183467212Y-128449011D01*
X183311589Y-128293387D01*
X183131304Y-128167151D01*
X182931838Y-128074138D01*
X182719247Y-128017175D01*
X182500000Y-127997993D01*
X182280754Y-128017175D01*
X182068164Y-128074138D01*
X181868697Y-128167151D01*
X181688412Y-128293387D01*
X181532789Y-128449010D01*
X181435034Y-128588622D01*
X181380458Y-128632247D01*
X181333459Y-128641499D01*
X177381799Y-128641499D01*
X177314760Y-128621814D01*
X177269005Y-128569010D01*
X177257799Y-128517499D01*
X177257799Y-128465970D01*
X177257799Y-128462661D01*
X177251288Y-128402098D01*
X177251287Y-128402096D01*
X177251287Y-128402093D01*
X177200188Y-128265095D01*
X177112560Y-128148037D01*
X176995502Y-128060409D01*
X176858504Y-128009310D01*
X176801223Y-128003152D01*
X176801217Y-128003151D01*
X176797937Y-128002799D01*
X175202061Y-128002799D01*
X175198781Y-128003151D01*
X175198774Y-128003152D01*
X175141493Y-128009310D01*
X175004495Y-128060409D01*
X174887437Y-128148037D01*
X174799809Y-128265095D01*
X174748710Y-128402093D01*
X174743666Y-128449011D01*
X174742199Y-128462661D01*
X174742199Y-128465951D01*
X174742198Y-128465970D01*
X174742199Y-128615762D01*
X174722514Y-128682801D01*
X174684767Y-128715508D01*
X174686120Y-128717272D01*
X174579533Y-128799059D01*
X174548146Y-128823143D01*
X174529004Y-128848088D01*
X174518312Y-128860279D01*
X173448411Y-129930181D01*
X173387088Y-129963666D01*
X173360730Y-129966500D01*
X172801128Y-129966500D01*
X172798014Y-129966818D01*
X172797997Y-129966819D01*
X172700663Y-129976763D01*
X172537900Y-130030697D01*
X172391957Y-130120716D01*
X172270716Y-130241957D01*
X172180697Y-130387900D01*
X172126763Y-130550663D01*
X172116819Y-130647997D01*
X172116818Y-130648014D01*
X172116500Y-130651128D01*
X172116500Y-131198872D01*
X172116818Y-131201986D01*
X172116819Y-131202002D01*
X172126763Y-131299336D01*
X172180697Y-131462099D01*
X172270716Y-131608042D01*
X172274993Y-131612319D01*
X172308478Y-131673642D01*
X172303494Y-131743334D01*
X172274993Y-131787681D01*
X172270716Y-131791957D01*
X172180697Y-131937900D01*
X172126763Y-132100663D01*
X172116819Y-132197997D01*
X172116818Y-132198014D01*
X172116500Y-132201128D01*
X172116500Y-132748872D01*
X170345279Y-132748872D01*
X160584819Y-122988411D01*
X160551334Y-122927088D01*
X160548500Y-122900730D01*
X160548500Y-121815000D01*
X164960893Y-121815000D01*
X164981289Y-122074151D01*
X165041972Y-122326919D01*
X165091712Y-122447001D01*
X165141452Y-122567084D01*
X165277277Y-122788729D01*
X165446102Y-122986398D01*
X165643771Y-123155223D01*
X165865416Y-123291048D01*
X166105580Y-123390527D01*
X166358350Y-123451211D01*
X166617500Y-123471607D01*
X166876650Y-123451211D01*
X167129420Y-123390527D01*
X167369584Y-123291048D01*
X167591229Y-123155223D01*
X167788898Y-122986398D01*
X167957723Y-122788729D01*
X168093548Y-122567084D01*
X168193027Y-122326920D01*
X168253711Y-122074150D01*
X168274107Y-121815000D01*
X168253711Y-121555850D01*
X168193027Y-121303080D01*
X168093548Y-121062916D01*
X167957723Y-120841271D01*
X167788898Y-120643602D01*
X167591229Y-120474777D01*
X167369584Y-120338952D01*
X167249502Y-120289212D01*
X167129419Y-120239472D01*
X166876651Y-120178789D01*
X166617500Y-120158393D01*
X166358348Y-120178789D01*
X166105580Y-120239472D01*
X165865414Y-120338953D01*
X165643772Y-120474776D01*
X165446102Y-120643602D01*
X165277276Y-120841272D01*
X165141453Y-121062914D01*
X165041972Y-121303080D01*
X164981289Y-121555848D01*
X164960893Y-121815000D01*
X160548500Y-121815000D01*
X160548500Y-117370000D01*
X166167709Y-117370000D01*
X166186834Y-117600803D01*
X166186834Y-117600805D01*
X166186835Y-117600809D01*
X166228844Y-117766698D01*
X166243691Y-117825326D01*
X166280372Y-117908950D01*
X166336723Y-118037416D01*
X166463396Y-118231304D01*
X166620255Y-118401698D01*
X166620258Y-118401700D01*
X166803014Y-118543946D01*
X166803016Y-118543947D01*
X166803020Y-118543950D01*
X167006707Y-118654180D01*
X167225758Y-118729380D01*
X167454200Y-118767500D01*
X167685800Y-118767500D01*
X167914242Y-118729380D01*
X168133293Y-118654180D01*
X168336980Y-118543950D01*
X168519745Y-118401698D01*
X168676604Y-118231304D01*
X168803277Y-118037416D01*
X168896310Y-117825323D01*
X168953165Y-117600809D01*
X168972290Y-117370000D01*
X171247709Y-117370000D01*
X171266834Y-117600803D01*
X171266834Y-117600805D01*
X171266835Y-117600809D01*
X171308844Y-117766698D01*
X171323691Y-117825326D01*
X171360372Y-117908950D01*
X171416723Y-118037416D01*
X171543396Y-118231304D01*
X171700255Y-118401698D01*
X171700258Y-118401700D01*
X171883014Y-118543946D01*
X171883016Y-118543947D01*
X171883020Y-118543950D01*
X172086707Y-118654180D01*
X172305758Y-118729380D01*
X172534200Y-118767500D01*
X172765800Y-118767500D01*
X172994242Y-118729380D01*
X173213293Y-118654180D01*
X173416980Y-118543950D01*
X173599745Y-118401698D01*
X173756604Y-118231304D01*
X173883277Y-118037416D01*
X173976310Y-117825323D01*
X174033165Y-117600809D01*
X174052290Y-117370000D01*
X174033165Y-117139191D01*
X173976310Y-116914677D01*
X173883277Y-116702584D01*
X173756604Y-116508696D01*
X173599745Y-116338302D01*
X173529336Y-116283500D01*
X173416985Y-116196053D01*
X173416981Y-116196050D01*
X173416980Y-116196050D01*
X173213293Y-116085820D01*
X173213289Y-116085818D01*
X173213288Y-116085818D01*
X172994243Y-116010620D01*
X172765800Y-115972500D01*
X172534200Y-115972500D01*
X172305756Y-116010620D01*
X172086711Y-116085818D01*
X171883014Y-116196053D01*
X171700258Y-116338299D01*
X171543395Y-116508697D01*
X171416723Y-116702583D01*
X171323691Y-116914673D01*
X171266834Y-117139196D01*
X171247709Y-117370000D01*
X168972290Y-117370000D01*
X168953165Y-117139191D01*
X168896310Y-116914677D01*
X168803277Y-116702584D01*
X168676604Y-116508696D01*
X168519745Y-116338302D01*
X168449336Y-116283500D01*
X168336985Y-116196053D01*
X168336981Y-116196050D01*
X168336980Y-116196050D01*
X168133293Y-116085820D01*
X168133289Y-116085818D01*
X168133288Y-116085818D01*
X167914243Y-116010620D01*
X167685800Y-115972500D01*
X167454200Y-115972500D01*
X167225756Y-116010620D01*
X167006711Y-116085818D01*
X166803014Y-116196053D01*
X166620258Y-116338299D01*
X166463395Y-116508697D01*
X166336723Y-116702583D01*
X166243691Y-116914673D01*
X166186834Y-117139196D01*
X166167709Y-117370000D01*
X160548500Y-117370000D01*
X160548500Y-111020000D01*
X166167709Y-111020000D01*
X166186834Y-111250803D01*
X166186834Y-111250805D01*
X166186835Y-111250809D01*
X166243690Y-111475323D01*
X166243691Y-111475326D01*
X166322504Y-111655000D01*
X166336723Y-111687416D01*
X166463396Y-111881304D01*
X166620255Y-112051698D01*
X166620258Y-112051700D01*
X166803014Y-112193946D01*
X166803016Y-112193947D01*
X166803020Y-112193950D01*
X167006707Y-112304180D01*
X167225758Y-112379380D01*
X167454200Y-112417500D01*
X167685800Y-112417500D01*
X167914242Y-112379380D01*
X168133293Y-112304180D01*
X168336980Y-112193950D01*
X168519745Y-112051698D01*
X168676604Y-111881304D01*
X168803277Y-111687416D01*
X168896310Y-111475323D01*
X168953165Y-111250809D01*
X168972290Y-111020000D01*
X171247709Y-111020000D01*
X171266834Y-111250803D01*
X171266834Y-111250805D01*
X171266835Y-111250809D01*
X171323690Y-111475323D01*
X171323691Y-111475326D01*
X171402504Y-111655000D01*
X171416723Y-111687416D01*
X171543396Y-111881304D01*
X171700255Y-112051698D01*
X171700258Y-112051700D01*
X171883014Y-112193946D01*
X171883016Y-112193947D01*
X171883020Y-112193950D01*
X172086707Y-112304180D01*
X172305758Y-112379380D01*
X172534200Y-112417500D01*
X172765800Y-112417500D01*
X172994242Y-112379380D01*
X173046638Y-112361391D01*
X173116436Y-112358240D01*
X173174584Y-112390991D01*
X174902926Y-114119332D01*
X174932951Y-114168009D01*
X174980698Y-114312102D01*
X175070715Y-114458040D01*
X175074993Y-114462318D01*
X175108478Y-114523641D01*
X175103494Y-114593333D01*
X175074996Y-114637677D01*
X175070717Y-114641955D01*
X174980697Y-114787900D01*
X174926763Y-114950663D01*
X174916819Y-115047997D01*
X174916818Y-115048014D01*
X174916500Y-115051128D01*
X174916500Y-115598872D01*
X174916818Y-115601986D01*
X174916819Y-115602002D01*
X174926763Y-115699336D01*
X174980697Y-115862099D01*
X174980698Y-115862101D01*
X175016682Y-115920439D01*
X175070716Y-116008042D01*
X175191957Y-116129283D01*
X175191959Y-116129284D01*
X175191960Y-116129285D01*
X175337899Y-116219302D01*
X175419281Y-116246268D01*
X175500663Y-116273236D01*
X175545745Y-116277841D01*
X175601128Y-116283500D01*
X175604275Y-116283500D01*
X176195725Y-116283500D01*
X176198872Y-116283500D01*
X176299336Y-116273236D01*
X176462101Y-116219302D01*
X176608040Y-116129285D01*
X176729285Y-116008040D01*
X176819302Y-115862101D01*
X176873236Y-115699336D01*
X176883500Y-115598872D01*
X176883500Y-115051128D01*
X176873236Y-114950664D01*
X176819302Y-114787899D01*
X176729285Y-114641960D01*
X176729284Y-114641959D01*
X176729283Y-114641957D01*
X176725006Y-114637680D01*
X176691521Y-114576357D01*
X176696505Y-114506665D01*
X176725007Y-114462317D01*
X176729285Y-114458040D01*
X176819302Y-114312101D01*
X176873236Y-114149336D01*
X176883500Y-114048872D01*
X176883500Y-113501128D01*
X176873236Y-113400664D01*
X176819302Y-113237899D01*
X176729285Y-113091960D01*
X176729284Y-113091959D01*
X176729283Y-113091957D01*
X176608042Y-112970716D01*
X176497642Y-112902620D01*
X176462101Y-112880698D01*
X176462100Y-112880697D01*
X176462099Y-112880697D01*
X176299336Y-112826763D01*
X176202002Y-112816819D01*
X176201986Y-112816818D01*
X176198872Y-112816500D01*
X175601128Y-112816500D01*
X175598014Y-112816818D01*
X175597997Y-112816819D01*
X175500661Y-112826764D01*
X175424925Y-112851860D01*
X175355097Y-112854261D01*
X175298241Y-112821835D01*
X174021164Y-111544757D01*
X173987679Y-111483434D01*
X173988639Y-111426636D01*
X174002434Y-111372161D01*
X174033165Y-111250809D01*
X174052290Y-111020000D01*
X174033165Y-110789191D01*
X173976310Y-110564677D01*
X173883277Y-110352584D01*
X173756604Y-110158696D01*
X173599745Y-109988302D01*
X173497667Y-109908851D01*
X173416985Y-109846053D01*
X173416981Y-109846050D01*
X173416980Y-109846050D01*
X173213293Y-109735820D01*
X173213289Y-109735818D01*
X173213288Y-109735818D01*
X172994243Y-109660620D01*
X172765800Y-109622500D01*
X172534200Y-109622500D01*
X172305756Y-109660620D01*
X172086711Y-109735818D01*
X171883014Y-109846053D01*
X171700258Y-109988299D01*
X171543395Y-110158697D01*
X171416723Y-110352583D01*
X171323691Y-110564673D01*
X171323689Y-110564677D01*
X171323690Y-110564677D01*
X171277058Y-110748824D01*
X171266834Y-110789196D01*
X171247709Y-111020000D01*
X168972290Y-111020000D01*
X168953165Y-110789191D01*
X168896310Y-110564677D01*
X168803277Y-110352584D01*
X168676604Y-110158696D01*
X168519745Y-109988302D01*
X168417667Y-109908851D01*
X168336985Y-109846053D01*
X168336981Y-109846050D01*
X168336980Y-109846050D01*
X168133293Y-109735820D01*
X168133289Y-109735818D01*
X168133288Y-109735818D01*
X167914243Y-109660620D01*
X167685800Y-109622500D01*
X167454200Y-109622500D01*
X167225756Y-109660620D01*
X167006711Y-109735818D01*
X166803014Y-109846053D01*
X166620258Y-109988299D01*
X166463395Y-110158697D01*
X166336723Y-110352583D01*
X166243691Y-110564673D01*
X166243689Y-110564677D01*
X166243690Y-110564677D01*
X166197058Y-110748824D01*
X166186834Y-110789196D01*
X166167709Y-111020000D01*
X160548500Y-111020000D01*
X160548500Y-106574999D01*
X164960893Y-106574999D01*
X164981289Y-106834151D01*
X165041972Y-107086919D01*
X165081539Y-107182441D01*
X165141452Y-107327084D01*
X165277277Y-107548729D01*
X165446102Y-107746398D01*
X165643771Y-107915223D01*
X165865416Y-108051048D01*
X166105580Y-108150527D01*
X166358350Y-108211211D01*
X166617500Y-108231607D01*
X166876650Y-108211211D01*
X167129420Y-108150527D01*
X167369584Y-108051048D01*
X167591229Y-107915223D01*
X167788898Y-107746398D01*
X167957723Y-107548729D01*
X168093548Y-107327084D01*
X168193027Y-107086920D01*
X168253711Y-106834150D01*
X168274107Y-106575000D01*
X168253711Y-106315850D01*
X168193027Y-106063080D01*
X168093548Y-105822916D01*
X168019918Y-105702764D01*
X186135787Y-105702764D01*
X186165413Y-105972016D01*
X186196055Y-106089223D01*
X186233928Y-106234088D01*
X186323755Y-106445468D01*
X186339871Y-106483392D01*
X186480982Y-106714611D01*
X186654229Y-106922789D01*
X186654255Y-106922820D01*
X186855998Y-107103582D01*
X187081910Y-107253044D01*
X187188211Y-107302876D01*
X187327177Y-107368021D01*
X187586562Y-107446058D01*
X187586569Y-107446060D01*
X187854561Y-107485500D01*
X187854564Y-107485500D01*
X188055369Y-107485500D01*
X188057631Y-107485500D01*
X188260156Y-107470677D01*
X188524553Y-107411780D01*
X188777558Y-107315014D01*
X189013777Y-107182441D01*
X189228177Y-107016888D01*
X189416186Y-106821881D01*
X189573799Y-106601579D01*
X189697656Y-106360675D01*
X189785118Y-106104305D01*
X189834319Y-105837933D01*
X189844212Y-105567235D01*
X189814586Y-105297982D01*
X189746072Y-105035912D01*
X189640130Y-104786610D01*
X189537653Y-104618696D01*
X189499017Y-104555388D01*
X189325746Y-104347181D01*
X189325289Y-104346771D01*
X189124002Y-104166418D01*
X188898090Y-104016956D01*
X188898086Y-104016954D01*
X188652822Y-103901978D01*
X188393437Y-103823941D01*
X188393431Y-103823940D01*
X188125439Y-103784500D01*
X187922369Y-103784500D01*
X187920120Y-103784664D01*
X187920109Y-103784665D01*
X187719843Y-103799322D01*
X187455449Y-103858219D01*
X187202441Y-103954986D01*
X186966223Y-104087559D01*
X186751825Y-104253109D01*
X186563813Y-104448120D01*
X186406201Y-104668420D01*
X186282342Y-104909329D01*
X186194881Y-105165695D01*
X186145680Y-105432066D01*
X186135787Y-105702764D01*
X168019918Y-105702764D01*
X167957723Y-105601271D01*
X167788898Y-105403602D01*
X167591229Y-105234777D01*
X167369584Y-105098952D01*
X167217392Y-105035912D01*
X167129419Y-104999472D01*
X166876651Y-104938789D01*
X166747074Y-104928590D01*
X166617500Y-104918393D01*
X166617499Y-104918393D01*
X166358348Y-104938789D01*
X166105580Y-104999472D01*
X165865414Y-105098953D01*
X165643772Y-105234776D01*
X165446102Y-105403602D01*
X165277276Y-105601272D01*
X165141453Y-105822914D01*
X165041972Y-106063080D01*
X164981289Y-106315848D01*
X164960893Y-106574999D01*
X160548500Y-106574999D01*
X160548500Y-105374014D01*
X160568185Y-105306975D01*
X160613484Y-105264959D01*
X160716977Y-105208952D01*
X160726157Y-105201807D01*
X160899745Y-105066698D01*
X161056604Y-104896304D01*
X161121269Y-104797325D01*
X161174413Y-104751971D01*
X161243644Y-104742547D01*
X161306980Y-104772048D01*
X161328884Y-104797327D01*
X161346759Y-104824686D01*
X162050680Y-104120765D01*
X162051749Y-104135028D01*
X162100703Y-104259760D01*
X162184248Y-104364522D01*
X162294960Y-104440004D01*
X162404698Y-104473854D01*
X161699038Y-105179512D01*
X161727685Y-105201808D01*
X161930137Y-105311369D01*
X162147848Y-105386110D01*
X162374905Y-105424000D01*
X162605095Y-105424000D01*
X162832151Y-105386110D01*
X163049862Y-105311369D01*
X163252315Y-105201807D01*
X163280959Y-105179512D01*
X162573397Y-104471950D01*
X162622499Y-104464550D01*
X162743224Y-104406412D01*
X162841450Y-104315272D01*
X162908447Y-104199228D01*
X162926906Y-104118354D01*
X163633238Y-104824686D01*
X163715773Y-104698357D01*
X163808241Y-104487554D01*
X163864751Y-104264400D01*
X163883760Y-104035000D01*
X163864751Y-103805599D01*
X163808241Y-103582445D01*
X163715774Y-103371643D01*
X163633238Y-103245312D01*
X162929319Y-103949232D01*
X162928251Y-103934972D01*
X162879297Y-103810240D01*
X162795752Y-103705478D01*
X162685040Y-103629996D01*
X162575301Y-103596146D01*
X163280959Y-102890487D01*
X163280959Y-102890485D01*
X163252317Y-102868193D01*
X163049862Y-102758630D01*
X162832151Y-102683889D01*
X162605095Y-102646000D01*
X162374905Y-102646000D01*
X162147848Y-102683889D01*
X161930134Y-102758631D01*
X161727682Y-102868192D01*
X161699039Y-102890484D01*
X161699039Y-102890486D01*
X162406602Y-103598049D01*
X162357501Y-103605450D01*
X162236776Y-103663588D01*
X162138550Y-103754728D01*
X162071553Y-103870772D01*
X162053093Y-103951646D01*
X161346759Y-103245312D01*
X161328886Y-103272671D01*
X161275739Y-103318028D01*
X161206508Y-103327452D01*
X161143172Y-103297950D01*
X161121269Y-103272672D01*
X161056606Y-103173699D01*
X161056605Y-103173698D01*
X161056604Y-103173696D01*
X160899745Y-103003302D01*
X160754801Y-102890487D01*
X160716985Y-102861053D01*
X160716981Y-102861050D01*
X160716980Y-102861050D01*
X160513293Y-102750820D01*
X160513289Y-102750818D01*
X160513288Y-102750818D01*
X160294243Y-102675620D01*
X160065800Y-102637500D01*
X159834200Y-102637500D01*
X159605756Y-102675620D01*
X159386711Y-102750818D01*
X159386707Y-102750819D01*
X159386707Y-102750820D01*
X159372274Y-102758631D01*
X159183014Y-102861053D01*
X159000258Y-103003299D01*
X158843393Y-103173699D01*
X158783807Y-103264902D01*
X158730661Y-103310259D01*
X158661429Y-103319682D01*
X158598094Y-103290180D01*
X158576194Y-103264905D01*
X158516604Y-103173696D01*
X158359745Y-103003302D01*
X158214801Y-102890487D01*
X158176985Y-102861053D01*
X158176981Y-102861050D01*
X158176980Y-102861050D01*
X157973293Y-102750820D01*
X157973289Y-102750818D01*
X157973288Y-102750818D01*
X157754243Y-102675620D01*
X157525800Y-102637500D01*
X157294200Y-102637500D01*
X157065756Y-102675620D01*
X156846711Y-102750818D01*
X156846707Y-102750819D01*
X156846707Y-102750820D01*
X156832274Y-102758631D01*
X156643014Y-102861053D01*
X156460258Y-103003299D01*
X156460255Y-103003301D01*
X156460255Y-103003302D01*
X156351764Y-103121154D01*
X156303395Y-103173697D01*
X156176723Y-103367583D01*
X156083691Y-103579673D01*
X156083689Y-103579677D01*
X156083690Y-103579677D01*
X156031822Y-103784500D01*
X156026834Y-103804196D01*
X156007709Y-104034999D01*
X156026834Y-104265803D01*
X156026834Y-104265805D01*
X156026835Y-104265809D01*
X156080309Y-104476971D01*
X156083691Y-104490326D01*
X156140000Y-104618696D01*
X156176723Y-104702416D01*
X156303396Y-104896304D01*
X156460255Y-105066698D01*
X156460258Y-105066700D01*
X156643014Y-105208946D01*
X156643016Y-105208947D01*
X156643020Y-105208950D01*
X156846707Y-105319180D01*
X157065758Y-105394380D01*
X157294200Y-105432500D01*
X157525800Y-105432500D01*
X157754242Y-105394380D01*
X157973293Y-105319180D01*
X158176980Y-105208950D01*
X158359745Y-105066698D01*
X158516604Y-104896304D01*
X158576191Y-104805098D01*
X158629338Y-104759742D01*
X158698569Y-104750318D01*
X158761905Y-104779820D01*
X158783809Y-104805099D01*
X158843394Y-104896302D01*
X159000255Y-105066698D01*
X159183022Y-105208952D01*
X159286516Y-105264959D01*
X159336108Y-105314178D01*
X159351500Y-105374014D01*
X159351500Y-122610731D01*
X159331815Y-122677770D01*
X159279011Y-122723525D01*
X159209853Y-122733469D01*
X159146297Y-122704444D01*
X159139819Y-122698412D01*
X151161164Y-114719757D01*
X151127679Y-114658434D01*
X151128639Y-114601636D01*
X151130742Y-114593333D01*
X151173165Y-114425809D01*
X151192290Y-114195000D01*
X151173165Y-113964191D01*
X151116310Y-113739677D01*
X151023277Y-113527584D01*
X150896604Y-113333696D01*
X150739745Y-113163302D01*
X150556980Y-113021050D01*
X150556981Y-113021050D01*
X150552377Y-113017467D01*
X150511564Y-112960757D01*
X150507889Y-112890984D01*
X150542521Y-112830301D01*
X150552377Y-112821761D01*
X150580959Y-112799514D01*
X150580959Y-112799512D01*
X149873397Y-112091950D01*
X149922499Y-112084550D01*
X150043224Y-112026412D01*
X150141450Y-111935272D01*
X150208447Y-111819228D01*
X150226906Y-111738353D01*
X150933238Y-112444686D01*
X151015773Y-112318357D01*
X151108241Y-112107554D01*
X151164751Y-111884400D01*
X151183760Y-111655000D01*
X151164751Y-111425599D01*
X151108241Y-111202445D01*
X151015774Y-110991643D01*
X150933238Y-110865312D01*
X150229319Y-111569232D01*
X150228251Y-111554972D01*
X150179297Y-111430240D01*
X150095752Y-111325478D01*
X149985040Y-111249996D01*
X149875301Y-111216146D01*
X150580959Y-110510487D01*
X150580959Y-110510485D01*
X150552317Y-110488193D01*
X150349862Y-110378630D01*
X150132151Y-110303889D01*
X149905095Y-110266000D01*
X149674905Y-110266000D01*
X149447848Y-110303889D01*
X149230134Y-110378631D01*
X149027682Y-110488192D01*
X148999039Y-110510484D01*
X148999039Y-110510486D01*
X149706602Y-111218049D01*
X149657501Y-111225450D01*
X149536776Y-111283588D01*
X149438550Y-111374728D01*
X149371553Y-111490772D01*
X149353093Y-111571645D01*
X148646760Y-110865313D01*
X148564224Y-110991644D01*
X148471758Y-111202445D01*
X148415248Y-111425599D01*
X148396239Y-111654999D01*
X148415248Y-111884400D01*
X148471759Y-112107554D01*
X148564223Y-112318353D01*
X148646760Y-112444685D01*
X149350680Y-111740765D01*
X149351749Y-111755028D01*
X149400703Y-111879760D01*
X149484248Y-111984522D01*
X149594960Y-112060004D01*
X149704698Y-112093854D01*
X148999038Y-112799512D01*
X149027621Y-112821758D01*
X149068435Y-112878467D01*
X149072111Y-112948240D01*
X149037481Y-113008924D01*
X149027624Y-113017466D01*
X148840255Y-113163301D01*
X148683395Y-113333697D01*
X148556723Y-113527583D01*
X148463691Y-113739673D01*
X148463689Y-113739677D01*
X148463690Y-113739677D01*
X148436920Y-113845391D01*
X148406834Y-113964196D01*
X148387709Y-114194999D01*
X148406834Y-114425803D01*
X148406834Y-114425805D01*
X148406835Y-114425809D01*
X148461572Y-114641960D01*
X148463691Y-114650326D01*
X148524037Y-114787899D01*
X148556723Y-114862416D01*
X148683396Y-115056304D01*
X148840255Y-115226698D01*
X148840258Y-115226700D01*
X149020703Y-115367147D01*
X149061516Y-115423857D01*
X149065191Y-115493630D01*
X149030559Y-115554313D01*
X149020703Y-115562853D01*
X148840258Y-115703299D01*
X148840255Y-115703301D01*
X148840255Y-115703302D01*
X148772424Y-115776986D01*
X148683395Y-115873697D01*
X148556723Y-116067583D01*
X148463691Y-116279673D01*
X148406834Y-116504196D01*
X148387709Y-116734999D01*
X148406834Y-116965803D01*
X148406834Y-116965805D01*
X148406835Y-116965809D01*
X148450742Y-117139191D01*
X148463691Y-117190326D01*
X148542504Y-117370000D01*
X148556723Y-117402416D01*
X148683396Y-117596304D01*
X148840255Y-117766698D01*
X148840258Y-117766700D01*
X149023014Y-117908946D01*
X149023016Y-117908947D01*
X149023020Y-117908950D01*
X149226707Y-118019180D01*
X149445758Y-118094380D01*
X149674200Y-118132500D01*
X149905800Y-118132500D01*
X150134242Y-118094380D01*
X150353293Y-118019180D01*
X150556980Y-117908950D01*
X150739745Y-117766698D01*
X150896604Y-117596304D01*
X151023277Y-117402416D01*
X151116310Y-117190323D01*
X151173165Y-116965809D01*
X151192290Y-116735000D01*
X151192289Y-116734992D01*
X151192488Y-116732595D01*
X151217642Y-116667410D01*
X151274043Y-116626171D01*
X151343787Y-116621972D01*
X151403746Y-116655153D01*
X170115181Y-135366587D01*
X170148666Y-135427910D01*
X170151500Y-135454268D01*
X170151500Y-136133006D01*
X170131815Y-136200045D01*
X170079011Y-136245800D01*
X170009854Y-136255744D01*
X169876000Y-136236500D01*
X147814139Y-136236500D01*
X147747100Y-136216815D01*
X147715809Y-136188046D01*
X147595278Y-136031165D01*
X145070171Y-132744518D01*
X149417621Y-132744518D01*
X149417975Y-132751132D01*
X149424021Y-132807371D01*
X149474268Y-132942089D01*
X149560432Y-133057188D01*
X149675531Y-133143352D01*
X149810249Y-133193599D01*
X149866488Y-133199645D01*
X149873103Y-133200000D01*
X150467621Y-133200000D01*
X150467621Y-132215686D01*
X150479576Y-132227641D01*
X150592473Y-132285165D01*
X150686140Y-132300000D01*
X150749102Y-132300000D01*
X150842769Y-132285165D01*
X150955666Y-132227641D01*
X150967621Y-132215685D01*
X150967621Y-133200000D01*
X151562139Y-133200000D01*
X151568753Y-133199645D01*
X151624992Y-133193599D01*
X151759710Y-133143352D01*
X151874809Y-133057188D01*
X151960973Y-132942088D01*
X152015312Y-132796400D01*
X152057183Y-132740466D01*
X152122647Y-132716049D01*
X152190920Y-132730901D01*
X152219175Y-132752052D01*
X152373321Y-132906198D01*
X152560872Y-133037523D01*
X152768378Y-133134284D01*
X152989534Y-133193543D01*
X153217621Y-133213498D01*
X153445708Y-133193543D01*
X153666864Y-133134284D01*
X153874370Y-133037523D01*
X154061921Y-132906198D01*
X154223819Y-132744300D01*
X154355144Y-132556749D01*
X154451905Y-132349243D01*
X154511164Y-132128087D01*
X154531119Y-131900000D01*
X154511164Y-131671913D01*
X154451905Y-131450757D01*
X154355144Y-131243251D01*
X154223819Y-131055700D01*
X154061921Y-130893802D01*
X153874370Y-130762477D01*
X153874367Y-130762476D01*
X153874365Y-130762474D01*
X153666867Y-130665717D01*
X153666864Y-130665716D01*
X153556286Y-130636086D01*
X153445705Y-130606456D01*
X153217620Y-130586501D01*
X152989536Y-130606456D01*
X152768374Y-130665717D01*
X152560876Y-130762474D01*
X152373321Y-130893802D01*
X152219175Y-131047948D01*
X152157852Y-131081432D01*
X152088160Y-131076448D01*
X152032227Y-131034576D01*
X152015312Y-131003599D01*
X151960973Y-130857911D01*
X151874809Y-130742811D01*
X151759710Y-130656647D01*
X151624992Y-130606400D01*
X151568753Y-130600354D01*
X151562139Y-130600000D01*
X150967621Y-130600000D01*
X150967621Y-131584314D01*
X150955666Y-131572359D01*
X150842769Y-131514835D01*
X150749102Y-131500000D01*
X150686140Y-131500000D01*
X150592473Y-131514835D01*
X150479576Y-131572359D01*
X150467621Y-131584314D01*
X150467621Y-130600000D01*
X149873103Y-130600000D01*
X149866488Y-130600354D01*
X149810249Y-130606400D01*
X149675531Y-130656647D01*
X149560432Y-130742811D01*
X149474268Y-130857910D01*
X149424021Y-130992628D01*
X149417975Y-131048867D01*
X149417621Y-131055481D01*
X149417621Y-131650000D01*
X150401935Y-131650000D01*
X150389980Y-131661955D01*
X150332456Y-131774852D01*
X150312635Y-131900000D01*
X150332456Y-132025148D01*
X150389980Y-132138045D01*
X150401935Y-132150000D01*
X149417621Y-132150000D01*
X149417621Y-132744518D01*
X145070171Y-132744518D01*
X136673103Y-121815000D01*
X151625893Y-121815000D01*
X151646289Y-122074151D01*
X151706972Y-122326919D01*
X151756712Y-122447002D01*
X151806452Y-122567084D01*
X151942277Y-122788729D01*
X152111102Y-122986398D01*
X152308771Y-123155223D01*
X152530416Y-123291048D01*
X152770580Y-123390527D01*
X153023350Y-123451211D01*
X153282500Y-123471607D01*
X153541650Y-123451211D01*
X153794420Y-123390527D01*
X154034584Y-123291048D01*
X154256229Y-123155223D01*
X154453898Y-122986398D01*
X154622723Y-122788729D01*
X154758548Y-122567084D01*
X154858027Y-122326920D01*
X154918711Y-122074150D01*
X154939107Y-121815000D01*
X154918711Y-121555850D01*
X154858027Y-121303080D01*
X154758548Y-121062916D01*
X154622723Y-120841271D01*
X154453898Y-120643602D01*
X154256229Y-120474777D01*
X154034584Y-120338952D01*
X153914502Y-120289212D01*
X153794419Y-120239472D01*
X153541651Y-120178789D01*
X153282500Y-120158393D01*
X153023348Y-120178789D01*
X152770580Y-120239472D01*
X152530414Y-120338953D01*
X152308772Y-120474776D01*
X152111102Y-120643602D01*
X151942276Y-120841272D01*
X151806453Y-121062914D01*
X151706972Y-121303080D01*
X151646289Y-121555848D01*
X151625893Y-121815000D01*
X136673103Y-121815000D01*
X132194423Y-115985607D01*
X132134772Y-115920439D01*
X132103482Y-115891671D01*
X132033558Y-115837703D01*
X131900610Y-115776986D01*
X131846666Y-115761146D01*
X131835264Y-115757798D01*
X131835262Y-115757797D01*
X131833571Y-115757301D01*
X131833567Y-115757300D01*
X131830441Y-115756850D01*
X131830428Y-115756848D01*
X131713338Y-115740014D01*
X131688897Y-115736500D01*
X131688896Y-115736500D01*
X131100183Y-115736500D01*
X131033144Y-115716815D01*
X130987389Y-115664011D01*
X130977445Y-115594853D01*
X130986627Y-115562690D01*
X130987346Y-115561050D01*
X131039296Y-115442616D01*
X131094564Y-115224368D01*
X131113156Y-115000000D01*
X131094564Y-114775632D01*
X131039296Y-114557384D01*
X130948860Y-114351209D01*
X130825722Y-114162732D01*
X130673240Y-113997094D01*
X130495576Y-113858811D01*
X130459067Y-113839053D01*
X130409478Y-113789836D01*
X130394370Y-113721619D01*
X130418540Y-113656063D01*
X130459067Y-113620946D01*
X130495576Y-113601189D01*
X130625582Y-113500000D01*
X137925001Y-113500000D01*
X137925001Y-113578753D01*
X137925256Y-113584389D01*
X137931408Y-113652104D01*
X137981981Y-113814397D01*
X138069925Y-113959875D01*
X138190124Y-114080074D01*
X138335603Y-114168019D01*
X138497893Y-114218590D01*
X138565620Y-114224745D01*
X138571238Y-114224999D01*
X138574999Y-114224998D01*
X138575000Y-114224998D01*
X138575000Y-113500000D01*
X137925001Y-113500000D01*
X130625582Y-113500000D01*
X130673240Y-113462906D01*
X130825722Y-113297268D01*
X130948860Y-113108791D01*
X131039296Y-112902616D01*
X131063301Y-112807818D01*
X131095823Y-112750582D01*
X131461587Y-112384819D01*
X131522911Y-112351334D01*
X131549269Y-112348500D01*
X134341119Y-112348500D01*
X134407090Y-112367505D01*
X134518817Y-112437709D01*
X134680150Y-112494162D01*
X134850000Y-112513299D01*
X135019850Y-112494162D01*
X135181183Y-112437709D01*
X135292909Y-112367505D01*
X135358881Y-112348500D01*
X137965909Y-112348500D01*
X138032948Y-112368185D01*
X138078703Y-112420989D01*
X138088647Y-112490147D01*
X138072026Y-112536650D01*
X137981980Y-112685603D01*
X137931409Y-112847893D01*
X137925255Y-112915615D01*
X137925000Y-112921244D01*
X137925000Y-113000000D01*
X138951000Y-113000000D01*
X139018039Y-113019685D01*
X139063794Y-113072489D01*
X139075000Y-113124000D01*
X139075000Y-114224999D01*
X139078753Y-114224999D01*
X139084389Y-114224743D01*
X139152104Y-114218591D01*
X139314397Y-114168018D01*
X139459873Y-114080075D01*
X139556307Y-113983641D01*
X139617630Y-113950156D01*
X139687322Y-113955140D01*
X139731668Y-113983639D01*
X139834845Y-114086816D01*
X139982087Y-114175827D01*
X140146351Y-114227013D01*
X140217735Y-114233500D01*
X140732264Y-114233499D01*
X140803649Y-114227013D01*
X140967913Y-114175827D01*
X141115155Y-114086816D01*
X141236816Y-113965155D01*
X141265109Y-113918350D01*
X141316639Y-113871162D01*
X141371228Y-113858500D01*
X141401995Y-113858500D01*
X141418179Y-113859560D01*
X141450000Y-113863750D01*
X141489880Y-113858500D01*
X141489885Y-113858500D01*
X141589456Y-113845391D01*
X141608851Y-113842838D01*
X141756876Y-113781524D01*
X141852072Y-113708477D01*
X141852072Y-113708475D01*
X141868364Y-113695975D01*
X141868365Y-113695973D01*
X141883987Y-113683987D01*
X141903536Y-113658509D01*
X141914216Y-113646331D01*
X142196332Y-113364215D01*
X142208510Y-113353535D01*
X142233987Y-113333987D01*
X142248113Y-113315576D01*
X142248117Y-113315573D01*
X142258476Y-113302072D01*
X142258478Y-113302071D01*
X142331524Y-113206876D01*
X142392838Y-113058851D01*
X142398311Y-113017277D01*
X142408500Y-112939885D01*
X142408500Y-112939879D01*
X142413750Y-112900000D01*
X142410915Y-112878467D01*
X142409561Y-112868177D01*
X142408500Y-112851993D01*
X142408500Y-110348004D01*
X142409561Y-110331818D01*
X142413750Y-110299999D01*
X142408500Y-110260123D01*
X142408500Y-110260122D01*
X142408500Y-110260115D01*
X142392838Y-110141150D01*
X142331524Y-109993125D01*
X142312870Y-109968815D01*
X142266858Y-109908850D01*
X142258492Y-109897947D01*
X142258475Y-109897926D01*
X142252777Y-109890501D01*
X142233987Y-109866013D01*
X142208512Y-109846465D01*
X142196326Y-109835777D01*
X141714225Y-109353676D01*
X141703531Y-109341482D01*
X141683989Y-109316015D01*
X141683987Y-109316014D01*
X141683987Y-109316013D01*
X141652074Y-109291525D01*
X141652072Y-109291523D01*
X141652060Y-109291513D01*
X141652038Y-109291496D01*
X141556876Y-109218476D01*
X141408851Y-109157162D01*
X141395767Y-109155439D01*
X141331871Y-109127170D01*
X141293402Y-109068844D01*
X141292573Y-108998980D01*
X141329647Y-108939757D01*
X141392853Y-108909980D01*
X141411956Y-108908500D01*
X152072676Y-108908500D01*
X152076000Y-108908500D01*
X152185157Y-108896764D01*
X152236668Y-108885558D01*
X152281269Y-108870713D01*
X152340825Y-108850891D01*
X152362846Y-108836739D01*
X152463782Y-108771871D01*
X152516586Y-108726116D01*
X152612297Y-108615661D01*
X152673014Y-108482713D01*
X152692699Y-108415674D01*
X152692700Y-108415670D01*
X152712782Y-108275992D01*
X152741805Y-108212439D01*
X152800583Y-108174664D01*
X152864466Y-108173067D01*
X152912989Y-108184716D01*
X153023350Y-108211211D01*
X153282500Y-108231607D01*
X153541650Y-108211211D01*
X153794420Y-108150527D01*
X154034584Y-108051048D01*
X154256229Y-107915223D01*
X154453898Y-107746398D01*
X154622723Y-107548729D01*
X154758548Y-107327084D01*
X154858027Y-107086920D01*
X154918711Y-106834150D01*
X154939107Y-106575000D01*
X154918711Y-106315850D01*
X154858027Y-106063080D01*
X154758548Y-105822916D01*
X154622723Y-105601271D01*
X154453898Y-105403602D01*
X154256229Y-105234777D01*
X154034584Y-105098952D01*
X153882392Y-105035912D01*
X153794419Y-104999472D01*
X153541651Y-104938789D01*
X153412074Y-104928590D01*
X153282500Y-104918393D01*
X153282499Y-104918393D01*
X153023346Y-104938789D01*
X152866446Y-104976457D01*
X152796664Y-104972966D01*
X152739847Y-104932302D01*
X152714034Y-104867375D01*
X152713500Y-104855883D01*
X152713500Y-99324000D01*
X152733185Y-99256961D01*
X152771372Y-99223872D01*
X156966500Y-99223872D01*
X156966818Y-99226986D01*
X156966819Y-99227002D01*
X156976763Y-99324336D01*
X157030697Y-99487099D01*
X157030698Y-99487101D01*
X157064160Y-99541351D01*
X157120716Y-99633042D01*
X157241957Y-99754283D01*
X157241959Y-99754284D01*
X157241960Y-99754285D01*
X157387899Y-99844302D01*
X157469281Y-99871268D01*
X157550663Y-99898236D01*
X157595745Y-99902841D01*
X157651128Y-99908500D01*
X157654275Y-99908500D01*
X158245725Y-99908500D01*
X158248872Y-99908500D01*
X158349336Y-99898236D01*
X158512101Y-99844302D01*
X158658040Y-99754285D01*
X158779285Y-99633040D01*
X158869302Y-99487101D01*
X158923236Y-99324336D01*
X158933500Y-99223872D01*
X158933500Y-98676128D01*
X158923236Y-98575664D01*
X158909173Y-98533225D01*
X158869302Y-98412900D01*
X158869302Y-98412899D01*
X158779285Y-98266960D01*
X158779284Y-98266959D01*
X158779283Y-98266957D01*
X158768996Y-98256670D01*
X158735511Y-98195347D01*
X158740495Y-98125655D01*
X158768999Y-98081305D01*
X158772572Y-98077731D01*
X158861546Y-97933484D01*
X158914856Y-97772606D01*
X158924680Y-97676445D01*
X158925000Y-97670167D01*
X158925000Y-97650000D01*
X156975001Y-97650000D01*
X156975001Y-97670165D01*
X156975321Y-97676447D01*
X156985143Y-97772605D01*
X157038453Y-97933486D01*
X157127426Y-98077732D01*
X157131003Y-98081309D01*
X157164488Y-98142632D01*
X157159504Y-98212324D01*
X157131003Y-98256671D01*
X157120716Y-98266957D01*
X157030697Y-98412900D01*
X156976763Y-98575663D01*
X156966819Y-98672997D01*
X156966818Y-98673014D01*
X156966500Y-98676128D01*
X156966500Y-99223872D01*
X152771372Y-99223872D01*
X152785989Y-99211206D01*
X152837500Y-99200000D01*
X153137500Y-99200000D01*
X153137500Y-98650000D01*
X153637500Y-98650000D01*
X153637500Y-99200000D01*
X153963197Y-99200000D01*
X153968076Y-99199808D01*
X154002493Y-99197099D01*
X154160197Y-99151282D01*
X154301557Y-99067682D01*
X154417682Y-98951557D01*
X154501280Y-98810200D01*
X154547099Y-98652488D01*
X154547295Y-98650000D01*
X153637500Y-98650000D01*
X153137500Y-98650000D01*
X153137500Y-98382500D01*
X153157185Y-98315461D01*
X153209989Y-98269706D01*
X153261500Y-98258500D01*
X153964057Y-98258500D01*
X153966502Y-98258500D01*
X154003831Y-98255562D01*
X154163601Y-98209145D01*
X154234410Y-98167268D01*
X154297532Y-98150000D01*
X154547295Y-98150000D01*
X154559338Y-98136971D01*
X154564196Y-98113851D01*
X154613247Y-98064094D01*
X154673449Y-98048500D01*
X154924458Y-98048500D01*
X154991497Y-98068185D01*
X155012139Y-98084819D01*
X155024091Y-98096771D01*
X155168817Y-98187709D01*
X155330150Y-98244162D01*
X155457389Y-98258498D01*
X155499999Y-98263299D01*
X155499999Y-98263298D01*
X155500000Y-98263299D01*
X155669850Y-98244162D01*
X155831183Y-98187709D01*
X155975909Y-98096771D01*
X156096771Y-97975909D01*
X156187709Y-97831183D01*
X156244162Y-97669850D01*
X156263299Y-97500000D01*
X156244162Y-97330150D01*
X156187709Y-97168817D01*
X156175885Y-97150000D01*
X156975000Y-97150000D01*
X157700000Y-97150000D01*
X157700000Y-96450000D01*
X158200000Y-96450000D01*
X158200000Y-97150000D01*
X158924999Y-97150000D01*
X158924999Y-97129834D01*
X158924678Y-97123552D01*
X158914856Y-97027394D01*
X158905779Y-97000000D01*
X161136843Y-97000000D01*
X161155435Y-97224363D01*
X161155435Y-97224366D01*
X161155436Y-97224368D01*
X161194106Y-97377073D01*
X161210705Y-97442618D01*
X161301138Y-97648788D01*
X161301140Y-97648791D01*
X161424278Y-97837268D01*
X161576760Y-98002906D01*
X161754424Y-98141189D01*
X161952426Y-98248342D01*
X162165365Y-98321444D01*
X162387431Y-98358500D01*
X162612569Y-98358500D01*
X162834635Y-98321444D01*
X163047574Y-98248342D01*
X163245576Y-98141189D01*
X163423240Y-98002906D01*
X163575722Y-97837268D01*
X163666190Y-97698795D01*
X163719337Y-97653438D01*
X163788569Y-97644014D01*
X163851905Y-97673516D01*
X163873809Y-97698795D01*
X163964277Y-97837267D01*
X163964661Y-97837684D01*
X164116760Y-98002906D01*
X164294424Y-98141189D01*
X164492426Y-98248342D01*
X164705365Y-98321444D01*
X164927431Y-98358500D01*
X165152569Y-98358500D01*
X165374635Y-98321444D01*
X165587574Y-98248342D01*
X165785576Y-98141189D01*
X165963240Y-98002906D01*
X166026452Y-97934239D01*
X166086337Y-97898251D01*
X166156175Y-97900351D01*
X166213791Y-97939875D01*
X166233861Y-97974889D01*
X166279110Y-98096204D01*
X166366738Y-98213261D01*
X166483796Y-98300889D01*
X166620794Y-98351988D01*
X166620797Y-98351988D01*
X166620799Y-98351989D01*
X166681362Y-98358500D01*
X166684672Y-98358500D01*
X168475328Y-98358500D01*
X168478638Y-98358500D01*
X168539201Y-98351989D01*
X168539203Y-98351988D01*
X168539205Y-98351988D01*
X168637135Y-98315461D01*
X168676204Y-98300889D01*
X168793261Y-98213261D01*
X168880889Y-98096204D01*
X168919205Y-97993476D01*
X168931988Y-97959205D01*
X168931988Y-97959203D01*
X168931989Y-97959201D01*
X168938500Y-97898638D01*
X168938500Y-96101362D01*
X168931989Y-96040799D01*
X168931988Y-96040797D01*
X168931988Y-96040794D01*
X168880889Y-95903796D01*
X168793261Y-95786738D01*
X168676203Y-95699110D01*
X168539205Y-95648011D01*
X168481924Y-95641853D01*
X168481918Y-95641852D01*
X168478638Y-95641500D01*
X166681362Y-95641500D01*
X166678082Y-95641852D01*
X166678075Y-95641853D01*
X166620794Y-95648011D01*
X166483796Y-95699110D01*
X166366738Y-95786738D01*
X166279110Y-95903796D01*
X166233861Y-96025110D01*
X166191989Y-96081043D01*
X166126524Y-96105459D01*
X166058252Y-96090606D01*
X166026451Y-96065758D01*
X165963242Y-95997096D01*
X165963241Y-95997095D01*
X165963240Y-95997094D01*
X165785576Y-95858811D01*
X165587574Y-95751658D01*
X165587573Y-95751657D01*
X165587572Y-95751657D01*
X165374636Y-95678556D01*
X165152569Y-95641500D01*
X164927431Y-95641500D01*
X164705363Y-95678556D01*
X164492427Y-95751657D01*
X164294424Y-95858811D01*
X164116760Y-95997094D01*
X163964279Y-96162730D01*
X163873809Y-96301205D01*
X163820662Y-96346561D01*
X163751431Y-96355985D01*
X163688095Y-96326483D01*
X163666191Y-96301205D01*
X163636724Y-96256103D01*
X163575722Y-96162732D01*
X163423240Y-95997094D01*
X163245576Y-95858811D01*
X163047574Y-95751658D01*
X163047573Y-95751657D01*
X163047572Y-95751657D01*
X162834636Y-95678556D01*
X162612569Y-95641500D01*
X162387431Y-95641500D01*
X162165363Y-95678556D01*
X161952427Y-95751657D01*
X161754424Y-95858811D01*
X161576760Y-95997094D01*
X161424279Y-96162730D01*
X161301138Y-96351211D01*
X161212103Y-96554194D01*
X161210704Y-96557384D01*
X161175096Y-96697997D01*
X161155435Y-96775636D01*
X161136843Y-97000000D01*
X158905779Y-97000000D01*
X158861546Y-96866513D01*
X158772573Y-96722267D01*
X158652732Y-96602426D01*
X158508486Y-96513453D01*
X158347606Y-96460143D01*
X158251445Y-96450319D01*
X158245168Y-96450000D01*
X158200000Y-96450000D01*
X157700000Y-96450000D01*
X157654835Y-96450000D01*
X157648551Y-96450321D01*
X157552394Y-96460143D01*
X157391513Y-96513453D01*
X157247267Y-96602426D01*
X157127426Y-96722267D01*
X157038453Y-96866513D01*
X156985143Y-97027393D01*
X156975319Y-97123554D01*
X156975000Y-97129832D01*
X156975000Y-97150000D01*
X156175885Y-97150000D01*
X156096771Y-97024091D01*
X155975909Y-96903229D01*
X155831183Y-96812291D01*
X155669850Y-96755838D01*
X155669848Y-96755837D01*
X155669846Y-96755837D01*
X155500000Y-96736700D01*
X155330153Y-96755837D01*
X155330150Y-96755837D01*
X155330150Y-96755838D01*
X155168817Y-96812291D01*
X155137746Y-96831815D01*
X155136665Y-96832494D01*
X155070693Y-96851500D01*
X154673449Y-96851500D01*
X154606410Y-96831815D01*
X154560655Y-96779011D01*
X154557473Y-96761010D01*
X154547295Y-96750000D01*
X154297532Y-96750000D01*
X154234411Y-96732732D01*
X154163600Y-96690854D01*
X154003834Y-96644438D01*
X153968934Y-96641691D01*
X153968923Y-96641690D01*
X153966502Y-96641500D01*
X153261500Y-96641500D01*
X153194461Y-96621815D01*
X153148706Y-96569011D01*
X153137500Y-96517500D01*
X153137500Y-96374000D01*
X153157185Y-96306961D01*
X153209989Y-96261206D01*
X153261500Y-96250000D01*
X154547295Y-96250000D01*
X154547295Y-96249999D01*
X154546103Y-96234843D01*
X154549948Y-96234540D01*
X154550084Y-96187225D01*
X154588027Y-96128555D01*
X154651665Y-96099712D01*
X154668961Y-96098500D01*
X158202650Y-96098500D01*
X158218835Y-96099560D01*
X158250000Y-96103664D01*
X158289223Y-96098500D01*
X158289225Y-96098500D01*
X158406240Y-96083095D01*
X158473518Y-96055227D01*
X158491526Y-96047768D01*
X158511627Y-96039441D01*
X158551832Y-96022789D01*
X158645467Y-95950940D01*
X158645466Y-95950940D01*
X158656648Y-95942361D01*
X158656651Y-95942356D01*
X158676855Y-95926855D01*
X158695996Y-95901908D01*
X158706677Y-95889728D01*
X160711587Y-93884819D01*
X160772911Y-93851334D01*
X160799269Y-93848500D01*
X174915014Y-93848500D01*
X174982053Y-93868185D01*
X175027808Y-93920989D01*
X175037752Y-93990147D01*
X175008727Y-94053703D01*
X174989324Y-94071767D01*
X174887437Y-94148037D01*
X174799809Y-94265095D01*
X174748710Y-94402093D01*
X174743666Y-94449011D01*
X174742199Y-94462661D01*
X174742199Y-94465969D01*
X174742199Y-94465970D01*
X174742199Y-95606487D01*
X174722514Y-95673526D01*
X174705880Y-95694168D01*
X174271464Y-96128583D01*
X174210141Y-96162068D01*
X174140449Y-96157084D01*
X174118686Y-96146441D01*
X174089734Y-96128583D01*
X174012101Y-96080698D01*
X174012100Y-96080697D01*
X174012099Y-96080697D01*
X173849336Y-96026763D01*
X173752002Y-96016819D01*
X173751986Y-96016818D01*
X173748872Y-96016500D01*
X173151128Y-96016500D01*
X173148014Y-96016818D01*
X173147997Y-96016819D01*
X173050663Y-96026763D01*
X172887900Y-96080697D01*
X172741957Y-96170716D01*
X172620716Y-96291957D01*
X172530697Y-96437900D01*
X172476763Y-96600663D01*
X172466819Y-96697997D01*
X172466818Y-96698014D01*
X172466500Y-96701128D01*
X172466500Y-97248872D01*
X172466818Y-97251986D01*
X172466819Y-97252002D01*
X172476763Y-97349336D01*
X172530698Y-97512102D01*
X172620715Y-97658040D01*
X172624993Y-97662318D01*
X172658478Y-97723641D01*
X172653494Y-97793333D01*
X172624996Y-97837677D01*
X172620717Y-97841955D01*
X172530697Y-97987900D01*
X172476763Y-98150663D01*
X172466819Y-98247997D01*
X172466818Y-98248014D01*
X172466500Y-98251128D01*
X172466500Y-98798872D01*
X172466818Y-98801986D01*
X172466819Y-98802002D01*
X172476763Y-98899336D01*
X172526377Y-99049061D01*
X172530698Y-99062101D01*
X172537510Y-99073145D01*
X172620716Y-99208042D01*
X172741957Y-99329283D01*
X172741959Y-99329284D01*
X172741960Y-99329285D01*
X172887899Y-99419302D01*
X172969281Y-99446268D01*
X173050663Y-99473236D01*
X173095745Y-99477841D01*
X173151128Y-99483500D01*
X173154275Y-99483500D01*
X173745725Y-99483500D01*
X173748872Y-99483500D01*
X173849336Y-99473236D01*
X174012101Y-99419302D01*
X174158040Y-99329285D01*
X174279285Y-99208040D01*
X174279285Y-99208039D01*
X174288931Y-99192403D01*
X174340879Y-99145678D01*
X174394469Y-99133500D01*
X174460988Y-99133500D01*
X174528027Y-99153185D01*
X174548669Y-99169819D01*
X174740530Y-99361680D01*
X174774015Y-99423003D01*
X174772624Y-99481453D01*
X174756575Y-99541350D01*
X174737393Y-99760600D01*
X174756575Y-99979846D01*
X174756576Y-99979849D01*
X174813538Y-100192436D01*
X174906551Y-100391903D01*
X175032787Y-100572187D01*
X175188412Y-100727812D01*
X175368696Y-100854048D01*
X175568163Y-100947061D01*
X175780750Y-101004023D01*
X175999999Y-101023205D01*
X176219248Y-101004023D01*
X176431835Y-100947061D01*
X176631302Y-100854048D01*
X176811586Y-100727812D01*
X176967211Y-100572187D01*
X177093447Y-100391903D01*
X177186460Y-100192436D01*
X177243422Y-99979849D01*
X177262604Y-99760600D01*
X177262604Y-99760599D01*
X181237395Y-99760599D01*
X181256577Y-99979846D01*
X181256578Y-99979849D01*
X181313540Y-100192436D01*
X181406553Y-100391903D01*
X181532789Y-100572187D01*
X181688414Y-100727812D01*
X181868698Y-100854048D01*
X182068165Y-100947061D01*
X182280752Y-101004023D01*
X182426918Y-101016811D01*
X182500000Y-101023205D01*
X182500000Y-101023204D01*
X182500001Y-101023205D01*
X182719250Y-101004023D01*
X182931837Y-100947061D01*
X183131304Y-100854048D01*
X183311588Y-100727812D01*
X183467213Y-100572187D01*
X183593449Y-100391903D01*
X183686462Y-100192436D01*
X183743424Y-99979849D01*
X183762606Y-99760600D01*
X183743424Y-99541351D01*
X183686462Y-99328764D01*
X183593449Y-99129298D01*
X183576108Y-99104533D01*
X183467212Y-98949012D01*
X183311589Y-98793388D01*
X183131304Y-98667152D01*
X182931838Y-98574139D01*
X182719247Y-98517176D01*
X182500000Y-98497994D01*
X182280754Y-98517176D01*
X182068164Y-98574139D01*
X181868697Y-98667152D01*
X181688412Y-98793388D01*
X181532789Y-98949011D01*
X181406553Y-99129296D01*
X181313540Y-99328763D01*
X181256577Y-99541353D01*
X181237395Y-99760599D01*
X177262604Y-99760599D01*
X177243422Y-99541351D01*
X177186460Y-99328764D01*
X177093447Y-99129298D01*
X177076106Y-99104533D01*
X176967210Y-98949012D01*
X176811587Y-98793388D01*
X176631302Y-98667152D01*
X176431836Y-98574139D01*
X176219245Y-98517176D01*
X175999999Y-98497994D01*
X175780749Y-98517176D01*
X175720852Y-98533225D01*
X175651002Y-98531561D01*
X175601079Y-98501131D01*
X175228624Y-98128676D01*
X175217930Y-98116482D01*
X175198388Y-98091015D01*
X175198386Y-98091014D01*
X175198386Y-98091013D01*
X175166473Y-98066525D01*
X175166471Y-98066523D01*
X175166459Y-98066513D01*
X175166437Y-98066496D01*
X175071275Y-97993475D01*
X174923252Y-97932162D01*
X174916576Y-97931283D01*
X174897894Y-97928824D01*
X174845519Y-97921928D01*
X174804296Y-97916501D01*
X174804272Y-97916499D01*
X174764399Y-97911249D01*
X174732579Y-97915439D01*
X174716394Y-97916500D01*
X174394469Y-97916500D01*
X174327430Y-97896815D01*
X174288931Y-97857597D01*
X174279287Y-97841961D01*
X174275009Y-97837684D01*
X174241522Y-97776362D01*
X174246504Y-97706670D01*
X174275009Y-97662316D01*
X174275008Y-97662316D01*
X174279285Y-97658040D01*
X174294308Y-97633682D01*
X174346254Y-97586959D01*
X174383661Y-97575840D01*
X174406491Y-97572834D01*
X174425056Y-97570391D01*
X174429097Y-97569858D01*
X174444449Y-97567838D01*
X174592474Y-97506524D01*
X174687670Y-97433477D01*
X174687670Y-97433475D01*
X174703962Y-97420975D01*
X174703963Y-97420973D01*
X174719585Y-97408987D01*
X174739134Y-97383509D01*
X174749814Y-97371331D01*
X175566428Y-96554718D01*
X175627752Y-96521233D01*
X175654110Y-96518399D01*
X176794627Y-96518399D01*
X176797937Y-96518399D01*
X176858500Y-96511888D01*
X176858502Y-96511887D01*
X176858504Y-96511887D01*
X176936423Y-96482823D01*
X176995503Y-96460788D01*
X177112560Y-96373160D01*
X177200188Y-96256103D01*
X177232036Y-96170716D01*
X177251287Y-96119104D01*
X177251287Y-96119102D01*
X177251288Y-96119100D01*
X177257799Y-96058537D01*
X177257799Y-95260599D01*
X181237395Y-95260599D01*
X181256577Y-95479845D01*
X181313540Y-95692436D01*
X181385507Y-95846769D01*
X181406553Y-95891902D01*
X181532789Y-96072186D01*
X181688414Y-96227811D01*
X181868698Y-96354047D01*
X182068165Y-96447060D01*
X182280752Y-96504022D01*
X182387862Y-96513393D01*
X182500000Y-96523204D01*
X182500000Y-96523203D01*
X182500001Y-96523204D01*
X182719250Y-96504022D01*
X182931837Y-96447060D01*
X183131304Y-96354047D01*
X183311588Y-96227811D01*
X183467213Y-96072186D01*
X183593449Y-95891902D01*
X183686462Y-95692435D01*
X183743424Y-95479848D01*
X183762606Y-95260599D01*
X183743424Y-95041350D01*
X183686462Y-94828763D01*
X183593449Y-94629297D01*
X183467213Y-94449012D01*
X183420294Y-94402093D01*
X183311589Y-94293387D01*
X183131304Y-94167151D01*
X182931838Y-94074138D01*
X182719247Y-94017175D01*
X182500000Y-93997993D01*
X182280754Y-94017175D01*
X182068164Y-94074138D01*
X181868697Y-94167151D01*
X181688412Y-94293387D01*
X181532789Y-94449010D01*
X181406553Y-94629295D01*
X181313540Y-94828762D01*
X181256577Y-95041352D01*
X181237395Y-95260599D01*
X177257799Y-95260599D01*
X177257799Y-94914709D01*
X177277484Y-94847670D01*
X177294118Y-94827028D01*
X178324293Y-93796853D01*
X179376332Y-92744813D01*
X179388510Y-92734133D01*
X179413987Y-92714585D01*
X179428113Y-92696174D01*
X179428117Y-92696171D01*
X179438476Y-92682670D01*
X179438478Y-92682669D01*
X179511524Y-92587474D01*
X179572838Y-92439449D01*
X179578514Y-92396336D01*
X179588500Y-92320483D01*
X179590913Y-92302155D01*
X179590913Y-92302143D01*
X179593750Y-92280598D01*
X179589560Y-92248775D01*
X179588499Y-92232589D01*
X179588499Y-91881815D01*
X179588499Y-91724843D01*
X179608184Y-91657807D01*
X179660988Y-91612052D01*
X179730146Y-91602108D01*
X179771516Y-91615791D01*
X179822426Y-91643342D01*
X180035365Y-91716444D01*
X180257431Y-91753500D01*
X180482569Y-91753500D01*
X180704635Y-91716444D01*
X180917574Y-91643342D01*
X181115576Y-91536189D01*
X181293240Y-91397906D01*
X181445722Y-91232268D01*
X181536190Y-91093795D01*
X181589337Y-91048438D01*
X181658569Y-91039014D01*
X181721905Y-91068516D01*
X181743809Y-91093795D01*
X181834278Y-91232268D01*
X181986760Y-91397906D01*
X182164424Y-91536189D01*
X182362426Y-91643342D01*
X182575365Y-91716444D01*
X182797431Y-91753500D01*
X183022569Y-91753500D01*
X183244635Y-91716444D01*
X183457574Y-91643342D01*
X183655576Y-91536189D01*
X183833240Y-91397906D01*
X183985722Y-91232268D01*
X184076190Y-91093795D01*
X184129337Y-91048438D01*
X184198569Y-91039014D01*
X184261905Y-91068516D01*
X184283809Y-91093795D01*
X184374278Y-91232268D01*
X184526760Y-91397906D01*
X184704424Y-91536189D01*
X184902426Y-91643342D01*
X185115365Y-91716444D01*
X185337431Y-91753500D01*
X185562569Y-91753500D01*
X185784635Y-91716444D01*
X185997574Y-91643342D01*
X186195576Y-91536189D01*
X186373240Y-91397906D01*
X186525722Y-91232268D01*
X186648860Y-91043791D01*
X186739296Y-90837616D01*
X186794564Y-90619368D01*
X186813156Y-90395000D01*
X186794564Y-90170632D01*
X186739296Y-89952384D01*
X186648860Y-89746209D01*
X186525722Y-89557732D01*
X186373240Y-89392094D01*
X186195576Y-89253811D01*
X185997574Y-89146658D01*
X185997573Y-89146657D01*
X185997572Y-89146657D01*
X185784636Y-89073556D01*
X185562569Y-89036500D01*
X185337431Y-89036500D01*
X185115363Y-89073556D01*
X184902427Y-89146657D01*
X184704424Y-89253811D01*
X184526760Y-89392094D01*
X184374275Y-89557734D01*
X184283807Y-89696205D01*
X184230661Y-89741562D01*
X184161429Y-89750985D01*
X184098094Y-89721483D01*
X184076190Y-89696204D01*
X183985722Y-89557732D01*
X183975481Y-89546607D01*
X183833240Y-89392094D01*
X183655576Y-89253811D01*
X183457574Y-89146658D01*
X183457573Y-89146657D01*
X183457572Y-89146657D01*
X183244636Y-89073556D01*
X183022569Y-89036500D01*
X182797431Y-89036500D01*
X182575363Y-89073556D01*
X182362427Y-89146657D01*
X182164424Y-89253811D01*
X181986760Y-89392094D01*
X181834279Y-89557730D01*
X181743809Y-89696205D01*
X181690662Y-89741561D01*
X181621431Y-89750985D01*
X181558095Y-89721483D01*
X181536191Y-89696205D01*
X181445723Y-89557734D01*
X181445722Y-89557732D01*
X181293240Y-89392094D01*
X181115576Y-89253811D01*
X180917574Y-89146658D01*
X180917573Y-89146657D01*
X180917572Y-89146657D01*
X180704636Y-89073556D01*
X180482569Y-89036500D01*
X180257431Y-89036500D01*
X180035363Y-89073556D01*
X179822426Y-89146657D01*
X179680448Y-89223491D01*
X179612119Y-89238086D01*
X179546747Y-89213423D01*
X179524050Y-89184088D01*
X179521462Y-89186075D01*
X179438486Y-89077939D01*
X179438475Y-89077926D01*
X179432777Y-89070500D01*
X179413987Y-89046013D01*
X179388512Y-89026465D01*
X179376326Y-89015777D01*
X178964225Y-88603676D01*
X178953531Y-88591482D01*
X178933989Y-88566015D01*
X178933987Y-88566014D01*
X178933987Y-88566013D01*
X178902074Y-88541525D01*
X178902072Y-88541523D01*
X178902060Y-88541513D01*
X178902038Y-88541496D01*
X178806876Y-88468476D01*
X178658851Y-88407162D01*
X178639456Y-88404608D01*
X178539902Y-88391502D01*
X178539892Y-88391500D01*
X178539885Y-88391500D01*
X178539883Y-88391500D01*
X178539874Y-88391499D01*
X178500000Y-88386249D01*
X178468180Y-88390439D01*
X178451995Y-88391500D01*
X174193005Y-88391500D01*
X174176820Y-88390439D01*
X174144998Y-88386249D01*
X174105124Y-88391499D01*
X174105105Y-88391501D01*
X174005543Y-88404608D01*
X173986146Y-88407162D01*
X173838124Y-88468475D01*
X173757768Y-88530136D01*
X173711011Y-88566013D01*
X173691463Y-88591488D01*
X173680772Y-88603678D01*
X173233360Y-89051089D01*
X173172037Y-89084574D01*
X173105419Y-89080690D01*
X173084637Y-89073556D01*
X172862569Y-89036500D01*
X172637431Y-89036500D01*
X172415363Y-89073556D01*
X172202427Y-89146657D01*
X172004424Y-89253811D01*
X171826760Y-89392094D01*
X171674279Y-89557730D01*
X171583809Y-89696205D01*
X171530662Y-89741561D01*
X171461431Y-89750985D01*
X171398095Y-89721483D01*
X171376191Y-89696205D01*
X171285723Y-89557734D01*
X171285722Y-89557732D01*
X171133240Y-89392094D01*
X170955576Y-89253811D01*
X170757574Y-89146658D01*
X170757573Y-89146657D01*
X170757572Y-89146657D01*
X170544636Y-89073556D01*
X170322569Y-89036500D01*
X170097431Y-89036500D01*
X169875363Y-89073556D01*
X169662427Y-89146657D01*
X169464424Y-89253811D01*
X169286759Y-89392094D01*
X169223548Y-89460759D01*
X169163660Y-89496749D01*
X169093822Y-89494648D01*
X169036207Y-89455123D01*
X169016138Y-89420110D01*
X168977078Y-89315390D01*
X168970889Y-89298796D01*
X168925442Y-89238086D01*
X168883261Y-89181738D01*
X168766203Y-89094110D01*
X168629205Y-89043011D01*
X168571924Y-89036853D01*
X168571918Y-89036852D01*
X168568638Y-89036500D01*
X166771362Y-89036500D01*
X166768082Y-89036852D01*
X166768075Y-89036853D01*
X166710794Y-89043011D01*
X166573796Y-89094110D01*
X166456738Y-89181738D01*
X166369110Y-89298796D01*
X166318011Y-89435794D01*
X166311853Y-89493075D01*
X166311500Y-89496362D01*
X166311500Y-91293638D01*
X166311852Y-91296918D01*
X166311853Y-91296924D01*
X166318011Y-91354205D01*
X166369110Y-91491203D01*
X166456738Y-91608261D01*
X166550210Y-91678233D01*
X166592082Y-91734166D01*
X166597066Y-91803858D01*
X166563581Y-91865181D01*
X166502258Y-91898666D01*
X166475900Y-91901500D01*
X164144677Y-91901500D01*
X164077638Y-91881815D01*
X164031883Y-91829011D01*
X164021939Y-91759853D01*
X164050964Y-91696297D01*
X164104414Y-91660219D01*
X164121398Y-91654387D01*
X164153574Y-91643342D01*
X164351576Y-91536189D01*
X164529240Y-91397906D01*
X164681722Y-91232268D01*
X164804860Y-91043791D01*
X164895296Y-90837616D01*
X164950564Y-90619368D01*
X164969156Y-90395000D01*
X164950564Y-90170632D01*
X164895296Y-89952384D01*
X164804860Y-89746209D01*
X164681722Y-89557732D01*
X164529240Y-89392094D01*
X164351576Y-89253811D01*
X164153574Y-89146658D01*
X164153573Y-89146657D01*
X164153572Y-89146657D01*
X163940636Y-89073556D01*
X163718569Y-89036500D01*
X163493431Y-89036500D01*
X163271363Y-89073556D01*
X163058427Y-89146657D01*
X162860424Y-89253811D01*
X162682760Y-89392094D01*
X162530279Y-89557730D01*
X162439809Y-89696205D01*
X162386662Y-89741561D01*
X162317431Y-89750985D01*
X162254095Y-89721483D01*
X162232191Y-89696205D01*
X162141723Y-89557734D01*
X162141722Y-89557732D01*
X161989240Y-89392094D01*
X161811576Y-89253811D01*
X161613574Y-89146658D01*
X161613573Y-89146657D01*
X161613572Y-89146657D01*
X161400636Y-89073556D01*
X161178569Y-89036500D01*
X160953431Y-89036500D01*
X160731363Y-89073556D01*
X160518427Y-89146657D01*
X160320424Y-89253811D01*
X160142760Y-89392094D01*
X159990279Y-89557730D01*
X159899809Y-89696205D01*
X159846662Y-89741561D01*
X159777431Y-89750985D01*
X159714095Y-89721483D01*
X159692191Y-89696205D01*
X159601723Y-89557734D01*
X159601722Y-89557732D01*
X159449240Y-89392094D01*
X159271576Y-89253811D01*
X159073574Y-89146658D01*
X159073573Y-89146657D01*
X159073572Y-89146657D01*
X158860636Y-89073556D01*
X158638569Y-89036500D01*
X158413431Y-89036500D01*
X158191363Y-89073556D01*
X157978427Y-89146657D01*
X157780424Y-89253811D01*
X157602760Y-89392094D01*
X157450279Y-89557730D01*
X157359809Y-89696205D01*
X157306662Y-89741561D01*
X157237431Y-89750985D01*
X157174095Y-89721483D01*
X157152191Y-89696205D01*
X157061723Y-89557734D01*
X157061722Y-89557732D01*
X156909240Y-89392094D01*
X156731576Y-89253811D01*
X156533574Y-89146658D01*
X156533573Y-89146657D01*
X156533572Y-89146657D01*
X156320636Y-89073556D01*
X156098569Y-89036500D01*
X155873431Y-89036500D01*
X155651363Y-89073556D01*
X155438427Y-89146657D01*
X155240424Y-89253811D01*
X155062760Y-89392094D01*
X154910279Y-89557730D01*
X154819809Y-89696205D01*
X154766662Y-89741561D01*
X154697431Y-89750985D01*
X154634095Y-89721483D01*
X154612191Y-89696205D01*
X154521723Y-89557734D01*
X154521722Y-89557732D01*
X154369240Y-89392094D01*
X154191576Y-89253811D01*
X153993574Y-89146658D01*
X153993573Y-89146657D01*
X153993572Y-89146657D01*
X153780636Y-89073556D01*
X153558569Y-89036500D01*
X153333431Y-89036500D01*
X153111363Y-89073556D01*
X152898427Y-89146657D01*
X152700424Y-89253811D01*
X152522760Y-89392094D01*
X152370279Y-89557730D01*
X152279809Y-89696205D01*
X152226662Y-89741561D01*
X152157431Y-89750985D01*
X152094095Y-89721483D01*
X152072191Y-89696205D01*
X151981723Y-89557734D01*
X151981722Y-89557732D01*
X151829240Y-89392094D01*
X151651576Y-89253811D01*
X151453574Y-89146658D01*
X151453573Y-89146657D01*
X151453572Y-89146657D01*
X151240636Y-89073556D01*
X151018569Y-89036500D01*
X150793431Y-89036500D01*
X150571363Y-89073556D01*
X150358427Y-89146657D01*
X150160424Y-89253811D01*
X149982760Y-89392094D01*
X149830279Y-89557730D01*
X149739809Y-89696205D01*
X149686662Y-89741561D01*
X149617431Y-89750985D01*
X149554095Y-89721483D01*
X149532191Y-89696205D01*
X149441723Y-89557734D01*
X149441722Y-89557732D01*
X149289240Y-89392094D01*
X149111576Y-89253811D01*
X148913574Y-89146658D01*
X148913573Y-89146657D01*
X148913572Y-89146657D01*
X148700636Y-89073556D01*
X148478569Y-89036500D01*
X148253431Y-89036500D01*
X148031363Y-89073556D01*
X147818427Y-89146657D01*
X147620424Y-89253811D01*
X147442760Y-89392094D01*
X147290279Y-89557730D01*
X147199809Y-89696205D01*
X147146662Y-89741561D01*
X147077431Y-89750985D01*
X147014095Y-89721483D01*
X146992191Y-89696205D01*
X146901723Y-89557734D01*
X146901722Y-89557732D01*
X146749240Y-89392094D01*
X146571576Y-89253811D01*
X146373574Y-89146658D01*
X146373573Y-89146657D01*
X146373572Y-89146657D01*
X146160636Y-89073556D01*
X145938569Y-89036500D01*
X145713431Y-89036500D01*
X145491363Y-89073556D01*
X145278427Y-89146657D01*
X145080424Y-89253811D01*
X144902760Y-89392094D01*
X144750279Y-89557730D01*
X144659809Y-89696205D01*
X144606662Y-89741561D01*
X144537431Y-89750985D01*
X144474095Y-89721483D01*
X144452191Y-89696205D01*
X144361723Y-89557734D01*
X144361722Y-89557732D01*
X144209240Y-89392094D01*
X144031576Y-89253811D01*
X143833574Y-89146658D01*
X143833573Y-89146657D01*
X143833572Y-89146657D01*
X143620636Y-89073556D01*
X143398569Y-89036500D01*
X143173431Y-89036500D01*
X142951363Y-89073556D01*
X142738427Y-89146657D01*
X142540424Y-89253811D01*
X142362759Y-89392094D01*
X142299548Y-89460759D01*
X142239660Y-89496749D01*
X142169822Y-89494648D01*
X142112207Y-89455123D01*
X142092138Y-89420110D01*
X142053078Y-89315390D01*
X142046889Y-89298796D01*
X142001442Y-89238086D01*
X141959261Y-89181738D01*
X141842203Y-89094110D01*
X141705205Y-89043011D01*
X141647924Y-89036853D01*
X141647918Y-89036852D01*
X141644638Y-89036500D01*
X139847362Y-89036500D01*
X139844082Y-89036852D01*
X139844075Y-89036853D01*
X139786794Y-89043011D01*
X139649796Y-89094110D01*
X139532738Y-89181738D01*
X139445110Y-89298796D01*
X139394011Y-89435794D01*
X139387853Y-89493075D01*
X139387500Y-89496362D01*
X139387500Y-91293638D01*
X139387852Y-91296918D01*
X139387853Y-91296924D01*
X139394011Y-91354205D01*
X139445110Y-91491203D01*
X139532738Y-91608261D01*
X139649796Y-91695889D01*
X139786794Y-91746988D01*
X139786797Y-91746988D01*
X139786799Y-91746989D01*
X139847362Y-91753500D01*
X139850672Y-91753500D01*
X141641328Y-91753500D01*
X141644638Y-91753500D01*
X141705201Y-91746989D01*
X141705203Y-91746988D01*
X141705205Y-91746988D01*
X141815913Y-91705695D01*
X141842204Y-91695889D01*
X141959261Y-91608261D01*
X142046889Y-91491204D01*
X142092137Y-91369889D01*
X142134009Y-91313956D01*
X142199474Y-91289540D01*
X142267747Y-91304392D01*
X142299548Y-91329241D01*
X142329318Y-91361579D01*
X142362760Y-91397906D01*
X142540424Y-91536189D01*
X142738426Y-91643342D01*
X142951365Y-91716444D01*
X143173431Y-91753500D01*
X143398569Y-91753500D01*
X143620635Y-91716444D01*
X143833574Y-91643342D01*
X144031576Y-91536189D01*
X144209240Y-91397906D01*
X144361722Y-91232268D01*
X144452190Y-91093795D01*
X144505337Y-91048438D01*
X144574569Y-91039014D01*
X144637905Y-91068516D01*
X144659809Y-91093795D01*
X144750278Y-91232268D01*
X144902760Y-91397906D01*
X145080424Y-91536189D01*
X145278426Y-91643342D01*
X145491365Y-91716444D01*
X145713431Y-91753500D01*
X145938569Y-91753500D01*
X146160635Y-91716444D01*
X146373574Y-91643342D01*
X146571576Y-91536189D01*
X146749240Y-91397906D01*
X146901722Y-91232268D01*
X146992190Y-91093795D01*
X147045337Y-91048438D01*
X147114569Y-91039014D01*
X147177905Y-91068516D01*
X147199809Y-91093795D01*
X147290278Y-91232268D01*
X147442760Y-91397906D01*
X147620424Y-91536189D01*
X147818426Y-91643342D01*
X148031365Y-91716444D01*
X148253431Y-91753500D01*
X148401730Y-91753500D01*
X148468769Y-91773185D01*
X148514524Y-91825989D01*
X148524468Y-91895147D01*
X148495443Y-91958703D01*
X148489411Y-91965181D01*
X147739412Y-92715181D01*
X147678089Y-92748666D01*
X147651731Y-92751500D01*
X131839614Y-92751500D01*
X131772575Y-92731815D01*
X131726820Y-92679011D01*
X131716876Y-92609853D01*
X131735805Y-92559679D01*
X131771166Y-92505553D01*
X131857984Y-92372669D01*
X131951749Y-92158907D01*
X132009051Y-91932626D01*
X132028327Y-91700000D01*
X132028064Y-91696832D01*
X132012436Y-91508227D01*
X132009051Y-91467374D01*
X131951749Y-91241093D01*
X131857984Y-91027331D01*
X131794148Y-90929624D01*
X131730315Y-90831918D01*
X131638348Y-90732016D01*
X131572220Y-90660182D01*
X131388017Y-90516810D01*
X131288148Y-90462764D01*
X135335787Y-90462764D01*
X135365413Y-90732016D01*
X135370471Y-90751362D01*
X135433928Y-90994088D01*
X135465557Y-91068516D01*
X135539871Y-91243392D01*
X135680982Y-91474611D01*
X135852375Y-91680561D01*
X135854255Y-91682820D01*
X136055998Y-91863582D01*
X136281910Y-92013044D01*
X136348425Y-92044225D01*
X136527177Y-92128021D01*
X136786562Y-92206058D01*
X136786569Y-92206060D01*
X137054561Y-92245500D01*
X137054564Y-92245500D01*
X137255369Y-92245500D01*
X137257631Y-92245500D01*
X137460156Y-92230677D01*
X137724553Y-92171780D01*
X137977558Y-92075014D01*
X138213777Y-91942441D01*
X138428177Y-91776888D01*
X138616186Y-91581881D01*
X138773799Y-91361579D01*
X138897656Y-91120675D01*
X138985118Y-90864305D01*
X139034319Y-90597933D01*
X139044212Y-90327235D01*
X139014586Y-90057982D01*
X138946072Y-89795912D01*
X138840130Y-89546610D01*
X138699018Y-89315390D01*
X138699017Y-89315388D01*
X138525746Y-89107181D01*
X138463144Y-89051089D01*
X138324002Y-88926418D01*
X138098090Y-88776956D01*
X138098086Y-88776954D01*
X137852822Y-88661978D01*
X137593437Y-88583941D01*
X137593431Y-88583940D01*
X137325439Y-88544500D01*
X137122369Y-88544500D01*
X137120120Y-88544664D01*
X137120109Y-88544665D01*
X136919843Y-88559322D01*
X136655449Y-88618219D01*
X136402441Y-88714986D01*
X136166223Y-88847559D01*
X135951825Y-89013109D01*
X135763813Y-89208120D01*
X135606201Y-89428420D01*
X135482342Y-89669329D01*
X135394881Y-89925695D01*
X135345680Y-90192066D01*
X135335787Y-90462764D01*
X131288148Y-90462764D01*
X131182727Y-90405713D01*
X131182726Y-90405712D01*
X131182725Y-90405712D01*
X130961953Y-90329919D01*
X130731712Y-90291500D01*
X130498288Y-90291500D01*
X130268046Y-90329919D01*
X130047274Y-90405712D01*
X129841983Y-90516809D01*
X129841983Y-90516810D01*
X129657782Y-90660181D01*
X129649672Y-90666493D01*
X129648902Y-90665504D01*
X129597912Y-90696144D01*
X129528074Y-90694039D01*
X129470461Y-90654510D01*
X129450397Y-90619502D01*
X129425889Y-90553796D01*
X129338261Y-90436738D01*
X129221203Y-90349110D01*
X129084205Y-90298011D01*
X129026924Y-90291853D01*
X129026918Y-90291852D01*
X129023638Y-90291500D01*
X127126362Y-90291500D01*
X127123082Y-90291852D01*
X127123075Y-90291853D01*
X127065794Y-90298011D01*
X126928796Y-90349110D01*
X126811738Y-90436738D01*
X126724110Y-90553796D01*
X126673011Y-90690794D01*
X126666853Y-90748075D01*
X126666500Y-90751362D01*
X126666500Y-90754670D01*
X126666500Y-90754671D01*
X126666500Y-92627500D01*
X126646815Y-92694539D01*
X126594011Y-92740294D01*
X126542500Y-92751500D01*
X125054624Y-92751500D01*
X124987585Y-92731815D01*
X124941830Y-92679011D01*
X124937762Y-92668902D01*
X124937709Y-92668817D01*
X124846771Y-92524091D01*
X124725909Y-92403229D01*
X124581183Y-92312291D01*
X124419850Y-92255838D01*
X124419848Y-92255837D01*
X124419846Y-92255837D01*
X124250000Y-92236700D01*
X124080153Y-92255837D01*
X124080150Y-92255837D01*
X124080150Y-92255838D01*
X123918817Y-92312291D01*
X123918815Y-92312291D01*
X123918815Y-92312292D01*
X123774089Y-92403230D01*
X123653230Y-92524089D01*
X123613403Y-92587474D01*
X123562291Y-92668817D01*
X123540247Y-92731815D01*
X123505837Y-92830153D01*
X123486700Y-93000000D01*
X123505837Y-93169846D01*
X123505837Y-93169848D01*
X123505838Y-93169850D01*
X123562291Y-93331183D01*
X123653229Y-93475909D01*
X123774091Y-93596771D01*
X123918817Y-93687709D01*
X124080150Y-93744162D01*
X124104956Y-93746956D01*
X124166559Y-93771801D01*
X124199207Y-93796853D01*
X124240409Y-93853281D01*
X124246940Y-93909110D01*
X124236700Y-93999998D01*
X124255837Y-94169846D01*
X124255837Y-94169848D01*
X124255838Y-94169850D01*
X124312291Y-94331183D01*
X124403229Y-94475909D01*
X124524091Y-94596771D01*
X124668817Y-94687709D01*
X124830150Y-94744162D01*
X124913369Y-94753538D01*
X124962694Y-94759096D01*
X125027108Y-94786162D01*
X125051768Y-94821294D01*
X125054858Y-94819353D01*
X125062290Y-94831181D01*
X125062291Y-94831183D01*
X125153229Y-94975909D01*
X125274091Y-95096771D01*
X125418817Y-95187709D01*
X125418818Y-95187709D01*
X125430647Y-95195142D01*
X125428571Y-95198445D01*
X125465401Y-95224852D01*
X125490903Y-95287304D01*
X125502491Y-95390147D01*
X125505838Y-95419850D01*
X125562291Y-95581183D01*
X125653229Y-95725909D01*
X125774091Y-95846771D01*
X125918817Y-95937709D01*
X126080150Y-95994162D01*
X126207537Y-96008514D01*
X126249999Y-96013299D01*
X126249999Y-96013298D01*
X126250000Y-96013299D01*
X126419850Y-95994162D01*
X126581183Y-95937709D01*
X126725909Y-95846771D01*
X126846771Y-95725909D01*
X126937709Y-95581183D01*
X126994162Y-95419850D01*
X126997888Y-95386775D01*
X127024953Y-95322365D01*
X127033428Y-95312978D01*
X127061590Y-95284817D01*
X127122914Y-95251333D01*
X127149270Y-95248500D01*
X133010637Y-95248500D01*
X133077676Y-95268185D01*
X133123431Y-95320989D01*
X133133375Y-95390147D01*
X133116754Y-95436650D01*
X133074174Y-95507085D01*
X133022986Y-95671353D01*
X133020464Y-95699110D01*
X133016500Y-95742735D01*
X133016500Y-95745552D01*
X133016500Y-95745553D01*
X133016500Y-96254443D01*
X133016500Y-96254464D01*
X133016501Y-96257264D01*
X133016755Y-96260062D01*
X133016756Y-96260079D01*
X133022986Y-96328649D01*
X133077574Y-96503828D01*
X133078726Y-96573688D01*
X133041925Y-96633080D01*
X132978856Y-96663148D01*
X132918235Y-96657760D01*
X132769847Y-96605837D01*
X132599999Y-96586700D01*
X132430153Y-96605837D01*
X132430150Y-96605837D01*
X132430150Y-96605838D01*
X132268817Y-96662291D01*
X132268815Y-96662291D01*
X132268815Y-96662292D01*
X132124089Y-96753230D01*
X132003230Y-96874089D01*
X131924115Y-97000000D01*
X131912291Y-97018817D01*
X131866388Y-97150000D01*
X131855837Y-97180153D01*
X131836700Y-97350000D01*
X131855837Y-97519846D01*
X131855837Y-97519848D01*
X131855838Y-97519850D01*
X131912291Y-97681183D01*
X132003229Y-97825909D01*
X132124091Y-97946771D01*
X132268817Y-98037709D01*
X132430150Y-98094162D01*
X132453470Y-98096789D01*
X132515072Y-98121633D01*
X132593123Y-98181524D01*
X132741146Y-98242837D01*
X132741149Y-98242838D01*
X132760543Y-98245391D01*
X132860115Y-98258500D01*
X132860120Y-98258500D01*
X132900000Y-98263750D01*
X132931820Y-98259560D01*
X132948005Y-98258500D01*
X133080166Y-98258500D01*
X133147205Y-98278185D01*
X133167847Y-98294819D01*
X133284843Y-98411815D01*
X133284845Y-98411816D01*
X133432087Y-98500827D01*
X133596351Y-98552013D01*
X133667735Y-98558500D01*
X133795731Y-98558499D01*
X133862769Y-98578183D01*
X133908524Y-98630987D01*
X133918468Y-98700145D01*
X133889444Y-98763701D01*
X133883411Y-98770180D01*
X133610280Y-99043311D01*
X133598088Y-99054004D01*
X133573144Y-99073144D01*
X133549059Y-99104533D01*
X133477211Y-99198167D01*
X133476452Y-99200000D01*
X133465316Y-99226887D01*
X133452859Y-99256961D01*
X133416905Y-99343760D01*
X133402063Y-99456500D01*
X133396335Y-99499999D01*
X133400439Y-99531164D01*
X133401500Y-99547350D01*
X133401500Y-99772726D01*
X133381815Y-99839765D01*
X133341651Y-99878842D01*
X133284844Y-99913183D01*
X133163184Y-100034843D01*
X133074174Y-100182085D01*
X133022986Y-100346353D01*
X133018847Y-100391903D01*
X133016500Y-100417735D01*
X133016500Y-100420552D01*
X133016500Y-100420553D01*
X133016500Y-100929443D01*
X133016500Y-100929464D01*
X133016501Y-100932264D01*
X133016755Y-100935062D01*
X133016756Y-100935079D01*
X133022986Y-101003649D01*
X133074171Y-101167910D01*
X133163184Y-101315156D01*
X133260347Y-101412319D01*
X133293832Y-101473642D01*
X133288848Y-101543334D01*
X133260347Y-101587681D01*
X133163184Y-101684843D01*
X133074174Y-101832085D01*
X133022986Y-101996353D01*
X133016755Y-102064925D01*
X133016500Y-102067735D01*
X133016500Y-102070552D01*
X133016500Y-102070553D01*
X133016500Y-102579443D01*
X133016500Y-102579464D01*
X133016501Y-102582264D01*
X133016755Y-102585062D01*
X133016756Y-102585079D01*
X133022986Y-102653649D01*
X133074171Y-102817910D01*
X133163184Y-102965156D01*
X133284841Y-103086813D01*
X133284843Y-103086814D01*
X133284845Y-103086816D01*
X133341651Y-103121156D01*
X133388837Y-103172682D01*
X133401500Y-103227281D01*
X133401499Y-103241126D01*
X133382493Y-103307088D01*
X133312293Y-103418812D01*
X133255837Y-103580153D01*
X133236700Y-103750000D01*
X133255837Y-103919846D01*
X133255837Y-103919848D01*
X133255838Y-103919850D01*
X133312291Y-104081183D01*
X133403229Y-104225909D01*
X133524091Y-104346771D01*
X133668817Y-104437709D01*
X133830150Y-104494162D01*
X133957537Y-104508514D01*
X133999999Y-104513299D01*
X133999999Y-104513298D01*
X134000000Y-104513299D01*
X134169850Y-104494162D01*
X134308046Y-104445804D01*
X134377825Y-104442243D01*
X134438452Y-104476971D01*
X134470680Y-104538965D01*
X134473001Y-104562846D01*
X134473001Y-106002649D01*
X134471940Y-106018835D01*
X134467836Y-106049999D01*
X134473001Y-106089223D01*
X134473001Y-106089225D01*
X134488406Y-106206240D01*
X134520868Y-106284611D01*
X134548711Y-106351831D01*
X134620561Y-106445468D01*
X134644644Y-106476853D01*
X134644646Y-106476855D01*
X134669585Y-106495991D01*
X134681780Y-106506686D01*
X134964813Y-106789719D01*
X134975508Y-106801914D01*
X134994645Y-106826855D01*
X135026021Y-106850930D01*
X135026045Y-106850949D01*
X135119666Y-106922787D01*
X135119669Y-106922789D01*
X135222618Y-106965431D01*
X135265261Y-106983095D01*
X135328686Y-106991444D01*
X135392581Y-107019710D01*
X135431053Y-107078034D01*
X135436500Y-107114382D01*
X135436500Y-108271000D01*
X135436854Y-108274294D01*
X135436855Y-108274309D01*
X135447880Y-108376846D01*
X135448236Y-108380157D01*
X135448940Y-108383394D01*
X135448942Y-108383405D01*
X135456331Y-108417367D01*
X135459442Y-108431668D01*
X135460488Y-108434811D01*
X135460492Y-108434825D01*
X135494108Y-108535824D01*
X135508857Y-108558774D01*
X135528541Y-108625814D01*
X135508856Y-108692853D01*
X135456052Y-108738608D01*
X135447876Y-108741994D01*
X135428796Y-108749110D01*
X135311738Y-108836738D01*
X135224110Y-108953796D01*
X135173011Y-109090794D01*
X135167560Y-109141500D01*
X135166500Y-109151362D01*
X135166500Y-109154671D01*
X135166500Y-109433605D01*
X135146815Y-109500644D01*
X135094011Y-109546399D01*
X135028617Y-109556825D01*
X134850000Y-109536700D01*
X134680153Y-109555837D01*
X134680150Y-109555837D01*
X134680150Y-109555838D01*
X134518817Y-109612291D01*
X134518815Y-109612291D01*
X134518815Y-109612292D01*
X134374089Y-109703230D01*
X134253230Y-109824089D01*
X134206836Y-109897925D01*
X134162291Y-109968817D01*
X134105838Y-110130150D01*
X134105837Y-110130153D01*
X134086700Y-110300000D01*
X134092685Y-110353117D01*
X134080630Y-110421938D01*
X134033281Y-110473318D01*
X133969465Y-110491000D01*
X131166100Y-110491000D01*
X131099061Y-110471315D01*
X131053306Y-110418511D01*
X131043362Y-110349353D01*
X131045894Y-110336560D01*
X131047095Y-110331818D01*
X131094564Y-110144368D01*
X131113156Y-109920000D01*
X131094564Y-109695632D01*
X131039296Y-109477384D01*
X130957771Y-109291525D01*
X130948861Y-109271211D01*
X130948860Y-109271209D01*
X130825722Y-109082732D01*
X130673240Y-108917094D01*
X130495576Y-108778811D01*
X130297574Y-108671658D01*
X130297573Y-108671657D01*
X130297572Y-108671657D01*
X130084636Y-108598556D01*
X129862569Y-108561500D01*
X129637431Y-108561500D01*
X129415363Y-108598556D01*
X129202427Y-108671657D01*
X129004424Y-108778811D01*
X128826759Y-108917094D01*
X128763548Y-108985759D01*
X128703660Y-109021749D01*
X128633822Y-109019648D01*
X128576207Y-108980123D01*
X128556138Y-108945110D01*
X128520995Y-108850891D01*
X128510889Y-108823796D01*
X128472019Y-108771872D01*
X128423261Y-108706738D01*
X128306203Y-108619110D01*
X128169205Y-108568011D01*
X128111924Y-108561853D01*
X128111918Y-108561852D01*
X128108638Y-108561500D01*
X126311362Y-108561500D01*
X126308082Y-108561852D01*
X126308075Y-108561853D01*
X126250794Y-108568011D01*
X126113796Y-108619110D01*
X125996738Y-108706738D01*
X125909110Y-108823796D01*
X125858011Y-108960794D01*
X125853906Y-108998980D01*
X125851500Y-109021362D01*
X125851500Y-110818638D01*
X125851852Y-110821918D01*
X125851853Y-110821924D01*
X125858011Y-110879205D01*
X125909110Y-111016203D01*
X125996738Y-111133261D01*
X126099918Y-111210500D01*
X126113796Y-111220889D01*
X126231596Y-111264826D01*
X126287527Y-111306697D01*
X126311944Y-111372161D01*
X126297092Y-111440434D01*
X126279490Y-111464990D01*
X126134279Y-111622730D01*
X126011138Y-111811211D01*
X125920705Y-112017381D01*
X125920704Y-112017384D01*
X125897870Y-112107554D01*
X125865435Y-112235636D01*
X125846843Y-112460000D01*
X125865435Y-112684363D01*
X125865435Y-112684366D01*
X125865436Y-112684368D01*
X125920041Y-112899999D01*
X125920705Y-112902618D01*
X126011138Y-113108788D01*
X126011140Y-113108791D01*
X126134278Y-113297268D01*
X126286760Y-113462906D01*
X126464424Y-113601189D01*
X126464426Y-113601190D01*
X126500931Y-113620946D01*
X126550521Y-113670165D01*
X126565629Y-113738382D01*
X126541458Y-113803937D01*
X126500931Y-113839054D01*
X126464426Y-113858809D01*
X126286760Y-113997094D01*
X126134279Y-114162730D01*
X126011138Y-114351211D01*
X125923943Y-114549999D01*
X125920704Y-114557384D01*
X125865436Y-114775632D01*
X125865435Y-114775636D01*
X125846843Y-115000000D01*
X125865435Y-115224363D01*
X125865435Y-115224366D01*
X125865436Y-115224368D01*
X125920704Y-115442616D01*
X125972654Y-115561050D01*
X125973373Y-115562690D01*
X125982276Y-115631990D01*
X125952299Y-115695102D01*
X125892959Y-115731989D01*
X125859817Y-115736500D01*
X122074500Y-115736500D01*
X122007461Y-115716815D01*
X121961706Y-115664011D01*
X121950500Y-115612500D01*
X121950500Y-88506089D01*
X121951097Y-88493936D01*
X121953977Y-88464695D01*
X121966422Y-88354243D01*
X121970973Y-88332182D01*
X121986372Y-88281420D01*
X121987963Y-88276545D01*
X122014797Y-88199857D01*
X122022462Y-88182401D01*
X122049956Y-88130963D01*
X122054267Y-88123536D01*
X122094789Y-88059046D01*
X122103912Y-88046376D01*
X122141918Y-88000066D01*
X122150053Y-87991091D01*
X122203091Y-87938053D01*
X122212066Y-87929918D01*
X122258376Y-87891912D01*
X122271046Y-87882789D01*
X122335536Y-87842267D01*
X122342963Y-87837956D01*
X122394401Y-87810462D01*
X122411857Y-87802797D01*
X122488545Y-87775963D01*
X122493420Y-87774372D01*
X122551075Y-87756882D01*
X122567474Y-87753103D01*
X122569805Y-87752730D01*
X122577171Y-87751779D01*
X122705938Y-87739097D01*
X122718092Y-87738500D01*
X122736043Y-87738500D01*
X122745504Y-87733334D01*
X122771862Y-87730500D01*
X185398430Y-87730500D01*
X185465469Y-87750185D01*
G37*
%TD.AperFunction*%
%TD*%
M02*
